<?xml version="1.0" encoding="utf-8"?>
<!-- Generator: Adobe Illustrator 18.0.0, SVG Export Plug-In . SVG Version: 6.00 Build 0)  -->
<!DOCTYPE svg PUBLIC "-//W3C//DTD SVG 1.1//EN" "http://www.w3.org/Graphics/SVG/1.1/DTD/svg11.dtd">
<svg version="1.1" id="Layer_1" xmlns="http://www.w3.org/2000/svg" xmlns:xlink="http://www.w3.org/1999/xlink" x="0px" y="0px"
	 viewBox="0 0 360 216" enable-background="new 0 0 360 216" xml:space="preserve">
<rect fill="none" width="360" height="216"/>
<g>
	<g>
		<g>
			<g>
				<g>
					<path fill="#F47920" d="M197.4,132.3h-26.6c-6.2,0-10.4-1.3-12.8-3.8c-2.4-2.6-3.6-7-3.6-13.3c0-6.8,1-11.7,3-14.8
						c2.5-3.8,6.9-5.7,13.4-5.7h21.5V82.1h-21.8c-11.6,0-20.3,2.5-26.1,7.4c-6.1,5.3-9.2,13.7-9.2,25.1c0,7.4,1.7,13.6,5.2,18.6
						c3.7,5.4,9,9,16,10.6c3.3,0.8,7.9,1.2,13.7,1.2h42.4C206.2,142.3,201,137.8,197.4,132.3z"/>
					<path fill="#F47920" d="M323.1,111c-3.3-2.1-8.4-3.2-15.5-3.2h-18c-4.9,0-7.4-1.9-7.4-5.6c0-2.8,1-4.8,3-5.8
						c1.3-0.7,3.4-1,6.3-1H318V82.3h-28.5c-7.2,0-12.7,1.2-16.5,3.7c-4.9,3.2-7.3,8.5-7.3,16c0,7.1,2.3,12.1,7,15.1
						c3.6,2.3,8.8,3.5,15.7,3.5h16.1c3.4,0,5.6,0.4,6.7,1.2c1.2,1,1.9,2.5,1.9,4.7c0,2.5-1.1,4.2-3.3,5.1c-1.3,0.5-3.3,0.8-6.1,0.8
						h-45.7c-3.8,5.7-9.2,10.2-15.4,13h63.3c15.9,0,23.8-6.4,23.8-19.2C329.5,118.9,327.3,113.8,323.1,111z"/>
				</g>
			</g>
		</g>
	</g>
	<path fill="#F47920" d="M196.2,112.1c0-17.4,14.1-31.4,31.4-31.4l0,0c17.4,0,31.4,14.1,31.4,31.4l0,0c0,17.4-14.1,31.4-31.4,31.4
		l0,0C210.2,143.6,196.2,129.5,196.2,112.1L196.2,112.1z M209.4,112.1c0,10.1,8.2,18.2,18.2,18.2l0,0c10,0,18.2-8.2,18.2-18.2l0,0
		c0-10.1-8.2-18.2-18.2-18.2l0,0C217.6,93.9,209.4,102.1,209.4,112.1L209.4,112.1z"/>
	<g>
		<path fill="#023F88" d="M135.6,144.5h-26.3l-8.8-18.5H61.6l-8.5,18.5H27.8l41.8-80.9h23.8L135.6,144.5z M92.7,109.2L80.8,84.5
			l-11.4,24.6H92.7z"/>
	</g>
</g>
<g>
	<path d="M326,86.9c-2.9,0-5.6-2.3-5.6-5.6c0-3.2,2.6-5.6,5.6-5.6c3.3,0,5.7,2.6,5.7,5.7C331.6,84.4,329.2,86.9,326,86.9z M326,76.1
		c-2.9,0-5.2,2.3-5.2,5.1c0,2.9,2.3,5.1,5.1,5.1c2.9,0,5.1-2.3,5.1-5.1C331.2,78.4,329,76.1,326,76.1z M325.9,77.7
		c0.8,0,1.2,0,1.6,0.2c0.7,0.3,1.1,0.9,1.1,1.6c0,1-0.7,1.6-1.6,1.7c0.8,0.3,1,0.7,1.1,1.6c0.2,1,0.2,1.4,0.5,2h-1.2
		c-0.2-0.3-0.2-0.6-0.3-1c0-0.2-0.1-0.9-0.2-1.1c-0.2-1-0.8-1.2-1.8-1.2h-0.5v3.3h-1v-7H325.9z M324.8,80.7h1.2c0.4,0,1.6,0,1.6-1.1
		c0-0.3-0.1-0.6-0.3-0.8c-0.3-0.3-0.6-0.3-1.5-0.3h-1V80.7z"/>
</g>
</svg>
