<?xml version="1.0" encoding="utf-8"?>
<!-- Generator: Adobe Illustrator 18.0.0, SVG Export Plug-In . SVG Version: 6.00 Build 0)  -->
<!DOCTYPE svg PUBLIC "-//W3C//DTD SVG 1.1//EN" "http://www.w3.org/Graphics/SVG/1.1/DTD/svg11.dtd">
<svg version="1.1" id="Layer_1" xmlns="http://www.w3.org/2000/svg" xmlns:xlink="http://www.w3.org/1999/xlink" x="0px" y="0px"
	 viewBox="0 0 360 216" enable-background="new 0 0 360 216" xml:space="preserve">
<rect fill="none" width="360" height="216"/>
<g>
	<path d="M320.7-71.2c-3.1,0-5.9-2.4-5.9-5.9c0-3.4,2.7-5.9,5.9-5.9c3.4,0,6,2.7,5.9,6C326.6-73.8,324-71.2,320.7-71.2z M320.7-82.5
		c-3.1,0-5.4,2.4-5.4,5.4c0,3,2.4,5.4,5.4,5.4c3,0,5.4-2.4,5.4-5.4C326.1-80.1,323.8-82.5,320.7-82.5z M320.6-80.8
		c0.9,0,1.3,0,1.7,0.2c0.7,0.3,1.1,1,1.1,1.7c0,1-0.7,1.6-1.7,1.8c0.8,0.3,1,0.7,1.2,1.6c0.2,1.1,0.2,1.5,0.5,2.1h-1.2
		c-0.2-0.3-0.2-0.7-0.3-1c0-0.2-0.2-1-0.2-1.2c-0.2-1.1-0.8-1.2-1.9-1.2h-0.5v3.4h-1.1v-7.4H320.6z M319.4-77.8h1.2
		c0.5,0,1.7,0,1.7-1.2c0-0.3-0.1-0.6-0.3-0.8c-0.3-0.3-0.7-0.3-1.6-0.3h-1V-77.8z"/>
</g>
<g>
	<g>
		<path d="M318.4,93.1h-1V85h-2.9v-0.9h6.8V85h-2.9V93.1z"/>
		<path d="M326.7,93.1l-3.1-8h0c0.1,0.6,0.1,1.4,0.1,2.3v5.7h-1v-9h1.6l2.9,7.4h0l2.9-7.4h1.6v9h-1v-5.8c0-0.7,0-1.4,0.1-2.2h0
			l-3.1,8H326.7z"/>
	</g>
</g>
<g>
	<g>
		<path d="M117.9,124.5h-5.8c0.5-6,0.7-12.6,0.7-19.8c0-3.5-0.7-5.9-2-7.2c-1.3-1.3-3.2-1.9-5.7-1.9c-3,0-5.8,1.2-8.4,3.5
			c0,7.8,0,16.3,0.1,25.4H91c0.4-7.8,0.5-13.5,0.5-16.9c0-5.4-0.5-10.6-1.4-15.6l5.6-0.9l0.6,4.2h0.3c3.2-3.1,6.5-4.6,10.2-4.6
			c3.5,0,6.3,0.8,8.2,2.5c1.9,1.7,2.9,4.7,2.9,9c0,0.4,0,1.3-0.1,2.6c0,1.3-0.1,2.2-0.1,2.6C117.8,111.1,117.8,116.9,117.9,124.5z"
			/>
		<path d="M151,124.4l-4.8,0.2c-0.2-1-0.3-2-0.3-3.1h-0.4c-2.2,2.6-5.6,3.9-10,3.9c-4.1,0-7.3-1.6-9.7-4.8c-2.4-3.2-3.6-7-3.6-11.5
			c0-5.1,1.3-9.4,4-13.1c2.7-3.7,6.4-5.5,11.3-5.5c3.5,0,5.9,0.7,7.4,2.3h0.3c0-5.7-0.2-11.3-0.5-16.8l6.1-0.2
			c-0.4,5.8-0.6,13.5-0.6,22.9C150.3,108.3,150.5,116.9,151,124.4z M145.8,117.6c0-7.1-0.2-14-0.5-20.6c-1.7-1.5-3.9-2.3-6.5-2.3
			c-3.6,0-6.3,1.3-8.1,3.9c-1.8,2.6-2.7,5.8-2.7,9.7c0,3.5,0.8,6.4,2.5,8.8c1.7,2.4,4.1,3.6,7.1,3.6
			C141.4,120.7,144.1,119.7,145.8,117.6z"/>
		<path d="M181.8,104.2c0,1,0,2.3-0.1,4l-22,0.4c0.2,3.3,1.4,6.2,3.6,8.4c2.2,2.3,5.1,3.4,8.7,3.4c3.2,0,6.3-0.4,9.1-1.3l-0.5,4.9
			c-2.1,0.9-5.1,1.3-9.1,1.3c-5.5,0-9.8-1.6-12.7-4.9c-2.9-3.3-4.4-7.2-4.4-11.9c0-5,1.3-9.3,4-12.9c2.7-3.6,6.2-5.4,10.7-5.4
			c4.1,0,7.3,1.3,9.4,3.9C180.7,96.8,181.8,100.1,181.8,104.2z M176.5,104.3c0-6.5-2.5-9.7-7.5-9.7c-5.1,0-8.1,3.4-9.1,10.1
			L176.5,104.3z"/>
		<path fill="#E36137" d="M215,106.8c0,5-1.3,9.3-4,13c-2.6,3.7-6.3,5.6-11,5.6c-3.9,0-6.5-0.8-7.7-2.3H192c0,6.4,0.1,12.1,0.2,17.1
			h-6c0.5-6.1,0.7-13.7,0.7-22.6c0-11.1-0.5-19.6-1.6-25.7l5.6-0.9l0.5,3.4h0.3c2.1-2.6,5.4-3.9,10.1-3.9c4.1,0,7.3,1.6,9.7,4.8
			C213.8,98.5,215,102.4,215,106.8z M209.3,107.6c0-3.4-0.8-6.3-2.5-8.7c-1.7-2.4-4-3.6-7-3.6c-3.9,0-6.6,1.2-8.3,3.7
			c0.3,7.7,0.5,14.4,0.5,19.9c1.7,1.6,4,2.3,6.8,2.3c3.5,0,6.2-1.3,7.9-4C208.4,114.5,209.3,111.3,209.3,107.6z"/>
		<path fill="#E36137" d="M238.2,91.7l-1.4,5.5c-1.7-0.7-3.2-1.1-4.6-1.1c-4,0-6.6,2.1-7.8,6.2c0,10.6,0.1,17.9,0.2,22.1h-5.7
			c0.3-7.3,0.5-12.9,0.5-16.9c0-5.4-0.5-10.7-1.5-15.6l5.6-0.9c0.4,2.5,0.6,4.2,0.6,5.1h0.3c2.3-3.7,5-5.5,8.1-5.5
			C234,90.6,235.9,91,238.2,91.7z"/>
		<path fill="#E36137" d="M264.5,124.5l-5,0.2c-0.3-1.1-0.4-2.2-0.4-3.2h-0.3c-2.6,2.6-6.2,3.8-10.7,3.8c-2.5,0-4.6-0.8-6.3-2.3
			c-1.8-1.6-2.7-3.8-2.7-6.6c0-3.5,1.4-6.4,4.2-8.5c2.8-2.1,7.9-3.3,15.5-3.4c0.1-0.6,0.1-1.2,0.1-1.9c0-2.8-0.7-4.7-2.1-5.6
			c-1.4-0.9-3.5-1.4-6.4-1.4c-3.3,0-6.6,0.4-9.9,1.3l0.5-4.8c3.2-1,6.9-1.5,11.1-1.5c3.8,0,6.7,0.8,8.8,2.5c2.1,1.7,3.1,4.6,3.1,8.6
			c0,1.1-0.1,3-0.1,5.9c-0.1,2.8-0.1,4.7-0.1,5.7C263.6,117.5,263.9,121.2,264.5,124.5z M258.8,117.8c-0.1-3.5-0.2-6.6-0.2-9.4
			c-4,0-7.1,0.3-9.2,1c-3.5,1.2-5.3,3.3-5.3,6.6c0,3.1,2.1,4.7,6.2,4.7C253.9,120.6,256.7,119.7,258.8,117.8z"/>
		<path fill="#E36137" d="M309.3,104.5c0-3.7-0.6-6.1-1.8-7.3c-1.2-1.2-3.1-1.8-5.8-1.8c-2.3,0-4.6,1.2-7.1,3.6
			c-0.1,2.8-0.1,5.5-0.1,8.2c0,3.8,0.1,9.5,0.2,17.1h-5.8c0.5-6.5,0.7-13.2,0.7-19.9c0-3.7-0.6-6.1-1.8-7.3
			c-1.2-1.2-3.1-1.8-5.7-1.8c-2.7,0-5.2,1.2-7.5,3.6c0,7.3,0,15.7,0.1,25.4h-5.8c0.4-7.8,0.6-13.5,0.6-16.9c0-5.3-0.5-10.5-1.4-15.6
			l5.6-0.9l0.6,4.2h0.3c2.8-3,5.9-4.6,9.3-4.6c5.1,0,8.3,1.5,9.8,4.6h0.4c3.2-3,6.4-4.6,9.6-4.6c3.6,0,6.3,0.9,8.1,2.6
			c1.8,1.7,2.7,4.7,2.7,9c0,0.4,0,1.3-0.1,2.6c0,1.3-0.1,2.2-0.1,2.6c0,3.8,0,9.5,0.1,17.1h-5.8C309,118.4,309.3,111.8,309.3,104.5z
			"/>
	</g>
	<g>
		<path d="M87.2,124.5c0-0.9-1.4-5.1-4.2-12.6c-0.7,2.3-2.5,4.4-5.4,6.2c1,3.4,1.5,5.5,1.5,6.4H87.2z"/>
		<path d="M67,84h0.4c0,0.7,0.7,5.2,3.4,13.5c3.4,1.2,6.3,2.7,8.4,4.4c-5.2-13.5-7.8-21-7.8-22.3H61.3c0,1.1-1.8,6.2-5.3,15.4
			c2.4,0.1,4.8,0.3,6.9,0.7C65.6,88.4,67,84.5,67,84z"/>
		<path d="M53.1,102.4c-5.5,13.8-8.3,21.2-8.3,22h9.1c0-1.6,1.3-6.5,4-14.5l1.3-4.5c0.6-1.5,1.1-3,1.7-4.4c-2.1-0.5-4.4-0.8-6.9-1.1
			C53.7,100.8,53.4,101.6,53.1,102.4z"/>
		<path fill="#E36137" d="M80.6,105.5c0.4,1.2,0.9,2.3,1.3,3.4C81.7,107.7,81.3,106.6,80.6,105.5z"/>
		<path fill="#E36137" d="M81.9,108.9c-0.4-1.1-0.8-2.2-1.3-3.4c-1.7-2.5-4.8-4.7-9.2-6.4c-2.6-0.9-5.6-1.7-8.9-2.2
			c-2.2-0.3-4.5-0.5-7-0.6c-0.8,0-1.6,0-2.4,0c-8.2,0-18.6,1.5-24.2,3.7c4.8-1.1,10.4-1.8,16.4-1.8c3.3,0,6.4,0.2,9.4,0.5
			c2.4,0.3,4.7,0.6,6.8,1.1c5.2,1.1,9.3,2.8,11.9,4.9c1.8,1.5,2.8,3.1,2.8,5c0,0.7-0.2,1.5-0.5,2.2c-1.4,3.7-6.2,7.5-13.5,9.5
			c6.4-0.9,11.6-2.5,15-4.8c3-1.9,4.7-4.3,4.7-6.9C81.9,109.4,81.9,109.1,81.9,108.9z"/>
	</g>
</g>
</svg>
