<?xml version="1.0" encoding="utf-8"?>
<!-- Generator: Adobe Illustrator 18.0.0, SVG Export Plug-In . SVG Version: 6.00 Build 0)  -->
<!DOCTYPE svg PUBLIC "-//W3C//DTD SVG 1.1//EN" "http://www.w3.org/Graphics/SVG/1.1/DTD/svg11.dtd">
<svg version="1.1" id="Layer_1" xmlns="http://www.w3.org/2000/svg" xmlns:xlink="http://www.w3.org/1999/xlink" x="0px" y="0px"
	 viewBox="0 0 360 216" enable-background="new 0 0 360 216" xml:space="preserve">
<rect fill="none" width="360" height="216"/>
<g>
	<path d="M282.1,107.4c-3.7,0-7.1-2.9-7.1-7.1c0-4.1,3.3-7.1,7.1-7.1c4.1,0,7.1,3.2,7.1,7.1C289.2,104.3,286.1,107.4,282.1,107.4z
		 M282.2,93.9c-3.7,0-6.5,2.9-6.5,6.4c0,3.6,2.9,6.4,6.4,6.4c3.6,0,6.4-2.8,6.5-6.4C288.6,96.8,285.9,93.9,282.2,93.9z M282,95.9
		c1,0,1.5,0,2.1,0.2c0.9,0.4,1.4,1.2,1.4,2c0,1.2-0.9,1.9-2,2.1c1,0.4,1.3,0.9,1.4,1.9c0.2,1.3,0.3,1.8,0.7,2.6h-1.5
		c-0.2-0.4-0.3-0.8-0.4-1.2c0-0.2-0.2-1.2-0.2-1.4c-0.3-1.3-1-1.5-2.2-1.5h-0.6v4.1h-1.3v-8.8H282z M280.6,99.6h1.5c0.6,0,2,0,2-1.4
		c0-0.4-0.2-0.8-0.4-1c-0.4-0.3-0.8-0.3-1.9-0.3h-1.2V99.6z"/>
</g>
<g>
	<g>
		<path d="M410.9,98.7h-0.7v-5.1h-1.8v-0.6h4.2v0.6h-1.8V98.7z"/>
		<path d="M416,98.7l-1.9-5h0c0,0.4,0.1,0.9,0.1,1.4v3.6h-0.6v-5.7h1l1.8,4.7h0l1.8-4.7h1v5.7h-0.7v-3.6c0-0.4,0-0.9,0.1-1.4h0
			l-1.9,5H416z"/>
	</g>
</g>
<g>
	<g>
		<path d="M188,178.1v8h-2.9v-21h6.4c1,0,2,0,2.9,0.2c2,0.5,3.2,1.8,3.7,3.6c0.2,0.8,0.3,1.6,0.3,2.5c0,2-0.5,4.1-2,5.3
			c-1.6,1.4-3.9,1.4-5.7,1.4H188z M188,176.1h2.8c2.1,0,4.8-0.1,4.8-4.5c0-0.7,0-2.8-1.4-3.8c-1-0.7-2.4-0.7-3.5-0.7H188V176.1z"/>
		<path d="M203,186.1h-2.6v-14.9h2.6v2c0.5-0.7,1.6-2.2,3.6-2.2c0.9,0,1.4,0.3,1.8,0.5v2.3c-0.5-0.4-1.3-0.9-2.4-0.9
			c-0.3,0-0.9,0-1.5,0.3c-1.5,0.7-1.5,2-1.5,2.8V186.1z"/>
		<path d="M222,181.6c-0.2,3.8-3.5,4.8-6.1,4.8c-0.9,0-3.2-0.1-4.8-1.8c-0.7-0.8-1.7-2.4-1.7-5.5c0-4.9,2-8.2,6.6-8.2
			c4.7,0,6.1,3.2,6,7.7h-9.9c0,1.8,0,6.1,3.9,6.1c0.9,0,3.3-0.3,3.4-3.2H222z M219.5,177.1c0-0.9-0.1-4.5-3.4-4.5
			c-2.1,0-3.7,1.5-3.9,4.5H219.5z"/>
		<path d="M244.5,186.1h-2.6v-9.7c0-1.1-0.1-2-0.4-2.7c-0.4-0.7-1.2-1.1-2.1-1.1c-0.6,0-1.1,0.1-1.6,0.4c-1.6,0.8-1.7,2.1-1.7,3.1
			v10h-2.6v-9.8c0-0.5,0-1-0.1-1.5c-0.2-1-0.9-2.3-2.5-2.3c-1.3,0-2.5,0.8-2.9,1.8c-0.3,0.7-0.3,1.6-0.3,2.6v9.2h-2.6v-14.9h2.6v1.7
			c0.8-0.7,2.2-2,4.4-2c1.8,0,3.1,0.8,3.7,2.3c1.3-1.5,2.9-2.3,4.7-2.3c0.6,0,1.2,0.1,1.8,0.4c2,0.9,2.1,2.9,2.1,4.2V186.1z"/>
		<path d="M251.3,168.1h-2.5v-2.6h2.5V168.1z M251.3,186.1h-2.6v-14.9h2.6V186.1z"/>
		<path d="M267.4,186.1h-2.5v-1.8c-0.7,0.6-2.3,2.1-4.9,2.1c-0.9,0-1.6-0.1-2.3-0.5c-2.2-1.1-2.2-3.3-2.3-5v-9.7h2.5v8.6
			c0,1.6,0.1,2.6,0.4,3.3c0.5,1,1.4,1.6,2.7,1.6c1,0,2.4-0.4,3-1.1c0.7-0.7,0.8-1.6,0.8-2.3v-10.1h2.5V186.1z"/>
		<path d="M291,186.1h-2.6v-9.7c0-1.1-0.1-2-0.4-2.7c-0.5-0.7-1.2-1.1-2.1-1.1c-0.6,0-1.1,0.1-1.6,0.4c-1.6,0.8-1.7,2.1-1.7,3.1v10
			h-2.6v-9.8c0-0.5,0-1-0.1-1.5c-0.2-1-0.9-2.3-2.5-2.3c-1.3,0-2.5,0.8-2.9,1.8c-0.3,0.7-0.3,1.6-0.3,2.6v9.2h-2.6v-14.9h2.6v1.7
			c0.8-0.7,2.2-2,4.4-2c1.8,0,3.1,0.8,3.7,2.3c1.3-1.5,2.9-2.3,4.7-2.3c0.6,0,1.2,0.1,1.8,0.4c2,0.9,2.1,2.9,2.1,4.2V186.1z"/>
	</g>
	<g>
		<g>
			<path fill="#ED1260" d="M83.2,178.5c0,4.8-3.9,8.6-8.6,8.6c-4.8,0-8.7-3.9-8.7-8.6c0-4.8,3.9-8.6,8.7-8.6
				C79.3,169.9,83.2,173.8,83.2,178.5z"/>
			<path fill="#008049" d="M112.3,178.5c0,4.8-3.9,8.6-8.7,8.6c-4.8,0-8.6-3.9-8.6-8.6c0-4.8,3.9-8.6,8.6-8.6
				C108.4,169.9,112.3,173.8,112.3,178.5z"/>
			<path fill="#FBAD18" d="M141.3,178.5c0,4.8-3.9,8.6-8.6,8.6c-4.8,0-8.6-3.9-8.6-8.6c0-4.8,3.9-8.6,8.6-8.6
				C137.4,169.9,141.3,173.8,141.3,178.5z"/>
		</g>
		<g>
			<g>
				<g>
					<path fill="#F04E23" stroke="#F15A22" stroke-width="1.6138" d="M74.7,117.1c-0.2-0.6-0.3-1.1-0.3-1.5c0-0.4,0-0.7,0-1
						c0-1.8,0.2-3.4,0.7-4.7c0.4-1.3,1.1-2.4,2-3.3c0.2-0.2,0.8-0.6,1.7-1c0.9-0.4,2.1-1,3.6-1.6c1.1-0.5,1.9-1.1,2.5-1.8
						c0.6-0.7,1-1.5,1-2.5c0.2-0.8,0.5-1.7,1-2.6c0.5-1,1.1-2.1,1.7-3.2c0.2-0.3,0.9-2.2,2-5.7c1.1-3.5,2.6-8.6,4.6-15.3
						c0.5-2,1.1-3.8,1.7-5.3c0.6-1.5,1-2.8,1.4-3.8c1.8-4.7,3.2-7.8,4.3-9.2c1.1-1.5,2-2.7,2.5-3.6v-0.4l-2.6-4.1l3.2-3.7L110,42
						c0.8-0.1,1.6-0.9,2.3-2.3c0.7-1.4,1.9-3,3.6-4.7c0.4-0.1,1-0.5,1.9-1c0.9-0.6,1.9-1.4,3.3-2.4c1.2-0.9,2.2-1.6,3-2.1
						c0.8-0.4,1.5-0.7,1.9-0.7c1.5,0,2.6,0.3,3.2,0.9c0.7,0.6,1,1.4,1,2.4c0,1.2-0.6,3-1.9,5.3c-1.3,2.3-1.9,4.1-1.9,5.3
						c0,0.6,0.1,1,0.4,1.4c0.2,0.4,0.5,0.6,0.9,0.7l9.9,5.4c0.5,0.2,1,1.1,1.5,2.6c0.4,1.5,0.8,3.6,1.1,6.2c0.3,2.2,0.6,4,0.8,5.5
						c0.2,1.5,0.3,2.6,0.3,3.5c-0.4,2.4-0.8,4.8-1.2,7.2c0.5,3.1,1.2,6.3,1.8,9.8c-0.3,3.3-0.7,6.6-1.1,9.9c0,0.3,0.1,0.6,0.2,0.9
						c0.1,0.2,0.3,0.4,0.6,0.4c0.9,0.1,1.6,0.3,2.1,0.7c0.5,0.4,0.7,1,0.7,1.8c0,1-0.1,1.8-0.5,2.4c-0.3,0.6-0.7,1-1.3,1.4
						c-0.7,0.4-1.3,0.8-1.7,1.2c-0.4,0.3-0.7,0.6-0.9,0.8l1.1,5.1l-1.5,11.8c0,1-0.1,2.3-0.2,3.8c-0.2,1.6-0.4,3.3-0.7,5.4
						c-0.6,1.5-1,2.7-1.2,3.7c-0.3,1-0.4,1.7-0.4,2c0.3,0.9,0.5,1.9,0.7,3c-0.3,1.5-0.7,3-1,4.5c-0.4,1.5-0.7,3-1,4.4
						c-0.6,1.9-1.4,3.3-2.4,4.3c-1,0.9-2.1,1.4-3.5,1.4c-0.7,0-1.3-0.3-1.6-1c-0.4-0.6-0.5-1.6-0.5-2.9c0-0.5,0.1-1.4,0.3-2.4
						c0.2-1.1,0.3-1.9,0.3-2.4c0-0.4-0.1-0.9-0.2-1.6c-0.1-0.7-0.2-1.2-0.2-1.7c0-1.5,0.1-4,0.5-7.4c0.3-3.4,0.5-5.9,0.5-7.7
						c-0.3-0.9-0.5-1.9-0.8-2.9c0.2-1,0.3-2.1,0.3-3.2c0.1-1.1,0-2.1-0.1-3l1.2-2.2l-1.1-7.7l-0.6-0.2c-0.3,0-0.8,0.1-1.5,0.4
						c-0.6,0.2-1.4,0.6-2.4,1.2c-0.7,0.2-1.7,0.5-3.1,0.7c-1.4,0.2-3.3,0.4-5.6,0.5c-1,0.5-1.9,0.9-2.8,1.3
						c-1.3,0.3-2.9,0.8-4.8,1.4c-1.9,0.7-4.2,1.5-6.7,2.5c-1.5,0.7-2.9,1.3-4.1,1.7c-1.2,0.4-2.3,0.6-3.1,0.6
						c-0.7,0-1.2,0.2-1.6,0.7c-0.4,0.5-0.8,1.2-1.1,2.2c-0.2,0.9-0.6,2.1-1.2,3.6c-0.6,1.5-1.5,3.5-2.5,5.8
						c-0.2,0.6-0.5,1.5-0.9,2.8c-0.4,1.3-0.8,2.8-1.3,4.7c-0.3,0.7-0.7,1.6-1.2,2.7c-0.4,1.1-0.9,2.3-1.5,3.8c0,0.7-0.1,1.5-0.2,2.4
						c-0.1,1-0.3,2.1-0.6,3.3c-0.3,0.8-0.6,1.8-1.1,2.9c-0.5,1.2-1.1,2.5-1.8,3.9c-0.4,0.9-1.1,1.5-1.9,1.9
						c-0.8,0.4-1.9,0.6-3.2,0.6c-0.9,0-1.7-0.3-2.2-1c-0.5-0.6-0.8-1.6-0.8-2.9c0-1.4,0.2-3.1,0.5-4.9c0.3-1.8,0.9-3.9,1.6-6.1
						c0.8-2.9,1.4-5.3,2-7.1c0.6-1.8,0.9-3.2,0.9-4c0.2-0.4,0.4-1.1,0.7-2.1c0.3-1,0.7-2.2,1.2-3.6c0.5-1.4,1-2.9,1.4-4.7l-0.4-0.7
						l-2.6,0.4c-0.6-0.1-1-0.3-1.3-0.7c-0.3-0.4-0.4-1-0.4-1.7c0-0.4,0.1-0.8,0.2-1.3C74.3,118.3,74.5,117.7,74.7,117.1z
						 M104.8,101.8c1.3,0,3.1-0.3,5.6-0.9c2.5-0.6,4.4-0.9,5.6-0.9c0.8,0.2,1.5,0.3,2.3,0.4c1.4-0.3,2.7-0.6,4.1-1
						c1.3-0.4,2.7-0.7,4.1-1c0.5-0.1,1-0.3,1.2-0.6c0.3-0.3,0.4-0.7,0.4-1.2c-0.1-1.7-0.2-2.8-0.2-3.4c0-1,0.1-2.2,0.2-3.5
						c0.1-1.3,0.3-2.6,0.6-4l-1-3.7l0.3-3.4c-0.2-1.2-0.4-2.4-0.5-3.4c-0.1-1.1-0.2-2,0-2.7c-0.1-0.2-0.3-0.6-0.6-1.1
						c-0.3-0.5-0.6-1-0.9-1.6c-0.6-0.9-1.1-1.8-1.7-2.7c-0.6-0.9-1.1-1.7-1.7-2.6c-0.8-1-1.6-1.8-2.5-2.3c-0.9-0.5-1.8-0.7-2.7-0.7
						c-1.1,0-2.2,0.9-3.4,2.6c-1.2,1.8-2.2,4.4-3.2,8c-0.2,0.4-0.6,1.4-1.4,2.7c-0.7,1.4-1.8,3.2-3.2,5.4c-0.2,2.1-1,4.7-2.2,7.8
						c-1.3,3.1-3,6.8-5.3,11c-0.3,0.4-0.4,0.7-0.5,1c0,0.3,0,0.6,0,0.9c0,0.4,0.1,0.7,0.3,0.9c0.2,0.2,0.5,0.3,0.9,0.3
						c0.6,0,1.4-0.1,2.7-0.2C103.3,101.9,104.2,101.8,104.8,101.8z"/>
					<path fill="#00A94D" d="M149.3,128.7l0.3-0.6c0.3-0.4,0.6-0.8,1.1-1.4c0.4-0.6,1-1.2,1.6-1.9c3.3-3,6.5-6.7,9.6-10.9
						c3.1-4.2,6.2-9.1,9.3-14.6c0.4-0.5,0.8-1.2,1.2-2c0.5-0.8,1-1.9,1.5-3.1c0-0.3-0.1-0.5-0.2-0.6c-0.1-0.1-0.4-0.2-0.7-0.2
						c-0.3,0-0.7,0.1-1.4,0.2c-0.6,0.2-1.1,0.2-1.4,0.2h-8.7c-0.4,0-1,0-1.8-0.1c-0.9,0-1.5-0.1-1.8-0.1c-0.5-0.2-0.9-0.4-1.3-0.6
						c-0.4-0.2-0.8-0.3-1.1-0.5c-0.6-0.2-1-0.4-1.3-0.7c-0.3-0.3-0.4-0.7-0.4-1.1c0-3,0.3-5.2,0.9-6.8c0.6-1.6,1.6-2.4,2.9-2.4
						c1.3,0,2.5,0.1,3.6,0.2c1.1,0.1,2.1,0.3,3,0.5c0.7-0.1,1.3-0.3,1.9-0.4c1.3,0,2.3,0,3.2,0.1c0.9,0.1,1.5,0.2,2,0.3
						c0.6-0.1,1.2-0.3,1.8-0.4c0.6-0.1,1.2-0.2,1.9-0.4l2.3,0.7c1.6-0.2,3.3-2.4,5.2-6.8c1.8-4.3,3.8-6.5,5.9-6.5c1.1,0,2,0.3,2.6,1
						c0.6,0.7,0.9,1.7,0.9,3.1c0,1.1-0.3,2.5-0.9,4.2c-0.6,1.7-1,3-1.1,3.9c0.1,0.2,0.2,0.4,0.4,0.6c0.2,0.2,0.4,0.4,0.7,0.7
						c0.3,0.2,0.5,0.5,0.6,0.9c0.1,0.4,0.2,1,0.2,1.6c0,2.8-0.1,4.9-0.4,6.4c-0.3,1.5-0.7,2.3-1.2,2.3l-4.7,1
						c-0.1,0.5-0.2,1-0.3,1.7c-0.1,0.7-0.3,1.4-0.6,2.3c-0.8,2.3-1.7,5.2-2.6,8.8c-1,3.6-2.1,7.8-3.3,12.6c-0.7,3.9-1.3,7-1.7,9.4
						c-0.4,2.4-0.6,4-0.6,4.9c0,0.7,0.1,1.3,0.3,1.7c0.2,0.4,0.6,0.6,1,0.6c0.3,0,1.3-0.7,3-2c1.7-1.3,4.1-3.3,7.2-6l2.7,6.4
						c-0.5,0.5-1.1,1.1-1.9,1.8c-0.8,0.7-1.8,1.4-3,2.2c-0.5,0.5-1,1.1-1.7,1.7c-0.7,0.6-1.5,1.4-2.3,2.2c-0.8,0.9-1.7,1.9-2.5,2.8
						c-0.8,0.9-1.6,1.8-2.5,2.7c-1.1,1.2-2.2,2.1-3.3,2.6c-1.1,0.5-2.1,0.8-3,0.8c-2,0-3.5-0.6-4.5-1.8c-1-1.2-1.5-3-1.5-5.5
						c0-2.7,0.1-5,0.3-7c0.2-2,0.5-3.5,0.9-4.7c0.2-0.4,0.3-0.7,0.4-1c0-0.5,0.1-1.1,0.2-1.9c0.1-0.8,0.3-1.7,0.5-2.8
						c0.3-1.8,0.6-3.6,0.9-5.4c0.5-1.1,1-2.3,1.6-3.5c0-0.2-0.2-0.4-0.6-0.6l-0.7,0.4c-0.7,1.1-1.6,2.3-2.7,3.5
						c-1.1,1.2-2.4,2.5-4,3.8c-2.4,2.3-4.8,4.6-7.2,6.9c-0.1,0.2-0.4,0.6-0.8,1c-0.4,0.5-0.8,1-1.2,1.7c-0.2-0.6-0.5-1.3-0.9-2.1
						c-0.3-0.9-0.7-1.8-1.1-2.9c-0.1-0.3-0.2-0.5-0.4-0.8C149.6,129,149.5,128.8,149.3,128.7z"/>
					<path fill="#2A4E91" d="M225.6,138.8c-1.2,1.5-2.5,2.9-4.2,4.2c-1.6,1.3-3.5,2.3-5.4,3.2c-1.2,0.6-2.2,1-3.2,1.3
						c-0.9,0.3-1.8,0.5-2.6,0.5c-0.2,0-0.7,0.1-1.4,0.3c-0.7,0.2-1.2,0.3-1.6,0.3c-2.6,0-5-1.1-7.1-3.3c-2.1-2.2-3.2-4.7-3.2-7.4
						c0-1.1,0.2-2.6,0.8-4.4c0.5-1.8,0.8-2.9,0.8-3.2c0-0.3-0.1-0.6-0.3-0.8c-0.2-0.2-0.5-0.3-0.9-0.3c-0.2,0-0.8,0.3-1.7,1
						c-0.9,0.7-2.1,1.7-3.7,3c-0.1,0.2-0.3,0.5-0.5,0.8c-0.2,0.4-0.5,0.8-0.9,1.2c-0.4-1.1-0.8-2.1-1.3-3.2c-0.5-1.1-1-2.1-1.5-3.1
						c0.3-0.3,0.7-0.8,1-1.3c0.4-0.5,0.7-1.1,1.2-1.8l5.3-3.7c0.6-0.8,1.6-1.8,3-3c1.3-1.2,3-2.7,5-4.5c0.2-0.5,0.6-1.1,1.1-1.8
						c0.5-0.7,1.2-1.3,1.9-2c0.6-0.6,1.3-1.2,1.9-1.7c0.6-0.5,1.3-1,1.8-1.6c0.7-0.7,1.4-1.4,2-2.1c0.6-0.7,1.3-1.4,1.9-2
						c0.7-0.6,1.5-1.2,2.3-1.5c0.8-0.4,1.6-0.6,2.6-0.6c1,0,1.8,0.1,2.3,0.4c0.5,0.3,0.8,0.6,0.9,1.1c-0.5,1.1-0.9,2.1-1.5,3.2
						l0.4,0.6c2-0.8,3.6-1.4,4.8-1.7c1.2-0.4,1.9-0.6,2.2-0.6c3.4,0,5.9,1,7.6,3.1c1.7,2.1,2.5,5.2,2.5,9.3c0,0.8-0.1,1.7-0.3,2.8
						c-0.2,1.1-0.5,2.2-0.9,3.5c-0.5,1.4-1,2.5-1.5,3.5c-0.5,0.9-1.2,1.5-1.5,2C231,133.9,225.6,138.8,225.6,138.8z M221,116
						c-0.2,0-0.6,0.3-1,0.7c-0.4,0.4-0.9,1-1.3,1.6c-0.6,1.1-1.4,2.2-2.2,3.5c-0.5,0.5-1.1,1-1.6,1.3c-0.6,0.3-1.2,0.5-2,0.7
						c-0.5,0-1,0.5-1.5,1.4c-0.5,0.9-1,2.1-1.5,3.7c-0.5,1.4-0.9,2.7-1.1,3.7c-0.2,1-0.4,1.9-0.4,2.6c0,1.3,0.3,2.3,1,2.9
						c0.6,0.6,1.6,1,3,1c2.1,0,4.1-0.6,5.9-1.8c1.8-1.2,3.5-2.9,5-5.3c0.7-0.9,1.4-1.7,2.1-2.5c0.4-0.3,0.7-0.7,0.9-1.4
						c0.2-0.6,0.5-1.4,0.7-2.3l1.3-3.9c-0.4-1.4-0.8-2.5-1.2-3.3c-0.4-0.8-0.7-1.3-1.1-1.5c-0.2-0.1-0.7-0.3-1.5-0.5
						C223.7,116.3,222.5,116.2,221,116z"/>
					<path fill="#A8228E" d="M244.7,152.4c-1.8,0-3.2-0.4-4.2-1.2c-0.8-0.6-1.8-1.8-1.8-3.8c0-1.3,0.2-2.6,0.7-3.8
						c0.5-1.1,1.1-2.2,2-3.2c0.2-0.4,0.6-0.8,0.9-1.3c0.4-0.5,0.8-1,1.3-1.5l0.1-0.1l0.1-0.1c0.3-0.2,0.7-0.6,1.1-1.1
						c0.5-0.5,1.1-1.3,1.8-2.2c0.5-0.7,1.1-1.3,1.6-2c0.5-0.7,1-1.3,1.5-2c0.2-0.3,0.5-0.7,0.9-1.2c0.3-0.5,1.3-1.9,1.3-1.9l0.1-0.1
						c0.3-0.2,0.5-0.5,0.9-0.9c0.3-0.4,0.7-0.8,1.1-1.3c0.6-0.7,1.2-1.6,1.9-2.6c0.7-1,1.4-2.1,2.2-3.3c1.2-1.9,2.1-3.4,2.7-4.5
						c0.3-0.7,0.5-1.1,0.6-1.4c-0.2-0.1-0.5-0.3-0.9-0.5c-0.6-0.2-1-0.4-1.5-0.5c-0.5-0.1-0.7-0.2-0.8-0.2l-2.7-0.1
						c0,0-1.4-0.4-1.5-0.5l-1.7,0.5l-0.6-0.2c-0.3-0.1-0.7-0.2-0.9-0.2c-0.2,0-0.4-0.1-0.7-0.1c-1.2,0.1-2.4,0.2-3.5,0.3l-0.4,0.1
						l-1.6-0.6l-0.2-0.2c-0.4-0.4-0.7-0.9-0.9-1.5c-0.1-0.2-0.1-0.5-0.2-0.9l-0.2-0.7l0.9-1.7c0.2-0.4,0.5-0.9,0.7-1.4
						c0-0.1,0.1-0.2,0.1-0.3l0-0.2l0-0.1c0.4-1.2,1.1-2.1,2.1-2.7c0.9-0.6,2.1-0.9,3.5-0.9c0.6,0,1.1,0,1.6,0.1l1.5,0.2l0.3,0.2
						c0.1,0,0.1,0,0.2-0.1c0.5-0.2,0.9-0.2,1.3-0.2h0.2l4,0.8c0.4,0,0.9,0.1,1.4,0.2c0.6,0.1,1.2,0.2,2,0.3l0.3,0.1l0.3,0.2
						c0.3,0.2,0.6,0.3,1,0.5l1.7,0.8c0.9,0.3,1.8,0.9,2.6,1.5c0.8,0.7,1.5,1.5,1.9,2.3c0.4,0.6,0.7,1.3,0.9,2c0.2,0.7,0.3,1.4,0.3,2
						c0,0.9-0.1,1.7-0.3,2.5c-0.2,0.7-0.5,1.4-0.9,2l-0.4,1.1c0,0.2-0.2,0.6-0.4,1c-0.2,0.4-0.5,0.8-0.8,1.2
						c-0.3,0.4-0.7,0.9-1.1,1.4c-0.2,0.3-0.4,0.7-0.7,1.1c-0.4,0.4-0.8,0.9-1.3,1.3l-0.1,0.1c-0.1,0.1-0.1,0.1-0.1,0.2
						c-0.3,0.6-0.7,1.3-1.3,2c-0.5,0.7-1.2,1.5-1.9,2.5c-1,1.2-1.8,2.1-2.3,2.8c-0.5,0.7-0.9,1.1-1.1,1.4l-0.1,0.2l-0.2,0.1
						c-0.2,0.2-0.5,0.4-0.7,0.6c-0.2,0.2-0.4,0.3-0.6,0.5l-0.3,0.7c-0.1,0.3-0.4,0.8-1.4,2.1c-0.7,0.9-1.6,2-2.8,3.5
						c-0.7,0.8-1.3,1.6-1.8,2.2c0.4,0,0.7-0.1,1.1-0.1l0.3,0l0.9,0.3c0.5-0.1,0.9-0.2,1.4-0.3c0.6-0.1,1.1-0.1,1.5-0.1
						c1,0,2-0.1,2.9-0.2c0.8-0.1,1.6-0.3,2.3-0.6l0.2-0.1l0.3,0c0.4,0,0.9-0.1,1.5-0.2c0.6-0.1,1.3-0.3,2.1-0.5
						c0.3-0.1,0.5-0.2,0.8-0.3c0.2-0.1,0.4-0.2,0.6-0.3l0.2-0.1l1.2-0.2c0.2,0,0.4-0.1,0.5-0.1l1.6-0.6l1.7,3.7
						c0.2,0.2,0.3,0.5,0.3,0.7c0.1,0.3,0.2,0.6,0.2,1v1.1l-1,0.5c-1.3,0.6-2.8,1.2-4.3,1.8c-1.5,0.5-3.1,1-4.7,1.5
						c-0.5,0.1-1,0.2-1.6,0.4c-0.6,0.1-1.2,0.3-1.9,0.5c-0.4,0.2-1.2,0.4-2.1,0.7c-0.9,0.3-2,0.6-3.1,0.9c-0.7,0.2-1.5,0.4-2.3,0.6
						c-0.8,0.2-1.5,0.4-2.2,0.5c-0.9,0.2-1.8,0.4-2.6,0.5C246,152.4,245.3,152.4,244.7,152.4z"/>
				</g>
			</g>
		</g>
	</g>
</g>
</svg>
