<?xml version="1.0" encoding="utf-8"?>
<!-- Generator: Adobe Illustrator 18.0.0, SVG Export Plug-In . SVG Version: 6.00 Build 0)  -->
<!DOCTYPE svg PUBLIC "-//W3C//DTD SVG 1.1//EN" "http://www.w3.org/Graphics/SVG/1.1/DTD/svg11.dtd">
<svg version="1.1" id="Layer_1" xmlns="http://www.w3.org/2000/svg" xmlns:xlink="http://www.w3.org/1999/xlink" x="0px" y="0px"
	 viewBox="0 0 360 216" enable-background="new 0 0 360 216" xml:space="preserve">
<rect fill="none" width="360" height="216"/>
<g>
	<path d="M282.1,107.4c-3.7,0-7.1-2.9-7.1-7.1c0-4.1,3.3-7.1,7.1-7.1c4.1,0,7.1,3.2,7.1,7.1C289.2,104.3,286.1,107.4,282.1,107.4z
		 M282.2,93.9c-3.7,0-6.5,2.9-6.5,6.4c0,3.6,2.9,6.4,6.4,6.4c3.6,0,6.4-2.8,6.5-6.4C288.6,96.8,285.9,93.9,282.2,93.9z M282,95.9
		c1,0,1.5,0,2.1,0.2c0.9,0.4,1.4,1.2,1.4,2c0,1.2-0.9,1.9-2,2.1c1,0.4,1.3,0.9,1.4,1.9c0.2,1.3,0.3,1.8,0.7,2.6h-1.5
		c-0.2-0.4-0.3-0.8-0.4-1.2c0-0.2-0.2-1.2-0.2-1.4c-0.3-1.3-1-1.5-2.2-1.5h-0.6v4.1h-1.3v-8.8H282z M280.6,99.6h1.5c0.6,0,2,0,2-1.4
		c0-0.4-0.2-0.8-0.4-1c-0.4-0.3-0.8-0.3-1.9-0.3h-1.2V99.6z"/>
</g>
<g>
	<g>
		<path d="M410.9,98.7h-0.7v-5.1h-1.8v-0.6h4.2v0.6h-1.8V98.7z"/>
		<path d="M416,98.7l-1.9-5h0c0,0.4,0.1,0.9,0.1,1.4v3.6h-0.6v-5.7h1l1.8,4.7h0l1.8-4.7h1v5.7h-0.7v-3.6c0-0.4,0-0.9,0.1-1.4h0
			l-1.9,5H416z"/>
	</g>
</g>
<g>
	<g>
		<path fill="#ED1260" d="M83.6,177.7c0,4.7-3.9,8.6-8.6,8.6c-4.8,0-8.6-3.9-8.6-8.6c0-4.8,3.9-8.6,8.6-8.6
			C79.8,169.1,83.6,172.9,83.6,177.7z"/>
		<path fill="#008049" d="M112.5,177.7c0,4.7-3.9,8.6-8.6,8.6c-4.7,0-8.6-3.9-8.6-8.6c0-4.8,3.9-8.6,8.6-8.6
			C108.7,169.1,112.5,172.9,112.5,177.7z"/>
		<path fill="#FBAD18" d="M141.4,177.7c0,4.7-3.9,8.6-8.6,8.6c-4.8,0-8.6-3.9-8.6-8.6c0-4.8,3.9-8.6,8.6-8.6
			C137.6,169.1,141.4,172.9,141.4,177.7z"/>
	</g>
	<g>
		<g>
			<g>
				<path fill="#F04E23" stroke="#F15A22" stroke-width="1.607" d="M75.2,116.5c-0.2-0.6-0.3-1.1-0.3-1.5c0-0.4,0-0.7,0-1
					c0-1.8,0.2-3.4,0.7-4.7c0.4-1.3,1.1-2.4,2-3.3c0.2-0.2,0.8-0.6,1.7-1c0.9-0.4,2.1-1,3.6-1.6c1-0.5,1.9-1.1,2.5-1.8
					c0.6-0.7,1-1.5,1-2.5c0.2-0.8,0.5-1.6,1-2.6c0.5-1,1.1-2.1,1.7-3.2c0.2-0.3,0.9-2.2,2-5.7c1.1-3.5,2.6-8.5,4.6-15.2
					c0.5-2,1.1-3.8,1.6-5.3c0.6-1.5,1-2.7,1.4-3.8c1.8-4.7,3.2-7.7,4.3-9.2c1.1-1.5,2-2.6,2.5-3.6v-0.4l-2.6-4l3.2-3.7l4.1-0.8
					c0.8-0.1,1.6-0.9,2.3-2.3c0.7-1.4,1.9-3,3.6-4.7c0.4-0.1,1-0.5,1.9-1c0.9-0.6,1.9-1.4,3.3-2.4c1.2-0.9,2.1-1.6,3-2.1
					c0.8-0.4,1.5-0.7,1.9-0.7c1.5,0,2.5,0.3,3.2,0.9c0.7,0.6,1,1.4,1,2.4c0,1.2-0.6,3-1.9,5.3c-1.3,2.3-1.9,4.1-1.9,5.3
					c0,0.5,0.1,1,0.4,1.4c0.2,0.4,0.5,0.6,0.9,0.7l9.9,5.3c0.5,0.2,1,1.1,1.5,2.6c0.4,1.5,0.8,3.6,1.1,6.2c0.3,2.2,0.6,4,0.8,5.5
					c0.2,1.5,0.3,2.6,0.3,3.5c-0.4,2.4-0.8,4.7-1.2,7.2c0.5,3.1,1.1,6.3,1.8,9.7c-0.3,3.2-0.7,6.5-1.1,9.9c0,0.3,0.1,0.6,0.2,0.9
					c0.1,0.2,0.3,0.4,0.6,0.4c0.9,0.1,1.6,0.3,2.1,0.7c0.5,0.4,0.7,1,0.7,1.8c0,1-0.1,1.8-0.5,2.3c-0.3,0.6-0.7,1-1.3,1.4
					c-0.7,0.4-1.3,0.8-1.7,1.2c-0.4,0.3-0.7,0.6-0.9,0.8l1.1,5.1l-1.5,11.7c0,1-0.1,2.3-0.2,3.8c-0.2,1.5-0.4,3.3-0.7,5.4
					c-0.5,1.5-1,2.7-1.2,3.7c-0.3,1-0.4,1.6-0.4,2c0.3,0.9,0.5,1.9,0.7,3c-0.3,1.5-0.7,3-1,4.4c-0.4,1.5-0.7,2.9-1,4.4
					c-0.6,1.9-1.4,3.3-2.4,4.2c-1,0.9-2.1,1.4-3.4,1.4c-0.7,0-1.3-0.3-1.6-0.9c-0.4-0.6-0.5-1.6-0.5-2.8c0-0.5,0.1-1.3,0.3-2.4
					c0.2-1,0.3-1.8,0.3-2.4c0-0.4-0.1-0.9-0.2-1.6c-0.1-0.7-0.2-1.2-0.2-1.7c0-1.5,0.1-4,0.5-7.4c0.3-3.4,0.5-5.9,0.5-7.6
					c-0.3-0.9-0.5-1.9-0.8-2.9c0.2-1,0.3-2.1,0.3-3.2c0.1-1.1,0-2.1-0.1-3l1.2-2.2l-1.1-7.7l-0.6-0.2c-0.3,0-0.8,0.1-1.4,0.4
					c-0.6,0.2-1.4,0.6-2.3,1.2c-0.7,0.2-1.7,0.5-3.1,0.7c-1.4,0.2-3.3,0.4-5.6,0.5c-1,0.5-1.9,0.9-2.8,1.3c-1.3,0.3-2.9,0.8-4.8,1.4
					c-1.9,0.7-4.1,1.5-6.7,2.5c-1.5,0.7-2.8,1.3-4.1,1.7c-1.2,0.4-2.3,0.6-3.1,0.6c-0.7,0-1.2,0.2-1.6,0.7c-0.4,0.5-0.8,1.2-1.1,2.1
					c-0.2,0.9-0.6,2.1-1.2,3.6c-0.6,1.5-1.5,3.5-2.5,5.8c-0.2,0.6-0.5,1.5-0.9,2.8c-0.4,1.3-0.8,2.8-1.3,4.7
					c-0.3,0.7-0.7,1.6-1.2,2.7c-0.4,1.1-0.9,2.3-1.5,3.7c0,0.7-0.1,1.5-0.2,2.4c-0.1,1-0.3,2.1-0.6,3.3c-0.3,0.8-0.6,1.7-1.1,2.9
					c-0.5,1.2-1.1,2.5-1.8,3.9c-0.4,0.9-1.1,1.5-1.9,1.9c-0.8,0.4-1.9,0.6-3.2,0.6c-0.9,0-1.7-0.3-2.2-0.9c-0.5-0.6-0.8-1.6-0.8-2.9
					c0-1.4,0.2-3.1,0.5-4.9c0.3-1.8,0.9-3.9,1.6-6c0.8-2.9,1.4-5.3,2-7.1c0.6-1.8,0.9-3.2,0.9-4c0.2-0.4,0.4-1.1,0.7-2.1
					c0.3-1,0.7-2.2,1.2-3.6c0.5-1.4,1-2.9,1.4-4.7l-0.4-0.7l-2.6,0.4c-0.6-0.1-1-0.3-1.3-0.7c-0.3-0.4-0.4-1-0.4-1.7
					c0-0.4,0.1-0.8,0.2-1.3C74.8,117.7,75,117.1,75.2,116.5z M105.1,101.3c1.3,0,3.1-0.3,5.6-0.9c2.5-0.6,4.3-0.9,5.6-0.9
					c0.8,0.2,1.5,0.3,2.3,0.4c1.4-0.3,2.7-0.6,4-1c1.3-0.4,2.7-0.7,4-1c0.5-0.1,1-0.3,1.2-0.6c0.3-0.3,0.4-0.7,0.4-1.2
					c-0.1-1.6-0.2-2.8-0.2-3.4c0-1,0.1-2.2,0.2-3.5c0.1-1.3,0.3-2.6,0.6-4l-1-3.7l0.3-3.4c-0.2-1.2-0.4-2.3-0.5-3.4
					c-0.1-1.1-0.2-2,0-2.7c-0.1-0.2-0.3-0.6-0.6-1.1c-0.3-0.5-0.6-1-0.9-1.6c-0.6-0.9-1.1-1.8-1.7-2.7c-0.6-0.9-1.1-1.7-1.7-2.6
					c-0.8-1-1.6-1.8-2.5-2.3c-0.9-0.5-1.8-0.7-2.7-0.7c-1.1,0-2.2,0.9-3.4,2.6c-1.2,1.8-2.2,4.4-3.2,8c-0.2,0.4-0.6,1.3-1.4,2.7
					c-0.7,1.4-1.8,3.2-3.2,5.4c-0.2,2.1-1,4.7-2.2,7.8c-1.3,3.1-3,6.7-5.3,10.9c-0.3,0.4-0.4,0.7-0.5,1c0,0.3,0,0.6,0,0.9
					c0,0.4,0.1,0.7,0.3,0.9c0.2,0.2,0.5,0.3,0.9,0.3c0.5,0,1.4-0.1,2.7-0.2C103.7,101.3,104.5,101.3,105.1,101.3z"/>
				<path fill="#00A94D" d="M149.4,128l0.3-0.6c0.3-0.4,0.6-0.8,1.1-1.4c0.4-0.6,1-1.2,1.6-1.9c3.3-3,6.4-6.7,9.6-10.9
					c3.1-4.2,6.2-9.1,9.2-14.5c0.4-0.5,0.8-1.2,1.2-2c0.5-0.8,1-1.9,1.5-3.1c0-0.3-0.1-0.5-0.2-0.6c-0.1-0.1-0.4-0.2-0.7-0.2
					c-0.3,0-0.7,0.1-1.3,0.2c-0.6,0.2-1.1,0.2-1.4,0.2h-8.6c-0.4,0-1,0-1.8-0.1c-0.8,0-1.5-0.1-1.8-0.1c-0.5-0.2-0.9-0.4-1.3-0.6
					c-0.4-0.2-0.8-0.3-1.1-0.5c-0.6-0.2-1-0.4-1.3-0.7c-0.3-0.3-0.4-0.7-0.4-1.1c0-2.9,0.3-5.2,0.9-6.8c0.6-1.6,1.6-2.3,2.9-2.3
					c1.3,0,2.5,0.1,3.6,0.2c1.1,0.1,2.1,0.3,3,0.4c0.7-0.1,1.3-0.3,1.9-0.4c1.2,0,2.3,0,3.2,0.1c0.9,0.1,1.5,0.2,2,0.3
					c0.6-0.1,1.2-0.3,1.8-0.4c0.6-0.1,1.2-0.2,1.9-0.4l2.3,0.7c1.6-0.2,3.3-2.4,5.1-6.8c1.8-4.3,3.8-6.5,5.8-6.5c1.1,0,2,0.3,2.6,1
					c0.6,0.7,0.9,1.7,0.9,3c0,1.1-0.3,2.4-0.9,4.2c-0.6,1.7-1,3-1.1,3.9c0.1,0.2,0.2,0.4,0.4,0.6c0.2,0.2,0.4,0.4,0.7,0.7
					c0.3,0.2,0.5,0.5,0.6,0.9c0.1,0.4,0.2,1,0.2,1.6c0,2.8-0.1,4.9-0.4,6.4c-0.3,1.5-0.7,2.3-1.2,2.3l-4.7,1c-0.1,0.5-0.2,1-0.3,1.7
					c-0.1,0.7-0.3,1.4-0.6,2.3c-0.8,2.3-1.7,5.2-2.6,8.8c-1,3.5-2.1,7.7-3.3,12.6c-0.7,3.9-1.3,7-1.7,9.4c-0.4,2.4-0.6,4-0.6,4.8
					c0,0.7,0.1,1.3,0.3,1.7c0.2,0.4,0.6,0.6,1,0.6c0.3,0,1.3-0.7,3-2c1.7-1.3,4.1-3.3,7.2-5.9l2.7,6.4c-0.5,0.5-1.1,1.1-1.9,1.8
					c-0.8,0.7-1.8,1.4-3,2.2c-0.5,0.5-1,1.1-1.7,1.7c-0.7,0.6-1.4,1.3-2.3,2.2c-0.8,0.9-1.6,1.8-2.5,2.8c-0.8,0.9-1.6,1.8-2.4,2.7
					c-1.1,1.2-2.2,2.1-3.2,2.6c-1.1,0.5-2,0.8-3,0.8c-2,0-3.5-0.6-4.5-1.8c-1-1.2-1.5-3-1.5-5.5c0-2.7,0.1-5,0.3-6.9
					c0.2-2,0.5-3.5,0.9-4.7c0.2-0.4,0.3-0.7,0.4-1c0-0.5,0.1-1.1,0.2-1.9c0.1-0.8,0.3-1.7,0.5-2.8c0.3-1.8,0.6-3.6,0.9-5.4
					c0.5-1.1,1-2.3,1.6-3.5c0-0.2-0.2-0.4-0.5-0.6l-0.7,0.4c-0.7,1.1-1.6,2.3-2.7,3.5c-1.1,1.2-2.4,2.5-3.9,3.8
					c-2.3,2.3-4.7,4.5-7.2,6.8c-0.1,0.2-0.4,0.6-0.8,1c-0.4,0.5-0.8,1-1.2,1.7c-0.2-0.6-0.5-1.3-0.9-2.1c-0.3-0.9-0.7-1.8-1.1-2.9
					c-0.1-0.3-0.2-0.5-0.3-0.8C149.8,128.3,149.6,128.1,149.4,128z"/>
				<path fill="#2A4E91" d="M225.4,138.1c-1.1,1.5-2.5,2.9-4.2,4.2c-1.6,1.3-3.4,2.3-5.4,3.1c-1.2,0.6-2.2,1-3.1,1.3
					c-0.9,0.3-1.8,0.4-2.6,0.4c-0.2,0-0.7,0.1-1.3,0.3c-0.7,0.2-1.2,0.3-1.6,0.3c-2.6,0-5-1.1-7.1-3.3c-2.1-2.2-3.2-4.7-3.2-7.4
					c0-1.1,0.2-2.6,0.8-4.4c0.5-1.8,0.8-2.9,0.8-3.2c0-0.3-0.1-0.6-0.3-0.8c-0.2-0.2-0.5-0.3-0.9-0.3c-0.2,0-0.8,0.3-1.7,1
					c-0.9,0.7-2.1,1.7-3.7,3c-0.1,0.2-0.3,0.5-0.5,0.8c-0.2,0.4-0.5,0.8-0.9,1.2c-0.4-1.1-0.8-2.1-1.3-3.2c-0.5-1.1-1-2.1-1.5-3.1
					c0.3-0.3,0.7-0.8,1-1.3c0.3-0.5,0.7-1.1,1.2-1.8l5.3-3.7c0.6-0.8,1.6-1.8,3-3c1.3-1.2,3-2.7,5-4.5c0.2-0.5,0.6-1.1,1.1-1.8
					c0.5-0.7,1.2-1.3,1.9-2c0.6-0.6,1.3-1.2,1.9-1.7c0.6-0.5,1.2-1,1.8-1.5c0.7-0.7,1.3-1.4,2-2.1c0.6-0.7,1.3-1.4,1.9-2
					c0.7-0.6,1.5-1.1,2.3-1.5c0.8-0.4,1.6-0.6,2.5-0.6c1,0,1.8,0.1,2.3,0.4c0.5,0.3,0.8,0.6,0.9,1.1c-0.5,1.1-0.9,2.1-1.4,3.2
					l0.4,0.6c2-0.8,3.6-1.4,4.8-1.7c1.2-0.4,1.9-0.6,2.2-0.6c3.4,0,5.9,1,7.6,3.1c1.7,2,2.5,5.1,2.5,9.3c0,0.8-0.1,1.7-0.3,2.8
					c-0.2,1.1-0.5,2.2-0.9,3.4c-0.5,1.4-1,2.5-1.5,3.5c-0.5,0.9-1.2,1.5-1.5,2C230.8,133.2,225.4,138.1,225.4,138.1z M220.9,115.4
					c-0.2,0-0.6,0.3-1,0.7c-0.4,0.4-0.9,1-1.3,1.6c-0.6,1.1-1.4,2.2-2.2,3.5c-0.5,0.5-1,1-1.6,1.3c-0.6,0.3-1.2,0.5-2,0.7
					c-0.5,0-0.9,0.5-1.5,1.3c-0.5,0.9-1,2.1-1.5,3.7c-0.5,1.4-0.9,2.6-1.1,3.7c-0.2,1-0.4,1.9-0.4,2.6c0,1.3,0.3,2.3,1,2.9
					c0.6,0.6,1.6,1,3,1c2.1,0,4.1-0.6,5.8-1.8c1.8-1.2,3.4-2.9,5-5.3c0.7-0.9,1.4-1.7,2.1-2.5c0.4-0.3,0.7-0.7,0.9-1.3
					c0.2-0.6,0.5-1.4,0.7-2.3l1.2-3.9c-0.4-1.4-0.8-2.5-1.2-3.3c-0.4-0.8-0.7-1.3-1.1-1.5c-0.2-0.1-0.7-0.3-1.5-0.4
					C223.5,115.7,222.3,115.6,220.9,115.4z"/>
				<path fill="#A8228E" d="M244.4,151.7c-1.8,0-3.2-0.4-4.2-1.2c-0.8-0.6-1.7-1.8-1.7-3.8c0-1.3,0.2-2.5,0.7-3.7
					c0.5-1.1,1.1-2.2,2-3.2c0.2-0.4,0.6-0.8,0.9-1.2c0.4-0.5,0.8-1,1.3-1.5l0.1-0.1l0.1-0.1c0.3-0.2,0.6-0.6,1.1-1.1
					c0.5-0.5,1.1-1.3,1.8-2.2c0.5-0.7,1.1-1.3,1.6-2c0.5-0.7,1-1.3,1.5-2c0.2-0.3,0.5-0.7,0.9-1.2c0.3-0.5,1.3-1.9,1.3-1.9l0.1-0.1
					c0.3-0.2,0.5-0.5,0.9-0.9c0.3-0.4,0.7-0.8,1.1-1.3c0.6-0.7,1.2-1.6,1.9-2.6c0.7-1,1.4-2.1,2.2-3.3c1.2-1.8,2.1-3.3,2.7-4.5
					c0.3-0.7,0.5-1.1,0.6-1.4c-0.2-0.1-0.5-0.3-0.9-0.5c-0.6-0.2-1-0.4-1.5-0.5c-0.5-0.1-0.7-0.2-0.8-0.2l-2.7-0.1
					c0,0-1.4-0.4-1.5-0.5l-1.7,0.5l-0.6-0.2c-0.3-0.1-0.7-0.2-0.9-0.2c-0.2,0-0.4-0.1-0.7-0.1c-1.2,0.1-2.4,0.2-3.5,0.3l-0.4,0.1
					l-1.6-0.6l-0.2-0.2c-0.4-0.4-0.7-0.9-0.9-1.5c-0.1-0.2-0.1-0.5-0.2-0.9l-0.2-0.7l0.9-1.7c0.2-0.4,0.5-0.9,0.7-1.3
					c0-0.1,0.1-0.2,0.1-0.3l0-0.2l0-0.1c0.4-1.2,1.1-2.1,2.1-2.7c0.9-0.6,2.1-0.9,3.5-0.9c0.6,0,1.1,0,1.6,0.1l1.5,0.2l0.3,0.2
					c0.1,0,0.1,0,0.2-0.1c0.5-0.2,0.9-0.2,1.2-0.2h0.2l4,0.8c0.4,0,0.9,0.1,1.4,0.2c0.6,0.1,1.2,0.2,2,0.3l0.3,0.1l0.3,0.2
					c0.3,0.2,0.6,0.3,1,0.5l1.6,0.7c0.9,0.3,1.8,0.9,2.6,1.5c0.8,0.7,1.5,1.5,1.9,2.3c0.4,0.6,0.7,1.3,0.9,2c0.2,0.7,0.3,1.4,0.3,2
					c0,0.9-0.1,1.7-0.3,2.5c-0.2,0.7-0.5,1.4-0.9,2l-0.4,1.1c0,0.2-0.2,0.6-0.4,1c-0.2,0.4-0.5,0.8-0.8,1.2
					c-0.3,0.4-0.7,0.9-1.1,1.4c-0.2,0.3-0.4,0.7-0.7,1.1c-0.4,0.4-0.8,0.9-1.3,1.3l-0.1,0.1c-0.1,0.1-0.1,0.1-0.1,0.2
					c-0.3,0.6-0.7,1.3-1.3,2c-0.5,0.7-1.2,1.5-1.9,2.5c-1,1.2-1.8,2.1-2.3,2.7c-0.5,0.7-0.9,1.1-1.1,1.4l-0.1,0.2l-0.2,0.1
					c-0.2,0.2-0.5,0.4-0.7,0.6c-0.2,0.2-0.4,0.3-0.5,0.5l-0.3,0.7c-0.1,0.3-0.4,0.8-1.4,2.1c-0.7,0.9-1.6,2-2.8,3.5
					c-0.7,0.8-1.3,1.6-1.8,2.2c0.3,0,0.7-0.1,1.1-0.1l0.3,0l0.9,0.3c0.5-0.1,0.9-0.2,1.4-0.3c0.6-0.1,1.1-0.1,1.5-0.1
					c1,0,2-0.1,2.9-0.2c0.8-0.1,1.6-0.3,2.3-0.6l0.2-0.1l0.3,0c0.4,0,0.9-0.1,1.4-0.2c0.6-0.1,1.3-0.3,2.1-0.5
					c0.3-0.1,0.5-0.2,0.8-0.3c0.2-0.1,0.4-0.2,0.6-0.3l0.2-0.1l1.2-0.2c0.2,0,0.4-0.1,0.5-0.1l1.6-0.6l1.7,3.7
					c0.2,0.2,0.3,0.5,0.3,0.7c0.1,0.3,0.2,0.6,0.2,1v1.1l-1,0.5c-1.3,0.6-2.8,1.2-4.3,1.7c-1.5,0.5-3.1,1-4.7,1.5
					c-0.5,0.1-1,0.2-1.6,0.4c-0.5,0.1-1.2,0.3-1.9,0.5c-0.4,0.2-1.2,0.4-2.1,0.7c-0.9,0.3-1.9,0.6-3.1,0.9c-0.7,0.2-1.5,0.4-2.2,0.6
					c-0.7,0.2-1.5,0.3-2.2,0.5c-0.9,0.2-1.8,0.4-2.6,0.5C245.7,151.6,245,151.7,244.4,151.7z"/>
			</g>
		</g>
	</g>
	<g>
		<path d="M219.2,175.3c-2.9-1.2-5.2-2.2-5.2-5.7c0-1.7,0.7-3.3,2.1-4.4c1.5-1.1,3.6-1.2,4.9-1.2c3,0,4.9,0.9,5.8,3
			c0.5,1.2,0.4,2.3,0.4,2.8h-2.6c0-0.5,0-1.2-0.2-1.8c-0.6-1.7-2.2-2.2-3.5-2.2c-2.4,0-4.1,1.3-4.1,3.4c0,2.2,1.7,2.9,4,3.8l1.4,0.5
			c2.5,1,5.5,2.2,5.5,6c0,1.2-0.3,2.1-0.7,2.9c-1.7,3.2-5.6,3.2-6.7,3.2c-3.5,0-4.9-1.2-5.4-1.7c-1.7-1.5-1.7-3.7-1.7-4.9h2.8
			c0,0.9,0,2.4,1,3.5c0.6,0.6,1.6,1.2,3.4,1.2c3.1,0,4.3-1.9,4.3-3.9c0-2.5-1.8-3.2-4-4.1L219.2,175.3z"/>
		<path d="M242.4,180.7c-0.2,3.8-3.5,4.8-6,4.8c-0.9,0-3.2-0.1-4.8-1.8c-0.7-0.8-1.7-2.4-1.7-5.5c0-4.9,2-8.1,6.6-8.1
			c4.6,0,6.1,3.2,6,7.7h-9.9c0,1.8,0,6.1,3.9,6.1c0.9,0,3.3-0.3,3.4-3.2H242.4z M239.9,176.3c0-0.9-0.1-4.5-3.4-4.5
			c-2.1,0-3.7,1.5-3.9,4.5H239.9z"/>
		<path d="M257.4,185.3h-2.5v-8.7c0-0.7,0-1.4-0.1-2.1c-0.1-0.6-0.3-2.7-2.9-2.7c-0.7,0-1.2,0.1-1.7,0.3c-1.9,0.8-2,2.3-2,3.2v10
			h-2.5v-14.8h2.5v1.7c0.8-0.8,2.3-2,4.8-2c1.4,0,2.7,0.4,3.6,1.5c0.8,1.1,0.9,2.5,0.9,3.6V185.3z"/>
		<path d="M264.2,167.3h-2.5v-2.6h2.5V167.3z M264.3,185.3h-2.5v-14.8h2.5V185.3z"/>
		<path d="M274,185.6c-6,0-6.4-4.8-6.4-7.5c0-2.2,0.1-7.9,6.6-7.9c6,0,6.3,4.7,6.4,7.1C280.6,179.8,280.6,185.6,274,185.6z
			 M274.2,171.8c-3.9,0-4,4.5-4,6.2c0,2.2,0.2,6,3.9,6c2.8,0,3.8-2.5,3.8-6.5C277.9,174.1,277,171.8,274.2,171.8z"/>
		<path d="M286.5,185.3h-2.5v-14.8h2.5v2c0.5-0.7,1.6-2.2,3.6-2.2c0.9,0,1.4,0.3,1.8,0.5v2.3c-0.5-0.4-1.2-0.9-2.4-0.9
			c-0.3,0-0.9,0-1.5,0.3c-1.5,0.7-1.5,2-1.5,2.8V185.3z"/>
	</g>
</g>
</svg>
