<?xml version="1.0" encoding="utf-8"?>
<!-- Generator: Adobe Illustrator 18.0.0, SVG Export Plug-In . SVG Version: 6.00 Build 0)  -->
<!DOCTYPE svg PUBLIC "-//W3C//DTD SVG 1.1//EN" "http://www.w3.org/Graphics/SVG/1.1/DTD/svg11.dtd">
<svg version="1.1" id="Layer_1" xmlns="http://www.w3.org/2000/svg" xmlns:xlink="http://www.w3.org/1999/xlink" x="0px" y="0px"
	 viewBox="0 0 360 216" enable-background="new 0 0 360 216" xml:space="preserve">
<rect fill="none" width="360" height="216"/>
<g>
	<path d="M326.1,98.5c-2.9,0-5.6-2.3-5.6-5.6c0-3.2,2.6-5.6,5.6-5.6c3.3,0,5.7,2.6,5.7,5.7C331.8,96,329.3,98.5,326.1,98.5z
		 M326.2,87.7c-2.9,0-5.2,2.3-5.2,5.1c0,2.9,2.3,5.1,5.1,5.1c2.9,0,5.1-2.3,5.1-5.1C331.3,90.1,329.1,87.7,326.2,87.7z M326,89.3
		c0.8,0,1.2,0,1.6,0.2c0.7,0.3,1.1,0.9,1.1,1.6c0,1-0.7,1.6-1.6,1.7c0.8,0.3,1,0.7,1.1,1.6c0.2,1,0.2,1.4,0.5,2h-1.2
		c-0.2-0.3-0.2-0.6-0.3-1c0-0.2-0.1-0.9-0.2-1.1c-0.2-1-0.8-1.2-1.8-1.2h-0.5v3.3h-1v-7H326z M324.9,92.3h1.2c0.4,0,1.6,0,1.6-1.1
		c0-0.3-0.1-0.6-0.3-0.8c-0.3-0.3-0.6-0.3-1.5-0.3h-1V92.3z"/>
</g>
<g>
	<text transform="matrix(1 0 0 1 311.3501 -22.9276)" font-family="'OpenSans'" font-size="14.5306">TM</text>
</g>
<g>
	<g>
		<path fill="#2E3192" d="M29.5,150.6l16-82.4h23.8l16,82.4h-20l-1.6-10.9H51.2l-1.7,10.9H29.5z M52.4,124.7h10.2l-3.5-29
			c-0.2-1.8-0.4-3.6-0.6-5.5c-0.2-1.9-0.3-3.7-0.4-5.7l-1.1-0.1c-0.1,1.6-0.2,3.3-0.3,4.9c-0.2,1.6-0.4,3.7-0.7,6.3L52.4,124.7z"/>
		<g>
			<path fill="#C71F1D" d="M134.9,98c0.7-1,1.6-1.9,2.5-2.7l3.8-21h-10.6l-22.2,62.1L98.2,91.7H78.5l16.1,59.4h32.7l3-16.7
				c-0.7-3.6-1.1-7.8-1.1-12.6C129.3,111.1,131,103.2,134.9,98z"/>
		</g>
		<path fill="#2E3192" d="M180.4,150.6V93h16.5v9.3c1.7-3.3,3.8-5.8,6.3-7.5c2.4-1.7,5.2-2.5,8.2-2.5c4.5,0,7.7,1.5,9.7,4.4
			c2,2.9,3,7.7,3,14.3v39.7h-17v-35c0-3-0.3-5-0.9-6.1c-0.6-1.1-1.6-1.6-3-1.6c-2,0-3.5,0.6-4.3,1.9c-0.9,1.3-1.3,3.4-1.3,6.4v34.3
			H180.4z"/>
		<path fill="#2E3192" d="M256.9,150.6l-1-6.6c-1.8,2.6-3.9,4.6-6.2,5.9c-2.3,1.4-4.7,2-7.4,2c-4.8,0-8.5-1.5-11.1-4.4
			c-2.7-3-4-7.1-4-12.4c0-6.4,2.4-11.4,7.2-15.1c4.8-3.7,11.9-6,21.5-7c0-0.2,0.1-0.4,0.1-0.7c0-0.3,0-0.7,0-1.2
			c0-2.1-0.5-3.7-1.4-4.8c-0.9-1-2.3-1.6-4.1-1.6c-1.7,0-3,0.3-3.9,1c-0.9,0.7-1.5,1.7-1.6,3.1h-15.6c0.3-5.7,2.3-10,5.9-13
			c3.7-3,8.8-4.5,15.5-4.5c7.4,0,13,1.9,16.5,5.6c3.6,3.7,5.4,9.5,5.4,17.2v29.8c0,1.2,0,2.4,0.1,3.4c0.1,1,0.2,2,0.4,3H256.9z
			 M255.8,134.4v-11c-3.9,0.7-7,1.8-9.1,3.5c-2.1,1.7-3.2,3.7-3.2,6.2c0,1.5,0.4,2.8,1.3,3.6c0.9,0.9,2,1.3,3.5,1.3
			c1.2,0,2.4-0.3,3.6-0.9C253.3,136.5,254.5,135.6,255.8,134.4z"/>
		<path fill="#2E3192" d="M322.2,125.6v1.1c0,8.4-1.9,14.7-5.6,18.9c-3.7,4.2-9.3,6.3-16.8,6.3c-7.9,0-13.6-2.4-17.2-7.2
			c-3.6-4.8-5.4-12.5-5.4-23s1.8-18.3,5.4-23.1c3.6-4.8,9.3-7.2,17.2-7.2c7.3,0,12.8,2.1,16.7,6.3c3.8,4.2,5.7,10.4,5.7,18.4v0.7
			h-16.9v-1.1c0-3.6-0.4-6.1-1.2-7.4c-0.8-1.4-2.1-2-4-2c-2.1,0-3.5,0.8-4.3,2.5c-0.8,1.6-1.2,6-1.2,13c0,7.1,0.4,11.4,1.1,13
			c0.8,1.6,2.1,2.4,4.1,2.4c1.9,0,3.3-0.8,4.2-2.3c0.9-1.5,1.3-4.1,1.3-7.6v-1.7H322.2z"/>
	</g>
	<path fill="#C71F1D" d="M142,64.8c0,1.8-1.5,3.3-3.3,3.3c-1.8,0-3.3-1.5-3.3-3.3c0-1.8,1.5-3.3,3.3-3.3C140.6,61.5,142,63,142,64.8
		z"/>
	<path fill="#C71F1D" d="M149.7,57.6c0,1.3-1.2,2.7-2.7,2.7c-1.5,0-2.7-1.2-2.7-2.7c0-1.5,1.2-2.7,2.7-2.7
		C148.5,54.9,149.7,56.3,149.7,57.6z"/>
	<path fill="#C71F1D" d="M157.5,58.9c0,0.7-0.6,1.4-1.4,1.4c-0.8,0-1.5-0.6-1.5-1.4c0-0.8,0.7-1.5,1.5-1.5
		C156.8,57.4,157.5,58.2,157.5,58.9z"/>
	<g>
		<path fill="#2E3192" d="M176.6,131.3c-0.2,6.6-2.2,11.7-5.9,15.2c-3.7,3.5-9.1,5.3-16,5.3c-8.3,0-14.3-2.3-18-7.1
			c-3.7-4.7-5.5-12.4-5.5-23.2c0-10.6,1.8-18.3,5.4-23c3.6-4.8,9.3-7.2,17.2-7.2c7.8,0,13.6,2.3,17.4,7.1c3.8,4.7,5.7,11.9,5.7,21.5
			c0,1.1-0.1,2.8-0.2,5.2l-0.1,0.4h-28.2c0,0.3,0,0.8-0.1,1.5c0,0.6-0.1,1.1-0.1,1.4c0,3.3,0.5,5.8,1.5,7.2c1,1.5,2.6,2.2,4.9,2.2
			c1.8,0,3.2-0.5,4.2-1.6c0.9-1.1,1.4-2.7,1.5-4.8L176.6,131.3z M148.3,115.2h12.2v-1.6c0-3.2-0.5-5.6-1.5-7.3
			c-1-1.6-2.5-2.4-4.5-2.4c-2.1,0-3.6,0.8-4.7,2.4c-1,1.6-1.5,4-1.5,7.3V115.2z"/>
	</g>
</g>
</svg>
