<?xml version="1.0" encoding="utf-8"?>
<!-- Generator: Adobe Illustrator 18.0.0, SVG Export Plug-In . SVG Version: 6.00 Build 0)  -->
<!DOCTYPE svg PUBLIC "-//W3C//DTD SVG 1.1//EN" "http://www.w3.org/Graphics/SVG/1.1/DTD/svg11.dtd">
<svg version="1.1" id="Layer_1" xmlns="http://www.w3.org/2000/svg" xmlns:xlink="http://www.w3.org/1999/xlink" x="0px" y="0px"
	 viewBox="0 0 360 216" enable-background="new 0 0 360 216" xml:space="preserve">
<rect fill="none" width="360" height="216"/>
<g>
	<path d="M326.1,91.3c-2.9,0-5.6-2.3-5.6-5.6c0-3.2,2.6-5.6,5.6-5.6c3.3,0,5.7,2.6,5.7,5.7C331.8,88.8,329.3,91.3,326.1,91.3z
		 M326.2,80.5c-2.9,0-5.2,2.3-5.2,5.1c0,2.9,2.3,5.1,5.1,5.1c2.9,0,5.1-2.3,5.1-5.1C331.3,82.9,329.1,80.5,326.2,80.5z M326,82.1
		c0.8,0,1.2,0,1.6,0.2c0.7,0.3,1.1,0.9,1.1,1.6c0,1-0.7,1.6-1.6,1.7c0.8,0.3,1,0.7,1.1,1.6c0.2,1,0.2,1.4,0.5,2h-1.2
		c-0.2-0.3-0.2-0.6-0.3-1c0-0.2-0.1-0.9-0.2-1.1c-0.2-1-0.8-1.2-1.8-1.2h-0.5v3.3h-1v-7H326z M324.9,85.1h1.2c0.4,0,1.6,0,1.6-1.1
		c0-0.3-0.1-0.6-0.3-0.8c-0.3-0.3-0.6-0.3-1.5-0.3h-1V85.1z"/>
</g>
<g>
	<g>
		<path d="M319.4-52.1h-1v-7.6h-2.7v-0.9h6.3v0.9h-2.7V-52.1z"/>
		<path d="M327-52.1l-2.9-7.5h0c0.1,0.6,0.1,1.3,0.1,2.1v5.4h-0.9v-8.4h1.5l2.7,7h0l2.7-7h1.5v8.4h-1v-5.4c0-0.6,0-1.3,0.1-2h0
			l-2.9,7.5H327z"/>
	</g>
</g>
<g>
	<g>
		<path fill="#0083CA" d="M73.9,122.1c0,6.2-2.1,10.7-6.4,13.7c-3.7,2.6-8.9,3.9-15.3,3.9H29V74.2h22.7c6.7,0,11.7,1,15.2,3.1
			c4.3,2.7,6.4,7.1,6.4,13.3c0,8-3.4,13.1-10.2,15.3C70.3,108.4,73.9,113.8,73.9,122.1z M60.7,93.6c0-3.2-1.4-5.2-4.1-6.2
			c-1.5-0.6-4.3-0.8-8.2-0.8h-7v14.3h8.8C57.2,100.9,60.7,98.5,60.7,93.6z M61.3,119.8c0-5.2-3.1-7.8-9.3-7.8H41.4v16h9
			c3.7,0,6.4-0.5,7.9-1.4C60.3,125.5,61.3,123.2,61.3,119.8z"/>
		<path fill="#0083CA" d="M125,112.7c0,8.4-1.8,15.2-5.5,20.3c-4.2,5.7-10.3,8.6-18.5,8.6c-8.3,0-14.6-3-18.7-9
			c-3.6-5.2-5.4-12.2-5.4-20.9c0-8.4,1.9-14.9,5.7-19.6c4.1-5.1,10.3-7.7,18.4-7.7c8.4,0,14.6,2.7,18.7,8.1
			C123.2,97.3,125,104,125,112.7z M113.8,112.5c0-10.9-4.3-16.3-12.9-16.3c-8.6,0-12.9,5.3-12.9,16c0,12.2,4.3,18.3,12.9,18.3
			C109.5,130.6,113.8,124.5,113.8,112.5z"/>
		<path fill="#0083CA" d="M172.4,139.7h-12.1v-29c0-4.5-0.3-7.5-0.8-9.2c-1.1-3.2-3.5-4.7-7-4.7c-4,0-6.9,1.6-8.9,4.9
			c-1.7,2.8-2.5,6.2-2.5,10.4v27.7h-12.1V86.1h11.7v6.5c3.8-5,8.8-7.5,15.1-7.5c3.8,0,7.2,1,10.1,3c3.1,2.1,5.1,5,6,8.6
			c0.4,1.6,0.6,4.5,0.6,8.6V139.7z"/>
		<path fill="#0083CA" d="M224.1,112.7c0,8.4-1.8,15.2-5.5,20.3c-4.2,5.7-10.4,8.6-18.5,8.6c-8.3,0-14.6-3-18.7-9
			c-3.6-5.2-5.4-12.2-5.4-20.9c0-8.4,1.9-14.9,5.7-19.6c4.1-5.1,10.3-7.7,18.4-7.7c8.4,0,14.6,2.7,18.7,8.1
			C222.3,97.3,224.1,104,224.1,112.7z M212.9,112.5c0-10.9-4.3-16.3-12.9-16.3c-8.6,0-12.9,5.3-12.9,16c0,12.2,4.3,18.3,12.9,18.3
			C208.6,130.6,212.9,124.5,212.9,112.5z"/>
		<path fill="#0083CA" d="M318.8,139.7h-11.2v-5.1c-3.3,4.6-7.7,6.9-13.2,6.9c-4.5,0-8.1-1.4-11-4.3c-2.8-2.9-4.3-6.5-4.3-11
			c0-5.9,2.5-10.4,7.4-13.5c1.5-1,6.1-2.7,13.6-5.3c4.9-1.7,7.4-3.8,7.4-6.3c0-3.6-2.6-5.4-7.9-5.4c-3.4,0-6.7,1.1-9.9,3.3
			c-2,1.4-4.7,3.7-8,7.1V92.7c5.5-5.5,12-8.3,19.3-8.3c5.4,0,9.7,1.3,12.8,3.8c3.3,2.8,4.9,6.8,4.9,12.2V139.7z M307.3,114.4
			c-4.6,1.9-7.7,3.3-9.5,4.2c-4.4,2.4-6.5,4.8-6.5,7c0,3.3,1.8,5,5.5,5C303.8,130.6,307.3,125.2,307.3,114.4z"/>
		<path fill="#B41E8E" d="M261.8,70.9c0,7-5.6,12.6-12.6,12.6c-7,0-12.6-5.6-12.6-12.6c0-7,5.6-12.6,12.6-12.6
			C256.2,58.3,261.8,64,261.8,70.9z"/>
		<path fill="#B41E8E" d="M178.6,52.1c0,0,48.3,9.8,76.5,60.2c6.4-6.2,15.4-29,15.1-52.9c3.5,12,18.3,61.7-30.9,105.5
			C239.4,164.8,257.1,98,178.6,52.1z"/>
		<g>
			<text transform="matrix(1 0 0 1 78.1924 77.2877)" fill="#C63D96" font-family="'MyriadPro-Regular'" font-size="16.0623">ONCE-MONTHLY</text>
		</g>
	</g>
</g>
</svg>
