<?xml version="1.0" encoding="utf-8"?>
<!-- Generator: Adobe Illustrator 18.0.0, SVG Export Plug-In . SVG Version: 6.00 Build 0)  -->
<!DOCTYPE svg PUBLIC "-//W3C//DTD SVG 1.1//EN" "http://www.w3.org/Graphics/SVG/1.1/DTD/svg11.dtd">
<svg version="1.1" id="Layer_1" xmlns="http://www.w3.org/2000/svg" xmlns:xlink="http://www.w3.org/1999/xlink" x="0px" y="0px"
	 viewBox="0 0 360 216" enable-background="new 0 0 360 216" xml:space="preserve">
<rect fill="none" width="360" height="216"/>
<g>
	<path d="M326.1-21.9c-2.9,0-5.6-2.3-5.6-5.6c0-3.2,2.6-5.6,5.6-5.6c3.3,0,5.7,2.6,5.7,5.7C331.8-24.4,329.3-21.9,326.1-21.9z
		 M326.2-32.6c-2.9,0-5.2,2.3-5.2,5.1c0,2.9,2.3,5.1,5.1,5.1c2.9,0,5.1-2.3,5.1-5.1C331.3-30.3,329.1-32.6,326.2-32.6z M326-31.1
		c0.8,0,1.2,0,1.6,0.2c0.7,0.3,1.1,0.9,1.1,1.6c0,1-0.7,1.6-1.6,1.7c0.8,0.3,1,0.7,1.1,1.6c0.2,1,0.2,1.4,0.5,2h-1.2
		c-0.2-0.3-0.2-0.6-0.3-1c0-0.2-0.1-0.9-0.2-1.1c-0.2-1-0.8-1.2-1.8-1.2h-0.5v3.3h-1v-7H326z M324.9-28.1h1.2c0.4,0,1.6,0,1.6-1.1
		c0-0.3-0.1-0.6-0.3-0.8c-0.3-0.3-0.6-0.3-1.5-0.3h-1V-28.1z"/>
</g>
<g>
	<g>
		<path d="M319.4,93.6h-1V86h-2.7v-0.9h6.3V86h-2.7V93.6z"/>
		<path d="M327,93.6l-2.9-7.5h0c0.1,0.6,0.1,1.3,0.1,2.1v5.4h-0.9v-8.4h1.5l2.7,7h0l2.7-7h1.5v8.4h-1v-5.4c0-0.6,0-1.3,0.1-2h0
			l-2.9,7.5H327z"/>
	</g>
</g>
<g>
	<g>
		<g>
			<g>
				<path fill="#F26A21" d="M83.3,123.1c-5.4,6.2-12.1,9.4-20.1,9.4c-7.3,0-13.3-2.3-18.1-7c-4.7-4.6-7.1-10.5-7.1-17.4
					c0-4.6,1.1-8.8,3.2-12.4c2.1-3.7,5.1-6.6,9-8.8c3.9-2.2,8.1-3.3,12.7-3.3c4.2,0,8,0.8,11.5,2.5c3.5,1.7,6.5,4.1,8.9,7.3l0.8,1
					l6.7-5.1l-0.7-1c-3-4.1-6.9-7.4-11.5-9.7c-4.7-2.3-9.9-3.4-15.7-3.4c-9.5,0-17.6,3.1-24,9.3c-6.4,6.2-9.6,13.9-9.6,23
					c0,8.6,2.7,16.1,7.9,22.2c6.3,7.2,14.9,10.9,25.7,10.9c5.7,0,10.9-1.1,15.5-3.2c4.6-2.1,8.5-5.2,11.6-9.2l0.8-1l-6.7-5.1
					L83.3,123.1z"/>
				<path fill="#F26A21" d="M137.3,98.3c-1.8-1.9-3.8-3.4-5.9-4.6c-3.1-1.6-6.6-2.5-10.5-2.5c-6.6,0-12.4,2.4-17.1,7.2
					c-4.7,4.8-7.1,10.6-7.1,17.2c0,6.8,2.4,12.7,7,17.5c4.7,4.8,10.4,7.2,17,7.2c3.7,0,7.2-0.8,10.3-2.3c2.2-1.1,4.3-2.6,6.2-4.5
					v5.7h8.1V92.4h-8.1V98.3z M133,104c3.1,3.2,4.7,7.2,4.7,12c0,3.1-0.7,6-2.1,8.5c-1.4,2.5-3.4,4.5-6,5.9
					c-5.1,2.9-11.4,2.9-16.3,0c-2.5-1.5-4.5-3.5-6-6.2c-1.5-2.6-2.2-5.4-2.2-8.3c0-2.9,0.7-5.7,2.2-8.3c1.5-2.6,3.5-4.7,5.9-6.1
					c2.5-1.4,5.2-2.2,8.2-2.2C125.9,99.3,129.8,100.9,133,104z"/>
				<path fill="#F26A21" d="M177.8,92.9c-4.6-2.5-8.6-2-12.4,0.4c-1.2,0.8-2.4,1.8-3.6,3.1v-4.1h-8.3v46.8h8.3V123
					c0-7.5,0.3-12.6,1-15c0.9-3,2.1-5.3,3.7-6.7c1.5-1.3,3.1-2,4.7-2c0.6,0,1.5,0.2,2.5,0.7l1,0.4l4.2-6.8L177.8,92.9z"/>
			</g>
			<g>
				<rect x="181.9" y="75.3" fill="#29417C" width="8.2" height="63.9"/>
				<path fill="#29417C" d="M205.7,92.9c0,0-1.1,0.7-3.1,0.7c-2,0-3.1-0.7-3.1-0.7l-1-0.7v47h8.2V93.5l0-1.2L205.7,92.9z"/>
				<path fill="#29417C" d="M249.2,94c-2.8-1.8-6-2.7-9.5-2.7c-3.5,0-6.7,0.8-9.6,2.4c-2,1.1-3.9,2.6-5.7,4.5v-5.8h-8.2v46.8h8.2
					v-17.5c0-5.7,0.3-9.7,0.8-11.7c0.8-3.1,2.5-5.7,5-7.8c2.5-2.1,5.3-3.1,8.5-3.1c2.7,0,4.9,0.7,6.6,1.9c1.6,1.3,2.8,3.3,3.4,5.9
					c0.4,1.6,0.6,4.9,0.6,9.9v22.4h8.2v-24.1c0-6.2-0.7-10.8-1.9-13.8C254,98.3,251.9,95.8,249.2,94z"/>
				<path fill="#29417C" d="M305.5,92.4v5.9c-1.8-1.9-3.8-3.4-5.9-4.6c-3.1-1.6-6.6-2.5-10.5-2.5c-6.6,0-12.4,2.4-17.1,7.2
					c-4.7,4.8-7.1,10.6-7.1,17.2c0,6.8,2.4,12.7,7,17.5c4.7,4.8,10.4,7.2,17,7.2c3.7,0,7.2-0.8,10.3-2.3c2.2-1.1,4.3-2.6,6.2-4.5
					v5.6h8.1V92.4H305.5z M305.8,116c0,3.1-0.7,6-2.1,8.5c-1.4,2.5-3.4,4.5-6,5.9c-5.1,2.9-11.4,2.9-16.3,0c-2.5-1.5-4.5-3.5-6-6.2
					c-1.5-2.6-2.2-5.4-2.2-8.3c0-2.9,0.7-5.7,2.2-8.3c1.5-2.6,3.5-4.7,5.9-6.1c2.5-1.4,5.2-2.2,8.2-2.2c4.6,0,8.5,1.6,11.6,4.8
					C304.3,107.2,305.8,111.3,305.8,116z"/>
			</g>
		</g>
	</g>
	<g>
		<circle fill="#F26A21" cx="202.7" cy="85.5" r="5.5"/>
	</g>
</g>
<g>
	<g>
		<path fill="#29417C" d="M92.4,481.3H93v5.4H95v0.6h-2.6V481.3z"/>
		<path fill="#29417C" d="M96,481.1c0.1,0,0.2,0,0.3,0.1c0.1,0.1,0.1,0.2,0.1,0.3c0,0.1,0,0.2-0.1,0.3c-0.1,0.1-0.2,0.1-0.3,0.1
			c-0.1,0-0.2,0-0.3-0.1c-0.1-0.1-0.1-0.2-0.1-0.3c0-0.1,0-0.2,0.1-0.3C95.8,481.1,95.9,481.1,96,481.1z M95.7,482.9h0.5v4.4h-0.5
			V482.9z"/>
		<path fill="#29417C" d="M97.3,482.9h0.5v0.8c0.2-0.3,0.4-0.5,0.7-0.7c0.3-0.2,0.5-0.2,0.8-0.2c0.3,0,0.6,0.1,0.8,0.3
			c0.2,0.2,0.4,0.4,0.5,0.7c0.1,0.3,0.2,0.7,0.2,1.3v2.3h-0.5v-2.1c0-0.5,0-0.8-0.1-1c-0.1-0.3-0.2-0.5-0.3-0.7
			c-0.2-0.1-0.4-0.2-0.7-0.2c-0.3,0-0.6,0.1-0.8,0.3c-0.2,0.2-0.4,0.5-0.5,0.8c0,0.2-0.1,0.6-0.1,1.2v1.6h-0.5V482.9z"/>
		<path fill="#29417C" d="M105.9,482.9v4.4h-0.5v-0.8c-0.2,0.3-0.5,0.5-0.7,0.7c-0.3,0.1-0.6,0.2-0.9,0.2c-0.6,0-1.1-0.2-1.5-0.7
			c-0.4-0.5-0.6-1-0.6-1.7c0-0.6,0.2-1.2,0.6-1.6c0.4-0.5,0.9-0.7,1.5-0.7c0.3,0,0.6,0.1,0.9,0.2c0.3,0.2,0.5,0.4,0.7,0.7v-0.8
			H105.9z M103.9,483.3c-0.3,0-0.6,0.1-0.8,0.2c-0.2,0.2-0.4,0.4-0.6,0.7c-0.1,0.3-0.2,0.6-0.2,0.9c0,0.3,0.1,0.6,0.2,0.9
			c0.1,0.3,0.3,0.5,0.6,0.7c0.2,0.2,0.5,0.2,0.8,0.2c0.3,0,0.6-0.1,0.8-0.2c0.3-0.2,0.4-0.4,0.6-0.6c0.1-0.3,0.2-0.6,0.2-0.9
			c0-0.5-0.2-0.9-0.5-1.3C104.7,483.5,104.3,483.3,103.9,483.3z"/>
		<path fill="#29417C" d="M110.6,482.9h0.5v3.5c0,0.6,0,1.1-0.1,1.4c-0.1,0.4-0.4,0.7-0.7,0.9c-0.3,0.2-0.7,0.3-1.2,0.3
			c-0.3,0-0.7-0.1-0.9-0.2c-0.3-0.1-0.5-0.3-0.7-0.4c-0.2-0.2-0.3-0.4-0.5-0.8h0.6c0.2,0.3,0.3,0.5,0.6,0.6c0.2,0.1,0.5,0.2,0.9,0.2
			c0.4,0,0.6-0.1,0.9-0.2c0.2-0.1,0.4-0.3,0.5-0.5c0.1-0.2,0.2-0.6,0.2-1.1v-0.2c-0.2,0.3-0.4,0.5-0.7,0.6c-0.3,0.1-0.6,0.2-0.9,0.2
			c-0.4,0-0.7-0.1-1-0.3c-0.3-0.2-0.6-0.5-0.8-0.8c-0.2-0.3-0.3-0.7-0.3-1.1s0.1-0.8,0.3-1.1c0.2-0.4,0.4-0.6,0.8-0.8
			c0.3-0.2,0.7-0.3,1-0.3c0.3,0,0.6,0.1,0.8,0.2c0.3,0.1,0.5,0.4,0.8,0.7V482.9z M109,483.3c-0.3,0-0.6,0.1-0.8,0.2
			c-0.3,0.2-0.4,0.4-0.6,0.6c-0.1,0.3-0.2,0.6-0.2,0.9c0,0.5,0.1,0.9,0.4,1.2c0.3,0.3,0.7,0.5,1.1,0.5c0.5,0,0.9-0.2,1.1-0.5
			c0.3-0.3,0.4-0.7,0.4-1.2c0-0.3-0.1-0.6-0.2-0.9c-0.1-0.3-0.3-0.5-0.6-0.6C109.6,483.4,109.3,483.3,109,483.3z"/>
		<path fill="#29417C" d="M112.1,481.2h0.5v6.1h-0.5V481.2z"/>
		<path fill="#29417C" d="M113.9,481.1c0.1,0,0.2,0,0.3,0.1c0.1,0.1,0.1,0.2,0.1,0.3c0,0.1,0,0.2-0.1,0.3c-0.1,0.1-0.2,0.1-0.3,0.1
			c-0.1,0-0.2,0-0.3-0.1c-0.1-0.1-0.1-0.2-0.1-0.3c0-0.1,0-0.2,0.1-0.3C113.7,481.1,113.8,481.1,113.9,481.1z M113.6,482.9h0.5v4.4
			h-0.5V482.9z"/>
		<path fill="#29417C" d="M115.2,482.9h0.5v0.8c0.2-0.3,0.4-0.5,0.7-0.7c0.3-0.2,0.6-0.2,0.9-0.2c0.6,0,1.1,0.2,1.5,0.7
			c0.4,0.5,0.6,1,0.6,1.6c0,0.6-0.2,1.2-0.6,1.7c-0.4,0.5-0.9,0.7-1.5,0.7c-0.3,0-0.6-0.1-0.9-0.2c-0.3-0.1-0.5-0.4-0.7-0.7v2.4
			h-0.5V482.9z M117.3,483.3c-0.4,0-0.8,0.2-1.1,0.5c-0.3,0.3-0.5,0.8-0.5,1.3c0,0.3,0.1,0.6,0.2,0.9c0.1,0.3,0.3,0.5,0.6,0.6
			c0.3,0.2,0.5,0.2,0.8,0.2c0.3,0,0.5-0.1,0.8-0.2c0.2-0.2,0.4-0.4,0.6-0.7c0.1-0.3,0.2-0.6,0.2-0.9c0-0.3-0.1-0.6-0.2-0.9
			c-0.1-0.3-0.3-0.5-0.6-0.7C117.8,483.4,117.6,483.3,117.3,483.3z"/>
		<path fill="#29417C" d="M120.8,481.2h0.5v1.6h0.8v0.5h-0.8v3.9h-0.5v-3.9h-0.7v-0.5h0.7V481.2z"/>
		<path fill="#29417C" d="M123.1,481.1c0.1,0,0.2,0,0.3,0.1c0.1,0.1,0.1,0.2,0.1,0.3c0,0.1,0,0.2-0.1,0.3c-0.1,0.1-0.2,0.1-0.3,0.1
			c-0.1,0-0.2,0-0.3-0.1c-0.1-0.1-0.1-0.2-0.1-0.3c0-0.1,0-0.2,0.1-0.3C122.9,481.1,123,481.1,123.1,481.1z M122.9,482.9h0.5v4.4
			h-0.5V482.9z"/>
		<path fill="#29417C" d="M124.4,482.9h0.5v0.8c0.2-0.3,0.4-0.5,0.7-0.7c0.3-0.2,0.5-0.2,0.8-0.2c0.3,0,0.6,0.1,0.8,0.3
			c0.2,0.2,0.4,0.4,0.5,0.7c0.1,0.3,0.2,0.7,0.2,1.3v2.3h-0.5v-2.1c0-0.5,0-0.8-0.1-1c-0.1-0.3-0.2-0.5-0.3-0.7
			c-0.2-0.1-0.4-0.2-0.7-0.2c-0.3,0-0.6,0.1-0.8,0.3c-0.2,0.2-0.4,0.5-0.5,0.8c0,0.2-0.1,0.6-0.1,1.2v1.6h-0.5V482.9z"/>
		<path fill="#29417C" d="M135.3,485.1l0.4,0.4c-0.2,0.2-0.5,0.4-0.7,0.6c0.1,0.2,0.3,0.4,0.6,0.6c0.2,0.2,0.3,0.4,0.5,0.6h-0.8
			l-0.7-0.8c-0.5,0.4-0.8,0.7-1.1,0.8c-0.3,0.1-0.6,0.2-0.9,0.2c-0.4,0-0.8-0.1-1-0.4c-0.3-0.3-0.4-0.6-0.4-1c0-0.3,0.1-0.6,0.3-0.9
			c0.2-0.3,0.5-0.7,1-1.1c-0.3-0.4-0.5-0.7-0.6-0.9c-0.1-0.2-0.1-0.4-0.1-0.5c0-0.3,0.1-0.5,0.3-0.7c0.2-0.2,0.5-0.3,0.9-0.3
			c0.2,0,0.4,0.1,0.6,0.2c0.2,0.1,0.3,0.2,0.4,0.4s0.1,0.3,0.1,0.5c0,0.2-0.1,0.4-0.2,0.6c-0.1,0.2-0.4,0.5-0.8,0.9l0.8,0.9l0.5,0.6
			C134.9,485.4,135.2,485.3,135.3,485.1z M132.9,484.5c-0.5,0.4-0.8,0.7-0.9,0.9c-0.1,0.2-0.2,0.4-0.2,0.6c0,0.2,0.1,0.4,0.3,0.6
			c0.2,0.2,0.4,0.3,0.6,0.3c0.2,0,0.4,0,0.6-0.1c0.3-0.1,0.6-0.4,1-0.7l-0.9-1C133.2,484.9,133.1,484.7,132.9,484.5z M133,483.7
			c0.3-0.2,0.5-0.4,0.6-0.7c0.1-0.2,0.1-0.3,0.1-0.4c0-0.1-0.1-0.3-0.2-0.4c-0.1-0.1-0.3-0.2-0.5-0.2c-0.2,0-0.3,0.1-0.5,0.2
			s-0.2,0.2-0.2,0.4c0,0.1,0,0.2,0.1,0.3C132.6,483.2,132.7,483.4,133,483.7z"/>
		<path fill="#29417C" d="M138.8,487.3l0.8-6h0.1l2.2,4.9l2.2-4.9h0.1l0.8,6h-0.5l-0.5-4.3l-1.9,4.3h-0.1l-1.9-4.3l-0.5,4.3H138.8z"
			/>
		<path fill="#29417C" d="M149.3,485.8l0.4,0.3c-0.1,0.3-0.3,0.6-0.5,0.7c-0.2,0.2-0.4,0.3-0.6,0.4c-0.2,0.1-0.5,0.1-0.8,0.1
			c-0.7,0-1.2-0.2-1.5-0.7c-0.4-0.5-0.6-1-0.6-1.6c0-0.6,0.2-1.1,0.5-1.5c0.4-0.6,0.9-0.8,1.6-0.8c0.7,0,1.2,0.3,1.6,0.9
			c0.3,0.4,0.4,0.9,0.4,1.5h-3.6c0,0.5,0.2,0.9,0.4,1.3c0.3,0.3,0.6,0.5,1.1,0.5c0.2,0,0.4,0,0.6-0.1c0.2-0.1,0.4-0.2,0.5-0.3
			C149,486.3,149.1,486.1,149.3,485.8z M149.3,484.6c-0.1-0.3-0.2-0.5-0.3-0.7c-0.1-0.2-0.3-0.3-0.5-0.4c-0.2-0.1-0.4-0.2-0.7-0.2
			c-0.4,0-0.7,0.1-1,0.4c-0.2,0.2-0.4,0.5-0.5,0.9H149.3z"/>
		<path fill="#29417C" d="M151.3,481.2h0.5v1.6h0.8v0.5h-0.8v3.9h-0.5v-3.9h-0.7v-0.5h0.7V481.2z"/>
		<path fill="#29417C" d="M155,481.2v0.6c-0.2-0.1-0.4-0.1-0.5-0.1c-0.1,0-0.2,0-0.3,0.1c-0.1,0-0.1,0.1-0.1,0.2c0,0.1,0,0.2,0,0.5
			v0.6h0.8v0.5h-0.8l0,3.9h-0.5v-3.9h-0.5v-0.5h0.5v-0.7c0-0.3,0-0.5,0.1-0.7c0.1-0.1,0.1-0.2,0.3-0.3c0.1-0.1,0.3-0.1,0.5-0.1
			C154.6,481.1,154.8,481.1,155,481.2z"/>
		<path fill="#29417C" d="M157.7,482.8c0.6,0,1.1,0.2,1.5,0.7c0.4,0.4,0.6,1,0.6,1.6c0,0.6-0.2,1.2-0.6,1.6
			c-0.4,0.5-0.9,0.7-1.5,0.7c-0.6,0-1.1-0.2-1.5-0.7c-0.4-0.5-0.6-1-0.6-1.6c0-0.6,0.2-1.1,0.6-1.6C156.5,483,157,482.8,157.7,482.8
			z M157.7,483.3c-0.4,0-0.8,0.2-1.1,0.5c-0.3,0.3-0.5,0.8-0.5,1.3c0,0.3,0.1,0.6,0.2,0.9c0.1,0.3,0.3,0.5,0.6,0.6
			c0.2,0.2,0.5,0.2,0.8,0.2c0.3,0,0.5-0.1,0.8-0.2c0.2-0.2,0.4-0.4,0.6-0.6c0.1-0.3,0.2-0.6,0.2-0.9c0-0.5-0.2-0.9-0.5-1.3
			C158.5,483.5,158.1,483.3,157.7,483.3z"/>
		<path fill="#29417C" d="M160.5,482.9h0.5v0.6c0.2-0.3,0.3-0.4,0.5-0.6c0.2-0.1,0.4-0.2,0.5-0.2c0.1,0,0.3,0.1,0.5,0.2l-0.3,0.5
			c-0.1-0.1-0.2-0.1-0.3-0.1c-0.2,0-0.3,0.1-0.5,0.2c-0.2,0.2-0.3,0.4-0.4,0.7c-0.1,0.3-0.1,0.8-0.1,1.5v1.5h-0.5V482.9z"/>
		<path fill="#29417C" d="M163.2,482.9h0.5v0.8c0.2-0.3,0.4-0.5,0.6-0.6c0.3-0.2,0.5-0.3,0.8-0.3c0.2,0,0.4,0,0.6,0.1
			c0.2,0.1,0.3,0.2,0.4,0.3c0.1,0.1,0.2,0.3,0.3,0.6c0.2-0.3,0.4-0.6,0.6-0.8c0.3-0.2,0.5-0.3,0.8-0.3c0.3,0,0.5,0.1,0.7,0.2
			c0.2,0.2,0.4,0.4,0.5,0.6c0.1,0.3,0.2,0.7,0.2,1.2v2.4h-0.5v-2.4c0-0.5,0-0.8-0.1-1c-0.1-0.2-0.2-0.3-0.3-0.4
			c-0.1-0.1-0.3-0.2-0.5-0.2c-0.3,0-0.5,0.1-0.7,0.2c-0.2,0.2-0.4,0.4-0.5,0.6c-0.1,0.3-0.1,0.7-0.1,1.4v1.7h-0.5V485
			c0-0.5,0-0.9-0.1-1.1c-0.1-0.2-0.2-0.3-0.3-0.5s-0.3-0.2-0.5-0.2c-0.2,0-0.5,0.1-0.7,0.2c-0.2,0.2-0.4,0.4-0.5,0.6
			c-0.1,0.3-0.1,0.7-0.1,1.2v1.9h-0.5V482.9z"/>
		<path fill="#29417C" d="M170.5,481.1c0.1,0,0.2,0,0.3,0.1c0.1,0.1,0.1,0.2,0.1,0.3c0,0.1,0,0.2-0.1,0.3c-0.1,0.1-0.2,0.1-0.3,0.1
			c-0.1,0-0.2,0-0.3-0.1c-0.1-0.1-0.1-0.2-0.1-0.3c0-0.1,0-0.2,0.1-0.3C170.2,481.1,170.3,481.1,170.5,481.1z M170.2,482.9h0.5v4.4
			h-0.5V482.9z"/>
		<path fill="#29417C" d="M171.8,482.9h0.5v0.8c0.2-0.3,0.4-0.5,0.7-0.7c0.3-0.2,0.5-0.2,0.8-0.2c0.3,0,0.6,0.1,0.8,0.3
			c0.2,0.2,0.4,0.4,0.5,0.7c0.1,0.3,0.2,0.7,0.2,1.3v2.3h-0.5v-2.1c0-0.5,0-0.8-0.1-1c-0.1-0.3-0.2-0.5-0.3-0.7
			c-0.2-0.1-0.4-0.2-0.7-0.2c-0.3,0-0.6,0.1-0.8,0.3c-0.2,0.2-0.4,0.5-0.5,0.8c0,0.2-0.1,0.6-0.1,1.2v1.6h-0.5V482.9z"/>
		<path fill="#29417C" d="M178.6,481.3h0.5v2.5h2.8v-2.5h0.5v6h-0.5v-2.9h-2.8v2.9h-0.5V481.3z"/>
		<path fill="#29417C" d="M183.2,482.9h0.5l1.4,3.4l1.3-3.4h0.6l-2.4,6h-0.5l0.8-1.9L183.2,482.9z"/>
		<path fill="#29417C" d="M191.7,481.2v6.1h-0.5v-0.8c-0.2,0.3-0.5,0.5-0.7,0.7c-0.3,0.1-0.6,0.2-0.9,0.2c-0.6,0-1.1-0.2-1.5-0.7
			c-0.4-0.5-0.6-1-0.6-1.7c0-0.6,0.2-1.2,0.6-1.6c0.4-0.5,0.9-0.7,1.5-0.7c0.3,0,0.6,0.1,0.9,0.2c0.3,0.2,0.5,0.4,0.7,0.7v-2.5
			H191.7z M189.7,483.3c-0.3,0-0.6,0.1-0.8,0.2c-0.2,0.2-0.4,0.4-0.6,0.7c-0.1,0.3-0.2,0.6-0.2,0.9c0,0.3,0.1,0.6,0.2,0.9
			c0.1,0.3,0.3,0.5,0.6,0.7c0.2,0.2,0.5,0.2,0.8,0.2c0.3,0,0.6-0.1,0.8-0.2c0.3-0.2,0.4-0.4,0.6-0.6c0.1-0.3,0.2-0.6,0.2-0.9
			c0-0.5-0.2-0.9-0.5-1.3C190.5,483.5,190.1,483.3,189.7,483.3z"/>
		<path fill="#29417C" d="M192.7,482.9h0.5v0.6c0.2-0.3,0.3-0.4,0.5-0.6c0.2-0.1,0.4-0.2,0.5-0.2c0.1,0,0.3,0.1,0.5,0.2l-0.3,0.5
			c-0.1-0.1-0.2-0.1-0.3-0.1c-0.2,0-0.3,0.1-0.5,0.2c-0.2,0.2-0.3,0.4-0.4,0.7c-0.1,0.3-0.1,0.8-0.1,1.5v1.5h-0.5V482.9z"/>
		<path fill="#29417C" d="M197,482.8c0.6,0,1.1,0.2,1.5,0.7c0.4,0.4,0.6,1,0.6,1.6c0,0.6-0.2,1.2-0.6,1.6c-0.4,0.5-0.9,0.7-1.5,0.7
			c-0.6,0-1.1-0.2-1.5-0.7c-0.4-0.5-0.6-1-0.6-1.6c0-0.6,0.2-1.1,0.6-1.6C195.9,483,196.4,482.8,197,482.8z M197,483.3
			c-0.4,0-0.8,0.2-1.1,0.5c-0.3,0.3-0.5,0.8-0.5,1.3c0,0.3,0.1,0.6,0.2,0.9c0.1,0.3,0.3,0.5,0.6,0.6c0.2,0.2,0.5,0.2,0.8,0.2
			c0.3,0,0.5-0.1,0.8-0.2c0.2-0.2,0.4-0.4,0.6-0.6c0.1-0.3,0.2-0.6,0.2-0.9c0-0.5-0.2-0.9-0.5-1.3
			C197.8,483.5,197.5,483.3,197,483.3z"/>
		<path fill="#29417C" d="M204,483.8l-0.4,0.3c-0.4-0.5-0.8-0.8-1.4-0.8c-0.5,0-0.9,0.2-1.2,0.5c-0.3,0.3-0.5,0.8-0.5,1.3
			c0,0.3,0.1,0.6,0.2,0.9c0.1,0.3,0.4,0.5,0.6,0.7c0.3,0.2,0.6,0.2,0.9,0.2c0.6,0,1.1-0.3,1.4-0.8l0.4,0.3c-0.2,0.3-0.4,0.6-0.8,0.7
			s-0.7,0.3-1.1,0.3c-0.6,0-1.2-0.2-1.6-0.7c-0.4-0.4-0.6-1-0.6-1.6c0-0.4,0.1-0.8,0.3-1.2c0.2-0.4,0.5-0.7,0.8-0.9
			c0.3-0.2,0.7-0.3,1.1-0.3c0.3,0,0.5,0,0.8,0.1c0.2,0.1,0.5,0.2,0.6,0.3C203.7,483.4,203.9,483.6,204,483.8z"/>
		<path fill="#29417C" d="M205,481.2h0.5v2.5c0.2-0.3,0.4-0.5,0.7-0.7c0.3-0.2,0.5-0.2,0.8-0.2c0.3,0,0.6,0.1,0.8,0.3
			c0.2,0.2,0.4,0.4,0.5,0.7s0.2,0.7,0.2,1.3v2.3H208v-2.1c0-0.5,0-0.8-0.1-1c-0.1-0.3-0.2-0.5-0.3-0.7c-0.2-0.1-0.4-0.2-0.7-0.2
			c-0.3,0-0.6,0.1-0.8,0.3c-0.2,0.2-0.4,0.5-0.5,0.8c0,0.2-0.1,0.6-0.1,1.2v1.6H205V481.2z"/>
		<path fill="#29417C" d="M209.5,481.2h0.5v6.1h-0.5V481.2z"/>
		<path fill="#29417C" d="M213,482.8c0.6,0,1.1,0.2,1.5,0.7c0.4,0.4,0.6,1,0.6,1.6c0,0.6-0.2,1.2-0.6,1.6c-0.4,0.5-0.9,0.7-1.5,0.7
			c-0.6,0-1.1-0.2-1.5-0.7c-0.4-0.5-0.6-1-0.6-1.6c0-0.6,0.2-1.1,0.6-1.6C211.9,483,212.4,482.8,213,482.8z M213,483.3
			c-0.4,0-0.8,0.2-1.1,0.5c-0.3,0.3-0.5,0.8-0.5,1.3c0,0.3,0.1,0.6,0.2,0.9c0.1,0.3,0.3,0.5,0.6,0.6c0.2,0.2,0.5,0.2,0.8,0.2
			c0.3,0,0.5-0.1,0.8-0.2c0.2-0.2,0.4-0.4,0.6-0.6c0.1-0.3,0.2-0.6,0.2-0.9c0-0.5-0.2-0.9-0.5-1.3
			C213.8,483.5,213.4,483.3,213,483.3z"/>
		<path fill="#29417C" d="M215.8,482.9h0.5v0.6c0.2-0.3,0.3-0.4,0.5-0.6c0.2-0.1,0.4-0.2,0.5-0.2c0.1,0,0.3,0.1,0.5,0.2l-0.3,0.5
			c-0.1-0.1-0.2-0.1-0.3-0.1c-0.2,0-0.3,0.1-0.5,0.2c-0.2,0.2-0.3,0.4-0.4,0.7c-0.1,0.3-0.1,0.8-0.1,1.5v1.5h-0.5V482.9z"/>
		<path fill="#29417C" d="M218.5,481.1c0.1,0,0.2,0,0.3,0.1c0.1,0.1,0.1,0.2,0.1,0.3c0,0.1,0,0.2-0.1,0.3c-0.1,0.1-0.2,0.1-0.3,0.1
			c-0.1,0-0.2,0-0.3-0.1c-0.1-0.1-0.1-0.2-0.1-0.3c0-0.1,0-0.2,0.1-0.3C218.3,481.1,218.4,481.1,218.5,481.1z M218.2,482.9h0.5v4.4
			h-0.5V482.9z"/>
		<path fill="#29417C" d="M223.8,481.2v6.1h-0.5v-0.8c-0.2,0.3-0.5,0.5-0.7,0.7c-0.3,0.1-0.6,0.2-0.9,0.2c-0.6,0-1.1-0.2-1.5-0.7
			c-0.4-0.5-0.6-1-0.6-1.7c0-0.6,0.2-1.2,0.6-1.6c0.4-0.5,0.9-0.7,1.5-0.7c0.3,0,0.6,0.1,0.9,0.2c0.3,0.2,0.5,0.4,0.7,0.7v-2.5
			H223.8z M221.8,483.3c-0.3,0-0.6,0.1-0.8,0.2c-0.2,0.2-0.4,0.4-0.6,0.7c-0.1,0.3-0.2,0.6-0.2,0.9c0,0.3,0.1,0.6,0.2,0.9
			c0.1,0.3,0.3,0.5,0.6,0.7c0.2,0.2,0.5,0.2,0.8,0.2c0.3,0,0.6-0.1,0.8-0.2c0.3-0.2,0.4-0.4,0.6-0.6c0.1-0.3,0.2-0.6,0.2-0.9
			c0-0.5-0.2-0.9-0.5-1.3C222.6,483.5,222.2,483.3,221.8,483.3z"/>
		<path fill="#29417C" d="M228.4,485.8l0.4,0.3c-0.1,0.3-0.3,0.6-0.5,0.7c-0.2,0.2-0.4,0.3-0.6,0.4c-0.2,0.1-0.5,0.1-0.8,0.1
			c-0.7,0-1.2-0.2-1.5-0.7c-0.4-0.5-0.6-1-0.6-1.6c0-0.6,0.2-1.1,0.5-1.5c0.4-0.6,0.9-0.8,1.6-0.8c0.7,0,1.2,0.3,1.6,0.9
			c0.3,0.4,0.4,0.9,0.4,1.5h-3.6c0,0.5,0.2,0.9,0.4,1.3c0.3,0.3,0.6,0.5,1.1,0.5c0.2,0,0.4,0,0.6-0.1c0.2-0.1,0.4-0.2,0.5-0.3
			C228.1,486.3,228.2,486.1,228.4,485.8z M228.4,484.6c-0.1-0.3-0.2-0.5-0.3-0.7c-0.1-0.2-0.3-0.3-0.5-0.4c-0.2-0.1-0.4-0.2-0.7-0.2
			c-0.4,0-0.7,0.1-1,0.4c-0.2,0.2-0.4,0.5-0.5,0.9H228.4z"/>
	</g>
	<g>
		<g>
			<g>
				<path fill="#F26A21" d="M114.6,470.5c-2.3,2.7-5.2,4-8.6,4c-3.1,0-5.7-1-7.8-3c-2-2-3.1-4.5-3.1-7.5c0-2,0.5-3.8,1.4-5.3
					c0.9-1.6,2.2-2.8,3.9-3.8c1.7-0.9,3.5-1.4,5.4-1.4c1.8,0,3.4,0.4,4.9,1.1c1.5,0.7,2.8,1.8,3.8,3.2l0.3,0.4l2.9-2.2l-0.3-0.4
					c-1.3-1.8-3-3.2-5-4.2c-2-1-4.3-1.5-6.7-1.5c-4.1,0-7.6,1.3-10.3,4c-2.7,2.7-4.1,6-4.1,9.9c0,3.7,1.1,6.9,3.4,9.5
					c2.7,3.1,6.4,4.7,11.1,4.7c2.4,0,4.7-0.5,6.7-1.4c2-0.9,3.7-2.2,5-3.9l0.3-0.4l-2.9-2.2L114.6,470.5z"/>
				<path fill="#F26A21" d="M137.8,459.8c-0.8-0.8-1.6-1.5-2.5-2c-1.3-0.7-2.8-1.1-4.5-1.1c-2.8,0-5.3,1-7.3,3.1c-2,2-3,4.5-3,7.4
					c0,2.9,1,5.5,3,7.5c2,2.1,4.5,3.1,7.3,3.1c1.6,0,3.1-0.3,4.4-1c1-0.5,1.9-1.1,2.7-1.9v2.4h3.5v-20.1h-3.5V459.8z M136,462.3
					c1.3,1.4,2,3.1,2,5.1c0,1.3-0.3,2.6-0.9,3.6c-0.6,1.1-1.5,1.9-2.6,2.5c-2.2,1.2-4.9,1.2-7,0c-1.1-0.6-1.9-1.5-2.6-2.7
					c-0.6-1.1-1-2.3-1-3.6c0-1.3,0.3-2.5,1-3.6c0.6-1.1,1.5-2,2.6-2.6c1.1-0.6,2.2-0.9,3.5-0.9C132.9,460.2,134.6,460.9,136,462.3z"
					/>
				<path fill="#F26A21" d="M155.2,457.5c-2-1.1-3.7-0.9-5.3,0.2c-0.5,0.3-1,0.8-1.5,1.3v-1.8h-3.6v20.1h3.6v-7
					c0-3.2,0.1-5.4,0.4-6.4c0.4-1.3,0.9-2.3,1.6-2.9c0.7-0.6,1.3-0.9,2-0.9c0.3,0,0.6,0.1,1.1,0.3l0.4,0.2l1.8-2.9L155.2,457.5z"/>
			</g>
			<path fill="#253A71" d="M263.1,450.8v-0.6h3.4v0.6h-1.4v5.5h-0.6v-5.5H263.1z"/>
			<path fill="#253A71" d="M267.1,456.3l0.9-6.1h0.1l2.5,5l2.5-5h0.1l0.9,6.1h-0.6l-0.6-4.4l-2.2,4.4h-0.2l-2.2-4.4l-0.6,4.4H267.1z
				"/>
		</g>
	</g>
	<g>
		<circle fill="#F26A21" cx="165.9" cy="454.3" r="2.4"/>
	</g>
	<polygon fill="#F26A21" points="258.3,450.2 258.3,449.9 257.4,449.9 246.8,471.6 236,449.9 235.2,449.9 231.3,477.4 234.4,477.4 
		237,458.7 246.2,477.2 246.3,477.4 247.3,477.4 256.5,458.8 259,477.1 259,477.4 262.3,477.4 	"/>
	<g>
		<g>
			<rect x="157" y="449.9" fill="#29417C" width="3.5" height="27.5"/>
			<path fill="#29417C" d="M167.2,457.5c0,0-0.5,0.3-1.3,0.3c-0.9,0-1.3-0.3-1.3-0.3l-0.4-0.3v20.2h3.5v-19.7l0-0.5L167.2,457.5z"/>
			<path fill="#29417C" d="M185.9,458c-1.2-0.8-2.6-1.2-4.1-1.2c-1.5,0-2.9,0.3-4.1,1c-0.9,0.5-1.7,1.1-2.5,1.9v-2.5h-3.5v20.1h3.5
				v-7.5c0-2.5,0.1-4.2,0.3-5c0.3-1.3,1.1-2.5,2.1-3.4c1.1-0.9,2.3-1.3,3.6-1.3c1.2,0,2.1,0.3,2.8,0.8c0.7,0.6,1.2,1.4,1.4,2.5
				c0.2,0.7,0.3,2.1,0.3,4.3v9.6h3.5v-10.3c0-2.7-0.3-4.6-0.8-5.9C188,459.8,187.1,458.7,185.9,458z"/>
			<path fill="#29417C" d="M210.1,459.8c-0.8-0.8-1.6-1.5-2.5-2c-1.3-0.7-2.8-1.1-4.5-1.1c-2.8,0-5.3,1-7.3,3.1c-2,2-3,4.5-3,7.4
				c0,2.9,1,5.5,3,7.5c2,2.1,4.5,3.1,7.3,3.1c1.6,0,3.1-0.3,4.4-1c1-0.5,1.9-1.1,2.7-1.9v2.4h3.5v-20.1h-3.5V459.8z M208.2,462.3
				c1.3,1.4,2,3.1,2,5.1c0,1.3-0.3,2.6-0.9,3.6c-0.6,1.1-1.5,1.9-2.6,2.5c-2.2,1.2-4.9,1.2-7,0c-1.1-0.6-1.9-1.5-2.6-2.7
				c-0.6-1.1-1-2.3-1-3.6c0-1.3,0.3-2.5,1-3.6c0.6-1.1,1.5-2,2.6-2.6c1.1-0.6,2.2-0.9,3.5-0.9C205.2,460.2,206.9,460.9,208.2,462.3z
				"/>
			<polygon fill="#29417C" points="217.3,467.1 217.3,470.1 228.3,470.1 228.7,467.1 			"/>
		</g>
	</g>
</g>
</svg>
