<?xml version="1.0" encoding="utf-8"?>
<!-- Generator: Adobe Illustrator 18.0.0, SVG Export Plug-In . SVG Version: 6.00 Build 0)  -->
<!DOCTYPE svg PUBLIC "-//W3C//DTD SVG 1.1//EN" "http://www.w3.org/Graphics/SVG/1.1/DTD/svg11.dtd">
<svg version="1.1" id="Layer_1" xmlns="http://www.w3.org/2000/svg" xmlns:xlink="http://www.w3.org/1999/xlink" x="0px" y="0px"
	 viewBox="0 0 360 216" enable-background="new 0 0 360 216" xml:space="preserve">
<rect fill="none" width="360" height="216"/>
<g>
	<path d="M326.1-21.9c-2.9,0-5.6-2.3-5.6-5.6c0-3.2,2.6-5.6,5.6-5.6c3.3,0,5.7,2.6,5.7,5.7C331.8-24.4,329.3-21.9,326.1-21.9z
		 M326.2-32.6c-2.9,0-5.2,2.3-5.2,5.1c0,2.9,2.3,5.1,5.1,5.1c2.9,0,5.1-2.3,5.1-5.1C331.3-30.3,329.1-32.6,326.2-32.6z M326-31.1
		c0.8,0,1.2,0,1.6,0.2c0.7,0.3,1.1,0.9,1.1,1.6c0,1-0.7,1.6-1.6,1.7c0.8,0.3,1,0.7,1.1,1.6c0.2,1,0.2,1.4,0.5,2h-1.2
		c-0.2-0.3-0.2-0.6-0.3-1c0-0.2-0.1-0.9-0.2-1.1c-0.2-1-0.8-1.2-1.8-1.2h-0.5v3.3h-1v-7H326z M324.9-28.1h1.2c0.4,0,1.6,0,1.6-1.1
		c0-0.3-0.1-0.6-0.3-0.8c-0.3-0.3-0.6-0.3-1.5-0.3h-1V-28.1z"/>
</g>
<g>
	<g>
		<path d="M319.4,87.4h-1v-7.6h-2.7V79h6.3v0.9h-2.7V87.4z"/>
		<path d="M327,87.4l-2.9-7.5h0c0.1,0.6,0.1,1.3,0.1,2.1v5.4h-0.9V79h1.5l2.7,7h0l2.7-7h1.5v8.4h-1V82c0-0.6,0-1.3,0.1-2h0l-2.9,7.5
			H327z"/>
	</g>
</g>
<g>
	<g>
		<g>
			<g>
				<path fill="#F26A21" d="M68.2,119c-3.9,4.5-8.8,6.8-14.6,6.8c-5.3,0-9.7-1.7-13.1-5.1c-3.4-3.4-5.2-7.6-5.2-12.6
					c0-3.3,0.8-6.4,2.3-9c1.5-2.7,3.7-4.8,6.5-6.4c2.8-1.6,5.9-2.4,9.2-2.4c3,0,5.8,0.6,8.3,1.8c2.5,1.2,4.7,3,6.5,5.3l0.6,0.7
					l4.9-3.7L73,93.8c-2.2-3-5-5.4-8.4-7c-3.4-1.7-7.2-2.5-11.4-2.5c-6.9,0-12.8,2.3-17.4,6.8c-4.6,4.5-7,10.1-7,16.7
					c0,6.3,1.9,11.7,5.8,16.1c4.6,5.3,10.9,7.9,18.7,7.9c4.1,0,7.9-0.8,11.3-2.3c3.4-1.6,6.2-3.8,8.5-6.7l0.6-0.7l-4.9-3.7L68.2,119
					z"/>
				<path fill="#F26A21" d="M107.4,100.9c-1.3-1.4-2.7-2.5-4.3-3.3c-2.3-1.2-4.8-1.8-7.6-1.8c-4.8,0-9,1.8-12.4,5.2
					c-3.4,3.5-5.1,7.7-5.1,12.5c0,5,1.7,9.2,5.1,12.7c3.4,3.5,7.5,5.2,12.3,5.2c2.7,0,5.2-0.6,7.5-1.7c1.6-0.8,3.1-1.9,4.5-3.2v4.1
					h5.9v-34h-5.9V100.9z M104.3,105.1c2.3,2.3,3.4,5.2,3.4,8.7c0,2.3-0.5,4.3-1.5,6.1c-1,1.8-2.5,3.2-4.3,4.3
					c-3.7,2.1-8.3,2.1-11.8,0c-1.8-1.1-3.3-2.6-4.4-4.5c-1.1-1.9-1.6-4-1.6-6.1c0-2.1,0.5-4.2,1.6-6.1c1.1-1.9,2.5-3.4,4.3-4.4
					c1.8-1,3.8-1.6,5.9-1.6C99.2,101.7,102,102.8,104.3,105.1z"/>
				<path fill="#F26A21" d="M136.9,97c-3.3-1.9-6.3-1.5-9,0.3c-0.9,0.6-1.8,1.3-2.6,2.3v-3h-6.1v34h6.1v-11.8
					c0-5.5,0.2-9.1,0.7-10.9c0.6-2.2,1.5-3.8,2.7-4.8c1.1-1,2.2-1.5,3.4-1.5c0.5,0,1.1,0.2,1.8,0.5l0.7,0.3l3.1-5L136.9,97z"/>
			</g>
		</g>
	</g>
	<g>
		<circle fill="#F26A21" cx="154.9" cy="91.7" r="4"/>
	</g>
	<polygon fill="#F26A21" points="311.3,84.6 311.2,84.2 309.7,84.2 291.7,120.9 273.5,84.2 272.1,84.2 265.4,130.7 270.8,130.7 
		275.1,99.1 290.7,130.4 290.8,130.7 292.6,130.7 308.1,99.3 312.4,130.3 312.4,130.7 317.9,130.7 	"/>
	<g>
		<g>
			<rect x="139.8" y="84.2" fill="#29417C" width="6" height="46.4"/>
			<path fill="#29417C" d="M157.1,97c0,0-0.8,0.5-2.2,0.5c-1.5,0-2.2-0.5-2.2-0.5l-0.8-0.5v34.1h6V97.4l0-0.9L157.1,97z"/>
			<path fill="#29417C" d="M188.7,97.8c-2-1.3-4.3-2-6.9-2c-2.5,0-4.9,0.6-7,1.8c-1.5,0.8-2.9,1.9-4.2,3.3v-4.2h-6v34h6V118
				c0-4.1,0.2-7,0.6-8.5c0.6-2.2,1.8-4.2,3.6-5.7c1.8-1.5,3.9-2.3,6.1-2.3c2,0,3.6,0.5,4.8,1.4c1.2,0.9,2,2.4,2.4,4.3
				c0.3,1.2,0.4,3.6,0.4,7.2v16.3h6v-17.5c0-4.5-0.5-7.9-1.4-10C192.2,100.9,190.7,99.1,188.7,97.8z"/>
			<path fill="#29417C" d="M229.6,100.9c-1.3-1.4-2.7-2.5-4.3-3.3c-2.3-1.2-4.8-1.8-7.6-1.8c-4.8,0-9,1.8-12.4,5.2
				c-3.4,3.5-5.1,7.7-5.1,12.5c0,5,1.7,9.2,5.1,12.7c3.4,3.5,7.5,5.2,12.3,5.2c2.7,0,5.2-0.6,7.5-1.7c1.6-0.8,3.1-1.9,4.5-3.2v4.1
				h5.9v-34h-5.9V100.9z M226.5,105.1c2.3,2.3,3.4,5.2,3.4,8.7c0,2.3-0.5,4.3-1.5,6.1c-1,1.8-2.5,3.2-4.3,4.3
				c-3.7,2.1-8.3,2.1-11.8,0c-1.8-1.1-3.3-2.6-4.4-4.5c-1.1-1.9-1.6-4-1.6-6.1c0-2.1,0.5-4.2,1.6-6.1c1.1-1.9,2.5-3.4,4.3-4.4
				c1.8-1,3.8-1.6,5.9-1.6C221.4,101.7,224.2,102.8,226.5,105.1z"/>
			<polygon fill="#29417C" points="241.9,113.3 241.9,118.3 260.4,118.3 261.1,113.3 			"/>
		</g>
	</g>
</g>
</svg>
