<?xml version="1.0" encoding="utf-8"?>
<!-- Generator: Adobe Illustrator 18.0.0, SVG Export Plug-In . SVG Version: 6.00 Build 0)  -->
<!DOCTYPE svg PUBLIC "-//W3C//DTD SVG 1.1//EN" "http://www.w3.org/Graphics/SVG/1.1/DTD/svg11.dtd">
<svg version="1.1" id="Layer_1" xmlns="http://www.w3.org/2000/svg" xmlns:xlink="http://www.w3.org/1999/xlink" x="0px" y="0px"
	 viewBox="0 0 360 216" enable-background="new 0 0 360 216" xml:space="preserve">
<rect fill="none" width="360" height="216"/>
<g>
	<path d="M326.1-50.9c-2.9,0-5.6-2.3-5.6-5.6c0-3.2,2.6-5.6,5.6-5.6c3.3,0,5.7,2.6,5.7,5.7C331.8-53.3,329.3-50.9,326.1-50.9z
		 M326.2-61.6c-2.9,0-5.2,2.3-5.2,5.1c0,2.9,2.3,5.1,5.1,5.1c2.9,0,5.1-2.3,5.1-5.1C331.3-59.3,329.1-61.6,326.2-61.6z M326-60
		c0.8,0,1.2,0,1.6,0.2c0.7,0.3,1.1,0.9,1.1,1.6c0,1-0.7,1.6-1.6,1.7c0.8,0.3,1,0.7,1.1,1.6c0.2,1,0.2,1.4,0.5,2h-1.2
		c-0.2-0.3-0.2-0.6-0.3-1c0-0.2-0.1-0.9-0.2-1.1c-0.2-1-0.8-1.2-1.8-1.2h-0.5v3.3h-1v-7H326z M324.9-57.1h1.2c0.4,0,1.6,0,1.6-1.1
		c0-0.3-0.1-0.6-0.3-0.8c-0.3-0.3-0.6-0.3-1.5-0.3h-1V-57.1z"/>
</g>
<g>
	<g>
		<path d="M237.3,105h-0.6V100H235v-0.6h4.1v0.6h-1.7V105z"/>
		<path d="M242.4,105l-1.9-4.9h0c0,0.4,0.1,0.8,0.1,1.4v3.5h-0.6v-5.5h1l1.7,4.6h0l1.8-4.6h1v5.5h-0.6v-3.6c0-0.4,0-0.9,0.1-1.3h0
			l-1.9,4.9H242.4z"/>
	</g>
</g>
<g>
	<g>
		<g>
			<path fill="#00ABC1" stroke="#00ABC1" stroke-width="0.9435" d="M98.8,120.1c-1.4,0.6-4.2,1.3-7.5,1.3c-7.8,0-12.8-4.7-11.2-13.4
				c1.5-8.3,8.5-13.8,17-13.8c3.5,0,5.5,0.7,6.4,1.2l-1.4,2.8c-1.2-0.6-3.1-1.1-5.4-1.1c-6.5,0-11.5,4-12.8,10.9
				c-1.2,6.5,1.9,10.6,8.7,10.6c2.2,0,4.5-0.4,6-1.1L98.8,120.1z"/>
			<path fill="#00ABC1" stroke="#00ABC1" stroke-width="0.9435" d="M117.5,116.4c-0.3,1.6-0.5,3.2-0.5,4.5h-3.3l0.2-2.4h-0.1
				c-1.4,1.5-3.8,2.8-6.6,2.8c-4,0-5.6-2.7-5.1-5.4c0.9-4.6,5.6-7.1,13.3-7l0.1-0.4c0.3-1.6,0.4-4.4-3.7-4.4c-1.8,0-3.9,0.5-5.4,1.4
				l-0.4-2.3c1.8-1,4.3-1.7,6.8-1.7c6.1,0,6.8,3.9,6.1,7.7L117.5,116.4z M115,111.3c-3.9-0.1-8.5,0.6-9.2,4.3
				c-0.4,2.2,0.9,3.3,2.8,3.3c2.6,0,4.5-1.6,5.4-3.2c0.2-0.3,0.3-0.7,0.4-1.1L115,111.3z"/>
			<path fill="#00ABC1" stroke="#00ABC1" stroke-width="0.9435" d="M125,107.9c0.4-2.2,0.7-4.1,0.9-5.9h3.2l-0.6,3.7h0.2
				c1.4-2.5,3.8-4.1,6.3-4.1c0.4,0,0.7,0,1,0.1l-0.6,3.2c-0.4-0.1-0.7-0.1-1.2-0.1c-2.5,0-4.7,1.8-5.7,4.4c-0.2,0.5-0.4,1-0.5,1.6
				l-1.9,10.1h-3.6L125,107.9z"/>
			<path fill="#00ABC1" stroke="#00ABC1" stroke-width="0.9435" d="M145.7,97.5l-0.8,4.5h5.2l-0.5,2.6h-5.2l-1.9,10.2
				c-0.4,2.3,0,3.7,2,3.7c1,0,1.6-0.1,2.1-0.2l-0.3,2.6c-0.8,0.3-1.9,0.5-3.3,0.5c-1.7,0-2.9-0.5-3.6-1.5c-0.8-1-0.9-2.7-0.5-4.9
				l1.9-10.3h-3.1l0.5-2.6h3.1l0.6-3.5L145.7,97.5z"/>
			<path fill="#00ABC1" stroke="#00ABC1" stroke-width="0.9435" d="M150.5,120.9l3.5-18.9h3.6l-3.5,18.9H150.5z M159.1,96.7
				c-0.2,1.2-1.3,2.1-2.7,2.1c-1.3,0-2-0.9-1.8-2.1c0.2-1.2,1.3-2.2,2.7-2.2C158.6,94.5,159.3,95.5,159.1,96.7z"/>
			<path fill="#F18221" stroke="#F18221" stroke-width="0.9435" d="M179.8,120.1c-1.4,0.6-4.2,1.3-7.5,1.3
				c-7.8,0-12.8-4.7-11.2-13.4c1.5-8.3,8.4-13.8,17-13.8c3.4,0,5.5,0.7,6.3,1.2l-1.4,2.8c-1.2-0.6-3.1-1.1-5.4-1.1
				c-6.5,0-11.5,4-12.8,10.9c-1.2,6.5,1.9,10.6,8.7,10.6c2.2,0,4.5-0.4,6-1.1L179.8,120.1z"/>
			<path fill="#F18221" stroke="#F18221" stroke-width="0.9435" d="M198.5,116.4c-0.3,1.6-0.5,3.2-0.5,4.5h-3.3l0.2-2.4h-0.1
				c-1.4,1.5-3.8,2.8-6.6,2.8c-4,0-5.6-2.7-5.1-5.4c0.9-4.6,5.6-7.1,13.3-7l0.1-0.4c0.3-1.6,0.4-4.4-3.7-4.4c-1.8,0-3.9,0.5-5.4,1.4
				l-0.4-2.3c1.8-1,4.3-1.7,6.8-1.7c6.1,0,6.8,3.9,6.1,7.7L198.5,116.4z M195.9,111.3c-3.9-0.1-8.5,0.6-9.2,4.3
				c-0.4,2.2,1,3.3,2.8,3.3c2.6,0,4.5-1.6,5.4-3.2c0.2-0.3,0.3-0.7,0.4-1.1L195.9,111.3z"/>
			<path fill="#F18221" stroke="#F18221" stroke-width="0.9435" d="M205.9,107.9c0.4-2.2,0.7-4.1,0.9-5.9h3.2l-0.6,3.7h0.2
				c1.4-2.5,3.9-4.1,6.3-4.1c0.4,0,0.7,0,1,0.1l-0.6,3.2c-0.4-0.1-0.7-0.1-1.2-0.1c-2.5,0-4.7,1.8-5.7,4.4c-0.2,0.5-0.4,1-0.5,1.6
				l-1.9,10.1h-3.6L205.9,107.9z"/>
			<path fill="#F18221" stroke="#F18221" stroke-width="0.9435" d="M220.1,112.1c-0.8,4.7,2,6.6,5.6,6.6c2.6,0,4.2-0.4,5.7-1
				l0.2,2.5c-1.4,0.5-3.7,1.2-6.8,1.2c-6.1,0-9.1-3.9-8-9.6c1.1-5.7,5.4-10.2,11.2-10.2c6.5,0,7.2,5.4,6.5,8.9
				c-0.1,0.7-0.3,1.2-0.4,1.6H220.1z M231.2,109.6c0.4-2.2,0.1-5.6-4-5.6c-3.6,0-5.9,3.2-6.6,5.6H231.2z"/>
		</g>
		<g>
			<path fill="#80D1DE" d="M46.4,115.1c0,0-1.1-1,0.1-1.6c1.3-0.6,1.2,0.2,2.5-1.3c0.9-1.1,3.5-1.7,4.4-1.8c0.9-0.1,1.8,0,1.9,1.3
				l0.2,0.8l-2.8,2.5H46.4z"/>
			<path fill="#80D1DE" d="M44.5,110.1c0,0,1.9,3,3.6,1.5c1.7-1.6,2-1.7,3.2-1.7c1.2,0,5.1-0.1,4.9-4.1c-0.2-4-9.8,1.1-9.8,1.1
				L44.5,110.1z"/>
			<path fill="#00ABC1" d="M53.1,102c-2.3-1-4.8-2.5-6.4-11.4c0-0.2-0.1-0.4-0.1-0.6l-4.7,2.1l-0.2,0.1c0,0,2.4,6.7,2.4,8.5
				c0,1.8-0.4,3.1-0.7,4.5c-0.3,1.4-0.3,3.9,1.2,5.3c1.5,1.4,3,1,3.6-0.2c0.7-1.3,2-2.1,3.6-1.6c1.6,0.5,4.1-0.4,4.4-2.4
				C56.7,104.3,55.4,103,53.1,102z"/>
			<path fill="#00ABC1" d="M44.3,126.6c0,0,1.9-3.3,2.3-5.1c0.4-1.9,0.2-4.4-0.3-5.9c-0.5-1.5-0.1-1.9,1.3-1.7
				c1.3,0.1,1.8-0.3,2.7-1.6c0.9-1.3,5-2.7,5.5-0.4c0.4,2.3-0.9,4.3-1.6,5.2c-0.7,0.9-2.1,2.7-2.5,4.4c-0.4,1.6-1.3,4.7-1.1,6.1
				C50.7,129,44.3,126.6,44.3,126.6z"/>
			<path fill="#00ABC1" d="M56.7,102.6c1.3,1,1,2.4,1,2.4c0.1,2.7-0.7,5-0.8,7.1c-0.2,2.2-0.2,4.4-1.1,5.8c-1,1.4-2.1,2.9-0.3,1.6
				c1.9-1.3,3-3.9,3.2-5.9c0.2-2.1,0.7-4.5,0.6-7.1c-0.1-2.6-0.2-4.7-3.3-5.8c-3.3-1.1-5.4-2.7-5.9-4.4c-0.5-1.6-1.4-1,0.1,1.3
				c0,0,1.6,2.4,3.3,3.2C53.5,100.9,55.5,101.6,56.7,102.6z"/>
			<path fill="#00ABC1" d="M42.2,100c0,0-0.1-3.3,0.4-1.1c0.4,2.2,0.4,4,0.4,4.9c0,0.9-0.8,3.6,0,5.5c0.8,1.9,2.3,3.7,2.6,7
				c0.3,3.3,0.4,3.6,0.3,4.1c-0.1,0.5-0.6,1-0.6-1.3c0-2.3-2-5.5-2.6-6.8c-0.6-1.3-2-2.8-1.5-6.4C41.7,102.1,42.3,100.7,42.2,100z"
				/>
			<path fill="#00ABC1" d="M29,108.6c0-11,8.9-20,20-20l0,0c11,0,20,8.9,20,20l0,0c0,11-8.9,20-20,20l0,0
				C38,128.6,29,119.7,29,108.6L29,108.6z M31.3,108.6c0,9.8,7.9,17.6,17.7,17.7l0,0c9.8,0,17.6-7.9,17.7-17.7l0,0
				C66.6,98.9,58.8,91,49,91l0,0C39.2,91,31.3,98.9,31.3,108.6L31.3,108.6z"/>
			<path fill="#FFFFFF" d="M71.9,109.7c0,2.5-2,4.5-4.5,4.5c-2.5,0-4.5-2-4.5-4.5c0-2.5,2-4.5,4.5-4.5
				C69.9,105.2,71.9,107.2,71.9,109.7z"/>
			<circle fill="#F18221" cx="67.5" cy="108.8" r="3.9"/>
		</g>
	</g>
	<g>
		<path fill="none" d="M272.5,108.4c0.7-0.2,1.3-0.3,2-0.5v-7.4L272.5,108.4z"/>
		<path fill="none" d="M257.8,112.7v0.9c1-0.3,2-0.6,3.1-0.9l-0.2-1C259.6,112.1,258.7,112.4,257.8,112.7z"/>
		<path fill="none" d="M302.3,107.8c1,0,1.9,0,2.9,0.1l-2.3-3.3c-0.5,0-0.9,0-1.4,0c0.1,0.2,0.2,0.5,0.3,0.7
			C302.1,106.3,302.3,107.1,302.3,107.8z"/>
		<path fill="none" d="M292.4,105.6c-1.2,0-2.2,0.2-2.8,0.6c-0.5,0.3-0.9,0.9-1.2,1.8l-7.1-0.8v1.5c4.2-0.5,8.8-0.8,13.6-0.9
			c0-0.8-0.2-1.3-0.6-1.7C294.1,105.8,293.4,105.6,292.4,105.6z"/>
		<path fill="none" d="M266.3,109.9c-0.1,0-0.2,0.1-0.3,0.1l0.1,0.6L266.3,109.9z"/>
		<path fill="none" d="M281.5,106.6c0,0-0.1,0-0.1,0v0.4C281.4,106.9,281.4,106.7,281.5,106.6z"/>
		<path fill="none" d="M257.8,112.7c0.9-0.3,1.8-0.7,2.8-1l-2.8-11.3V112.7z"/>
		<path fill="none" d="M272.5,108.4l-0.4,1.7c0.8-0.1,1.6-0.3,2.4-0.4v-1.8C273.8,108,273.2,108.2,272.5,108.4z"/>
		<path fill="none" d="M288.9,114.1c-0.4,0.4-0.6,0.9-0.6,1.4c0,0.6,0.2,1.1,0.6,1.5c0.4,0.4,1,0.6,1.8,0.6c0.8,0,1.6-0.2,2.3-0.6
			c0.7-0.4,1.2-0.9,1.5-1.5c0.3-0.6,0.5-1.4,0.5-2.3v-1.2c-1,0.4-2.1,0.7-3.2,1C290.3,113.3,289.3,113.7,288.9,114.1z"/>
		<path fill="none" d="M281.4,113.4c0.2-0.4,0.4-0.7,0.7-1c0.9-1,2.5-1.7,4.8-2.2c2.8-0.6,4.6-1,5.5-1.2c0.8-0.2,1.7-0.5,2.7-0.9
			c0-0.1,0-0.2,0-0.3c-4.9,0.1-9.4,0.4-13.6,0.9V113.4z"/>
		<path fill="none" d="M302.4,108.4v8.7c0,0.4,0,0.8,0,1.1l5-7.3l-2.2-3c-1,0-1.9-0.1-2.9-0.1C302.3,108,302.4,108.2,302.4,108.4z"
			/>
		<path fill="none" d="M314.1,104.8c-0.9,0-1.9-0.1-2.8-0.1l1.3,2.3L314.1,104.8z"/>
		<path fill="#00ABC1" d="M251,121.3h6.8v-7.7c-2.6,0.8-4.9,1.7-6.8,2.4V121.3z"/>
		<path fill="#00ABC1" d="M263.1,121.3h6.2l2.8-11.2c-4.2,0.8-7.9,1.7-11.2,2.6L263.1,121.3z"/>
		<path fill="#C9E9EE" d="M281.4,107.2L281.4,107.2c0,0,0-0.1,0-0.1v-0.4c-2.4,0.4-4.7,0.8-6.8,1.3v1.8c2.2-0.4,4.4-0.7,6.8-0.9
			V107.2z"/>
		<path fill="#C9E9EE" d="M266.3,109.9l-0.2,0.7L266,110c-1.9,0.6-3.7,1.1-5.4,1.7l0.2,1c3.3-0.9,7-1.8,11.2-2.6l0.4-1.7
			C270.4,108.9,268.3,109.4,266.3,109.9z"/>
		<path fill="#C9E9EE" d="M251,115.6v0.5c1.9-0.8,4.2-1.6,6.8-2.4v-0.9C255.1,113.7,252.9,114.7,251,115.6z"/>
		<path fill="#00ABC1" d="M281.4,113.4v-4.7c-2.4,0.3-4.7,0.6-6.8,0.9v11.7h6.8v-2.7c-0.4-0.8-0.6-1.6-0.6-2.5
			C280.7,115.1,281,114.2,281.4,113.4z"/>
		<path fill="#00ABC1" d="M302.4,117.1v-8.7c0-0.2,0-0.4,0-0.5c-2.5-0.1-5-0.1-7.3,0c0,0.1,0,0.2,0,0.3c-0.9,0.4-1.8,0.7-2.7,0.9
			c-0.8,0.2-2.7,0.6-5.5,1.2c-2.3,0.5-4,1.2-4.8,2.2c-0.3,0.3-0.5,0.7-0.7,1v5.2c0.3,0.5,0.7,1.1,1.2,1.5c1.2,1.1,3,1.6,5.3,1.6
			c1.8,0,3.3-0.3,4.6-0.8c1-0.4,2-1.1,2.9-2.1c0.1,0.6,0.2,1,0.3,1.3c0.1,0.3,0.3,0.7,0.6,1.2h4l2.1-3.1
			C302.4,117.9,302.4,117.5,302.4,117.1z M295,113.1c0,0.9-0.1,1.7-0.5,2.3c-0.3,0.6-0.8,1.1-1.5,1.5c-0.7,0.4-1.5,0.6-2.3,0.6
			c-0.8,0-1.4-0.2-1.8-0.6c-0.4-0.4-0.6-0.9-0.6-1.5c0-0.5,0.2-1,0.6-1.4c0.4-0.4,1.4-0.8,2.9-1.2c1.1-0.3,2.2-0.6,3.2-1V113.1z"/>
		<path fill="#C9E9EE" d="M281.4,107.2l7.1,0.8c0.3-0.9,0.7-1.4,1.2-1.8c0.6-0.4,1.5-0.6,2.8-0.6c1,0,1.6,0.2,2,0.6
			c0.3,0.3,0.5,0.9,0.6,1.7c2.4-0.1,4.8,0,7.3,0c-0.1-0.8-0.2-1.6-0.5-2.4c-0.1-0.3-0.2-0.5-0.3-0.7c-7.3,0.2-14,0.9-20,1.9
			c0,0.2-0.1,0.3-0.1,0.5V107.2z"/>
		<path fill="#00ABC1" d="M280.7,116.1c0,0.9,0.2,1.8,0.6,2.5v-5.2C281,114.2,280.7,115.1,280.7,116.1z"/>
		<path fill="#9CD9E4" d="M281.3,107.2L281.3,107.2l0-0.1C281.4,107.1,281.3,107.1,281.3,107.2z"/>
		<path fill="#C9E9EE" d="M319.2,109.1l2.7-3.8c-2.6-0.2-5.2-0.4-7.7-0.5l-1.5,2.2l-1.3-2.3c-2.9-0.1-5.7-0.1-8.5,0l2.3,3.3
			C309.7,108.1,314.3,108.5,319.2,109.1z"/>
		<g>
			<path fill="#F18221" d="M257.8,100.5l2.8,11.3c1.7-0.6,3.5-1.1,5.4-1.7l-4.1-16h-11v21.6c1.9-0.9,4.2-1.8,6.8-2.8V100.5z"/>
			<path fill="#F18221" d="M274.5,100.5v7.4c2.2-0.5,4.5-0.9,6.8-1.3V94h-11l-4,16c1.9-0.6,4-1.1,6.2-1.6L274.5,100.5z"/>
			<path fill="#F18221" d="M300.3,103.1c-0.9-0.8-2.1-1.3-3.4-1.6c-1.4-0.3-3.2-0.4-5.4-0.4c-1.4,0-2.7,0.1-3.9,0.3
				c-1.2,0.2-2.2,0.5-2.8,0.9c-1,0.5-1.7,1.2-2.2,1.9c-0.4,0.6-0.8,1.4-1,2.4c6-1,12.7-1.7,20-1.9
				C301.2,104,300.8,103.5,300.3,103.1z"/>
			<path fill="#F18221" d="M324.6,101.5h-8.3l-2.2,3.3c2.5,0.1,5.1,0.3,7.7,0.5L324.6,101.5z"/>
			<path fill="#F18221" d="M311.3,104.7l-1.8-3.2h-8.9l2.2,3.1C305.6,104.6,308.4,104.6,311.3,104.7z"/>
		</g>
		<path fill="#00ABC1" d="M319.2,109.1c-4.9-0.6-9.5-1-14-1.2l2.2,3l-5,7.3c0,0.4,0.1,0.8,0.1,1.1c0.1,0.5,0.4,1.2,0.8,2h5.1
			l4.2-6.4l9.9,16.7h8.8L317.9,111L319.2,109.1z"/>
		<path fill="#00ABC1" d="M302.4,118.2l-2.1,3.1h3c-0.4-0.8-0.6-1.5-0.8-2C302.5,119,302.4,118.7,302.4,118.2z"/>
	</g>
</g>
</svg>
