<?xml version="1.0" encoding="utf-8"?>
<!-- Generator: Adobe Illustrator 18.0.0, SVG Export Plug-In . SVG Version: 6.00 Build 0)  -->
<!DOCTYPE svg PUBLIC "-//W3C//DTD SVG 1.1//EN" "http://www.w3.org/Graphics/SVG/1.1/DTD/svg11.dtd">
<svg version="1.1" id="Layer_1" xmlns="http://www.w3.org/2000/svg" xmlns:xlink="http://www.w3.org/1999/xlink" x="0px" y="0px"
	 viewBox="0 0 360 216" enable-background="new 0 0 360 216" xml:space="preserve">
<rect fill="none" width="360" height="216"/>
<g>
	<path d="M326.1,102.1c-2.9,0-5.6-2.3-5.6-5.6c0-3.2,2.6-5.6,5.6-5.6c3.3,0,5.7,2.6,5.7,5.7C331.8,99.6,329.3,102.1,326.1,102.1z
		 M326.2,91.4c-2.9,0-5.2,2.3-5.2,5.1c0,2.9,2.3,5.1,5.1,5.1c2.9,0,5.1-2.3,5.1-5.1C331.3,93.7,329.1,91.4,326.2,91.4z M326,92.9
		c0.8,0,1.2,0,1.6,0.2c0.7,0.3,1.1,0.9,1.1,1.6c0,1-0.7,1.6-1.6,1.7c0.8,0.3,1,0.7,1.1,1.6c0.2,1,0.2,1.4,0.5,2h-1.2
		c-0.2-0.3-0.2-0.6-0.3-1c0-0.2-0.1-0.9-0.2-1.1c-0.2-1-0.8-1.2-1.8-1.2h-0.5v3.3h-1v-7H326z M324.9,95.9h1.2c0.4,0,1.6,0,1.6-1.1
		c0-0.3-0.1-0.6-0.3-0.8c-0.3-0.3-0.6-0.3-1.5-0.3h-1V95.9z"/>
</g>
<g>
	<g>
		<path d="M319.4-7.9h-1v-7.6h-2.7v-0.9h6.3v0.9h-2.7V-7.9z"/>
		<path d="M327-7.9l-2.9-7.5h0c0.1,0.6,0.1,1.3,0.1,2.1v5.4h-0.9v-8.4h1.5l2.7,7h0l2.7-7h1.5v8.4h-1v-5.4c0-0.6,0-1.3,0.1-2h0
			l-2.9,7.5H327z"/>
	</g>
</g>
<g>
	<g>
		<path fill="#00ABC1" stroke="#00ABC1" stroke-width="0.7969" d="M127.3,124.1c-2,0.9-5.9,1.8-10.6,1.8c-11,0-18-6.6-15.7-18.8
			c2.2-11.6,11.9-19.5,23.9-19.5c4.8,0,7.7,1,8.9,1.7l-1.9,3.9c-1.7-0.9-4.3-1.5-7.6-1.5c-9.1,0-16.2,5.5-18,15.3
			c-1.7,9.1,2.7,14.9,12.2,14.9c3.1,0,6.3-0.6,8.5-1.5L127.3,124.1z"/>
		<path fill="#00ABC1" stroke="#00ABC1" stroke-width="0.7969" d="M153.6,118.9c-0.4,2.3-0.7,4.6-0.7,6.4h-4.6l0.2-3.3h-0.2
			c-1.9,2.1-5.3,4-9.3,4c-5.6,0-7.8-3.8-7.1-7.6c1.2-6.4,7.8-9.9,18.6-9.9l0.1-0.5c0.4-2.2,0.5-6.2-5.2-6.2c-2.6,0-5.5,0.8-7.6,2
			l-0.6-3.2c2.6-1.4,6.1-2.4,9.6-2.4c8.5,0,9.6,5.6,8.6,10.9L153.6,118.9z M150,111.7c-5.5-0.1-12,0.8-12.9,6
			c-0.6,3.1,1.3,4.6,3.9,4.6c3.6,0,6.3-2.2,7.6-4.4c0.3-0.5,0.5-1,0.6-1.5L150,111.7z"/>
		<path fill="#00ABC1" stroke="#00ABC1" stroke-width="0.7969" d="M164,107c0.6-3.1,1-5.8,1.3-8.3h4.4l-0.8,5.2h0.2
			c1.9-3.6,5.4-5.8,8.8-5.8c0.6,0,1,0.1,1.4,0.2l-0.9,4.6c-0.5-0.1-1-0.2-1.7-0.2c-3.6,0-6.6,2.6-8,6.2c-0.2,0.7-0.5,1.4-0.7,2.3
			l-2.6,14.2h-5L164,107z"/>
		<path fill="#00ABC1" stroke="#00ABC1" stroke-width="0.7969" d="M193.1,92.3l-1.2,6.4h7.3l-0.7,3.7h-7.3l-2.7,14.3
			c-0.6,3.3,0,5.2,2.8,5.2c1.4,0,2.2-0.1,3-0.3l-0.4,3.6c-1.1,0.4-2.7,0.7-4.6,0.7c-2.4,0-4.1-0.8-5.1-2.1c-1.2-1.4-1.3-3.8-0.7-6.9
			l2.7-14.5h-4.3l0.7-3.7h4.3l0.9-4.9L193.1,92.3z"/>
		<path fill="#00ABC1" stroke="#00ABC1" stroke-width="0.7969" d="M199.9,125.3l5-26.6h5.1l-4.9,26.6H199.9z M211.9,91.2
			c-0.3,1.6-1.8,3-3.8,3c-1.8,0-2.8-1.3-2.5-3c0.3-1.7,1.9-3,3.7-3C211.3,88.2,212.2,89.5,211.9,91.2z"/>
		<path fill="#F18121" stroke="#F18121" stroke-width="0.7969" d="M241,124.1c-2,0.9-5.9,1.8-10.6,1.8c-11,0-18-6.6-15.7-18.8
			c2.2-11.6,11.9-19.5,23.9-19.5c4.8,0,7.7,1,8.9,1.7l-1.9,3.9c-1.7-0.9-4.3-1.5-7.6-1.5c-9.1,0-16.2,5.5-18,15.3
			c-1.7,9.1,2.7,14.9,12.2,14.9c3.1,0,6.3-0.6,8.5-1.5L241,124.1z"/>
		<path fill="#F18121" stroke="#F18121" stroke-width="0.7969" d="M267.3,118.9c-0.4,2.3-0.7,4.6-0.7,6.4h-4.6l0.2-3.3H262
			c-1.9,2.1-5.3,4-9.3,4c-5.7,0-7.8-3.8-7.1-7.6c1.2-6.4,7.8-9.9,18.6-9.9l0.1-0.5c0.4-2.2,0.5-6.2-5.2-6.2c-2.6,0-5.4,0.8-7.6,2
			l-0.6-3.2c2.6-1.4,6.1-2.4,9.6-2.4c8.5,0,9.6,5.6,8.6,10.9L267.3,118.9z M263.7,111.7c-5.5-0.1-12,0.8-12.9,6
			c-0.6,3.1,1.3,4.6,3.9,4.6c3.6,0,6.3-2.2,7.6-4.4c0.3-0.5,0.5-1,0.6-1.5L263.7,111.7z"/>
		<path fill="#F18121" stroke="#F18121" stroke-width="0.7969" d="M277.7,107c0.6-3.1,1-5.8,1.3-8.3h4.4l-0.8,5.2h0.2
			c1.9-3.6,5.4-5.8,8.8-5.8c0.6,0,1,0.1,1.4,0.2l-0.8,4.6c-0.5-0.1-1-0.2-1.7-0.2c-3.6,0-6.6,2.6-8,6.2c-0.2,0.7-0.5,1.4-0.7,2.3
			l-2.6,14.2h-5L277.7,107z"/>
		<path fill="#F18121" stroke="#F18121" stroke-width="0.7969" d="M297.7,112.9c-1.1,6.5,2.8,9.2,7.9,9.2c3.6,0,5.9-0.6,8-1.4
			l0.2,3.5c-1.9,0.8-5.2,1.7-9.6,1.7c-8.6,0-12.7-5.4-11.2-13.5c1.5-8,7.6-14.3,15.8-14.3c9.1,0,10.1,7.6,9.2,12.5
			c-0.2,1-0.4,1.8-0.6,2.2H297.7z M313.2,109.4c0.6-3.1,0.1-7.9-5.6-7.9c-5.1,0-8.2,4.5-9.2,7.9H313.2z"/>
	</g>
	<g>
		<path fill="#80D0DD" d="M53.7,117.1c0,0-1.6-1.4,0.2-2.2c1.8-0.8,1.7,0.3,3.5-1.9c1.3-1.5,5-2.4,6.2-2.5c1.3-0.1,2.5,0,2.7,1.8
			l0.2,1.1l-4,3.5H53.7z"/>
		<path fill="#80D0DD" d="M51,110.1c0,0,2.7,4.3,5.1,2.1c2.4-2.2,2.8-2.4,4.5-2.4c1.7,0,7.2-0.1,6.9-5.7c-0.3-5.6-13.8,1.6-13.8,1.6
			L51,110.1z"/>
		<path fill="#00ABC1" d="M63,98.7c-3.2-1.4-6.8-3.5-8.9-16c-0.1-0.3-0.1-0.6-0.2-0.8l-6.6,2.9L47.1,85c0,0,3.4,9.5,3.4,12
			c0,2.5-0.5,4.4-0.9,6.4c-0.4,2-0.4,5.5,1.7,7.5c2.1,2,4.2,1.5,5.1-0.3c0.9-1.8,2.8-2.9,5-2.2c2.2,0.7,5.7-0.5,6.2-3.4
			C68.1,102,66.3,100.1,63,98.7z"/>
		<path fill="#00ABC1" d="M50.7,133.3c0,0,2.7-4.6,3.2-7.2c0.5-2.6,0.3-6.1-0.4-8.2c-0.7-2.1-0.1-2.6,1.8-2.4
			c1.9,0.2,2.5-0.4,3.8-2.2c1.2-1.8,7.1-3.8,7.7-0.6c0.6,3.2-1.3,6-2.2,7.3c-0.9,1.2-2.9,3.8-3.5,6.1c-0.6,2.3-1.8,6.6-1.6,8.5
			C59.7,136.6,50.7,133.3,50.7,133.3z"/>
		<path fill="#00ABC1" d="M68.2,99.6c1.8,1.5,1.4,3.4,1.4,3.4c0.2,3.7-0.9,7-1.1,10c-0.2,3-0.2,6.1-1.6,8.1c-1.4,2-3,4.1-0.4,2.3
			c2.6-1.8,4.2-5.4,4.5-8.3c0.3-2.9,0.9-6.3,0.8-10c-0.1-3.6-0.3-6.6-4.7-8.1c-4.7-1.6-7.6-3.8-8.3-6.1c-0.7-2.3-2-1.5,0.2,1.9
			c0,0,2.2,3.3,4.7,4.5C63.6,97.1,66.4,98.1,68.2,99.6z"/>
		<path fill="#00ABC1" d="M47.7,95.8c0,0-0.1-4.7,0.5-1.6c0.6,3.1,0.5,5.6,0.5,6.9c0,1.2-1.1,5.1,0,7.7c1.1,2.6,3.2,5.2,3.6,9.9
			c0.4,4.7,0.5,5,0.4,5.7c-0.1,0.7-0.8,1.3-0.8-1.9c0-3.2-2.8-7.7-3.6-9.6c-0.8-1.9-2.8-4-2.1-9.1C47,98.9,47.8,96.9,47.7,95.8z"/>
		<path fill="#00ABC1" d="M29.3,108c0-15.5,12.6-28,28-28l0,0c15.5,0,28,12.6,28,28l0,0c0,15.5-12.6,28-28,28l0,0
			C41.8,136,29.3,123.5,29.3,108L29.3,108z M32.5,108c0,13.7,11.1,24.8,24.8,24.8l0,0c13.7,0,24.8-11.1,24.8-24.8l0,0
			c0-13.7-11.1-24.8-24.8-24.8l0,0C43.6,83.2,32.5,94.3,32.5,108L32.5,108z"/>
		<path fill="#FFFFFA" d="M89.5,109.5c0,3.5-2.8,6.3-6.3,6.3c-3.5,0-6.3-2.8-6.3-6.3c0-3.5,2.8-6.3,6.3-6.3
			C86.7,103.2,89.5,106,89.5,109.5z"/>
		<path fill="#F18121" d="M88.9,108.3c0,3-2.5,5.5-5.5,5.5c-3,0-5.5-2.5-5.5-5.5c0-3.1,2.5-5.5,5.5-5.5
			C86.4,102.8,88.9,105.2,88.9,108.3z"/>
	</g>
</g>
<g>
	<g>
		<g>
			<path fill="#00ABC1" stroke="#00ABC1" stroke-width="1.0103" d="M156.3,472.8c-1.5,0.7-4.5,1.4-8.1,1.4c-8.4,0-13.7-5.1-12-14.3
				c1.7-8.8,9.1-14.8,18.2-14.8c3.7,0,5.9,0.8,6.8,1.3l-1.5,3c-1.3-0.7-3.3-1.2-5.8-1.2c-6.9,0-12.3,4.2-13.7,11.6
				c-1.3,6.9,2.1,11.4,9.3,11.4c2.3,0,4.8-0.5,6.5-1.2L156.3,472.8z"/>
			<path fill="#00ABC1" stroke="#00ABC1" stroke-width="1.0103" d="M176.3,468.8c-0.3,1.8-0.6,3.5-0.6,4.9h-3.5l0.2-2.6h-0.1
				c-1.5,1.6-4,3-7.1,3c-4.3,0-6-2.9-5.4-5.8c0.9-4.9,6-7.6,14.2-7.5l0.1-0.4c0.3-1.7,0.4-4.7-4-4.7c-2,0-4.2,0.6-5.8,1.5l-0.4-2.4
				c2-1.1,4.6-1.8,7.3-1.8c6.5,0,7.3,4.2,6.5,8.3L176.3,468.8z M173.6,463.4c-4.2-0.1-9.1,0.6-9.9,4.6c-0.4,2.4,1,3.5,3,3.5
				c2.8,0,4.8-1.7,5.8-3.4c0.2-0.4,0.4-0.8,0.4-1.2L173.6,463.4z"/>
			<path fill="#00ABC1" stroke="#00ABC1" stroke-width="1.0103" d="M184.2,459.8c0.4-2.4,0.8-4.4,1-6.3h3.4l-0.6,4h0.2
				c1.5-2.7,4.1-4.4,6.7-4.4c0.4,0,0.7,0,1.1,0.1l-0.6,3.5c-0.4-0.1-0.8-0.1-1.3-0.1c-2.7,0-5,2-6.1,4.7c-0.2,0.5-0.4,1.1-0.5,1.7
				l-2,10.8h-3.8L184.2,459.8z"/>
			<path fill="#00ABC1" stroke="#00ABC1" stroke-width="1.0103" d="M206.4,448.6l-0.9,4.9h5.5l-0.5,2.8H205l-2,10.9
				c-0.5,2.5,0,3.9,2.2,3.9c1.1,0,1.7-0.1,2.3-0.3l-0.3,2.8c-0.8,0.3-2,0.5-3.5,0.5c-1.8,0-3.1-0.6-3.9-1.6c-0.9-1.1-1-2.9-0.5-5.3
				l2.1-11.1h-3.3l0.5-2.8h3.3l0.7-3.7L206.4,448.6z"/>
			<path fill="#00ABC1" stroke="#00ABC1" stroke-width="1.0103" d="M211.6,473.7l3.8-20.3h3.9l-3.8,20.3H211.6z M220.8,447.7
				c-0.2,1.3-1.3,2.3-2.9,2.3c-1.4,0-2.1-1-1.9-2.3c0.2-1.3,1.4-2.3,2.8-2.3C220.3,445.4,221,446.4,220.8,447.7z"/>
			<path fill="#F18221" stroke="#F18221" stroke-width="1.0103" d="M242.9,472.8c-1.5,0.7-4.5,1.4-8.1,1.4c-8.4,0-13.7-5.1-12-14.3
				c1.6-8.8,9-14.8,18.2-14.8c3.7,0,5.9,0.8,6.8,1.3l-1.5,3c-1.3-0.7-3.3-1.2-5.8-1.2c-6.9,0-12.3,4.2-13.7,11.6
				c-1.3,6.9,2.1,11.4,9.3,11.4c2.3,0,4.8-0.5,6.5-1.2L242.9,472.8z"/>
			<path fill="#F18221" stroke="#F18221" stroke-width="1.0103" d="M263,468.8c-0.3,1.8-0.6,3.5-0.5,4.9h-3.5l0.2-2.6h-0.1
				c-1.5,1.6-4,3-7.1,3c-4.3,0-6-2.9-5.4-5.8c0.9-4.9,6-7.6,14.2-7.5l0.1-0.4c0.3-1.7,0.4-4.7-4-4.7c-2,0-4.2,0.6-5.8,1.5l-0.4-2.4
				c2-1.1,4.6-1.8,7.3-1.8c6.5,0,7.3,4.2,6.5,8.3L263,468.8z M260.3,463.4c-4.2-0.1-9.1,0.6-9.9,4.6c-0.4,2.4,1,3.5,3,3.5
				c2.8,0,4.8-1.7,5.8-3.4c0.2-0.4,0.4-0.8,0.4-1.2L260.3,463.4z"/>
			<path fill="#F18221" stroke="#F18221" stroke-width="1.0103" d="M270.9,459.8c0.4-2.4,0.8-4.4,1-6.3h3.4l-0.6,4h0.2
				c1.5-2.7,4.1-4.4,6.7-4.4c0.4,0,0.7,0,1.1,0.1l-0.7,3.5c-0.4-0.1-0.8-0.1-1.3-0.1c-2.7,0-5,2-6.1,4.7c-0.2,0.5-0.4,1.1-0.5,1.7
				l-2,10.8h-3.8L270.9,459.8z"/>
			<path fill="#F18221" stroke="#F18221" stroke-width="1.0103" d="M286.2,464.2c-0.8,5,2.1,7,6,7c2.8,0,4.5-0.5,6.1-1l0.2,2.6
				c-1.5,0.6-3.9,1.3-7.3,1.3c-6.6,0-9.7-4.1-8.6-10.3c1.1-6.1,5.8-10.9,12-10.9c6.9,0,7.7,5.8,7,9.5c-0.1,0.8-0.3,1.3-0.4,1.7
				H286.2z M298,461.6c0.5-2.3,0.1-6-4.3-6c-3.9,0-6.3,3.4-7,6H298z"/>
		</g>
		<g>
			<path fill="#80D1DE" d="M100.1,467.4c0,0-1.2-1,0.2-1.7c1.3-0.6,1.3,0.2,2.7-1.4c1-1.2,3.8-1.8,4.8-1.9c0.9-0.1,1.9,0,2.1,1.4
				l0.2,0.9l-3,2.7H100.1z"/>
			<path fill="#80D1DE" d="M98.1,462.1c0,0,2.1,3.3,3.9,1.6c1.8-1.7,2.1-1.8,3.4-1.8c1.3,0,5.5-0.1,5.2-4.4
				c-0.2-4.3-10.5,1.2-10.5,1.2L98.1,462.1z"/>
			<path fill="#00ABC1" d="M107.3,453.5c-2.5-1-5.2-2.7-6.8-12.2c0-0.2-0.1-0.4-0.1-0.6l-5,2.2l-0.2,0.2c0,0,2.6,7.2,2.6,9.1
				c0,1.9-0.4,3.3-0.7,4.8c-0.3,1.5-0.3,4.2,1.3,5.7c1.6,1.5,3.2,1.1,3.9-0.2c0.7-1.3,2.1-2.2,3.8-1.7c1.7,0.6,4.4-0.4,4.8-2.6
				C111.2,455.9,109.7,454.5,107.3,453.5z"/>
			<path fill="#00ABC1" d="M97.9,479.8c0,0,2.1-3.5,2.5-5.5c0.4-2,0.2-4.7-0.3-6.3c-0.6-1.6-0.1-2,1.3-1.8c1.4,0.2,1.9-0.3,2.9-1.7
				c1-1.3,5.4-2.9,5.9-0.5c0.5,2.5-1,4.6-1.7,5.5c-0.7,1-2.2,2.9-2.7,4.7c-0.5,1.7-1.3,5-1.2,6.5C104.7,482.3,97.9,479.8,97.9,479.8
				z"/>
			<path fill="#00ABC1" d="M111.2,454.1c1.3,1.1,1.1,2.6,1.1,2.6c0.2,2.9-0.7,5.3-0.9,7.6c-0.2,2.3-0.2,4.7-1.2,6.2
				c-1,1.5-2.3,3.1-0.3,1.7c2-1.3,3.2-4.1,3.4-6.3c0.2-2.2,0.7-4.8,0.6-7.6c-0.1-2.8-0.2-5.1-3.6-6.2c-3.6-1.2-5.8-2.9-6.3-4.7
				c-0.6-1.7-1.5-1.1,0.2,1.4c0,0,1.7,2.5,3.6,3.4C107.7,452.2,109.9,453,111.2,454.1z"/>
			<path fill="#00ABC1" d="M95.6,451.2c0,0-0.1-3.6,0.4-1.2c0.5,2.4,0.4,4.3,0.4,5.2c0,0.9-0.9,3.9,0,5.9c0.9,2,2.5,4,2.8,7.5
				c0.3,3.6,0.4,3.8,0.3,4.4c-0.1,0.5-0.6,1-0.6-1.4c0-2.5-2.1-5.9-2.8-7.3c-0.6-1.4-2.1-3-1.6-6.9C95.1,453.5,95.7,452,95.6,451.2z
				"/>
			<path fill="#00ABC1" d="M81.5,460.5c0-11.8,9.6-21.4,21.4-21.4l0,0c11.8,0,21.4,9.6,21.4,21.4l0,0c0,11.8-9.6,21.4-21.4,21.4l0,0
				C91.1,481.9,81.5,472.3,81.5,460.5L81.5,460.5z M84,460.5c0,10.4,8.5,18.9,18.9,18.9l0,0c10.4,0,18.9-8.5,18.9-18.9l0,0
				c0-10.5-8.5-18.9-18.9-18.9l0,0C92.5,441.6,84,450.1,84,460.5L84,460.5z"/>
			<path fill="#FFFFFF" d="M127.5,461.7c0,2.7-2.2,4.8-4.8,4.8c-2.7,0-4.8-2.2-4.8-4.8c0-2.7,2.2-4.8,4.8-4.8
				C125.3,456.9,127.5,459,127.5,461.7z"/>
			<circle fill="#F18221" cx="122.8" cy="460.7" r="4.2"/>
		</g>
		<text transform="matrix(0.9549 0 0 1 301.9375 456.375)" font-family="'ArialMT'" font-size="7.9198">TM</text>
	</g>
	<g>
		<path fill="none" d="M342.3,460.2c0.7-0.2,1.4-0.3,2.1-0.5v-7.9L342.3,460.2z"/>
		<path fill="none" d="M326.5,464.9v0.9c1.1-0.3,2.1-0.7,3.3-1l-0.3-1C328.5,464.2,327.5,464.6,326.5,464.9z"/>
		<path fill="none" d="M374.2,459.7c1,0,2.1,0.1,3.1,0.1l-2.5-3.5c-0.5,0-1,0-1.5,0c0.1,0.2,0.2,0.5,0.3,0.8
			C373.9,458,374.1,458.8,374.2,459.7z"/>
		<path fill="none" d="M363.6,457.3c-1.3,0-2.3,0.2-3,0.6c-0.5,0.3-0.9,1-1.2,1.9l-7.6-0.8v1.6c4.5-0.5,9.4-0.8,14.6-1
			c0-0.8-0.2-1.4-0.6-1.8C365.3,457.5,364.6,457.3,363.6,457.3z"/>
		<path fill="none" d="M335.7,461.9c-0.1,0-0.2,0.1-0.3,0.1l0.2,0.6L335.7,461.9z"/>
		<path fill="none" d="M351.9,458.3c0,0-0.1,0-0.1,0v0.5C351.8,458.7,351.8,458.5,351.9,458.3z"/>
		<path fill="none" d="M326.5,464.9c1-0.4,2-0.7,3-1.1l-3-12V464.9z"/>
		<path fill="none" d="M342.3,460.2l-0.5,1.9c0.8-0.2,1.7-0.3,2.6-0.5v-1.9C343.7,459.9,343,460.1,342.3,460.2z"/>
		<path fill="none" d="M359.8,466.4c-0.4,0.4-0.7,0.9-0.7,1.5c0,0.6,0.2,1.2,0.7,1.6c0.4,0.4,1.1,0.6,1.9,0.6c0.9,0,1.7-0.2,2.5-0.7
			c0.8-0.4,1.3-1,1.6-1.6c0.3-0.6,0.5-1.5,0.5-2.5v-1.3c-1.1,0.4-2.3,0.8-3.5,1.1C361.3,465.6,360.2,466,359.8,466.4z"/>
		<path fill="none" d="M351.7,465.6c0.2-0.4,0.4-0.8,0.7-1.1c0.9-1,2.7-1.8,5.2-2.3c3-0.6,5-1,5.9-1.3c0.9-0.2,1.8-0.6,2.8-1
			c0-0.1,0-0.2,0-0.3c-5.2,0.1-10.1,0.4-14.6,1V465.6z"/>
		<path fill="none" d="M374.2,460.2v9.4c0,0.4,0,0.8,0,1.2l5.4-7.8l-2.3-3.3c-1,0-2.1-0.1-3.1-0.1
			C374.2,459.9,374.2,460.1,374.2,460.2z"/>
		<path fill="none" d="M386.8,456.4c-1,0-2-0.1-3-0.1l1.4,2.5L386.8,456.4z"/>
		<path fill="#00ABC1" d="M319.2,474.1h7.3v-8.3c-2.8,0.9-5.3,1.8-7.3,2.6V474.1z"/>
		<path fill="#00ABC1" d="M332.1,474.1h6.6l3-12c-4.5,0.8-8.5,1.8-12,2.8L332.1,474.1z"/>
		<path fill="#C9E9EE" d="M351.7,459L351.7,459c0-0.1,0-0.1,0-0.1v-0.5c-2.6,0.4-5,0.9-7.3,1.4v1.9c2.3-0.4,4.8-0.7,7.3-1V459z"/>
		<path fill="#C9E9EE" d="M335.7,461.9l-0.2,0.7l-0.2-0.6c-2.1,0.6-4,1.2-5.8,1.8l0.3,1c3.5-1,7.5-2,12-2.8l0.5-1.9
			C339.9,460.8,337.7,461.3,335.7,461.9z"/>
		<path fill="#C9E9EE" d="M319.2,467.9v0.5c2-0.8,4.5-1.7,7.3-2.6v-0.9C323.7,466,321.2,467,319.2,467.9z"/>
		<path fill="#00ABC1" d="M351.7,465.6v-5c-2.6,0.3-5,0.6-7.3,1v12.5h7.3v-2.9c-0.4-0.8-0.7-1.7-0.7-2.7
			C351.1,467.4,351.3,466.5,351.7,465.6z"/>
		<path fill="#00ABC1" d="M374.2,469.6v-9.4c0-0.2,0-0.4,0-0.6c-2.7-0.1-5.3-0.1-7.8,0c0,0.1,0,0.2,0,0.3c-1,0.4-1.9,0.7-2.8,1
			c-0.9,0.2-2.8,0.7-5.9,1.3c-2.5,0.5-4.2,1.3-5.2,2.3c-0.3,0.3-0.5,0.7-0.7,1.1v5.6c0.3,0.6,0.7,1.1,1.3,1.6
			c1.3,1.2,3.2,1.8,5.7,1.8c1.9,0,3.5-0.3,5-0.9c1-0.4,2.1-1.2,3.1-2.2c0.1,0.6,0.2,1.1,0.3,1.3c0.1,0.3,0.3,0.7,0.6,1.2h4.3
			l2.3-3.3C374.2,470.5,374.2,470.1,374.2,469.6z M366.4,465.4c0,1-0.2,1.8-0.5,2.5c-0.3,0.6-0.9,1.2-1.6,1.6
			c-0.8,0.4-1.6,0.7-2.5,0.7c-0.9,0-1.5-0.2-1.9-0.6c-0.4-0.4-0.7-0.9-0.7-1.6c0-0.6,0.2-1.1,0.7-1.5c0.4-0.4,1.5-0.9,3.1-1.3
			c1.2-0.3,2.3-0.7,3.5-1.1V465.4z"/>
		<path fill="#C9E9EE" d="M351.7,459l7.6,0.8c0.3-0.9,0.7-1.5,1.2-1.9c0.7-0.4,1.6-0.6,3-0.6c1,0,1.7,0.2,2.1,0.6
			c0.4,0.4,0.6,1,0.6,1.8c2.5-0.1,5.2,0,7.8,0c-0.1-0.8-0.2-1.7-0.6-2.6c-0.1-0.3-0.2-0.5-0.3-0.8c-7.9,0.2-15,1-21.4,2
			c0,0.2-0.1,0.3-0.1,0.5V459z"/>
		<path fill="#00ABC1" d="M351.1,468.5c0,1,0.2,1.9,0.7,2.7v-5.6C351.3,466.5,351.1,467.4,351.1,468.5z"/>
		<path fill="#9CD9E4" d="M351.7,459L351.7,459l0-0.1C351.7,458.9,351.7,458.9,351.7,459z"/>
		<path fill="#C9E9EE" d="M392.2,461l2.9-4.1c-2.8-0.3-5.6-0.4-8.3-0.6l-1.6,2.4l-1.4-2.5c-3.1-0.1-6.1-0.1-9.1,0l2.5,3.5
			C382,460,387,460.4,392.2,461z"/>
		<g>
			<path fill="#F18221" d="M326.5,451.8l3,12c1.8-0.6,3.7-1.2,5.8-1.8l-4.4-17.2h-11.8v23.1c2-0.9,4.5-2,7.3-3V451.8z"/>
			<path fill="#F18221" d="M344.4,451.8v7.9c2.3-0.5,4.8-1,7.3-1.4v-13.5H340l-4.3,17.1c2.1-0.6,4.3-1.2,6.6-1.7L344.4,451.8z"/>
			<path fill="#F18221" d="M372,454.5c-1-0.9-2.2-1.4-3.7-1.7c-1.5-0.3-3.4-0.4-5.8-0.4c-1.5,0-2.9,0.1-4.2,0.3
				c-1.3,0.2-2.3,0.5-3,1c-1,0.6-1.8,1.2-2.4,2c-0.5,0.6-0.8,1.5-1.1,2.6c6.4-1.1,13.6-1.8,21.4-2C372.9,455.6,372.5,455,372,454.5z
				"/>
			<path fill="#F18221" d="M398,452.9h-8.9l-2.3,3.5c2.7,0.1,5.5,0.3,8.3,0.6L398,452.9z"/>
			<path fill="#F18221" d="M383.8,456.3l-1.9-3.4h-9.5l2.4,3.4C377.7,456.2,380.7,456.2,383.8,456.3z"/>
		</g>
		<path fill="#00ABC1" d="M392.2,461c-5.2-0.7-10.2-1.1-15-1.3l2.3,3.3l-5.4,7.8c0,0.4,0.1,0.8,0.2,1.1c0.1,0.6,0.4,1.3,0.8,2.2h5.5
			l4.6-6.8l10.6,17.9h9.4L390.8,463L392.2,461z"/>
		<path fill="#00ABC1" d="M374.2,470.8l-2.3,3.3h3.2c-0.4-0.9-0.7-1.6-0.8-2.2C374.3,471.6,374.3,471.3,374.2,470.8z"/>
	</g>
	<text transform="matrix(1 0 0 1 138.957 486.002)" font-family="'Imago-Book'" font-size="7.097">glucosamine sulfate 750 mg USP &amp; diacerein 50 mg EP</text>
</g>
</svg>
