<?xml version="1.0" encoding="utf-8"?>
<!-- Generator: Adobe Illustrator 18.0.0, SVG Export Plug-In . SVG Version: 6.00 Build 0)  -->
<!DOCTYPE svg PUBLIC "-//W3C//DTD SVG 1.1//EN" "http://www.w3.org/Graphics/SVG/1.1/DTD/svg11.dtd">
<svg version="1.1" id="Layer_1" xmlns="http://www.w3.org/2000/svg" xmlns:xlink="http://www.w3.org/1999/xlink" x="0px" y="0px"
	 viewBox="0 0 360 216" enable-background="new 0 0 360 216" xml:space="preserve">
<rect fill="none" width="360" height="216"/>
<g>
	<path d="M324.8,105.9c-3.1,0-5.9-2.4-5.9-5.9c0-3.4,2.7-5.9,5.9-5.9c3.4,0,6,2.7,5.9,6C330.7,103.3,328.1,105.9,324.8,105.9z
		 M324.8,94.6c-3.1,0-5.4,2.4-5.4,5.4c0,3,2.4,5.4,5.4,5.4c3,0,5.4-2.4,5.4-5.4C330.2,97.1,327.9,94.6,324.8,94.6z M324.7,96.3
		c0.9,0,1.3,0,1.7,0.2c0.7,0.3,1.1,1,1.1,1.7c0,1-0.7,1.6-1.7,1.8c0.8,0.3,1,0.7,1.2,1.6c0.2,1.1,0.2,1.5,0.5,2.1h-1.2
		c-0.2-0.3-0.2-0.7-0.3-1c0-0.2-0.2-1-0.2-1.2c-0.2-1.1-0.8-1.2-1.9-1.2h-0.5v3.4h-1.1v-7.4H324.7z M323.5,99.4h1.2
		c0.5,0,1.7,0,1.7-1.2c0-0.3-0.1-0.6-0.3-0.8c-0.3-0.3-0.7-0.3-1.6-0.3h-1V99.4z"/>
</g>
<g>
	<g>
		<path d="M318.4-121.7h-1v-8.1h-2.9v-0.9h6.8v0.9h-2.9V-121.7z"/>
		<path d="M326.7-121.7l-3.1-8h0c0.1,0.6,0.1,1.4,0.1,2.3v5.7h-1v-9h1.6l2.9,7.4h0l2.9-7.4h1.6v9h-1v-5.8c0-0.7,0-1.4,0.1-2.2h0
			l-3.1,8H326.7z"/>
	</g>
</g>
<g>
	<g>
		<path fill="#32347B" d="M116.9,106.8c0,0.9-0.1,1.9-0.4,3.2c-0.2,1.1-0.5,2.1-0.7,3.1h-8.6c0.6-2.5,0.9-3.9,0.9-4.3
			c0-0.5-0.3-0.8-0.9-0.8c-0.1,0-0.6,0-1.5,0h-2l-4.1,18.5h-9l5.4-24h13.4c2.3,0,3.9,0.2,5,0.6C116.1,103.7,116.9,105,116.9,106.8z"
			/>
		<path fill="#32347B" d="M146.7,109.4c0,0.8-0.1,1.5-0.2,2.2l-3.4,14.9h-21.1c-5.4,0-8.1-1.8-8.1-5.3V120l0.2-0.8
			c0.8-3.1,2.5-5.3,5.1-6.5c2-0.9,4.9-1.3,8.7-1.3h9.3c0.1-0.2,0.1-0.4,0.1-0.9c0-1.1-0.7-1.8-2.1-2.1c-0.7-0.2-1.8-0.2-3.5-0.2
			h-13.3l1.3-5.8h16.2C143.1,102.4,146.7,104.7,146.7,109.4z M137.4,117.2h-8.4c-1.5,0-2.4,0.1-2.9,0.3c-0.9,0.4-1.4,1.1-1.4,2.3
			c0,0.2,0.1,0.4,0.2,0.7c0.3,0.2,1.3,0.4,2.7,0.4h8.9L137.4,117.2z"/>
		<path fill="#32347B" d="M218.6,109.4c0,0.8-0.1,1.5-0.2,2.2l-3.4,14.9h-21.1c-5.4,0-8.1-1.8-8.1-5.3V120l0.2-0.8
			c0.8-3.1,2.5-5.3,5.1-6.5c2-0.9,4.9-1.3,8.7-1.3h9.3c0.1-0.2,0.1-0.4,0.1-0.9c0-1.1-0.7-1.8-2.1-2.1c-0.7-0.2-1.8-0.2-3.5-0.2
			h-13.3l1.3-5.8h16.2C215,102.4,218.6,104.7,218.6,109.4z M207.6,117.2h-8.4c-1.5,0-2.4,0.1-2.9,0.3c-0.9,0.4-1.4,1.1-1.4,2.3
			c0,0.2,0.1,0.4,0.2,0.7c0.4,0.2,1.2,0.4,2.7,0.4h8.9L207.6,117.2z"/>
		<path fill="#32347B" d="M91.8,111.7c0,4.7-2,8.4-6,11.3c-3.6,2.6-7.9,3.8-13,3.8c-3.7,0-6.8-0.7-9.1-2.1c-2.9-1.7-4.3-4.2-4.3-7.5
			c0-0.9,0.1-1.8,0.3-2.8c1-4,3.3-7.1,6.9-9.4c3.3-2,7.2-3,11.8-3c3.7,0,6.8,0.7,9.2,2.1C90.4,105.9,91.8,108.4,91.8,111.7z
			 M82.4,112.7c0-1.5-0.5-2.7-1.5-3.5c-1-0.8-2.3-1.2-3.9-1.2c-2.5,0-4.4,0.8-5.9,2.4c-1.5,1.6-2.2,3.6-2.2,6c0,2.9,1.8,4.4,5.3,4.4
			c2.4,0,4.4-0.8,6-2.3C81.6,116.9,82.4,115,82.4,112.7z"/>
		<path fill="#32347B" d="M233.6,94.1l-7.2,32.4h-9.3l7.2-32.4H233.6z"/>
		<path fill="#32347B" d="M162.2,94.1l-7.2,32.4h-9.3l7.2-32.4H162.2z"/>
		<path fill="#32347B" d="M188.7,102.4l-1.4,6h-8.8c-3,0-5.2,0.3-6.5,1c-1.7,0.8-2.9,2.5-3.6,5.1c-0.1,0.5-0.2,1-0.2,1.6
			c0,1.9,0.8,3.2,2.5,3.8c1,0.4,2.7,0.6,5.1,0.6h8.8l-1.4,6h-11.3c-6,0-10-1.6-11.8-4.7c-0.9-1.5-1.3-3.1-1.3-4.9
			c0-1.5,0.4-3.1,1.2-5c2.7-6.3,8.4-9.5,17.3-9.5H188.7z"/>
		<path fill="#32347B" d="M245.3,110.9l-1.4,6.5h-13.4l1.5-6.5H245.3z"/>
		<g>
			<g>
				<path fill="#EB2227" d="M284.7,105.8c0,4.8-1.2,8.9-3.7,12.2c-2.5,3.5-6.2,5.8-11,7c-1.7,0.4-4.1,0.6-7.1,0.6H245l6.9-30.8h17.6
					C279.7,94.9,284.7,98.5,284.7,105.8z M274,106.6c0-1.8-0.6-3.1-1.8-3.8c-0.9-0.5-2.4-0.8-4.5-0.8h-7.5l-3.7,16.5h7.6
					c3,0,5.2-0.7,6.6-2.1c1.2-1.2,2.1-3.2,2.8-6.2C273.8,108.8,274,107.6,274,106.6z"/>
			</g>
		</g>
		<g>
			<path fill="#32347B" d="M55,97.7c-4.2,0-7.4,1.4-9.6,4.1c-2.2,2.7-3.8,7.2-4.7,13.3c-0.8,5.4-0.4,9.1,1.1,11.3
				c1.5,2.2,4.4,3.3,8.7,3.3h219l-6.9,8.5H48.8c-3.8,0-6.7-0.3-8.8-1c-2.1-0.7-4-1.8-5.6-3.3c-2.2-2-3.7-4.6-4.5-7.8
				c-0.8-3.2-0.9-7-0.2-11.5c1.2-8.7,4-15,8.2-19.1c4.3-4.1,10.3-6.2,18.1-6.2h16.9l-3.3,8.3H55z"/>
		</g>
		<g>
			<path fill="#EB2227" d="M287.2,95.7h9.8l3.4,8.8l21.9-26.7h9.7l-26.8,31.8l7,14.8h-10l-3.9-9.2l-18.9,22.9h-9.9l24.1-28.6
				L287.2,95.7z"/>
		</g>
	</g>
</g>
</svg>
