<?xml version="1.0" encoding="utf-8"?>
<!-- Generator: Adobe Illustrator 18.0.0, SVG Export Plug-In . SVG Version: 6.00 Build 0)  -->
<!DOCTYPE svg PUBLIC "-//W3C//DTD SVG 1.1//EN" "http://www.w3.org/Graphics/SVG/1.1/DTD/svg11.dtd">
<svg version="1.1" id="Layer_1" xmlns="http://www.w3.org/2000/svg" xmlns:xlink="http://www.w3.org/1999/xlink" x="0px" y="0px"
	 viewBox="0 0 360 216" enable-background="new 0 0 360 216" xml:space="preserve">
<rect fill="none" width="360" height="216"/>
<g>
	<path d="M325.7,94.8c-3.1,0-5.9-2.4-5.9-5.9c0-3.4,2.7-5.9,5.9-5.9c3.4,0,6,2.7,5.9,6C331.6,92.2,329.1,94.8,325.7,94.8z
		 M325.7,83.4c-3.1,0-5.4,2.4-5.4,5.4c0,3,2.4,5.4,5.4,5.4c3,0,5.4-2.4,5.4-5.4C331.1,85.9,328.8,83.4,325.7,83.4z M325.6,85.1
		c0.9,0,1.3,0,1.7,0.2c0.7,0.3,1.1,1,1.1,1.7c0,1-0.7,1.6-1.7,1.8c0.8,0.3,1,0.7,1.2,1.6c0.2,1.1,0.2,1.5,0.5,2.1h-1.2
		c-0.2-0.3-0.2-0.7-0.3-1c0-0.2-0.2-1-0.2-1.2c-0.2-1.1-0.8-1.2-1.9-1.2h-0.5v3.4h-1.1v-7.4H325.6z M324.4,88.2h1.2
		c0.5,0,1.7,0,1.7-1.2c0-0.3-0.1-0.6-0.3-0.8c-0.3-0.3-0.7-0.3-1.6-0.3h-1V88.2z"/>
</g>
<g>
	<g>
		<path d="M318.4-121.7h-1v-8.1h-2.9v-0.9h6.8v0.9h-2.9V-121.7z"/>
		<path d="M326.7-121.7l-3.1-8h0c0.1,0.6,0.1,1.4,0.1,2.3v5.7h-1v-9h1.6l2.9,7.4h0l2.9-7.4h1.6v9h-1v-5.8c0-0.7,0-1.4,0.1-2.2h0
			l-3.1,8H326.7z"/>
	</g>
</g>
<g>
	<g>
		<g>
			<path fill="#32347B" d="M127.4,100.1c0,1-0.2,2.2-0.5,3.6c-0.3,1.2-0.6,2.4-0.8,3.6h-9.7c0.7-2.8,1-4.4,1-4.9c0-0.5-0.3-0.9-1-1
				c-0.1,0-0.7,0-1.7,0h-2.2l-4.7,20.9H97.6l6.1-27.2h15.2c2.6,0,4.5,0.2,5.7,0.7C126.5,96.7,127.4,98.1,127.4,100.1z"/>
			<path fill="#32347B" d="M161.1,103.1c0,0.9-0.1,1.7-0.3,2.5l-3.8,16.9h-23.8c-6.1,0-9.1-2-9.1-6v-1.3l0.2-0.9
				c0.9-3.5,2.8-6,5.8-7.3c2.2-1,5.5-1.5,9.9-1.5h10.5c0.1-0.2,0.1-0.5,0.1-1c0-1.2-0.8-2-2.4-2.4c-0.7-0.2-2-0.2-3.9-0.2h-15
				l1.5-6.6h18.3C157,95.2,161.1,97.8,161.1,103.1z M150.6,111.8h-9.5c-1.7,0-2.8,0.1-3.3,0.3c-1,0.4-1.5,1.3-1.5,2.6
				c0,0.2,0.1,0.5,0.3,0.8c0.4,0.3,1.4,0.4,3.1,0.4h10.1L150.6,111.8z"/>
			<path fill="#EB2227" d="M242.3,103.1c0,0.9-0.1,1.7-0.3,2.5l-3.8,16.9h-23.8c-6.1,0-9.1-2-9.1-6v-1.3l0.2-0.9
				c0.9-3.5,2.8-6,5.8-7.3c2.2-1,5.5-1.5,9.9-1.5h10.5c0.1-0.2,0.1-0.5,0.1-1c0-1.2-0.8-2-2.4-2.4c-0.7-0.2-2-0.2-3.9-0.2h-15.1
				l1.5-6.6h18.3C238.2,95.2,242.3,97.8,242.3,103.1z M229.9,111.8h-9.4c-1.7,0-2.8,0.1-3.3,0.3c-1,0.4-1.5,1.3-1.5,2.6
				c0,0.2,0.1,0.5,0.3,0.8c0.4,0.3,1.4,0.4,3.1,0.4H229L229.9,111.8z"/>
			<path fill="#32347B" d="M99,105.6c0,5.3-2.3,9.5-6.8,12.7c-4.1,2.9-9,4.4-14.7,4.4c-4.2,0-7.6-0.8-10.3-2.4
				c-3.3-1.9-4.9-4.7-4.9-8.5c0-1,0.1-2.1,0.4-3.1c1.1-4.5,3.7-8.1,7.8-10.6c3.7-2.3,8.2-3.4,13.3-3.4c4.2,0,7.6,0.8,10.3,2.4
				C97.4,99.1,99,101.9,99,105.6z M88.4,106.8c0-1.7-0.6-3-1.7-3.9c-1.1-0.9-2.6-1.3-4.4-1.3c-2.8,0-5,0.9-6.7,2.7
				c-1.7,1.8-2.5,4.1-2.5,6.8c0,3.3,2,5,6,5c2.7,0,5-0.9,6.7-2.7C87.5,111.5,88.4,109.4,88.4,106.8z"/>
			<path fill="#EB2227" d="M259.3,85.8l-8.2,36.6h-10.5l8.2-36.6H259.3z"/>
			<path fill="#32347B" d="M178.6,85.8l-8.2,36.6h-10.5l8.2-36.6H178.6z"/>
			<path fill="#EB2227" d="M208.5,95.2L207,102h-9.9c-3.4,0-5.9,0.4-7.3,1.1c-2,0.9-3.3,2.9-4.1,5.7c-0.1,0.5-0.2,1.2-0.2,1.8
				c0,2.2,1,3.6,2.8,4.3c1.1,0.4,3,0.7,5.8,0.7h9.9l-1.5,6.8h-12.7c-6.8,0-11.3-1.8-13.3-5.3c-1-1.7-1.5-3.6-1.5-5.5
				c0-1.7,0.4-3.6,1.3-5.6c3-7.1,9.5-10.7,19.5-10.7H208.5z"/>
			<path fill="#32347B" d="M272.5,104.8l-1.6,7.4h-15.2l1.6-7.4H272.5z"/>
			<g>
				<g>
					<path fill="#32347B" d="M317,99c0,5.4-1.4,10.1-4.2,13.8c-2.9,3.9-7,6.6-12.4,7.9c-1.9,0.5-4.6,0.7-8.1,0.7h-20.2l7.8-34.8
						h19.9C311.3,86.7,317,90.8,317,99z M304.9,99.9c0-2.1-0.7-3.5-2-4.2c-1-0.6-2.7-0.9-5.1-0.9h-8.5l-4.2,18.6h8.5
						c3.4,0,5.9-0.8,7.5-2.3c1.4-1.3,2.4-3.6,3.2-7C304.7,102.5,304.9,101.1,304.9,99.9z"/>
				</g>
			</g>
			<g>
				<path fill="#32347B" d="M57.4,89.8c-4.8,0-8.4,1.5-10.9,4.6c-2.5,3.1-4.3,8.1-5.3,15.1c-0.9,6.1-0.5,10.3,1.2,12.8
					c1.7,2.5,4.9,3.7,9.9,3.7h198.2l-2.3,9.6H50.4c-4.3,0-7.6-0.4-9.9-1.1c-2.3-0.7-4.5-2-6.4-3.7c-2.5-2.3-4.2-5.2-5-8.8
					c-0.9-3.6-1-8-0.3-13c1.4-9.8,4.5-17,9.3-21.6c4.8-4.7,11.6-7,20.4-7h19.1l-3.7,9.4H57.4z"/>
			</g>
		</g>
	</g>
</g>
</svg>
