<?xml version="1.0" encoding="utf-8"?>
<!-- Generator: Adobe Illustrator 18.0.0, SVG Export Plug-In . SVG Version: 6.00 Build 0)  -->
<!DOCTYPE svg PUBLIC "-//W3C//DTD SVG 1.1//EN" "http://www.w3.org/Graphics/SVG/1.1/DTD/svg11.dtd">
<svg version="1.1" id="Layer_1" xmlns="http://www.w3.org/2000/svg" xmlns:xlink="http://www.w3.org/1999/xlink" x="0px" y="0px"
	 viewBox="0 0 360 216" enable-background="new 0 0 360 216" xml:space="preserve">
<rect fill="none" width="360" height="216"/>
<g>
	<path d="M326.1-50.9c-2.9,0-5.6-2.3-5.6-5.6c0-3.2,2.6-5.6,5.6-5.6c3.3,0,5.7,2.6,5.7,5.7C331.8-53.3,329.3-50.9,326.1-50.9z
		 M326.2-61.6c-2.9,0-5.2,2.3-5.2,5.1c0,2.9,2.3,5.1,5.1,5.1c2.9,0,5.1-2.3,5.1-5.1C331.3-59.3,329.1-61.6,326.2-61.6z M326-60
		c0.8,0,1.2,0,1.6,0.2c0.7,0.3,1.1,0.9,1.1,1.6c0,1-0.7,1.6-1.6,1.7c0.8,0.3,1,0.7,1.1,1.6c0.2,1,0.2,1.4,0.5,2h-1.2
		c-0.2-0.3-0.2-0.6-0.3-1c0-0.2-0.1-0.9-0.2-1.1c-0.2-1-0.8-1.2-1.8-1.2h-0.5v3.3h-1v-7H326z M324.9-57.1h1.2c0.4,0,1.6,0,1.6-1.1
		c0-0.3-0.1-0.6-0.3-0.8c-0.3-0.3-0.6-0.3-1.5-0.3h-1V-57.1z"/>
</g>
<g>
	<g>
		<path d="M317.2,86.9h-1.1v-8.5h-3v-1h7.1v1h-3V86.9z"/>
		<path d="M325.8,86.9l-3.2-8.4h-0.1c0.1,0.7,0.1,1.5,0.1,2.4v6.1h-1v-9.5h1.7l3,7.9h0.1l3-7.9h1.7v9.5h-1.1v-6.1
			c0-0.7,0-1.5,0.1-2.3H330l-3.3,8.4H325.8z"/>
	</g>
</g>
<g>
	<g>
		<path fill="#21409A" d="M144.8,97.1c-2.3-1.5-4.8-2.2-7.5-2.2c-3,0-5.6,1.4-7.9,4.1c-2.3,2.7-3.4,6-3.4,9.9l0.1,31.2l-12.8,0.1
			L113,85.3l12.8-0.1l0,5c3.6-4,8.3-6.1,14.3-6.1c4.4,0,7.7,0.6,10,2L144.8,97.1z"/>
		<path fill="#21409A" d="M206.2,116.3l-39.2,0.2c0.3,4.4,1.8,7.8,4.5,10.2c2.8,2.4,6.5,3.6,11.2,3.6c5.8,0,10.3-1.6,13.3-4.6l5,9.8
			c-4.5,3.7-11.2,5.5-20.1,5.6c-8.4,0-15-2.4-19.9-7.3c-4.9-4.9-7.3-11.7-7.4-20.5c0-8.6,2.6-15.6,7.9-21c5.3-5.4,11.7-8.1,19.2-8.1
			c8,0,14.3,2.3,19.2,7c4.8,4.7,7.3,10.8,7.3,18.1C207.2,110.7,206.9,113.1,206.2,116.3z M167.4,106.8l26.9-0.1
			c-0.9-8-5.4-12-13.4-12C173.7,94.8,169.2,98.8,167.4,106.8z"/>
		<path fill="#21409A" d="M240.1,140.7l-4.6,0l-25-55.7l14-0.1l13.2,33.4l13.9-33.5l13.6-0.1L240.1,140.7z"/>
		<path fill="#21409A" d="M302.9,133.9c-1.2,1.9-3.2,3.5-6,4.7c-2.9,1.2-5.9,1.8-9,1.9c-5.9,0-10.5-1.4-13.9-4.4
			c-3.4-2.9-5.1-7.1-5.1-12.5c0-6.3,2.3-11.3,7.1-14.9c4.8-3.6,11.5-5.4,20.3-5.5c1.5,0,3.3,0.2,5.3,0.7c0-6.5-4.1-9.7-12.3-9.6
			c-4.8,0-8.8,0.8-12.1,2.5l-2.8-9.9c4.4-2.1,9.6-3.2,15.7-3.2c8.4,0,14.5,1.8,18.4,5.6c3.9,3.8,5.9,11,5.9,21.6l0,11.7
			c0,7.3,1.5,11.9,4.5,13.8c-1,1.8-2.2,3-3.5,3.4c-1.3,0.4-2.8,0.7-4.4,0.7c-1.8,0-3.5-0.7-5-2C304.4,137,303.4,135.5,302.9,133.9z
			 M301.6,113.6c-2.2-0.4-3.8-0.7-4.9-0.6c-10.1,0-15.1,3.4-15.1,10c0,4.9,2.9,7.4,8.6,7.3c7.7,0,11.5-3.9,11.5-11.6L301.6,113.6z"
			/>
		<g>
			<path fill="#21409A" d="M46.6,130.8c7.1,3.2,16.8,3.9,24.4,1.7c-12.7-1.6-22.6-12.2-22.6-25.1c-0.1-14,11.6-25.5,25.9-25.5
				c7.8,0,14.8,3.3,19.6,8.6l5.3-14.8c-7.4-6.1-17-9.7-27.4-9.7c-23.6,0.1-42.6,19-42.5,42.3c0,0.7,0,1.5,0.1,2.2
				C31.6,117.5,36.4,126.4,46.6,130.8z"/>
			<path fill="#ED1C24" d="M94.9,123.2c-8.6,15.1-25.9,15.2-28.7,15.2c-19.9,0.1-30.4-11.1-34.9-17.6c5.5,17,21.7,29.3,40.9,29.3
				c11.6,0,22-4.6,29.7-12L94.9,123.2z"/>
		</g>
	</g>
</g>
</svg>
