<?xml version="1.0" encoding="utf-8"?>
<!-- Generator: Adobe Illustrator 18.0.0, SVG Export Plug-In . SVG Version: 6.00 Build 0)  -->
<!DOCTYPE svg PUBLIC "-//W3C//DTD SVG 1.1//EN" "http://www.w3.org/Graphics/SVG/1.1/DTD/svg11.dtd">
<svg version="1.1" id="Layer_1" xmlns="http://www.w3.org/2000/svg" xmlns:xlink="http://www.w3.org/1999/xlink" x="0px" y="0px"
	 viewBox="0 0 360 216" enable-background="new 0 0 360 216" xml:space="preserve">
<rect fill="none" width="360" height="216"/>
<g>
	<path d="M325.7,105.8c-3.1,0-5.9-2.4-5.9-5.9c0-3.4,2.7-5.9,5.9-5.9c3.4,0,6,2.7,5.9,6C331.6,103.2,329.1,105.8,325.7,105.8z
		 M325.7,94.5c-3.1,0-5.4,2.4-5.4,5.4c0,3,2.4,5.4,5.4,5.4c3,0,5.4-2.4,5.4-5.4C331.1,96.9,328.8,94.5,325.7,94.5z M325.6,96.2
		c0.9,0,1.3,0,1.7,0.2c0.7,0.3,1.1,1,1.1,1.7c0,1-0.7,1.6-1.7,1.8c0.8,0.3,1,0.7,1.2,1.6c0.2,1.1,0.2,1.5,0.5,2.1h-1.2
		c-0.2-0.3-0.2-0.7-0.3-1c0-0.2-0.2-1-0.2-1.2c-0.2-1.1-0.8-1.2-1.9-1.2h-0.5v3.4h-1.1v-7.4H325.6z M324.4,99.3h1.2
		c0.5,0,1.7,0,1.7-1.2c0-0.3-0.1-0.6-0.3-0.8c-0.3-0.3-0.7-0.3-1.6-0.3h-1V99.3z"/>
</g>
<g>
	<g>
		<path d="M398.8,57.8h-1v-8.1h-2.9v-0.9h6.8v0.9h-2.9V57.8z"/>
		<path d="M407,57.8l-3.1-8h0c0.1,0.6,0.1,1.4,0.1,2.3v5.7h-1v-9h1.6l2.9,7.4h0l2.9-7.4h1.6v9h-1V52c0-0.7,0-1.4,0.1-2.2h0l-3.1,8
			H407z"/>
	</g>
</g>
<g>
	<g>
		<path fill="#004E9B" d="M45,87.5c15.5,0,21.5,9.8,21.5,20.1c0,15.6-10.3,22.6-22,22.6H30V87.5H45z M41.7,122.2h3
			c6.7,0,9.9-5.9,9.9-14.5c0-7.7-4.4-12.2-9.5-12.2h-3.4V122.2z"/>
		<path fill="#004E9B" d="M70.5,114.6c0-9.9,7.8-15.6,15.9-15.6c8.2,0,16,5.7,16,15.6c0,9.5-6.4,16.4-16,16.4
			C76.9,130.9,70.5,124,70.5,114.6z M81.8,114.6c0,4.8,0.9,10.9,4.7,10.9c3.7,0,4.7-6.1,4.7-10.9c0-4.6-1.1-10.2-4.7-10.2
			C82.8,104.4,81.8,110,81.8,114.6z"/>
		<path fill="#004E9B" d="M118.5,107.6h0.1l0.8-2.4c0.5-1.3,1.7-6.2,5.8-6.2c2.4,0,3.9,1,5.5,2.3l-3.4,8.9c-0.7-0.2-1.4-0.6-3.2-0.6
			c-2.6,0-5.6,1.3-5.6,7.6v13.1h-11.1V99.7h11.1V107.6z"/>
		<path fill="#004E9B" d="M144,103.1h0.1c1.5-2.6,5.5-4.1,9.6-4.1c2.6,0,6.2,0.7,7.7,4.1c1.8-2.3,5.2-4.1,9.3-4.1
			c7.2-0.1,10.6,3.7,10.6,11.7v19.6h-11.1V111c0-2.3-1.3-4.4-3.3-4.4c-3.1,0-4.2,1.8-4.2,5.8v17.8h-11.1V111c0-2-1-4.4-3.3-4.4
			c-3,0-4.2,1.6-4.2,5.7v17.9h-11.1V99.7h11V103.1z"/>
		<path fill="#004E9B" d="M187.6,91.3c0-3.3,2.9-6.3,5.8-6.3c3,0,5.9,2.8,5.9,6.3c0,3.7-2.9,6.4-6,6.4
			C190.5,97.7,187.6,95,187.6,91.3z M199.1,99.7v30.5H188V99.7H199.1z"/>
		<path fill="#004E9B" d="M229.5,128.6c-3,1.7-6.1,2.3-9,2.3c-9.5,0-16.5-6.2-16.5-15.5c0-10.1,7.7-16.5,17.1-16.5
			c2.7,0,6.1,1,8.8,2.7l-2.9,6.2c-1.6-0.7-3.2-1.1-4.7-1.1c-3.7,0-6.7,2.4-6.7,8.3c0,6.2,4.1,8.1,6.5,8.1c1.7,0,3.3-0.5,4.4-1
			L229.5,128.6z"/>
		<path fill="#004E9B" d="M252.5,126h-0.1c-2.3,3.2-5.3,4.9-9.3,4.9c-5.8,0-9.2-3.9-9.2-11.6V99.7h11.1v18.5c0,2,1,4.5,3.5,4.5
			c1.1,0,3.9-0.7,3.9-5.7V99.7h11.1v30.5h-11V126z"/>
		<path fill="#004E9B" d="M281.1,103.1h0.1c1.5-2.6,5.5-4.1,9.6-4.1c2.6,0,6.2,0.7,7.7,4.1c1.8-2.3,5.2-4.1,9.3-4.1
			c7.2-0.1,10.6,3.7,10.6,11.7v19.6h-11.1V111c0-2.3-1.3-4.4-3.3-4.4c-3,0-4.2,1.8-4.2,5.8v17.8h-11.1V111c0-2-1-4.4-3.3-4.4
			c-3,0-4.2,1.6-4.2,5.7v17.9h-11.1V99.7h11V103.1z"/>
	</g>
</g>
</svg>
