<?xml version="1.0" encoding="utf-8"?>
<!-- Generator: Adobe Illustrator 18.0.0, SVG Export Plug-In . SVG Version: 6.00 Build 0)  -->
<!DOCTYPE svg PUBLIC "-//W3C//DTD SVG 1.1//EN" "http://www.w3.org/Graphics/SVG/1.1/DTD/svg11.dtd">
<svg version="1.1" id="Layer_1" xmlns="http://www.w3.org/2000/svg" xmlns:xlink="http://www.w3.org/1999/xlink" x="0px" y="0px"
	 viewBox="0 0 360 216" enable-background="new 0 0 360 216" xml:space="preserve">
<rect fill="none" width="360" height="216"/>
<g>
	<path d="M326.1-111.2c-2.9,0-5.6-2.3-5.6-5.6c0-3.2,2.6-5.6,5.6-5.6c3.3,0,5.7,2.6,5.7,5.7C331.8-113.7,329.3-111.2,326.1-111.2z
		 M326.2-122c-2.9,0-5.2,2.3-5.2,5.1c0,2.9,2.3,5.1,5.1,5.1c2.9,0,5.1-2.3,5.1-5.1C331.3-119.7,329.1-122,326.2-122z M326-120.4
		c0.8,0,1.2,0,1.6,0.2c0.7,0.3,1.1,0.9,1.1,1.6c0,1-0.7,1.6-1.6,1.7c0.8,0.3,1,0.7,1.1,1.6c0.2,1,0.2,1.4,0.5,2h-1.2
		c-0.2-0.3-0.2-0.6-0.3-1c0-0.2-0.1-0.9-0.2-1.1c-0.2-1-0.8-1.2-1.8-1.2h-0.5v3.3h-1v-7H326z M324.9-117.5h1.2c0.4,0,1.6,0,1.6-1.1
		c0-0.3-0.1-0.6-0.3-0.8c-0.3-0.3-0.6-0.3-1.5-0.3h-1V-117.5z"/>
</g>
<g>
	<g>
		<path d="M317.2,99.1h-1.1v-8.5h-3v-1h7.1v1h-3V99.1z"/>
		<path d="M325.8,99.1l-3.2-8.4h-0.1c0.1,0.7,0.1,1.5,0.1,2.4v6.1h-1v-9.5h1.7l3,7.9h0.1l3-7.9h1.7v9.5h-1.1V93c0-0.7,0-1.5,0.1-2.3
			H330l-3.3,8.4H325.8z"/>
	</g>
</g>
<g>
	<g>
		<g>
			<g>
				<g>
					<g>
						<g>
							<path fill-rule="evenodd" clip-rule="evenodd" fill="#5D1E79" d="M208.4,94.1l-6.7,22.4l0.8,0.3l2.3-4.4l-1.3,8.1l0.4,1.3
								l2.5-5.9c-0.8,3.2-0.9,6.6-0.3,10l0.6,0.6c1.4-13,10.2-25.3,17.6-32.8C219.4,93.2,214.1,93.5,208.4,94.1z"/>
							<path fill-rule="evenodd" clip-rule="evenodd" fill="#ED1A3B" d="M185.1,96.3c0.4,15.6,9.5,30.4,20.2,45l0.9-2.3l-1.7-1.8
								l0.2-1.3l-0.9-1.6l1.9-0.1c-0.6-1.2-0.9-2.2-0.6-2.9l-3.3-5l0.5-1.2l3.6,5l0.5-2c-7.9-11.8-11.9-22.5-10.4-32.4
								c0.1-1.6-1.7-2.5-3.6-2.5c-1.9,0-2.8,0.3-4.3,0.5C186.6,94,185.6,94.9,185.1,96.3z"/>
						</g>
					</g>
					<path fill="#5D1E79" d="M179.8,117c0,6.6-2.3,12.2-6.9,16.9c-4.6,4.7-10.2,7-16.8,7c-6.5,0-12-2.3-16.6-7.1
						c-4.6-4.7-6.9-10.3-6.9-16.8c0-6.6,2.3-12.3,6.8-17c4.6-4.7,10.1-7.1,16.7-7.1c6.7,0,12.3,2.3,16.9,7
						C177.5,104.6,179.8,110.3,179.8,117z M172.2,116.9c0-4.5-1.6-8.3-4.7-11.5c-3.1-3.2-6.9-4.8-11.4-4.8c-4.5,0-8.2,1.6-11.3,4.8
						c-3.1,3.2-4.6,7.1-4.6,11.5c0,4.5,1.5,8.4,4.6,11.7c3.1,3.3,6.8,4.9,11.4,4.9c4.5,0,8.2-1.7,11.3-5
						C170.7,125.3,172.3,121.4,172.2,116.9z"/>
					<path fill="#5D1E79" d="M127,121.7c0,5.1-2,9.6-6,13.6c-4,4-8.5,5.9-13.6,5.9c-6,0-11-1.9-15-5.8c-4-3.9-6-8.8-6-14.7l0-27.2
						l7.6,0l0,27.1c0,3.7,1.3,6.8,3.9,9.5c2.6,2.7,5.7,4,9.4,4c3.1,0,5.8-1.2,8.4-3.7c2.5-2.5,3.8-5.2,3.8-8.3l0-28.6l7.6,0
						L127,121.7z"/>
					<path fill="#5D1E79" d="M294.8,129.4c-3.4-15.2-22.6-11.8-22.6-26.2c0-4.7,5-9.2,11.9-9.2c0,0,0.1,0,0.1,0
						c-0.9-0.1-1.8-0.2-2.7-0.2l0,0c-4,0-7.5,1.1-10.2,3.3c-3.1,2.4-4.7,5.7-4.7,9.6c0,2.8,0.9,5.3,2.7,7.2c1.9,2.1,4.5,3.6,7.8,4.7
						c2.4,0.8,4.7,1.5,6.9,2.2c2.9,0.9,4.8,2,5.9,3.3c0.6,0.8,1,1.9,1,3.3c0,2.1-0.8,3.7-2.6,5c-1.7,1.1-3.9,1.7-6.8,1.7
						c-3,0-5.4-0.6-7.1-1.9c-1.3-1-2.1-2.4-2.2-4.2l-0.1-1l-6.6,1.9l0.1,0.7c0.5,3,2,5.5,4.5,7.4c2.9,2.2,6.7,3.3,11.4,3.3h0
						c4.2,0,7.8-1,10.6-2.9c3.6-2.4,5.4-5.8,5.4-10.2c0-2.8-0.9-5.2-2.5-7.2c-2-2.5-5-4.4-9-5.6l-2-0.6
						C289,117.4,294.3,121.2,294.8,129.4z"/>
					<path fill="#5D1E79" d="M276,101.6c1.4-1,3.3-1.5,5.5-1.5c2.8,0,4.9,0.7,6.4,2c1,0.7,1.6,1.7,1.8,3l0.2,0.9l6.1-1.9
						C289.2,93.8,278.1,96.3,276,101.6z"/>
					<g>
						<g>
							<path fill="#FCFADD" d="M275.5,101.9c-1.5,1.2-2.3,2.7-2.3,4.7c0,1.2,0.4,2.3,1.1,3.2c0.8,1,2.4,1.8,4.8,2.6l4.9,1.6
								c-4.4-3-8.4-5.7-8.4-10.7c0-0.6,0.1-1.2,0.4-1.8C275.8,101.7,275.6,101.8,275.5,101.9z"/>
						</g>
						<path fill="#FCFADD" d="M275.5,101.9c0.2-0.1,0.3-0.2,0.5-0.3c2.1-5.3,13.3-7.9,19.9,2.4l0.2,0l-0.2-0.7
							c-0.5-2.2-1.8-4.2-3.6-5.8c-2.2-2-4.9-3.1-8.1-3.6c0,0-0.1,0-0.1,0c-6.9,0-11.9,4.6-11.9,9.2c0,14.4,19.2,11,22.6,26.2
							c-0.4-8.1-5.8-12-10.7-15.3l-4.9-1.6c-2.4-0.7-4-1.6-4.8-2.6c-0.8-1-1.1-2-1.1-3.2C273.2,104.6,274,103.1,275.5,101.9z"/>
					</g>
					<path fill="#F287B7" d="M296.7,103.6c0,0,2.3-7.9,8.7-7.9c6.3,0,6.1,7.2,6.1,8.4c0,10.6-15.2,17-16.7,24.9
						c0-7.6,13.2-14.9,13.2-24.7C308,94.6,299.6,98.3,296.7,103.6z"/>
					<g>
						<path fill="#5D1E79" d="M256.7,130.5c-0.1,4-0.5,6.2-3.8,7.9c-3.3,1.8-8.6,2.4-12.4,2.4c-2.4,0-15.4,0-15.4-12
							c0-10.1,9.9-13,23.9-17.2l0-4.5c0-3.4,0-9.4-6.6-9.4c-5.1,0-6.7,4-7.4,5.7c-0.6,1.7-1.3,3.8-4,3.8c-1.2,0-3.5-0.9-3.5-3.7
							c0-5.3,6.6-10.5,16-10.5c12.9,0,13,9.4,13.1,14.1L256.7,130.5z M249,115.8c-9.6,3.1-15.9,5.1-15.9,11.9c0,0.7,0,8.4,9,8.4
							c6.9,0,7-4.1,7-6.4L249,115.8z"/>
					</g>
					<g>
						<path fill="#5D1E79" d="M77.9,107.7c0,9-3.1,16.7-9.2,22.9C62.6,136.9,55,140,46,140l-17.4,0l0-65.3l14.9,0
							c9.6,0,17.7,3,24.3,9.2C74.5,90.1,77.9,98.1,77.9,107.7z M70.6,108c0-7.2-2.6-13.3-7.8-18.4c-5.2-5.1-11.4-7.6-18.6-7.6
							l-8.3,0l0,51.4l9.6,0c7.1,0,13-2.5,17.8-7.4C68.2,121.1,70.6,115,70.6,108z"/>
					</g>
				</g>
			</g>
		</g>
	</g>
</g>
</svg>
