<?xml version="1.0" encoding="utf-8"?>
<!-- Generator: Adobe Illustrator 18.0.0, SVG Export Plug-In . SVG Version: 6.00 Build 0)  -->
<!DOCTYPE svg PUBLIC "-//W3C//DTD SVG 1.1//EN" "http://www.w3.org/Graphics/SVG/1.1/DTD/svg11.dtd">
<svg version="1.1" id="Layer_1" xmlns="http://www.w3.org/2000/svg" xmlns:xlink="http://www.w3.org/1999/xlink" x="0px" y="0px"
	 viewBox="0 0 360 216" enable-background="new 0 0 360 216" xml:space="preserve">
<rect fill="none" width="360" height="216"/>
<g>
	<path d="M326-142.3c-2.9,0-5.6-2.3-5.6-5.6c0-3.2,2.6-5.6,5.6-5.6c3.3,0,5.7,2.6,5.7,5.7C331.6-144.8,329.2-142.3,326-142.3z
		 M326-153.1c-2.9,0-5.2,2.3-5.2,5.1c0,2.9,2.3,5.1,5.1,5.1c2.9,0,5.1-2.3,5.1-5.1C331.2-150.8,329-153.1,326-153.1z M325.9-151.5
		c0.8,0,1.2,0,1.6,0.2c0.7,0.3,1.1,0.9,1.1,1.6c0,1-0.7,1.6-1.6,1.7c0.8,0.3,1,0.7,1.1,1.6c0.2,1,0.2,1.4,0.5,2h-1.2
		c-0.2-0.3-0.2-0.6-0.3-1c0-0.2-0.1-0.9-0.2-1.1c-0.2-1-0.8-1.2-1.8-1.2h-0.5v3.3h-1v-7H325.9z M324.8-148.6h1.2
		c0.4,0,1.6,0,1.6-1.1c0-0.3-0.1-0.6-0.3-0.8c-0.3-0.3-0.6-0.3-1.5-0.3h-1V-148.6z"/>
</g>
<g>
	<text transform="matrix(1 0 0 1 311.553 95.4719)" font-family="'OpenSans'" font-size="14.5306">TM</text>
</g>
<g>
	<g>
		<g>
			<g>
				<g>
					<g>
						<path fill="#58AB40" d="M77.8,145.1H67.6c-10.8,0-19.9-3.6-27.4-10.7c-7.5-7.2-11.2-16-11.2-26.5c0-17.8,8.2-29.5,24.7-35.3
							c5.3-1.9,10.4-2.8,15.2-2.8h9v11.5c-1,0-2.5,0-4.6,0c-2.1,0-3.7,0-4.7,0c-6.2,0-11.8,1.6-16.7,4.9c-5.2,3.5-8.4,8.2-9.7,14
							h35.7v11.9H42.1c0.8,6.1,3.5,11.2,7.9,15.2c4.4,4,9.7,6.1,15.9,6.1h11.9V145.1z"/>
					</g>
				</g>
				<g>
					<g>
						<path fill="#58AB40" d="M114.1,81c-0.4,0-1.2,0-2.4,0c-1.2,0-2.1,0-2.8,0c-7.5,0-11.2,2.3-11.2,6.8c0,0.5,0,1.3,0,2.4
							c0,1.1,0,1.9,0,2.5h15.2V104H97.6v41.1H85.7V89.3c0-5.6,1.5-10.2,4.5-13.8c3.3-3.8,7.8-5.7,13.4-5.7h10.4V81z"/>
					</g>
				</g>
				<g>
					<g>
						<path fill="#58AB40" d="M168.6,118.4c0,7.4-2.4,13.8-7.3,19.2c-5.1,5.6-11.4,8.4-18.8,8.4c-8.5,0-15.6-2.6-21.1-7.8
							c-5.6-5.2-8.4-11.9-8.4-20.2c0.1-0.1,0.2-0.1,0.3-0.1l-0.1,0.3c0-7.2,2.7-13.4,8.2-18.7c5.4-5.2,11.9-7.9,19.2-7.9
							c7.9,0,14.5,2.5,19.9,7.6C165.9,104.3,168.6,110.7,168.6,118.4z M156.2,117.6c0-4.4-1.4-7.9-4.3-10.6c-2.8-2.7-6.5-4.1-11-4.1
							c-4.4,0-8.1,1.4-11,4.3c-2.9,2.8-4.4,6.5-4.4,10.9c0,5,1.4,9.1,4.1,12.2c2.7,3.1,6.6,4.6,11.7,4.6
							C151.2,134.8,156.2,129.1,156.2,117.6z"/>
					</g>
				</g>
				<g>
					<g>
						<path fill="#58AB40" d="M227.4,119.9c0,7.3-2.7,13.5-8.2,18.6c-5.5,5.1-11.9,7.7-19.3,7.7c-7.7,0-14.1-2.5-19.2-7.4
							c-5.1-4.9-7.7-11.2-7.7-18.7c0-7.3,2.2-13.7,6.5-19.2c4.7-6,10.7-9,17.8-9c7.2,0,12.9,1.3,17.1,4v12.8
							c-5.8-3.8-10.7-5.7-14.9-5.7c-4.4,0-7.9,1.5-10.7,4.6c-2.8,3.1-4.2,6.8-4.2,11.2c0,4.6,1.4,8.5,4.3,11.6
							c2.9,3.1,6.7,4.7,11.4,4.7c5.1,0,9-2,11.7-5.9c2.2-3.4,3.4-7.7,3.4-13V70h11.9V119.9z"/>
					</g>
				</g>
				<g>
					<g>
						<path fill="#58AB40" d="M251.5,145.1h-11.9V92.7h11.9V145.1z"/>
					</g>
				</g>
				<g>
					<g>
						<path fill="#58AB40" d="M318.2,118.4c0,7.4-2.4,13.8-7.3,19.2c-5.1,5.6-11.4,8.4-18.8,8.4c-8.5,0-15.6-2.6-21.2-7.8
							c-5.6-5.2-8.4-11.9-8.4-20.2c0.1-0.1,0.2-0.1,0.3-0.1l-0.1,0.3c0-7.2,2.7-13.4,8.2-18.7c5.4-5.2,11.9-7.9,19.2-7.9
							c7.9,0,14.5,2.5,19.9,7.6C315.5,104.3,318.2,110.7,318.2,118.4z M305.7,117.6c0-4.4-1.4-7.9-4.3-10.6c-2.9-2.7-6.5-4.1-11-4.1
							c-4.4,0-8.1,1.4-11,4.3c-2.9,2.8-4.4,6.5-4.4,10.9c0,5,1.4,9.1,4.1,12.2c2.7,3.1,6.6,4.6,11.7,4.6
							C300.8,134.8,305.7,129.1,305.7,117.6z"/>
					</g>
				</g>
			</g>
		</g>
	</g>
	<g>
		<path fill="#EEF4DE" d="M165.7,119c0,13.8-11.2,24.9-25,24.9c-13.8,0-24.9-11.2-24.9-24.9c0-13.8,11.2-24.9,24.9-24.9
			C154.5,94,165.7,105.2,165.7,119z"/>
		<g>
			<path fill="none" d="M165.7,119c0,13.8-11.2,24.9-25,24.9c-13.8,0-24.9-11.2-24.9-24.9c0-13.8,11.2-24.9,24.9-24.9
				C154.5,94,165.7,105.2,165.7,119z"/>
			<linearGradient id="SVGID_1_" gradientUnits="userSpaceOnUse" x1="115.3701" y1="118.859" x2="166.2351" y2="118.859">
				<stop  offset="2.247200e-02" style="stop-color:#3B9745"/>
				<stop  offset="0.1071" style="stop-color:#5AA348"/>
				<stop  offset="0.2809" style="stop-color:#97CA54"/>
				<stop  offset="0.4494" style="stop-color:#8AC758"/>
				<stop  offset="0.5022" style="stop-color:#9ECE6A"/>
				<stop  offset="0.6134" style="stop-color:#CFE296"/>
				<stop  offset="0.6236" style="stop-color:#D3E49B"/>
				<stop  offset="0.6603" style="stop-color:#AECB81"/>
				<stop  offset="0.7019" style="stop-color:#8DB86B"/>
				<stop  offset="0.7462" style="stop-color:#73AB5A"/>
				<stop  offset="0.7933" style="stop-color:#5EA14F"/>
				<stop  offset="0.8444" style="stop-color:#4C9B48"/>
				<stop  offset="0.9026" style="stop-color:#3F9846"/>
				<stop  offset="0.9831" style="stop-color:#3B9745"/>
			</linearGradient>
			<path fill="url(#SVGID_1_)" d="M165.2,119.1c-0.1,8-3.8,15.4-10.2,20.1c-7.5,5.6-17.7,5.9-25.8,1.5c-6.8-3.7-11.4-10.5-12.6-18
				c-1.3-7.9,1.5-16,7.2-21.6c7.6-7.6,19.3-8.8,28.5-3.8C160.3,101.6,165.1,110.1,165.2,119.1c0,0,1-0.1,1-0.2
				c-0.1-7.8-3.7-15.7-9.9-20.5c-5.8-4.5-13.6-5.8-20.8-4.3c-14.9,3-23.8,18.9-18.8,33.4c4.1,11.9,16.8,18.8,28.9,16.4
				c11.8-2.4,20.5-12.9,20.6-24.9C166.2,118.8,165.2,118.9,165.2,119.1z"/>
		</g>
		<g>
			<path fill="#B2D237" d="M140.8,115.8c0.4-0.1,0.4-0.3,0.5-0.4c0.3-0.6,0.6-1.8,0.9-3.4c0.5-2.4,1-5.6,1.4-8.3
				c0.4-2.7,0.8-5.1,0.9-5.5h0c0-0.2,0.1-0.3,0.1-0.5c0-0.8-0.6-1.5-1.3-1.9c-0.7-0.5-1.7-0.7-2.6-0.7c-1,0-2,0.3-2.7,0.8
				c-0.7,0.5-1.2,1.3-1.2,2.2v0l0,0c0.2,0.7,0.8,5.1,1.5,9.2c0.4,2.1,0.7,4.1,1.1,5.6c0.2,0.7,0.3,1.4,0.5,1.8
				c0.1,0.2,0.2,0.4,0.2,0.6c0.1,0.1,0.1,0.2,0.2,0.2C140.4,115.7,140.6,115.8,140.8,115.8L140.8,115.8
				C140.8,115.8,140.8,115.8,140.8,115.8L140.8,115.8z"/>
			<path fill="#B2D237" d="M128.7,101.5L128.7,101.5c0.5,0.6,2.7,4.2,5,7.7c1.1,1.7,2.3,3.4,3.2,4.7c0.5,0.6,0.9,1.1,1.2,1.5
				c0.2,0.2,0.3,0.3,0.5,0.5c0.2,0.1,0.2,0.2,0.5,0.2h0c0.1,0,0.2,0,0.3,0c0.2-0.1,0.2-0.3,0.3-0.4c0-0.1,0-0.2,0-0.4
				c0-1.4-1-5.2-1.9-8.9c-0.5-1.9-2-7.7-2.1-8l0,0c-0.1-0.6-0.5-1.1-1-1.4c-0.5-0.3-1.1-0.4-1.7-0.4c-0.7,0-1.4,0.2-2.1,0.4
				c-1.5,0.7-2.5,2-2.5,3.3C128.5,100.8,128.5,101.2,128.7,101.5L128.7,101.5z"/>
			<path fill="#B2D237" d="M122.6,108L122.6,108c0.7,0.4,4.1,2.7,7.5,4.8c1.7,1.1,3.4,2.2,4.8,2.9c0.7,0.4,1.3,0.7,1.8,1
				c0.5,0.2,0.8,0.4,1.2,0.4c0.1,0,0.3,0,0.5-0.2l0,0h0c0.1-0.1,0.1-0.3,0.1-0.3c0-0.2-0.1-0.4-0.2-0.5c-0.3-0.7-1-1.7-2-3
				c-1.5-1.9-3.4-4.4-5.1-6.5c-1.7-2.1-3.1-3.8-3.3-4.2c-0.3-0.6-1-0.9-1.7-0.8c-1.1,0-2.4,0.6-3.3,1.6c-0.8,0.8-1.2,1.9-1.2,2.9
				C121.7,106.7,122,107.4,122.6,108L122.6,108z"/>
			<path fill="#B2D237" d="M119.6,116.3L119.6,116.3L119.6,116.3c0.7,0.1,4.1,0.7,7.6,1.2c3.6,0.5,7.4,1,9.1,1c0.3,0,0.5,0,0.7,0
				c0.1,0,0.2,0,0.3-0.1c0.1-0.1,0.3-0.1,0.3-0.4v0v0c0,0,0,0,0-0.1c0-0.3-0.1-0.4-0.3-0.6c-0.5-0.5-1.5-1.1-2.9-1.9
				c-2.1-1.2-5-2.7-7.4-3.9c-2.4-1.2-4.5-2.3-4.9-2.6l0,0c-0.3-0.2-0.6-0.3-1-0.3c-0.7,0-1.4,0.4-1.9,0.9c-0.6,0.6-1,1.3-1.3,2.1
				c-0.2,0.5-0.2,1-0.2,1.5C117.6,114.6,118.3,115.9,119.6,116.3z"/>
			<path fill="#B2D237" d="M120.2,125.2L120.2,125.2L120.2,125.2c0.8-0.2,5-1.3,9-2.5c2-0.6,4-1.2,5.5-1.6c0.7-0.3,1.3-0.5,1.8-0.7
				c0.2-0.1,0.4-0.2,0.6-0.3c0.1-0.1,0.3-0.2,0.4-0.6c0,0,0-0.1,0-0.1c-0.1-0.4-0.3-0.4-0.5-0.5c-0.6-0.3-1.8-0.4-3.4-0.6
				c-2.4-0.2-5.6-0.4-8.4-0.6c-2.7-0.1-5.1-0.3-5.6-0.4l0,0c-0.1,0-0.2,0-0.3,0c-0.8,0-1.4,0.6-1.8,1.2c-0.4,0.7-0.6,1.5-0.6,2.4
				c0,0.2,0,0.3,0,0.5c0.2,1.9,1.5,3.5,3.2,3.5C120.1,125.2,120.2,125.2,120.2,125.2z M119.5,118L119.5,118L119.5,118L119.5,118z"/>
			<path fill="#B2D237" d="M135.9,123.5c0.6-0.5,1.1-1,1.4-1.4c0.2-0.2,0.3-0.4,0.4-0.5c0.1-0.2,0.2-0.3,0.2-0.5
				c0-0.1,0-0.2-0.1-0.3c-0.2-0.3-0.4-0.2-0.6-0.3c-0.6,0-1.8,0.4-3.3,0.9c-2.3,0.8-5.3,1.9-7.9,2.9c-2.6,1-4.8,1.8-5.3,1.9l0,0
				c-0.5,0.1-0.9,0.5-1.1,0.9c-0.3,0.4-0.3,0.9-0.3,1.5c0,0.8,0.2,1.7,0.7,2.5c0.8,1.3,2,2.2,3.3,2.2l0,0c0.4,0,0.9-0.1,1.2-0.3l0,0
				l0,0c0.6-0.5,3.9-3.1,7.1-5.7C133.2,125.9,134.7,124.6,135.9,123.5z"/>
			<path fill="#B2D237" d="M137.9,125.5c0.3-0.7,0.6-1.4,0.8-1.9c0.2-0.5,0.3-0.9,0.3-1.2c0-0.1,0-0.4-0.3-0.5
				c-0.1-0.1-0.2-0.1-0.3-0.1c-0.2,0-0.4,0.1-0.5,0.2c-0.6,0.4-1.6,1.2-2.8,2.3c-1.8,1.6-4,3.9-5.9,5.8c-1.9,1.9-3.5,3.5-3.9,3.8
				c-0.5,0.4-0.7,0.9-0.7,1.5c0,1.2,0.8,2.5,2,3.3c0.8,0.6,1.7,0.9,2.6,0.9l0,0c0.9,0,1.8-0.4,2.3-1.1l0-0.1l0,0
				c0.3-0.7,2.2-4.2,4-7.8C136.4,128.8,137.3,127,137.9,125.5z"/>
			<path fill="#B2D237" d="M140.6,123c0-0.1-0.1-0.2-0.1-0.3c0-0.1-0.1-0.2-0.4-0.3v0c-0.1,0-0.1,0-0.1,0c-0.4,0-0.4,0.2-0.6,0.3
				c-0.4,0.5-0.9,1.6-1.6,3.1c-1,2.2-2.1,5.2-3.1,7.8c-1,2.6-1.8,4.8-2.1,5.2l0.4,0.2l-0.4-0.2c-0.1,0.3-0.2,0.6-0.2,0.8
				c0,0.8,0.4,1.4,1,1.9c0.6,0.5,1.4,0.9,2.3,1.1c0.3,0.1,0.7,0.1,1,0.1l0,0c1.6,0,3.1-0.8,3.4-2.3v0v0c0-1.1,0.6-9.5,0.6-14.3
				c0-1,0-1.8-0.1-2.4C140.7,123.5,140.6,123.2,140.6,123z"/>
			<path fill="#ABD039" d="M148.9,138.9L148.9,138.9c-0.3-0.7-1.8-4.8-3.4-8.7c-0.8-1.9-1.6-3.8-2.2-5.2c-0.3-0.7-0.6-1.3-0.9-1.7
				c-0.1-0.2-0.2-0.4-0.4-0.5c-0.1-0.1-0.2-0.3-0.6-0.3c-0.1,0-0.1,0-0.2,0c-0.2,0.1-0.3,0.2-0.3,0.3c-0.2,0.3-0.2,0.6-0.2,1.2
				c0,0.5-0.1,1.2-0.1,1.9c0,4.4,0.6,12.3,0.6,14.3c0,0.1,0,0.3,0,0.3c0,0.1,0,0.1,0,0.1c0,0.8,0.5,1.4,1.1,1.7
				c0.6,0.4,1.4,0.5,2.2,0.5c0.3,0,0.7,0,1.1-0.1c1.8-0.4,3.2-1.7,3.2-3.2C149,139.3,149,139.1,148.9,138.9L148.9,138.9z
				 M141.8,140.5L141.8,140.5L141.8,140.5L141.8,140.5z"/>
			<path fill="#B2D237" d="M156.3,133.9L156.3,133.9c-0.6-0.5-3.5-3.5-6.5-6.4c-1.5-1.4-2.9-2.8-4.1-3.9c-0.6-0.5-1.1-1-1.5-1.3
				c-0.2-0.1-0.4-0.3-0.6-0.4c-0.2-0.1-0.3-0.2-0.5-0.2c-0.1,0-0.2,0-0.4,0.1c-0.2,0.2-0.2,0.4-0.2,0.5c0,0.4,0.1,0.7,0.3,1.3
				c0.7,1.8,2.3,5.2,3.9,8.2c0.8,1.5,1.5,3,2.1,4.2c0.6,1.1,1,2,1.1,2.3l0,0c0.3,0.9,1.2,1.3,2.1,1.3c0,0,0,0,0,0c1,0,2-0.4,2.8-1
				c1.2-0.8,1.8-2.1,1.8-3.2C156.8,134.9,156.6,134.4,156.3,133.9L156.3,133.9z"/>
			<path fill="#B2D237" d="M161,126.3L161,126.3L161,126.3c-0.8-0.3-4.4-1.7-8.1-3.1c-1.9-0.7-3.7-1.4-5.3-1.9
				c-1.5-0.5-2.7-0.8-3.3-0.9c-0.1,0-0.2,0-0.3,0c-0.1,0-0.3,0.1-0.3,0.3l0,0c-0.1,0.1-0.1,0.2-0.1,0.3c0,0.3,0.1,0.4,0.2,0.5
				c0.4,0.6,1.3,1.4,2.5,2.5c1.8,1.6,4.3,3.6,6.4,5.3c2.1,1.7,3.9,3.1,4.2,3.5l0,0c0.3,0.4,0.8,0.5,1.3,0.5c0,0,0,0,0,0
				c1.3,0,2.6-1,3.3-2.3c0.4-0.7,0.7-1.5,0.7-2.3C162.3,127.8,161.8,126.9,161,126.3z M157.3,132.7L157.3,132.7L157.3,132.7
				L157.3,132.7z"/>
			<path fill="#B2D237" d="M162.1,117.5L162.1,117.5L162.1,117.5c-0.9,0.1-5.3,0.3-9.4,0.5c-2.1,0.1-4.1,0.3-5.7,0.5
				c-0.8,0.1-1.4,0.2-1.9,0.3c-0.2,0.1-0.4,0.1-0.6,0.2c-0.1,0-0.2,0.1-0.3,0.1c-0.1,0.1-0.2,0.2-0.2,0.3c0,0,0,0.1,0,0.1v0l0,0v0
				l0,0v0l0,0c0,0.4,0.2,0.4,0.4,0.6c0.6,0.4,1.7,0.8,3.2,1.3c2.3,0.7,5.4,1.6,8.1,2.3c2.7,0.7,4.9,1.3,5.4,1.5
				c0.2,0.1,0.4,0.2,0.7,0.2c0.8,0,1.4-0.5,1.9-1.2c0.5-0.7,0.8-1.6,0.9-2.5c0-0.2,0-0.4,0-0.5C164.8,119.3,163.7,117.7,162.1,117.5
				z"/>
			<path fill="#B2D237" d="M159.6,109L159.6,109c-0.7,0.4-4.6,2.3-8.2,4.2c-1.8,1-3.6,1.9-5,2.7c-0.7,0.4-1.2,0.8-1.6,1
				c-0.2,0.1-0.4,0.3-0.5,0.4c-0.1,0.1-0.3,0.2-0.3,0.6c0,0.1,0,0.1,0,0.2c0.1,0.2,0.2,0.3,0.3,0.3c0.3,0.1,0.6,0.1,0.9,0.1
				c1.7,0,5.5-0.5,9.1-1.1c3.5-0.5,6.9-1.1,7.5-1.1l0,0c0.7,0,1.3-0.4,1.6-1c0.3-0.6,0.5-1.3,0.5-2c0-0.5-0.1-1.1-0.3-1.6
				c-0.5-1.7-1.9-2.9-3.3-2.9C160.1,108.9,159.9,108.9,159.6,109L159.6,109z"/>
			<path fill="#B2D237" d="M144.7,113.7c-0.5,0.6-0.8,1.2-1.1,1.7c-0.1,0.2-0.2,0.4-0.3,0.6c-0.1,0.2-0.1,0.3-0.1,0.5
				c0,0.1,0,0.3,0.2,0.4c0.1,0.1,0.3,0.1,0.4,0.2c0.4,0,0.7-0.2,1.2-0.4c1.7-0.8,4.9-2.8,7.8-4.7c1.5-0.9,2.9-1.9,4-2.6
				c1.1-0.7,1.9-1.2,2.2-1.3c0.7-0.3,1-1.1,1-1.9c0-1-0.5-2.2-1.3-3.1c-0.9-1-2-1.5-3.1-1.5c-0.6,0-1.2,0.2-1.7,0.6l0,0l0,0
				c-0.4,0.6-3.1,3.8-5.6,7C146.9,110.9,145.7,112.5,144.7,113.7z"/>
			<path fill="#B2D237" d="M141.8,115.3c0,0.1,0,0.2,0,0.4c0,0.1,0.1,0.3,0.4,0.4h0v0c0,0,0.1,0,0.2,0c0.3,0,0.4-0.1,0.6-0.3
				c0.5-0.4,1.3-1.4,2.2-2.8c1.4-2,3.1-4.7,4.6-6.9c1.5-2.3,2.7-4.2,3-4.6l0,0c0.3-0.3,0.4-0.8,0.4-1.2c0-1.3-1.2-2.6-2.7-3.3
				c-0.6-0.3-1.3-0.4-1.9-0.4c-1.2,0-2.4,0.5-2.8,1.6l0,0v0c-0.2,0.7-1.2,4.3-2.1,8C142.7,110.2,141.8,113.9,141.8,115.3z"/>
		</g>
		<path fill="#92C740" d="M146.4,119.5c0.7,0,14.3-0.6,15-0.5c0.8,0.1,1.5,0.8,1.5,0.8s-0.9,0.1-1.3,0c-0.3-0.1-12.9-0.1-12.9-0.1
			l13.9,2.1l-16.4-2L146.4,119.5z"/>
		<path fill="#92C740" d="M146.1,117.4c0,0,14.5-7.2,14.7-6.7C161,111.1,147,117.3,146.1,117.4z"/>
		<path fill="#92C740" d="M149.5,98.6l-6.2,15c0,0,5.6-14.9,5.8-15.2c0.2-0.3-1.1,0-1.1,0l-5.2,16l0.8-0.5l6.2-14.8L149.5,98.6z"/>
		<path fill="#92C740" d="M134.9,117l-13.9-6.5c0,0,12.2,6.4,13.2,6.6c0.9,0.2-11.1-4.1-11.1-4.1l-1,0.4l3.5,1.6l-2.8,0.2l11.3,2.2
			l2,0.3L134.9,117z"/>
		<path fill="#92C740" d="M129.5,138c0,0,7.6-13.7,8-14.1h-0.4l-11.1,11c0,0-0.1,0.4,0.4-0.1c0.5-0.5,10-9.6,10-9.6
			S130.6,134.7,129.5,138z"/>
		<path fill="#92C740" d="M128.5,135.3l5.1-6.5C133.5,128.8,129.8,134.5,128.5,135.3z"/>
		<path fill="#92C740" d="M131.2,99c0,0,7.8,14.1,7.9,15.6c0,0-7.3-11.2-8.7-13.1l5.1,6.8L131.2,99z"/>
		<path fill="#92C740" d="M144.1,124c0,0,10.8,10.6,10.9,11.2c0,0-1,2.1-0.9,1.7C154.2,136.5,144.1,124,144.1,124z"/>
		<path fill="#C1D82F" d="M129.8,138.2l8.2-14.8h-0.6c0,0,0.3-0.4,0.6-0.7c0.3-0.3,0.3-0.3,0.3-0.3v0.4h0.4l-7.4,15.4
			c0,0-0.4-0.2-0.1-0.7c0.3-0.5,3.8-7.9,3.8-7.9l-4.8,8.6C130.1,138.3,129.8,138.4,129.8,138.2z"/>
		<polygon fill="#C1D82F" points="133.1,139.9 139.7,123.1 134.3,140.1 135.9,134 		"/>
		<polygon fill="#C1D82F" points="140,123.1 136.1,141.5 139.4,127.2 139.1,131.9 		"/>
		<polygon fill="#C1D82F" points="139.7,140 140.4,124.2 140.2,124.6 139.1,141.2 		"/>
		<path fill="#C1D82F" d="M141.9,123.2c0,0,7.1,15.4,6.8,16c-0.2,0.5-0.5,1.1-0.5,1.1s-0.3-0.4-0.3-0.7c0-0.2-0.2,0.3-0.4,0.4
			c-0.3,0.2-0.1,0.7-0.6-0.2c-0.5-0.9-1.2-5.9-1.2-5.9l0.7,5.8l-4.7-16.3C141.6,123.4,141.4,123.4,141.9,123.2z"/>
		<path fill="#C1D82F" d="M145,138.9l-3.3-14.4l2.4,14.6C144.2,139.1,145,139.9,145,138.9z"/>
		<polygon fill="#C1D82F" points="143.6,124 147.2,131.1 145,125.6 		"/>
		<path fill="#C1D82F" d="M144.9,121.7c0,0,12.4,10.9,12.8,11.1c0.4,0.1,1.1,0.4,0.9-0.1c-0.2-0.4-2-1.6-2-1.6l2.5,0.8l-10.8-8.1
			c0,0,10.5,7.4,11,7.4c0.5,0,0.5-0.2,0.5-0.4c-0.1-0.2-13.7-8.9-13.7-8.9l0.7,0.7L144.9,121.7z"/>
		<path fill="#C1D82F" d="M160.6,126.8l-6.5-2.7C154.1,124.2,156.6,126,160.6,126.8z"/>
		<path fill="#C1D82F" d="M145.4,120.1l16.9,4.3v-0.4l-9.3-2.4l9.3,1.4c0,0-9-1.8-9.7-1.9C151.9,121,145.4,120.1,145.4,120.1z"/>
		<path fill="#C1D82F" d="M145.4,118.1l16.8-2.3c0,0,1-1.1,0.8-1.5c-0.1-0.5,0.2-0.4,0.2-0.6c0-0.2,0.1-0.6-0.2-0.6
			C162.7,113,145.4,118.1,145.4,118.1z"/>
		<path fill="#C1D82F" d="M148.5,116.6c0.2-0.1,13.7-3.8,13.7-3.8v-0.7C162.3,112.1,148.3,116.7,148.5,116.6z"/>
		<path fill="#C1D82F" d="M144.1,116.3c0,0,14.4-8.8,14.6-9.1c0.2-0.3-0.2-0.4-0.2-0.4S144.5,115.9,144.1,116.3z"/>
		<path fill="#C1D82F" d="M144.7,115c0,0,9.9-13.1,10.3-13.1c0.4,0,0.4,0,0.4,0S145.4,114.5,144.7,115z"/>
		<path fill="#C1D82F" d="M140.7,114.8c0,0-2.1-16.8-1.8-17.3c0.4-0.4,0.8-0.9,0.8-0.9s0.1,0.5,0.1,0.7c-0.1,0.2,0.2-0.3,0.6-0.3
			c0.3,0,0.3-0.6,0.5,0.4c0.2,1,0.2,3.7,0.2,3.7l0.3-3.4l-0.4,17C141,114.7,141.2,114.8,140.7,114.8z"/>
		<path fill="#C1D82F" d="M142.3,98.8l-1.1,14.7l2-14.6C143.2,98.9,142.7,97.9,142.3,98.8z"/>
		<path fill="#C1D82F" d="M136.6,120.1c0,0-16.2,4.9-16.7,4.6c-0.5-0.3-1-0.7-1-0.7s0.5-0.2,0.7-0.2c0.2,0-0.3-0.2-0.4-0.5
			c-0.1-0.3-0.7-0.2,0.3-0.6c0.9-0.4,3.6-0.8,3.6-0.8l-3.4,0.3l16.8-2.4C136.5,119.8,136.5,119.5,136.6,120.1z"/>
		<path fill="#C1D82F" d="M120.6,121.1l14.7-1.3l-14.7,0.4C120.5,120.2,119.6,120.9,120.6,121.1z"/>
		<path fill="#92C740" d="M136.2,122.3c-0.5,0.4-11.2,8.9-11.8,9.3c-0.7,0.4-1.7,0.2-1.7,0.2s0.7-0.6,1-0.7
			c0.3-0.1,10.5-7.6,10.5-7.6l-12.5,6.5l14.4-8.1L136.2,122.3z"/>
		<path fill="#C1D82F" d="M136.7,121.2l-16.1,6.5l0.3,0.4l9-3.6l-8.3,4.4c0,0,8.3-3.9,8.9-4.2C130.9,124.2,136.7,121.2,136.7,121.2z
			"/>
	</g>
	<path fill="#58AB40" d="M251.2,82.5c0-1.7-0.5-3-1.6-4c-1.1-1-2.5-1.6-4.2-1.6c-1.7,0-3.1,0.5-4.2,1.6c-1.1,1.1-1.7,2.5-1.7,4.1
		c0,1.9,0.5,3.5,1.6,4.6c1,1.2,2.5,1.8,4.4,1.8C249.3,89,251.2,86.8,251.2,82.5z"/>
</g>
</svg>
