<?xml version="1.0" encoding="utf-8"?>
<!-- Generator: Adobe Illustrator 18.0.0, SVG Export Plug-In . SVG Version: 6.00 Build 0)  -->
<!DOCTYPE svg PUBLIC "-//W3C//DTD SVG 1.1//EN" "http://www.w3.org/Graphics/SVG/1.1/DTD/svg11.dtd">
<svg version="1.1" id="Layer_1" xmlns="http://www.w3.org/2000/svg" xmlns:xlink="http://www.w3.org/1999/xlink" x="0px" y="0px"
	 viewBox="0 0 360 216" enable-background="new 0 0 360 216" xml:space="preserve">
<rect fill="none" width="360" height="216"/>
<g>
	<path d="M212.4,102.5c-2.3,0-4.5-1.8-4.5-4.5c0-2.6,2.1-4.5,4.5-4.5c2.6,0,4.5,2.1,4.5,4.5C216.9,100.5,214.9,102.5,212.4,102.5z
		 M212.4,94c-2.3,0-4.1,1.8-4.1,4.1c0,2.3,1.8,4.1,4.1,4.1c2.3,0,4.1-1.8,4.1-4.1C216.5,95.8,214.8,94,212.4,94z M212.3,95.2
		c0.7,0,1,0,1.3,0.1c0.6,0.2,0.9,0.7,0.9,1.3c0,0.8-0.6,1.2-1.3,1.3c0.6,0.2,0.8,0.6,0.9,1.2c0.1,0.8,0.2,1.1,0.4,1.6h-0.9
		c-0.1-0.3-0.2-0.5-0.2-0.8c0-0.1-0.1-0.8-0.1-0.9c-0.2-0.8-0.6-0.9-1.4-0.9h-0.4v2.6h-0.8v-5.6H212.3z M211.4,97.6h0.9
		c0.4,0,1.3,0,1.3-0.9c0-0.3-0.1-0.5-0.3-0.6c-0.2-0.2-0.5-0.2-1.2-0.2h-0.8V97.6z"/>
</g>
<g>
	<g>
		<path d="M317.2-218.2h-1.1v-8.5h-3v-1h7.1v1h-3V-218.2z"/>
		<path d="M325.8-218.2l-3.2-8.4h-0.1c0.1,0.7,0.1,1.5,0.1,2.4v6.1h-1v-9.5h1.7l3,7.9h0.1l3-7.9h1.7v9.5h-1.1v-6.1
			c0-0.7,0-1.5,0.1-2.3H330l-3.3,8.4H325.8z"/>
	</g>
</g>
<g>
	<g>
		<polygon fill="#2E3192" points="73,97.4 77.8,104.3 78.2,104.3 83.3,97.4 95.3,97.4 85.2,109.5 96.4,123.5 84.3,123.5 78.3,117.2 
			77.8,117.2 71.7,123.5 60,123.5 70.8,110 60.4,97.4 		"/>
		<rect x="99.3" y="97.4" fill="#2E3192" width="9.4" height="26.1"/>
		<path fill="#2E3192" d="M138.9,123.5v-3.9h-0.5c-1.4,3.3-4.4,4.6-10.7,4.6c-5.9,0-8.9-0.9-11.2-3.3c-2.3-2.4-2.8-4.4-2.8-11.5
			V97.4h9.4v11.9c0,3.8,0.3,5,1.3,6c1.1,1.1,2.6,1.4,6.1,1.4c3.4,0,5.1-0.4,6.2-1.4c1.3-1.2,1.6-2.6,1.6-7.4V97.4h9.4v26.1H138.9z"
			/>
		<path fill="#2E3192" d="M161.7,97.4v3.9h0.5c1.4-3.1,4.6-4.6,10.2-4.6c6.1,0,9.4,1.6,11.4,5.5c1.6-3.9,4.7-5.5,10.9-5.5
			c5.2,0,8.3,1,10.5,3.4c2.2,2.3,2.7,4.5,2.7,11.2v12.2h-9.4v-12.2c-0.1-4.4-0.2-4.9-1.1-5.8c-1-1-2.5-1.4-5.3-1.4
			c-2.8,0-4.6,0.5-5.6,1.7c-1.1,1.2-1.4,2.8-1.4,7v10.8h-9.4v-12.2c0-4.1-0.1-4.8-1-5.8c-0.8-1-2.5-1.4-5.2-1.4
			c-2.8,0-4.7,0.5-5.8,1.6c-1.1,1.1-1.4,2.8-1.4,7.1v10.8h-9.4V97.4H161.7z"/>
		<path fill="#2E3192" d="M103.1,94.8c0,0,1.1-2.2-2.6-6.3c-3-3.4,1.7-12.8,2.4-14.6c5,6,7.5,9.9,5.5,14.9
			C106.4,93.8,103.1,94.8,103.1,94.8L103.1,94.8z"/>
		<path fill="#FFD100" d="M104.2,91.9c0,0,0.5-3.2-0.9-5.2c-2.8-4-0.5-7.7-0.2-8.9c2,3.9,4.2,5.8,3.4,9.1c-0.8,3.3-2.1,4.8-2.1,4.8"
			/>
		<g>
			<polygon fill="#FFD100" points="86.8,115.1 86.8,114.4 86.6,113.8 86.4,113.3 86.1,112.8 85.9,112.5 85.6,112.2 85.2,112 
				84.9,111.8 84.5,111.7 84.1,111.7 83.8,111.7 83.4,111.7 83.2,111.8 82.9,111.9 82.7,112 82.6,112.1 82.5,112.2 82.4,112.3 
				82.3,112.4 82.3,112.5 82.2,112.6 82.2,112.6 82.1,112.7 82,112.7 82,112.7 81.9,112.6 81.8,112.6 81.7,112.6 81.6,112.6 
				81.5,112.6 81.3,112.6 81.2,112.6 81.1,112.6 80.9,112.6 80.8,112.6 80.6,112.5 80.5,112.5 80.3,112.4 80.1,112.3 79.9,112.1 
				79.7,111.9 79.5,111.7 79.3,111.5 79.2,111.3 79.1,111 79,110.8 79,110.5 78.9,110.3 78.9,110 78.8,109.5 78.7,109 78.6,108.3 
				78.5,107.4 78.4,106.7 78.4,106.1 78.6,105.8 78.7,105.4 78.9,104.9 79,104.3 79.1,103.6 79.2,103.1 79.2,103 78.2,104.3 
				77.8,104.3 77.4,103.7 77.3,103.8 77,104.3 76.8,104.5 76.7,104.6 76.5,104.6 76.3,104.6 76.2,104.5 76,104.3 75.7,104.1 
				75.4,104 75.2,103.9 75,103.8 74.7,103.8 74.5,103.8 74.2,103.8 73.9,103.9 73.7,104 73.4,104.1 73.2,104.3 73,104.5 72.7,104.6 
				72.5,104.8 72.4,105 72.2,105.3 72.1,105.5 72,105.7 71.8,106.2 71.8,106.9 71.8,107.7 71.8,108.5 71.9,109.4 72.1,110.2 
				72.4,111 72.7,111.7 73.1,112.3 73.4,112.8 73.8,113.2 74.1,113.6 74.5,114 74.9,114.4 75.3,114.9 75.8,115.5 76,115.8 
				76.3,116.1 76.6,116.3 76.9,116.5 77.2,116.6 77.5,116.8 77.9,116.8 78.2,116.9 78.5,117 78.8,117 79.1,117 79.4,117 79.6,117 
				79.9,117 80.1,117 80.3,116.9 80.6,116.8 80.8,116.7 81.1,116.6 81.4,116.4 81.6,116.3 81.8,116.1 82,116 82.1,115.9 82.2,115.7 
				82.4,115.5 82.5,115.3 82.6,115 82.7,114.8 82.8,114.5 82.9,114.3 82.8,114.1 82.9,114.1 83,114.2 83.1,114.2 83.2,114.2 
				83.3,114.2 83.4,114.2 83.5,114.1 83.7,114.1 83.9,114 84.2,114 84.4,114.2 84.5,114.3 84.7,114.6 84.8,114.9 84.9,115.2 
				84.9,115.5 85,116.2 85.9,123.5 87.7,123.5 			"/>
		</g>
		<g>
			<path fill="#2E3192" d="M40.5,104.6h8.8c2,0,2.8-0.1,4.1-0.7v6.7c-0.7-0.6-1.8-0.8-3.3-0.8h-9.6v8.2h10.7c1.1,0,2-0.2,4.1-1.1
				l-1,6.2H28.4c0.8-1.3,1.2-2.7,1.2-4.6V96.5c0-1.9-0.4-3.4-1.2-4.6h25.3l0.8,5.8c-1.7-0.7-2.1-0.7-5-0.7h-9V104.6z"/>
		</g>
	</g>
	<g>
		<path fill="#F26524" stroke="#F26524" stroke-width="0.9804" stroke-miterlimit="10" d="M238.7,95.3c-0.1,2.3-0.1,4.3-0.2,6.2
			c0,0.8,0,1.6-0.1,2.4c0,0.8,0,1.5-0.1,2.2c0,0.7,0,1.2,0,1.7c0,0.5,0,0.8,0,1c0,0.5,0,1.1-0.1,1.8c0,0.7-0.1,1.3-0.1,1.9
			c0,0.7-0.1,1.4-0.1,2.2h0.1c0.3-0.7,0.6-1.5,0.9-2.2c0.3-0.6,0.6-1.3,0.9-1.9c0.3-0.7,0.6-1.3,0.9-1.8c0.1-0.2,0.3-0.5,0.5-1
			c0.2-0.5,0.5-1.1,0.8-1.7c0.3-0.7,0.7-1.4,1-2.2c0.4-0.8,0.8-1.6,1.1-2.4c0.9-1.9,1.9-3.9,3-6.2h10l-5.5,27.3h-6.7l4.2-20.7H249
			l-10.3,20.7h-5.5l0.3-20.7h-0.1l-6.4,20.7h-6.7l8.4-27.3H238.7z"/>
		<path fill="#F26524" stroke="#F26524" stroke-width="0.9804" stroke-miterlimit="10" d="M280.3,111.3c-1,4-2.7,6.9-5,8.9
			c-2.3,2-5.4,3-9.4,3c-3.9,0-6.6-1-7.9-3c-1.3-2-1.5-4.9-0.5-8.9l4.1-16h6.8l-4.2,16.5c-0.2,0.9-0.3,1.7-0.4,2.4
			c0,0.7,0.1,1.4,0.3,1.9c0.2,0.5,0.6,1,1.1,1.3c0.5,0.3,1.2,0.5,2,0.5c1.7,0,3-0.6,4-1.7c1-1.1,1.7-2.6,2.1-4.4l4.2-16.5h6.8
			L280.3,111.3z"/>
		<path fill="#F26524" stroke="#F26524" stroke-width="0.9804" stroke-miterlimit="10" d="M288.2,122.6h-6.7l6.7-26.5
			c1.1-0.3,2.2-0.5,3.2-0.7c1-0.2,2.2-0.3,3.5-0.5c1.4-0.2,2.9-0.2,4.5-0.2c1.7,0,3.2,0.2,4.5,0.6c1.3,0.4,2.3,1,3,1.8
			c0.8,0.8,1.3,1.7,1.5,2.9c0.2,1.1,0.2,2.4-0.2,3.7c-0.5,1.8-1.1,3.3-2,4.4c-0.9,1.2-1.8,2.1-2.9,2.8c-1.1,0.7-2.3,1.2-3.5,1.4
			c-1.3,0.3-2.5,0.4-3.8,0.4c-0.3,0-0.7,0-1.3,0c-0.6,0-1.2,0-1.8,0c-0.6,0-1.1,0-1.5,0c-0.4,0-0.7,0-0.7,0L288.2,122.6z
			 M301.7,103.9c0.3-1.4,0.2-2.5-0.5-3.2c-0.7-0.7-1.9-1.1-3.5-1.1c-0.5,0-1,0-1.4,0.1c-0.4,0.1-0.8,0.1-1.2,0.2
			c-0.4,0.1-0.8,0.2-1.1,0.2l-1.9,7.5h3.4c0.8,0,1.6-0.1,2.3-0.2c0.7-0.1,1.3-0.3,1.8-0.6c0.5-0.3,0.9-0.6,1.3-1.1
			C301.2,105.2,301.5,104.6,301.7,103.9z"/>
		<path fill="#F26524" stroke="#F26524" stroke-width="0.9804" stroke-miterlimit="10" d="M309.9,102.7c0.4-1.5,1-2.7,2-3.7
			c1-1,2-1.8,3.3-2.5c1.2-0.6,2.5-1.1,3.8-1.4c1.3-0.3,2.6-0.4,3.7-0.4c2,0,3.8,0.1,5.3,0.4c1.6,0.3,2.8,0.6,3.7,0.9
			c-0.1,0.6-0.3,1.2-0.4,1.7c-0.1,0.5-0.3,1-0.4,1.5c-0.1,0.5-0.3,1.1-0.4,1.5c-0.1,0.5-0.3,1-0.4,1.6c-0.3-0.3-0.8-0.6-1.4-0.9
			c-0.6-0.3-1.3-0.6-2-0.8c-0.7-0.2-1.5-0.4-2.3-0.6c-0.8-0.1-1.5-0.2-2.2-0.2c-0.4,0-0.9,0-1.4,0c-0.5,0-1.1,0.1-1.6,0.2
			c-0.5,0.1-1,0.4-1.5,0.7c-0.4,0.3-0.7,0.8-0.9,1.4c-0.1,0.5-0.1,1,0.3,1.4c0.3,0.4,0.8,0.7,1.4,1c0.6,0.3,1.3,0.6,2.1,0.9
			c0.8,0.3,1.6,0.6,2.4,1c0.8,0.3,1.6,0.7,2.4,1.2c0.8,0.5,1.4,1,1.9,1.6c0.5,0.6,0.9,1.4,1.1,2.2c0.2,0.9,0.1,1.9-0.1,3.1
			c-0.4,1.5-1,2.8-1.9,3.9c-0.9,1.1-1.9,2-3.1,2.7c-1.2,0.7-2.6,1.2-4.1,1.5c-1.5,0.3-3.1,0.5-4.8,0.5c-1.6,0-2.9-0.1-4.1-0.2
			c-1.2-0.2-2.1-0.3-2.9-0.5c-0.8-0.2-1.3-0.4-1.7-0.5c-0.4-0.2-0.6-0.2-0.6-0.2c0.1-0.4,0.2-0.7,0.3-1c0.1-0.3,0.2-0.7,0.3-1.1
			c0.1-0.4,0.2-0.8,0.3-1.2c0.3-1,0.5-2.1,0.8-3.3c0.4,0.2,0.9,0.5,1.5,0.8c0.6,0.3,1.3,0.7,2.1,1c0.7,0.3,1.5,0.6,2.3,0.8
			c0.8,0.2,1.6,0.3,2.4,0.3c0.4,0,0.9,0,1.5-0.1c0.6,0,1.3-0.1,1.9-0.3c0.6-0.2,1.2-0.5,1.8-0.8c0.5-0.4,0.9-0.9,1.1-1.6
			c0.2-0.7-0.1-1.2-0.7-1.6c-0.6-0.4-1.4-0.8-2.4-1.2c-1-0.4-2-0.8-3.2-1.3c-1.1-0.5-2.2-1-3.1-1.7c-0.9-0.7-1.6-1.6-2-2.6
			C309.5,105.6,309.5,104.3,309.9,102.7z"/>
	</g>
</g>
</svg>
