<?xml version="1.0" encoding="utf-8"?>
<!-- Generator: Adobe Illustrator 18.0.0, SVG Export Plug-In . SVG Version: 6.00 Build 0)  -->
<!DOCTYPE svg PUBLIC "-//W3C//DTD SVG 1.1//EN" "http://www.w3.org/Graphics/SVG/1.1/DTD/svg11.dtd">
<svg version="1.1" id="Layer_1" xmlns="http://www.w3.org/2000/svg" xmlns:xlink="http://www.w3.org/1999/xlink" x="0px" y="0px"
	 viewBox="0 0 360 216" enable-background="new 0 0 360 216" xml:space="preserve">
<rect fill="none" width="360" height="216"/>
<g>
	<path d="M326.1,108.5c-2.9,0-5.6-2.3-5.6-5.6c0-3.2,2.6-5.6,5.6-5.6c3.3,0,5.7,2.6,5.7,5.7C331.8,106,329.3,108.5,326.1,108.5z
		 M326.2,97.7c-2.9,0-5.2,2.3-5.2,5.1c0,2.9,2.3,5.1,5.1,5.1c2.9,0,5.1-2.3,5.1-5.1C331.3,100.1,329.1,97.7,326.2,97.7z M326,99.3
		c0.8,0,1.2,0,1.6,0.2c0.7,0.3,1.1,0.9,1.1,1.6c0,1-0.7,1.6-1.6,1.7c0.8,0.3,1,0.7,1.1,1.6c0.2,1,0.2,1.4,0.5,2h-1.2
		c-0.2-0.3-0.2-0.6-0.3-1c0-0.2-0.1-0.9-0.2-1.1c-0.2-1-0.8-1.2-1.8-1.2h-0.5v3.3h-1v-7H326z M324.9,102.3h1.2c0.4,0,1.6,0,1.6-1.1
		c0-0.3-0.1-0.6-0.3-0.8c-0.3-0.3-0.6-0.3-1.5-0.3h-1V102.3z"/>
</g>
<g>
	<g>
		<path d="M317.2-218.2h-1.1v-8.5h-3v-1h7.1v1h-3V-218.2z"/>
		<path d="M325.8-218.2l-3.2-8.4h-0.1c0.1,0.7,0.1,1.5,0.1,2.4v6.1h-1v-9.5h1.7l3,7.9h0.1l3-7.9h1.7v9.5h-1.1v-6.1
			c0-0.7,0-1.5,0.1-2.3H330l-3.3,8.4H325.8z"/>
	</g>
</g>
<g>
	<g>
		<polygon fill="#2E3192" points="101,102 108.7,113.3 109.4,113.3 117.6,102 137.3,102 120.9,121.6 139,144.5 119.4,144.5 
			109.6,134.3 108.8,134.3 98.8,144.5 79.8,144.5 97.4,122.6 80.4,102 		"/>
		<rect x="143.8" y="102" fill="#2E3192" width="15.3" height="42.5"/>
		<path fill="#2E3192" d="M208.2,144.5v-6.4h-0.8c-2.3,5.4-7.2,7.5-17.5,7.5c-9.5,0-14.6-1.5-18.3-5.4c-3.7-4-4.5-7.2-4.5-18.8V102
			h15.3v19.4c0,6.2,0.4,8.2,2.1,9.8c1.8,1.8,4.2,2.3,10,2.3c5.5,0,8.2-0.6,10.2-2.3c2.2-2,2.7-4.2,2.7-12.1V102h15.3v42.5H208.2z"/>
		<path fill="#2E3192" d="M245.3,102v6.4h0.8c2.3-5.1,7.4-7.5,16.6-7.5c9.9,0,15.3,2.6,18.6,8.9c2.6-6.4,7.6-8.9,17.7-8.9
			c8.5,0,13.5,1.6,17.1,5.5c3.5,3.8,4.3,7.3,4.3,18.3v19.9H305v-19.9c-0.1-7.1-0.3-7.9-1.7-9.4c-1.6-1.6-4.1-2.3-8.7-2.3
			c-4.6,0-7.5,0.8-9.1,2.7c-1.7,2-2.3,4.5-2.3,11.4v17.5h-15.3v-19.9c0-6.7-0.2-7.8-1.7-9.4c-1.4-1.6-4.1-2.3-8.5-2.3
			c-4.6,0-7.6,0.8-9.4,2.6c-1.7,1.8-2.2,4.5-2.2,11.5v17.5h-15.3V102H245.3z"/>
		<path fill="#2E3192" d="M149.9,97.8c0,0,1.8-3.6-4.2-10.3c-4.9-5.5,2.8-20.8,3.9-23.8c8.2,9.7,12.2,16.1,9,24.3
			C155.3,96.2,149.9,97.8,149.9,97.8L149.9,97.8z"/>
		<path fill="#FFD100" d="M151.8,93.1c0,0,0.8-5.2-1.4-8.4c-4.6-6.5-0.8-12.5-0.3-14.5c3.3,6.4,6.8,9.4,5.5,14.8
			c-1.3,5.4-3.5,7.9-3.5,7.9"/>
		<g>
			<polygon fill="#FFD100" points="123.5,130.8 123.4,129.6 123.1,128.6 122.8,127.8 122.3,127.1 121.9,126.5 121.4,126.1 
				120.8,125.7 120.3,125.5 119.6,125.3 119,125.2 118.5,125.2 117.9,125.3 117.5,125.4 117.1,125.6 116.8,125.7 116.5,125.9 
				116.4,126.1 116.2,126.3 116.1,126.5 116,126.6 116,126.7 115.9,126.8 115.8,126.9 115.7,127 115.5,126.9 115.4,126.8 
				115.3,126.8 115.1,126.7 114.9,126.7 114.7,126.7 114.5,126.7 114.3,126.7 114.1,126.7 113.8,126.7 113.6,126.7 113.4,126.6 
				113.1,126.6 112.8,126.4 112.5,126.2 112.2,126 111.8,125.7 111.5,125.3 111.2,125 111,124.6 110.9,124.2 110.7,123.8 
				110.6,123.4 110.5,123 110.5,122.6 110.4,121.8 110.2,120.8 110.1,119.7 109.8,118.4 109.7,117.1 109.7,116.3 110,115.6 
				110.3,115 110.5,114.2 110.8,113.2 110.9,112.2 111,111.3 111,111.2 109.4,113.3 108.7,113.3 108,112.3 108,112.4 107.5,113.3 
				107.2,113.6 106.9,113.8 106.7,113.8 106.4,113.7 106.1,113.5 105.8,113.3 105.4,113 104.9,112.7 104.5,112.5 104.1,112.4 
				103.7,112.4 103.3,112.4 102.9,112.5 102.5,112.6 102,112.8 101.6,113 101.3,113.2 100.9,113.5 100.5,113.8 100.2,114.1 
				99.9,114.5 99.6,114.8 99.5,115.2 99.3,115.5 99,116.4 98.9,117.5 98.9,118.7 99,120.1 99.2,121.5 99.5,122.9 99.9,124.2 
				100.5,125.4 101,126.3 101.6,127.1 102.2,127.8 102.7,128.4 103.3,129 104,129.7 104.7,130.5 105.4,131.5 105.8,132 106.3,132.4 
				106.8,132.8 107.3,133.1 107.8,133.3 108.3,133.5 108.9,133.7 109.4,133.8 109.9,133.9 110.4,133.9 110.9,134 111.3,134 
				111.8,133.9 112.1,133.9 112.4,133.8 112.7,133.8 113.3,133.6 113.7,133.4 114.2,133.2 114.6,133 115,132.8 115.3,132.5 
				115.6,132.3 115.8,132.1 116,131.8 116.2,131.5 116.4,131.1 116.6,130.7 116.8,130.3 116.9,129.9 117,129.5 116.9,129.2 
				117,129.3 117.2,129.3 117.3,129.4 117.5,129.4 117.7,129.3 117.9,129.3 118.1,129.3 118.3,129.2 118.7,129.1 119.1,129.1 
				119.4,129.3 119.7,129.6 119.9,130 120.1,130.5 120.3,131 120.3,131.6 120.4,132.6 122,144.5 124.9,144.5 			"/>
		</g>
		<g>
			<path fill="#2E3192" d="M48.1,113.7h14.3c3.3,0,4.6-0.2,6.7-1.1v10.9c-1.2-0.9-2.9-1.4-5.3-1.4H48.1v13.3h17.3
				c1.7,0,3.2-0.4,6.7-1.7l-1.6,10.1H28.4c1.3-2,2-4.4,2-7.5v-35.6c0-3.1-0.6-5.5-2-7.5h41.2l1.3,9.5c-2.8-1.1-3.4-1.1-8.2-1.1H48.1
				V113.7z"/>
		</g>
	</g>
</g>
<g>
	<g>
		<polygon fill="#2E3192" points="87.6,432.3 92.1,439 92.5,439 97.4,432.3 109,432.3 99.3,443.9 110,457.4 98.4,457.4 92.6,451.4 
			92.2,451.4 86.2,457.4 75,457.4 85.4,444.5 75.4,432.3 		"/>
		<rect x="112.8" y="432.3" fill="#2E3192" width="9.1" height="25.1"/>
		<path fill="#2E3192" d="M150.9,457.4v-3.8h-0.5c-1.4,3.2-4.2,4.4-10.3,4.4c-5.6,0-8.6-0.9-10.8-3.2c-2.2-2.3-2.7-4.2-2.7-11.1
			v-11.5h9v11.5c0,3.7,0.3,4.8,1.2,5.8c1.1,1.1,2.5,1.4,5.9,1.4c3.2,0,4.9-0.4,6-1.4c1.3-1.2,1.6-2.5,1.6-7.2v-10.1h9.1v25.1H150.9z
			"/>
		<path fill="#2E3192" d="M172.8,432.3v3.8h0.5c1.3-3,4.4-4.4,9.8-4.4c5.8,0,9.1,1.5,11,5.3c1.5-3.8,4.5-5.3,10.4-5.3
			c5,0,8,1,10.1,3.2c2.1,2.2,2.6,4.3,2.6,10.8v11.7H208v-11.7c-0.1-4.2-0.1-4.7-1-5.6c-0.9-1-2.5-1.4-5.1-1.4
			c-2.7,0-4.4,0.5-5.4,1.6c-1,1.2-1.3,2.7-1.3,6.7v10.4h-9v-11.7c0-3.9-0.1-4.6-1-5.6c-0.8-1-2.4-1.4-5-1.4c-2.7,0-4.5,0.5-5.5,1.5
			c-1,1.1-1.3,2.7-1.3,6.8v10.4h-9.1v-25.1H172.8z"/>
		<path fill="#2E3192" d="M116.4,429.8c0,0,1-2.1-2.5-6.1c-2.9-3.2,1.7-12.3,2.3-14.1c4.9,5.7,7.2,9.5,5.3,14.4
			C119.6,428.9,116.4,429.8,116.4,429.8L116.4,429.8z"/>
		<path fill="#FFD100" d="M117.6,427c0,0,0.5-3.1-0.9-5c-2.7-3.8-0.4-7.4-0.2-8.6c2,3.8,4,5.5,3.3,8.8c-0.8,3.2-2,4.7-2,4.7"/>
		<g>
			<polygon fill="#FFD100" points="100.8,449.3 100.8,448.6 100.6,448.1 100.4,447.6 100.2,447.2 99.9,446.8 99.6,446.5 99.3,446.3 
				98.9,446.2 98.6,446.1 98.2,446 97.9,446 97.6,446.1 97.3,446.1 97.1,446.2 96.9,446.3 96.7,446.4 96.6,446.6 96.5,446.7 
				96.5,446.8 96.4,446.9 96.4,446.9 96.4,447 96.3,447 96.2,447.1 96.1,447 96.1,447 96,446.9 95.9,446.9 95.8,446.9 95.7,446.9 
				95.5,446.9 95.4,446.9 95.3,446.9 95.2,446.9 95,446.9 94.9,446.9 94.7,446.8 94.5,446.7 94.3,446.6 94.2,446.5 94,446.3 
				93.8,446.1 93.6,445.9 93.5,445.6 93.4,445.4 93.3,445.2 93.2,444.9 93.2,444.7 93.2,444.5 93.1,444 93,443.4 92.9,442.8 
				92.8,442 92.7,441.2 92.7,440.7 92.9,440.4 93,440 93.2,439.6 93.3,438.9 93.4,438.3 93.4,437.8 93.4,437.7 92.5,439 92.1,439 
				91.7,438.4 91.7,438.4 91.4,439 91.2,439.2 91.1,439.3 90.9,439.3 90.7,439.2 90.6,439.1 90.4,439 90.1,438.8 89.9,438.6 
				89.7,438.5 89.4,438.5 89.2,438.5 88.9,438.5 88.7,438.5 88.4,438.6 88.2,438.7 87.9,438.8 87.7,438.9 87.5,439.1 87.3,439.3 
				87.1,439.5 86.9,439.7 86.8,439.9 86.7,440.1 86.5,440.3 86.4,440.8 86.3,441.5 86.3,442.2 86.4,443 86.5,443.8 86.7,444.7 
				86.9,445.4 87.2,446.1 87.6,446.7 87.9,447.1 88.2,447.5 88.6,447.9 88.9,448.3 89.3,448.7 89.7,449.2 90.2,449.7 90.4,450 
				90.7,450.3 91,450.5 91.3,450.7 91.6,450.8 91.9,450.9 92.2,451 92.5,451.1 92.8,451.1 93.1,451.2 93.4,451.2 93.7,451.2 
				93.9,451.2 94.1,451.1 94.3,451.1 94.5,451.1 94.8,451 95.1,450.9 95.3,450.8 95.6,450.6 95.8,450.5 96,450.3 96.2,450.2 
				96.3,450.1 96.4,449.9 96.5,449.7 96.7,449.5 96.8,449.3 96.9,449 97,448.8 97,448.6 97,448.4 97,448.4 97.1,448.4 97.2,448.5 
				97.3,448.5 97.4,448.5 97.5,448.4 97.7,448.4 97.8,448.4 98,448.3 98.3,448.3 98.5,448.4 98.6,448.6 98.8,448.8 98.9,449.1 
				98.9,449.4 99,449.8 99,450.4 100,457.4 101.7,457.4 			"/>
		</g>
		<g>
			<path d="M135,468.4c0,1.3-0.8,1.8-3,1.8c-1.9,0-2.7-0.1-3.2-0.5c-0.5-0.4-0.8-1.2-0.8-2.3c0-1.3,0.3-2.1,1-2.5
				c0.4-0.3,1.1-0.3,2.4-0.3c1.9,0,2.5,0.2,3,0.7c0.4,0.5,0.5,1,0.6,2.3H129c0,0.7,0.1,1.1,0.4,1.4c0.3,0.4,0.9,0.5,2.6,0.5
				c1.2,0,1.7-0.1,2-0.4c0.1-0.1,0.2-0.2,0.2-0.6H135z M134.1,466.8c0-1.2-0.5-1.5-2.7-1.5c-1.9,0-2.3,0.3-2.4,1.5H134.1z"/>
			<path d="M136.7,468.2l0,0.2c0,1,0.2,1.1,2.6,1.1c1.5,0,1.9,0,2.2-0.3c0.2-0.1,0.2-0.3,0.2-0.6c0-0.7-0.3-0.9-1.4-0.9
				c-0.2,0-0.4,0-2.5,0c-1.4,0-1.9-0.4-1.9-1.5c0-0.6,0.2-1,0.6-1.3c0.4-0.2,1.2-0.4,2.8-0.4c1.8,0,2.6,0.2,3,0.7
				c0.2,0.2,0.2,0.4,0.2,1.1h-0.9c0-0.4,0-0.5-0.2-0.7c-0.2-0.3-0.9-0.3-2.2-0.3c-1.2,0-1.9,0.1-2.2,0.3c-0.2,0.1-0.3,0.3-0.3,0.6
				c0,0.6,0.3,0.7,1.6,0.7c0.4,0,1.9,0,2.5,0c1.2,0,1.7,0.5,1.7,1.6c0,0.7-0.2,1.1-0.6,1.3c-0.4,0.2-1.2,0.3-2.7,0.3
				c-1.8,0-2.6-0.1-3-0.4c-0.4-0.3-0.5-0.6-0.5-1.3v-0.3H136.7z"/>
			<path d="M149.7,464.9c0.7,0.4,0.9,1.1,0.9,2.4c0,1.3-0.3,2.1-1,2.5c-0.5,0.3-1.1,0.4-2.4,0.4c-1.6,0-2.3-0.1-2.8-0.4
				c-0.7-0.4-1-1.1-1-2.4c0-1.4,0.3-2.1,1-2.5c0.4-0.2,1.1-0.3,2.3-0.3C148.6,464.5,149.3,464.6,149.7,464.9z M144.4,467.4
				c0,1.1,0.2,1.6,0.9,1.8c0.4,0.1,0.9,0.2,1.9,0.2c1.3,0,1.7-0.1,2.1-0.4c0.4-0.3,0.5-0.8,0.5-1.7c0-1.1-0.2-1.6-0.8-1.8
				c-0.3-0.2-0.9-0.2-2-0.2C144.8,465.3,144.4,465.6,144.4,467.4z"/>
			<path d="M152.5,464.6v0.7c0.5-0.7,0.9-0.8,2.2-0.8c1.8,0,2.4,0.2,2.8,1c0.4-0.7,1-1,2.5-1c1.5,0,2.1,0.2,2.6,0.7
				c0.4,0.4,0.4,0.7,0.4,2v2.9h-0.9V467c0-1.5-0.3-1.7-2.1-1.7c-1.1,0-1.6,0.1-1.9,0.5c-0.3,0.4-0.4,0.8-0.4,2.2v2.2H157V467
				c0-0.8-0.1-1.1-0.3-1.3c-0.3-0.3-0.8-0.4-1.8-0.4c-1.1,0-1.6,0.1-1.9,0.5c-0.3,0.3-0.3,0.8-0.3,2.2v2.2h-0.9v-5.5H152.5z"/>
			<path d="M171,468.4c0,1.3-0.8,1.8-3,1.8c-1.9,0-2.7-0.1-3.2-0.5c-0.5-0.4-0.8-1.2-0.8-2.3c0-1.3,0.3-2.1,1-2.5
				c0.4-0.3,1.1-0.3,2.4-0.3c1.9,0,2.5,0.2,3,0.7c0.4,0.5,0.5,1,0.6,2.3h-6c0,0.7,0.1,1.1,0.4,1.4c0.3,0.4,0.9,0.5,2.6,0.5
				c1.2,0,1.7-0.1,2-0.4c0.1-0.1,0.2-0.2,0.2-0.6H171z M170.1,466.8c0-1.2-0.5-1.5-2.6-1.5c-1.9,0-2.3,0.3-2.4,1.5H170.1z"/>
			<path d="M172,464.6h0.9v0.7h0c0.4-0.6,0.9-0.8,2.6-0.8c1.5,0,2.1,0.1,2.6,0.4c0.7,0.4,0.9,1.1,0.9,2.4c0,1.3-0.3,2-1,2.5
				c-0.5,0.3-1.2,0.4-2.6,0.4c-1.6,0-2.1-0.2-2.5-0.7h0v2.6H172V464.6z M173.3,465.6c-0.4,0.3-0.5,0.8-0.5,1.7
				c0,1.8,0.4,2.1,2.6,2.1c1.3,0,1.9-0.1,2.2-0.3c0.4-0.3,0.5-0.8,0.5-1.7c0-1.7-0.4-2.1-2.5-2.1
				C174.3,465.3,173.7,465.4,173.3,465.6z"/>
			<path d="M180.9,464.6v0.7h0.1c0.1-0.3,0.4-0.5,0.6-0.6c0.3-0.2,0.8-0.2,1.8-0.2c1,0,1.5,0.1,1.8,0.4c0.4,0.3,0.6,0.8,0.6,1.6v0.6
				h-0.9v-0.4c0-1.1-0.3-1.4-1.6-1.4c-2.1,0-2.4,0.3-2.4,2.3v2.5H180v-5.5H180.9z"/>
			<path d="M186.6,466.3v-0.2c0-1.2,0.7-1.5,3-1.5c1.8,0,2.5,0.1,2.9,0.6c0.4,0.4,0.5,0.8,0.5,2.1v2.9h-0.9l0-0.6h0
				c-0.4,0.6-0.8,0.7-2.5,0.7c-2,0-2.5-0.1-2.9-0.4c-0.4-0.3-0.5-0.6-0.5-1.3c0-0.9,0.2-1.3,0.8-1.5c0.3-0.1,0.8-0.2,2-0.2
				c2.2,0,2.6,0.1,3,0.6h0.1v-0.6c0-0.6-0.1-0.8-0.3-1c-0.3-0.4-0.8-0.5-2.2-0.5c-1.9,0-2.2,0.1-2.2,0.9v0.1H186.6z M187.6,467.8
				c-0.2,0.1-0.3,0.4-0.3,0.7c0,0.4,0.1,0.6,0.4,0.7c0.3,0.1,0.8,0.1,2.2,0.1c1.7,0,2.2-0.2,2.2-0.9c0-0.7-0.5-0.9-2.5-0.9
				C188.3,467.6,187.9,467.6,187.6,467.8z"/>
			<path d="M199.9,464.6v0.8l-4.8,4h4.9v0.7h-6.1v-0.9l4.8-3.9H194v-0.8H199.9z"/>
			<path d="M206.8,464.9c0.7,0.4,0.9,1.1,0.9,2.4c0,1.3-0.3,2.1-1,2.5c-0.5,0.3-1.1,0.4-2.5,0.4c-1.6,0-2.3-0.1-2.8-0.4
				c-0.7-0.4-1-1.1-1-2.4c0-1.4,0.3-2.1,1-2.5c0.4-0.2,1.1-0.3,2.3-0.3C205.6,464.5,206.3,464.6,206.8,464.9z M201.5,467.4
				c0,1.1,0.2,1.6,0.9,1.8c0.4,0.1,0.9,0.2,1.9,0.2c1.3,0,1.8-0.1,2.1-0.4c0.4-0.3,0.5-0.8,0.5-1.7c0-1.1-0.2-1.6-0.7-1.8
				c-0.3-0.2-0.9-0.2-2-0.2C201.9,465.3,201.5,465.6,201.5,467.4z"/>
			<path d="M209.6,462.2v7.9h-0.9v-7.9H209.6z"/>
			<path d="M217.6,468.4c0,1.3-0.8,1.8-3,1.8c-1.9,0-2.7-0.1-3.2-0.5c-0.5-0.4-0.8-1.2-0.8-2.3c0-1.3,0.3-2.1,1-2.5
				c0.4-0.3,1.1-0.3,2.4-0.3c1.9,0,2.5,0.2,3,0.7c0.4,0.5,0.5,1,0.5,2.3h-6.1c0,0.7,0.1,1.1,0.4,1.4c0.3,0.4,0.9,0.5,2.6,0.5
				c1.2,0,1.7-0.1,2-0.4c0.1-0.1,0.2-0.2,0.2-0.6H217.6z M216.7,466.8c0-1.2-0.5-1.5-2.6-1.5c-1.9,0-2.3,0.3-2.4,1.5H216.7z"/>
		</g>
		<g>
			<path fill="#2E3192" d="M56.3,439.2h8.5c1.9,0,2.7-0.1,3.9-0.7v6.4c-0.7-0.5-1.7-0.8-3.2-0.8h-9.2v7.9h10.2c1,0,1.9-0.2,3.9-1
				l-0.9,6H44.7c0.8-1.2,1.2-2.6,1.2-4.4v-21c0-1.8-0.4-3.2-1.2-4.4H69l0.8,5.6c-1.7-0.6-2-0.7-4.8-0.7h-8.6V439.2z"/>
		</g>
		<path d="M220,429.8h0.6c0.7,0,0.8,0,1,0.1c0.3,0.1,0.4,0.4,0.4,0.6c0,0.7-0.7,0.7-1.2,0.7H220V429.8z M218.8,428.8v5.7h1.2v-2.5
			h0.3c1,0,1.1,0.2,1.2,1.2c0.1,0.5,0.1,0.9,0.3,1.2h1.4c-0.3-0.5-0.4-1-0.5-1.7c-0.1-0.8-0.4-0.9-0.7-1.1c0.2-0.1,1.1-0.4,1.1-1.4
			c0-0.5-0.3-1.1-1-1.4c-0.4-0.1-0.8-0.1-1.4-0.1H218.8z M225.5,431.8c0-2.5-2-4.5-4.7-4.5c-2.5,0-4.6,1.9-4.6,4.5
			c0,2.7,2.2,4.5,4.6,4.5C223.5,436.2,225.5,434.3,225.5,431.8z M225.1,431.8c0,2.3-1.8,4.1-4.2,4.1c-2.3,0-4.2-1.8-4.2-4.1
			c0-2.3,1.8-4.1,4.2-4.1C223.3,427.6,225.1,429.5,225.1,431.8z"/>
	</g>
	<g>
		<path fill="#F26524" stroke="#F26524" stroke-width="0.9424" stroke-miterlimit="10" d="M246.8,430.3c-0.1,2.2-0.1,4.2-0.2,6
			c0,0.8,0,1.5-0.1,2.3c0,0.8,0,1.5-0.1,2.1c0,0.6,0,1.2,0,1.7c0,0.5,0,0.8,0,1c0,0.5,0,1.1,0,1.7c0,0.6-0.1,1.3-0.1,1.9
			c0,0.7-0.1,1.4-0.1,2.1h0.1c0.3-0.7,0.6-1.4,0.9-2.1c0.3-0.6,0.5-1.2,0.8-1.9c0.3-0.6,0.6-1.2,0.8-1.7c0.1-0.2,0.2-0.5,0.5-1
			c0.2-0.5,0.5-1,0.8-1.7c0.3-0.6,0.6-1.3,1-2.1c0.4-0.8,0.7-1.5,1.1-2.3c0.9-1.8,1.8-3.8,2.8-6h9.6l-5.3,26.3h-6.5l4-19.9h-0.1
			l-9.9,19.9h-5.3l0.2-19.9h-0.1l-6.1,19.9h-6.4l8.1-26.3H246.8z"/>
		<path fill="#F26524" stroke="#F26524" stroke-width="0.9424" stroke-miterlimit="10" d="M286.8,445.7c-1,3.8-2.6,6.7-4.8,8.6
			c-2.2,1.9-5.2,2.8-9,2.8c-3.8,0-6.3-1-7.6-2.8c-1.3-1.9-1.4-4.7-0.4-8.6l3.9-15.4h6.5l-4.1,15.9c-0.2,0.9-0.3,1.6-0.3,2.4
			c0,0.7,0.1,1.3,0.3,1.8c0.2,0.5,0.6,0.9,1.1,1.2c0.5,0.3,1.1,0.4,1.9,0.4c1.6,0,2.9-0.6,3.8-1.7c0.9-1.1,1.6-2.5,2-4.2l4.1-15.9
			h6.5L286.8,445.7z"/>
		<path fill="#F26524" stroke="#F26524" stroke-width="0.9424" stroke-miterlimit="10" d="M294.4,456.6h-6.5l6.4-25.5
			c1.1-0.3,2.1-0.5,3-0.7c0.9-0.2,2.1-0.3,3.4-0.5c1.3-0.1,2.7-0.2,4.3-0.2c1.7,0,3.1,0.2,4.3,0.6c1.2,0.4,2.2,1,2.9,1.7
			c0.7,0.8,1.2,1.7,1.5,2.8c0.2,1.1,0.2,2.3-0.2,3.6c-0.4,1.7-1.1,3.1-1.9,4.3c-0.8,1.1-1.8,2-2.8,2.7c-1.1,0.7-2.2,1.1-3.4,1.4
			c-1.2,0.3-2.4,0.4-3.7,0.4c-0.3,0-0.7,0-1.2,0c-0.6,0-1.1,0-1.7,0c-0.6,0-1.1,0-1.5,0c-0.4,0-0.6,0-0.6,0L294.4,456.6z
			 M307.3,438.6c0.3-1.3,0.2-2.4-0.5-3.1c-0.7-0.7-1.8-1.1-3.3-1.1c-0.5,0-0.9,0-1.3,0.1c-0.4,0.1-0.8,0.1-1.1,0.2
			c-0.4,0.1-0.7,0.1-1.1,0.2l-1.8,7.2h3.3c0.8,0,1.5,0,2.2-0.1c0.7-0.1,1.2-0.3,1.7-0.5c0.5-0.3,0.9-0.6,1.2-1.1
			C306.9,439.9,307.1,439.3,307.3,438.6z"/>
		<path fill="#F26524" stroke="#F26524" stroke-width="0.9424" stroke-miterlimit="10" d="M315.3,437.4c0.3-1.4,1-2.6,1.9-3.6
			c0.9-1,2-1.8,3.1-2.4c1.2-0.6,2.4-1.1,3.7-1.3c1.3-0.3,2.5-0.4,3.6-0.4c1.9,0,3.6,0.1,5.1,0.4c1.5,0.3,2.7,0.6,3.5,0.8
			c-0.1,0.6-0.3,1.1-0.4,1.6c-0.1,0.5-0.3,0.9-0.4,1.5c-0.1,0.5-0.3,1-0.4,1.5c-0.1,0.4-0.3,1-0.4,1.5c-0.3-0.3-0.8-0.6-1.4-0.9
			c-0.6-0.3-1.2-0.5-1.9-0.8c-0.7-0.2-1.4-0.4-2.2-0.5c-0.8-0.1-1.5-0.2-2.2-0.2c-0.4,0-0.8,0-1.3,0c-0.5,0-1,0.1-1.6,0.2
			c-0.5,0.1-1,0.4-1.4,0.7c-0.4,0.3-0.7,0.7-0.8,1.3c-0.1,0.5-0.1,1,0.3,1.3c0.3,0.4,0.8,0.7,1.3,1c0.6,0.3,1.3,0.6,2,0.9
			c0.8,0.3,1.6,0.6,2.4,0.9c0.8,0.3,1.6,0.7,2.3,1.2c0.7,0.4,1.4,1,1.9,1.6c0.5,0.6,0.8,1.3,1,2.2c0.2,0.8,0.1,1.8-0.1,2.9
			c-0.4,1.4-1,2.7-1.8,3.7c-0.8,1-1.8,1.9-3,2.6c-1.2,0.7-2.5,1.2-3.9,1.5c-1.4,0.3-3,0.5-4.6,0.5c-1.5,0-2.8-0.1-3.9-0.2
			c-1.1-0.1-2-0.3-2.8-0.5c-0.7-0.2-1.3-0.3-1.6-0.5c-0.4-0.2-0.6-0.2-0.6-0.2c0.1-0.3,0.2-0.7,0.3-1c0.1-0.3,0.2-0.6,0.3-1
			c0.1-0.4,0.2-0.8,0.3-1.2c0.3-0.9,0.5-2,0.8-3.2c0.4,0.2,0.9,0.5,1.5,0.8c0.6,0.3,1.3,0.6,2,0.9c0.7,0.3,1.5,0.5,2.2,0.7
			c0.8,0.2,1.5,0.3,2.3,0.3c0.4,0,0.8,0,1.4-0.1c0.6,0,1.2-0.1,1.8-0.3c0.6-0.2,1.2-0.4,1.7-0.8c0.5-0.4,0.9-0.9,1-1.5
			c0.2-0.6-0.1-1.2-0.6-1.6c-0.6-0.4-1.4-0.8-2.3-1.2c-0.9-0.4-2-0.8-3-1.2c-1.1-0.4-2.1-1-2.9-1.7c-0.9-0.7-1.5-1.5-1.9-2.5
			C314.9,440.3,314.9,439,315.3,437.4z"/>
	</g>
</g>
</svg>
