<?xml version="1.0" encoding="utf-8"?>
<!-- Generator: Adobe Illustrator 18.0.0, SVG Export Plug-In . SVG Version: 6.00 Build 0)  -->
<!DOCTYPE svg PUBLIC "-//W3C//DTD SVG 1.1//EN" "http://www.w3.org/Graphics/SVG/1.1/DTD/svg11.dtd">
<svg version="1.1" id="Layer_1" xmlns="http://www.w3.org/2000/svg" xmlns:xlink="http://www.w3.org/1999/xlink" x="0px" y="0px"
	 viewBox="0 0 360 216" enable-background="new 0 0 360 216" xml:space="preserve">
<rect fill="none" width="360" height="216"/>
<g>
	<path d="M326-142.3c-2.9,0-5.6-2.3-5.6-5.6c0-3.2,2.6-5.6,5.6-5.6c3.3,0,5.7,2.6,5.7,5.7C331.6-144.8,329.2-142.3,326-142.3z
		 M326-153.1c-2.9,0-5.2,2.3-5.2,5.1c0,2.9,2.3,5.1,5.1,5.1c2.9,0,5.1-2.3,5.1-5.1C331.2-150.8,329-153.1,326-153.1z M325.9-151.5
		c0.8,0,1.2,0,1.6,0.2c0.7,0.3,1.1,0.9,1.1,1.6c0,1-0.7,1.6-1.6,1.7c0.8,0.3,1,0.7,1.1,1.6c0.2,1,0.2,1.4,0.5,2h-1.2
		c-0.2-0.3-0.2-0.6-0.3-1c0-0.2-0.1-0.9-0.2-1.1c-0.2-1-0.8-1.2-1.8-1.2h-0.5v3.3h-1v-7H325.9z M324.8-148.6h1.2
		c0.4,0,1.6,0,1.6-1.1c0-0.3-0.1-0.6-0.3-0.8c-0.3-0.3-0.6-0.3-1.5-0.3h-1V-148.6z"/>
</g>
<g>
	<text transform="matrix(1 0 0 1 311.553 81.8814)" font-family="'OpenSans'" font-size="14.5306">TM</text>
</g>
<g>
	<path fill="#832990" d="M106.7,61.4l-3,14.8H60.1l-3.6,17.2h40.4l-2.9,13.7H53.5l-4.2,19.7h44.3l-3.1,14.8H28.7l16.7-80.2H106.7z"
		/>
	<path fill="#832990" d="M159.5,141.7h-16.9l-8.4-19.1l-26.6,32h-18l38-44l-13.1-27h17.1l6.4,16.7l13.2-16.7h17.9l-24.2,27.9
		L159.5,141.7z"/>
	<path d="M199.3,61.4l-17.1,80.2h-15.8l17-80.2H199.3z"/>
	<path d="M213.1,117.5c0,0.3,0,0.6,0,0.9v1.5c0,3.4,1,6.1,3.1,8.2c2.1,2.1,5.3,3.1,9.7,3.1c1.6,0,3-0.2,4.2-0.7
		c1.2-0.5,2.3-1.1,3.3-1.8c0.9-0.8,1.8-1.6,2.5-2.6c0.7-1,1.4-1.9,2-2.8h16c-1.3,3.3-2.8,6.2-4.5,8.7c-1.7,2.5-3.8,4.6-6.2,6.2
		c-2.4,1.7-5.2,2.9-8.4,3.8c-3.2,0.8-6.9,1.2-11.1,1.2c-3.9,0-7.4-0.5-10.6-1.6c-3.2-1-5.9-2.6-8.2-4.8c-2.2-2.1-4-4.8-5.2-7.9
		c-1.2-3.1-1.9-6.8-1.9-11c0-4.7,0.8-9.1,2.2-13.4c1.5-4.3,3.6-8.1,6.4-11.5c2.7-3.3,6.1-6,10.1-8c4-2,8.4-3,13.4-3
		c4,0,7.7,0.5,11.1,1.6c3.3,1.1,6.2,2.6,8.6,4.8c2.4,2.1,4.2,4.8,5.5,8c1.3,3.2,2,6.9,2,11.1c0,2.9-0.3,5.9-0.9,9.1h-42.8
		C213.2,116.9,213.1,117.2,213.1,117.5z M241.2,102c-0.3-1.5-0.8-2.8-1.5-4c-0.8-1.2-1.8-2.2-3.3-2.9c-1.4-0.7-3.3-1.1-5.6-1.1
		c-2.2,0-4.2,0.3-6,1c-1.7,0.7-3.2,1.6-4.5,2.7c-1.3,1.1-2.3,2.4-3.2,3.9c-0.9,1.5-1.6,3.1-2.2,4.7h26.6
		C241.5,104.9,241.4,103.4,241.2,102z"/>
	<path d="M287.2,83.6L284.8,94l0.2,0.2c1.8-4,4.5-7.1,8.1-9.2c3.6-2.1,7.6-3.1,11.9-3.1c1.6,0,3.3,0.1,4.9,0.3l-3.3,15.5
		c-1.1-0.2-2.2-0.5-3.4-0.7c-1.1-0.2-2.3-0.3-3.4-0.3c-3.1,0-5.7,0.5-7.8,1.6c-2.1,1-3.9,2.5-5.4,4.3c-1.5,1.8-2.6,3.8-3.5,6.1
		c-0.9,2.3-1.6,4.7-2.1,7.1l-5.4,25.7H260l12-58.1H287.2z"/>
	<polygon fill="#B28ABF" points="112.9,84.5 125.1,110.2 88.2,153.8 117,110.4 	"/>
	<polygon points="274.7,146.7 165.4,146.7 166.4,145.4 275.7,145.4 	"/>
</g>
</svg>
