<?xml version="1.0" encoding="utf-8"?>
<!-- Generator: Adobe Illustrator 18.0.0, SVG Export Plug-In . SVG Version: 6.00 Build 0)  -->
<!DOCTYPE svg PUBLIC "-//W3C//DTD SVG 1.1//EN" "http://www.w3.org/Graphics/SVG/1.1/DTD/svg11.dtd">
<svg version="1.1" id="Layer_1" xmlns="http://www.w3.org/2000/svg" xmlns:xlink="http://www.w3.org/1999/xlink" x="0px" y="0px"
	 viewBox="0 0 360 216" enable-background="new 0 0 360 216" xml:space="preserve">
<rect fill="none" width="360" height="216"/>
<g>
	<path d="M324.8-50.8c-3.1,0-5.9-2.4-5.9-5.9c0-3.4,2.7-5.9,5.9-5.9c3.4,0,6,2.7,5.9,6C330.7-53.4,328.1-50.8,324.8-50.8z
		 M324.8-62.1c-3.1,0-5.4,2.4-5.4,5.4c0,3,2.4,5.4,5.4,5.4c3,0,5.4-2.4,5.4-5.4C330.2-59.6,327.9-62.1,324.8-62.1z M324.7-60.4
		c0.9,0,1.3,0,1.7,0.2c0.7,0.3,1.1,1,1.1,1.7c0,1-0.7,1.6-1.7,1.8c0.8,0.3,1,0.7,1.2,1.6c0.2,1.1,0.2,1.5,0.5,2.1h-1.2
		c-0.2-0.3-0.2-0.7-0.3-1c0-0.2-0.2-1-0.2-1.2c-0.2-1.1-0.8-1.2-1.9-1.2h-0.5v3.4h-1.1v-7.4H324.7z M323.5-57.3h1.2
		c0.5,0,1.7,0,1.7-1.2c0-0.3-0.1-0.6-0.3-0.8c-0.3-0.3-0.7-0.3-1.6-0.3h-1V-57.3z"/>
</g>
<g>
	<g>
		<path d="M318.4,82.9h-1v-8.1h-2.9v-0.9h6.8v0.9h-2.9V82.9z"/>
		<path d="M326.7,82.9l-3.1-8h0c0.1,0.6,0.1,1.4,0.1,2.3v5.7h-1v-9h1.6l2.9,7.4h0l2.9-7.4h1.6v9h-1v-5.8c0-0.7,0-1.4,0.1-2.2h0
			l-3.1,8H326.7z"/>
	</g>
</g>
<g>
	<g>
		<g>
			<path fill="#005DAC" d="M130.4,99c-3.3-1.9-8.6-2.8-15.8-2.8c-3.6,0-7.1,0.3-10.7,0.8c-1.8,0.3-3.3,0.5-4.6,0.8l-3,11.2
				c1.4-0.5,3.2-1,5.5-1.7c2.9-0.8,5.6-1.2,8-1.2c3.6,0,6.2,0.4,8,1.2c1.8,0.8,2.7,2.1,2.7,4.1c0,0.5,0,0.9-0.1,1.3
				c-0.1,0.4-0.1,0.6-0.2,0.8c-5.1,0.3-9.8,0.8-14.1,1.4c-4.4,0.6-8.1,1.7-11.2,3.1c-3.4,1.5-5.9,3.5-7.6,6.1
				c-1.7,2.5-2.6,5.6-2.6,9.3c0,3.4,1.2,6.2,3.6,8.4c2.4,2.2,5.5,3.2,9.3,3.2c2.4,0,4.2-0.2,5.5-0.5c1.3-0.3,2.8-0.8,4.3-1.4
				c1.1-0.5,2.3-1.2,3.6-2c1.3-0.8,2.4-1.6,3.3-2.2l-1.1,4.9h14.6l7.2-31.4c0.2-0.6,0.3-1.4,0.4-2.3c0.1-0.9,0.1-1.6,0.1-2.1
				C135.4,103.8,133.8,100.9,130.4,99z M116,131.6c-1.4,1-3,1.9-4.6,2.6c-1.6,0.7-3.2,1-4.6,1c-2.2,0-3.9-0.3-5.1-1
				c-1.2-0.6-1.7-1.8-1.7-3.3c0-1.8,0.4-3.3,1.3-4.3c0.9-1.1,2.1-1.9,3.8-2.5c1.6-0.6,3.6-1,5.8-1.3c2.3-0.3,4.7-0.6,7.4-0.8
				L116,131.6z"/>
			<path fill="#005DAC" d="M158.7,144.8c-3.9,0-7.7-0.4-11.4-1.1c-3.7-0.7-6.5-1.6-8.4-2.6l2.8-12.1h1.3c0.6,0.5,1.3,1.1,2.3,1.7
				c0.9,0.6,2.2,1.3,3.9,2c1.4,0.6,3.1,1.2,5,1.6c1.9,0.4,3.9,0.7,6.2,0.7c3.3,0,5.7-0.4,7.4-1.1c1.6-0.8,2.5-1.9,2.5-3.3
				c0-1.1-0.6-1.9-1.8-2.5c-1.2-0.6-3.6-1.3-7.2-2.1c-6.2-1.5-10.5-3.2-12.8-5.3c-2.3-2.1-3.4-4.6-3.4-7.7c0-5.2,2.3-9.3,6.9-12.3
				c4.6-3,10.8-4.5,18.7-4.5c3.4,0,6.8,0.3,10.3,1.1c3.4,0.7,5.9,1.4,7.5,2.2l-2.7,11.7h-1.3c-1.9-1.5-4.3-2.7-7-3.7
				c-2.7-0.9-5.5-1.4-8.4-1.4c-3.1,0-5.5,0.4-7.2,1.1c-1.7,0.7-2.5,1.9-2.5,3.5c0,1.2,0.7,2.1,2.2,2.8c1.4,0.6,3.7,1.3,6.8,2
				c5.8,1.3,9.9,2.9,12.4,4.8c2.5,1.9,3.8,4.6,3.8,8c0,5.1-2.3,9.2-7,12.2C173,143.4,166.7,144.8,158.7,144.8z"/>
			<path fill="#00AEEF" d="M208.1,144.5c-5.1,0-8.7-0.8-10.9-2.5c-2.2-1.7-3.3-4.2-3.3-7.5c0-0.9,0.1-1.7,0.2-2.5
				c0.1-0.8,0.3-1.8,0.5-2.9l5-21.8h-6l2.2-9.7h6l3-13.2h14.7l-3,13.2h13.7l-2.2,9.7h-13.7l-3.8,16.6c-0.3,1.1-0.5,2.3-0.8,3.5
				c-0.3,1.2-0.4,2.2-0.4,3c0,1.6,0.5,2.8,1.4,3.4c0.9,0.6,2.3,1,4.2,1c0.8,0,1.8-0.1,3-0.4c1.2-0.3,2.2-0.6,2.9-1h1.2l-2.3,9.9
				c-1.6,0.4-3.4,0.7-5.2,1C212.8,144.4,210.6,144.5,208.1,144.5z"/>
			<path fill="#00AEEF" d="M254.2,144.8c-7.8,0-13.8-1.7-18-5.2c-4.2-3.5-6.4-8.3-6.4-14.4c0-4.2,0.7-8,2.1-11.5
				c1.4-3.5,3.4-6.6,6-9.2c2.5-2.6,5.6-4.6,9.4-6.1c3.8-1.5,7.9-2.3,12.3-2.3c6.8,0,11.9,1.4,15.4,4.2c3.5,2.8,5.2,6.9,5.2,12.3
				c0,1.9-0.2,3.7-0.6,5.5c-0.4,1.8-0.8,3.5-1.4,5.3h-34c0,0.2,0,0.3,0,0.5c0,0.2,0,0.3,0,0.5c0,3.2,1.1,5.7,3.3,7.5
				c2.2,1.8,5.6,2.7,10.2,2.7c3.2,0,6.2-0.5,9.1-1.6c2.9-1.1,5.4-2.3,7.5-3.6h1.6l-2.7,11.8c-2.8,1.3-5.8,2.2-9,2.9
				C261.1,144.5,257.8,144.8,254.2,144.8z M265.4,114.6c0.1-0.5,0.1-0.9,0.2-1.4c0-0.4,0.1-0.8,0.1-1.3c0-2.2-0.7-3.8-2-5
				c-1.3-1.2-3.2-1.7-5.8-1.7c-3,0-5.6,0.8-7.6,2.5c-2.1,1.7-3.6,3.9-4.7,6.9H265.4z"/>
			<path fill="#00AEEF" d="M313.1,79.7l-14.6,63.8h-14.7l14.6-63.8H313.1z"/>
		</g>
		<g>
			<path fill="#005DAC" d="M56,96.8c-3.3,0-6.3,0.8-8.9,2.2c-6.1,3.2-10.1,9.7-11.9,17.1c-1.9,7.7-6.8,26.4-6.8,26.4h16.5
				c0,0,3.6-14.1,5.2-20.5c1.6-6.4,4.6-7.9,9.2-7.9c4.7,0,28,0,28,0l4.2-17.3C91.4,96.8,67.2,96.8,56,96.8z"/>
			<g>
				<path fill="#005DAC" d="M96.9,71.2c0,0-41.6,0-44.5,0c-10.2,0-12.4,10.7-13.7,17.1c18.7,0,54.2,0,54.2,0L96.9,71.2z"/>
			</g>
		</g>
	</g>
</g>
</svg>
