<?xml version="1.0" encoding="utf-8"?>
<!-- Generator: Adobe Illustrator 18.0.0, SVG Export Plug-In . SVG Version: 6.00 Build 0)  -->
<!DOCTYPE svg PUBLIC "-//W3C//DTD SVG 1.1//EN" "http://www.w3.org/Graphics/SVG/1.1/DTD/svg11.dtd">
<svg version="1.1" id="Layer_1" xmlns="http://www.w3.org/2000/svg" xmlns:xlink="http://www.w3.org/1999/xlink" x="0px" y="0px"
	 viewBox="0 0 360 216" enable-background="new 0 0 360 216" xml:space="preserve">
<rect fill="none" width="360" height="216"/>
<g>
	<path d="M325.7,106.9c-3.1,0-5.9-2.4-5.9-5.9c0-3.4,2.7-5.9,5.9-5.9c3.4,0,6,2.7,5.9,6C331.6,104.3,329.1,106.9,325.7,106.9z
		 M325.7,95.6c-3.1,0-5.4,2.4-5.4,5.4c0,3,2.4,5.4,5.4,5.4c3,0,5.4-2.4,5.4-5.4C331.1,98,328.8,95.6,325.7,95.6z M325.6,97.2
		c0.9,0,1.3,0,1.7,0.2c0.7,0.3,1.1,1,1.1,1.7c0,1-0.7,1.6-1.7,1.8c0.8,0.3,1,0.7,1.2,1.6c0.2,1.1,0.2,1.5,0.5,2.1h-1.2
		c-0.2-0.3-0.2-0.7-0.3-1c0-0.2-0.2-1-0.2-1.2c-0.2-1.1-0.8-1.2-1.9-1.2h-0.5v3.4h-1.1v-7.4H325.6z M324.4,100.3h1.2
		c0.5,0,1.7,0,1.7-1.2c0-0.3-0.1-0.6-0.3-0.8c-0.3-0.3-0.7-0.3-1.6-0.3h-1V100.3z"/>
</g>
<g>
	<g>
		<path d="M486.9,88.5H486v-6.3h-2.2v-0.7h5.3v0.7h-2.2V88.5z"/>
		<path d="M493.3,88.5l-2.4-6.2h0c0,0.5,0.1,1.1,0.1,1.8v4.5h-0.8v-7h1.2l2.2,5.8h0l2.2-5.8h1.2v7h-0.8V84c0-0.5,0-1.1,0.1-1.7h0
			l-2.4,6.2H493.3z"/>
	</g>
</g>
<g>
	<g>
		<g>
			<g>
				<g>
					<g>
						<g>
							<path fill="#005BAA" d="M45.4,106.4h13.4c2.4,0,3.2-0.2,5.2-1v8.3c-2.1-0.9-3.4-1.1-6.5-1.1H45.4v10.6c0,2.3,0.6,4.1,1.7,5.6
								H28.3c1.2-1.5,1.7-3.3,1.7-5.6V96.7c0-2.3-0.5-4.1-1.7-5.6h35.4l1.2,7.1c-2.3-0.8-2.6-0.8-8.4-0.9H45.4V106.4z"/>
						</g>
					</g>
					<g>
						<g>
							<path fill="#005BAA" d="M98,101c5,0,6.7,0.4,8.6,1.9c1.9,1.6,2.6,3.4,2.6,6.9v11.1c0,2.9-0.7,4.6-2.2,6c-1.8,1.6-3.3,2-7.8,2
								H80c-5.6,0-7.1-0.3-9-1.9c-1.8-1.5-2.5-3.4-2.5-6.3v-11.9c0-2.7,1.3-5.1,3.6-6.5c1.8-1.1,2.6-1.2,6.6-1.2H98z M83.2,120.3
								c0,2.5,0.9,3.3,3.5,3.3h4.4c2.6,0,3.4-0.8,3.4-3.4v-10.4c0-2.7-1-3.5-4-3.5h-3.8c-2.4,0-3.5,1-3.5,3.1V120.3z"/>
						</g>
					</g>
					<g>
						<g>
							<path fill="#005BAA" d="M128.8,105.5c0.7-2.3,1.4-3.1,2.9-3.8c1.3-0.6,2.2-0.7,4.8-0.7h7.4v9.2c-1.4-1.2-2.8-1.6-6.1-1.6h-3
								c-3.2,0-4.9,1.5-4.9,4.2v9c0,4.1,0.2,5.4,1.2,7h-17.1c1-1.6,1.2-2.9,1.2-7V108c0-4.1-0.2-5.4-1.2-7h14.5L128.8,105.5z"/>
						</g>
					</g>
					<g>
						<g>
							<path fill="#97268F" d="M182.3,87.2h20.8c-1.2,1.7-1.7,3.6-1.7,6.2v29.3c0,2.6,0.5,4.5,1.7,6.2h-18.8
								c1.2-1.7,1.7-3.6,1.7-6.2V97.1l-10.5,31.7h-10.9l-10.3-31.7v25.5c0,2.6,0.5,4.5,1.7,6.2h-10.1c1.2-1.7,1.7-3.6,1.7-6.2V93.4
								c0-2.6-0.5-4.5-1.7-6.2h20.8l7.8,23.8L182.3,87.2z"/>
						</g>
					</g>
					<g>
						<g>
							<path fill="#97268F" d="M248.2,121.8c0,4.1,0.2,5.4,1.2,7h-13.9l-0.5-2.6c-1,2.1-2.1,2.6-5.5,2.6h-11.3
								c-3.8,0-5.9-0.6-7.4-1.9c-1.8-1.6-2.2-2.9-2.2-7.7V108c0-4.1-0.2-5.4-1.2-7h15.9v18.9c0,1.9,0.1,2.3,0.7,2.9
								c0.5,0.6,1,0.8,2.5,0.8h3.5c2.9,0,3.6-0.6,3.6-3.4V108c0-4.1-0.2-5.4-1.2-7h15.9V121.8z"/>
						</g>
					</g>
					<g>
						<g>
							<path fill="#97268F" d="M269.1,103.7c0.5-2,1.5-2.7,4-2.7h15.3c3.9,0,4.9,0.4,5.7,2.7c0.6-2.1,1.5-2.7,4.1-2.7H310
								c4,0,5.5,0.5,7.3,2.3c1.6,1.6,2.2,3.7,2.2,7.8v10.8c0,2.4,0,3.9,0.1,4.5c0.1,0.8,0.4,1.5,1,2.5h-16.9c1-1.6,1.2-2.9,1.2-7
								v-12c0-2.9-0.6-3.6-3.2-3.6h-3.7c-2.8,0-3.3,0.5-3.3,3.3v12.3c0,4.1,0.2,5.4,1.2,7h-17.1c1-1.6,1.2-2.9,1.2-7v-12.1
								c0-2.6-0.7-3.5-2.8-3.5h-4.5c-2.2,0-2.9,0.7-2.9,3.2v12.4c0,4.1,0.2,5.4,1.2,7H254c1-1.6,1.2-2.9,1.2-7V108
								c0-4.1-0.2-5.4-1.2-7h14.7L269.1,103.7z"/>
						</g>
					</g>
				</g>
			</g>
		</g>
	</g>
</g>
</svg>
