<?xml version="1.0" encoding="utf-8"?>
<!-- Generator: Adobe Illustrator 18.0.0, SVG Export Plug-In . SVG Version: 6.00 Build 0)  -->
<!DOCTYPE svg PUBLIC "-//W3C//DTD SVG 1.1//EN" "http://www.w3.org/Graphics/SVG/1.1/DTD/svg11.dtd">
<svg version="1.1" id="Layer_1" xmlns="http://www.w3.org/2000/svg" xmlns:xlink="http://www.w3.org/1999/xlink" x="0px" y="0px"
	 viewBox="0 0 360 216" enable-background="new 0 0 360 216" xml:space="preserve">
<rect fill="none" width="360" height="216"/>
<g>
	<path d="M324.8-50.8c-3.1,0-5.9-2.4-5.9-5.9c0-3.4,2.7-5.9,5.9-5.9c3.4,0,6,2.7,5.9,6C330.7-53.4,328.1-50.8,324.8-50.8z
		 M324.8-62.1c-3.1,0-5.4,2.4-5.4,5.4c0,3,2.4,5.4,5.4,5.4c3,0,5.4-2.4,5.4-5.4C330.2-59.6,327.9-62.1,324.8-62.1z M324.7-60.4
		c0.9,0,1.3,0,1.7,0.2c0.7,0.3,1.1,1,1.1,1.7c0,1-0.7,1.6-1.7,1.8c0.8,0.3,1,0.7,1.2,1.6c0.2,1.1,0.2,1.5,0.5,2.1h-1.2
		c-0.2-0.3-0.2-0.7-0.3-1c0-0.2-0.2-1-0.2-1.2c-0.2-1.1-0.8-1.2-1.9-1.2h-0.5v3.4h-1.1v-7.4H324.7z M323.5-57.3h1.2
		c0.5,0,1.7,0,1.7-1.2c0-0.3-0.1-0.6-0.3-0.8c-0.3-0.3-0.7-0.3-1.6-0.3h-1V-57.3z"/>
</g>
<g>
	<g>
		<path d="M284.8,90.8h-1v-8.1h-2.9v-0.9h6.8v0.9h-2.9V90.8z"/>
		<path d="M293,90.8l-3.1-8h0c0.1,0.6,0.1,1.4,0.1,2.3v5.7h-1v-9h1.6l2.9,7.4h0l2.9-7.4h1.6v9h-1V85c0-0.7,0-1.4,0.1-2.2h0l-3.1,8
			H293z"/>
	</g>
</g>
<g>
	<g>
		<g>
			<path d="M62.7,74.6l-0.3,7.6c-4-0.1-8-0.2-12.1-0.2l-9.5,0L40.2,94l18.8,0l-0.3,7c-1.1-0.1-4.8-0.2-10.3-0.2l-8.6,0
				c-0.3,9.6-0.4,13.1-0.4,20l-10.9,0c0.8-6.4,1.9-29.8,1.9-46.2L62.7,74.6z"/>
			<path d="M78.3,91h0.1c2.1-3.4,5-5.5,9.3-5.5c1,0,2,0.1,3,0.3L91,94c-1.2-0.4-2.4-0.7-3.7-0.7c-5,0-7.8,3.3-8.8,8.1
				c-0.8,3.7-0.8,11.1-0.8,15.1l0,4.3l-9.6,0c0.6-9.8,1.3-19.1,1.3-34.4l9.2,0L78.3,91z"/>
			<path d="M101.5,104.1v1.1c0,6.4,4.4,10,10.6,10c3.9,0,7.8-1,11.5-2.2l-1.2,7.3c-3.7,0.8-7.4,1.3-11.2,1.3
				c-17.8,0-19.3-12-19.3-16.8c0-6.3,2.4-19.3,18.7-19.3c9.3,0,16.1,4.7,16.2,14.5c0,1.5-0.2,2.9-0.4,4L101.5,104.1z M117.5,99.4
				c0-5.3-1.9-8.2-7.1-8.2c-4.8,0-8,3.7-8.6,8.2L117.5,99.4z"/>
			<path d="M142.9,91.9h0.1c2.9-4.8,7.6-6.4,13.2-6.5c7.3,0,12.9,2.8,12.9,10.9c0,4.2-1,13.9-1,24.3l-10.3,0
				c0.9-6.7,1.6-13.4,1.6-20.1c0-5-2.3-7.4-7.3-7.4c-5.5,0-8.5,4-9.4,9c-1,5.5-1.1,15.4-1.2,18.5l-9.9,0c1-10.5,1.7-21,1.9-34.4
				l9.7,0L142.9,91.9z"/>
			<path fill="#D90F53" d="M191,111.7h0.1l9.8-25.4l10,0c-5.3,11.4-10.4,22.9-15.3,34.4l-10.5,0c-3.7-11.6-8-22.9-12.1-34.4l9.9,0
				L191,111.7z"/>
			<path fill="#D90F53" d="M230.9,120.9c-2.1,0.4-4.2,0.6-6.4,0.6c-11.2,0-12.3-6.6-12.3-9.8c0-14,24.4-9.5,24.4-17
				c0-3.3-3.7-3.8-6.3-3.8c-4.6,0-9.2,1.3-13.5,2.9l1-6.4c4.9-1.2,9.9-2,15-2c6.1,0,13.4,1.5,13.4,9c0,4.9-1.2,15.9-1.2,26.3l-9.6,0
				c0.3-3,0.5-6.2,1.2-17.8c-3.6,3.2-15.2,2.8-15.2,9c0,3.3,3,4.1,5.8,4.1c1.9,0,3.7-0.4,5.4-1L230.9,120.9z"/>
			<path fill="#D90F53" d="M251.9,112.6c3.2,1.3,6.5,2.6,9.9,2.6c2.1,0,5.3-0.7,5.3-3.6c0-4.9-13.1-8.7-13.1-16.6
				c0-5.7,3.9-9.5,13.1-9.5c3.4,0,6.9,0.5,10.3,1.1l0.4,7.1c-2.3-1-4.8-1.8-7.6-1.8c-2.8,0-5.8,0.3-5.7,3.3c0,4.4,13.1,8.4,13.1,17
				c0,7.1-8,9.4-13.8,9.4c-3.7,0-7.5-0.6-11.1-1.4L251.9,112.6z"/>
		</g>
		<g>
			<g>
				<rect x="28.3" y="125.7" fill="#BEC0C2" width="262" height="1.1"/>
			</g>
			<g>
				<path fill="#BEC0C2" d="M303.2,130.5l3-7.2l5.5,13.6l5.5-19.9l5.9,13.9l2.7-3.8l5.3,0c-5.8,15.7-30.4,19.3-30.4,19.3
					s-5.3-2.4-10.6-18.3c-0.1-0.4-0.2-0.7-0.3-1l10.5,0L303.2,130.5z"/>
				<path fill="#D90F53" d="M323.4,128l-6.5-15.2l-5.5,19.8l-5.2-12.9l-3.4,8.1l-1.9-2.3l-11.6,0c-3.8-14.5,4.1-23.3,12.1-23.3
					c8.5,0,11.8,8.3,11.8,8.3l0,0c12.7-5.9,19.2,3.8,19,10.9c-0.1,1.5-0.4,2.8-0.7,4.1h-6.5L323.4,128z"/>
				<path fill="#FBFEFF" d="M301,125.6l1.9,2.3l3.4-8.1l5.2,12.9l5.5-19.8l6.5,15.2l1.7-2.4h6.5c-0.1,0.2-0.1,0.5-0.2,0.7
					c-0.1,0.2-0.2,0.5-0.3,0.7l-5.3,0l-2.7,3.8l-5.9-13.9l-5.5,19.9l-5.5-13.6l-3,7.2l-2.9-3.5l-10.5,0c-0.1-0.2-0.1-0.5-0.2-0.7
					c-0.1-0.2-0.1-0.5-0.2-0.7L301,125.6z"/>
			</g>
		</g>
	</g>
</g>
</svg>
