<?xml version="1.0" encoding="utf-8"?>
<!-- Generator: Adobe Illustrator 18.0.0, SVG Export Plug-In . SVG Version: 6.00 Build 0)  -->
<!DOCTYPE svg PUBLIC "-//W3C//DTD SVG 1.1//EN" "http://www.w3.org/Graphics/SVG/1.1/DTD/svg11.dtd">
<svg version="1.1" id="Layer_1" xmlns="http://www.w3.org/2000/svg" xmlns:xlink="http://www.w3.org/1999/xlink" x="0px" y="0px"
	 viewBox="0 0 360 216" enable-background="new 0 0 360 216" xml:space="preserve">
<rect fill="none" width="360" height="216"/>
<g>
	<path d="M326-142.3c-2.9,0-5.6-2.3-5.6-5.6c0-3.2,2.6-5.6,5.6-5.6c3.3,0,5.7,2.6,5.7,5.7C331.6-144.8,329.2-142.3,326-142.3z
		 M326-153.1c-2.9,0-5.2,2.3-5.2,5.1c0,2.9,2.3,5.1,5.1,5.1c2.9,0,5.1-2.3,5.1-5.1C331.2-150.8,329-153.1,326-153.1z M325.9-151.5
		c0.8,0,1.2,0,1.6,0.2c0.7,0.3,1.1,0.9,1.1,1.6c0,1-0.7,1.6-1.6,1.7c0.8,0.3,1,0.7,1.1,1.6c0.2,1,0.2,1.4,0.5,2h-1.2
		c-0.2-0.3-0.2-0.6-0.3-1c0-0.2-0.1-0.9-0.2-1.1c-0.2-1-0.8-1.2-1.8-1.2h-0.5v3.3h-1v-7H325.9z M324.8-148.6h1.2
		c0.4,0,1.6,0,1.6-1.1c0-0.3-0.1-0.6-0.3-0.8c-0.3-0.3-0.6-0.3-1.5-0.3h-1V-148.6z"/>
</g>
<g>
	<path fill="#F37021" d="M150.2,114.6c0-1.7-0.1-3.4-0.1-5.2l-0.2-56.2h16l0.3,55.8c0,3.2,0.5,5.7,1.2,7.6c1.2,5.2,7.1,5.8,9.5,5.9
		c1.8,2.1-1.5,13.2-3.3,15.2C157.5,137.4,150.8,128.7,150.2,114.6z"/>
	<path fill="#F37021" d="M291.8,137.8l-14.3-18.1l-14.3,18.1h-19.9l24.2-29.9l-21.5-27.6h19.4l12.2,15.5l12.1-15.5H309l-21.6,27.6
		l24.2,29.9H291.8z"/>
	<g>
		<text transform="matrix(1 0 0 1 310.7168 82.0767)" font-family="'OpenSans'" font-size="14.5306">TM</text>
	</g>
	<g>
		<path fill="#F37021" d="M211.4,79.6c-16.2,0-30.2,14-30.2,29.6c0,15.5,13.8,29.6,30.2,29.6c16.3,0,30.1-14,30.1-29.6
			C241.5,93.7,227.8,79.6,211.4,79.6z M228.3,124.4c-2.6,1.1-6.8,0.5-7.8,0.2c-0.9-0.3-4.4-1.3-5.7-5.8c-0.4-1.5-1-6.6-0.9-8.5
			c0.1-1.9,0.5-6.5-0.1-7.6c0,0-1.5-2.3-2.4-2.3c-0.9,0-1.9,1.4-2.4,2.3c-0.6,1.1-0.2,5.7-0.1,7.6c0.1,1.9-0.5,7-0.9,8.5
			c-1.3,4.5-4.8,5.5-5.7,5.8c-0.9,0.3-5.2,0.8-7.8-0.2c-2.6-1.1-1.8-5.4-1.6-7.4c0.2-2,2.1-7.6,2.7-8.8c0.5-1.2,2.9-5.4,3.2-6.2
			c1.4-2.3,4.4-6.5,6.3-6.5c1.9,0,2.9,5,3,5.2c0.2,0.1,0.6-1.1,1.1-2.3c0.4-1.2,0-11.4,0-11.4h4.3c0,0-0.4,10.2,0,11.4
			c0.4,1.2,0.9,2.5,1.1,2.3c0.2-0.1,1.2-5.2,3-5.2c1.9,0,4.9,4.2,6.3,6.5c0.3,0.8,2.7,5,3.2,6.2c0.5,1.2,2.4,6.8,2.7,8.8
			C230.1,119.1,230.8,123.3,228.3,124.4z"/>
	</g>
	<path fill="#6F2C91" d="M79.7,71H46.2v17.9h27.6l8.5,15.3H46.2v33.4H29.5v-82h50.2V71z"/>
	<path fill="#6F2C91" d="M146.4,80.3c-18.4,42.9-27,61.6-46.8,82.4l-12.4-8.4c9.2-9.5,14.3-14.1,18.4-26.3l-5-9.4L82.3,80.3h18
		l14.6,30.3l13.4-30.3H146.4z"/>
</g>
</svg>
