<?xml version="1.0" encoding="utf-8"?>
<!-- Generator: Adobe Illustrator 18.0.0, SVG Export Plug-In . SVG Version: 6.00 Build 0)  -->
<!DOCTYPE svg PUBLIC "-//W3C//DTD SVG 1.1//EN" "http://www.w3.org/Graphics/SVG/1.1/DTD/svg11.dtd">
<svg version="1.1" id="Layer_1" xmlns="http://www.w3.org/2000/svg" xmlns:xlink="http://www.w3.org/1999/xlink" x="0px" y="0px"
	 viewBox="0 0 360 216" enable-background="new 0 0 360 216" xml:space="preserve">
<rect fill="none" width="360" height="216"/>
<g>
	<path d="M326.1,79.1c-2.9,0-5.6-2.3-5.6-5.6c0-3.2,2.6-5.6,5.6-5.6c3.3,0,5.7,2.6,5.7,5.7C331.8,76.6,329.3,79.1,326.1,79.1z
		 M326.2,68.3c-2.9,0-5.2,2.3-5.2,5.1c0,2.9,2.3,5.1,5.1,5.1c2.9,0,5.1-2.3,5.1-5.1C331.3,70.7,329.1,68.3,326.2,68.3z M326,69.9
		c0.8,0,1.2,0,1.6,0.2c0.7,0.3,1.1,0.9,1.1,1.6c0,1-0.7,1.6-1.6,1.7c0.8,0.3,1,0.7,1.1,1.6c0.2,1,0.2,1.4,0.5,2h-1.2
		c-0.2-0.3-0.2-0.6-0.3-1c0-0.2-0.1-0.9-0.2-1.1c-0.2-1-0.8-1.2-1.8-1.2h-0.5V77h-1v-7H326z M324.9,72.9h1.2c0.4,0,1.6,0,1.6-1.1
		c0-0.3-0.1-0.6-0.3-0.8c-0.3-0.3-0.6-0.3-1.5-0.3h-1V72.9z"/>
</g>
<g>
	<text transform="matrix(1 0 0 1 311.553 300.3814)" font-family="'OpenSans'" font-size="14.5306">TM</text>
</g>
<g>
	<g>
		<polygon fill="#562E91" points="135.5,90.9 121.6,90.9 97.1,137.7 110.9,137.7 		"/>
		<g>
			<polygon fill="#562E91" points="44.4,77.8 28.9,77.8 28.9,137.7 59.8,137.7 59.8,123 44.4,123 			"/>
			<rect x="306.3" y="77.4" fill="#562E91" width="13.1" height="60.3"/>
			<path fill="#562E91" d="M286.3,90.8v46.8h13.8V90.5c0,0-3.4,2.5-7,2.5C289.8,93,286.3,90.8,286.3,90.8z"/>
			<path fill="#562E91" d="M259.8,110.2c0.2-1.7,1.7-3.5,3.5-3.6c2.4-0.1,3.6,1.6,3.6,3.4c0,1.8,0,27.7,0,27.7h13.7v-37
				c-0.6-7.4-6.3-11.6-9.5-11.6c-5.2-0.1-9.2,3.7-9.7,6.4c-0.4,1.9-1.5,1.3-1.5,0.5c0-0.7,0-5.7,0-5.7h-14.1v47.4l14,0V110.2z"/>
			<path fill="#562E91" d="M293.2,76c-4.3,0.5-4.8,5.9-4.7,7.2c0.4,4.7,3.7,6.7,4.8,6.6c3.1-0.1,4.1-2.1,4.8-4.7
				C299.4,79.2,295.7,75.7,293.2,76z"/>
			<path fill="#562E91" d="M239.5,100c-2-12.8-12.9-12.8-15.2-12.2c-10.1,2.5-15.4,9.7-15.4,9.7v15.3c1.9-2.7,4.5-5.5,6-6.7
				c4.2-3.5,7-3.7,7.9-3.7c3.5,0.3,2.8,2.8,2.9,3.7c0.1,2.8-0.2,3-0.7,3.2c-0.5,0.3-2.9,1.3-4.1,1.8c-8,3.5-11.3,7.5-11.8,9.2
				c-2.2,6.9,0.6,11.9,1.3,13.1c1.8,2.9,5.8,4.2,8.1,4.4c1.1,0.1,6.1-2.7,6.6-3.1c0.5-0.4,0.9-0.6,1.2-0.3c0.3,0.4,2.5,3.3,3.1,3.3
				c1.1,0,0.6,0,11.3,0c0,0,2.1-9.8,2.7-11.5c0.5-1.8-0.6-1.1-1.7-1.1c-1.1,0-2.6-1.5-2.2-4.1V100z M222.6,129c-1.3,0.2-3-0.5-2.9-4
				c0-1,0.1-3.3,1.5-4.5c0.8-0.6,3.2-3,4.6-2.9l0,8.8C225.9,126.4,225.1,128.5,222.6,129z"/>
			<path fill="#562E91" d="M194.8,89.1V73.8l-18.9,28l4.8,0v24.1c3.1,12,11.6,12.1,14.5,11.8c6.5-0.7,9.3-4.2,9.3-4.2v-14.9
				c-1.8,2.6-3,2.8-4.6,3.2c-3.8,1.1-5.1-3.4-5.1-4.7v-15.3l9.7,0V89.1H194.8z"/>
			<path fill="#562E91" d="M154.9,88c-9.9,0.1-14.4,10.1-15.4,12c-3.8,7.3-3,17.5-1.6,21.4c6.6,18.2,17.3,16.5,19.1,16.4
				c9.1-0.5,13.6-9.6,14.8-12.7c3.6-9.3,1.8-18.9,1.1-21.1C168.2,89.1,159.5,87.9,154.9,88z M150.5,109.8c0-0.5-0.2-5.3,4.8-6.1
				c2.2-0.3,5,2,5.1,4.8c0.2,3.1,0.1,7.3,0.1,8.4c0,1.1-0.8,6-5,6.1c-2,0-4.3-1.3-5-5.1L150.5,109.8z"/>
			<path fill="#562E91" d="M76.6,116.3h18.5c0,0,1.6-9.4-3.8-20.4c-1.1-2.1-4.3-8.1-12.9-8.1c-1.4,0-12,2.1-14.9,16.9
				c-1.3,6.8-2.9,26.9,13.6,32.7c0,0,10.4,2.3,18.3-5v-12.6c0,0-4.3,4.1-10.6,4C82.5,123.6,77.3,122.5,76.6,116.3z M77,104.8
				c0.1-0.9,1.2-3,3.5-2.9c0.6,0,2.9,0,3.5,2.9c0.2,1.1,0.3,3.4,0.3,3.4h-7.4C76.9,108.2,76.9,105.4,77,104.8z"/>
		</g>
		<polygon fill="#DF2027" points="96.6,90.4 134,168.4 150.1,168.2 113.5,90.4 		"/>
	</g>
</g>
</svg>
