<?xml version="1.0" encoding="utf-8"?>
<!-- Generator: Adobe Illustrator 18.0.0, SVG Export Plug-In . SVG Version: 6.00 Build 0)  -->
<!DOCTYPE svg PUBLIC "-//W3C//DTD SVG 1.1//EN" "http://www.w3.org/Graphics/SVG/1.1/DTD/svg11.dtd">
<svg version="1.1" id="Layer_1" xmlns="http://www.w3.org/2000/svg" xmlns:xlink="http://www.w3.org/1999/xlink" x="0px" y="0px"
	 viewBox="0 0 360 216" enable-background="new 0 0 360 216" xml:space="preserve">
<rect fill="none" width="360" height="216"/>
<g>
	<path d="M324.8,100.4c-3.1,0-5.9-2.4-5.9-5.9c0-3.4,2.7-5.9,5.9-5.9c3.4,0,6,2.7,5.9,6C330.7,97.8,328.1,100.4,324.8,100.4z
		 M324.8,89.1c-3.1,0-5.4,2.4-5.4,5.4c0,3,2.4,5.4,5.4,5.4c3,0,5.4-2.4,5.4-5.4C330.2,91.6,327.9,89.1,324.8,89.1z M324.7,90.8
		c0.9,0,1.3,0,1.7,0.2c0.7,0.3,1.1,1,1.1,1.7c0,1-0.7,1.6-1.7,1.8c0.8,0.3,1,0.7,1.2,1.6c0.2,1.1,0.2,1.5,0.5,2.1h-1.2
		c-0.2-0.3-0.2-0.7-0.3-1c0-0.2-0.2-1-0.2-1.2c-0.2-1.1-0.8-1.2-1.9-1.2h-0.5v3.4h-1.1v-7.4H324.7z M323.5,93.9h1.2
		c0.5,0,1.7,0,1.7-1.2c0-0.3-0.1-0.6-0.3-0.8c-0.3-0.3-0.7-0.3-1.6-0.3h-1V93.9z"/>
</g>
<g>
	<g>
		<path d="M284.8-56.7h-1v-8.1h-2.9v-0.9h6.8v0.9h-2.9V-56.7z"/>
		<path d="M293-56.7l-3.1-8h0c0.1,0.6,0.1,1.4,0.1,2.3v5.7h-1v-9h1.6l2.9,7.4h0l2.9-7.4h1.6v9h-1v-5.8c0-0.7,0-1.4,0.1-2.2h0l-3.1,8
			H293z"/>
	</g>
</g>
<g>
	<g>
		<g>
			<g>
				<path fill="#F26722" d="M53.1,77.9c-2.2,0.1-2.2,0.3-0.1,0.5l18.4,1.1c2.1,0.1,2.1,0.4-0.1,0.6l-19.8,1.7
					c-2.2,0.2-2.2,0.5-0.1,0.6l18.6,1.4c2.1,0.2,2.1,0.4-0.1,0.5l-20.1,1.1c-2.2,0.1-2.2,0.4-0.1,0.7l11.3,1.4
					c2.1,0.3,2,0.6-0.1,0.8l-12.5,1.2c-2.2,0.2-2.2,0.5-0.1,0.7l16.1,1.4c2.1,0.2,2.1,0.5-0.1,0.6l-17.6,1.3
					c-2.2,0.2-2.2,0.4-0.1,0.6l15.5,1.4c2.1,0.2,2.1,0.5-0.1,0.6l-16.8,1.2c-2.2,0.2-2.2,0.4-0.1,0.5l15.3,0.9
					c2.1,0.1,2.3,0.6,0.2,0.8l-17,1.6c-2.2,0.2-2.2,0.5-0.1,0.6l15.8,1.1c2.1,0.2,2.3,0.3,0.1,0.5L42.1,105
					c-2.2,0.2-2.2,0.5-0.1,0.7l16.3,1.4c2.1,0.2,2.1,0.4-0.1,0.6L40.6,109c-2.2,0.2-2.2,0.4-0.1,0.6l19.4,1.4c2.1,0.2,2.2,0.2,0,0.3
					L39,112.9c-2.2,0.1-2.2,0.4-0.1,0.5l17.5,1.3c2.1,0.2,2.1,0.4-0.1,0.6l-18.9,1.5c-2.2,0.2-2.2,0.4-0.1,0.6l17.4,1.3
					c2.1,0.2,2.1,0.4-0.1,0.6L36,120.7c-2.2,0.2-2.2,0.4-0.1,0.6l17.4,1.3c2.1,0.2,2.1,0.4-0.1,0.6l-18.9,1.4
					c-2.2,0.2-2.2,0.4-0.1,0.6l19.1,1.5c2.1,0.2,2.1,0.4-0.1,0.6l-20.4,1.4c-2.2,0.1-2.2,0.4-0.1,0.5l19,1.4
					c2.1,0.2,2.1,0.4-0.1,0.5l-20.4,1.3c-2.2,0.1-2.2,0.4-0.1,0.5l19.1,1.5c2.1,0.2-0.1,0.4-2.3,0.5l-18.3,1.3
					c-2.2,0.1-2.2,0.4,3.5,0.5l18.3,0.6c0.2-0.5,4.3-0.8,5.1-3L78,80.4c0.9-2.2-0.8-3.9-2.9-3.8L53.1,77.9z"/>
			</g>
		</g>
	</g>
	<g>
		<path fill="#F26722" d="M137,136.9l8.9-42.5H159l-8.9,42.5H137z M149.5,77h13.1L159.9,90h-13.1L149.5,77z"/>
		<path fill="#F26722" d="M154.4,136.9l8.9-42.5h13.1l-0.7,3.3c1.2-2.2,3.2-3.2,6.1-3.3h7.7c5.8,0,8.1,2.9,6.9,8.7l-7.1,33.8h-13.1
			l6.1-29.4c0.6-2.9-0.5-4.4-3.4-4.4c-2.9,0-4.7,1.5-5.3,4.4l-6.1,29.4H154.4z"/>
		<path d="M192.8,136.9l8.9-42.5h13.1l-8.9,42.5H192.8z M205.3,77h13.1L215.7,90h-13.1L205.3,77z"/>
		<path d="M208.4,136.9l1.8-8.7h17.4c2.9,0,4.6-1.4,5.2-4.4c0.5-2.6-0.6-4.1-3.5-4.3h-8.4c-6,0-8.4-2.9-7.2-8.7l1.6-7.6
			c1.2-5.8,4.7-8.7,10.5-8.7h26.2l-1.8,8.7h-17.4c-2.9,0-4.7,1.5-5.3,4.4c-0.5,2.6,0.6,4,3.5,4h8.7c5.8,0.2,8.1,2.9,7.1,8l-1.8,8.7
			c-1.2,5.8-4.7,8.7-10.5,8.7H208.4z"/>
		<path d="M259.5,103.2l-6.5-0.1l1.8-8.7h6.6l1.8-8.7h13l-1.8,8.7h6.5l-1.8,8.7h-6.5l-4.3,20.8c-0.6,2.9,0.6,4.4,3.5,4.4h2.1
			l-1.8,8.7h-10.9c-5.8,0-8.1-2.9-6.9-8.7L259.5,103.2z"/>
		<path d="M309.5,136.9h-26.2c-5.8,0-8.1-2.9-6.9-8.7l1.8-8.7c1.1-5.1,4.5-7.7,10.4-8h8.7c2.9,0,4.6-1.3,5.2-4
			c0.6-2.9-0.6-4.4-3.5-4.4h-17.4l1.8-8.7h26.2c5.8,0,8.1,2.9,6.9,8.7L309.5,136.9z M300.1,119.5h-4.4c-3,0.3-4.7,1.7-5.3,4.3
			c-0.6,2.9,0.5,4.4,3.4,4.4h4.4L300.1,119.5z"/>
	</g>
	<path fill="#F26722" d="M90.5,140.5c-3.6-3.3-5.6-7.1-5.9-11.2l-3-35.6l-11.9,33c-0.7,1.5-1.2,3-1.5,4.7c-0.1,0.7,0.5,1.7,1.9,2.9
		l0.2,0.1l-1,2.9l-18.4-0.1l0-1.8l0.1-0.1c2.3-1.2,4.6-3.8,5.7-5.2c1-1.3,1.6-1.5,3.1-4.5l14-38.4c1.9-3.8,2.2-4.6,2.3-4.7
		c0.2-1.2-0.4-2.2-1.9-3.1l-0.2-0.1l1-2.9L95,76.1l-0.1,0.4c-0.5,3.1-0.6,4.2-0.6,4.6l3.3,35.7L125,81c0.8-1,1.9-2.9,3.1-5.6
		l0.1-0.2l20-0.5l-1,3.1l-0.2,0.1c-1.5,0.6-2.6,1.2-3.2,2c-0.6,0.8-1.1,2-1.5,3.7l-9.3,42.9c-0.3,1.2-0.5,2.4-0.7,3.7
		c-0.2,1.3,0,2.3,0.7,3.1c0.2,0.2,0.8,0.7,2.4,1.9l0,2.4l-23.4-0.2l0.9-2.5l0.2-0.1c1.8-0.6,3.2-1.5,4.1-2.6c0.9-1.2,1.6-3,2.2-5.3
		l8-34l-36.6,48L90.5,140.5z"/>
</g>
</svg>
