<?xml version="1.0" encoding="utf-8"?>
<!-- Generator: Adobe Illustrator 18.0.0, SVG Export Plug-In . SVG Version: 6.00 Build 0)  -->
<!DOCTYPE svg PUBLIC "-//W3C//DTD SVG 1.1//EN" "http://www.w3.org/Graphics/SVG/1.1/DTD/svg11.dtd">
<svg version="1.1" id="Layer_1" xmlns="http://www.w3.org/2000/svg" xmlns:xlink="http://www.w3.org/1999/xlink" x="0px" y="0px"
	 viewBox="0 0 360 216" enable-background="new 0 0 360 216" xml:space="preserve">
<rect fill="none" width="360" height="216"/>
<g>
	<path d="M326,93.1c-2.7,0-5.2-2.1-5.2-5.2c0-3,2.4-5.2,5.2-5.2c3,0,5.2,2.4,5.2,5.2C331.2,90.8,329,93.1,326,93.1z M326.1,83.2
		c-2.7,0-4.8,2.1-4.8,4.7c0,2.7,2.1,4.7,4.7,4.7c2.7,0,4.7-2.1,4.7-4.7C330.8,85.3,328.8,83.2,326.1,83.2z M326,84.6
		c0.8,0,1.1,0,1.5,0.1c0.7,0.3,1,0.9,1,1.5c0,0.9-0.7,1.4-1.5,1.6c0.7,0.3,0.9,0.6,1,1.4c0.1,0.9,0.2,1.3,0.5,1.9h-1.1
		c-0.1-0.3-0.2-0.6-0.3-0.9c0-0.1-0.1-0.9-0.2-1c-0.2-1-0.7-1.1-1.6-1.1h-0.5v3H324v-6.5H326z M324.9,87.3h1.1c0.4,0,1.5,0,1.5-1
		c0-0.3-0.1-0.6-0.3-0.7c-0.3-0.2-0.6-0.2-1.4-0.2h-0.9V87.3z"/>
</g>
<g>
	<g>
		<path d="M303.5-26.4h-1v-8.1h-2.9v-0.9h6.8v0.9h-2.9V-26.4z"/>
		<path d="M311.7-26.4l-3.1-8h0c0.1,0.6,0.1,1.4,0.1,2.3v5.7h-1v-9h1.6l2.9,7.4h0l2.9-7.4h1.6v9h-1v-5.8c0-0.7,0-1.4,0.1-2.2h0
			l-3.1,8H311.7z"/>
	</g>
</g>
<g>
	<g>
		<path fill="#2E3192" d="M55,111.6h0.1c0.3-3.3,0.9-16.1,0.9-22l9.7,0c-0.3,3.5-1.8,25.1-1.9,34l-12.4,0
			c-3.9-7.4-8.6-14.4-12.2-21.6H39c-0.2,3.1-0.8,16.5-0.8,21.6l-9.8,0c0.7-5.4,1.8-24.2,1.8-34l12.7,0L55,111.6z"/>
		<path fill="#2E3192" d="M84.3,106.7l4.6-9.7l3.2,9.7L84.3,106.7z M93.8,113.9c1.2,3.3,2.3,6.5,3.2,9.8l11.3,0
			c-4.3-11.3-8.5-22.6-12.5-34l-12.8,0c-2.8,6-14.4,28-18,34l11.7,0l4.5-9.8L93.8,113.9z"/>
		<path fill="#2E3192" d="M121.1,104.1c0.7,0.1,1.4,0.2,2.1,0.2c2.7,0,5.2-1.1,5.2-4.2c0-2.8-1.8-3.3-4.1-3.3
			c-1.3,0-2.6,0.1-3.9,0.2c-0.4,7.8-0.8,13.9-0.8,26.7l-10.1,0c0.6-5.1,1.5-24.2,1.5-34l18,0c8.4,0,9.7,6.6,9.7,9.7
			c0,7.2-5.5,11.6-12.5,11.6c-1.2,0-2.3-0.1-3.4-0.3L121.1,104.1z"/>
		<path fill="#2E3192" d="M152.9,96.9c-0.6,8.9-0.8,17.9-0.9,26.9l-10.6,0c1.2-10.6,1.6-20.4,1.7-34l18,0c2.4,0,12.2,0.3,12.2,9
			c0,5.4-3.2,8.2-8,9.9c2,5.1,4.5,10,6.6,15l-11.3,0c-1.8-6.5-4.2-12.8-6.6-19.1c0.8,0.2,1.7,0.3,2.5,0.3c3,0,6.5-1.1,6.5-4.6
			c0-3.4-3.4-3.4-5.8-3.4H152.9z"/>
		<path fill="#2E3192" d="M196.9,96.6c5.6,0,9.3,4.1,9.3,9.6c0,5.8-3.7,10.7-9.9,10.7c-5.6,0-9.5-3.9-9.5-9.5
			C186.8,101.4,190.7,96.6,196.9,96.6z M197.3,89.2c-9.8,0-21.2,4.5-21.2,18.6c0,11.6,9.6,16.6,20,16.6c11.6,0,20.7-6,20.8-18.4
			C216.9,94.6,207.7,89.2,197.3,89.2z"/>
		<path fill="#2E3192" d="M244.2,98.2c-2.3-0.9-4.9-1.7-7.4-1.7c-1.6,0-4.6,0.6-4.6,2.7c0,4,12.1,7.8,12.1,15.4
			c0,3.5-2.5,9.9-13.4,9.9c-3.4,0-6.8-0.5-10.1-1.1l-0.8-8.4c2.7,1.2,5.8,2.3,8.8,2.3c1.7,0,4.8-0.3,4.8-2.7c0-3.9-12.1-8-12.1-16
			c0-2.3,1.4-9.3,13-9.3c3.1,0,6.1,0.4,9.1,1L244.2,98.2z"/>
		<path fill="#2E3192" d="M257.2,110.2c-3.7-6.9-7.6-13.6-11.4-20.4c1.9,0.1,3.9,0.1,5.9,0.1c2,0,3.9,0,5.9,0
			c1.6,4.2,3.9,8.1,5.5,12.2c2.3-4.1,4.9-8.1,7.2-12.2c1.9,0,3.8,0.1,5.7,0.1c2.2,0,4.5,0,6,0c-4.8,7-9.6,14-14.2,21.1
			c-0.2,4.3-0.4,8.6-0.5,12.9c-1.8,0-3.6-0.1-5.4-0.1c-1.8,0-3.6,0-5.5,0C256.7,119.3,257.1,114.7,257.2,110.2z"/>
		<path fill="#2E3192" d="M308,111.9L308,111.9c0.4-3.3,1-16.1,1-22h9.7c-0.3,3.5-1.8,25.1-1.9,34l-12.4,0
			c-3.9-7.4-8.6-14.4-12.2-21.6H292c-0.2,3.1-0.8,16.5-0.8,21.6l-9.8,0c0.7-5.4,1.8-24.2,1.8-34l12.7,0L308,111.9z"/>
	</g>
</g>
</svg>
