<?xml version="1.0" encoding="utf-8"?>
<!-- Generator: Adobe Illustrator 18.0.0, SVG Export Plug-In . SVG Version: 6.00 Build 0)  -->
<!DOCTYPE svg PUBLIC "-//W3C//DTD SVG 1.1//EN" "http://www.w3.org/Graphics/SVG/1.1/DTD/svg11.dtd">
<svg version="1.1" id="Layer_1" xmlns="http://www.w3.org/2000/svg" xmlns:xlink="http://www.w3.org/1999/xlink" x="0px" y="0px"
	 viewBox="0 0 360 216" enable-background="new 0 0 360 216" xml:space="preserve">
<rect fill="none" width="360" height="216"/>
<g>
	<path d="M327.3,113.5c-2.2,0-4.3-1.8-4.3-4.3c0-2.5,2-4.3,4.3-4.3c2.5,0,4.3,2,4.3,4.3C331.6,111.6,329.8,113.5,327.3,113.5z
		 M327.3,105.2c-2.2,0-4,1.8-4,3.9c0,2.2,1.8,3.9,3.9,3.9c2.2,0,3.9-1.7,3.9-3.9C331.3,107,329.6,105.2,327.3,105.2z M327.2,106.5
		c0.6,0,0.9,0,1.3,0.1c0.5,0.2,0.8,0.7,0.8,1.2c0,0.8-0.5,1.2-1.2,1.3c0.6,0.2,0.8,0.5,0.9,1.2c0.1,0.8,0.2,1.1,0.4,1.6h-0.9
		c-0.1-0.2-0.2-0.5-0.2-0.7c0-0.1-0.1-0.7-0.1-0.9c-0.2-0.8-0.6-0.9-1.4-0.9h-0.4v2.5h-0.8v-5.4H327.2z M326.4,108.7h0.9
		c0.3,0,1.2,0,1.2-0.8c0-0.2-0.1-0.5-0.3-0.6c-0.2-0.2-0.5-0.2-1.2-0.2h-0.7V108.7z"/>
</g>
<g>
	<g>
		<g>
			<g>
				<g>
					<path fill="#2E3192" d="M47.2,119.2L47.2,119.2c0.3-2.3,0.7-11.4,0.7-15.7h6.9c-0.2,2.5-1.2,17.9-1.3,24.2h-8.9
						c-2.8-5.3-6.1-10.3-8.7-15.4h-0.1c-0.1,2.2-0.5,11.8-0.5,15.4h-7c0.5-3.9,1.2-17.3,1.2-24.2h9.1L47.2,119.2z"/>
					<path fill="#2E3192" d="M68.1,115.7l3.3-6.9l2.2,6.9H68.1z M74.9,120.8c0.8,2.3,1.7,4.6,2.3,7h8.1c-3.1-8-6.1-16.1-8.9-24.2
						h-9.2c-2,4.2-10.2,20-12.8,24.2h8.4l3.2-7H74.9z"/>
					<path fill="#2E3192" d="M94.4,113.8c0.5,0.1,1,0.1,1.5,0.1c2,0,3.7-0.8,3.7-3c0-2-1.3-2.3-2.9-2.3c-0.9,0-1.9,0.1-2.8,0.1
						c-0.3,5.6-0.6,9.9-0.6,19H86c0.4-3.7,0.9-17.3,0.9-24.2h13.1c6,0,6.9,4.7,6.9,6.9c0,5.2-3.9,8.2-8.9,8.2
						c-0.8,0-1.6-0.1-2.4-0.2L94.4,113.8z"/>
					<path fill="#2E3192" d="M117,108.6c-0.4,6.4-0.6,12.7-0.7,19.1h-7.5c0.8-7.5,1.1-14.5,1.2-24.2h12.8c1.7,0,8.7,0.2,8.7,6.4
						c0,3.8-2.3,5.9-5.7,7.1c1.4,3.6,3.2,7.1,4.7,10.7h-8.1c-1.3-4.6-3-9.1-4.7-13.6c0.6,0.1,1.2,0.2,1.8,0.2c2.1,0,4.6-0.8,4.6-3.3
						c0-2.4-2.4-2.4-4.1-2.4H117z"/>
					<path fill="#2E3192" d="M148.4,108.4c4,0,6.6,2.9,6.6,6.9c0,4.1-2.6,7.6-7,7.6c-4,0-6.8-2.8-6.8-6.8
						C141.2,111.8,143.9,108.4,148.4,108.4z M148.6,103.1c-7,0-15.1,3.2-15.1,13.3c0,8.3,6.8,11.8,14.3,11.8
						c8.2,0,14.8-4.3,14.8-13.1C162.6,107,156,103.1,148.6,103.1z"/>
					<path fill="#2E3192" d="M182.1,109.5c-1.6-0.7-3.5-1.2-5.3-1.2c-1.1,0-3.3,0.4-3.3,1.9c0,2.9,8.6,5.6,8.6,10.9
						c0,2.5-1.7,7-9.5,7c-2.4,0-4.9-0.4-7.2-0.8l-0.5-6c1.9,0.8,4.1,1.6,6.3,1.6c1.2,0,3.4-0.2,3.4-1.9c0-2.8-8.6-5.7-8.6-11.4
						c0-1.7,1-6.7,9.2-6.7c2.2,0,4.4,0.3,6.5,0.7L182.1,109.5z"/>
					<path fill="#2E3192" d="M191.3,118c-2.6-4.9-5.4-9.7-8.1-14.5c1.4,0,2.8,0,4.2,0c1.4,0,2.8,0,4.2,0c1.2,3,2.8,5.7,3.9,8.7
						c1.6-2.9,3.5-5.7,5.1-8.7c1.3,0,2.7,0,4,0c1.6,0,3.2,0,4.2,0c-3.4,5-6.9,9.9-10.1,15c-0.1,3-0.3,6.1-0.3,9.2
						c-1.3,0-2.6,0-3.8,0c-1.3,0-2.6,0-3.9,0C191,124.5,191.2,121.2,191.3,118z"/>
					<path fill="#2E3192" d="M227.5,119.2L227.5,119.2c0.3-2.3,0.7-11.4,0.7-15.7h6.9c-0.2,2.5-1.2,17.9-1.3,24.2h-8.9
						c-2.8-5.3-6.1-10.3-8.7-15.4h-0.1c-0.1,2.2-0.5,11.8-0.5,15.4h-7c0.5-3.9,1.2-17.3,1.2-24.2h9.1L227.5,119.2z"/>
				</g>
				<g>
					<path fill="#ED1C24" d="M275.7,108.4c0.1,3.3-1,5.9-3.3,7.9c-1.7,1.5-4.2,2.6-7.4,3.3c-2.1,0.5-4.5,0.7-7.1,0.8
						c-0.5,0-0.9,0-1.3,0c-0.4,0-0.8,0-1.2,0c-0.3,0.2-0.7,0.7-1.3,1.6c-0.5,0.9-0.8,1.5-0.6,2c0.1,0.4-0.3,1.2-1.3,2.3
						c-0.9,1.1-1.7,1.7-2.3,1.7c-0.2,0-0.3,0-0.4-0.1c-0.2-0.2-0.3-0.4-0.3-0.8c0-0.6,0.3-1.7,1-3c0.7-1.4,1.4-2.8,2.1-4.2
						c0-0.2-0.3-0.5-0.7-0.9c-0.5-0.4-0.7-0.8-0.7-1.2c0-0.2,0-0.4,0.1-0.6c0.3-0.8,0.9-1.4,2-1.9c1.2-0.5,2.3-0.9,3.5-1.4
						c1.9-2.2,3.3-4,4.4-5.4c1.2-1.5,1.7-2.3,1.5-2.5c-0.1-0.1-0.3-0.1-0.6-0.1c-0.7,0-1.8,0.2-3.3,0.5c-1.5,0.3-2.5,0.5-3.1,0.7
						c-1.1,0.3-2.5,0.6-4.3,1.2c-1.1,0.4-1.7,0.5-1.8,0.4c-0.2-0.3,0.2-1.2,1.2-2.8c0.8-1.3,1.5-2.2,1.9-2.8
						c0.2-0.3,1.6-0.7,4.3-1.2c3.1-0.6,5.6-1,7.7-1c3.3-0.1,5.9,0.5,7.8,1.6C274.6,103.8,275.7,105.8,275.7,108.4z M273.4,108.5
						c0-0.9-1-1.6-2.9-2.1c-1.5-0.4-3-0.6-4.5-0.6c-0.5,0-0.8,0.1-0.9,0.2c-1.4,1.9-2.5,3.5-3.3,4.7c-0.9,1.3-1.4,2.2-1.6,2.6
						c-0.1,0.2,0,0.3,0.1,0.4c0.1,0,0.4,0.1,0.7,0.1c0.3,0,0.5,0,0.7,0c0.4,0,0.6,0,0.6,0.1c0,0.1-0.3,0.2-0.9,0.4
						c-1.5,0.3-2.3,0.5-2.5,0.7c-0.1,0.2-0.2,0.4-0.3,0.5c-0.1,0.2-0.2,0.4-0.2,0.5c0,0.2,0.2,0.4,0.7,0.5c0.5,0.1,1.3,0.2,2.5,0.1
						c2.2-0.1,4.6-0.7,7.1-2C271.9,112.8,273.5,110.8,273.4,108.5z"/>
					<path fill="#ED1C24" d="M290.1,102c0.4,0.2,0.5,0.5,0.6,1.1c0,0.9-0.4,2.3-1.2,4.1c-0.7,1.5-1.6,3.1-2.6,4.7
						c-0.7,1.1-1.7,2.3-3,3.6c-1.3,1.3-2.7,2.6-4,4c-0.2,0.3-0.2,0.8-0.2,1.5c0,0.5,0.1,1.1,0.3,1.6c0.2,0.5,0.5,0.8,0.9,1
						c0.2,0.1,0.5,0.2,0.9,0.2c1,0,2.5-0.6,4.5-1.8c1.8-1.1,2.6-1.6,2.6-1.7l0,1.3c0,0.3-1.1,1.3-3.4,2.9c-2.6,1.9-4.6,2.8-6.1,2.8
						c-0.2,0-0.3,0-0.5,0c-1.4-0.1-2.3-0.9-2.8-2.4c-0.3-0.8-0.4-2.2-0.5-4.1c0-2,0.9-4.5,2.8-7.6c1.7-2.7,3.7-5.3,6-7.7
						c2.4-2.4,4.1-3.6,5.2-3.6C289.9,101.9,290,101.9,290.1,102z M286.9,106.6c-0.3,0-0.7,0.3-1.3,1.1c-0.2,0.3-0.8,1.1-1.6,2.3
						c-1,1.6-1.7,2.6-1.9,3.1c-0.3,0.6-0.4,1-0.2,1.1c0.3,0.2,0.8-0.1,1.5-0.9c0.6-0.7,1.2-1.5,1.8-2.4c0.5-0.8,1-1.6,1.4-2.6
						C286.7,107.7,286.8,107.2,286.9,106.6z"/>
					<path fill="#ED1C24" d="M309.5,121c0,0.1-0.6,0.7-1.8,1.7c-1.3,1.1-2.7,2.1-4.2,3c-1.8,1.1-3.2,1.6-4.3,1.7
						c-0.2,0-0.4,0-0.7-0.1c-0.6-0.1-1-0.4-1.3-0.8c-0.2-0.4-0.4-1-0.4-1.6c0-0.5,0-1,0.1-1.6c0.1-0.6,0.1-0.8,0-0.9
						c-0.6,0.7-1.3,1.4-2,2.1c-1.4,1.5-2.6,2.3-3.5,2.3c-1,0-1.8-0.4-2.4-1.3c-0.6-0.9-0.9-2-0.9-3.2c0-0.3,0-0.6,0-0.8
						c0.1-1.2,0.9-2.7,2.2-4.6c1.3-1.9,2.4-3,3.1-3.4c0.2-0.1,0.6-0.1,1.1-0.2s0.9-0.1,1-0.1c0.5,0,0.8,0,1,0.1
						c0.1,0,0.2,0.1,0.3,0.2c0.2,0.4,0,0.9-0.5,1.7c-0.5,0.7-1.3,1.6-2.4,2.6c-0.8,0.8-1.5,1.6-2,2.3c-0.6,0.9-0.9,1.6-0.9,2.1
						c0,0.3,0.1,0.5,0.3,0.6c0.4,0.3,1.2,0,2.3-0.8c1.1-0.8,2.5-2.1,4.1-3.8c1.6-1.7,2.7-2.8,3.1-3.3c1.2-1.2,2-2,2.5-2.5
						c0.8-0.6,1.3-1,1.7-1c0.2,0,0.3,0.2,0.4,0.6c0.1,0.4,0.2,0.8,0.2,1.2c0,0.2,0,0.3-0.1,0.5c-0.3,0.6-0.7,1-1,1.4
						c-0.6,0.7-1.2,1.5-1.7,2.2c-0.5,0.7-1,1.6-1.4,2.5c-0.4,0.9-0.6,1.7-0.6,2.2c0,0.5,0.2,0.9,0.6,1.1c0.4,0.1,1.8-0.4,4.3-1.7
						c0.8-0.4,2-1.1,3.6-1.9L309.5,121z"/>
					<path fill="#ED1C24" d="M325.6,120.6c-1.7,1.3-3.1,2.3-4.1,2.9c-3.1,2-5.5,3-7.2,3c-1.3,0-2.6-0.5-4-1.6
						c-1.4-1.2-2.2-2.5-2.2-3.9c0-0.1,1.3-1.3,3.9-3.5c2.7-2.3,4.3-3.9,4.7-4.6c0.4-0.7,0.6-1.2,0.8-1.4c0.4-0.4,1-0.7,1.8-0.7
						c0.7,0,1.1,0.5,1.4,1.5c0.1,0.5,0.3,1.5,0.6,3c0,0.1,0,0.3,0.1,0.6c0,0.7-0.1,1.5-0.3,2.2c-0.2,0.8-0.6,1.5-1.3,2.2
						c-0.6,0.7-1.4,1.4-2.4,2.1c-0.3,0.3-0.6,0.6-0.9,0.8c0.3,0.1,0.6,0.2,0.9,0.2c1.2,0,2.9-0.8,5.2-2.2c2.1-1.3,3.1-2,3.1-2.1
						L325.6,120.6z M316.8,120.5c0.1-0.3,0.2-0.6,0.3-1.2c0.1-0.5,0.1-1,0.1-1.5c0-0.7-0.1-1.2-0.2-1.6c-0.1-0.4-0.3-0.6-0.5-0.6
						c-0.4,0-1.3,0.7-2.7,2c-1.4,1.3-2.2,2.2-2.2,2.5c0,0.3,0.5,0.8,1.3,1.5c0.9,0.7,1.4,1,1.6,0.9c0.4-0.1,0.8-0.4,1.2-0.8
						C316.3,121.3,316.7,120.9,316.8,120.5z"/>
				</g>
			</g>
		</g>
	</g>
</g>
</svg>
