<?xml version="1.0" encoding="utf-8"?>
<!-- Generator: Adobe Illustrator 18.0.0, SVG Export Plug-In . SVG Version: 6.00 Build 0)  -->
<!DOCTYPE svg PUBLIC "-//W3C//DTD SVG 1.1//EN" "http://www.w3.org/Graphics/SVG/1.1/DTD/svg11.dtd">
<svg version="1.1" id="Layer_1" xmlns="http://www.w3.org/2000/svg" xmlns:xlink="http://www.w3.org/1999/xlink" x="0px" y="0px"
	 viewBox="0 0 360 216" enable-background="new 0 0 360 216" xml:space="preserve">
<rect fill="none" width="360" height="216"/>
<g>
	<path d="M325.7,110c-3.1,0-5.9-2.4-5.9-5.9c0-3.4,2.7-5.9,5.9-5.9c3.4,0,6,2.7,5.9,6C331.6,107.4,329.1,110,325.7,110z M325.7,98.7
		c-3.1,0-5.4,2.4-5.4,5.4c0,3,2.4,5.4,5.4,5.4c3,0,5.4-2.4,5.4-5.4C331.1,101.1,328.8,98.7,325.7,98.7z M325.6,100.3
		c0.9,0,1.3,0,1.7,0.2c0.7,0.3,1.1,1,1.1,1.7c0,1-0.7,1.6-1.7,1.8c0.8,0.3,1,0.7,1.2,1.6c0.2,1.1,0.2,1.5,0.5,2.1h-1.2
		c-0.2-0.3-0.2-0.7-0.3-1c0-0.2-0.2-1-0.2-1.2c-0.2-1.1-0.8-1.2-1.9-1.2h-0.5v3.4h-1.1v-7.4H325.6z M324.4,103.4h1.2
		c0.5,0,1.7,0,1.7-1.2c0-0.3-0.1-0.6-0.3-0.8c-0.3-0.3-0.7-0.3-1.6-0.3h-1V103.4z"/>
</g>
<g>
	<g>
		<path d="M318.5-102.3h-1v-8.1h-2.9v-0.9h6.8v0.9h-2.9V-102.3z"/>
		<path d="M326.7-102.3l-3.1-8h0c0.1,0.6,0.1,1.4,0.1,2.3v5.7h-1v-9h1.6l2.9,7.4h0l2.9-7.4h1.6v9h-1v-5.8c0-0.7,0-1.4,0.1-2.2h0
			l-3.1,8H326.7z"/>
	</g>
</g>
<g>
	<g>
		<g>
			<path fill="#114A9F" d="M116.9,104.6l-7.6,40.7h-6.2l-13.7-35.2L83,145.3h-3l6-32.6c0.1-0.8,0.2-1.6,0.2-2.2
				c0-2.2-0.8-3.3-2.4-3.3c-0.3,0-0.5,0-0.8,0.1c-0.5,0.1-0.8-0.1-0.8-0.5c-0.1-0.4,0.2-0.7,0.7-0.9l13.5-2.6l12.3,30l5.3-28.6
				H116.9z"/>
		</g>
		<g>
			<path fill="#114A9F" d="M142.5,127.2l-17,3.7c-0.2,0.8-0.2,1.7-0.2,2.6c0,2.4,0.5,4.3,1.5,5.8c1.2,1.7,2.8,2.6,4.9,2.6
				c2.5,0,5.1-1.2,7.9-3.5l-0.8,4.2c-2.7,2.3-6.3,3.5-10.5,3.5c-3.6,0-6.4-0.9-8.5-2.8c-2-1.9-3.1-4.6-3.1-8c0-1.2,0.1-2.5,0.4-3.9
				c0.9-4.9,2.9-8.8,6-11.5c2.9-2.6,6.5-3.9,10.8-3.9c3.2,0,5.5,1.2,7.2,3.7C142.3,121.6,142.8,124.2,142.5,127.2z M137.1,126
				c0.1-0.9,0.1-1.7,0.1-2.4c0-3.8-1.3-5.8-3.9-5.8c-3.4,0-5.8,3.5-7.4,10.5L137.1,126z"/>
		</g>
		<g>
			<path fill="#114A9F" d="M176.9,115.5l-5.5,29.8h-8.5l0.4-2.2c-1.8,1.9-4.9,2.8-9.1,2.8c-2.8,0-4.9-1-6.3-3
				c-1.2-1.7-1.8-3.7-1.8-6.1c0-0.7,0.1-1.5,0.2-2.2l1.8-9.7c0.2-1,0.3-1.9,0.3-2.5c0-2-1.2-2.9-3.5-2.9c-0.5,0-0.6-0.3-0.5-0.8
				c0-0.4,0.3-0.7,0.8-0.7l13.2-2.4l-3.4,18.8c-0.4,2.1-0.6,3.7-0.6,4.6c0,2.4,1,3.5,2.9,3.5c2,0,3.8-0.8,5.2-2.5
				c1.3-1.5,2.2-3.4,2.7-5.8l1.7-9.3c0.2-1,0.3-1.9,0.3-2.5c0-2-1.2-2.9-3.6-2.9c-0.5,0-0.6-0.3-0.5-0.8c0.1-0.4,0.4-0.7,0.8-0.7
				L176.9,115.5z"/>
		</g>
		<g>
			<path fill="#F47920" d="M204.9,124.8h-6c0.1-0.7,0.2-1.4,0.2-2c0-3.2-1.3-4.8-3.8-4.8c-3.5,0-6,3.5-7.4,10.5
				c-0.3,1.5-0.4,3-0.4,4.4c0,2.7,0.5,4.8,1.4,6.4c1.1,1.7,2.7,2.6,4.7,2.6c2.5,0,5.1-1.2,7.8-3.5l-0.7,4.1
				c-2.8,2.3-6.4,3.5-10.7,3.5c-3.6,0-6.4-0.9-8.4-2.8c-2.1-1.9-3.1-4.6-3.1-8c0-1.2,0.1-2.5,0.4-3.9c0.9-4.9,2.9-8.8,6-11.5
				c2.9-2.6,6.5-3.9,10.7-3.9c2.7,0,4.9,0.7,6.7,2.2c1.8,1.5,2.7,3.3,2.7,5.4C205,123.9,204.9,124.4,204.9,124.8z"/>
		</g>
		<g>
			<path fill="#F47920" d="M233.7,131.3c-0.9,4.7-2.9,8.4-6,11c-2.9,2.5-6.5,3.7-10.7,3.7c-3.6,0-6.4-0.9-8.5-2.8
				c-2.1-1.9-3.1-4.6-3.1-8.1c0-1.2,0.1-2.4,0.4-3.8c0.9-4.9,2.9-8.8,6-11.5c2.9-2.6,6.5-3.9,10.8-3.9c3.6,0,6.4,1,8.4,2.9
				c2,1.9,3.1,4.7,3.1,8.4C234.1,128.4,234,129.8,233.7,131.3z M225.3,131.3c0.6-3.4,0.9-5.9,0.9-7.5c0-3.7-1.3-5.5-4-5.5
				c-2.4,0-4.2,1.5-5.6,4.4c-0.8,1.7-1.5,4.6-2.3,8.6c-0.5,2.8-0.8,4.9-0.8,6.1c0,3.4,1.4,5,4.1,5c2.4,0,4.2-1.2,5.5-3.7
				C223.9,137.3,224.6,134.8,225.3,131.3z"/>
		</g>
		<g>
			<path fill="#F47920" d="M261.8,117.4l-0.7,3.7c-3.5-1-6.4-1.5-8.8-1.5c-1.1,0-2.1,0.2-3.1,0.7c-1,0.5-1.6,1.1-1.8,1.8
				c-0.2,0.8,0.9,1.9,3.1,3.4c3.7,2.4,5.8,3.9,6.4,4.4c2.3,1.9,3.4,3.8,3.4,5.6c0,3.4-1.6,6-4.8,7.9c-2.9,1.7-6.3,2.5-10.3,2.5
				c-2.7,0-5.9-0.4-9.4-1.1l0.7-3.9c4,1,7.1,1.5,9.5,1.5c3.8,0,5.8-0.9,6.1-2.5c0.2-1-0.9-2.1-3-3.5c-4.2-2.7-6.3-4-6.5-4.1
				c-2.3-1.8-3.5-3.7-3.5-5.6c0-3.2,1.5-5.8,4.4-7.8c2.7-1.7,6-2.6,9.8-2.6C255.8,116.4,258.5,116.7,261.8,117.4z"/>
		</g>
		<g>
			<path fill="#114A9F" d="M277.1,127.7l-0.6,5.2h-11.4l0.6-5.2H277.1z"/>
		</g>
		<g>
			<path fill="#114A9F" d="M317.5,114.4c-0.8,4.1-4.3,7.2-10.7,9.3c6.1,1.2,9.1,4.1,9.1,8.8c0,0.7-0.1,1.3-0.2,2
				c-1.4,7.2-8.2,10.9-20.4,10.9h-12.3l6.3-33.7c0.2-1,0.2-1.9,0.2-2.5c0-2-1.2-2.9-3.5-2.9c-0.5,0-0.6-0.3-0.5-0.8
				c0.1-0.4,0.4-0.7,0.8-0.7h17.4c9.3,0,14,2.7,14,8C317.7,113.2,317.6,113.8,317.5,114.4z M307.5,133.4c0.1-0.7,0.2-1.4,0.2-2
				c0-4.1-2.6-6.1-7.9-6.1h-4.6l-3.1,16.7h4.9c3.1,0,5.5-0.7,7.1-2C305.9,138.6,307,136.4,307.5,133.4z M309,114.7
				c0.2-0.8,0.2-1.5,0.2-2.1c0-3.4-2.3-5.2-6.9-5.2h-3.7l-2.8,15h3.2C304.8,122.4,308.1,119.8,309,114.7z"/>
		</g>
	</g>
	<g>
		<g>
			<g>
				<g>
					<g>
						<path fill="#66CBF4" d="M108.5,137.9"/>
					</g>
					<g>
						<polygon fill="#66CBF4" points="45.8,85.6 48.4,82 65.6,94 63.1,97.6 45.8,85.6 						"/>
					</g>
					<g>
						<polygon fill="#66CBF4" points="78.2,70.7 82.6,69.9 85.9,85.8 81.6,86.7 78.2,70.7 						"/>
					</g>
					<g>
						<polygon fill="#66CBF4" points="46.2,118.9 59.7,116.6 60.5,120.9 47,123.2 46.2,118.9 						"/>
					</g>
					<g>
						<path fill="#F89B28" d="M71.4,68.8c-1.2-1.7-1.7-3.6-1.7-5.5l0,0c0-3.1,1.5-6.2,4.3-8.1l0,0c1.7-1.2,3.7-1.7,5.6-1.7l0,0
							c3.2,0,6.3,1.5,8.2,4.3l0,0l-1.8,1.2l-1.8,1.2c-1.1-1.5-2.8-2.3-4.5-2.4l0,0c-1.1,0-2.1,0.3-3.1,1l0,0c-1.6,1-2.4,2.7-2.4,4.5
							l0,0c0,1.1,0.3,2.1,1,3.1l0,0c1.1,1.5,2.8,2.3,4.5,2.3l0,0c1.1,0,2.1-0.3,3.1-1l0,0c1.5-1.1,2.4-2.7,2.4-4.5l0,0
							c0-1.1-0.3-2.1-1-3.1l0,0l1.8-1.2l1.8-1.2c1.2,1.7,1.7,3.6,1.7,5.5l0,0c0,3.1-1.5,6.2-4.3,8.1l0,0c-1.7,1.2-3.7,1.7-5.6,1.7
							l0,0c0,0,0,0,0,0l0,0C76.4,73,73.3,71.5,71.4,68.8L71.4,68.8z"/>
					</g>
					<g>
						<path fill="#EE75AB" d="M31.7,83.1c-0.5-1.2-0.8-2.5-0.8-3.7l0,0c0-3.8,2.3-7.5,6.1-9.1l0,0c1.2-0.5,2.5-0.7,3.8-0.7l0,0
							c3.9,0,7.6,2.3,9.2,6.1l0,0L48,76.5l2.1-0.8c0.5,1.2,0.8,2.5,0.8,3.7l0,0c0,3.8-2.3,7.5-6.1,9.1l0,0c-1.2,0.5-2.5,0.7-3.8,0.7
							l0,0C37,89.2,33.3,86.9,31.7,83.1L31.7,83.1z M38.8,74.4c-2.1,0.9-3.4,2.9-3.4,5l0,0c0,0.7,0.1,1.4,0.4,2.1l0,0
							c0.9,2.1,2.9,3.3,5.1,3.3l0,0c0.7,0,1.4-0.1,2.1-0.4l0,0c2.1-0.9,3.4-2.9,3.4-5l0,0c0-0.7-0.1-1.4-0.4-2.1l0,0h0
							C45.1,75.2,43,74,40.9,74l0,0C40.2,74,39.5,74.1,38.8,74.4L38.8,74.4z"/>
					</g>
					<g>
						<path fill="#A26AAD" d="M30.1,127.8c-1.2-1.7-1.7-3.6-1.7-5.5l0,0c0-3.1,1.5-6.2,4.3-8.1l0,0c1.7-1.2,3.7-1.7,5.6-1.7l0,0
							c3.2,0,6.3,1.5,8.2,4.2l0,0l-1.8,1.2l-1.8,1.2c-1.1-1.5-2.8-2.3-4.5-2.3l0,0c-1.1,0-2.1,0.3-3.1,1l0,0c-1.5,1-2.4,2.7-2.4,4.5
							l0,0c0,1.1,0.3,2.1,1,3.1l0,0c1.1,1.5,2.8,2.3,4.5,2.3l0,0c1.1,0,2.1-0.3,3.1-0.9l0,0c1.5-1,2.4-2.7,2.4-4.5l0,0
							c0-1.1-0.3-2.1-1-3.1l0,0l1.8-1.2l1.8-1.2c1.2,1.7,1.8,3.6,1.7,5.5l0,0c0,3.1-1.5,6.2-4.3,8.1l0,0c-1.7,1.2-3.7,1.7-5.6,1.7
							l0,0h0l0,0C35.1,132,32,130.5,30.1,127.8L30.1,127.8z"/>
					</g>
				</g>
			</g>
		</g>
		<g>
			<path fill="#66CBF4" d="M65.9,135.7c-5.6-6.1-8.5-13.8-8.5-21.5l0,0c0-8,3-16,9.1-22.2l0,0c6.3-6.4,14.7-9.7,23.2-9.7l0,0
				c7.7,0,15.5,2.8,21.7,8.3l0,0c0.8,0.7,0.8,1.9,0.1,2.7l0,0c-0.7,0.8-1.9,0.8-2.7,0.1l0,0c-5.4-4.9-12.2-7.3-19.1-7.3l0,0
				c-7.4,0-14.8,2.9-20.4,8.5l0,0c-5.4,5.5-8,12.5-8,19.5l0,0c0,6.8,2.5,13.6,7.4,18.9l0,0l0,0c0.7,0.8,0.7,2-0.1,2.7l0,0
				c-0.4,0.3-0.8,0.5-1.3,0.5l0,0C66.8,136.3,66.2,136.1,65.9,135.7L65.9,135.7z"/>
		</g>
	</g>
</g>
</svg>
