<?xml version="1.0" encoding="utf-8"?>
<!-- Generator: Adobe Illustrator 18.0.0, SVG Export Plug-In . SVG Version: 6.00 Build 0)  -->
<!DOCTYPE svg PUBLIC "-//W3C//DTD SVG 1.1//EN" "http://www.w3.org/Graphics/SVG/1.1/DTD/svg11.dtd">
<svg version="1.1" id="Layer_1" xmlns="http://www.w3.org/2000/svg" xmlns:xlink="http://www.w3.org/1999/xlink" x="0px" y="0px"
	 viewBox="0 0 360 216" enable-background="new 0 0 360 216" xml:space="preserve">
<rect fill="none" width="360" height="216"/>
<g>
	<path d="M325.7-86.3c-3.1,0-5.9-2.4-5.9-5.9c0-3.4,2.7-5.9,5.9-5.9c3.4,0,6,2.7,5.9,6C331.6-89,329.1-86.3,325.7-86.3z M325.7-97.7
		c-3.1,0-5.4,2.4-5.4,5.4c0,3,2.4,5.4,5.4,5.4c3,0,5.4-2.4,5.4-5.4C331.1-95.2,328.8-97.7,325.7-97.7z M325.6-96
		c0.9,0,1.3,0,1.7,0.2c0.7,0.3,1.1,1,1.1,1.7c0,1-0.7,1.6-1.7,1.8c0.8,0.3,1,0.7,1.2,1.6c0.2,1.1,0.2,1.5,0.5,2.1h-1.2
		c-0.2-0.3-0.2-0.7-0.3-1c0-0.2-0.2-1-0.2-1.2c-0.2-1.1-0.8-1.2-1.9-1.2h-0.5v3.4h-1.1V-96H325.6z M324.4-92.9h1.2
		c0.5,0,1.7,0,1.7-1.2c0-0.3-0.1-0.6-0.3-0.8c-0.3-0.3-0.7-0.3-1.6-0.3h-1V-92.9z"/>
</g>
<g>
	<g>
		<path d="M318.5,96h-1v-8.1h-2.9V87h6.8v0.9h-2.9V96z"/>
		<path d="M326.7,96l-3.1-8h0c0.1,0.6,0.1,1.4,0.1,2.3V96h-1v-9h1.6l2.9,7.4h0l2.9-7.4h1.6v9h-1v-5.8c0-0.7,0-1.4,0.1-2.2h0l-3.1,8
			H326.7z"/>
	</g>
</g>
<g>
	<g>
		<g>
			<g>
				<g>
					<g>
						<path fill="#005BAA" d="M62.9,130.7l-0.2-0.3c-5.1-8.6-10.6-17.2-15.9-25.5c-3.2-5-6.4-10-9.5-15l-0.2,3.9
							c-0.5,11.8-1,24.1-1.2,36.2l0,0.6h-7.5l0-0.7c1.1-14.8,1.7-30.7,2.1-49.8l0-0.6h9.3l0.2,0.3c5.4,9.4,11.3,18.6,17.1,27.6
							c2.8,4.4,5.7,8.9,8.4,13.3c0.1-4.4,0.3-9.4,0.5-14.3c0.4-10.1,0.8-20.6,0.8-26.3l0-0.6h7.6l0,0.7c-1.2,17.6-1.8,35-2.1,49.8
							l0,0.6H62.9z"/>
					</g>
					<g>
						<g>
							<path fill="#005BAA" d="M96.3,131.5c-11,0-18.1-7.5-18.1-19c0-12.9,7.4-20.9,19.3-20.9c11.1,0,18,7.2,18,18.8
								C115.4,120.6,110.3,131.5,96.3,131.5z M96.9,97.5c-7.2,0-11.5,5.7-11.5,15.2c0,3.9,1.1,12.9,11,12.9
								c10.5,0,11.7-10.7,11.7-15.3C108.1,104.5,106.1,97.5,96.9,97.5z"/>
						</g>
					</g>
					<g>
						<path fill="#005BAA" d="M198.8,131.5c-6.4,0-9.3-2.9-9.3-9.5c0-2.3,0.3-7,0.5-12c0.2-3.9,0.4-8.1,0.6-11.6H186l0.2-5.9h4.8
							l0.4-6.7l6.9-1.6l-0.3,8.2h9.6l-0.2,5.9h-9.6c-0.1,2.2-0.2,4.7-0.3,7.2c-0.3,5.3-0.5,10.9-0.5,14c0,3.7,0.6,5.7,3.7,5.7
							c2.2,0,3.9-0.5,5.4-0.9l0.9-0.3l-1,6.4l-0.4,0.1C202.9,131.2,200.7,131.5,198.8,131.5z"/>
					</g>
					<g>
						<path fill="#005BAA" d="M212.9,130.7l0.2-4.5c0.5-9.6,1.1-19.5,1-33.2v-0.6h7.2l-0.2,4.3c2.3-3.5,5.5-5.1,10-5.1
							c0.9,0,1.9,0.1,2.9,0.4l0.4,0.1l0.3,6.8l-0.8-0.2c-1.3-0.4-2.6-0.6-3.8-0.6c-4.8,0-8.1,3.7-9,9.8c-0.7,4.7-0.7,13.2-0.7,22.2
							v0.6H212.9z"/>
					</g>
					<g>
						<g>
							<path fill="#005BAA" d="M252.6,131.5c-11,0-18.1-7.5-18.1-19c0-12.9,7.4-20.9,19.2-20.9c11.1,0,18,7.2,18,18.8
								C271.7,120.6,266.7,131.5,252.6,131.5z M253.2,97.5c-7.2,0-11.5,5.7-11.5,15.2c0,3.9,1.1,12.9,11,12.9
								c10.5,0,11.7-10.7,11.7-15.3C264.4,104.5,262.5,97.5,253.2,97.5z"/>
						</g>
					</g>
					<g>
						<path fill="#005BAA" d="M304.6,130.7l0.1-1.2c0.3-4.7,1.1-17.2,1.1-23.4c0-5.5-2.9-8.2-8.8-8.2c-5.7,0-9.8,3.5-11,9.4
							c-1.2,5.8-1.3,16.2-1.4,21.1l0,2.2h-7.6l0-0.7c0.8-11.8,1.6-24.4,1.8-36.9l0-0.6h7.4l-0.3,5.2c2.8-4.1,7.1-6,13.4-6
							c9.1,0,13.9,4.2,13.9,12.2c0,1.1-0.2,5-0.4,9.6c-0.3,6-0.6,13.1-0.6,16.6l0,0.6H304.6z"/>
					</g>
				</g>
			</g>
			<g>
				<path fill="#F04E23" d="M168.1,81.7c0,0-11,0.6-16.2,18c-5.2,17.4-13.1,30-32.4,30c10.1-2.6,16.9-10.3,20.1-24.9
					C143,89.2,150.1,81.7,168.1,81.7z"/>
				<path fill="#005BAA" d="M122.3,127c0,0,11.7-27.3-15.9-40.1c13.7-0.8,23.8,1.6,26.3,17.4C134.1,112.4,127.7,123.4,122.3,127z"/>
			</g>
			<path fill="#005BAA" d="M164.2,131.5c-8.9,0-13.5-3.5-13.5-10.4c0-9.1,8.2-11.2,15.4-13c5.5-1.4,10.3-2.6,10.3-6.6
				c0-3.9-4.1-4.7-7.5-4.7c-4.1,0-7.2,1-11,2.6l-1.2,0.5l0.1-1.2c0.2-0.9,0.9-3.3,1.8-5.2l0.1-0.3l1.1-0.3c3.6-0.9,6.1-1.4,9.9-1.4
				c12.4,0,14,5.5,14,10.2c0,2.5-0.2,6.8-0.5,11.6c-0.3,5.7-0.6,12.2-0.6,16.7v0.6h-7.6l0.1-0.7c0.5-4.3,0.8-10.3,1-16.1l0.2-4
				c-2,1.4-4.8,2.2-7.8,3.1c-5.4,1.6-10.9,3.2-10.9,8.1c0,5,5.6,5.3,7.3,5.3c2.2,0,4.6-0.4,7.1-1.3l1.1-0.4l-1.5,6l-0.4,0.1
				C168.7,131.2,166.4,131.5,164.2,131.5z"/>
		</g>
	</g>
</g>
</svg>
