<?xml version="1.0" encoding="utf-8"?>
<!-- Generator: Adobe Illustrator 18.0.0, SVG Export Plug-In . SVG Version: 6.00 Build 0)  -->
<!DOCTYPE svg PUBLIC "-//W3C//DTD SVG 1.1//EN" "http://www.w3.org/Graphics/SVG/1.1/DTD/svg11.dtd">
<svg version="1.1" id="Layer_1" xmlns="http://www.w3.org/2000/svg" xmlns:xlink="http://www.w3.org/1999/xlink" x="0px" y="0px"
	 viewBox="0 0 360 216" enable-background="new 0 0 360 216" xml:space="preserve">
<rect fill="none" width="360" height="216"/>
<g>
	<path d="M282.1,130.3c-2.7,0-5.2-2.1-5.2-5.2c0-3,2.4-5.2,5.2-5.2c3,0,5.2,2.4,5.2,5.2C287.3,128.1,285,130.3,282.1,130.3z
		 M282.1,120.4c-2.7,0-4.8,2.1-4.8,4.7c0,2.7,2.1,4.7,4.7,4.7c2.7,0,4.7-2.1,4.7-4.7C286.9,122.6,284.8,120.4,282.1,120.4z
		 M282,121.9c0.8,0,1.1,0,1.5,0.1c0.7,0.3,1,0.9,1,1.5c0,0.9-0.7,1.4-1.5,1.6c0.7,0.3,0.9,0.6,1,1.4c0.1,0.9,0.2,1.3,0.5,1.9h-1.1
		c-0.1-0.3-0.2-0.6-0.3-0.9c0-0.1-0.1-0.9-0.2-1c-0.2-1-0.7-1.1-1.6-1.1H281v3H280v-6.5H282z M281,124.6h1.1c0.4,0,1.5,0,1.5-1
		c0-0.3-0.1-0.6-0.3-0.7c-0.3-0.2-0.6-0.2-1.4-0.2H281V124.6z"/>
</g>
<g>
	<g>
		<path d="M303.5-26.4h-1v-8.1h-2.9v-0.9h6.8v0.9h-2.9V-26.4z"/>
		<path d="M311.7-26.4l-3.1-8h0c0.1,0.6,0.1,1.4,0.1,2.3v5.7h-1v-9h1.6l2.9,7.4h0l2.9-7.4h1.6v9h-1v-5.8c0-0.7,0-1.4,0.1-2.2h0
			l-3.1,8H311.7z"/>
	</g>
</g>
<g>
	<g>
		<g>
			<g>
				<path fill="#ED1C24" d="M294.4,133.3c-0.1,4.6,5.4,7.9,12.4,7.3c7-0.6,12.8-4.8,12.9-9.4c0.1-4.6-5.4-7.9-12.4-7.3
					C300.3,124.5,294.5,128.7,294.4,133.3z"/>
				<path fill="#ED1C24" d="M309.4,112.2c-0.1,4.1,4.8,7.1,11.1,6.6c6.3-0.5,11.4-4.3,11.6-8.4c0.1-4.1-4.8-7.1-11.1-6.6
					C314.7,104.4,309.5,108.1,309.4,112.2z"/>
				<path fill="#ED1C24" d="M311,92.6c-0.1,3.7,4.3,6.3,9.9,5.9c5.6-0.5,10.2-3.8,10.3-7.5c0.1-3.7-4.3-6.3-9.9-5.9
					C315.7,85.5,311.1,88.9,311,92.6z"/>
				<path fill="#ED1C24" d="M301.8,76.9c-0.1,3.3,3.9,5.7,9,5.3c5.1-0.4,9.2-3.5,9.3-6.8c0.1-3.3-3.9-5.7-9-5.3
					C306.1,70.5,301.9,73.6,301.8,76.9z"/>
				<path fill="#ED1C24" d="M286.2,66.5c-0.1,3,3.5,5.2,8.1,4.8c4.6-0.4,8.4-3.1,8.4-6.1c0.1-3-3.5-5.2-8.1-4.8
					C290.1,60.8,286.3,63.5,286.2,66.5z"/>
				<path fill="#ED1C24" d="M266.8,61.5c-0.1,2.7,3.2,4.7,7.3,4.3c4.1-0.3,7.5-2.8,7.6-5.6c0.1-2.7-3.2-4.7-7.3-4.3
					C270.3,56.3,266.9,58.8,266.8,61.5z"/>
				<path fill="#ED1C24" d="M244.4,61.1c-0.1,2.4,2.8,4.1,6.5,3.8c3.7-0.3,6.7-2.5,6.8-4.9c0.1-2.4-2.8-4.1-6.5-3.8
					C247.5,56.5,244.4,58.7,244.4,61.1z"/>
				<path fill="#ED1C24" d="M222.6,65.4c-0.1,2.2,2.6,3.8,6,3.5c3.4-0.3,6.2-2.3,6.2-4.5c0.1-2.2-2.6-3.8-6-3.5
					C225.5,61.1,222.7,63.1,222.6,65.4z"/>
				<path fill="#ED1C24" d="M204.5,73.2c-0.1,2,2.3,3.4,5.3,3.1c3-0.2,5.5-2,5.5-4c0.1-2-2.3-3.4-5.3-3.1
					C207,69.4,204.6,71.2,204.5,73.2z"/>
				<path fill="#ED1C24" d="M189.8,82.8c-0.1,1.7,2,3,4.7,2.8c2.7-0.2,4.8-1.8,4.9-3.6c0.1-1.7-2-3-4.7-2.8
					C192,79.4,189.8,81,189.8,82.8z"/>
				<path fill="#ED1C24" d="M180.8,92.3c-0.1,1.5,1.8,2.7,4.2,2.5c2.3-0.2,4.3-1.6,4.3-3.2c0-1.6-1.8-2.7-4.2-2.5
					C182.7,89.4,180.8,90.8,180.8,92.3z"/>
				<path fill="#ED1C24" d="M175,102.5c0,1.3,1.5,2.3,3.5,2.1c2-0.2,3.7-1.4,3.7-2.7c0-1.3-1.5-2.3-3.5-2.1
					C176.7,99.9,175,101.2,175,102.5z"/>
			</g>
			<path fill="#2E3192" d="M28.2,159v-47.5H47c2.9,0,5.4,0.2,7.3,0.6c1.9,0.4,3.5,1,4.8,1.9c2.1,1.4,3.6,3.2,4.7,5.3
				c1.1,2.1,1.6,4.6,1.6,7.3c0,4.5-1.5,8.2-4.4,11c-2.9,2.8-6.7,4.2-11.5,4.2h-7.8V159H28.2z M41.7,131.6h3.6c1.8,0,3.2-0.4,4.2-1.2
				c1-0.8,1.5-2,1.5-3.4c0-1.5-0.4-2.6-1.3-3.4c-0.8-0.8-2.1-1.2-3.7-1.2h-4.4V131.6z"/>
			<path fill="#2E3192" d="M90.3,159c-0.2-0.7-0.3-1.4-0.4-2.2c-0.1-0.8-0.3-1.2-0.3-1.2c-0.7,1.3-1.5,1.9-3.7,3
				c-1.8,0.9-4.3,1.5-6.7,1.5c-3.6,0-6.5-1-8.6-2.9c-2.1-1.9-3.1-4.5-3.1-7.8c0-4.2,1.8-7.4,5.5-9.7c3.7-2.3,9.1-3.5,16.3-3.7v-1.1
				c0-1.3-0.3-2.3-1-2.9c-0.7-0.6-1.7-0.9-3.2-0.9c-1.4,0-2.6,0.4-3.5,1.2c-0.9,0.8-1.4,1.8-1.6,3l-11.6-1.2
				c0.9-3.7,2.8-6.5,5.7-8.3c2.9-1.8,6.9-2.7,11.9-2.7c5.6,0,9.7,1,12.1,3.1c2.4,2.1,3.6,5.6,3.6,10.5v16.1c0,1.4,0.1,2.7,0.2,3.8
				c0.2,1.1,0.4,2,0.8,2.7H90.3z M89.4,142.2c-2.8,0.3-4.9,1-6.4,2.1c-1.5,1-2.2,2.4-2.2,3.9c0,1.2,0.3,2,0.9,2.6
				c0.6,0.6,1.5,0.9,2.8,0.9c1.6,0,2.8-0.5,3.6-1.5c0.9-1,1.3-2.3,1.3-4.1V142.2z"/>
			<path fill="#2E3192" d="M107.6,159v-35.2h11.6v5c0.9-2,2.1-3.4,3.7-4.4c1.6-1,3.5-1.5,5.6-1.5c3.7,0,6.4,1,8,3.1
				c1.7,2,2.5,5.4,2.5,9.9V159h-12.5v-21.7c0-1.7-0.2-2.9-0.7-3.7c-0.5-0.8-1.2-1.2-2.3-1.2c-1.1,0-1.9,0.4-2.6,1.3
				c-0.6,0.9-0.9,2.1-0.9,3.7V159H107.6z"/>
			<path fill="#2E3192" d="M146.7,148.6v-15.9h-5v-8.9h5.5l0-12h11.9v12h6.2v1.2l-6.2,7.7v13.9c0,1.2,0.2,2,0.7,2.5
				c0.5,0.5,1.2,0.7,2.3,0.7c0.4,0,0.9-0.1,1.5-0.2c0.6-0.1,1.2-0.3,2-0.4v9.8c-1.3,0.3-2.6,0.6-3.9,0.7c-1.3,0.2-2.5,0.3-3.7,0.3
				c-3.9,0-6.8-0.9-8.7-2.8C147.6,155.4,146.7,152.5,146.7,148.6z"/>
			<path fill="#2E3192" d="M170.4,159v-35.2h12.9V159H170.4z"/>
			<path fill="#2E3192" d="M220.5,123.9V159h-11.6v-5c-0.9,2-2.1,3.5-3.7,4.5c-1.6,1-3.4,1.5-5.6,1.5c-3.7,0-6.4-1-8-3.1
				c-1.7-2.1-2.5-5.4-2.5-9.9v-23.2h12.5v21.7c0,1.7,0.2,2.9,0.7,3.7c0.5,0.8,1.2,1.2,2.3,1.2c1.1,0,1.9-0.4,2.5-1.3
				c0.6-0.9,0.9-2.1,0.9-3.7v-21.6H220.5z"/>
			<g>
				<path fill="#2E3192" d="M256.2,128.1c1.2-1.7,2.7-3,4.3-3.8c1.6-0.8,3.5-1.3,5.6-1.3c3.2,0,5.7,0.9,7.4,2.7
					c1.7,1.8,2.5,4.4,2.5,7.8V159h-12.4v-22.5c0-1.2-0.2-2.2-0.7-2.8c-0.5-0.6-1.2-0.9-2.3-0.9c-1.1,0-1.9,0.4-2.5,1.3
					c-0.6,0.8-0.9,2.1-0.9,3.6V159H245v-22.2c0-1.4-0.2-2.5-0.7-3.1c-0.5-0.6-1.2-0.9-2.3-0.9c-0.9,0-1.7,0.3-2.2,1
					c-0.5,0.7-0.8,1.6-0.8,2.8V159h-12.3v-35.2h11.4v4.7c1.1-1.8,2.4-3.2,3.9-4.1c1.5-0.9,3.2-1.4,5.1-1.4c2.2,0,4,0.4,5.4,1.2
					C254,125,255.2,126.3,256.2,128.1z"/>
			</g>
			<polygon fill="#ED1C24" points="170.9,121.1 177,112.2 177,112.2 187.2,116.9 			"/>
		</g>
	</g>
</g>
</svg>
