<?xml version="1.0" encoding="utf-8"?>
<!-- Generator: Adobe Illustrator 18.0.0, SVG Export Plug-In . SVG Version: 6.00 Build 0)  -->
<!DOCTYPE svg PUBLIC "-//W3C//DTD SVG 1.1//EN" "http://www.w3.org/Graphics/SVG/1.1/DTD/svg11.dtd">
<svg version="1.1" id="Layer_1" xmlns="http://www.w3.org/2000/svg" xmlns:xlink="http://www.w3.org/1999/xlink" x="0px" y="0px"
	 viewBox="0 0 360 216" enable-background="new 0 0 360 216" xml:space="preserve">
<rect fill="none" width="360" height="216"/>
<g>
	<path d="M325.7-86.3c-3.1,0-5.9-2.4-5.9-5.9c0-3.4,2.7-5.9,5.9-5.9c3.4,0,6,2.7,5.9,6C331.6-89,329.1-86.3,325.7-86.3z M325.7-97.7
		c-3.1,0-5.4,2.4-5.4,5.4c0,3,2.4,5.4,5.4,5.4c3,0,5.4-2.4,5.4-5.4C331.1-95.2,328.8-97.7,325.7-97.7z M325.6-96
		c0.9,0,1.3,0,1.7,0.2c0.7,0.3,1.1,1,1.1,1.7c0,1-0.7,1.6-1.7,1.8c0.8,0.3,1,0.7,1.2,1.6c0.2,1.1,0.2,1.5,0.5,2.1h-1.2
		c-0.2-0.3-0.2-0.7-0.3-1c0-0.2-0.2-1-0.2-1.2c-0.2-1.1-0.8-1.2-1.9-1.2h-0.5v3.4h-1.1V-96H325.6z M324.4-92.9h1.2
		c0.5,0,1.7,0,1.7-1.2c0-0.3-0.1-0.6-0.3-0.8c-0.3-0.3-0.7-0.3-1.6-0.3h-1V-92.9z"/>
</g>
<g>
	<g>
		<path d="M318.5,105.7h-1v-8.1h-2.9v-0.9h6.8v0.9h-2.9V105.7z"/>
		<path d="M326.7,105.7l-3.1-8h0c0.1,0.6,0.1,1.4,0.1,2.3v5.7h-1v-9h1.6l2.9,7.4h0l2.9-7.4h1.6v9h-1v-5.8c0-0.7,0-1.4,0.1-2.2h0
			l-3.1,8H326.7z"/>
	</g>
</g>
<g>
	<g>
		<path fill="#58595B" d="M79.7,91.9c0,9.7-3.9,17-11.6,21.9c-6.7,4.2-15.8,6.3-27.1,6.3l-0.4,26.2l-11.9,1.4V63.7h16.3
			c10.3,0,18.5,2.4,24.7,7.1C76.4,75.8,79.7,82.8,79.7,91.9z M67.6,91.7c0-6.1-2.1-10.7-6.2-13.9c-3.9-2.9-9.3-4.3-16.3-4.3h-4.5
			v36.3c1.2,0.2,2.9,0.2,5.2,0.2c6.5,0,11.8-1.6,15.8-4.8C65.6,102,67.6,97.5,67.6,91.7z"/>
		<path fill="#58595B" d="M113,111.6h-3.4c-6,0-8.9,3.8-8.9,11.3v23.2l-11,1.5v-44.7l11-1.4v3.8c3.1-2.5,7.2-3.8,12.4-3.8V111.6z"/>
		<path fill="#58595B" d="M164.5,113.1l-34.3,19c3,3.8,6.8,5.7,11.5,5.7c4.9,0,10.1-2,15.5-6l2.8,9.3c-5.5,4.4-11.7,6.6-18.5,6.6
			c-7,0-12.9-2.3-17.7-7c-4.7-4.7-7.1-10.2-7.1-16.6c0-6.6,2.4-12.1,7.1-16.6c4.7-4.5,10.8-6.7,18.2-6.7c5.1,0,9.5,1.1,13.1,3.4
			C158.1,105.8,161.2,108.8,164.5,113.1z M149.3,111.5c-2.6-1.4-5.1-2-7.8-2c-4,0-7.4,1.4-10.3,4.2c-2.9,2.8-4.3,5.9-4.3,9.5
			l0.4,3.1l-1.1-1.5L149.3,111.5z"/>
		<path fill="#58595B" d="M209.7,141.8c-5.9,3.8-11.8,5.8-17.4,5.8c-7.4,0-13.6-2.3-18.5-6.8c-4.9-4.5-7.4-10.1-7.4-16.7
			c0-6.7,2.5-12.2,7.4-16.7c4.9-4.5,11.1-6.7,18.5-6.7c5.6,0,11.4,1.5,17.4,4.6l-4.1,8.9c-5.2-2.7-9.6-4.1-13.4-4.1
			c-4.3,0-7.8,1.4-10.5,4.1c-2.8,2.7-4.1,6.1-4.1,9.9c0,3.8,1.4,7,4.3,9.7c2.8,2.7,6.3,4,10.5,4c4.1,0,8.7-1.7,13.9-5.2L209.7,141.8
			z"/>
		<path fill="#58595B" d="M313.4,146.1l-11.2,1.5v-27.2c0-6.5-2.6-9.7-8-9.7c-3.1,0-5.5,1.2-7.2,3.5c-1.4,2-2.2,4.4-2.2,7.3v24.5
			l-10.9,1.5v-44.7l10.9-1.4v3.5c3.6-2.6,7.8-3.9,12.5-3.9c10.7,0,16.1,6.1,16.1,18.2V146.1z"/>
		<g>
			<path fill="#8C1579" d="M264.4,124.1c0,6.5-2.5,12-7.4,16.6c-4.9,4.6-10.9,6.9-18.1,6.9c-7.2,0-13.2-2.3-18-6.8
				c-4.8-4.5-7.2-10.1-7.2-16.7c0-6.6,2.4-12.2,7.3-16.7c4.8-4.5,10.8-6.8,17.9-6.8c7,0,13,2.3,18,6.9
				C261.9,112.1,264.4,117.6,264.4,124.1z"/>
			<g>
				<path fill="#FFFFFF" d="M265.6,127.7h-16.2c0,0-0.7-7.6-3.7,0.5c-1.7-1.7-2.6-2.2-3.4,3.1c-2.1-10.6-2-11.4-3.2-11.4
					c-1.2,0-2,7.4-2,7.4c-1.4,0-2.2,0-2.2,0s-1.1-4.7-3.2,0.2c-4.7,0-6.5,0-6.5,0s-1.4-3.3-1.4-7c0-3.8,3.7-9.2,8.4-9.2
					c4.8,0,7.1,4.2,7.1,4.2c2.5-4.8,6.7-4.2,7.3-4.2c0.6,0,5.3,0.3,7.2,5.6c1.6,4.4,0.3,8.8,0.3,8.8L265.6,127.7z"/>
				<path fill="#FFFFFF" d="M212.2,129.1l15.1,2.4c0,0,4,6.1,11.8,11.5c7.7-5.9,11.8-11.2,13.5-13.9c-2.7,0-4.1,0-4.1,0
					s-0.3-4.2-2.2,1.3c-0.2,0.5-1.9-2.5-2.3,0.5c-0.4,3-1.5,6.8-1.5,6.8S239,125,239,124.8c0-0.2-0.8,7.2-1.9,7.3
					c-1.1,0.1-1.5-3.1-1.5-3.1l-2.1-0.2c0,0,0.1-2.3-1,0.7C229.7,129.5,212.2,129.1,212.2,129.1z"/>
			</g>
		</g>
	</g>
</g>
<g>
	<g>
		<g>
			<text transform="matrix(0.95 0 0 1 489.4492 377.104)" font-family="'Imago-Light'" font-size="5.736">TM</text>
		</g>
		<g>
			<g>
				<g>
					<g>
						<path fill="#58595B" d="M411.5,374c0,3.3-1.3,5.8-3.9,7.4c-2.3,1.4-5.4,2.1-9.2,2.1l-0.1,8.9l-4,0.5v-28.5h5.6
							c3.5,0,6.3,0.8,8.4,2.4C410.4,368.5,411.5,370.9,411.5,374z M407.4,373.9c0-2.1-0.7-3.6-2.1-4.7c-1.3-1-3.2-1.5-5.6-1.5h-1.5
							v12.3c0.4,0.1,1,0.1,1.8,0.1c2.2,0,4-0.5,5.4-1.6C406.7,377.4,407.4,375.9,407.4,373.9z"/>
					</g>
				</g>
				<g>
					<g>
						<path fill="#58595B" d="M422.8,380.7h-1.2c-2,0-3,1.3-3,3.8v7.9l-3.7,0.5v-15.2l3.7-0.5v1.3c1-0.8,2.4-1.3,4.2-1.3V380.7z"/>
					</g>
				</g>
				<g>
					<g>
						<path fill="#58595B" d="M440.3,381.2l-11.7,6.5c1,1.3,2.3,1.9,3.9,1.9c1.7,0,3.4-0.7,5.3-2.1l1,3.2c-1.9,1.5-4,2.2-6.3,2.2
							c-2.4,0-4.4-0.8-6-2.4c-1.6-1.6-2.4-3.5-2.4-5.6c0-2.2,0.8-4.1,2.4-5.6c1.6-1.5,3.7-2.3,6.2-2.3c1.7,0,3.2,0.4,4.5,1.2
							C438.2,378.7,439.2,379.7,440.3,381.2z M435.2,380.6c-0.9-0.5-1.8-0.7-2.6-0.7c-1.4,0-2.5,0.5-3.5,1.4c-1,0.9-1.5,2-1.5,3.2
							l0.1,1l-0.4-0.5L435.2,380.6z"/>
					</g>
				</g>
				<g>
					<g>
						<path fill="#58595B" d="M455.7,391c-2,1.3-4,2-5.9,2c-2.5,0-4.6-0.8-6.3-2.3c-1.7-1.5-2.5-3.4-2.5-5.7c0-2.3,0.8-4.2,2.5-5.7
							c1.7-1.5,3.8-2.3,6.3-2.3c1.9,0,3.9,0.5,5.9,1.5l-1.4,3c-1.8-0.9-3.3-1.4-4.5-1.4c-1.4,0-2.6,0.5-3.6,1.4
							c-0.9,0.9-1.4,2.1-1.4,3.4c0,1.3,0.5,2.4,1.5,3.3c1,0.9,2.2,1.4,3.6,1.4c1.4,0,3-0.6,4.7-1.8L455.7,391z"/>
					</g>
				</g>
				<path fill="#8C1579" d="M474.3,384.9c0,2.2-0.8,4.1-2.5,5.7c-1.7,1.6-3.7,2.3-6.1,2.3c-2.4,0-4.5-0.8-6.1-2.3
					c-1.6-1.5-2.4-3.4-2.4-5.7c0-2.2,0.8-4.1,2.5-5.7c1.6-1.5,3.7-2.3,6.1-2.3c2.4,0,4.4,0.8,6.1,2.4
					C473.5,380.9,474.3,382.7,474.3,384.9z"/>
				<g>
					<g>
						<path fill="#58595B" d="M491,392.4l-3.8,0.5v-9.2c0-2.2-0.9-3.3-2.7-3.3c-1.1,0-1.9,0.4-2.5,1.2c-0.5,0.7-0.7,1.5-0.7,2.5v8.3
							l-3.7,0.5v-15.2l3.7-0.5v1.2c1.2-0.9,2.7-1.3,4.2-1.3c3.6,0,5.5,2.1,5.5,6.2V392.4z"/>
					</g>
				</g>
			</g>
		</g>
		<g>
			<text transform="matrix(1.07 0 0 1 417.0527 403.3301)" font-family="'Imago-Light'" font-size="7.4568">Losartan Potassium &amp; Hydrochlorothiazide</text>
		</g>
		<g>
			<path fill="#FFFFFF" d="M474.7,386.1h-5.5c0,0-0.3-2.6-1.2,0.2c-0.6-0.6-0.9-0.7-1.2,1.1c-0.7-3.6-0.7-3.9-1.1-3.9
				c-0.4,0-0.7,2.5-0.7,2.5c-0.5,0-0.7,0-0.7,0s-0.4-1.6-1.1,0.1c-1.6,0-2.2,0-2.2,0s-0.5-1.1-0.5-2.4c0-1.3,1.2-3.1,2.9-3.1
				c1.6,0,2.4,1.4,2.4,1.4c0.8-1.6,2.3-1.4,2.5-1.4c0.2,0,1.8,0.1,2.4,1.9c0.5,1.5,0.1,3,0.1,3L474.7,386.1z"/>
			<path fill="#FFFFFF" d="M456.6,386.6l5.1,0.8c0,0,1.4,2.1,4,3.9c2.6-2,4-3.8,4.6-4.7c-0.9,0-1.4,0-1.4,0s-0.1-1.4-0.7,0.4
				c-0.1,0.2-0.7-0.9-0.8,0.2c-0.1,1-0.5,2.3-0.5,2.3s-1.2-4.3-1.2-4.4c0-0.1-0.3,2.4-0.6,2.5c-0.4,0-0.5-1.1-0.5-1.1l-0.7-0.1
				c0,0,0-0.8-0.3,0.2C462.5,386.8,456.6,386.6,456.6,386.6z"/>
		</g>
	</g>
	<text transform="matrix(0.9 0 0 1 502.5146 392.8945)" fill="#8C1579" font-family="'BanglaMN'" font-size="32.7878">Plus</text>
</g>
</svg>
