<?xml version="1.0" encoding="utf-8"?>
<!-- Generator: Adobe Illustrator 18.0.0, SVG Export Plug-In . SVG Version: 6.00 Build 0)  -->
<!DOCTYPE svg PUBLIC "-//W3C//DTD SVG 1.1//EN" "http://www.w3.org/Graphics/SVG/1.1/DTD/svg11.dtd">
<svg version="1.1" id="Layer_1" xmlns="http://www.w3.org/2000/svg" xmlns:xlink="http://www.w3.org/1999/xlink" x="0px" y="0px"
	 viewBox="0 0 360 216" enable-background="new 0 0 360 216" xml:space="preserve">
<rect fill="none" width="360" height="216"/>
<g>
	<path d="M325.7-86.3c-3.1,0-5.9-2.4-5.9-5.9c0-3.4,2.7-5.9,5.9-5.9c3.4,0,6,2.7,5.9,6C331.6-89,329.1-86.3,325.7-86.3z M325.7-97.7
		c-3.1,0-5.4,2.4-5.4,5.4c0,3,2.4,5.4,5.4,5.4c3,0,5.4-2.4,5.4-5.4C331.1-95.2,328.8-97.7,325.7-97.7z M325.6-96
		c0.9,0,1.3,0,1.7,0.2c0.7,0.3,1.1,1,1.1,1.7c0,1-0.7,1.6-1.7,1.8c0.8,0.3,1,0.7,1.2,1.6c0.2,1.1,0.2,1.5,0.5,2.1h-1.2
		c-0.2-0.3-0.2-0.7-0.3-1c0-0.2-0.2-1-0.2-1.2c-0.2-1.1-0.8-1.2-1.9-1.2h-0.5v3.4h-1.1V-96H325.6z M324.4-92.9h1.2
		c0.5,0,1.7,0,1.7-1.2c0-0.3-0.1-0.6-0.3-0.8c-0.3-0.3-0.7-0.3-1.6-0.3h-1V-92.9z"/>
</g>
<g>
	<g>
		<path d="M212.2,105.2h-0.9v-6.8H209v-0.8h5.7v0.8h-2.4V105.2z"/>
		<path d="M219.1,105.2l-2.6-6.7h0c0,0.5,0.1,1.2,0.1,1.9v4.8h-0.8v-7.6h1.3l2.4,6.2h0l2.4-6.2h1.3v7.6h-0.9v-4.9
			c0-0.6,0-1.2,0.1-1.8h0l-2.6,6.7H219.1z"/>
	</g>
</g>
<g>
	<g>
		<g>
			<g>
				<g>
					<g>
						<path fill="#58595B" d="M61.3,95.3c0,6.2-2.5,10.8-7.4,13.9c-4.3,2.7-10,4-17.3,4l-0.2,16.7l-7.6,0.9V77.4h10.4
							c6.6,0,11.8,1.5,15.8,4.5C59.2,85.1,61.3,89.6,61.3,95.3z M53.6,95.2c0-3.9-1.3-6.8-4-8.8c-2.5-1.8-6-2.8-10.4-2.8h-2.8v23.1
							c0.8,0.1,1.9,0.1,3.3,0.1c4.2,0,7.5-1,10.1-3.1C52.3,101.8,53.6,98.9,53.6,95.2z"/>
					</g>
				</g>
				<g>
					<g>
						<path fill="#58595B" d="M82.5,107.9h-2.2c-3.8,0-5.7,2.4-5.7,7.2v14.8l-7,0.9v-28.5l7-0.9v2.4c2-1.6,4.6-2.4,7.9-2.4V107.9z"
							/>
					</g>
				</g>
				<g>
					<g>
						<path fill="#58595B" d="M115.2,108.8L93.4,121c1.9,2.4,4.3,3.6,7.3,3.6c3.1,0,6.4-1.3,9.9-3.8l1.8,5.9
							c-3.5,2.8-7.4,4.2-11.8,4.2c-4.5,0-8.2-1.5-11.2-4.5c-3-3-4.5-6.5-4.5-10.6c0-4.2,1.5-7.7,4.5-10.6c3-2.8,6.9-4.3,11.6-4.3
							c3.2,0,6,0.7,8.4,2.2C111.2,104.2,113.1,106.1,115.2,108.8z M105.6,107.8c-1.6-0.9-3.3-1.3-5-1.3c-2.5,0-4.7,0.9-6.6,2.6
							c-1.8,1.8-2.8,3.8-2.8,6l0.2,2l-0.7-0.9L105.6,107.8z"/>
					</g>
				</g>
				<g>
					<g>
						<path fill="#58595B" d="M144,127.1c-3.8,2.4-7.5,3.7-11.1,3.7c-4.7,0-8.6-1.4-11.8-4.3c-3.1-2.9-4.7-6.4-4.7-10.7
							c0-4.2,1.6-7.8,4.7-10.6c3.1-2.8,7.1-4.3,11.8-4.3c3.6,0,7.3,1,11.1,2.9l-2.6,5.6c-3.3-1.7-6.1-2.6-8.5-2.6
							c-2.7,0-4.9,0.9-6.7,2.6c-1.8,1.8-2.6,3.9-2.6,6.3c0,2.4,0.9,4.5,2.7,6.2c1.8,1.7,4,2.6,6.7,2.6c2.6,0,5.5-1.1,8.8-3.3
							L144,127.1z"/>
					</g>
				</g>
				<path fill="#8C1579" d="M178.9,115.8c0,4.1-1.6,7.7-4.7,10.6c-3.1,2.9-7,4.4-11.5,4.4c-4.6,0-8.4-1.4-11.5-4.3
					c-3.1-2.9-4.6-6.4-4.6-10.7c0-4.2,1.5-7.7,4.6-10.6c3.1-2.9,6.9-4.3,11.4-4.3c4.5,0,8.3,1.5,11.5,4.4
					C177.3,108.2,178.9,111.7,178.9,115.8z"/>
				<g>
					<g>
						<path fill="#58595B" d="M210.1,129.9l-7.1,0.9v-17.3c0-4.1-1.7-6.2-5.1-6.2c-2,0-3.5,0.8-4.6,2.3c-0.9,1.3-1.4,2.8-1.4,4.7
							v15.6l-7,0.9v-28.5l7-0.9v2.2c2.3-1.6,5-2.5,7.9-2.5c6.8,0,10.2,3.9,10.2,11.6V129.9z"/>
					</g>
				</g>
			</g>
		</g>
		<g>
			<path fill="#FFFFFF" d="M179.6,118.1h-10.3c0,0-0.5-4.8-2.3,0.3c-1-1.1-1.7-1.4-2.2,2c-1.3-6.8-1.3-7.3-2-7.3
				c-0.8,0-1.3,4.7-1.3,4.7c-0.9,0-1.4,0-1.4,0s-0.7-3-2,0.1c-3,0-4.1,0-4.1,0s-0.9-2.1-0.9-4.5c0-2.4,2.3-5.9,5.4-5.9
				c3,0,4.5,2.7,4.5,2.7c1.6-3,4.3-2.7,4.7-2.7c0.4,0,3.3,0.2,4.6,3.6c1,2.8,0.2,5.6,0.2,5.6L179.6,118.1z"/>
			<path fill="#FFFFFF" d="M145.6,119l9.6,1.5c0,0,2.5,3.9,7.5,7.3c4.9-3.8,7.5-7.1,8.6-8.8c-1.7,0-2.6,0-2.6,0s-0.2-2.7-1.4,0.8
				c-0.2,0.3-1.2-1.6-1.5,0.3c-0.2,1.9-0.9,4.3-0.9,4.3s-2.2-8-2.2-8.2c0-0.2-0.5,4.6-1.2,4.7c-0.7,0.1-1-2-1-2l-1.4-0.1
				c0,0,0.1-1.4-0.6,0.4C156.8,119.3,145.6,119,145.6,119z"/>
		</g>
	</g>
	<g>
		<path fill="#8C1579" d="M236.4,89h11.9c2,0,3.8,0.3,5.5,0.8c1.7,0.5,3.2,1.3,4.5,2.3c1.3,1,2.3,2.3,3,3.7c0.7,1.5,1.1,3.2,1.1,5.1
			c0,1.9-0.4,3.6-1.1,5c-0.7,1.4-1.6,2.6-2.8,3.5c-1.2,0.9-2.5,1.6-4,2.1c-1.5,0.4-3,0.7-4.5,0.7c-0.6,0-1.3,0-2.1-0.1
			c-0.7,0-1.4-0.1-2.1-0.2c-0.7-0.1-1.3-0.1-1.8-0.2c-0.6-0.1-1-0.2-1.4-0.3v19.3h-6.3V89z M242.7,109.1c0.7,0.2,1.5,0.4,2.3,0.6
			c0.8,0.2,1.6,0.3,2.5,0.3c1.4,0,2.6-0.2,3.6-0.7s1.9-1.1,2.5-1.9c0.7-0.8,1.2-1.7,1.5-2.8c0.3-1,0.5-2.2,0.5-3.4
			c0-1.4-0.2-2.7-0.7-3.8c-0.4-1.2-1-2.1-1.8-2.9c-0.8-0.8-1.6-1.4-2.7-1.9c-1-0.4-2.1-0.7-3.3-0.7h-4.5V109.1z"/>
		<path fill="#8C1579" d="M272.6,130.8h-5.7V83.9l4.1-1.8h1.6V130.8z"/>
		<path fill="#8C1579" d="M285.3,98.6v22.9c0,0.8,0.2,1.6,0.5,2.3c0.3,0.7,0.8,1.3,1.4,1.8c0.6,0.5,1.2,0.9,2,1.2
			c0.8,0.3,1.6,0.5,2.5,0.5c0.6,0,1.2-0.1,1.8-0.4c0.6-0.3,1.3-0.6,1.9-1.1c0.6-0.5,1.2-1,1.8-1.7c0.5-0.6,1-1.3,1.4-2V98.6h5.7
			v32.2h-5.7v-6c-0.5,0.9-1.1,1.8-1.9,2.6c-0.8,0.8-1.6,1.5-2.5,2.1c-0.9,0.6-1.8,1.1-2.8,1.4c-0.9,0.4-1.8,0.5-2.7,0.5
			c-1.3,0-2.4-0.3-3.6-0.8c-1.1-0.5-2.1-1.2-2.9-2.1c-0.8-0.9-1.5-2-2-3.2c-0.5-1.2-0.7-2.5-0.7-3.9V98.6H285.3z"/>
		<path fill="#8C1579" d="M320.3,129.3c0.8,0,1.5-0.1,2.2-0.4c0.7-0.3,1.2-0.6,1.7-1.1c0.5-0.4,0.9-0.9,1.1-1.5
			c0.3-0.6,0.4-1.2,0.4-1.8c0-1-0.2-1.8-0.7-2.6c-0.4-0.7-1-1.4-1.8-2c-0.7-0.6-1.6-1.1-2.5-1.6c-0.9-0.5-1.9-1-2.8-1.5
			c-1-0.5-1.9-1.1-2.8-1.6c-0.9-0.6-1.8-1.3-2.5-2c-0.7-0.8-1.3-1.7-1.8-2.7c-0.4-1-0.7-2.2-0.7-3.6c0-1.3,0.2-2.5,0.7-3.6
			c0.5-1.1,1.2-2,2.1-2.8c0.9-0.8,1.9-1.4,3.1-1.9c1.2-0.4,2.5-0.7,4-0.7c1,0,1.9,0.1,2.7,0.2c0.8,0.1,1.7,0.4,2.5,0.9
			c0.8,0.4,1.6,1,2.4,1.8c0.8,0.8,1.6,1.8,2.5,3.1l-2.1,2.1c-1.1-2-2.3-3.5-3.7-4.5c-1.4-1-2.8-1.5-4.4-1.5c-0.8,0-1.6,0.1-2.2,0.3
			c-0.7,0.2-1.3,0.5-1.8,0.9c-0.5,0.4-0.9,0.8-1.1,1.4c-0.3,0.5-0.4,1.1-0.4,1.6c0,1,0.2,1.8,0.7,2.5c0.5,0.7,1.1,1.4,1.9,1.9
			c0.8,0.6,1.7,1.1,2.7,1.6c1,0.5,2,1,3.1,1.5c1.1,0.5,2.1,1.1,3.1,1.6c1,0.6,1.9,1.3,2.7,2c0.8,0.8,1.4,1.7,1.9,2.7
			c0.5,1,0.7,2.2,0.7,3.5c0,1.4-0.2,2.6-0.7,3.8c-0.5,1.2-1.1,2.2-2.1,3.1c-0.9,0.9-2.1,1.6-3.5,2.1c-1.4,0.5-3,0.7-4.9,0.7
			c-0.8,0-1.7-0.1-2.6-0.2c-0.9-0.1-1.8-0.4-2.7-0.9c-0.9-0.4-1.8-1-2.7-1.8c-0.9-0.8-1.8-1.8-2.7-3.1l2.3-2.4c0.7,1.1,1.4,2,2,2.8
			c0.6,0.8,1.3,1.4,2,1.9c0.7,0.5,1.3,0.9,2,1.1C318.7,129.1,319.5,129.3,320.3,129.3z"/>
	</g>
</g>
</svg>
