<?xml version="1.0" encoding="utf-8"?>
<!-- Generator: Adobe Illustrator 18.0.0, SVG Export Plug-In . SVG Version: 6.00 Build 0)  -->
<!DOCTYPE svg PUBLIC "-//W3C//DTD SVG 1.1//EN" "http://www.w3.org/Graphics/SVG/1.1/DTD/svg11.dtd">
<svg version="1.1" id="Layer_1" xmlns="http://www.w3.org/2000/svg" xmlns:xlink="http://www.w3.org/1999/xlink" x="0px" y="0px"
	 viewBox="0 0 360 216" enable-background="new 0 0 360 216" xml:space="preserve">
<rect fill="none" width="360" height="216"/>
<g>
	<path d="M326.2,105.9c-2.7,0-5.2-2.1-5.2-5.2c0-3,2.4-5.2,5.2-5.2c3,0,5.2,2.4,5.2,5.2C331.4,103.6,329.2,105.9,326.2,105.9z
		 M326.3,96c-2.7,0-4.8,2.1-4.8,4.7c0,2.7,2.1,4.7,4.7,4.7c2.7,0,4.7-2.1,4.7-4.7C331,98.1,329,96,326.3,96z M326.2,97.4
		c0.8,0,1.1,0,1.5,0.1c0.7,0.3,1,0.9,1,1.5c0,0.9-0.7,1.4-1.5,1.6c0.7,0.3,0.9,0.6,1,1.4c0.1,0.9,0.2,1.3,0.5,1.9h-1.1
		c-0.1-0.3-0.2-0.6-0.3-0.9c0-0.1-0.1-0.9-0.2-1c-0.2-1-0.7-1.1-1.6-1.1h-0.5v3h-0.9v-6.5H326.2z M325.1,100.1h1.1
		c0.4,0,1.5,0,1.5-1c0-0.3-0.1-0.6-0.3-0.7c-0.3-0.2-0.6-0.2-1.4-0.2h-0.9V100.1z"/>
</g>
<g>
	<g>
		<path d="M303.5-26.4h-1v-8.1h-2.9v-0.9h6.8v0.9h-2.9V-26.4z"/>
		<path d="M311.7-26.4l-3.1-8h0c0.1,0.6,0.1,1.4,0.1,2.3v5.7h-1v-9h1.6l2.9,7.4h0l2.9-7.4h1.6v9h-1v-5.8c0-0.7,0-1.4,0.1-2.2h0
			l-3.1,8H311.7z"/>
	</g>
</g>
<g>
	<g>
		<path fill="#0054A6" d="M72,113.2c0,3.2-1.5,5.7-4.4,7.4c-2.9,1.7-7.8,2.6-14.5,2.6H39.5v9H29v-28.9h24.1c6.7,0,11.5,0.8,14.4,2.5
			C70.5,107.5,72,110,72,113.2z M51.3,118.9c2,0,3.7-0.1,5-0.3c1.3-0.2,2.3-0.5,3.1-0.9c0.7-0.4,1.2-1,1.5-1.7
			c0.3-0.7,0.4-1.6,0.4-2.7c0-1.1-0.1-2-0.4-2.7c-0.3-0.7-0.8-1.3-1.5-1.7c-0.7-0.4-1.8-0.7-3.1-0.9c-1.3-0.2-3-0.2-5-0.2H39.5v11.2
			H51.3z"/>
		<path fill="#0054A6" d="M123.2,132.2H111l-11.4-10.5H87.2v10.5H76.7v-28.9h26.6c6.3,0,10.9,0.7,14,2.3c3,1.5,4.5,3.8,4.5,6.8
			c0,2.4-1.1,4.4-3.2,5.8c-2.1,1.4-4.8,2.4-8.2,2.9L123.2,132.2z M111.2,112.4c0-0.9-0.1-1.6-0.4-2.2c-0.3-0.6-0.8-1.1-1.5-1.4
			c-0.7-0.4-1.8-0.6-3.1-0.8c-1.3-0.2-3-0.2-5-0.2H87.2v9.6h14.1c1.8,0,3.4-0.1,4.7-0.2c1.3-0.1,2.3-0.4,3.1-0.8
			c0.8-0.4,1.3-0.9,1.6-1.5C111,114.2,111.2,113.4,111.2,112.4z"/>
		<path fill="#0054A6" d="M167,132.2h-38.7v-28.9h38.1v4.3h-27.6v7.8h23.8v4.2h-23.8v8.3H167V132.2z"/>
		<path fill="#0054A6" d="M183.1,127.9h25.8v4.3h-36.3v-28.9h10.5V127.9z"/>
		<path fill="#0054A6" d="M223.2,132.2h-10.5v-28.9h10.5V132.2z"/>
		<path fill="#0054A6" d="M253.4,133c-8.1,0-14-0.9-17.8-2.8c-3.8-1.9-5.7-4.7-5.7-8.4v-7.9c0-3.7,1.9-6.5,5.6-8.5
			c3.8-1.9,9.7-2.9,17.8-2.9c4.6,0,8.3,0.2,11.2,0.7c2.9,0.5,5.2,1.2,6.8,2.1c1.6,0.9,2.8,2,3.4,3.3c0.6,1.3,0.9,2.7,0.9,4.3v0.2
			H265v-0.9c0-0.9-0.1-1.7-0.4-2.4c-0.3-0.7-0.8-1.3-1.7-1.7c-0.8-0.4-2-0.8-3.5-1c-1.5-0.2-3.5-0.4-6-0.4c-2.2,0-4.1,0.1-5.8,0.4
			c-1.6,0.2-3,0.6-4,1.2c-1,0.6-1.8,1.3-2.3,2.2c-0.5,0.9-0.8,2.1-0.8,3.4v7.7c0,1.4,0.3,2.5,0.8,3.4c0.5,0.9,1.3,1.6,2.4,2.2
			c1.1,0.5,2.4,0.9,4.1,1.1c1.6,0.2,3.6,0.3,5.8,0.3c2.6,0,4.7-0.1,6.2-0.3c1.5-0.2,2.7-0.6,3.5-1c0.8-0.5,1.3-1,1.5-1.7
			c0.2-0.7,0.3-1.5,0.3-2.4v-1.1h10.6v0.3c0,1.6-0.3,3-0.9,4.3c-0.6,1.3-1.7,2.4-3.4,3.3c-1.6,0.9-3.9,1.6-6.8,2.1
			C261.7,132.7,258,133,253.4,133z"/>
		<path fill="#0054A6" d="M275.6,132.2l22.1-28.9h11.6l22.3,28.9h-12l-5.8-7.9h-23l-5.8,7.9H275.6z M302,108.8l-8.3,11.3h16.9
			l-8.5-11.3H302z"/>
	</g>
	<path fill="#832B7C" d="M226.8,83c1.8,0,3.3,0.6,4.6,1.9c1.3,1.3,1.9,2.9,1.9,4.7c0,1.8-0.6,3.4-1.9,4.6c-1.3,1.3-2.8,1.9-4.5,1.9
		c-1.8,0-3.4-0.7-4.6-2c-1.3-1.3-1.9-2.9-1.9-4.8c0-1.8,0.6-3.3,1.9-4.6C223.5,83.6,225,83,226.8,83z"/>
	<path fill="#00954D" d="M218.3,83c1.8,0,3.3,0.6,4.6,1.9c1.3,1.3,1.9,2.9,1.9,4.7c0,1.8-0.6,3.4-1.9,4.6c-1.3,1.3-2.8,1.9-4.5,1.9
		c-1.8,0-3.4-0.7-4.6-2c-1.3-1.3-1.9-2.9-1.9-4.8c0-1.8,0.6-3.3,1.9-4.6C215,83.6,216.5,83,218.3,83z"/>
	<path fill="#F58722" d="M208.2,83c1.8,0,3.3,0.6,4.6,1.9c1.3,1.3,1.9,2.9,1.9,4.7c0,1.8-0.6,3.4-1.9,4.6c-1.3,1.3-2.8,1.9-4.5,1.9
		c-1.8,0-3.4-0.7-4.6-2c-1.3-1.3-1.9-2.9-1.9-4.8c0-1.8,0.6-3.3,1.9-4.6C204.9,83.6,206.5,83,208.2,83z"/>
</g>
</svg>
