<?xml version="1.0" encoding="utf-8"?>
<!-- Generator: Adobe Illustrator 18.0.0, SVG Export Plug-In . SVG Version: 6.00 Build 0)  -->
<!DOCTYPE svg PUBLIC "-//W3C//DTD SVG 1.1//EN" "http://www.w3.org/Graphics/SVG/1.1/DTD/svg11.dtd">
<svg version="1.1" id="Layer_1" xmlns="http://www.w3.org/2000/svg" xmlns:xlink="http://www.w3.org/1999/xlink" x="0px" y="0px"
	 viewBox="0 0 360 216" enable-background="new 0 0 360 216" xml:space="preserve">
<rect fill="none" width="360" height="216"/>
<g>
	<path d="M326.2,287.6c-2.7,0-5.2-2.1-5.2-5.2c0-3,2.4-5.2,5.2-5.2c3,0,5.2,2.4,5.2,5.2C331.4,285.3,329.2,287.6,326.2,287.6z
		 M326.3,277.6c-2.7,0-4.8,2.1-4.8,4.7c0,2.7,2.1,4.7,4.7,4.7c2.7,0,4.7-2.1,4.7-4.7C331,279.8,329,277.6,326.3,277.6z M326.2,279.1
		c0.8,0,1.1,0,1.5,0.1c0.7,0.3,1,0.9,1,1.5c0,0.9-0.7,1.4-1.5,1.6c0.7,0.3,0.9,0.6,1,1.4c0.1,0.9,0.2,1.3,0.5,1.9h-1.1
		c-0.1-0.3-0.2-0.6-0.3-0.9c0-0.1-0.1-0.9-0.2-1c-0.2-1-0.7-1.1-1.6-1.1h-0.5v3h-0.9v-6.5H326.2z M325.1,281.8h1.1
		c0.4,0,1.5,0,1.5-1c0-0.3-0.1-0.6-0.3-0.7c-0.3-0.2-0.6-0.2-1.4-0.2h-0.9V281.8z"/>
</g>
<g>
	<g>
		<path d="M318.5,103.5h-1v-8.1h-2.9v-0.9h6.8v0.9h-2.9V103.5z"/>
		<path d="M326.7,103.5l-3.1-8h0c0.1,0.6,0.1,1.4,0.1,2.3v5.7h-1v-9h1.6l2.9,7.4h0l2.9-7.4h1.6v9h-1v-5.8c0-0.7,0-1.4,0.1-2.2h0
			l-3.1,8H326.7z"/>
	</g>
</g>
<g>
	<g>
		<g>
			<g>
				<g>
					<path fill="#0A357C" d="M118.5,104.6c0,1.9-0.3,3.7-1,5.3c-0.7,1.6-1.7,3.1-2.9,4.3c-1.5,1.5-3.4,2.6-5.5,3.4
						c-2.1,0.7-4.8,1.1-8,1.1h-6v16.1h-5.9V91.5h12.1c2.7,0,5,0.2,6.8,0.7c1.9,0.4,3.5,1.1,5,2.1c1.7,1.1,3,2.5,3.9,4.1
						C118,100,118.5,102.1,118.5,104.6z M112.3,104.8c0-1.5-0.3-2.8-0.8-3.9c-0.5-1.1-1.4-2-2.5-2.7c-1-0.6-2.1-1-3.3-1.3
						c-1.2-0.3-2.8-0.4-4.7-0.4h-5.9v17.3h5c2.4,0,4.4-0.2,5.9-0.6c1.5-0.4,2.7-1.1,3.7-2c0.9-0.9,1.6-1.9,2-2.9
						C112.1,107.2,112.3,106,112.3,104.8z"/>
				</g>
			</g>
			<g>
				<g>
					<path fill="#0A357C" d="M146.8,108.3h-0.3c-0.8-0.2-1.7-0.3-2.5-0.4c-0.8-0.1-1.7-0.1-2.8-0.1c-1.7,0-3.4,0.4-5,1.1
						c-1.6,0.7-3.2,1.7-4.7,2.9v23h-5.6v-32.5h5.6v4.8c2.2-1.7,4.2-3,5.9-3.7c1.7-0.7,3.5-1.1,5.2-1.1c1,0,1.7,0,2.1,0.1
						c0.4,0.1,1.1,0.1,2,0.3V108.3z"/>
				</g>
			</g>
			<g>
				<g>
					<path fill="#0A357C" d="M180.2,119.1h-24.7c0,2,0.3,3.7,0.9,5.2c0.6,1.5,1.5,2.7,2.6,3.6c1,0.9,2.3,1.6,3.7,2.1
						c1.4,0.5,3,0.7,4.7,0.7c2.3,0,4.6-0.4,6.9-1.3c2.3-0.9,4-1.8,4.9-2.6h0.3v6c-1.9,0.8-3.8,1.4-5.8,1.9c-2,0.5-4.1,0.8-6.2,0.8
						c-5.6,0-9.9-1.5-13-4.4c-3.1-2.9-4.7-7.1-4.7-12.4c0-5.3,1.5-9.5,4.5-12.6c3-3.1,6.9-4.7,11.8-4.7c4.5,0,8,1.3,10.5,3.8
						c2.5,2.6,3.7,6.2,3.7,10.9V119.1z M174.7,115c0-2.9-0.8-5.1-2.2-6.7c-1.5-1.6-3.7-2.4-6.7-2.4c-3,0-5.4,0.9-7.2,2.6
						c-1.8,1.7-2.8,3.9-3.1,6.4H174.7z"/>
				</g>
			</g>
			<g>
				<g>
					<path fill="#0A357C" d="M194.4,134.8h-5.6V89.6h5.6V134.8z"/>
				</g>
			</g>
			<g>
				<g>
					<path fill="#0A357C" d="M211.3,134.8h-5.6v-32.5h5.6V134.8z"/>
				</g>
			</g>
			<g>
				<g>
					<path fill="#0A357C" d="M246.8,134.8h-27.1v-4l19.6-23.9h-19.1v-4.6h26.2v3.9l-19.6,23.9h20.2V134.8z"/>
				</g>
			</g>
			<g>
				<g>
					<path fill="#0A357C" d="M282.5,119.1h-24.7c0,2,0.3,3.7,0.9,5.2c0.6,1.5,1.5,2.7,2.6,3.6c1,0.9,2.3,1.6,3.7,2.1
						c1.4,0.5,3,0.7,4.7,0.7c2.3,0,4.6-0.4,6.9-1.3c2.3-0.9,4-1.8,4.9-2.6h0.3v6c-1.9,0.8-3.8,1.4-5.8,1.9c-2,0.5-4.1,0.8-6.2,0.8
						c-5.6,0-9.9-1.5-13-4.4c-3.1-2.9-4.7-7.1-4.7-12.4c0-5.3,1.5-9.5,4.5-12.6c3-3.1,6.9-4.7,11.8-4.7c4.5,0,8,1.3,10.5,3.8
						c2.4,2.6,3.7,6.2,3.7,10.9V119.1z M277,115c0-2.9-0.8-5.1-2.2-6.7c-1.5-1.6-3.7-2.4-6.7-2.4c-3,0-5.4,0.9-7.2,2.6
						c-1.8,1.7-2.8,3.9-3,6.4H277z"/>
				</g>
			</g>
			<g>
				<g>
					<path fill="#0A357C" d="M312,108.3h-0.3c-0.8-0.2-1.7-0.3-2.4-0.4c-0.8-0.1-1.7-0.1-2.8-0.1c-1.7,0-3.4,0.4-5,1.1
						c-1.6,0.7-3.2,1.7-4.7,2.9v23h-5.6v-32.5h5.6v4.8c2.2-1.7,4.2-3,5.9-3.7c1.7-0.7,3.5-1.1,5.2-1.1c1,0,1.7,0,2.1,0.1
						c0.4,0.1,1.1,0.1,2,0.3V108.3z"/>
				</g>
			</g>
		</g>
	</g>
	<ellipse fill="#0A357C" cx="208.5" cy="94.8" rx="4.2" ry="4.1"/>
	<g>
		<path fill="#ED1C24" d="M62.9,82.9v26.3c12.9-11.5,17.8-19.8,17.5-25C80.1,76.4,68.8,75.7,62.9,82.9z"/>
		<path fill="#FBAB18" d="M60.4,80c-7.7-9-17-9.5-23.6-6c-6.1,3.2-9.9,10-7.8,16.6c2.9,11.2,15.8,25,24.8,34.2
			c5.2,5.2,9.2,9.6,9.2,9.6v-25c-11.8-10.9-17.8-20-16.9-26.6C46.9,77.9,51.9,76,60.4,80z"/>
	</g>
</g>
</svg>
