<?xml version="1.0" encoding="utf-8"?>
<!-- Generator: Adobe Illustrator 18.0.0, SVG Export Plug-In . SVG Version: 6.00 Build 0)  -->
<!DOCTYPE svg PUBLIC "-//W3C//DTD SVG 1.1//EN" "http://www.w3.org/Graphics/SVG/1.1/DTD/svg11.dtd">
<svg version="1.1" id="Layer_1" xmlns="http://www.w3.org/2000/svg" xmlns:xlink="http://www.w3.org/1999/xlink" x="0px" y="0px"
	 viewBox="0 0 360 216" enable-background="new 0 0 360 216" xml:space="preserve">
<rect fill="none" width="360" height="216"/>
<g>
	<path d="M325.7,109.5c-3.1,0-5.9-2.4-5.9-5.9c0-3.4,2.7-5.9,5.9-5.9c3.4,0,6,2.7,5.9,6C331.6,106.9,329.1,109.5,325.7,109.5z
		 M325.7,98.2c-3.1,0-5.4,2.4-5.4,5.4c0,3,2.4,5.4,5.4,5.4c3,0,5.4-2.4,5.4-5.4C331.1,100.6,328.8,98.2,325.7,98.2z M325.6,99.9
		c0.9,0,1.3,0,1.7,0.2c0.7,0.3,1.1,1,1.1,1.7c0,1-0.7,1.6-1.7,1.8c0.8,0.3,1,0.7,1.2,1.6c0.2,1.1,0.2,1.5,0.5,2.1h-1.2
		c-0.2-0.3-0.2-0.7-0.3-1c0-0.2-0.2-1-0.2-1.2c-0.2-1.1-0.8-1.2-1.9-1.2h-0.5v3.4h-1.1v-7.4H325.6z M324.4,103h1.2
		c0.5,0,1.7,0,1.7-1.2c0-0.3-0.1-0.6-0.3-0.8c-0.3-0.3-0.7-0.3-1.6-0.3h-1V103z"/>
</g>
<g>
	<g>
		<path d="M486.9,88.5H486v-6.3h-2.2v-0.7h5.3v0.7h-2.2V88.5z"/>
		<path d="M493.3,88.5l-2.4-6.2h0c0,0.5,0.1,1.1,0.1,1.8v4.5h-0.8v-7h1.2l2.2,5.8h0l2.2-5.8h1.2v7h-0.8V84c0-0.5,0-1.1,0.1-1.7h0
			l-2.4,6.2H493.3z"/>
	</g>
</g>
<g>
	<g>
		<g>
			<g>
				<g>
					<g>
						<path fill="#034EA2" d="M102.4,120.3v16.2h-5.8V93.9h13c2.1,0,4-0.1,5.9,0.4c4,1,6.4,3.6,7.5,7.4c0.5,1.6,0.7,3.3,0.7,5
							c0,4.1-1,8.3-4.1,10.8c-3.3,2.8-8,2.8-11.6,2.8H102.4z M102.4,116.2h5.6c4.3,0.1,9.8-0.2,9.8-9.1c0-1.3,0-5.6-2.8-7.7
							c-2-1.4-4.9-1.4-7.2-1.3h-5.4V116.2z"/>
						<path fill="#034EA2" d="M133.3,136.5h-5.2v-30.2h5.2v4c1.1-1.4,3.3-4.5,7.4-4.5c1.9,0,2.8,0.6,3.6,1.1v4.8
							c-1-0.7-2.5-1.7-4.9-1.7c-0.7,0-1.8,0.1-3,0.6c-3,1.4-3,4.1-3.1,5.7V136.5z"/>
						<path fill="#034EA2" d="M172,127.3c-0.4,7.7-7.1,9.8-12.3,9.8c-1.8,0-6.5-0.2-9.7-3.6c-1.4-1.6-3.4-4.9-3.4-11.2
							c0-10,4-16.6,13.4-16.6c9.5,0,12.4,6.5,12.1,15.6h-20.1c-0.1,3.7,0.1,12.4,7.8,12.4c1.8,0,6.6-0.7,7-6.5H172z M167,118.2
							c-0.1-1.9-0.2-9.1-6.9-9.1c-4.3,0-7.5,3.1-7.9,9.1H167z"/>
						<path fill="#92278F" d="M228.6,136.5h-10.3l-0.1-29.1c-0.1-2.7-0.1-3.4,0-6.3c-0.7,2.7-1,3.5-1.7,5.9l-9,29.6h-8.1l-9.1-29.5
							l-0.7-2.7c-0.2-1.1-0.5-2.1-0.8-3.2c0.1,2.7,0.1,3.4,0.1,5.7l-0.3,29.6h-10l0.5-42.6h16.2l6.6,22.4c0.8,3.3,1,4.2,1.6,7.4
							c0.7-3.3,0.9-4.2,1.9-7.8l6.5-22h16.2L228.6,136.5z"/>
						<path fill="#92278F" d="M264.5,136.5h-9.7v-3.4c-1.1,1-4.5,4-10.1,4c-1.8,0-3.1-0.3-4.3-0.8c-4.4-1.8-4.5-6-4.6-9.2v-20.7h9.7
							v18.3c0,3.5,0,7.5,4.3,7.5c1.6,0,3.1-0.7,3.9-1.7c1-1.1,1-2.5,1-3.7v-20.4h9.7V136.5z"/>
						<path fill="#92278F" d="M271.7,106.3h9.7v3.5c1.6-1.4,4.5-4.1,9.7-4.1c5.9,0,7.5,3.5,7.9,4.6c3.5-3.4,6.9-4.6,10.3-4.6
							c1.6,0,2.8,0.2,3.9,0.7c4.5,1.7,4.6,5.9,4.6,8.5v21.6h-9.7v-19.7c-0.1-2.1-0.1-3.3-0.7-4.3c-0.1-0.2-1-1.7-3.1-1.7
							c-0.7,0-1.5,0.2-2.2,0.5c-2.4,1.1-2.5,3.1-2.5,4.8v20.4h-9.7V117c0-2.3,0.1-6.2-3.9-6.2c-0.8,0-1.7,0.2-2.5,0.7
							c-2.1,1.3-2.2,3.3-2.1,5.9v19.1h-9.7V106.3z"/>
					</g>
				</g>
			</g>
		</g>
		<g>
			<path fill="#92278F" d="M41.6,94.4c-3.4-1-5.8-4.1-5.8-7.8c0-4.5,3.6-8.1,8.1-8.1c4.5,0,8.1,3.6,8.1,8.1c0,2.3-0.9,4.3-2.5,5.8
				c0.5,0,0.9,0,1.4,0c12.4,0,22.5,10.1,22.5,22.5c0,3.5-0.8,6.8-2.2,9.7c0.6-1.7,0.9-3.5,0.9-5.4c0-9.6-7.8-17.4-17.4-17.4
				c-9.6,0-17.4,7.8-17.4,17.4c0,9.6,7.8,17.4,17.4,17.4c1.2,0,2.4-0.1,3.6-0.4c-2.3,0.8-4.8,1.3-7.5,1.3
				c-12.4,0-22.5-10.1-22.5-22.5C28.3,105.8,33.8,98,41.6,94.4z"/>
			<path fill="#034EA2" d="M42.2,125c2.1,6.3,8.9,9.7,15.2,7.6c6.3-2.1,9.7-8.9,7.6-15.2c-0.4-1.3-1.1-2.5-1.9-3.6
				c1.5-2.5,0.8-5.8-1.7-7.4c-2.5-1.6-5.9-0.9-7.5,1.6c-0.2,0.4-0.4,0.7-0.6,1.1c-1.2,0-2.4,0.2-3.6,0.6
				C43.6,111.9,40.2,118.7,42.2,125z M52.3,109.8c0.4-0.1,0.7-0.2,1.1-0.3c-0.7,2.2,0.2,4.8,2.2,6.1c2.5,1.6,5.9,0.9,7.5-1.6
				c0,0,0.1-0.1,0.1-0.1c0.3,0.5,0.6,1.1,0.8,1.8c1.6,4.9-1,10.1-5.9,11.7c-4.9,1.6-10.1-1-11.7-5.9
				C44.8,116.7,47.4,111.4,52.3,109.8z"/>
		</g>
	</g>
</g>
</svg>
