<?xml version="1.0" encoding="utf-8"?>
<!-- Generator: Adobe Illustrator 18.0.0, SVG Export Plug-In . SVG Version: 6.00 Build 0)  -->
<!DOCTYPE svg PUBLIC "-//W3C//DTD SVG 1.1//EN" "http://www.w3.org/Graphics/SVG/1.1/DTD/svg11.dtd">
<svg version="1.1" id="Layer_1" xmlns="http://www.w3.org/2000/svg" xmlns:xlink="http://www.w3.org/1999/xlink" x="0px" y="0px"
	 viewBox="0 0 360 216" enable-background="new 0 0 360 216" xml:space="preserve">
<rect fill="none" width="360" height="216"/>
<g>
	<path d="M326.2,95.9c-2.7,0-5.2-2.1-5.2-5.2c0-3,2.4-5.2,5.2-5.2c3,0,5.2,2.4,5.2,5.2C331.4,93.6,329.1,95.9,326.2,95.9z M326.2,86
		c-2.7,0-4.8,2.1-4.8,4.7c0,2.7,2.1,4.7,4.7,4.7c2.7,0,4.7-2.1,4.7-4.7C331,88.1,328.9,86,326.2,86z M326.1,87.5
		c0.8,0,1.1,0,1.5,0.1c0.7,0.3,1,0.9,1,1.5c0,0.9-0.7,1.4-1.5,1.6c0.7,0.3,0.9,0.6,1,1.4c0.1,0.9,0.2,1.3,0.5,1.9h-1.1
		c-0.1-0.3-0.2-0.6-0.3-0.9c0-0.1-0.1-0.9-0.2-1c-0.2-1-0.7-1.1-1.6-1.1h-0.5v3h-0.9v-6.5H326.1z M325.1,90.2h1.1c0.4,0,1.5,0,1.5-1
		c0-0.3-0.1-0.6-0.3-0.7c-0.3-0.2-0.6-0.2-1.4-0.2h-0.9V90.2z"/>
</g>
<g>
	<g>
		<path d="M318.5-37.7h-1v-8.1h-2.9v-0.9h6.8v0.9h-2.9V-37.7z"/>
		<path d="M326.7-37.7l-3.1-8h0c0.1,0.6,0.1,1.4,0.1,2.3v5.7h-1v-9h1.6l2.9,7.4h0l2.9-7.4h1.6v9h-1v-5.8c0-0.7,0-1.4,0.1-2.2h0
			l-3.1,8H326.7z"/>
	</g>
</g>
<g>
	<g>
		<g>
			<g>
				<g>
					<path fill="#0082C9" d="M59.5,93.3c0,4.6-1.3,8-3.9,10.2c-2.6,2.2-6.4,3.4-11.3,3.4h-5.7v19.5h-9.8V79.7h15.5
						c4.7,0,8.4,1.1,11.1,3.4C58.1,85.3,59.5,88.7,59.5,93.3z M49.7,94.6c0-2.3-0.6-4-1.8-5.2c-1.2-1.1-2.9-1.7-5-1.7h-4.3v13.9h4.6
						c2.3,0,3.9-0.6,5-1.9C49.2,98.5,49.7,96.8,49.7,94.6z"/>
					<path fill="#0082C9" d="M86.8,103.5c-0.6-0.5-1.3-0.9-2.4-1.2c-1-0.4-2.2-0.5-3.6-0.5c-1.6,0-3,0.2-4.1,0.7
						c-1.1,0.5-2,1.1-2.8,1.8v22h-8.9V93.7l8.9-0.7v3.2l2.8-1.8c0.9-0.6,1.9-1,3-1.4c1.1-0.4,2.2-0.6,3.1-0.6c1,0,1.8,0.1,2.4,0.2
						c0.6,0.1,1.1,0.3,1.4,0.4V103.5z"/>
					<path fill="#0082C9" d="M123.6,109.4c0,5.4-1.5,9.6-4.4,12.8c-2.9,3.2-7,4.8-12.1,4.8c-5.5,0-9.6-1.6-12.4-4.8
						c-2.7-3.2-4.1-7.5-4.1-12.8c0-4.8,1.5-9,4.4-12.4c3-3.4,7-5.2,12-5.2c5.1,0,9.1,1.6,12.1,4.8
						C122.1,99.8,123.6,104.1,123.6,109.4z M114.6,109.4c0-2.7-0.7-5-2-7.1c-1.3-2.1-3.2-3.1-5.5-3.1c-2.7,0-4.6,0.9-5.8,2.8
						c-1.2,1.9-1.7,4.3-1.7,7.4c0,2.8,0.7,5.2,2.1,7.2c1.4,2,3.3,3,5.6,3c2.6,0,4.5-0.8,5.6-2.4C114.1,115.6,114.6,113,114.6,109.4z
						"/>
					<path fill="#0082C9" d="M179.1,126.4h-8.8v-20.5c0-1.2-0.4-2.3-1.2-3.2c-0.8-0.9-2-1.4-3.7-1.4c-1.4,0-2.6,0.3-3.7,0.8
						c-1.1,0.6-2,1.3-2.7,2.2v22.1h-8.8v-20.5c0-1.2-0.4-2.3-1.2-3.2c-0.8-0.9-2-1.4-3.7-1.4c-1.6,0-2.9,0.3-4,1
						c-1.1,0.7-1.9,1.3-2.4,2v22.1h-8.8V93.7l8.8-0.7v3.2l3.4-2.2c1.1-0.7,2.3-1.2,3.4-1.5c1.1-0.3,2.2-0.4,3.4-0.4
						c2,0,3.8,0.4,5.2,1.3c1.5,0.9,2.6,2.1,3.3,3.6l4.8-3.1c1-0.6,2-1.1,3.2-1.4c1.1-0.3,2.3-0.5,3.6-0.5c3.1,0,5.5,1,7.2,3
						c1.8,2,2.6,4.6,2.6,7.9V126.4z"/>
					<path fill="#0082C9" d="M217.9,109.2c0,5-1.5,9.2-4.4,12.5c-2.9,3.3-6.5,4.9-10.7,4.9c-1.4,0-2.8-0.1-4-0.4
						c-1.2-0.2-2.2-0.6-2.9-0.9v11h-8.7V93.7l8.4-0.7l0.4,2l3-1.5c0.9-0.5,1.8-0.9,2.5-1.1c0.7-0.3,1.6-0.4,2.6-0.4
						c4.3,0,7.7,1.6,10.2,4.9C216.6,100.1,217.9,104.2,217.9,109.2z M209,109.6c0-2.7-0.7-5-2-6.9c-1.3-2-3.2-2.9-5.5-2.9
						c-1.5,0-2.8,0.3-3.6,0.8c-0.9,0.5-1.6,1-2,1.6v15.4c0.5,0.6,1.2,1,2.3,1.4c1.1,0.3,2.3,0.5,3.6,0.5c2.5,0,4.3-0.8,5.5-2.5
						C208.4,115.3,209,112.8,209,109.6z"/>
					<path fill="#0082C9" d="M239.3,120.7l-6.4,6.4c-2.7-1.2-4.7-2.8-6-5c-1.3-2.2-2-4.9-2-7.9V99.8h-3v-6.1h3V82.9l8.9-0.7v11.5
						h4.6v6h-4.6v11.6c0,2.3,0.5,4.3,1.5,5.8C236.2,118.7,237.6,119.9,239.3,120.7z"/>
					<path fill="#F59420" d="M319.9,126.4H311v-20.5c0-1.2-0.4-2.3-1.2-3.2c-0.8-0.9-2.1-1.4-3.7-1.4c-1.6,0-2.9,0.4-4,1.1
						c-1.1,0.7-1.9,1.4-2.6,2v22.1h-8.9V93.7l8.9-0.7v3.2l3.7-2.2c1.1-0.7,2.2-1.2,3.4-1.4c1.1-0.3,2.3-0.4,3.4-0.4
						c3.1,0,5.5,1,7.3,3c1.8,2,2.7,4.6,2.7,7.9V126.4z"/>
				</g>
			</g>
		</g>
	</g>
	<g>
		<g>
			<g>
				<path fill-rule="evenodd" clip-rule="evenodd" fill="#F59420" d="M259.2,99c1.2,1.4,2.9-2.1,5.5-7.2c2.5-5,7.3-6,10.2-6.2
					C257.2,84,256.1,93.1,259.2,99z"/>
			</g>
		</g>
		<g>
			<g>
				<path fill-rule="evenodd" clip-rule="evenodd" fill="#F8B782" d="M265.4,97.3c-0.2,1.8,3.5,0.6,9-1.1c5.3-1.7,9.3,1,11.6,2.9
					C274.7,85.3,267.4,90.9,265.4,97.3z"/>
			</g>
		</g>
		<g>
			<g>
				<path fill-rule="evenodd" clip-rule="evenodd" fill="#0082C9" d="M250.7,104.6c-4.9-2.6-5.9-7.3-6.1-10.2
					c-1.7,17.7,7.4,18.9,13.3,15.8C259.3,109,255.8,107.3,250.7,104.6z"/>
			</g>
		</g>
		<g>
			<g>
				<path fill-rule="evenodd" clip-rule="evenodd" fill="#F8B782" d="M272.2,106.6c-1.8-0.2-0.6,3.5,0.9,9c1.5,5.3-1.2,9.3-3.2,11.5
					C283.9,116.2,278.5,108.8,272.2,106.6z"/>
			</g>
		</g>
		<g>
			<g>
				<path fill-rule="evenodd" clip-rule="evenodd" fill="#0082C9" d="M250.7,104.6c-4.9-2.6-5.9-7.3-6.1-10.2
					c-1.7,17.7,7.4,18.9,13.3,15.8C259.3,109,255.8,107.3,250.7,104.6z"/>
			</g>
		</g>
		<path fill-rule="evenodd" clip-rule="evenodd" fill="#F59420" d="M270.4,100.2c5.9-3.2,15-2.1,13.6,15.6
			c-0.3-2.9-1.4-7.6-6.3-10.1C272.6,103.1,269.1,101.4,270.4,100.2z"/>
		<g>
			<g>
				<path fill-rule="evenodd" clip-rule="evenodd" fill="#0082C9" d="M269.1,111.6c-1.1-1.4-2.9,2.1-5.6,7.1
					c-2.6,4.9-7.3,5.9-10.2,6.1C270.9,126.6,272.2,117.5,269.1,111.6z"/>
			</g>
		</g>
		<path fill-rule="evenodd" clip-rule="evenodd" fill="#69ABDD" d="M262.9,113.2c-2.2,6.3-9.5,11.8-20.6-2.2
			c2.2,1.9,6.2,4.7,11.5,3.1C259.4,112.6,263.1,111.4,262.9,113.2z"/>
		<g>
			<g>
				<path fill-rule="evenodd" clip-rule="evenodd" fill="#69ABDD" d="M257.6,83.6c-13.6,11.5-7.8,18.7-1.5,20.6
					c1.8,0.2,0.5-3.5-1.2-9C253.2,89.9,255.8,85.9,257.6,83.6z"/>
			</g>
		</g>
	</g>
</g>
</svg>
