<?xml version="1.0" encoding="utf-8"?>
<!-- Generator: Adobe Illustrator 18.0.0, SVG Export Plug-In . SVG Version: 6.00 Build 0)  -->
<!DOCTYPE svg PUBLIC "-//W3C//DTD SVG 1.1//EN" "http://www.w3.org/Graphics/SVG/1.1/DTD/svg11.dtd">
<svg version="1.1" id="Layer_1" xmlns="http://www.w3.org/2000/svg" xmlns:xlink="http://www.w3.org/1999/xlink" x="0px" y="0px"
	 viewBox="0 0 841.9 595.3" enable-background="new 0 0 841.9 595.3" xml:space="preserve">
<g>
	<g>
		<path fill="#234093" d="M91,424.6h-1.7c-1.7,0-1.7-0.9-1.6-2.7C86.7,423,85,425,81,425c-1.2,0-3.2-0.1-4.6-2c-1-1.1-1.6-3-1.6-4.8
			c0-2.8,1.3-4.5,2.3-5.3c1.6-1.4,4-1.8,6.7-2.1l3.7-0.5v-2.2c0-2.2,0-5.4-4.4-5.4c-5.2,0-5.2,4.2-5.3,5.8h-2.5
			c-0.1-6.6,5.1-8.1,8.1-8.1c1.9,0,4,0.5,5.1,1.9c1.3,1.6,1.3,3.8,1.4,5.5v5.6l-0.1,6l0,2.1c0,1.6,0.2,2.2,1,2.6V424.6z M87.6,412.3
			c-1.4,0.1-3.1,0.4-4.9,0.7c-1.4,0.3-5.1,1-5.1,5c0,2.9,1.9,4.7,4.3,4.7c1.2,0,2.6-0.5,3.6-1.1c2.1-1.4,2.1-3.4,2.2-5V412.3z"/>
		<path fill="#234093" d="M116.2,424.6h-2.5v-13.8c0-1.2,0-2.4-0.1-3.6c-0.1-1-0.5-4.8-4.6-4.8c-0.6,0-1.6,0.1-2.7,0.6
			c-3.1,1.4-3.2,4-3.2,5.5v16h-2.5v-23.8h2.5v2.7c0.9-0.9,3-3.2,6.9-3.2c2,0,4,0.8,5.1,2.6c1.1,1.8,1.2,4,1.2,5.8V424.6z"/>
		<path fill="#234093" d="M141.3,424.6h-1.7c-1.7,0-1.7-0.9-1.6-2.7c-0.9,1.1-2.6,3.1-6.6,3.1c-1.2,0-3.2-0.1-4.6-2
			c-1-1.1-1.6-3-1.6-4.8c0-2.8,1.3-4.5,2.3-5.3c1.6-1.4,4-1.8,6.7-2.1l3.7-0.5v-2.2c0-2.2,0-5.4-4.4-5.4c-5.2,0-5.2,4.2-5.3,5.8
			h-2.5c-0.1-6.6,5.1-8.1,8.1-8.1c1.9,0,4,0.5,5.1,1.9c1.3,1.6,1.3,3.8,1.4,5.5v5.6l-0.1,6l0,2.1c0,1.6,0.2,2.2,1,2.6V424.6z
			 M137.9,412.3c-1.4,0.1-3.1,0.4-4.9,0.7c-1.4,0.3-5.1,1-5.1,5c0,2.9,1.9,4.7,4.3,4.7c1.2,0,2.6-0.5,3.6-1.1c2.1-1.4,2.1-3.4,2.2-5
			V412.3z"/>
		<path fill="#234093" d="M153.3,424.6h-2.5v-33.6h2.5V424.6z"/>
		<path fill="#234093" d="M180.2,400.8v19.8c0,3.1,0.1,7.5-1.9,10.3c-1.4,2-4,3.4-7.1,3.4c-3.1,0-5.5-1.5-6.5-3.2
			c-0.5-0.8-1.1-2.2-1.1-4.6h2.6c0,0.8,0.1,1.7,0.5,2.6c0.6,1.4,2.3,2.9,4.7,2.9c0.8,0,1.5-0.1,2.3-0.4c3.9-1.5,4-5.6,4.1-8.2l0-1.9
			c-0.9,1-2.9,3.1-6.5,3.1c-6.2,0-8.5-5.8-8.5-11.8c0-2.9,0.5-6,1.9-8.3c1.5-2.6,4-4.2,7-4.2c3.3,0,4.9,1.7,6.1,2.9v-2.4H180.2z
			 M177.8,409.3c0-1.9-0.2-3.3-1.2-4.6c-1-1.3-2.6-2.2-4.5-2.2c-4.7,0-6.6,4.5-6.6,10.3c0,4.2,1.1,9.5,6.3,9.5
			c1.6,0,3.1-0.6,4.2-1.6c1.6-1.5,1.7-3.1,1.8-4.9V409.3z"/>
		<path fill="#234093" d="M206.5,417.4c0,3.5-2.7,7.6-8.1,7.6c-1.1,0-2.6-0.1-4-0.9c-3.5-1.9-4.7-6.5-4.7-11
			c0-5.7,1.6-12.8,8.9-12.8c6.5,0,8,6,7.9,12h-14.1c0,2.5-0.1,10.3,6.1,10.3c2.4,0,5.1-1.4,5.4-5.3H206.5z M204.1,410.2
			c-0.1-1.6-0.3-7.5-5.4-7.5c-0.8,0-5.5,0-6.2,7.5H204.1z"/>
		<path fill="#234093" d="M219.7,413.1c-1.7-0.7-4.7-1.8-4.7-5.9c0-5,3.6-6.8,7-6.8c2.1,0,3.7,0.7,4.8,1.8c1.4,1.4,2,3.4,1.9,5.6
			h-2.7c0-0.2,0-0.5,0-0.8c0-1.6-0.7-4.4-4.5-4.4c-2.8,0-4.3,2-4.3,3.8c0,1,0.4,2,1.1,2.6c0.6,0.6,1.3,0.9,3.5,1.7l1.3,0.5
			c1.4,0.5,2.8,1.1,3.9,2.1c1.6,1.6,1.9,3.5,1.9,4.9c0,1-0.2,2.1-0.6,3c-0.4,1-1.1,1.8-1.9,2.4c-1.7,1.3-3.7,1.4-4.8,1.4
			c-1,0-2.1-0.1-3-0.4c-2.1-0.7-3.4-2-4.1-4c-0.5-1.4-0.4-2.6-0.4-3.5h2.7c0,0.9-0.1,2.9,1.2,4.2c0.5,0.6,1.6,1.4,3.9,1.4
			c3.7,0,4.4-2.6,4.4-4.1c0-3-2.2-3.9-4.6-4.7L219.7,413.1z"/>
		<path fill="#234093" d="M240.8,395.2h-2.5v-3.5h2.5V395.2z M240.8,424.6h-2.5v-23.8h2.5V424.6z"/>
		<path fill="#234093" d="M267,416.7c-0.1,1.2-0.4,4.1-2.8,6.3c-1.7,1.6-3.5,2-5.4,2c-4.6,0-7.4-2.7-8.2-8c-0.2-1.4-0.3-2.7-0.3-4
			c0-1.6,0.1-3.3,0.5-4.9c0.4-1.7,1.3-5.3,4.8-7c1.2-0.5,2.4-0.8,3.7-0.8c1.6,0,4.1,0.3,5.9,2.5c1.7,2,1.8,4.7,1.9,5.9h-2.7
			c0-4.3-2.4-6-5.3-6c-0.9,0-2.6,0.1-4.1,2c-1.3,1.7-1.7,3.9-1.9,5.4c-0.1,0.9-0.2,1.8-0.2,2.7c0,5.3,1.6,9.9,5.9,9.9
			c1.3,0,2.8-0.5,3.7-1.6c1.3-1.4,1.5-3.5,1.6-4.4H267z"/>
		<path fill="#234093" d="M305.7,424.6H304c-1.7,0-1.7-0.9-1.6-2.7c-0.9,1.1-2.6,3.1-6.6,3.1c-1.2,0-3.2-0.1-4.6-2
			c-1-1.1-1.6-3-1.6-4.8c0-2.8,1.3-4.5,2.3-5.3c1.6-1.4,4-1.8,6.7-2.1l3.7-0.5v-2.2c0-2.2,0-5.4-4.4-5.4c-5.2,0-5.2,4.2-5.3,5.8
			h-2.5c-0.1-6.6,5.1-8.1,8.1-8.1c1.9,0,4,0.5,5.1,1.9c1.3,1.6,1.3,3.8,1.4,5.5v5.6l-0.1,6l0,2.1c0,1.6,0.2,2.2,1,2.6V424.6z
			 M302.3,412.3c-1.4,0.1-3.1,0.4-4.9,0.7c-1.4,0.3-5.1,1-5.1,5c0,2.9,1.9,4.7,4.3,4.7c1.2,0,2.6-0.5,3.6-1.1c2.1-1.4,2.1-3.4,2.2-5
			V412.3z"/>
		<path fill="#234093" d="M330.9,424.6h-2.5v-13.8c0-1.2,0-2.4-0.1-3.6c-0.1-1-0.5-4.8-4.6-4.8c-0.6,0-1.6,0.1-2.7,0.6
			c-3.1,1.4-3.2,4-3.2,5.5v16h-2.5v-23.8h2.5v2.7c0.9-0.9,3-3.2,6.9-3.2c2,0,4,0.8,5.1,2.6c1.1,1.8,1.2,4,1.2,5.8V424.6z"/>
		<path fill="#234093" d="M357.7,424.6h-2.5v-2.9c-0.7,0.9-2.5,3.4-6.6,3.4c-5.9,0-8.3-5.3-8.3-12.1c0-7.6,3-12.7,9.1-12.7
			c3.7,0,5.2,2.2,5.7,3v-12.3h2.5V424.6z M355.3,408.7c0-2.1-0.5-3.6-1.8-4.8c-1-0.9-2.3-1.4-3.8-1.4c-2.3,0-3.8,1.2-4.6,2.3
			c-1.3,1.8-1.9,4.4-1.9,7.6c0,3.3,0.3,10.5,6.1,10.5c1.9,0,3.8-0.9,4.8-2.3c1.2-1.6,1.2-3.8,1.3-5.4V408.7z"/>
		<path fill="#234093" d="M398.5,424.6h-1.7c-1.7,0-1.7-0.9-1.6-2.7c-0.9,1.1-2.6,3.1-6.6,3.1c-1.2,0-3.2-0.1-4.6-2
			c-1-1.1-1.6-3-1.6-4.8c0-2.8,1.3-4.5,2.3-5.3c1.6-1.4,4-1.8,6.7-2.1l3.7-0.5v-2.2c0-2.2,0-5.4-4.4-5.4c-5.2,0-5.2,4.2-5.3,5.8
			h-2.5c-0.1-6.6,5.1-8.1,8.1-8.1c1.9,0,4,0.5,5.1,1.9c1.3,1.6,1.3,3.8,1.4,5.5v5.6l-0.1,6l0,2.1c0,1.6,0.2,2.2,1,2.6V424.6z
			 M395.1,412.3c-1.4,0.1-3.1,0.4-4.9,0.7c-1.4,0.3-5.1,1-5.1,5c0,2.9,1.9,4.7,4.3,4.7c1.2,0,2.6-0.5,3.6-1.1c2.1-1.4,2.1-3.4,2.2-5
			V412.3z"/>
		<path fill="#234093" d="M423.7,424.6h-2.5v-13.8c0-1.2,0-2.4-0.1-3.6c-0.1-1-0.5-4.8-4.6-4.8c-0.6,0-1.6,0.1-2.7,0.6
			c-3.1,1.4-3.2,4-3.2,5.5v16H408v-23.8h2.5v2.7c0.9-0.9,3-3.2,6.9-3.2c2,0,4,0.8,5.1,2.6c1.1,1.8,1.2,4,1.2,5.8V424.6z"/>
		<path fill="#234093" d="M437.3,403l-0.1,14.5c0,2.7,0.1,3.5,0.5,4.1c0.3,0.5,1.1,1.1,2.4,1.1c1.3,0,2.1-0.4,2.8-0.8v2.3
			c-0.8,0.3-2,0.8-3.7,0.8c-3,0-3.9-1.9-4-2.1c-0.5-0.9-0.5-2-0.5-5l0.2-14.9h-3.4v-2.1h3.4v-5.4l2.6-0.4l-0.1,5.8h4.1v2.1H437.3z"
			/>
		<path fill="#234093" d="M452.9,395.2h-2.5v-3.5h2.5V395.2z M452.9,424.6h-2.5v-23.8h2.5V424.6z"/>
		<path fill="#234093" d="M465.8,395.2h-2.5v-3.5h2.5V395.2z M465.8,424.6h-2.5v-23.8h2.5V424.6z"/>
		<path fill="#234093" d="M491.8,424.6h-2.5v-13.8c0-1.2,0-2.4-0.1-3.6c-0.1-1-0.5-4.8-4.6-4.8c-0.6,0-1.6,0.1-2.7,0.6
			c-3.1,1.4-3.2,4-3.2,5.5v16h-2.5v-23.8h2.5v2.7c0.9-0.9,3-3.2,6.9-3.2c2,0,4,0.8,5.1,2.6c1.1,1.8,1.2,4,1.2,5.8V424.6z"/>
		<path fill="#234093" d="M505.6,424.6h-2.5V403h-3.4v-2.1h3.4v-2.5c0-2.5,0.2-7.3,5.2-7.3c1.5,0,2.4,0.5,2.8,0.7v2.5
			c-0.5-0.3-1.2-0.9-2.6-0.9c-1,0-1.9,0.4-2.4,1.3c-0.4,0.7-0.5,1.8-0.5,3.8v2.5h4v2.1h-4V424.6z"/>
		<path fill="#234093" d="M520.2,424.6h-2.5v-33.6h2.5V424.6z"/>
		<path fill="#234093" d="M545.3,424.6h-1.7c-1.7,0-1.7-0.9-1.6-2.7c-0.9,1.1-2.6,3.1-6.6,3.1c-1.2,0-3.2-0.1-4.6-2
			c-1-1.1-1.6-3-1.6-4.8c0-2.8,1.3-4.5,2.3-5.3c1.6-1.4,4-1.8,6.7-2.1l3.7-0.5v-2.2c0-2.2,0-5.4-4.4-5.4c-5.2,0-5.2,4.2-5.3,5.8
			h-2.5c-0.1-6.6,5.1-8.1,8.1-8.1c1.9,0,4,0.5,5.1,1.9c1.3,1.6,1.3,3.8,1.4,5.5v5.6l-0.1,6l0,2.1c0,1.6,0.2,2.2,1,2.6V424.6z
			 M541.9,412.3c-1.4,0.1-3.1,0.4-4.9,0.7c-1.4,0.3-5.1,1-5.1,5c0,2.9,1.9,4.7,4.3,4.7c1.2,0,2.6-0.5,3.6-1.1c2.1-1.4,2.1-3.4,2.2-5
			V412.3z"/>
		<path fill="#234093" d="M580.1,424.6h-2.5v-15.4c0-1.7,0-3.4-0.7-4.7c-0.2-0.3-1.1-2-3.2-2c-0.8,0-1.7,0.3-2.4,0.7
			c-2.4,1.4-2.5,3.8-2.6,5.4v16h-2.5V409c0-0.9,0-1.8-0.1-2.6c-0.2-1.2-1-3.9-3.8-3.9c-1.9,0-3.8,1.4-4.5,3.1
			c-0.5,1.2-0.5,2.8-0.5,4.4v14.6h-2.5v-23.8h2.5v2.7c1.2-1.3,3-3.2,6-3.2c2.2,0,4.2,1.1,5,3.7c1.1-1.3,3.2-3.7,6.4-3.7
			c1.1,0,1.9,0.3,2.5,0.6c2.7,1.5,2.8,4.7,2.9,6.8V424.6z"/>
		<path fill="#234093" d="M615.8,424.6h-2.5v-15.4c0-1.7,0-3.4-0.7-4.7c-0.2-0.3-1.1-2-3.2-2c-0.8,0-1.7,0.3-2.4,0.7
			c-2.4,1.4-2.5,3.8-2.6,5.4v16h-2.5V409c0-0.9,0-1.8-0.1-2.6c-0.2-1.2-1-3.9-3.8-3.9c-1.9,0-3.8,1.4-4.5,3.1
			c-0.5,1.2-0.5,2.8-0.5,4.4v14.6h-2.5v-23.8h2.5v2.7c1.2-1.3,3-3.2,6-3.2c2.2,0,4.2,1.1,5,3.7c1.1-1.3,3.2-3.7,6.4-3.7
			c1.1,0,1.9,0.3,2.5,0.6c2.7,1.5,2.8,4.7,2.9,6.8V424.6z"/>
		<path fill="#234093" d="M641,424.6h-1.7c-1.7,0-1.7-0.9-1.6-2.7c-0.9,1.1-2.6,3.1-6.6,3.1c-1.2,0-3.2-0.1-4.6-2
			c-1-1.1-1.6-3-1.6-4.8c0-2.8,1.3-4.5,2.3-5.3c1.6-1.4,4-1.8,6.7-2.1l3.7-0.5v-2.2c0-2.2,0-5.4-4.4-5.4c-5.2,0-5.2,4.2-5.3,5.8
			h-2.5c-0.1-6.6,5.1-8.1,8.1-8.1c1.9,0,4,0.5,5.1,1.9c1.3,1.6,1.3,3.8,1.4,5.5v5.6l-0.1,6l0,2.1c0,1.6,0.2,2.2,1,2.6V424.6z
			 M637.6,412.3c-1.4,0.1-3.1,0.4-4.9,0.7c-1.4,0.3-5.1,1-5.1,5c0,2.9,1.9,4.7,4.3,4.7c1.2,0,2.6-0.5,3.6-1.1c2.1-1.4,2.2-3.4,2.2-5
			V412.3z"/>
		<path fill="#234093" d="M653.8,403l-0.1,14.5c0,2.7,0.1,3.5,0.5,4.1c0.3,0.5,1.1,1.1,2.4,1.1c1.3,0,2.1-0.4,2.8-0.8v2.3
			c-0.8,0.3-2,0.8-3.7,0.8c-3,0-3.9-1.9-4-2.1c-0.5-0.9-0.5-2-0.5-5l0.2-14.9h-3.4v-2.1h3.4v-5.4l2.6-0.4l-0.1,5.8h4.1v2.1H653.8z"
			/>
		<path fill="#234093" d="M674.8,425c-7.6,0-8.8-6.8-8.8-12.1c0-3.3,0.2-12.5,8.8-12.5c8,0,8.4,7.9,8.5,11.3
			C683.5,416.8,682.9,425,674.8,425z M674.9,402.7c-6.2,0-6.2,8.1-6.2,10.2c0,4,0.6,10,6.3,10s5.9-7.3,5.8-10.8
			C680.7,408.8,680.3,402.7,674.9,402.7z"/>
		<path fill="#234093" d="M695.5,424.6H693v-23.8h2.5v2.8c1.5-1.7,2.7-3.1,5.1-3.1c1.5,0,2.1,0.6,2.7,1v2.9
			c-0.8-0.6-1.8-1.5-3.6-1.5c-0.6,0-1.3,0.1-2.1,0.5c-2.1,1.1-2.1,3.2-2.1,4.5V424.6z"/>
		<path fill="#234093" d="M725.9,400.8l-9,27.5c-1,2.6-2.1,6-6.1,6c-0.9,0-1.4-0.1-2.1-0.3v-2.8c0.5,0.2,1.2,0.5,2.1,0.5
			c2.6,0,3.3-2.4,4.1-4.6l0.8-2.7l-7.3-23.6h3l5.9,19.3l6.1-19.3H725.9z"/>
	</g>
	<g>
		<g>
			<g>
				<path fill="#234093" d="M73.5,198.9H133c30.6,0,56.5,15.8,56.5,57.5c0,25-7.9,35.6-26.2,43v1.3c2.5,2.4,5.6,5.1,8.3,9.9
					l29.5,53.8h-56.8l-21.6-53.1h-0.9v53.1H73.5V198.9z M121.7,272.3h3.4c8.1,0,16.2-1.5,16.2-13.8c0-12.7-7.4-14.3-15.8-14.3h-3.8
					V272.3z"/>
				<path fill="#234093" d="M274.7,349.1h-1.1c-8.5,11-16,18-29.1,18c-25.9,0-40.3-32.1-40.3-60.4c0-29.4,14.6-61.5,41.5-61.5
					c11.5,0,21,5.1,27.9,16.5h1.1l-1.4-13.8h45.5v116.6h-45.5L274.7,349.1z M262.3,322.8c8.8,0,12.4-8.6,12.4-17.6
					s-5-15.6-12.4-15.6c-7.4,0-12,7.5-12,16C250.3,314.9,253.9,322.8,262.3,322.8z"/>
				<path fill="#234093" d="M405.9,347.2h-1.1c-7.7,11.9-18.7,20-31.1,20c-25.9,0-39.5-32.1-39.5-60c0-29,12.8-61.9,39.7-61.9
					c10.8,0,22.3,7.5,28.8,18.2h1.6l-2.2-27.9v-49.2h46.4v178.1H405L405.9,347.2z M379.8,306.1c0,8.8,4.1,16.7,11.9,16.7
					c7.2,0,12-9.2,12-17.1c0-8.1-5-16-12-16C383.9,289.6,379.8,297.5,379.8,306.1z"/>
				<path fill="#234093" d="M518.3,211.9c0,19.1-12.2,27.5-25.5,27.5c-13.3,0-25.5-8.3-25.5-27.5c0-16.9,11-27.2,25.5-27.2
					C507.3,184.6,518.3,195,518.3,211.9z M469.6,247.9h46.4v116.6h-46.4V247.9z"/>
				<path fill="#234093" d="M589.9,249.4l15.5-0.9v44.6l-15.5-1.1v72.5h-46.7V292l-11.3,1.1v-44.6l11.3,0.9v-39.1h46.7V249.4z"/>
				<path fill="#234093" d="M666.7,211.9c0,19.1-12.2,27.5-25.5,27.5c-13.3,0-25.5-8.3-25.5-27.5c0-16.9,11-27.2,25.5-27.2
					C655.7,184.6,666.7,195,666.7,211.9z M617.9,247.9h46.4v116.6h-46.4V247.9z"/>
				<path fill="#234093" d="M686.7,186.4H733v178.1h-46.4V186.4z"/>
			</g>
		</g>
		<g>
			<path fill="#234093" d="M757,360.3l8.5,0.1c1.6,0,2-0.1,2.4-0.3c0.3-0.2,0.7-0.8,0.7-1.7c0-0.9-0.3-1.5-0.5-2h1.3
				c0.2,0.6,0.5,1.4,0.5,2.6c0,2.1-1.1,2.7-1.3,2.8c-0.5,0.3-1.2,0.4-2.9,0.4l-8.8-0.1v2.4h-1.2v-2.4h-3.2l-0.3-1.8l3.4,0.1v-2.9
				h1.2V360.3z"/>
			<path fill="#234093" d="M765.5,335.7c2.1,0,4.5,1.9,4.5,5.7c0,0.8-0.1,1.8-0.5,2.8c-1.1,2.5-3.8,3.3-6.5,3.3
				c-3.3,0-7.5-1.2-7.5-6.3c0-4.6,3.5-5.7,7.1-5.6v10c1.5,0,6.1,0.1,6.1-4.3c0-1.7-0.9-3.6-3.1-3.8V335.7z M761.2,337.4
				c-0.9,0.1-4.4,0.2-4.4,3.8c0,0.5,0,3.9,4.4,4.4V337.4z"/>
			<path fill="#234093" d="M769.7,313.9v1.8h-8.1c-0.7,0-1.4,0-2.1,0.1c-0.6,0.1-2.8,0.4-2.8,3.3c0,0.4,0,1.1,0.3,1.9
				c0.8,2.2,2.3,2.3,3.2,2.3h9.4v1.8h-14v-1.8h1.6c-0.6-0.6-1.9-2.2-1.9-4.9c0-1.4,0.4-2.8,1.5-3.6c1-0.8,2.3-0.8,3.4-0.8H769.7z"/>
			<path fill="#234093" d="M770,296.7c0,5.4-4,6.2-7.1,6.2c-1.9,0-7.4-0.1-7.4-6.3c0-5.7,4.6-6,6.6-6C765.1,290.6,770,291,770,296.7
				z M756.8,296.7c0,4.4,4.8,4.4,6,4.4c2.4,0,5.9-0.4,5.9-4.4c0-4-4.3-4.1-6.4-4.1C760.4,292.6,756.8,292.9,756.8,296.7z"/>
			<path fill="#234093" d="M769.7,269.9v2.3l-6.1,4l6.1,4.1v1.9l-7.2-5.1l-6.7,4.5v-2.3l5.1-3.4l-5.1-3.6v-1.7l6.3,4.5L769.7,269.9z
				"/>
			<path fill="#234093" d="M752.4,258.5v1.8h-2.1v-1.8H752.4z M769.7,258.5v1.8h-14v-1.8H769.7z"/>
			<path fill="#234093" d="M765.1,235.7c0.7,0.1,2.4,0.3,3.7,2c0.9,1.2,1.2,2.5,1.2,3.9c0,3.2-1.6,5.2-4.7,5.8
				c-0.8,0.1-1.6,0.2-2.4,0.2c-1,0-1.9-0.1-2.9-0.3c-1-0.3-3.1-0.9-4.1-3.4c-0.3-0.8-0.4-1.7-0.4-2.6c0-1.1,0.2-2.9,1.5-4.2
				c1.2-1.2,2.8-1.3,3.5-1.3v1.9c-2.6,0-3.6,1.7-3.6,3.7c0,0.7,0.1,1.8,1.2,2.9c1,0.9,2.3,1.2,3.2,1.3c0.6,0.1,1.1,0.1,1.6,0.1
				c3.1,0,5.8-1.2,5.8-4.2c0-1-0.3-2-0.9-2.6c-0.8-0.9-2.1-1.1-2.6-1.2V235.7z"/>
			<path fill="#234093" d="M769.7,215.2v1.2c0,1.2-0.5,1.2-1.6,1.2c0.7,0.7,1.8,1.9,1.8,4.6c0,0.8-0.1,2.2-1.1,3.3
				c-0.7,0.7-1.8,1.1-2.8,1.1c-1.6,0-2.7-0.9-3.1-1.6c-0.8-1.1-1-2.8-1.3-4.7l-0.3-2.6H760c-1.3,0-3.2,0-3.2,3.1
				c0,3.7,2.5,3.7,3.4,3.7v1.8c-3.8,0.1-4.7-3.6-4.7-5.7c0-1.3,0.3-2.8,1.1-3.6c0.9-1,2.2-1,3.2-1h3.3l3.5,0.1l1.2,0
				c0.9,0,1.3-0.1,1.5-0.7H769.7z M762.5,217.6c0.1,1,0.2,2.2,0.4,3.5c0.2,1,0.6,3.6,3,3.6c1.7,0,2.7-1.3,2.7-3
				c0-0.8-0.3-1.8-0.7-2.5c-0.8-1.5-2-1.5-2.9-1.6H762.5z"/>
			<path fill="#234093" d="M769.7,186.4v1.8h-9.1c-1,0-2,0-2.8,0.5c-0.2,0.1-1.2,0.7-1.2,2.3c0,0.6,0.2,1.2,0.4,1.7
				c0.9,1.7,2.2,1.8,3.2,1.9h9.4v1.8h-9.2c-0.5,0-1,0-1.5,0.1c-0.7,0.2-2.3,0.7-2.3,2.7c0,1.3,0.8,2.6,1.8,3.2
				c0.7,0.4,1.6,0.4,2.6,0.4h8.6v1.8h-14v-1.8h1.6c-0.8-0.9-1.9-2.2-1.9-4.3c0-1.6,0.6-3,2.2-3.5c-0.8-0.8-2.2-2.3-2.2-4.5
				c0-0.8,0.2-1.4,0.3-1.8c0.9-2,2.7-2,4-2.1H769.7z"/>
		</g>
		<g>
			<path fill="#234093" d="M701.9,178h-1.5v-14.9h-4.8v-1.2h11.1v1.2h-4.7V178z"/>
			<path fill="#234093" d="M724.3,178h-1.5l-0.2-13.7c0-0.8,0-0.9-0.1-1.9c-0.3,1-0.4,1.2-0.7,2l-5,13.6h-1.3l-5.1-14
				c-0.3-0.7-0.3-0.9-0.6-1.7c0,0.9,0,1.2,0,1.9l-0.3,13.7h-1.4l0.4-16.1h2.7l4,11.4c0.4,1.1,0.5,1.6,0.9,2.9c0.5-1.4,0.5-1.5,1-2.9
				l4.1-11.4h2.7L724.3,178z"/>
		</g>
	</g>
</g>
</svg>
