<?xml version="1.0" encoding="utf-8"?>
<!-- Generator: Adobe Illustrator 18.0.0, SVG Export Plug-In . SVG Version: 6.00 Build 0)  -->
<!DOCTYPE svg PUBLIC "-//W3C//DTD SVG 1.1//EN" "http://www.w3.org/Graphics/SVG/1.1/DTD/svg11.dtd">
<svg version="1.1" id="Layer_1" xmlns="http://www.w3.org/2000/svg" xmlns:xlink="http://www.w3.org/1999/xlink" x="0px" y="0px"
	 viewBox="0 0 360 216" enable-background="new 0 0 360 216" xml:space="preserve">
<rect fill="none" width="360" height="216"/>
<g>
	<path d="M590.5,107.4c-3.7,0-7.1-2.9-7.1-7.1c0-4.1,3.3-7.1,7.1-7.1c4.1,0,7.1,3.2,7.1,7.1C597.6,104.3,594.5,107.4,590.5,107.4z
		 M590.6,93.9c-3.7,0-6.5,2.9-6.5,6.4c0,3.6,2.9,6.4,6.4,6.4c3.6,0,6.4-2.8,6.5-6.4C597,96.8,594.2,93.9,590.6,93.9z M590.4,95.9
		c1,0,1.5,0,2.1,0.2c0.9,0.4,1.4,1.2,1.4,2c0,1.2-0.9,1.9-2,2.1c1,0.4,1.3,0.9,1.4,1.9c0.2,1.3,0.3,1.8,0.7,2.6h-1.5
		c-0.2-0.4-0.3-0.8-0.4-1.2c0-0.2-0.2-1.2-0.2-1.4c-0.3-1.3-1-1.5-2.2-1.5H589v4.1h-1.3v-8.8H590.4z M589,99.6h1.5c0.6,0,2,0,2-1.4
		c0-0.4-0.2-0.8-0.4-1c-0.4-0.3-0.8-0.3-1.9-0.3H589V99.6z"/>
</g>
<g>
	<g>
		<path d="M322.1,83.3h-0.8v-5.9h-2.1v-0.7h4.9v0.7h-2.1V83.3z"/>
		<path d="M328.1,83.3l-2.2-5.8h0c0,0.5,0.1,1,0.1,1.6v4.2h-0.7v-6.6h1.1l2.1,5.4h0l2.1-5.4h1.1v6.6h-0.8v-4.2c0-0.5,0-1,0.1-1.6h0
			l-2.2,5.8H328.1z"/>
	</g>
</g>
<g>
	<path fill="#0072BC" d="M28.3,83.3h10.8c6.1,0,10.2,0.3,12.4,0.8c2.2,0.5,4.1,1.4,5.7,2.6c1.6,1.2,2.8,2.8,3.7,4.7
		c0.9,1.9,1.4,4.1,1.4,6.3c0,4.7-1.7,8.3-4.9,11c-3.3,2.6-7.9,3.9-14,3.7l19.6,25.3h-6.7l-19.5-25.3h-3.1v25.3h-5.5V83.3z
		 M33.8,88.6v18.5h9.4c4.7,0.1,8.1-0.7,10.3-2.1c2.2-1.5,3.3-3.9,3.3-7.1c0-3.2-1.1-5.6-3.3-7.1c-2.2-1.4-5.5-2.2-10.1-2.2H33.8z"/>
	<path fill="#0072BC" d="M114,97.4v40.2h-5.1v-6.9c-4.6,5.5-9.8,8.2-15.8,8.2c-5.9,0-10.9-2.1-15-6.3c-4-4.2-6.1-9.3-6.1-15.1
		c0-5.8,2-10.8,6.1-15c4.1-4.2,9-6.3,14.7-6.3c6.5,0,11.9,2.8,16,8.4v-7.3H114z M109.3,117.7c0-4.6-1.6-8.5-4.6-11.6
		c-3.1-3.2-6.8-4.8-11.3-4.8c-4.5,0-8.2,1.6-11.3,4.9c-3.1,3.3-4.6,7.1-4.6,11.6c0,4.4,1.6,8.3,4.7,11.5c3.1,3.3,6.9,4.9,11.2,4.9
		c4.4,0,8.1-1.6,11.2-4.7C107.7,126.4,109.3,122.5,109.3,117.7z"/>
	<path fill="#0072BC" d="M166.6,81.9v55.8h-5.1v-6.9c-4.6,5.5-9.9,8.2-15.8,8.2c-5.9,0-10.9-2.1-15-6.3c-4-4.2-6.1-9.2-6.1-15.1
		c0-5.9,2.1-10.9,6.2-15c4.1-4.2,9-6.3,14.7-6.3c6.6,0,11.9,2.8,16,8.4V81.9H166.6z M161.8,117.9c0-4.6-1.5-8.5-4.5-11.7
		c-3-3.2-6.8-4.8-11.4-4.8c-4.6,0-8.4,1.6-11.4,4.9c-3,3.3-4.6,7.1-4.6,11.5c0,4.4,1.6,8.3,4.7,11.6c3.1,3.3,6.8,4.9,11.1,4.9
		c4.2,0,8-1.5,11.2-4.6C160.2,126.5,161.8,122.6,161.8,117.9z"/>
	<path fill="#0072BC" d="M176.7,86.2c0-1.2,0.4-2.2,1.3-3.1c0.8-0.8,1.9-1.3,3-1.3c1.2,0,2.2,0.4,3,1.2c0.8,0.8,1.2,1.9,1.2,3
		c0,1.2-0.4,2.2-1.2,3c-0.8,0.8-1.8,1.3-3,1.3c-1.2,0-2.2-0.4-3-1.3C177.1,88.3,176.7,87.3,176.7,86.2z M178.4,97.4h5.2v40.2h-5.2
		V97.4z"/>
	<path fill="#ED1C24" d="M243.9,86.2c0-1.2,0.4-2.2,1.3-3.1c0.8-0.8,1.8-1.3,3-1.3c1.2,0,2.2,0.4,3,1.2c0.8,0.8,1.2,1.9,1.2,3
		c0,1.2-0.4,2.2-1.2,3c-0.8,0.8-1.9,1.3-3,1.3c-1.2,0-2.2-0.4-3-1.3C244.3,88.3,243.9,87.3,243.9,86.2z"/>
	<path d="M316,81.9v55.8h-5.1v-6.9c-4.6,5.5-9.9,8.2-15.8,8.2c-5.9,0-10.9-2.1-15-6.3c-4-4.2-6.1-9.2-6.1-15.1c0-5.9,2-10.9,6.1-15
		c4.1-4.2,9-6.3,14.7-6.3c6.6,0,11.9,2.8,16,8.4V81.9H316z M311.2,117.9c0-4.6-1.5-8.5-4.5-11.7c-3-3.2-6.8-4.8-11.4-4.8
		c-4.5,0-8.3,1.6-11.4,4.9c-3.1,3.3-4.6,7.1-4.6,11.5c0,4.4,1.6,8.3,4.7,11.6c3.1,3.3,6.8,4.9,11.1,4.9c4.2,0,8-1.5,11.2-4.6
		C309.6,126.5,311.2,122.6,311.2,117.9z"/>
	<g>
		<g>
			<path fill-rule="evenodd" clip-rule="evenodd" fill="#ED1C24" d="M273.6,88.6c-1.5-5.4-6.1-9.5-12.2-11.8
				c2.7,2.2,4.6,4.9,5.6,8.2c3.2,11.4-8,24.5-25,29.2c-8.8,2.5-17.5,2.1-24.3-0.3c6.9,5.5,18.8,7.3,30.9,3.9
				C265.5,113.2,276.8,100.1,273.6,88.6z"/>
		</g>
	</g>
	<g>
		<path fill-rule="evenodd" clip-rule="evenodd" fill="#ED1C24" d="M224.8,92.6c1.5,5.4,6.1,9.5,12.3,11.8c-2.7-2.2-4.7-5-5.6-8.2
			c-3.2-11.4,8-24.5,25-29.3c8.8-2.4,17.5-2.1,24.3,0.3c-6.9-5.5-18.8-7.3-31-3.9C232.8,68.1,221.6,81.2,224.8,92.6z"/>
	</g>
	<path d="M191.8,97.4h29.6l-22.8,35.6h22.1v4.6h-31l22.8-35.7h-20.6V97.4z"/>
	<g>
		<polygon points="250.8,97.4 245.6,97.4 245.6,110.4 250.8,108 		"/>
		<path d="M245.6,121.4v16.2h5.2v-17.5C249.5,120.5,247.6,121.1,245.6,121.4z"/>
	</g>
</g>
</svg>
