<?xml version="1.0" encoding="utf-8"?>
<!-- Generator: Adobe Illustrator 18.0.0, SVG Export Plug-In . SVG Version: 6.00 Build 0)  -->
<!DOCTYPE svg PUBLIC "-//W3C//DTD SVG 1.1//EN" "http://www.w3.org/Graphics/SVG/1.1/DTD/svg11.dtd">
<svg version="1.1" id="Layer_1" xmlns="http://www.w3.org/2000/svg" xmlns:xlink="http://www.w3.org/1999/xlink" x="0px" y="0px"
	 viewBox="0 0 180 80" enable-background="new 0 0 180 80" xml:space="preserve">
<g>
	<g>
		<g>
			<circle fill="#F15D22" cx="149.8" cy="23.2" r="1.3"/>
			<circle fill="#F9A74C" cx="145.1" cy="22.6" r="1.9"/>
			<circle fill="#F9A74C" cx="137.6" cy="27.2" r="4.1"/>
			<circle fill="#F15D22" cx="138.8" cy="18.2" r="1.9"/>
			<circle fill="#F9A74C" cx="133.6" cy="22.4" r="1.2"/>
			<circle fill="#F9A74C" cx="128.4" cy="17.4" r="0.9"/>
			<circle fill="#F9A74C" cx="130.9" cy="27.7" r="0.9"/>
			<circle fill="#F15D22" cx="121.1" cy="33.2" r="2"/>
			<circle fill="#F15D22" cx="119.2" cy="28.4" r="0.8"/>
			<circle fill="#F9A74C" cx="126.1" cy="38.1" r="1.7"/>
			<circle fill="#F9A74C" cx="123.4" cy="13.5" r="0.8"/>
			<circle fill="#F15D22" cx="120.1" cy="20.1" r="0.9"/>
			<circle fill="#F15D22" cx="126.5" cy="23.2" r="2.7"/>
			<circle fill="#F9A74C" cx="144.6" cy="18" r="0.9"/>
			<circle fill="#F9A74C" cx="126.1" cy="9.1" r="0.7"/>
			<circle fill="#F9A74C" cx="138.9" cy="12.6" r="0.7"/>
			<circle fill="#F9A74C" cx="134.4" cy="17.2" r="0.6"/>
			<circle fill="#F15D22" cx="132" cy="8.5" r="0.7"/>
			<g>
				<path fill="#F9A74C" d="M153.2,26.1c0.1,0.1,0.3,0.2,0.4,0.3C153.5,26.3,153.4,26.2,153.2,26.1z"/>
				<path fill="#F15D22" d="M160.4,35.6c-1.4-3.8-3.8-6.9-6.7-9.2c-0.1-0.1-0.3-0.2-0.4-0.3c-0.2-0.1-0.5-0.1-0.8,0
					c-0.6,0.2-0.8,0.8-0.6,1.4c0,0,0,0.1,0.1,0.1c0.1,0.2,0.2,0.4,0.6,0.8c0.5,0.6,0.5,1.7-0.3,2.2c-0.8,0.5-2-0.1-2.5-1.4
					c-0.5-1.2-1.6-3.6-3.7-3.7c-2.2-0.1-2.7,1.5-3.2,3.4c-0.5,1.9-2,3.7-4.7,3.9c-2.7,0.2-4.1-1.4-5-2.5c-0.9-1.1-2.7-1.6-4.4-0.7
					c-1.7,1-1.8,2.9-1.2,4.2c0.5,1.3,1.5,3.8,1.8,4.8c0.3,1-0.3,2.2-1.5,2.8c-1.2,0.6-2.4,0-3-1c-0.6-1-1.6-1.7-2.7-1.7
					c-0.9,0.1-2,0.5-2.6,2.2c-0.3,3.2,0.1,6.5,1.3,9.7c4.2,11,16.4,16.5,27.4,12.4C159,58.9,164.5,46.6,160.4,35.6z"/>
			</g>
		</g>
		<g>
			<g>
				<path d="M11.2,70l1.3-3.9c0-0.1,0.1-0.1,0.1-0.1h0.4c0.1,0,0.1,0,0.1,0.1c0,0,0,0.1,0,0.1l-1.8,4.9c0,0.1-0.1,0.1-0.2,0.1
					c-0.2,0-0.3,0-0.3-0.1l-1.8-4.9c0-0.1,0-0.1,0-0.1C9.1,66,9.2,66,9.2,66h0.5c0.1,0,0.1,0,0.2,0.1L11.2,70z"/>
				<path d="M13.8,66.8c-0.2,0-0.4-0.2-0.4-0.4c0-0.2,0.2-0.4,0.4-0.4c0.2,0,0.4,0.1,0.4,0.4C14.2,66.6,14,66.8,13.8,66.8z
					 M14.1,71.1c0,0.1,0,0.1-0.1,0.1h-0.4c-0.1,0-0.1,0-0.1-0.1v-3.5c0-0.1,0-0.1,0.1-0.1h0.4c0.1,0,0.1,0,0.1,0.1V71.1z"/>
				<path d="M15.7,67.7v2.4c0,0.3,0,0.4,0.1,0.5c0.1,0.2,0.2,0.3,0.4,0.3c0,0,0.2,0,0.2,0c0.1,0,0.1,0.1,0.1,0.1
					c0,0.2-0.4,0.2-0.6,0.2c-0.3,0-0.6-0.1-0.8-0.3c-0.2-0.2-0.2-0.5-0.2-0.7v-2.5h-0.4c-0.1,0-0.1,0-0.1-0.1c0-0.2,0-0.2,0.1-0.2
					H15V67c0-0.1,0-0.2,0.1-0.3l0.3-0.3c0.1-0.1,0.1-0.1,0.1-0.1c0.1,0,0.1,0.1,0.1,0.2v0.9h0.6c0.1,0,0.1,0,0.1,0.1
					c0,0.2,0,0.2-0.1,0.2H15.7z"/>
				<path d="M19.4,70.5c0,0.3,0,0.5-0.3,0.7c-0.3,0.1-0.7,0.2-1,0.2c-0.2,0-1.3,0-1.3-1c0-0.8,0.8-1.1,2-1.4v-0.4
					c0-0.3,0-0.8-0.5-0.8c-0.4,0-0.5,0.3-0.6,0.5c-0.1,0.1-0.1,0.3-0.3,0.3c-0.1,0-0.3-0.1-0.3-0.3c0-0.4,0.5-0.9,1.3-0.9
					c1.1,0,1.1,0.8,1.1,1.2V70.5z M18.8,69.2c-0.8,0.3-1.3,0.4-1.3,1c0,0.1,0,0.7,0.7,0.7c0.6,0,0.6-0.3,0.6-0.5V69.2z"/>
				<path d="M20.2,68.1c0-0.3,0-0.4,0.2-0.5c0.2-0.2,0.7-0.3,1.1-0.3c0.7,0,1,0.3,1.1,0.4c0.2-0.2,0.4-0.4,1.1-0.4
					c1.2,0,1.2,0.8,1.2,1.2v2.6c0,0.1,0,0.1-0.1,0.1h-0.4c-0.1,0-0.1,0-0.1-0.1v-2.4c0-0.4,0-1-0.7-1c-0.3,0-0.4,0.1-0.5,0.2
					c-0.2,0.2-0.2,0.4-0.2,0.6v2.6c0,0.1,0,0.1-0.1,0.1h-0.4c-0.1,0-0.1,0-0.1-0.1v-2.5c0-0.3,0-0.9-0.7-0.9c-0.7,0-0.7,0.5-0.7,0.8
					v2.6c0,0.1,0,0.1-0.1,0.1h-0.4c-0.1,0-0.1,0-0.1-0.1V68.1z"/>
				<path d="M26.1,66.8c-0.2,0-0.4-0.2-0.4-0.4c0-0.2,0.2-0.4,0.4-0.4c0.2,0,0.4,0.1,0.4,0.4C26.5,66.6,26.3,66.8,26.1,66.8z
					 M26.4,71.1c0,0.1,0,0.1-0.1,0.1h-0.4c-0.1,0-0.1,0-0.1-0.1v-3.5c0-0.1,0-0.1,0.1-0.1h0.4c0.1,0,0.1,0,0.1,0.1V71.1z"/>
				<path d="M30.2,71.1c0,0.1,0,0.1-0.1,0.1h-0.4c-0.1,0-0.2,0-0.2-0.1v-2.5c0-0.3,0-0.9-0.8-0.9c-0.8,0-0.8,0.5-0.8,0.7v2.7
					c0,0.1-0.1,0.1-0.2,0.1h-0.4c-0.1,0-0.1,0-0.1-0.1v-3c0-0.3,0-0.4,0.3-0.5c0.5-0.3,1.2-0.3,1.2-0.3c1.4,0,1.4,0.8,1.4,1.2V71.1z
					"/>
				<path d="M34.9,66.4c-0.8,0-1.5,0.8-1.5,2.1c0,1.4,0.7,2.4,1.7,2.4c0.4,0,0.7-0.1,1-0.3c0.1-0.1,0.2-0.1,0.2-0.1
					c0.1,0,0.2,0.1,0.2,0.2c0,0.3-0.6,0.8-1.6,0.8c-1.6,0-2.4-1.3-2.4-2.7c0-1.3,0.6-2.7,2.3-2.7c1.1,0,1.7,0.6,1.7,1
					c0,0.2-0.2,0.3-0.3,0.3c-0.1,0-0.2,0-0.3-0.2C35.9,66.9,35.6,66.4,34.9,66.4z"/>
				<path d="M40.5,67c-0.8,0.4-1.3,0.4-1.4,0.4c-0.2,0-0.2-0.2-0.2-0.2c0-0.1,0.1-0.2,0.4-0.2c0.8-0.2,1.2-0.6,1.4-0.8
					C40.8,66,40.9,66,41,66c0.1,0,0.2,0.1,0.2,0.2v4.9c0,0.1,0,0.1-0.1,0.1h-0.4c-0.1,0-0.1,0-0.1-0.1V67z"/>
				<path d="M44.5,71.3c-0.9,0-1.5-0.9-1.5-2.7c0-1.6,0.6-2.7,1.6-2.7c0.9,0,1.5,1.1,1.5,2.7C46,70.1,45.5,71.3,44.5,71.3z
					 M44.5,66.3c-0.7,0-0.9,1.5-0.9,2.2c0,0.6,0.1,1.2,0.2,1.6c0.1,0.4,0.3,0.7,0.7,0.7c0.8,0,0.9-1.7,0.9-2.3
					C45.3,67.8,45.2,66.3,44.5,66.3z"/>
				<path d="M48.4,71.3c-0.9,0-1.5-0.9-1.5-2.7c0-1.6,0.6-2.7,1.6-2.7c0.9,0,1.5,1.1,1.5,2.7C49.9,70.1,49.4,71.3,48.4,71.3z
					 M48.4,66.3c-0.7,0-0.9,1.5-0.9,2.2c0,0.6,0.1,1.2,0.2,1.6c0.1,0.4,0.3,0.7,0.7,0.7c0.8,0,0.9-1.7,0.9-2.3
					C49.2,67.8,49.1,66.3,48.4,66.3z"/>
				<path d="M52.3,71.3c-0.9,0-1.5-0.9-1.5-2.7c0-1.6,0.6-2.7,1.6-2.7c0.9,0,1.5,1.1,1.5,2.7C53.8,70.1,53.3,71.3,52.3,71.3z
					 M52.3,66.3c-0.7,0-0.9,1.5-0.9,2.2c0,0.6,0.1,1.2,0.2,1.6c0.1,0.4,0.3,0.7,0.7,0.7c0.8,0,0.9-1.7,0.9-2.3
					C53.1,67.8,53.1,66.3,52.3,66.3z"/>
				<path d="M56.5,68.1c0-0.3,0-0.4,0.2-0.5c0.2-0.2,0.7-0.3,1.1-0.3c0.7,0,1,0.3,1.1,0.4c0.2-0.2,0.4-0.4,1.1-0.4
					c1.2,0,1.2,0.8,1.2,1.2v2.6c0,0.1,0,0.1-0.1,0.1h-0.4c-0.1,0-0.1,0-0.1-0.1v-2.4c0-0.4,0-1-0.7-1c-0.3,0-0.4,0.1-0.5,0.2
					c-0.2,0.2-0.2,0.4-0.2,0.6v2.6c0,0.1,0,0.1-0.1,0.1h-0.4c-0.1,0-0.1,0-0.1-0.1v-2.5c0-0.3,0-0.9-0.7-0.9c-0.7,0-0.7,0.5-0.7,0.8
					v2.6c0,0.1,0,0.1-0.1,0.1h-0.4c-0.1,0-0.1,0-0.1-0.1V68.1z"/>
				<path d="M64.4,67.9c0.1,0.1,0.2,0.3,0.2,0.8c0,0.9-0.7,1.3-1.3,1.3c-0.2,0-0.3,0-0.4-0.1c-0.2,0.2-0.3,0.3-0.3,0.5
					c0,0.2,0.3,0.3,0.7,0.3l0.8,0c0.3,0,1.2,0.1,1.2,0.9c0,0.5-0.5,1.4-2.1,1.4c-0.3,0-0.5,0-0.7-0.1c-0.5-0.1-0.7-0.4-0.7-0.8
					c0-0.4,0.3-0.7,0.8-1C62.3,71,62,71,62,70.6c0-0.3,0.4-0.7,0.6-0.9c-0.1-0.1-0.3-0.2-0.5-0.5C62,69,62,68.8,62,68.6
					c0-0.7,0.5-1.3,1.3-1.3c0.3,0,0.4,0.1,0.6,0.1c0.2,0.1,0.3,0.1,0.4,0.1c0.1,0,0.7-0.1,0.7-0.1c0.1,0,0.1,0.2,0.1,0.2
					c0,0.1,0,0.1-0.1,0.1L64.4,67.9z M62.4,71.9c0,0.5,0.5,0.6,1,0.6c0.6,0,1.2-0.3,1.2-0.8c0-0.4-0.5-0.5-0.7-0.5
					c-0.2,0-0.9,0-1.1-0.1C62.6,71.4,62.4,71.6,62.4,71.9z M63.7,67.8c-0.1-0.1-0.2-0.1-0.4-0.1c-0.3,0-0.7,0.2-0.7,0.8
					c0,0.7,0.4,1,0.8,1c0.3,0,0.7-0.2,0.7-0.8c0-0.1,0-0.2,0-0.3C63.9,68,63.7,67.9,63.7,67.8z"/>
				<path d="M69.7,70.5c0,0.3,0,0.5-0.3,0.7c-0.3,0.1-0.7,0.2-1,0.2c-0.2,0-1.3,0-1.3-1c0-0.8,0.8-1.1,2-1.4v-0.4
					c0-0.3,0-0.8-0.5-0.8c-0.4,0-0.5,0.3-0.6,0.5c-0.1,0.1-0.1,0.3-0.3,0.3c-0.1,0-0.3-0.1-0.3-0.3c0-0.4,0.5-0.9,1.3-0.9
					c1.1,0,1.1,0.8,1.1,1.2V70.5z M69,69.2c-0.8,0.3-1.3,0.4-1.3,1c0,0.1,0,0.7,0.7,0.7c0.6,0,0.6-0.3,0.6-0.5V69.2z"/>
				<path d="M71.9,69.1c0.4,0.2,0.9,0.4,0.9,1.1c0,0.3-0.1,0.6-0.3,0.8c-0.3,0.3-0.7,0.3-0.9,0.3c-1,0-1.2-0.6-1.2-0.8
					c0-0.2,0.2-0.3,0.3-0.3c0.2,0,0.2,0.1,0.3,0.2c0,0,0.1,0.1,0.1,0.2c0.1,0.2,0.3,0.4,0.6,0.4c0.4,0,0.6-0.3,0.6-0.6
					c0-0.4-0.4-0.6-0.7-0.8c-0.6-0.3-1.1-0.5-1.1-1.2c0-0.5,0.4-1,1.1-1c0.8,0,1.1,0.5,1.1,0.7c0,0.2-0.1,0.3-0.3,0.3
					c-0.2,0-0.3-0.1-0.3-0.3c-0.1-0.1-0.2-0.4-0.6-0.4c-0.4,0-0.5,0.3-0.5,0.5c0,0.4,0.3,0.6,0.6,0.7L71.9,69.1z"/>
				<path d="M77.7,69.2h-1.6l-0.7,1.9c0,0.1-0.1,0.1-0.2,0.1H75c-0.1,0-0.1,0-0.1-0.1c0,0,0-0.1,0-0.1l1.9-4.9
					c0-0.1,0.1-0.1,0.1-0.1h0.3c0.1,0,0.1,0,0.1,0.1l1.9,4.9c0,0,0,0.1,0,0.1c0,0.1,0,0.1-0.1,0.1h-0.5c-0.1,0-0.1,0-0.2-0.1
					L77.7,69.2z M77.6,68.8L77,67l-0.6,1.8H77.6z"/>
				<path d="M105.6,69.2H104l-0.7,1.9c0,0.1-0.1,0.1-0.2,0.1h-0.3c-0.1,0-0.1,0-0.1-0.1c0,0,0-0.1,0-0.1l1.9-4.9
					c0-0.1,0.1-0.1,0.1-0.1h0.3c0.1,0,0.1,0,0.1,0.1l1.9,4.9c0,0,0,0.1,0,0.1c0,0.1,0,0.1-0.1,0.1h-0.5c-0.1,0-0.1,0-0.2-0.1
					L105.6,69.2z M105.4,68.8l-0.6-1.8l-0.6,1.8H105.4z"/>
				<path d="M81.1,69.1c0.4,0.2,0.9,0.4,0.9,1.1c0,0.3-0.1,0.6-0.3,0.8c-0.3,0.3-0.7,0.3-0.9,0.3c-1,0-1.2-0.6-1.2-0.8
					c0-0.2,0.2-0.3,0.3-0.3c0.2,0,0.2,0.1,0.3,0.2c0,0,0.1,0.1,0.1,0.2c0.1,0.2,0.3,0.4,0.6,0.4c0.4,0,0.6-0.3,0.6-0.6
					c0-0.4-0.4-0.6-0.7-0.8c-0.6-0.3-1.1-0.5-1.1-1.2c0-0.5,0.4-1,1.1-1c0.8,0,1.1,0.5,1.1,0.7c0,0.2-0.1,0.3-0.3,0.3
					c-0.2,0-0.3-0.1-0.3-0.3c-0.1-0.1-0.2-0.4-0.6-0.4c-0.4,0-0.5,0.3-0.5,0.5c0,0.4,0.3,0.6,0.6,0.7L81.1,69.1z"/>
				<path d="M84,67.7c-0.5,0-0.9,0.5-0.9,1.4c0,1.1,0.5,1.6,1.1,1.6c0.5,0,0.7-0.4,0.9-0.6c0.1-0.2,0.1-0.2,0.2-0.2
					c0,0,0.2,0,0.2,0.2c0,0.3-0.4,1.2-1.4,1.2c-1,0-1.5-0.8-1.5-2c0-1.2,0.6-2,1.6-2c0.8,0,1.2,0.6,1.2,0.9c0,0.2-0.2,0.3-0.3,0.3
					c-0.1,0-0.2-0.1-0.3-0.2C84.6,68,84.4,67.7,84,67.7z"/>
				<path d="M87.4,71.3c-1.1,0-1.7-1-1.7-2c0-1,0.6-2,1.7-2c1.1,0,1.6,1.1,1.6,2C89.1,70.3,88.5,71.3,87.4,71.3z M87.4,67.7
					c-0.6,0-0.9,0.6-0.9,1.5c0,1,0.5,1.6,1,1.6c0.5,0,1-0.6,0.9-1.6C88.3,68.2,87.9,67.7,87.4,67.7z"/>
				<path d="M90.4,71.1c0,0.1,0,0.1-0.1,0.1h-0.4c-0.1,0-0.1,0-0.1-0.1V68c0-0.3,0-0.3,0.2-0.4c0.2-0.1,0.7-0.3,1.1-0.3
					c0.4,0,0.7,0.1,0.7,0.4c0,0.2-0.1,0.3-0.3,0.3c-0.1,0-0.2-0.1-0.3-0.2c-0.1-0.1-0.2-0.2-0.4-0.2c-0.4,0-0.4,0.3-0.4,0.5V71.1z"
					/>
				<path d="M92.8,67.8c0.2-0.1,0.5-0.5,1.1-0.5c0.8,0,1.3,0.6,1.3,1.8c0,1.5-0.9,2.2-1.9,2.2c-0.4,0-0.8-0.1-1-0.3
					c-0.2-0.2-0.2-0.3-0.2-0.7v-4.5c0-0.1,0-0.1,0.1-0.1h0.4c0.1,0,0.2,0,0.2,0.1V67.8z M92.8,70.1c0,0.2,0,0.7,0.7,0.7
					c0.6,0,1.1-0.5,1.1-1.5c0-0.8-0.3-1.5-1-1.5c-0.3,0-0.5,0.1-0.8,0.4V70.1z"/>
				<path d="M96.2,66.8c-0.2,0-0.4-0.2-0.4-0.4c0-0.2,0.2-0.4,0.4-0.4c0.2,0,0.4,0.1,0.4,0.4C96.6,66.6,96.5,66.8,96.2,66.8z
					 M96.5,71.1c0,0.1,0,0.1-0.1,0.1H96c-0.1,0-0.1,0-0.1-0.1v-3.5c0-0.1,0-0.1,0.1-0.1h0.4c0.1,0,0.1,0,0.1,0.1V71.1z"/>
				<path d="M98.7,67.7c-0.5,0-0.9,0.5-0.9,1.4c0,1.1,0.5,1.6,1.1,1.6c0.5,0,0.7-0.4,0.9-0.6c0.1-0.2,0.1-0.2,0.2-0.2
					c0,0,0.2,0,0.2,0.2c0,0.3-0.4,1.2-1.4,1.2c-1,0-1.5-0.8-1.5-2c0-1.2,0.6-2,1.6-2c0.8,0,1.2,0.6,1.2,0.9c0,0.2-0.2,0.3-0.3,0.3
					c-0.1,0-0.2-0.1-0.3-0.2C99.3,68,99.2,67.7,98.7,67.7z"/>
				<path d="M108.9,67.7c-0.5,0-0.9,0.5-0.9,1.4c0,1.1,0.5,1.6,1.1,1.6c0.5,0,0.7-0.4,0.9-0.6c0.1-0.2,0.1-0.2,0.2-0.2
					c0,0,0.2,0,0.2,0.2c0,0.3-0.4,1.2-1.4,1.2c-1,0-1.5-0.8-1.5-2c0-1.2,0.6-2,1.6-2c0.8,0,1.2,0.6,1.2,0.9c0,0.2-0.2,0.3-0.3,0.3
					c-0.1,0-0.2-0.1-0.3-0.2C109.5,68,109.3,67.7,108.9,67.7z"/>
				<path d="M111.2,66.8c-0.2,0-0.4-0.2-0.4-0.4c0-0.2,0.2-0.4,0.4-0.4c0.2,0,0.4,0.1,0.4,0.4C111.6,66.6,111.5,66.8,111.2,66.8z
					 M111.5,71.1c0,0.1,0,0.1-0.1,0.1H111c-0.1,0-0.1,0-0.1-0.1v-3.5c0-0.1,0-0.1,0.1-0.1h0.4c0.1,0,0.1,0,0.1,0.1V71.1z"/>
				<path d="M115.3,70.4c0,0.1,0,0.3-0.1,0.4c-0.2,0.4-1,0.5-1.3,0.5c-1,0-1.7-0.7-1.7-1.9c0-1,0.6-2.1,1.7-2.1
					c0.4,0,0.6,0.1,0.8,0.2v-1.8c0-0.1,0-0.2,0.1-0.2h0.4c0.1,0,0.2,0,0.1,0.1V70.4z M114.7,68c-0.1-0.1-0.3-0.3-0.7-0.3
					c-0.7,0-1.1,0.7-1.1,1.6c0,1,0.5,1.6,1.2,1.6c0.6,0,0.6-0.4,0.6-0.6V68z"/>
				<path d="M121.3,69.7c0,0.3,0,0.6-0.2,0.9c-0.3,0.5-0.8,0.7-1.5,0.7c-1.1,0-1.4-0.6-1.5-0.8c-0.2-0.3-0.2-0.7-0.2-1v-3.4
					c0-0.1,0-0.1,0.1-0.1h0.5c0.1,0,0.1,0,0.1,0.1v3.3c0,0.4,0,1.3,1.1,1.3c0.4,0,0.7-0.1,0.9-0.4c0.2-0.3,0.2-0.5,0.2-0.8v-3.4
					c0-0.1,0-0.1,0.1-0.1c0.1,0,0.3,0,0.4,0c0.1,0,0.1,0,0.1,0.1V69.7z"/>
				<path d="M124.3,68.4c0.4,0.2,1.1,0.6,1.1,1.5c0,0.9-0.7,1.5-1.6,1.5c-1.2,0-1.6-0.8-1.6-1.1c0-0.2,0.2-0.4,0.3-0.4
					c0.2,0,0.3,0.2,0.4,0.3c0.1,0.2,0.3,0.7,0.9,0.7c0.5,0,0.9-0.4,0.9-0.9c0-0.6-0.5-0.9-1.1-1.1l-0.4-0.2c-0.3-0.1-1-0.5-1-1.4
					c0-0.8,0.6-1.4,1.5-1.4c0.9,0,1.4,0.5,1.4,0.9c0,0.2-0.1,0.3-0.3,0.3s-0.3-0.1-0.3-0.3c-0.1-0.2-0.3-0.5-0.8-0.5
					c-0.5,0-0.8,0.4-0.8,0.8c0,0.6,0.4,0.8,1,1L124.3,68.4z"/>
				<path d="M126.3,66.3c0,0,0-0.1,0-0.2c0.1-0.1,0.8-0.2,1.2-0.2c0.4,0,1,0,1.5,0.4c0.2,0.2,0.4,0.5,0.4,1.1c0,0.2,0,0.6-0.4,1
					c-0.4,0.4-0.9,0.5-1.6,0.5c-0.2,0-0.3,0-0.4,0v2.1c0,0.1,0,0.1-0.1,0.1h-0.4c-0.1,0-0.1,0-0.1-0.1V66.3z M127,68.6
					c0.1,0,0.2,0,0.3,0c0.5,0,1.4-0.1,1.4-1.1c0-1.1-1-1.1-1.3-1.1c-0.2,0-0.3,0-0.4,0V68.6z"/>
			</g>
		</g>
		<g>
			<path fill="#2E3192" d="M21.4,49.6c0.4,0.5,0.8,1.1,1.4,1.9c0.6,0.8,1.2,1.6,1.8,2.6s1.2,1.9,1.8,2.9c0.6,1,1.1,2,1.5,3h-3.7
				c-0.5-0.9-1-1.8-1.5-2.8c-0.5-0.9-1.1-1.8-1.7-2.7c-0.6-0.8-1.1-1.6-1.7-2.4c-0.6-0.7-1.1-1.4-1.5-1.9c-0.3,0-0.6,0-0.9,0
				c-0.3,0-0.6,0-1,0h-3V60H9.5V35.5c1-0.2,2-0.4,3.2-0.5c1.2-0.1,2.3-0.1,3.2-0.1c3.4,0,6,0.7,7.8,2c1.8,1.3,2.7,3.3,2.7,5.9
				c0,1.6-0.4,3-1.3,4.2C24.3,48.2,23.1,49,21.4,49.6z M16.2,38c-1.4,0-2.6,0-3.3,0.1v9.3h2.4c1.2,0,2.2-0.1,3.1-0.2
				c0.9-0.1,1.7-0.3,2.4-0.7c0.6-0.3,1.1-0.8,1.5-1.4c0.3-0.6,0.5-1.4,0.5-2.4c0-0.9-0.2-1.7-0.5-2.3c-0.3-0.6-0.8-1.1-1.4-1.5
				c-0.6-0.4-1.3-0.6-2.1-0.8C18,38,17.2,38,16.2,38z"/>
			<path fill="#2E3192" d="M37.4,40.9c1.3,0,2.4,0.2,3.3,0.5c0.9,0.3,1.6,0.8,2.2,1.5c0.5,0.6,0.9,1.4,1.2,2.3
				c0.2,0.9,0.4,1.8,0.4,2.9v11.6c-0.3,0-0.7,0.1-1.2,0.2c-0.5,0.1-1.1,0.2-1.7,0.2c-0.6,0.1-1.3,0.1-2.1,0.2
				c-0.7,0.1-1.5,0.1-2.2,0.1c-1,0-2-0.1-2.8-0.3c-0.9-0.2-1.6-0.6-2.2-1c-0.6-0.5-1.1-1.1-1.5-1.8c-0.3-0.8-0.5-1.7-0.5-2.7
				c0-1,0.2-1.9,0.6-2.7c0.4-0.7,1-1.3,1.7-1.8c0.7-0.5,1.5-0.8,2.4-1c0.9-0.2,1.9-0.3,3-0.3c0.3,0,0.7,0,1,0.1c0.4,0,0.7,0.1,1,0.1
				c0.3,0.1,0.6,0.1,0.8,0.2c0.2,0,0.4,0.1,0.5,0.1v-0.9c0-0.5-0.1-1.1-0.2-1.6c-0.1-0.5-0.3-1-0.6-1.4c-0.3-0.4-0.7-0.8-1.2-1
				c-0.5-0.3-1.2-0.4-2.1-0.4c-1.1,0-2,0.1-2.8,0.2c-0.8,0.2-1.4,0.3-1.8,0.5l-0.4-2.7c0.4-0.2,1.1-0.4,2.1-0.6
				C35.1,41,36.2,40.9,37.4,40.9z M37.6,57.6c0.8,0,1.5,0,2.1-0.1c0.6,0,1.1-0.1,1.5-0.2v-5.5c-0.2-0.1-0.6-0.2-1.1-0.3
				c-0.5-0.1-1.2-0.1-1.9-0.1c-0.5,0-1,0-1.6,0.1c-0.5,0.1-1,0.2-1.5,0.5c-0.5,0.2-0.8,0.5-1.1,0.9s-0.5,0.9-0.5,1.6
				c0,1.2,0.4,2,1.1,2.5C35.3,57.3,36.4,57.6,37.6,57.6z"/>
			<path fill="#2E3192" d="M61.7,32.8l3.2-0.6v27.2c-0.8,0.2-1.7,0.4-2.9,0.7c-1.2,0.2-2.5,0.3-4,0.3c-1.4,0-2.7-0.2-3.8-0.7
				c-1.1-0.5-2.1-1.1-2.9-1.9c-0.8-0.8-1.4-1.9-1.8-3.1c-0.4-1.2-0.7-2.5-0.7-4c0-1.4,0.2-2.7,0.5-3.9c0.4-1.2,0.9-2.2,1.6-3.1
				c0.7-0.9,1.6-1.5,2.6-2c1-0.5,2.2-0.7,3.5-0.7c1,0,2,0.1,2.8,0.4c0.8,0.3,1.4,0.6,1.8,0.8V32.8z M61.7,45.3c-0.4-0.3-1-0.6-1.7-1
				c-0.7-0.3-1.6-0.5-2.5-0.5c-0.9,0-1.7,0.2-2.4,0.5c-0.7,0.3-1.2,0.8-1.6,1.4c-0.4,0.6-0.7,1.3-0.9,2.2c-0.2,0.8-0.3,1.7-0.3,2.7
				c0,2.2,0.5,3.8,1.6,5c1,1.2,2.5,1.8,4.2,1.8c0.9,0,1.6,0,2.2-0.1c0.6-0.1,1.1-0.2,1.4-0.3V45.3z"/>
			<path fill="#2E3192" d="M72.3,38c-0.6,0-1.1-0.2-1.5-0.6c-0.4-0.4-0.6-0.9-0.6-1.6c0-0.7,0.2-1.2,0.6-1.6
				c0.4-0.4,0.9-0.6,1.5-0.6c0.6,0,1.1,0.2,1.5,0.6c0.4,0.4,0.6,0.9,0.6,1.6c0,0.7-0.2,1.2-0.6,1.6C73.3,37.8,72.8,38,72.3,38z
				 M73.9,60h-3.2V41.4h3.2V60z"/>
			<path fill="#F15D22" d="M93.9,41.4c-0.9,3.5-2,6.8-3.2,10c-1.2,3.2-2.4,6.1-3.6,8.6h-2.9c-1.1-2.5-2.3-5.4-3.5-8.6
				c-1.2-3.2-2.3-6.5-3.2-10h3.5c0.3,1.2,0.6,2.4,1,3.7c0.4,1.3,0.8,2.6,1.2,3.9c0.4,1.3,0.9,2.6,1.3,3.8c0.4,1.2,0.9,2.3,1.2,3.3
				c0.4-1,0.8-2,1.3-3.3c0.4-1.2,0.9-2.5,1.3-3.8c0.4-1.3,0.8-2.6,1.2-3.9c0.4-1.3,0.7-2.6,1-3.7H93.9z"/>
			<path fill="#F15D22" d="M99,38c-0.6,0-1.1-0.2-1.5-0.6c-0.4-0.4-0.6-0.9-0.6-1.6c0-0.7,0.2-1.2,0.6-1.6c0.4-0.4,0.9-0.6,1.5-0.6
				c0.6,0,1.1,0.2,1.5,0.6c0.4,0.4,0.6,0.9,0.6,1.6c0,0.7-0.2,1.2-0.6,1.6C100,37.8,99.6,38,99,38z M100.6,60h-3.2V41.4h3.2V60z"/>
			<path fill="#F15D22" d="M114.3,44.2h-4.9v8.6c0,0.9,0.1,1.7,0.2,2.3c0.1,0.6,0.4,1.1,0.6,1.4c0.3,0.3,0.6,0.6,1.1,0.7
				c0.4,0.1,0.9,0.2,1.5,0.2c1,0,1.8-0.1,2.4-0.3c0.6-0.2,1-0.4,1.2-0.5l0.6,2.8c-0.3,0.2-0.9,0.4-1.7,0.6s-1.7,0.4-2.8,0.4
				c-1.2,0-2.3-0.2-3.1-0.5c-0.8-0.3-1.5-0.8-1.9-1.4c-0.5-0.6-0.8-1.4-1-2.4c-0.2-0.9-0.3-2-0.3-3.3V36.2l3.2-0.6v5.8h4.8
				c-0.1,1.4,0.2,2.9,0.2,2.9"/>
			<path fill="#FFFFFF" d="M142.9,60.5c-1.7,0-3.3-0.3-4.7-0.9c-1.4-0.6-2.6-1.4-3.6-2.5c-1-1.1-1.8-2.4-2.3-4
				c-0.5-1.6-0.8-3.4-0.8-5.5c0-2.1,0.3-3.9,0.9-5.5c0.6-1.6,1.5-3,2.5-4.1c1-1.1,2.3-1.9,3.7-2.5c1.4-0.6,2.9-0.9,4.5-0.9
				c1,0,1.9,0.1,2.7,0.2c0.8,0.1,1.5,0.3,2.1,0.5c0.6,0.2,1.1,0.4,1.5,0.6c0.4,0.2,0.6,0.3,0.8,0.4l-1,2.9c-0.2-0.1-0.5-0.3-0.9-0.5
				c-0.4-0.2-0.8-0.3-1.4-0.5s-1-0.3-1.6-0.4c-0.6-0.1-1.2-0.2-1.8-0.2c-1.3,0-2.4,0.2-3.5,0.7c-1,0.5-1.9,1.1-2.6,2
				c-0.7,0.9-1.3,1.9-1.7,3.1c-0.4,1.2-0.6,2.6-0.6,4.1c0,1.5,0.2,2.8,0.5,4c0.3,1.2,0.8,2.3,1.5,3.1c0.7,0.9,1.5,1.5,2.5,2
				c1,0.5,2.2,0.7,3.6,0.7c1.6,0,2.9-0.2,3.9-0.5c1-0.3,1.8-0.6,2.3-0.9l0.9,2.9c-0.2,0.1-0.5,0.3-0.9,0.4c-0.4,0.2-0.9,0.4-1.6,0.5
				c-0.6,0.2-1.4,0.3-2.2,0.4C144.8,60.4,143.9,60.5,142.9,60.5z"/>
		</g>
	</g>
	<g>
		<path d="M162.3,34.2h-0.9v-5.7h-1.8v-0.6h4.5v0.6h-1.8V34.2z"/>
		<path d="M171.3,34.2h-0.8l-0.1-5.1c0-0.1,0-0.1,0-0.2c0-0.1,0-0.1,0-0.2c0-0.1,0-0.1,0-0.2c0-0.1,0-0.2,0-0.3
			c0,0.1-0.1,0.2-0.1,0.2c0,0.1,0,0.1-0.1,0.2c0,0.1,0,0.1-0.1,0.2c0,0.1,0,0.1-0.1,0.2l-1.8,5.1h-0.7l-1.9-5.2
			c-0.1-0.1-0.1-0.3-0.1-0.4c0-0.1-0.1-0.2-0.1-0.3c0,0.1,0,0.2,0,0.2c0,0.1,0,0.1,0,0.2c0,0.1,0,0.1,0,0.2c0,0.1,0,0.1,0,0.2
			l-0.1,5.1h-0.8l0.1-6.3h1.4l1.5,4.2c0,0.1,0.1,0.3,0.1,0.3c0,0.1,0.1,0.2,0.1,0.3c0,0.1,0,0.2,0.1,0.3c0,0.1,0,0.2,0.1,0.3
			c0-0.1,0.1-0.2,0.1-0.3c0-0.1,0-0.2,0.1-0.3s0.1-0.2,0.1-0.3c0-0.1,0.1-0.2,0.1-0.4l1.5-4.2h1.4L171.3,34.2z"/>
	</g>
</g>
</svg>
