<?xml version="1.0" encoding="utf-8"?>
<!-- Generator: Adobe Illustrator 18.0.0, SVG Export Plug-In . SVG Version: 6.00 Build 0)  -->
<!DOCTYPE svg PUBLIC "-//W3C//DTD SVG 1.1//EN" "http://www.w3.org/Graphics/SVG/1.1/DTD/svg11.dtd">
<svg version="1.1" id="Layer_1" xmlns="http://www.w3.org/2000/svg" xmlns:xlink="http://www.w3.org/1999/xlink" x="0px" y="0px"
	 viewBox="0 0 360 216" enable-background="new 0 0 360 216" xml:space="preserve">
<rect fill="none" width="360" height="216"/>
<g>
	<path d="M326.1-58.4c-2.9,0-5.6-2.3-5.6-5.6c0-3.2,2.6-5.6,5.6-5.6c3.3,0,5.7,2.6,5.7,5.7C331.8-60.8,329.3-58.4,326.1-58.4z
		 M326.2-69.1c-2.9,0-5.2,2.3-5.2,5.1c0,2.9,2.3,5.1,5.1,5.1c2.9,0,5.1-2.3,5.1-5.1C331.3-66.8,329.1-69.1,326.2-69.1z M326-67.5
		c0.8,0,1.2,0,1.6,0.2c0.7,0.3,1.1,0.9,1.1,1.6c0,1-0.7,1.6-1.6,1.7c0.8,0.3,1,0.7,1.1,1.6c0.2,1,0.2,1.4,0.5,2h-1.2
		c-0.2-0.3-0.2-0.6-0.3-1c0-0.2-0.1-0.9-0.2-1.1c-0.2-1-0.8-1.2-1.8-1.2h-0.5v3.3h-1v-7H326z M324.9-64.6h1.2c0.4,0,1.6,0,1.6-1.1
		c0-0.3-0.1-0.6-0.3-0.8c-0.3-0.3-0.6-0.3-1.5-0.3h-1V-64.6z"/>
</g>
<g>
	<text transform="matrix(1 0 0 1 311.3501 107.6314)" font-family="'OpenSans'" font-size="14.5306">TM</text>
</g>
<g>
	<g>
		<g>
			<path fill-rule="evenodd" clip-rule="evenodd" fill="#004A8F" d="M67.1,68.7c-75,68.1-28.3,111.2,39.7,61.8
				c-42.2,29-102,24-32.4-49.6C74.3,80.9,67.5,69.1,67.1,68.7L67.1,68.7z"/>
			<path fill-rule="evenodd" clip-rule="evenodd" fill="#ED1C24" d="M74.1,81.4l7,11.5c45.6-37.6,75.3-25.8,52.3,7.1
				c0,0.6,0.3,0.7,1,0.3C167.8,65.9,123.9,36.5,74.1,81.4L74.1,81.4z"/>
		</g>
		<g>
			<path fill="#004A8F" d="M96.5,98.7c-0.1-2.5-0.2-5.1-0.3-7.7c1.2,0.1,2.4,0.2,3.6,0.2c1.2,0.1,2.3,0.1,3.5,0.1
				c1.2,0,2.4,0,3.5-0.1c1.2-0.1,2.3-0.2,3.6-0.2c1.7,0,3.4,0.2,5,0.5c1.6,0.3,3,0.9,4.1,1.6c1.2,0.7,2.1,1.7,2.8,2.9
				c0.7,1.2,1,2.7,1,4.5c0,1.9-0.4,3.6-1.3,4.9c-0.9,1.4-2,2.5-3.3,3.4c-1.3,0.9-2.7,1.6-4.1,2.1c-1.5,0.5-2.8,0.8-4,1
				c0.5,0.6,1.2,1.4,2.1,2.5c0.9,1.1,1.8,2.3,2.9,3.6c1.1,1.3,2.2,2.7,3.4,4.1c1.2,1.4,2.3,2.8,3.4,4.1c1.1,1.3,2.1,2.5,3.1,3.6
				c1,1.1,1.7,1.9,2.3,2.5c-0.6-0.1-1.2-0.1-1.9-0.1c-0.6,0-1.2,0-1.9,0c-0.6,0-1.2,0-1.8,0c-0.6,0-1.2,0-1.8,0.1
				c-0.6-0.8-1.6-2.1-2.8-3.8c-1.3-1.7-2.7-3.5-4.2-5.4c-1.5-1.9-3.1-3.8-4.7-5.7c-1.6-1.9-3.1-3.5-4.4-4.8h-2.4v4.4
				c0,2.6,0,5.2,0.2,7.8c0.1,2.6,0.2,5.1,0.3,7.5c-1-0.1-2-0.1-3.1-0.1c-1.1,0-2.1,0-3.1,0.1c0.1-2.5,0.2-5,0.3-7.5
				c0.1-2.5,0.2-5.1,0.2-7.8v-10.3C96.7,103.8,96.6,101.2,96.5,98.7z M103.7,110.1c0.7,0,1.4,0.1,2.3,0.1c1.3,0,2.6-0.1,4-0.4
				c1.4-0.3,2.7-0.8,3.8-1.5c1.2-0.7,2.1-1.6,2.9-2.8c0.8-1.2,1.1-2.7,1.1-4.5c0-1.6-0.3-2.8-0.9-3.9c-0.6-1-1.4-1.8-2.3-2.4
				c-1-0.6-2-1-3.1-1.2c-1.1-0.2-2.2-0.3-3.3-0.3c-1.5,0-2.7,0-3.6,0.1c-1,0.1-1.8,0.1-2.4,0.2c-0.1,2.2-0.2,4.4-0.2,6.5
				c-0.1,2.2-0.1,4.3-0.1,6.5v3.4C102.3,109.9,103,110,103.7,110.1z"/>
			<path fill="#004A8F" d="M139,103.7c1.6-0.5,3.2-0.7,4.9-0.7c1.5,0,2.9,0.2,4.1,0.6c1.3,0.4,2.3,1,3.2,1.8
				c0.9,0.8,1.6,1.7,2.1,2.8c0.5,1.1,0.8,2.3,0.8,3.6c0,2.3,0,4.5-0.1,6.8c-0.1,2.3-0.1,4.6-0.1,7.1c0,0.5,0,1,0,1.5
				c0,0.5,0.1,1,0.3,1.4c0.2,0.4,0.4,0.8,0.7,1c0.3,0.3,0.8,0.4,1.4,0.4c0.2,0,0.4,0,0.7,0c0.2,0,0.4-0.1,0.7-0.2v1.3
				c-0.5,0.2-1,0.4-1.7,0.5c-0.7,0.1-1.4,0.2-2.3,0.2c-1.4,0-2.4-0.3-3.1-1c-0.7-0.7-1.1-1.5-1.3-2.5c-1.5,1.4-3,2.5-4.4,3.2
				c-1.4,0.7-3.2,1-5.3,1c-1,0-2-0.1-3-0.4c-1-0.3-1.9-0.7-2.6-1.4c-0.8-0.6-1.4-1.4-1.9-2.3c-0.5-0.9-0.7-1.9-0.7-3.1
				c0-2.4,0.8-4.2,2.3-5.6c1.5-1.3,3.7-2.2,6.4-2.6c2.2-0.4,4-0.7,5.2-0.9c1.3-0.3,2.2-0.5,2.8-0.8c0.6-0.3,1-0.6,1.1-1
				c0.1-0.4,0.2-0.9,0.2-1.5c0-1-0.1-2-0.4-2.9c-0.2-0.9-0.6-1.7-1.2-2.4c-0.5-0.7-1.2-1.2-2.1-1.6c-0.9-0.4-1.9-0.6-3.2-0.6
				c-1.7,0-3.2,0.4-4.6,1.1c-1.4,0.7-2.5,1.7-3.2,3h-0.7v-3.1C135.8,105.1,137.5,104.2,139,103.7z M146.8,117.7
				c-0.9,0.2-1.9,0.3-2.8,0.5c-0.9,0.2-1.9,0.4-2.8,0.7c-0.9,0.3-1.8,0.7-2.5,1.1c-0.7,0.5-1.3,1.1-1.7,1.8
				c-0.4,0.7-0.6,1.6-0.6,2.8c0,1.9,0.6,3.3,1.7,4.2c1.1,1,2.4,1.4,3.7,1.4c1.6,0,3-0.4,4.3-1.3c1.3-0.8,2.3-1.8,3-2.9l0.2-9
				C148.6,117.4,147.7,117.6,146.8,117.7z"/>
			<path fill="#004A8F" d="M185.5,126.3c-0.3,0.6-0.8,1.3-1.3,2.1c-0.6,0.7-1.3,1.4-2.1,2.1c-0.9,0.6-1.9,1.2-3,1.6
				c-1.2,0.4-2.5,0.6-4,0.6c-1.6,0-3.1-0.3-4.6-0.8c-1.5-0.5-2.9-1.4-4-2.5c-1.2-1.2-2.1-2.7-2.9-4.5c-0.7-1.9-1.1-4.1-1.1-6.7
				c0-2.6,0.4-4.8,1.2-6.6c0.8-1.9,1.8-3.4,3.1-4.7c1.3-1.3,2.7-2.2,4.3-2.8c1.6-0.6,3.2-0.9,4.8-0.9c4.6,0,7.8,2,9.6,6h0.1v-5.9
				c0-1.5,0-3,0-4.6c0-1.5,0-3-0.1-4.4c0-1.4,0-2.7-0.1-4c0-1.2-0.1-2.3-0.1-3.3c0.5,0.1,1,0.1,1.4,0.2c0.5,0.1,0.9,0.1,1.4,0.1
				c0.5,0,0.9,0,1.3-0.1c0.4-0.1,0.9-0.1,1.5-0.2c-0.1,1.3-0.2,3.1-0.3,5.5c-0.1,2.4-0.2,5.1-0.2,8c-0.1,2.9-0.1,5.9-0.2,9
				c0,3.1-0.1,5.9-0.1,8.4c0,2.8,0,5.2,0.1,7.4c0,2.2,0.1,4.4,0.1,6.8c-0.8-0.1-1.6-0.1-2.4-0.1c-0.7,0-1.5,0-2.4,0.1l0.2-5.7H185.5
				z M168.6,124.4c0.5,1.6,1.2,2.8,2,3.7c0.8,0.9,1.7,1.6,2.8,1.9c1,0.4,2.1,0.5,3.1,0.5c1.6,0,3-0.4,4.2-1.2
				c1.2-0.8,2.1-1.8,2.9-3.1c0.8-1.3,1.3-2.7,1.7-4.3c0.4-1.6,0.5-3.2,0.5-4.8c0-3.8-0.8-6.7-2.3-8.8c-1.5-2-3.8-3-6.8-3
				c-1.5,0-2.8,0.3-3.9,1c-1.1,0.7-2,1.6-2.7,2.8c-0.7,1.2-1.3,2.6-1.6,4.1c-0.4,1.6-0.5,3.3-0.5,5.1
				C167.8,120.8,168.1,122.8,168.6,124.4z"/>
			<path fill="#004A8F" d="M200.7,91c0.6-0.6,1.4-0.9,2.2-0.9s1.6,0.3,2.2,0.9c0.6,0.6,0.9,1.3,0.9,2.2c0,0.8-0.3,1.6-0.9,2.2
				c-0.6,0.6-1.4,0.9-2.2,0.9s-1.6-0.3-2.2-0.9c-0.6-0.6-0.9-1.3-0.9-2.2C199.8,92.4,200.1,91.6,200.7,91z M200.6,109.1
				c-0.1-2-0.2-3.8-0.4-5.5c1.2,0.2,2.1,0.3,2.8,0.3s1.6-0.1,2.8-0.3c-0.2,1.7-0.3,3.6-0.4,5.5c-0.1,2-0.1,3.9-0.1,5.6v6.2
				c0,1.8,0,3.7,0.1,5.7c0.1,2,0.2,3.8,0.4,5.4c-1-0.1-1.9-0.1-2.8-0.1c-0.9,0-1.8,0-2.8,0.1c0.2-1.6,0.3-3.4,0.4-5.4
				c0.1-2,0.1-3.9,0.1-5.7v-6.2C200.7,113,200.7,111.1,200.6,109.1z"/>
			<path fill="#004A8F" d="M215.7,108.4c0.6-1.2,1.5-2.2,2.6-3c1.1-0.8,2.4-1.4,3.8-1.8c1.4-0.4,3-0.6,4.6-0.6c0.8,0,1.5,0,2.3,0.1
				c0.7,0,1.6,0.1,2.8,0.2c1,0.1,1.8,0.1,2.6,0.2c0.7,0,1.3,0.1,1.8,0.1c2.3,0,4-0.1,5-0.3c0,0.2-0.1,0.4-0.1,0.6c0,0.2,0,0.4,0,0.6
				c0,0.2,0,0.4,0,0.6c0,0.2,0.1,0.4,0.1,0.6c-1.2-0.1-2.4-0.2-3.5-0.3c-1.1-0.1-2.3-0.2-3.4-0.2l-0.1,0.1c1.3,0.7,2.3,1.7,3.1,3.1
				c0.8,1.4,1.2,2.9,1.2,4.4c0,3-1,5.3-3.1,7c-2.1,1.7-4.9,2.5-8.4,2.5c-0.6,0-1.2,0-1.7-0.1c-0.6,0-1.1-0.1-1.7-0.1
				c-0.7,0-1.4,0.3-2.1,0.8c-0.6,0.5-1,1.2-1,2c0,1,0.3,1.8,0.8,2.3c0.5,0.5,1.5,0.7,2.9,0.8c1.2,0,2.3,0.1,3.4,0.1
				c1.1,0,2.3,0,3.4,0.1c1.9,0,3.5,0.3,4.9,0.7c1.3,0.4,2.4,0.9,3.3,1.6c0.9,0.7,1.5,1.5,1.9,2.3c0.4,0.9,0.6,1.8,0.6,2.9
				c0,1.4-0.3,2.8-0.8,4.2c-0.6,1.4-1.4,2.7-2.6,3.9c-1.2,1.2-2.7,2.1-4.6,2.9c-1.9,0.8-4.1,1.1-6.7,1.1c-4,0-7.2-0.8-9.5-2.3
				c-2.3-1.5-3.5-3.6-3.5-6.3c0-1,0.2-2,0.6-2.9c0.4-0.9,0.9-1.7,1.5-2.3c0.6-0.7,1.3-1.2,2.1-1.6c0.8-0.4,1.6-0.7,2.4-0.9v-0.1
				c-1.3-0.4-2.3-1-2.9-1.8c-0.7-0.8-1-1.8-1-3c0-0.7,0.1-1.3,0.4-1.9c0.3-0.6,0.6-1.1,1-1.5c0.4-0.4,0.9-0.8,1.4-1.1
				c0.5-0.3,1.1-0.5,1.6-0.5v-0.1c-1.9-0.8-3.4-1.9-4.5-3.4c-1.1-1.5-1.6-3.3-1.6-5.5C214.8,111.1,215.1,109.6,215.7,108.4z
				 M234.7,133.3c-1.5-1-3.9-1.4-7.2-1.4c-3.1,0-5.5,0.5-7.2,1.5c-1.7,1-2.6,2.7-2.6,5.3c0,1.4,0.2,2.5,0.7,3.5
				c0.5,1,1.1,1.7,1.9,2.3c0.8,0.6,1.8,1,2.9,1.3c1.1,0.3,2.3,0.4,3.6,0.4c1.2,0,2.5-0.2,3.7-0.5c1.2-0.3,2.3-0.8,3.2-1.4
				c0.9-0.6,1.7-1.4,2.3-2.4c0.6-1,0.9-2.1,0.9-3.5C236.9,136,236.1,134.3,234.7,133.3z M231.6,106.7c-1.2-1.3-2.9-2-4.9-2
				c-2.2,0-4,0.7-5.2,2.2c-1.2,1.5-1.9,3.4-1.9,5.8c0,2.5,0.6,4.5,1.7,5.9c1.1,1.5,2.9,2.2,5.3,2.2c1.2,0,2.2-0.2,3.1-0.7
				c0.8-0.5,1.6-1.1,2.1-1.9c0.6-0.8,1-1.7,1.2-2.7c0.3-1,0.4-2.1,0.4-3.2C233.5,109.9,232.9,108,231.6,106.7z"/>
			<path fill="#004A8F" d="M249.1,99.7c0-1.6-0.1-3.2-0.1-4.7c0-1.6-0.1-3-0.2-4.5c-0.1-1.4-0.1-2.6-0.2-3.6
				c1.2,0.2,2.1,0.3,2.8,0.3c0.7,0,1.6-0.1,2.8-0.3c-0.1,1-0.2,2.2-0.2,3.6c-0.1,1.4-0.1,2.9-0.2,4.5c0,1.6-0.1,3.1-0.1,4.7
				c0,1.6,0,3.1,0,4.4V115c0,1.4,0,2.8,0,4.4c0,1.6,0,3.2,0.1,4.7c0,1.6,0.1,3,0.2,4.4c0.1,1.4,0.1,2.6,0.2,3.5
				c-1-0.1-1.9-0.1-2.8-0.1c-0.9,0-1.9,0-2.8,0.1c0.1-0.9,0.2-2.1,0.2-3.5c0.1-1.4,0.1-2.9,0.2-4.4c0-1.6,0.1-3.1,0.1-4.7
				c0-1.6,0-3.1,0-4.4v-10.8C249.1,102.8,249.1,101.3,249.1,99.7z"/>
			<path fill="#004A8F" d="M266.5,91c0.6-0.6,1.4-0.9,2.2-0.9c0.9,0,1.6,0.3,2.2,0.9c0.6,0.6,0.9,1.3,0.9,2.2c0,0.8-0.3,1.6-0.9,2.2
				c-0.6,0.6-1.4,0.9-2.2,0.9c-0.9,0-1.6-0.3-2.2-0.9c-0.6-0.6-0.9-1.3-0.9-2.2C265.6,92.4,265.9,91.6,266.5,91z M266.3,109.1
				c-0.1-2-0.2-3.8-0.4-5.5c1.2,0.2,2.1,0.3,2.8,0.3c0.7,0,1.6-0.1,2.8-0.3c-0.2,1.7-0.3,3.6-0.4,5.5c-0.1,2-0.1,3.9-0.1,5.6v6.2
				c0,1.8,0,3.7,0.1,5.7c0.1,2,0.2,3.8,0.4,5.4c-1-0.1-1.9-0.1-2.8-0.1c-0.9,0-1.8,0-2.8,0.1c0.2-1.6,0.3-3.4,0.4-5.4
				c0.1-2,0.1-3.9,0.1-5.7v-6.2C266.4,113,266.4,111.1,266.3,109.1z"/>
			<path fill="#004A8F" d="M281.4,116.6c0-1.6-0.1-3.2-0.1-4.8c0-1.6-0.1-3.1-0.2-4.5c-0.1-1.4-0.1-2.7-0.2-3.7
				c1.2,0.2,2.1,0.3,2.8,0.3c0.7,0,1.6-0.1,2.8-0.3c-0.2,1-0.3,2-0.4,3c-0.1,1-0.1,1.9-0.1,2.9h0.1c0.3-0.6,0.7-1.3,1.2-2.1
				c0.5-0.7,1.2-1.4,2.1-2.1c0.9-0.7,1.9-1.2,3.1-1.6c1.2-0.4,2.6-0.7,4.1-0.7c1.6,0,3.1,0.3,4.7,0.9c1.5,0.6,2.9,1.5,4.1,2.7
				c1.2,1.2,2.1,2.7,2.9,4.6c0.7,1.9,1.1,4.1,1.1,6.6c0,2.6-0.4,4.8-1.2,6.6c-0.8,1.9-1.8,3.4-3.1,4.7c-1.3,1.2-2.7,2.1-4.3,2.7
				c-1.6,0.6-3.2,0.9-4.9,0.9c-4.6,0-7.8-1.9-9.8-5.7H286v3.8c0,1.3,0,2.7,0,4.3c0,1.6,0,3.1,0.1,4.7c0,1.6,0.1,3,0.2,4.5
				c0.1,1.4,0.1,2.6,0.2,3.6c-1.2-0.2-2.1-0.3-2.8-0.3c-0.7,0-1.6,0.1-2.8,0.3c0.1-1,0.2-2.2,0.2-3.6c0.1-1.4,0.1-2.9,0.2-4.5
				c0-1.6,0.1-3.1,0.1-4.7c0-1.6,0-3,0-4.3V121C281.4,119.7,281.4,118.2,281.4,116.6z M303.1,111.7c-0.5-1.6-1.2-2.8-2-3.7
				c-0.8-0.9-1.7-1.6-2.8-1.9c-1-0.4-2.1-0.5-3-0.5c-1.7,0-3.1,0.3-4.3,1c-1.2,0.7-2.1,1.6-2.9,2.7c-0.7,1.1-1.3,2.5-1.6,4
				c-0.3,1.5-0.5,3.2-0.5,4.9c0,8.3,3,12.4,9.1,12.4c1.5,0,2.8-0.3,3.9-1c1.1-0.7,2-1.6,2.7-2.7c0.7-1.2,1.3-2.6,1.6-4.1
				c0.3-1.6,0.5-3.3,0.5-5.1C303.9,115.3,303.6,113.3,303.1,111.7z"/>
		</g>
	</g>
</g>
</svg>
