<?xml version="1.0" encoding="utf-8"?>
<!-- Generator: Adobe Illustrator 18.0.0, SVG Export Plug-In . SVG Version: 6.00 Build 0)  -->
<!DOCTYPE svg PUBLIC "-//W3C//DTD SVG 1.1//EN" "http://www.w3.org/Graphics/SVG/1.1/DTD/svg11.dtd">
<svg version="1.1" id="Layer_1" xmlns="http://www.w3.org/2000/svg" xmlns:xlink="http://www.w3.org/1999/xlink" x="0px" y="0px"
	 viewBox="0 0 360 216" enable-background="new 0 0 360 216" xml:space="preserve">
<rect fill="none" width="360" height="216"/>
<g>
	<path d="M326.2-17c-2.7,0-5.2-2.1-5.2-5.2c0-3,2.4-5.2,5.2-5.2c3,0,5.2,2.4,5.2,5.2C331.4-19.3,329.1-17,326.2-17z M326.2-27
		c-2.7,0-4.8,2.1-4.8,4.7c0,2.7,2.1,4.7,4.7,4.7c2.7,0,4.7-2.1,4.7-4.7C331-24.8,328.9-27,326.2-27z M326.1-25.5
		c0.8,0,1.1,0,1.5,0.1c0.7,0.3,1,0.9,1,1.5c0,0.9-0.7,1.4-1.5,1.6c0.7,0.3,0.9,0.6,1,1.4c0.1,0.9,0.2,1.3,0.5,1.9h-1.1
		c-0.1-0.3-0.2-0.6-0.3-0.9c0-0.1-0.1-0.9-0.2-1c-0.2-1-0.7-1.1-1.6-1.1h-0.5v3h-0.9v-6.5H326.1z M325.1-22.8h1.1c0.4,0,1.5,0,1.5-1
		c0-0.3-0.1-0.6-0.3-0.7c-0.3-0.2-0.6-0.2-1.4-0.2h-0.9V-22.8z"/>
</g>
<g>
	<g>
		<path d="M318.5-37.7h-1v-8.1h-2.9v-0.9h6.8v0.9h-2.9V-37.7z"/>
		<path d="M326.7-37.7l-3.1-8h0c0.1,0.6,0.1,1.4,0.1,2.3v5.7h-1v-9h1.6l2.9,7.4h0l2.9-7.4h1.6v9h-1v-5.8c0-0.7,0-1.4,0.1-2.2h0
			l-3.1,8H326.7z"/>
	</g>
</g>
<g>
	<g>
		<path d="M318.5,81h-1v-8.1h-2.9V72h6.8v0.9h-2.9V81z"/>
		<path d="M326.7,81l-3.1-8h0c0.1,0.6,0.1,1.4,0.1,2.3V81h-1v-9h1.6l2.9,7.4h0l2.9-7.4h1.6v9h-1v-5.8c0-0.7,0-1.4,0.1-2.2h0l-3.1,8
			H326.7z"/>
	</g>
</g>
<g>
	<path fill="#21409A" d="M65.9,108.4c0.7,2.4,1.6,4.8,2.5,7.1c0.9,2.4,1.8,4.5,2.7,6.4c1,2.2,2,4.4,3,6.4H59.6
		c-0.8-1.8-1.6-3.7-2.4-5.7c-0.6-1.7-1.3-3.7-2-5.9c-0.7-2.2-1.2-4.5-1.6-7h-2.5h-4.2l-4.7,18.4H29.7l12.4-49.6c2.1-0.6,4-1,5.9-1.4
		c1.9-0.3,4-0.7,6.6-0.9c2.5-0.3,5.3-0.4,8.3-0.4c3.2,0,6,0.4,8.3,1.2c2.3,0.8,4.2,1.9,5.6,3.4c1.4,1.5,2.4,3.3,2.8,5.4
		c0.4,2.1,0.3,4.4-0.3,7c-1.2,4.5-2.9,7.9-5.3,10.3C71.6,105.7,68.9,107.4,65.9,108.4z M67.1,93.2c0.6-2.6,0.3-4.6-1-6
		c-1.3-1.3-3.5-2-6.4-2c-0.9,0-1.8,0.1-2.6,0.2c-0.8,0.1-1.6,0.2-2.2,0.3c-0.8,0.1-1.4,0.3-2,0.4l-3.5,14c2.1,0,4.1,0,6,0
		c1.9,0,3.7-0.2,5.3-0.5c1.6-0.4,3-1,4.1-2C65.8,96.6,66.6,95.2,67.1,93.2z"/>
	<path fill="#21409A" d="M112,128.3h-11.5l0.3-1.3c-0.7,0.5-1.5,0.9-2.3,1.2c-0.7,0.3-1.6,0.5-2.5,0.8c-0.9,0.2-2,0.4-3,0.4
		c-3.5,0-6.2-0.6-8.2-1.8c-2-1.2-3.4-2.7-4.3-4.5c-0.9-1.8-1.3-3.9-1.3-6.1c0-2.2,0.3-4.3,0.8-6.4c0.7-3,1.7-5.7,3-8.2
		c1.3-2.5,2.8-4.7,4.7-6.5c1.8-1.8,4-3.2,6.5-4.3c2.5-1,5.3-1.6,8.5-1.6c3,0,5.6,0.2,7.8,0.6c2.2,0.4,4.1,0.8,5.6,1.4
		c1.8,0.6,3.3,1.2,4.5,2L112,128.3z M91.5,110.3c-0.3,1.2-0.6,2.4-0.7,3.5c-0.1,1.2-0.1,2.3,0.1,3.3c0.2,1,0.7,1.9,1.4,2.6
		c0.7,0.7,1.8,1.3,3.2,1.6c0.9,0.2,1.8,0.3,2.7,0.1c0.9-0.2,1.6-0.5,2.3-0.9c0.8-0.4,1.5-0.9,2.2-1.5l4.9-19.5
		c-0.5-0.3-1-0.6-1.5-0.8c-0.5-0.2-1-0.4-1.6-0.6c-0.6-0.2-1.2-0.3-2-0.3c-1.8,0-3.2,0.4-4.5,1.2c-1.2,0.8-2.3,1.8-3.2,3
		c-0.9,1.2-1.6,2.6-2.1,4C92.2,107.6,91.8,109,91.5,110.3z"/>
	<path fill="#21409A" d="M155.4,125.4c-1.6,0.8-3.5,1.4-5.5,2c-1.8,0.5-3.9,1-6.3,1.4c-2.5,0.4-5.2,0.6-8.1,0.5
		c-3.2,0-5.8-0.5-7.7-1.6c-1.9-1.1-3.4-2.5-4.3-4.3c-0.9-1.8-1.4-3.9-1.4-6.2c0-2.4,0.3-4.9,1-7.5c0.6-2.5,1.5-4.8,2.6-7.2
		c1.2-2.4,2.6-4.5,4.4-6.3c1.8-1.9,4-3.4,6.6-4.5c2.6-1.1,5.6-1.7,9.1-1.7c1.1,0,2,0.1,2.9,0.2c0.8,0.2,1.5,0.4,2.1,0.6
		c0.7,0.2,1.3,0.5,1.8,0.8l3.7-14.4h11.5L155.4,125.4z M134.4,109.7c-0.4,1.3-0.6,2.6-0.8,3.8c-0.2,1.3-0.1,2.4,0.1,3.5
		c0.2,1.1,0.7,2,1.4,2.8c0.8,0.8,1.9,1.3,3.3,1.6c0.8,0.2,1.6,0.2,2.4,0c0.8-0.2,1.6-0.4,2.2-0.6c0.8-0.3,1.5-0.6,2.2-1.1l5.1-20.1
		c-0.5-0.3-1-0.6-1.5-0.8c-0.4-0.2-1-0.4-1.6-0.6c-0.6-0.1-1.2-0.2-1.8-0.3c-1.8,0-3.3,0.4-4.6,1.2c-1.3,0.8-2.3,1.8-3.2,3
		c-0.9,1.2-1.6,2.5-2.1,3.8C135.1,107.2,134.7,108.5,134.4,109.7z"/>
	<polygon fill="#21409A" points="172.5,91.1 182,99.8 174.6,128.3 163.2,128.3 	"/>
	<g>
		<polygon fill="#892890" points="181,94.4 185.8,83.5 172.6,77.3 		"/>
		<polygon fill="#892890" points="180.5,79.7 186.3,82.3 188.5,77.3 		"/>
	</g>
	<path fill="#892890" d="M191.6,93.9c2.1-0.8,4.1-1.5,5.9-2c1.8-0.5,3.9-1,6.3-1.4c2.4-0.4,4.9-0.6,7.6-0.6c2,0,3.7,0.2,5,0.6
		c1.4,0.4,2.5,0.9,3.4,1.4c1.8-0.5,3.8-0.9,6-1.4c2.3-0.4,4.7-0.6,7.2-0.6c2.4,0,4.3,0.2,5.8,0.7c1.5,0.5,2.7,1.1,3.6,1.9
		c0.9,0.8,1.5,1.7,1.8,2.6c0.3,1,0.5,2,0.5,3.1c0,1.1-0.1,2.1-0.3,3.2c-0.2,1-0.4,2-0.6,2.9l-6,23.9h-11.5l5.1-20
		c0.4-1.5,0.7-2.8,1.1-4.1c0.3-1.2,0.5-2.3,0.6-3.2c0.1-0.9-0.1-1.6-0.5-2.1c-0.4-0.5-1.2-0.8-2.2-0.8c-0.8,0-1.7,0.1-2.5,0.3
		c-0.8,0.2-1.6,0.4-2.2,0.6c-0.8,0.2-1.5,0.5-2.2,0.9c0,0.2-0.1,0.5-0.2,0.8c-0.1,0.3-0.2,0.7-0.4,1.4c-0.2,0.6-0.4,1.6-0.7,2.7
		c-0.3,1.2-0.7,2.8-1.2,4.8c-0.5,2.1-1.2,4.6-1.9,7.7c-0.8,3.1-1.7,6.8-2.8,11.3h-11.5l5.1-20c0.4-1.4,0.7-2.8,1.1-4.1
		c0.3-1.3,0.5-2.3,0.5-3.3c0-0.9-0.2-1.6-0.5-2.1c-0.4-0.5-1.1-0.8-2.2-0.8c-0.9,0-1.7,0.1-2.5,0.3c-0.9,0.2-1.6,0.4-2.2,0.6
		c-0.8,0.2-1.5,0.5-2.2,0.9l-7.2,28.6h-11.4L191.6,93.9z"/>
	<path fill="#892890" d="M258.9,112.7c-0.2,1-0.3,2-0.2,3c0.1,1,0.4,1.9,0.9,2.8c0.5,0.8,1.3,1.5,2.4,2.1c1,0.5,2.4,0.8,4.1,0.8
		c1.1,0,2.4-0.1,3.8-0.4c1.4-0.3,2.7-0.6,4.1-1c1.4-0.4,2.7-0.8,4-1.3c1.3-0.5,2.5-0.9,3.5-1.3l-4,9.6c0,0.1-0.5,0.3-1.4,0.5
		c-0.9,0.2-2,0.5-3.4,0.7c-1.4,0.3-2.9,0.5-4.7,0.7c-1.7,0.2-3.4,0.3-5,0.3c-3.1,0-5.7-0.4-7.9-1.4c-2.2-0.9-3.9-2.2-5.2-3.9
		c-1.3-1.7-2.1-3.8-2.4-6.3c-0.3-2.4,0-5.2,0.7-8.3c0.8-3.2,2-6,3.7-8.4c1.6-2.4,3.5-4.5,5.6-6.1c2.1-1.6,4.4-2.9,7-3.7
		c2.5-0.8,5.1-1.3,7.6-1.3c2.5,0,4.6,0.4,6.5,1.2c1.8,0.8,3.3,1.9,4.5,3.4c1.1,1.4,2,3.1,2.4,5c0.5,1.9,0.6,3.9,0.4,6.1
		c-0.1,1.1-0.3,2.3-0.6,3.5c-0.2,1.2-0.6,2.4-1.1,3.7H258.9z M275,105.3c0.2-1,0.2-2,0.2-2.9c0-0.9-0.3-1.7-0.6-2.4
		c-0.4-0.7-0.9-1.2-1.7-1.6c-0.7-0.4-1.7-0.6-2.9-0.6c-2.4,0-4.3,0.7-5.8,2c-1.5,1.3-2.7,3.1-3.6,5.4H275z"/>
	<path fill="#892890" d="M285.4,91.1h11.3l2.8-11.3h11.5l-2.9,11.3h7.2l-2,7.9h-7.2l-4.3,17.1c-0.3,1.1-0.4,2-0.2,2.6
		c0.2,0.6,0.6,1,1.1,1.2c0.6,0.2,1.3,0.3,2.3,0.3c0.9,0,2,0,3.2,0l-2.1,8.2c-1,0.1-2.1,0.2-3.4,0.3c-1.3,0.1-2.6,0.1-4,0.1
		c-1.3,0-2.6-0.1-3.7-0.2c-1.1-0.1-2.1-0.4-2.7-0.9c-0.6-0.4-1.2-0.8-1.6-1.4c-0.4-0.5-0.8-1.1-1-1.9c-0.2-0.7-0.4-1.6-0.3-2.7
		c0-1.1,0.2-2.3,0.6-3.7l4.8-19h-4.6C289.6,96.2,288.1,93.6,285.4,91.1z"/>
	<g>
		<path fill="#E31F2A" d="M96.2,139.5c3.2,0,5.7,2.6,5.7,5.7c0,3.2-2.6,5.7-5.7,5.7c-3.2,0-5.7-2.6-5.7-5.7
			C90.4,142.1,93,139.5,96.2,139.5z"/>
	</g>
	<g>
		<path fill="#E4B323" d="M111.1,139.5c3.2,0,5.7,2.6,5.7,5.7c0,3.2-2.6,5.7-5.7,5.7c-3.2,0-5.7-2.6-5.7-5.7
			C105.3,142.1,107.9,139.5,111.1,139.5z"/>
	</g>
	<g>
		<path fill="#098341" d="M125.9,139.5c3.2,0,5.7,2.6,5.7,5.7c0,3.2-2.6,5.7-5.7,5.7c-3.2,0-5.7-2.6-5.7-5.7
			C120.2,142.1,122.8,139.5,125.9,139.5z"/>
	</g>
</g>
</svg>
