<?xml version="1.0" encoding="utf-8"?>
<!-- Generator: Adobe Illustrator 18.0.0, SVG Export Plug-In . SVG Version: 6.00 Build 0)  -->
<!DOCTYPE svg PUBLIC "-//W3C//DTD SVG 1.1//EN" "http://www.w3.org/Graphics/SVG/1.1/DTD/svg11.dtd">
<svg version="1.1" id="Layer_1" xmlns="http://www.w3.org/2000/svg" xmlns:xlink="http://www.w3.org/1999/xlink" x="0px" y="0px"
	 viewBox="0 0 360 216" enable-background="new 0 0 360 216" xml:space="preserve">
<rect fill="none" width="360" height="216"/>
<g>
	<path d="M326.1-58.4c-2.9,0-5.6-2.3-5.6-5.6c0-3.2,2.6-5.6,5.6-5.6c3.3,0,5.7,2.6,5.7,5.7C331.8-60.8,329.3-58.4,326.1-58.4z
		 M326.2-69.1c-2.9,0-5.2,2.3-5.2,5.1c0,2.9,2.3,5.1,5.1,5.1c2.9,0,5.1-2.3,5.1-5.1C331.3-66.8,329.1-69.1,326.2-69.1z M326-67.5
		c0.8,0,1.2,0,1.6,0.2c0.7,0.3,1.1,0.9,1.1,1.6c0,1-0.7,1.6-1.6,1.7c0.8,0.3,1,0.7,1.1,1.6c0.2,1,0.2,1.4,0.5,2h-1.2
		c-0.2-0.3-0.2-0.6-0.3-1c0-0.2-0.1-0.9-0.2-1.1c-0.2-1-0.8-1.2-1.8-1.2h-0.5v3.3h-1v-7H326z M324.9-64.6h1.2c0.4,0,1.6,0,1.6-1.1
		c0-0.3-0.1-0.6-0.3-0.8c-0.3-0.3-0.6-0.3-1.5-0.3h-1V-64.6z"/>
</g>
<g>
	<text transform="matrix(1 0 0 1 311.3501 95.9485)" font-family="'OpenSans'" font-size="14.5306">TM</text>
</g>
<g>
	<g>
		<g>
			<path fill-rule="evenodd" clip-rule="evenodd" fill="#004A8F" d="M59.5,75.2c-60,54.5-22.7,89,31.7,49.4
				c-33.8,23.2-81.6,19.2-26-39.7C65.3,84.9,59.8,75.5,59.5,75.2L59.5,75.2z"/>
			<path fill-rule="evenodd" clip-rule="evenodd" fill="#ED1C24" d="M65.2,85.3l5.6,9.2c36.5-30.1,60.2-20.6,41.9,5.7
				c0,0.5,0.3,0.6,0.8,0.3C140.1,72.9,104.9,49.4,65.2,85.3L65.2,85.3z"/>
		</g>
		<g>
			<path fill="#004A8F" d="M83,99.1c-0.1-2-0.2-4.1-0.3-6.2c1,0.1,1.9,0.1,2.8,0.2c0.9,0,1.9,0.1,2.8,0.1c1,0,1.9,0,2.8-0.1
				c0.9-0.1,1.9-0.1,2.8-0.1c1.4,0,2.7,0.1,4,0.4c1.3,0.3,2.4,0.7,3.3,1.3c0.9,0.6,1.7,1.4,2.2,2.3c0.6,1,0.8,2.2,0.8,3.6
				c0,1.5-0.4,2.8-1.1,3.9c-0.7,1.1-1.6,2-2.6,2.7c-1,0.7-2.1,1.3-3.3,1.7c-1.2,0.4-2.2,0.7-3.2,0.8c0.4,0.5,0.9,1.1,1.6,2
				c0.7,0.9,1.5,1.8,2.3,2.8c0.9,1,1.8,2.1,2.7,3.3c0.9,1.1,1.8,2.2,2.7,3.3c0.9,1,1.7,2,2.4,2.8c0.8,0.9,1.4,1.5,1.8,2
				c-0.5-0.1-1-0.1-1.5-0.1c-0.5,0-1,0-1.5,0c-0.5,0-0.9,0-1.4,0c-0.5,0-1,0-1.4,0.1c-0.5-0.7-1.3-1.7-2.3-3c-1-1.3-2.1-2.8-3.4-4.3
				c-1.2-1.5-2.5-3.1-3.8-4.6c-1.3-1.5-2.4-2.8-3.5-3.8h-1.9v3.5c0,2.1,0,4.2,0.1,6.2c0.1,2,0.2,4.1,0.3,6c-0.8-0.1-1.6-0.1-2.4-0.1
				c-0.9,0-1.7,0-2.4,0.1c0.1-2,0.2-4,0.3-6c0.1-2,0.1-4.1,0.1-6.2v-8.2C83.2,103.2,83.1,101.2,83,99.1z M88.8,108.3
				c0.5,0,1.2,0,1.8,0c1,0,2.1-0.1,3.2-0.3c1.1-0.2,2.1-0.6,3.1-1.2c0.9-0.6,1.7-1.3,2.3-2.3c0.6-0.9,0.9-2.1,0.9-3.6
				c0-1.3-0.2-2.3-0.7-3.1c-0.5-0.8-1.1-1.5-1.9-1.9c-0.8-0.5-1.6-0.8-2.5-1c-0.9-0.2-1.8-0.3-2.6-0.3c-1.2,0-2.1,0-2.9,0.1
				c-0.8,0-1.4,0.1-1.9,0.2c-0.1,1.8-0.1,3.5-0.2,5.2c-0.1,1.7-0.1,3.4-0.1,5.2v2.7C87.7,108.2,88.2,108.2,88.8,108.3z"/>
			<path fill="#004A8F" d="M117.1,103.2c1.3-0.4,2.6-0.6,3.9-0.6c1.2,0,2.3,0.2,3.3,0.5c1,0.3,1.9,0.8,2.6,1.4
				c0.7,0.6,1.3,1.4,1.7,2.3c0.4,0.9,0.6,1.8,0.6,2.9c0,1.8,0,3.6-0.1,5.4c-0.1,1.8-0.1,3.7-0.1,5.7c0,0.4,0,0.8,0,1.2
				c0,0.4,0.1,0.8,0.2,1.1c0.1,0.3,0.3,0.6,0.6,0.8c0.2,0.2,0.6,0.3,1.1,0.3c0.2,0,0.3,0,0.5,0c0.2,0,0.4-0.1,0.5-0.2v1.1
				c-0.4,0.2-0.8,0.3-1.4,0.4c-0.5,0.1-1.2,0.1-1.8,0.1c-1.1,0-1.9-0.3-2.5-0.8c-0.6-0.5-0.9-1.2-1-2c-1.2,1.2-2.4,2-3.5,2.5
				c-1.2,0.5-2.6,0.8-4.3,0.8c-0.8,0-1.6-0.1-2.4-0.3c-0.8-0.2-1.5-0.6-2.1-1.1c-0.6-0.5-1.1-1.1-1.5-1.8c-0.4-0.7-0.6-1.5-0.6-2.5
				c0-1.9,0.6-3.4,1.9-4.5c1.2-1.1,3-1.8,5.1-2.1c1.8-0.3,3.2-0.5,4.2-0.7c1-0.2,1.8-0.4,2.2-0.6c0.5-0.2,0.8-0.5,0.9-0.8
				c0.1-0.3,0.1-0.7,0.1-1.2c0-0.8-0.1-1.6-0.3-2.3c-0.2-0.7-0.5-1.4-0.9-1.9c-0.4-0.5-1-1-1.7-1.3c-0.7-0.3-1.5-0.5-2.5-0.5
				c-1.3,0-2.6,0.3-3.7,0.9c-1.1,0.6-2,1.4-2.6,2.4H113v-2.5C114.4,104.3,115.8,103.6,117.1,103.2z M123.3,114.4
				c-0.7,0.1-1.5,0.3-2.3,0.4c-0.8,0.1-1.5,0.3-2.3,0.5c-0.7,0.2-1.4,0.5-2,0.9c-0.6,0.4-1,0.9-1.4,1.4c-0.3,0.6-0.5,1.3-0.5,2.2
				c0,1.5,0.4,2.6,1.3,3.4c0.9,0.8,1.9,1.2,3,1.2c1.3,0,2.4-0.3,3.4-1c1-0.7,1.8-1.4,2.4-2.3l0.2-7.2
				C124.7,114.1,124,114.3,123.3,114.4z"/>
			<path fill="#004A8F" d="M154.2,121.3c-0.3,0.5-0.6,1.1-1.1,1.7c-0.4,0.6-1,1.1-1.7,1.7c-0.7,0.5-1.5,0.9-2.4,1.2
				c-0.9,0.3-2,0.5-3.2,0.5c-1.3,0-2.5-0.2-3.7-0.6c-1.2-0.4-2.3-1.1-3.2-2c-0.9-0.9-1.7-2.2-2.3-3.6c-0.6-1.5-0.9-3.3-0.9-5.3
				c0-2,0.3-3.8,0.9-5.3c0.6-1.5,1.5-2.7,2.5-3.8c1-1,2.2-1.8,3.4-2.3c1.3-0.5,2.6-0.7,3.9-0.7c3.7,0,6.2,1.6,7.7,4.8h0.1v-4.7
				c0-1.2,0-2.4,0-3.7c0-1.2,0-2.4-0.1-3.5c0-1.1,0-2.2,0-3.2c0-1,0-1.9-0.1-2.6c0.4,0.1,0.8,0.1,1.1,0.2c0.4,0,0.7,0.1,1.1,0.1
				c0.4,0,0.7,0,1.1-0.1c0.4,0,0.7-0.1,1.2-0.2c-0.1,1-0.2,2.5-0.3,4.4c-0.1,1.9-0.1,4.1-0.2,6.4c-0.1,2.3-0.1,4.7-0.1,7.2
				c0,2.5-0.1,4.7-0.1,6.7c0,2.2,0,4.2,0.1,5.9c0,1.8,0.1,3.6,0.1,5.4c-0.7-0.1-1.3-0.1-1.9-0.1c-0.6,0-1.2,0-1.9,0.1l0.1-4.6H154.2
				z M140.7,119.7c0.4,1.2,0.9,2.2,1.6,3c0.6,0.8,1.4,1.3,2.2,1.6c0.8,0.3,1.6,0.4,2.4,0.4c1.3,0,2.4-0.3,3.3-0.9
				c0.9-0.6,1.7-1.4,2.3-2.4c0.6-1,1.1-2.1,1.3-3.4c0.3-1.3,0.4-2.6,0.4-3.8c0-3.1-0.6-5.4-1.8-7c-1.2-1.6-3-2.4-5.4-2.4
				c-1.2,0-2.2,0.3-3.1,0.8c-0.9,0.5-1.6,1.3-2.2,2.2c-0.6,0.9-1,2-1.3,3.3c-0.3,1.3-0.4,2.6-0.4,4
				C140.1,116.9,140.3,118.4,140.7,119.7z"/>
			<path fill="#004A8F" d="M166.5,93c0.5-0.5,1.1-0.7,1.8-0.7c0.7,0,1.3,0.2,1.8,0.7c0.5,0.5,0.7,1.1,0.7,1.7c0,0.7-0.2,1.2-0.7,1.7
				c-0.5,0.5-1.1,0.7-1.8,0.7c-0.7,0-1.3-0.2-1.8-0.7c-0.5-0.5-0.7-1.1-0.7-1.7C165.7,94.1,166,93.5,166.5,93z M166.3,107.5
				c-0.1-1.6-0.2-3.1-0.3-4.4c0.9,0.2,1.7,0.2,2.2,0.2c0.6,0,1.3-0.1,2.2-0.2c-0.2,1.4-0.3,2.8-0.3,4.4c0,1.6-0.1,3.1-0.1,4.5v5
				c0,1.4,0,2.9,0.1,4.5c0,1.6,0.2,3,0.3,4.3c-0.8-0.1-1.5-0.1-2.2-0.1c-0.7,0-1.5,0-2.2,0.1c0.2-1.3,0.3-2.7,0.3-4.3
				c0-1.6,0.1-3.1,0.1-4.5v-5C166.4,110.6,166.4,109.1,166.3,107.5z"/>
			<path fill="#004A8F" d="M178.4,106.9c0.5-1,1.2-1.8,2.1-2.4c0.9-0.6,1.9-1.1,3-1.4c1.1-0.3,2.4-0.5,3.7-0.5c0.6,0,1.2,0,1.8,0
				c0.6,0,1.3,0.1,2.2,0.1c0.8,0.1,1.4,0.1,2,0.1c0.6,0,1.1,0,1.4,0c1.9,0,3.2-0.1,4-0.2c0,0.2-0.1,0.3-0.1,0.5c0,0.2,0,0.3,0,0.5
				c0,0.2,0,0.3,0,0.5c0,0.2,0,0.3,0.1,0.5c-1-0.1-1.9-0.1-2.8-0.2c-0.9-0.1-1.8-0.1-2.7-0.2l-0.1,0.1c1,0.5,1.9,1.4,2.5,2.5
				c0.6,1.1,0.9,2.3,0.9,3.5c0,2.4-0.8,4.3-2.5,5.6c-1.7,1.4-3.9,2-6.8,2c-0.5,0-0.9,0-1.4-0.1c-0.4,0-0.9,0-1.4,0
				c-0.6,0-1.2,0.2-1.7,0.6c-0.5,0.4-0.8,0.9-0.8,1.6c0,0.8,0.2,1.4,0.6,1.8c0.4,0.4,1.2,0.6,2.3,0.6c0.9,0,1.8,0.1,2.7,0.1
				c0.9,0,1.8,0,2.7,0.1c1.5,0,2.8,0.2,3.9,0.5c1.1,0.3,2,0.8,2.6,1.3c0.7,0.5,1.2,1.2,1.5,1.9c0.3,0.7,0.5,1.5,0.5,2.3
				c0,1.1-0.2,2.2-0.7,3.4c-0.4,1.2-1.1,2.2-2.1,3.1c-0.9,0.9-2.2,1.7-3.7,2.3c-1.5,0.6-3.3,0.9-5.4,0.9c-3.2,0-5.8-0.6-7.6-1.8
				c-1.9-1.2-2.8-2.9-2.8-5.1c0-0.8,0.2-1.6,0.5-2.3c0.3-0.7,0.7-1.3,1.2-1.9c0.5-0.5,1.1-1,1.7-1.3c0.6-0.3,1.3-0.6,1.9-0.7v-0.1
				c-1-0.3-1.8-0.8-2.3-1.4c-0.5-0.7-0.8-1.5-0.8-2.4c0-0.5,0.1-1,0.3-1.5c0.2-0.4,0.5-0.8,0.8-1.2c0.3-0.4,0.7-0.6,1.1-0.9
				c0.4-0.2,0.8-0.4,1.2-0.4v-0.1c-1.5-0.6-2.7-1.5-3.6-2.7c-0.9-1.2-1.3-2.6-1.3-4.4C177.7,109.1,177.9,107.9,178.4,106.9z
				 M193.6,126.9c-1.2-0.8-3.1-1.1-5.8-1.1c-2.5,0-4.4,0.4-5.8,1.2c-1.4,0.8-2,2.2-2,4.2c0,1.1,0.2,2,0.6,2.8
				c0.4,0.8,0.9,1.4,1.5,1.9c0.6,0.5,1.4,0.8,2.3,1.1c0.9,0.2,1.9,0.3,2.9,0.3c1,0,2-0.1,2.9-0.4c1-0.3,1.8-0.6,2.6-1.1
				c0.7-0.5,1.4-1.2,1.8-1.9c0.5-0.8,0.7-1.7,0.7-2.8C195.3,129,194.8,127.6,193.6,126.9z M191.2,105.6c-1-1.1-2.3-1.6-3.9-1.6
				c-1.8,0-3.2,0.6-4.2,1.8c-1,1.2-1.5,2.7-1.5,4.7c0,2,0.5,3.6,1.4,4.8c0.9,1.2,2.3,1.7,4.3,1.7c1,0,1.8-0.2,2.5-0.6
				c0.7-0.4,1.2-0.9,1.7-1.5c0.4-0.6,0.8-1.3,1-2.2c0.2-0.8,0.3-1.7,0.3-2.6C192.7,108.2,192.2,106.6,191.2,105.6z"/>
			<path fill="#004A8F" d="M205.1,100c0-1.3,0-2.5-0.1-3.8c0-1.2-0.1-2.4-0.1-3.6c0-1.1-0.1-2.1-0.2-2.9c0.9,0.2,1.7,0.2,2.2,0.2
				c0.6,0,1.3-0.1,2.2-0.2c-0.1,0.8-0.1,1.8-0.2,2.9c0,1.1-0.1,2.3-0.1,3.6c0,1.2-0.1,2.5-0.1,3.8c0,1.3,0,2.5,0,3.5v8.7
				c0,1.1,0,2.3,0,3.5c0,1.3,0,2.5,0.1,3.8c0,1.2,0.1,2.4,0.1,3.5c0.1,1.1,0.1,2,0.2,2.8c-0.8-0.1-1.5-0.1-2.2-0.1
				c-0.7,0-1.5,0-2.2,0.1c0.1-0.7,0.1-1.7,0.2-2.8c0-1.1,0.1-2.3,0.1-3.5c0-1.2,0.1-2.5,0.1-3.8c0-1.3,0-2.5,0-3.5v-8.7
				C205.2,102.4,205.2,101.2,205.1,100z"/>
			<path fill="#004A8F" d="M219.1,93c0.5-0.5,1.1-0.7,1.8-0.7c0.7,0,1.3,0.2,1.8,0.7c0.5,0.5,0.7,1.1,0.7,1.7c0,0.7-0.2,1.2-0.7,1.7
				c-0.5,0.5-1.1,0.7-1.8,0.7c-0.7,0-1.3-0.2-1.8-0.7c-0.5-0.5-0.7-1.1-0.7-1.7C218.3,94.1,218.6,93.5,219.1,93z M218.9,107.5
				c-0.1-1.6-0.2-3.1-0.3-4.4c0.9,0.2,1.7,0.2,2.2,0.2c0.6,0,1.3-0.1,2.2-0.2c-0.2,1.4-0.3,2.8-0.3,4.4c0,1.6-0.1,3.1-0.1,4.5v5
				c0,1.4,0,2.9,0.1,4.5c0.1,1.6,0.2,3,0.3,4.3c-0.8-0.1-1.5-0.1-2.2-0.1c-0.7,0-1.5,0-2.2,0.1c0.2-1.3,0.3-2.7,0.3-4.3
				c0.1-1.6,0.1-3.1,0.1-4.5v-5C219,110.6,219,109.1,218.9,107.5z"/>
			<path fill="#004A8F" d="M231,113.5c0-1.3,0-2.5-0.1-3.8c0-1.3-0.1-2.5-0.1-3.6c0-1.2-0.1-2.1-0.2-3c0.9,0.2,1.7,0.2,2.2,0.2
				c0.6,0,1.3-0.1,2.2-0.2c-0.1,0.8-0.2,1.6-0.3,2.4c-0.1,0.8-0.1,1.5-0.1,2.3h0.1c0.2-0.5,0.6-1.1,1-1.6c0.4-0.6,1-1.2,1.7-1.7
				c0.7-0.5,1.5-1,2.5-1.3c1-0.4,2.1-0.5,3.3-0.5c1.3,0,2.5,0.2,3.7,0.7c1.2,0.5,2.3,1.2,3.3,2.1c0.9,1,1.7,2.2,2.3,3.7
				c0.6,1.5,0.9,3.2,0.9,5.3c0,2-0.3,3.8-0.9,5.3c-0.6,1.5-1.5,2.7-2.5,3.7c-1,1-2.2,1.7-3.5,2.2c-1.3,0.5-2.6,0.7-3.9,0.7
				c-3.7,0-6.3-1.5-7.8-4.6h-0.1v3c0,1,0,2.2,0,3.4c0,1.3,0,2.5,0.1,3.8c0,1.2,0.1,2.4,0.1,3.6c0.1,1.1,0.1,2.1,0.2,2.9
				c-0.9-0.2-1.7-0.2-2.2-0.2c-0.6,0-1.3,0.1-2.2,0.2c0.1-0.8,0.1-1.8,0.2-2.9c0-1.1,0.1-2.3,0.1-3.6c0-1.2,0.1-2.5,0.1-3.8
				c0-1.3,0-2.4,0-3.4V117C231,115.9,231,114.7,231,113.5z M248.4,109.6c-0.4-1.2-0.9-2.2-1.6-3c-0.6-0.8-1.4-1.3-2.2-1.6
				c-0.8-0.3-1.6-0.4-2.4-0.4c-1.3,0-2.5,0.3-3.4,0.8c-0.9,0.5-1.7,1.3-2.3,2.2c-0.6,0.9-1,2-1.3,3.2c-0.3,1.2-0.4,2.5-0.4,3.9
				c0,6.6,2.4,10,7.3,10c1.2,0,2.2-0.3,3.1-0.8c0.9-0.5,1.6-1.3,2.2-2.2c0.6-0.9,1-2,1.3-3.3c0.3-1.3,0.4-2.6,0.4-4
				C249,112.4,248.8,110.8,248.4,109.6z"/>
			<path fill="#004A8F" d="M270,113.2v3h-12.4v-3H270z"/>
			<path fill="#004A8F" d="M285.6,107.5c2.1,3.9,4.3,7.8,6.6,11.9c0.3-0.5,0.7-1.3,1.3-2.4c0.6-1,1.2-2.2,2-3.5
				c0.8-1.3,1.6-2.8,2.4-4.3c0.9-1.5,1.7-3.1,2.6-4.7c0.9-1.6,1.8-3.1,2.6-4.7c0.9-1.5,1.7-3,2.4-4.3h0.6c0.3,2.8,0.6,5.4,0.9,8
				c0.3,2.6,0.6,5.1,0.9,7.6c0.3,2.5,0.6,5,0.9,7.4c0.3,2.4,0.6,4.9,1,7.2c-0.4-0.1-0.7-0.1-1.1-0.1c-0.3,0-0.7,0-1.1,0
				c-0.4,0-0.7,0-1.1,0c-0.3,0-0.7,0-1.1,0.1c-0.3-3.8-0.7-7.6-1-11.2c-0.3-3.6-0.7-7.3-1.2-11h-0.1c-2.1,3.6-4.1,7.2-6.1,10.8
				c-2,3.6-3.9,7.4-5.7,11.3h-0.4c-1.8-3.6-3.7-7.3-5.6-10.9c-2-3.7-3.9-7.4-5.9-11.2h-0.1c-0.2,1.8-0.4,3.7-0.7,5.8
				c-0.3,2.1-0.5,4.2-0.7,6.2c-0.2,2-0.4,4-0.5,5.8c-0.2,1.8-0.2,3.3-0.2,4.4c-0.5-0.1-1-0.1-1.6-0.1c-0.6,0-1.1,0-1.6,0.1
				c0.4-2.3,0.8-4.8,1.2-7.4c0.4-2.6,0.8-5.2,1.2-7.8c0.4-2.6,0.7-5.2,1.1-7.8c0.3-2.6,0.6-5,0.9-7.3h0.8
				C281.4,99.6,283.5,103.6,285.6,107.5z"/>
		</g>
	</g>
</g>
</svg>
