<?xml version="1.0" encoding="utf-8"?>
<!-- Generator: Adobe Illustrator 18.0.0, SVG Export Plug-In . SVG Version: 6.00 Build 0)  -->
<!DOCTYPE svg PUBLIC "-//W3C//DTD SVG 1.1//EN" "http://www.w3.org/Graphics/SVG/1.1/DTD/svg11.dtd">
<svg version="1.1" id="Layer_1" xmlns="http://www.w3.org/2000/svg" xmlns:xlink="http://www.w3.org/1999/xlink" x="0px" y="0px"
	 viewBox="0 0 180 80" enable-background="new 0 0 180 80" xml:space="preserve">
<g>
	<g>
		<g>
			<g>
				<path d="M28,44.8c0.8,3.5,1,4.1,1.9,5l-6.8,0.1c-0.9-0.8-0.9-0.9-1.7-4.5l-0.2-1.1c-0.4-1.7-0.7-3-1.4-3.8
					c-1.1-1.3-2.5-1.3-3.6-1.2l-1.9,0l0.2,10.8l-6.5,0.1L7.5,24.5l11.7-0.2c1.9,0,4.2-0.1,6,1.1c2.5,1.6,2.6,4.4,2.6,5.3
					c0.1,5.4-3.8,6.2-5.2,6.5c3.3,0.6,4.1,2.3,5,6.1L28,44.8z M14.1,35.9l2,0c1.3,0,2.9-0.1,3.9-0.8c0.5-0.4,1.3-1.4,1.2-3.4
					c0-0.7-0.1-1.3-0.4-1.9c-0.9-1.9-2.6-1.9-4.6-1.9l-2.3,0L14.1,35.9z"/>
				<path d="M42.9,37.3c0-0.9-0.1-1.6-0.4-2.2c-0.6-1-1.8-1-2.2-1c-1.3,0-2,0.6-2.2,1c-0.6,0.7-0.6,1.8-0.6,2.5l-5.6,0.1
					c0-0.8-0.1-2,0.5-3.1c1.4-2.6,5-3.2,8.3-3.3c1.1,0,2.2,0,3.3,0.2c1.1,0.2,2.3,0.5,3.1,1.2c1.6,1.4,1.6,3.3,1.6,4.7l0.2,8.7
					c0,1,0,1.6,0.2,2.3c0.2,0.8,0.4,0.9,0.6,1.1l0,0.2l-4.8,0.1c-1.4,0.1-2-0.1-2-2c-0.6,0.7-2.4,2.6-6,2.6c-1.5,0-3.1-0.3-4.1-1.5
					c-0.7-0.8-1.3-2.1-1.3-3.9c0-0.7,0-2.9,2.1-4.4c1.4-0.9,3.2-1.3,6.4-1.7l2.9-0.3L42.9,37.3z M43,41.1c-1.8,0.2-2.2,0.2-2.9,0.4
					c-1.4,0.4-2.7,1.2-2.6,3.1c0,0.4,0.1,0.8,0.2,1.2c0.4,1.3,1.3,1.6,2.4,1.6c0.4,0,1.5-0.1,2.2-0.8c0.9-0.9,0.9-2,0.9-2.9L43,41.1
					z"/>
				<path d="M70.8,49.9L64.9,50l0-2.2c-0.6,0.6-1.2,1.2-1.9,1.7c-1.1,0.7-2.5,1-3.8,1c-0.7,0-1.8,0-2.9-0.6
					c-2.8-1.3-3.2-3.9-3.4-5.3c-0.2-1.1-0.2-2.1-0.2-3.2c-0.1-5.5,1.2-8,3.7-9.2c1-0.5,2.1-0.7,3.2-0.7c2.8,0,3.9,1.1,5.1,2.2
					l-0.2-9.4l5.8-0.1L70.8,49.9z M64.7,38.2c0-2.1-1.2-3.6-3-3.6c-0.5,0-0.9,0.1-1.3,0.3c-0.9,0.5-2,1.3-1.9,6.1
					c0,0.5,0.1,2.5,0.4,3.8c0.1,0.5,0.6,2.7,2.8,2.6c1.1,0,2-0.6,2.5-1.4c0.5-0.9,0.5-2.1,0.6-3.2L64.7,38.2z"/>
				<path d="M80.9,29l-5.9,0.1l-0.1-4.5l5.9-0.1L80.9,29z M81.2,50l-5.9,0.1L75,31.9l5.9-0.1L81.2,50z"/>
				<path fill="#939598" d="M93.2,50L89.9,50L83.5,32l3.4-0.1l3.9,11.9c0.4,1.2,0.5,1.5,0.9,3.1c0.2-0.9,0.2-1.1,0.6-2.1l4.2-13.1
					l2.8,0L93.2,50z"/>
				<path fill="#939598" d="M105.7,27.9l-3.1,0.1l-0.1-3.2l3.1-0.1L105.7,27.9z M106.1,50L103,50l-0.3-18.2l3.1-0.1L106.1,50z"/>
				<path fill="#939598" d="M115.3,33.7l0.1,10.4c0.1,2.1,0.1,3.9,2.4,3.8c0.9,0,1.6-0.2,2.1-0.5l0,2.1c-0.7,0.3-1.8,0.6-3.4,0.7
					c-2.6,0-3.4-1.2-3.7-1.6c-0.6-0.9-0.7-2.4-0.7-4.1l-0.1-10.9l-2.8,0l0-1.9l2.8,0l-0.1-4l3.1-0.6l0.1,4.5l3.4-0.1l0,1.9
					L115.3,33.7z"/>
				<path fill="#939598" d="M133.1,41.8L122.3,42l0-2.5l10.7-0.2L133.1,41.8z"/>
			</g>
			<line fill="none" stroke="#F6891F" stroke-width="0.2558" stroke-miterlimit="10" x1="153.4" y1="32.7" x2="153.3" y2="21.8"/>
			<line fill="none" stroke="#F6891F" stroke-width="0.2558" stroke-miterlimit="10" x1="153.4" y1="32.7" x2="153.3" y2="21.8"/>
			<line fill="none" stroke="#FCC28B" stroke-width="0.4175" stroke-miterlimit="10" x1="153.4" y1="32.7" x2="155.4" y2="23.2"/>
			<line fill="none" stroke="#F6891F" stroke-width="0.2558" stroke-miterlimit="10" x1="153.3" y1="32.7" x2="158" y2="22.8"/>
			<line fill="none" stroke="#FCC28B" stroke-width="0.4175" stroke-miterlimit="10" x1="153.3" y1="32.7" x2="159.5" y2="24.9"/>
			<line fill="none" stroke="#F6891F" stroke-width="0.2558" stroke-miterlimit="10" x1="153.3" y1="32.7" x2="161.8" y2="25.9"/>
			<line fill="none" stroke="#FCC28B" stroke-width="0.4175" stroke-miterlimit="10" x1="153.2" y1="32.7" x2="162.3" y2="28.3"/>
			<line fill="none" stroke="#F6891F" stroke-width="0.2558" stroke-miterlimit="10" x1="153.2" y1="32.7" x2="163.9" y2="30.2"/>
			<line fill="none" stroke="#FCC28B" stroke-width="0.4175" stroke-miterlimit="10" x1="153.2" y1="32.6" x2="163.3" y2="32.7"/>
			<line fill="none" stroke="#F6891F" stroke-width="0.2558" stroke-miterlimit="10" x1="153.2" y1="32.6" x2="163.9" y2="35.1"/>
			<line fill="none" stroke="#FCC28B" stroke-width="0.4175" stroke-miterlimit="10" x1="153.2" y1="32.6" x2="162.4" y2="37"/>
			<line fill="none" stroke="#F6891F" stroke-width="0.2558" stroke-miterlimit="10" x1="153.2" y1="32.5" x2="161.7" y2="39.4"/>
			<path fill="#FFD200" d="M161.3,32.5c0-4.2-3.4-7.5-7.6-7.5c-1.1,0-2.2,0.3-3.2,0.7c1.3,0.7,2.5,1.5,3.5,2.6
				c1.1,1.2,2,2.6,2.6,4.2c0.6,1.6,1,3.4,1,5.2c0,0.4,0,0.8,0,1.2C159.8,37.7,161.3,35.3,161.3,32.5z"/>
			<g>
				<path fill="#F6891F" d="M136.7,25h10c1.7,0,3.3,0.3,4.7,1c1.4,0.7,2.6,1.6,3.6,2.7c1,1.1,1.8,2.5,2.3,4c0.5,1.5,0.8,3.1,0.8,4.8
					c0,1.8-0.3,3.5-0.8,5c-0.6,1.5-1.3,2.9-2.3,4s-2.2,2-3.6,2.7c-1.4,0.6-2.9,1-4.6,1h-10V25z M141.1,47h4.6c1.2,0,2.2-0.2,3.2-0.6
					c1-0.4,1.8-1,2.5-1.9c0.7-0.8,1.3-1.8,1.7-3c0.4-1.2,0.6-2.5,0.6-4c0-1.6-0.2-3-0.6-4.2c-0.4-1.2-1-2.2-1.7-3
					c-0.7-0.8-1.6-1.4-2.5-1.7c-1-0.4-2.1-0.6-3.2-0.6h-4.6V47z"/>
			</g>
			<g>
				<path d="M8.4,59.4c0,0.4,0,0.7,0.1,1c0.1,0.3,0.2,0.5,0.4,0.7c0.2,0.2,0.3,0.3,0.5,0.4c0.2,0.1,0.4,0.1,0.6,0.1
					c0.2,0,0.4,0,0.6-0.1c0.2-0.1,0.3-0.2,0.5-0.3c0.1-0.1,0.2-0.3,0.3-0.4s0.1-0.3,0.2-0.5h0.5c0,0.3-0.1,0.5-0.2,0.7
					c-0.1,0.2-0.3,0.4-0.4,0.6c-0.2,0.2-0.4,0.3-0.6,0.4c-0.2,0.1-0.5,0.1-0.8,0.1c-0.3,0-0.6-0.1-0.9-0.2c-0.3-0.1-0.5-0.3-0.7-0.5
					c-0.2-0.2-0.3-0.5-0.4-0.8c-0.1-0.3-0.2-0.7-0.2-1.1c0-0.3,0.1-0.6,0.1-0.9c0.1-0.3,0.2-0.6,0.4-0.8c0.2-0.2,0.4-0.4,0.7-0.6
					c0.3-0.1,0.6-0.2,0.9-0.2c0.3,0,0.6,0,0.8,0.1c0.2,0.1,0.4,0.2,0.6,0.3c0.2,0.1,0.3,0.3,0.4,0.5c0.1,0.2,0.2,0.4,0.3,0.6h-0.6
					c-0.1-0.4-0.3-0.6-0.6-0.8c-0.2-0.2-0.6-0.3-1-0.3c-0.2,0-0.5,0.1-0.7,0.2C9.2,57.6,9,57.8,8.9,58c-0.1,0.2-0.3,0.4-0.3,0.7
					C8.4,58.9,8.4,59.2,8.4,59.4z"/>
				<path d="M13.3,57v1.9c0.1-0.2,0.3-0.4,0.5-0.4c0.2-0.1,0.4-0.1,0.6-0.1c0.2,0,0.3,0,0.5,0.1c0.1,0.1,0.3,0.1,0.4,0.2
					c0.1,0.1,0.2,0.2,0.2,0.3c0.1,0.1,0.1,0.3,0.1,0.4v2.5h-0.5v-2.4c0-0.1,0-0.2-0.1-0.3c0-0.1-0.1-0.2-0.2-0.2
					c-0.1-0.1-0.1-0.1-0.2-0.1c-0.1,0-0.2,0-0.3,0c-0.1,0-0.2,0-0.4,0.1c-0.1,0.1-0.2,0.1-0.3,0.2c-0.1,0.1-0.2,0.2-0.2,0.3
					c-0.1,0.1-0.1,0.2-0.1,0.4v2.1h-0.5V57H13.3z"/>
				<path d="M16.3,60.2c0-0.3,0-0.5,0.1-0.7c0.1-0.2,0.2-0.4,0.3-0.6c0.1-0.2,0.3-0.3,0.5-0.4c0.2-0.1,0.4-0.1,0.7-0.1
					s0.5,0,0.7,0.1c0.2,0.1,0.4,0.2,0.5,0.4c0.1,0.2,0.2,0.4,0.3,0.6c0.1,0.2,0.1,0.5,0.1,0.7c0,0.3,0,0.5-0.1,0.7
					c-0.1,0.2-0.2,0.4-0.3,0.6c-0.1,0.2-0.3,0.3-0.5,0.4C18.4,62,18.2,62,17.9,62s-0.5,0-0.7-0.1c-0.2-0.1-0.4-0.2-0.5-0.4
					c-0.1-0.2-0.2-0.4-0.3-0.6C16.3,60.7,16.3,60.4,16.3,60.2z M16.8,60.2c0,0.2,0,0.4,0.1,0.5c0,0.2,0.1,0.3,0.2,0.4
					c0.1,0.1,0.2,0.2,0.3,0.3c0.1,0.1,0.3,0.1,0.5,0.1s0.3,0,0.5-0.1c0.1-0.1,0.2-0.2,0.3-0.3c0.1-0.1,0.2-0.3,0.2-0.4
					c0.1-0.2,0.1-0.3,0.1-0.5c0-0.2,0-0.4-0.1-0.5c0-0.2-0.1-0.3-0.2-0.4c-0.1-0.1-0.2-0.2-0.3-0.3c-0.1-0.1-0.3-0.1-0.5-0.1
					s-0.3,0-0.5,0.1c-0.1,0.1-0.2,0.2-0.3,0.3c-0.1,0.1-0.2,0.3-0.2,0.4C16.8,59.8,16.8,60,16.8,60.2z"/>
				<path d="M20.8,57v4.9h-0.5V57H20.8z"/>
				<path d="M22,60.3c0,0.2,0,0.3,0.1,0.5c0.1,0.2,0.1,0.3,0.2,0.4c0.1,0.1,0.2,0.2,0.3,0.3c0.1,0.1,0.3,0.1,0.4,0.1
					c0.5,0,0.8-0.2,1-0.7h0.5c0,0.2-0.1,0.3-0.2,0.5c-0.1,0.1-0.2,0.3-0.3,0.4c-0.1,0.1-0.3,0.2-0.4,0.2C23.4,62,23.3,62,23.1,62
					c-0.2,0-0.5-0.1-0.7-0.2c-0.2-0.1-0.4-0.2-0.5-0.4c-0.1-0.2-0.3-0.4-0.3-0.6c-0.1-0.2-0.1-0.5-0.1-0.7c0-0.2,0-0.5,0.1-0.7
					c0.1-0.2,0.2-0.4,0.3-0.6c0.1-0.2,0.3-0.3,0.5-0.4c0.2-0.1,0.4-0.1,0.7-0.1c0.2,0,0.5,0,0.6,0.1c0.2,0.1,0.4,0.2,0.5,0.4
					s0.2,0.3,0.3,0.5c0.1,0.2,0.1,0.4,0.1,0.7v0.2H22z M24.1,59.9c0-0.1,0-0.3-0.1-0.4c0-0.1-0.1-0.2-0.2-0.3
					c-0.1-0.1-0.2-0.2-0.3-0.2c-0.1-0.1-0.3-0.1-0.4-0.1c-0.1,0-0.3,0-0.4,0.1c-0.1,0.1-0.2,0.1-0.3,0.2c-0.1,0.1-0.2,0.2-0.2,0.3
					c-0.1,0.1-0.1,0.3-0.1,0.4H24.1z"/>
				<path d="M27.7,59.5c-0.1-0.3-0.2-0.4-0.3-0.5c-0.1-0.1-0.3-0.2-0.6-0.2c-0.2,0-0.3,0-0.4,0.1c-0.1,0.1-0.2,0.2-0.3,0.3
					c-0.1,0.1-0.2,0.3-0.2,0.4c0,0.2-0.1,0.3-0.1,0.5c0,0.2,0,0.4,0.1,0.5c0,0.2,0.1,0.3,0.2,0.5c0.1,0.1,0.2,0.2,0.3,0.3
					s0.3,0.1,0.4,0.1c0.1,0,0.2,0,0.3-0.1c0.1,0,0.2-0.1,0.3-0.2c0.1-0.1,0.1-0.2,0.2-0.3c0-0.1,0.1-0.2,0.1-0.3h0.6
					c-0.1,0.4-0.2,0.7-0.5,1c-0.3,0.2-0.6,0.3-1,0.3c-0.3,0-0.5-0.1-0.7-0.2c-0.2-0.1-0.3-0.3-0.5-0.4c-0.1-0.2-0.2-0.4-0.3-0.6
					c-0.1-0.2-0.1-0.5-0.1-0.7c0-0.2,0-0.5,0.1-0.7c0.1-0.2,0.2-0.4,0.3-0.6c0.1-0.2,0.3-0.3,0.5-0.4c0.2-0.1,0.4-0.1,0.6-0.1
					c0.2,0,0.4,0,0.5,0.1s0.3,0.1,0.4,0.2c0.1,0.1,0.2,0.2,0.3,0.4c0.1,0.1,0.1,0.3,0.2,0.5H27.7z"/>
				<path d="M29.1,59.4c0-0.2,0.1-0.3,0.1-0.5c0.1-0.1,0.2-0.2,0.3-0.3c0.1-0.1,0.3-0.1,0.4-0.2c0.2,0,0.3-0.1,0.5-0.1
					c0.2,0,0.3,0,0.5,0.1c0.2,0,0.3,0.1,0.4,0.2c0.1,0.1,0.2,0.2,0.3,0.3c0.1,0.1,0.1,0.3,0.1,0.5v1.9c0,0.1,0,0.1,0.1,0.2
					c0,0.1,0.1,0.1,0.2,0.1c0,0,0,0,0.1,0c0,0,0.1,0,0.1,0V62c-0.1,0-0.1,0-0.2,0.1c-0.1,0-0.1,0-0.2,0c-0.2,0-0.3-0.1-0.4-0.2
					c-0.1-0.1-0.2-0.3-0.2-0.5c-0.1,0.1-0.2,0.3-0.3,0.4c-0.1,0.1-0.2,0.2-0.3,0.2c-0.1,0-0.2,0.1-0.3,0.1c-0.1,0-0.2,0-0.3,0
					c-0.1,0-0.3,0-0.4-0.1c-0.1,0-0.2-0.1-0.3-0.2c-0.1-0.1-0.2-0.2-0.2-0.3C29,61.3,29,61.2,29,61c0-0.2,0.1-0.4,0.2-0.5
					c0.1-0.1,0.3-0.2,0.4-0.3s0.4-0.1,0.6-0.2c0.2-0.1,0.4-0.1,0.6-0.2c0.2-0.1,0.3-0.1,0.4-0.2c0.1-0.1,0.2-0.2,0.2-0.3
					c0-0.2-0.1-0.4-0.2-0.4c-0.1-0.1-0.4-0.1-0.6-0.1c-0.2,0-0.4,0-0.5,0.1c-0.2,0.1-0.2,0.2-0.3,0.4H29.1z M31.3,60
					c-0.1,0.1-0.2,0.1-0.3,0.2c-0.1,0.1-0.2,0.1-0.4,0.1c-0.1,0-0.3,0.1-0.4,0.1c-0.1,0-0.3,0.1-0.4,0.1c-0.1,0-0.2,0.1-0.3,0.2
					c-0.1,0.1-0.1,0.2-0.1,0.3c0,0.1,0,0.2,0.1,0.3c0,0.1,0.1,0.1,0.1,0.2c0.1,0,0.1,0.1,0.2,0.1c0.1,0,0.1,0,0.2,0
					c0.2,0,0.4-0.1,0.6-0.2c0.2-0.1,0.4-0.3,0.5-0.6V60z"/>
				<path d="M33.3,57v4.9h-0.5V57H33.3z"/>
				<path d="M36.4,59.5c-0.1-0.3-0.2-0.4-0.3-0.5c-0.1-0.1-0.3-0.2-0.6-0.2c-0.2,0-0.3,0-0.4,0.1c-0.1,0.1-0.2,0.2-0.3,0.3
					c-0.1,0.1-0.2,0.3-0.2,0.4c0,0.2-0.1,0.3-0.1,0.5c0,0.2,0,0.4,0.1,0.5c0,0.2,0.1,0.3,0.2,0.5c0.1,0.1,0.2,0.2,0.3,0.3
					c0.1,0.1,0.3,0.1,0.4,0.1c0.1,0,0.2,0,0.3-0.1c0.1,0,0.2-0.1,0.3-0.2c0.1-0.1,0.1-0.2,0.2-0.3c0-0.1,0.1-0.2,0.1-0.3H37
					c-0.1,0.4-0.2,0.7-0.5,1c-0.3,0.2-0.6,0.3-1,0.3c-0.3,0-0.5-0.1-0.7-0.2c-0.2-0.1-0.3-0.3-0.5-0.4c-0.1-0.2-0.2-0.4-0.3-0.6
					C34,60.6,34,60.4,34,60.1c0-0.2,0-0.5,0.1-0.7c0.1-0.2,0.2-0.4,0.3-0.6c0.1-0.2,0.3-0.3,0.5-0.4c0.2-0.1,0.4-0.1,0.6-0.1
					c0.2,0,0.4,0,0.5,0.1s0.3,0.1,0.4,0.2c0.1,0.1,0.2,0.2,0.3,0.4c0.1,0.1,0.1,0.3,0.2,0.5H36.4z"/>
				<path d="M38.3,57v0.6h-0.5V57H38.3z M38.3,58.4v3.5h-0.5v-3.5H38.3z"/>
				<path d="M39.5,58.4v-0.9c0-0.2,0.1-0.4,0.2-0.5c0.1-0.1,0.3-0.2,0.6-0.2c0.1,0,0.1,0,0.2,0c0.1,0,0.2,0.1,0.2,0.1v0.4
					c-0.1-0.1-0.2-0.1-0.3-0.1c-0.1,0-0.2,0-0.3,0.1c-0.1,0.1-0.1,0.1-0.1,0.2v0.8h0.6v0.5h-0.6v3.1h-0.5v-3.1h-0.6v-0.5H39.5z"/>
				<path d="M41.7,60.3c0,0.2,0,0.3,0.1,0.5c0.1,0.2,0.1,0.3,0.2,0.4c0.1,0.1,0.2,0.2,0.3,0.3c0.1,0.1,0.3,0.1,0.4,0.1
					c0.5,0,0.8-0.2,1-0.7h0.5c0,0.2-0.1,0.3-0.2,0.5c-0.1,0.1-0.2,0.3-0.3,0.4c-0.1,0.1-0.3,0.2-0.4,0.2C43.1,62,42.9,62,42.8,62
					c-0.2,0-0.5-0.1-0.7-0.2c-0.2-0.1-0.4-0.2-0.5-0.4c-0.1-0.2-0.3-0.4-0.3-0.6c-0.1-0.2-0.1-0.5-0.1-0.7c0-0.2,0-0.5,0.1-0.7
					c0.1-0.2,0.2-0.4,0.3-0.6c0.1-0.2,0.3-0.3,0.5-0.4c0.2-0.1,0.4-0.1,0.7-0.1c0.2,0,0.5,0,0.6,0.1c0.2,0.1,0.4,0.2,0.5,0.4
					s0.2,0.3,0.3,0.5c0.1,0.2,0.1,0.4,0.1,0.7v0.2H41.7z M43.8,59.9c0-0.1,0-0.3-0.1-0.4c0-0.1-0.1-0.2-0.2-0.3
					c-0.1-0.1-0.2-0.2-0.3-0.2c-0.1-0.1-0.3-0.1-0.4-0.1c-0.1,0-0.3,0-0.4,0.1C42.2,59,42.1,59,42,59.1c-0.1,0.1-0.2,0.2-0.2,0.3
					c-0.1,0.1-0.1,0.3-0.1,0.4H43.8z"/>
				<path d="M45,58.4h0.5l0,0.5c0.2-0.4,0.5-0.6,0.9-0.6c0,0,0.1,0,0.1,0c0,0,0.1,0,0.1,0v0.5c-0.1,0-0.2-0.1-0.3-0.1
					c-0.1,0-0.3,0-0.4,0.1c-0.1,0.1-0.2,0.1-0.3,0.2c-0.1,0.1-0.1,0.2-0.2,0.3c0,0.1-0.1,0.2-0.1,0.4v2.1H45V58.4z"/>
				<path d="M47.1,60.2c0-0.3,0-0.5,0.1-0.7c0.1-0.2,0.2-0.4,0.3-0.6c0.1-0.2,0.3-0.3,0.5-0.4c0.2-0.1,0.4-0.1,0.7-0.1
					s0.5,0,0.7,0.1c0.2,0.1,0.4,0.2,0.5,0.4c0.1,0.2,0.2,0.4,0.3,0.6c0.1,0.2,0.1,0.5,0.1,0.7c0,0.3,0,0.5-0.1,0.7
					c-0.1,0.2-0.2,0.4-0.3,0.6c-0.1,0.2-0.3,0.3-0.5,0.4C49.2,62,49,62,48.7,62s-0.5,0-0.7-0.1c-0.2-0.1-0.4-0.2-0.5-0.4
					c-0.1-0.2-0.2-0.4-0.3-0.6C47.2,60.7,47.1,60.4,47.1,60.2z M47.7,60.2c0,0.2,0,0.4,0.1,0.5c0,0.2,0.1,0.3,0.2,0.4
					c0.1,0.1,0.2,0.2,0.3,0.3c0.1,0.1,0.3,0.1,0.5,0.1s0.3,0,0.5-0.1c0.1-0.1,0.2-0.2,0.3-0.3c0.1-0.1,0.2-0.3,0.2-0.4
					c0.1-0.2,0.1-0.3,0.1-0.5c0-0.2,0-0.4-0.1-0.5c0-0.2-0.1-0.3-0.2-0.4c-0.1-0.1-0.2-0.2-0.3-0.3c-0.1-0.1-0.3-0.1-0.5-0.1
					s-0.3,0-0.5,0.1c-0.1,0.1-0.2,0.2-0.3,0.3c-0.1,0.1-0.2,0.3-0.2,0.4C47.7,59.8,47.7,60,47.7,60.2z"/>
				<path d="M51.6,57v4.9h-0.5V57H51.6z"/>
				<path d="M54.7,57v3.3c0,0.2,0,0.4,0.1,0.5c0.1,0.2,0.2,0.3,0.3,0.4c0.1,0.1,0.3,0.2,0.4,0.3c0.1,0.1,0.3,0.1,0.5,0.1
					c0.2,0,0.3,0,0.5-0.1c0.2-0.1,0.3-0.1,0.4-0.2c0.1-0.1,0.2-0.2,0.3-0.4c0.1-0.2,0.1-0.3,0.1-0.5V57h0.5v3.3
					c0,0.3-0.1,0.5-0.2,0.8c-0.1,0.2-0.3,0.4-0.4,0.6c-0.2,0.1-0.4,0.3-0.6,0.3c-0.2,0.1-0.4,0.1-0.7,0.1c-0.2,0-0.4,0-0.6-0.1
					c-0.2-0.1-0.4-0.2-0.6-0.3c-0.2-0.1-0.3-0.3-0.4-0.6c-0.1-0.2-0.2-0.5-0.2-0.8V57H54.7z"/>
				<path d="M59,60.4c0,0.2,0.1,0.3,0.1,0.5c0.1,0.1,0.2,0.3,0.3,0.4c0.1,0.1,0.2,0.2,0.4,0.2c0.2,0.1,0.3,0.1,0.5,0.1
					c0.2,0,0.3,0,0.5-0.1c0.2,0,0.3-0.1,0.4-0.2c0.1-0.1,0.2-0.2,0.3-0.3c0.1-0.1,0.1-0.3,0.1-0.5c0-0.1,0-0.3-0.1-0.4
					c-0.1-0.1-0.2-0.2-0.3-0.3c-0.1-0.1-0.3-0.1-0.4-0.2c-0.2-0.1-0.3-0.1-0.5-0.2c-0.2-0.1-0.4-0.1-0.6-0.2
					c-0.2-0.1-0.4-0.2-0.5-0.3c-0.2-0.1-0.3-0.2-0.4-0.4c-0.1-0.2-0.1-0.4-0.1-0.6c0-0.2,0-0.4,0.1-0.5c0.1-0.2,0.2-0.3,0.3-0.4
					c0.1-0.1,0.3-0.2,0.5-0.2c0.2-0.1,0.4-0.1,0.7-0.1c0.3,0,0.6,0,0.8,0.1c0.2,0.1,0.4,0.2,0.5,0.4c0.1,0.1,0.2,0.3,0.3,0.5
					c0.1,0.2,0.1,0.3,0.1,0.5h-0.5c0-0.2-0.1-0.3-0.1-0.4c-0.1-0.1-0.1-0.2-0.3-0.3c-0.1-0.1-0.2-0.1-0.4-0.2
					c-0.1,0-0.3-0.1-0.4-0.1c-0.1,0-0.3,0-0.4,0c-0.1,0-0.3,0.1-0.4,0.1c-0.1,0.1-0.2,0.1-0.3,0.2c-0.1,0.1-0.1,0.2-0.1,0.4
					c0,0.2,0,0.3,0.1,0.4c0.1,0.1,0.2,0.2,0.3,0.3c0.1,0.1,0.3,0.1,0.4,0.2c0.2,0.1,0.3,0.1,0.5,0.2c0.2,0.1,0.4,0.1,0.6,0.2
					c0.2,0.1,0.4,0.2,0.5,0.3c0.2,0.1,0.3,0.2,0.4,0.4c0.1,0.2,0.1,0.4,0.1,0.6c0,0.2,0,0.5-0.1,0.6c-0.1,0.2-0.2,0.3-0.4,0.5
					c-0.2,0.1-0.3,0.2-0.6,0.3c-0.2,0.1-0.5,0.1-0.7,0.1c-0.2,0-0.5,0-0.7-0.1c-0.2-0.1-0.4-0.2-0.6-0.3c-0.2-0.1-0.3-0.3-0.4-0.5
					c-0.1-0.2-0.2-0.4-0.2-0.7H59z"/>
				<path d="M62.8,57h1.9c0.2,0,0.5,0,0.6,0.1c0.2,0.1,0.3,0.2,0.5,0.3c0.1,0.1,0.2,0.3,0.3,0.4c0.1,0.2,0.1,0.3,0.1,0.5
					c0,0.2,0,0.4-0.1,0.5c-0.1,0.2-0.2,0.3-0.3,0.5s-0.3,0.2-0.5,0.3c-0.2,0.1-0.4,0.1-0.6,0.1h-1.3v2.1h-0.5V57z M63.3,59.4h1.3
					c0.1,0,0.2,0,0.4-0.1c0.1,0,0.2-0.1,0.3-0.2c0.1-0.1,0.2-0.2,0.2-0.3c0.1-0.1,0.1-0.2,0.1-0.4c0-0.1,0-0.3-0.1-0.4
					c-0.1-0.1-0.1-0.2-0.2-0.3c-0.1-0.1-0.2-0.1-0.3-0.2c-0.1,0-0.2-0.1-0.4-0.1h-1.3V59.4z"/>
			</g>
		</g>
		<g>
			<path d="M164.8,18.2h-1.6v-0.6h4v0.6h-1.7V23h-0.7V18.2z"/>
			<path d="M172.3,20.6c0-0.8-0.1-1.7-0.1-2.3h0c-0.2,0.6-0.4,1.3-0.7,2.1l-1,2.6h-0.5l-0.9-2.6c-0.3-0.8-0.5-1.5-0.6-2.1h0
				c0,0.7-0.1,1.6-0.1,2.4l-0.1,2.3h-0.7l0.4-5.4h0.9l0.9,2.6c0.2,0.7,0.4,1.3,0.5,1.8h0c0.1-0.5,0.3-1.1,0.6-1.8l1-2.6h0.9l0.3,5.4
				h-0.7L172.3,20.6z"/>
		</g>
	</g>
</g>
</svg>
