<?xml version="1.0" encoding="utf-8"?>
<!-- Generator: Adobe Illustrator 18.0.0, SVG Export Plug-In . SVG Version: 6.00 Build 0)  -->
<!DOCTYPE svg PUBLIC "-//W3C//DTD SVG 1.1//EN" "http://www.w3.org/Graphics/SVG/1.1/DTD/svg11.dtd">
<svg version="1.1" id="Layer_1" xmlns="http://www.w3.org/2000/svg" xmlns:xlink="http://www.w3.org/1999/xlink" x="0px" y="0px"
	 viewBox="0 0 360 216" enable-background="new 0 0 360 216" xml:space="preserve">
<rect fill="none" width="360" height="216"/>
<g>
	<path d="M325.7-86.3c-3.1,0-5.9-2.4-5.9-5.9c0-3.4,2.7-5.9,5.9-5.9c3.4,0,6,2.7,5.9,6C331.6-89,329.1-86.3,325.7-86.3z M325.7-97.7
		c-3.1,0-5.4,2.4-5.4,5.4c0,3,2.4,5.4,5.4,5.4c3,0,5.4-2.4,5.4-5.4C331.1-95.2,328.8-97.7,325.7-97.7z M325.6-96
		c0.9,0,1.3,0,1.7,0.2c0.7,0.3,1.1,1,1.1,1.7c0,1-0.7,1.6-1.7,1.8c0.8,0.3,1,0.7,1.2,1.6c0.2,1.1,0.2,1.5,0.5,2.1h-1.2
		c-0.2-0.3-0.2-0.7-0.3-1c0-0.2-0.2-1-0.2-1.2c-0.2-1.1-0.8-1.2-1.9-1.2h-0.5v3.4h-1.1V-96H325.6z M324.4-92.9h1.2
		c0.5,0,1.7,0,1.7-1.2c0-0.3-0.1-0.6-0.3-0.8c-0.3-0.3-0.7-0.3-1.6-0.3h-1V-92.9z"/>
</g>
<g>
	<g>
		<path d="M318.5,79.3h-1v-8.1h-2.9v-0.9h6.8v0.9h-2.9V79.3z"/>
		<path d="M326.7,79.3l-3.1-8h0c0.1,0.6,0.1,1.4,0.1,2.3v5.7h-1v-9h1.6l2.9,7.4h0l2.9-7.4h1.6v9h-1v-5.8c0-0.7,0-1.4,0.1-2.2h0
			l-3.1,8H326.7z"/>
	</g>
</g>
<g>
	<g>
		<g>
			<path fill="#2E3192" d="M99.5,76.1c0.7,0,1.5,0,2.2,0.1c0.7,0.1,1.4,0.2,2.1,0.5c1.2,0.4,2.3,0.9,3.3,1.6c1,0.7,1.9,1.5,2.7,2.4
				c0.7,0.9,1.2,1.9,1.5,3.1c0.4,1.1,0.5,2.3,0.5,3.4c0,0.5,0,1-0.1,1.5c-0.1,0.5-0.2,1-0.4,1.5c-0.4,1-0.9,1.9-1.6,2.7
				c-0.7,0.8-1.5,1.5-2.4,2.1c1,0.4,1.8,0.9,2.6,1.6c0.8,0.7,1.4,1.5,1.9,2.4c0.3,0.6,0.5,1.1,0.6,1.7c0.1,0.6,0.2,1.1,0.2,1.7
				c0,0.1,0,0.3,0,0.4c0,0.1,0,0.3-0.1,0.4v10.6h-5.5v-11.1c0-0.1,0-0.3,0-0.5c0-0.2,0-0.4-0.1-0.6c0-0.2-0.1-0.4-0.2-0.6
				c-0.1-0.2-0.1-0.4-0.2-0.6c-0.2-0.4-0.5-0.7-0.8-1s-0.7-0.6-1-0.8c-0.6-0.3-1.2-0.5-1.8-0.7c-0.6-0.1-1.3-0.2-1.9-0.2l-6.1-0.1
				V93h6c0.5,0,1-0.1,1.5-0.3c0.5-0.1,0.9-0.3,1.4-0.6c0.4-0.2,0.8-0.5,1.1-0.8s0.7-0.6,0.9-1c0.2-0.4,0.4-0.8,0.5-1.3
				c0.1-0.4,0.2-0.9,0.3-1.3c0-0.1,0-0.2,0-0.2s0-0.2,0-0.3c0-0.1,0.1-0.2,0.1-0.3c0-0.1,0-0.2,0-0.2c0-0.3,0-0.6-0.1-0.9
				c-0.1-0.3-0.1-0.6-0.2-0.9c-0.1-0.4-0.4-0.9-0.6-1.3c-0.3-0.4-0.6-0.8-0.9-1.1c-0.4-0.3-0.9-0.6-1.4-0.8c-0.5-0.2-1-0.4-1.5-0.5
				c-0.3-0.1-0.7-0.2-1-0.2c-0.4-0.1-0.7-0.1-1.1-0.1c-0.1,0-0.1,0-0.2,0c-0.1,0-0.1,0-0.2,0c-0.1,0-0.1,0-0.2,0c-0.1,0-0.1,0-0.2,0
				c-0.5,0-1,0.1-1.4,0.3c-0.5,0.1-0.9,0.4-1.3,0.6c-0.5,0.3-0.9,0.7-1.3,1.1c-0.4,0.4-0.8,0.9-1.1,1.3c-0.3,0.6-0.5,1.2-0.6,1.8
				c-0.1,0.6-0.2,1.3-0.1,1.9v25.9h-5.2V85.5c0.2-0.7,0.4-1.4,0.8-2.1c0.3-0.7,0.7-1.3,1.1-1.9c0.3-0.5,0.7-1,1.1-1.4
				c0.4-0.4,0.8-0.8,1.3-1.1c0.5-0.4,1-0.8,1.6-1.1c0.5-0.3,1.1-0.6,1.7-0.8c0.7-0.3,1.5-0.5,2.2-0.7C98,76.2,98.7,76.1,99.5,76.1
				L99.5,76.1z"/>
		</g>
		<g>
			<path fill="#2E3192" d="M130.8,87.9c0.1,0,0.3,0.1,0.5,0.1c0.2,0,0.3,0,0.5,0c0.9,0,1.8,0.2,2.8,0.4c0.9,0.3,1.8,0.6,2.6,1.1
				c0.5,0.2,0.9,0.4,1.3,0.7c0.4,0.3,0.8,0.6,1.2,1c1,0.9,1.7,1.9,2.3,3.1c0.6,1.2,1,2.4,1.1,3.7v15.8h-4.6V99.1
				c0-0.5-0.1-1.1-0.3-1.6c-0.2-0.6-0.4-1.1-0.7-1.6c-0.6-1-1.3-1.8-2.2-2.4c-0.9-0.6-1.9-1-3.1-1.2c-0.3-0.1-0.5-0.1-0.9-0.1
				s-0.6,0-0.9,0c-0.1,0-0.2,0-0.4,0c-0.1,0-0.2,0-0.4,0.1c-0.1,0-0.2,0-0.4,0c-0.1,0-0.3,0-0.4,0c-1.1,0-2.2,0.3-3.2,0.9
				c-1,0.5-1.8,1.3-2.4,2.3c-0.5,0.8-0.9,1.6-1.1,2.5c-0.3,0.9-0.4,1.8-0.4,2.8c0,0.1,0,0.2,0,0.4c0,0.1,0,0.3,0,0.4
				c0,0.1,0,0.3,0,0.4c0,0.1,0,0.3,0.1,0.4c0,0.6,0.1,1.1,0.3,1.6c0.1,0.5,0.4,1.1,0.6,1.6c0.3,0.5,0.6,0.9,0.9,1.4s0.7,0.8,1.1,1.2
				c0.4,0.4,0.9,0.7,1.3,0.9c0.5,0.3,1,0.5,1.5,0.6c0.4,0.1,0.8,0.3,1.3,0.3c0.4,0.1,0.9,0.1,1.3,0.1c0.1,0,0.1,0,0.2,0
				c0.1,0,0.1,0,0.1-0.1c0.1,0,0.1,0,0.2,0c0.1,0,0.1,0,0.1,0c0.5,0,1-0.1,1.5-0.3c0.5-0.1,0.9-0.4,1.4-0.6c0.5-0.3,0.9-0.6,1.4-1
				c0.4-0.4,0.8-0.8,1.1-1.3v5.3c-0.9,0.6-1.8,1.1-2.8,1.4c-1,0.3-2,0.5-3.1,0.6c-0.2,0-0.4,0.1-0.6,0.1c-0.2,0-0.4,0-0.6,0
				c-0.4,0-0.9-0.1-1.3-0.1c-0.4-0.1-0.8-0.1-1.3-0.2c-0.7-0.1-1.4-0.4-2-0.7c-0.6-0.3-1.3-0.7-1.9-1.2c-0.5-0.4-1-0.8-1.5-1.3
				s-0.9-1-1.3-1.5c-0.4-0.6-0.8-1.1-1.1-1.8c-0.3-0.6-0.6-1.2-0.8-1.9c-0.2-0.7-0.4-1.5-0.5-2.3c-0.1-0.8-0.2-1.5-0.2-2.3
				c0-0.7,0.1-1.4,0.2-2.1c0.1-0.7,0.3-1.4,0.4-2c0.2-0.7,0.5-1.4,0.8-2s0.7-1.3,1.1-1.9c0.4-0.5,0.8-1,1.3-1.4
				c0.5-0.4,1-0.9,1.5-1.2c0.5-0.4,1.1-0.8,1.7-1.1c0.6-0.3,1.2-0.5,1.9-0.7c0.8-0.2,1.6-0.4,2.4-0.5C129.1,88,130,87.9,130.8,87.9
				L130.8,87.9z"/>
		</g>
		<g>
			<path fill="#2E3192" d="M173.7,76.4v25.1c0,1.1-0.2,2.2-0.5,3.2c-0.3,1-0.7,2-1.2,3c-0.3,0.7-0.8,1.4-1.3,2.1
				c-0.5,0.6-1.1,1.2-1.7,1.8c-0.6,0.5-1.3,0.9-2,1.3c-0.7,0.4-1.5,0.7-2.3,0.9c-0.4,0-0.8,0.1-1.2,0.2c-0.4,0.1-0.8,0.2-1.3,0.2
				c-0.2,0-0.4,0-0.6,0c-0.2,0-0.4,0-0.6,0c-0.1,0-0.2,0-0.3,0c-0.1,0-0.2,0-0.3,0c-0.1,0-0.2,0-0.2,0c-0.1,0-0.2,0-0.3,0
				c-0.8,0-1.6-0.1-2.4-0.2c-0.8-0.1-1.6-0.4-2.3-0.7c-0.7-0.4-1.4-0.8-2-1.3c-0.7-0.5-1.2-1-1.8-1.6c-0.6-0.6-1.1-1.2-1.5-1.9
				c-0.5-0.7-0.9-1.4-1.2-2.1c-0.3-0.7-0.5-1.5-0.7-2.3c-0.2-0.8-0.3-1.6-0.3-2.4c0-1.6,0.2-3.2,0.7-4.8c0.5-1.6,1.2-3,2.1-4.3
				c1.1-1.3,2.3-2.3,3.7-3.1c1.4-0.8,2.9-1.4,4.5-1.6c1.5-0.1,2.9,0,4.4,0.3c1.4,0.3,2.8,0.8,4.1,1.4v4.6c-0.6-0.4-1.1-0.7-1.8-1
				c-0.6-0.3-1.2-0.6-1.9-0.8c-0.5-0.2-1-0.3-1.6-0.4c-0.5-0.1-1.1-0.1-1.6,0c-0.5,0-1,0.1-1.6,0.2c-0.5,0.1-1,0.3-1.5,0.5
				c-1,0.4-2,1-2.8,1.8c-0.8,0.8-1.4,1.7-1.8,2.8c-0.2,0.5-0.4,1.1-0.5,1.6c-0.1,0.6-0.1,1.1-0.1,1.7c0,0.6,0.1,1.1,0.2,1.6
				c0.1,0.5,0.3,1.1,0.4,1.6c0.3,1,0.8,1.9,1.4,2.8c0.6,0.9,1.4,1.6,2.2,2.3c0.5,0.3,1,0.5,1.5,0.6c0.5,0.2,1,0.3,1.6,0.4
				c0.2,0,0.4,0.1,0.7,0.1c0.2,0,0.4,0,0.7,0c0.3,0,0.6,0,0.9-0.1c0.3,0,0.6-0.1,0.9-0.1c0.5-0.1,1-0.3,1.5-0.6
				c0.5-0.2,1-0.5,1.4-0.9c0.9-0.6,1.6-1.3,2.2-2.2c0.6-0.9,1-1.8,1.2-2.9V76.4H173.7z"/>
		</g>
		<g>
			<path fill="#2E3192" d="M183.9,79.3c0.5,0,0.9,0.1,1.3,0.3c0.4,0.2,0.7,0.5,1,0.9c0.1,0.1,0.2,0.3,0.3,0.5
				c0.1,0.2,0.2,0.4,0.2,0.6c0,0.1,0,0.1,0,0.2c0,0.1,0,0.1,0,0.2c0,0,0,0.1,0,0.1c0,0.1,0,0.1,0,0.1c0,0.1,0,0.1,0,0.2
				c0,0,0,0.1,0,0.2c0,0.1,0,0.2,0,0.3c0,0.1,0,0.2,0,0.2c0,0.1-0.1,0.2-0.1,0.3s-0.1,0.2-0.1,0.3c-0.1,0.2-0.3,0.4-0.5,0.6
				c-0.2,0.2-0.4,0.4-0.6,0.5c-0.3,0.1-0.6,0.2-0.9,0.2c-0.3,0.1-0.7,0.1-1,0.1c-0.3,0-0.5-0.1-0.8-0.2c-0.2-0.1-0.5-0.2-0.7-0.4
				c-0.2-0.2-0.4-0.4-0.6-0.6c-0.2-0.2-0.3-0.5-0.4-0.8c0,0,0-0.1,0-0.1c0-0.1,0-0.1,0-0.1c0,0-0.1-0.1-0.1-0.1c0-0.1,0-0.1,0-0.1
				c0-0.5,0.1-1,0.3-1.4c0.2-0.4,0.5-0.9,0.8-1.2c0.2-0.1,0.4-0.2,0.6-0.3c0.2-0.1,0.4-0.1,0.6-0.1c0.1,0,0.1-0.1,0.2-0.1
				C183.8,79.3,183.9,79.3,183.9,79.3L183.9,79.3z M186.6,88.1v25.9h-4.9V88.1H186.6z"/>
		</g>
		<g>
			<path fill="#00AEEF" d="M199.9,81.4v6.7h9.5v4.3H200V107c0,0.1,0,0.2,0,0.2c0,0.1,0,0.1,0,0.2c0.1,0.3,0.2,0.6,0.3,0.8
				c0.1,0.3,0.3,0.5,0.5,0.7c0.3,0.2,0.6,0.4,1,0.5c0.4,0.1,0.8,0.2,1.1,0.2l6.2-0.1v4.2h-7.7c-0.5,0-1-0.1-1.4-0.3
				c-0.5-0.1-0.9-0.4-1.3-0.6c-0.5-0.3-0.9-0.6-1.4-0.9c-0.4-0.4-0.8-0.8-1.1-1.3c-0.3-0.4-0.5-0.8-0.6-1.3
				c-0.2-0.4-0.3-0.9-0.4-1.3c0-0.2-0.1-0.4-0.1-0.6c0-0.2,0-0.4,0-0.6c0-0.2-0.1-0.4-0.1-0.6c0-0.2,0-0.4,0-0.6V81.4H199.9z"/>
		</g>
		<g>
			<path fill="#00AEEF" d="M225.5,87.9V92c-0.6,0-1.1,0-1.7,0.1c-0.6,0.1-1.1,0.2-1.6,0.3c-0.5,0.1-0.9,0.3-1.4,0.6
				c-0.4,0.2-0.8,0.5-1.3,0.9c-0.4,0.4-0.7,0.8-1,1.2s-0.5,0.9-0.7,1.4c-0.1,0.6-0.3,1.2-0.3,1.8c-0.1,0.6-0.1,1.2-0.1,1.8v13.8
				h-4.7V88.1h4.4v3.2c0.3-0.4,0.6-0.7,1-1.1c0.4-0.4,0.8-0.7,1.2-0.9c0.4-0.3,0.9-0.5,1.3-0.7c0.5-0.2,1-0.3,1.4-0.4
				c0.4-0.1,0.7-0.1,1.1-0.2c0.4-0.1,0.7-0.1,1.1-0.1c0.1,0,0.2,0,0.3,0c0.1,0,0.2,0,0.3,0.1c0.1,0,0.2,0,0.3,0
				C225.3,87.9,225.4,88,225.5,87.9L225.5,87.9z"/>
		</g>
		<g>
			<path fill="#00AEEF" d="M239.4,87.6c0.3,0,0.6,0,0.9,0c0.3,0,0.6,0,0.9,0.1c0.6,0,1.2,0.1,1.8,0.2c0.6,0.1,1.2,0.2,1.8,0.4
				c0.9,0.3,1.7,0.6,2.5,1c0.8,0.4,1.6,0.9,2.3,1.5c0.8,0.7,1.5,1.5,2.1,2.3c0.6,0.8,1.1,1.7,1.6,2.7l-17,9.7l-2.2-3.8l12.4-7.2
				c-0.3-0.4-0.7-0.7-1.1-1.1c-0.4-0.3-0.8-0.6-1.4-0.9c-0.5-0.2-1.1-0.4-1.6-0.6c-0.6-0.1-1.2-0.2-1.8-0.3c-0.6,0-1.1,0-1.6,0.1
				c-0.5,0.1-1.1,0.2-1.6,0.4c-1.1,0.4-2.2,1-3,1.9c-0.9,0.9-1.5,1.9-1.8,3.1c-0.1,0.3-0.1,0.5-0.2,0.8c-0.1,0.3-0.1,0.5-0.1,0.8
				c0,0.3-0.1,0.5-0.1,0.8c0,0.3,0,0.5,0,0.8c0,0.9,0.2,1.7,0.4,2.5c0.2,0.8,0.6,1.6,1,2.3c0.4,0.7,0.9,1.4,1.5,2
				c0.6,0.6,1.3,1.1,2,1.6c0.6,0.3,1.3,0.6,2,0.7c0.7,0.1,1.4,0.2,2.1,0.2c0.4,0,0.8,0,1.2-0.1c0.4,0,0.8-0.1,1.1-0.2
				c0.5-0.2,1-0.4,1.5-0.7c0.5-0.3,0.9-0.5,1.4-0.8c0.5-0.3,0.9-0.7,1.3-1.1c0.4-0.4,0.7-0.9,0.9-1.4c0.2-0.6,0.4-1.1,0.5-1.7
				c0.1-0.6,0.2-1.2,0.2-1.8l4.7,0.9c-0.1,1-0.3,1.9-0.6,2.7c-0.3,0.9-0.7,1.7-1.2,2.4c-0.5,0.8-1,1.5-1.7,2.1
				c-0.6,0.6-1.3,1.2-2.1,1.8c-0.8,0.5-1.6,0.9-2.4,1.3c-0.8,0.3-1.7,0.6-2.6,0.7c-0.2,0-0.4,0.1-0.7,0.1c-0.2,0-0.4,0.1-0.7,0.1
				c-0.3,0-0.5,0-0.7,0c-0.2,0-0.4,0-0.7,0c-0.4,0-0.9,0-1.3-0.1c-0.4,0-0.9-0.1-1.3-0.2c-0.9-0.1-1.8-0.3-2.6-0.6
				c-0.9-0.4-1.7-0.8-2.4-1.3c-1.4-1.1-2.5-2.5-3.4-4c-0.9-1.5-1.6-3.2-2-4.9c0-0.3-0.1-0.6-0.1-0.9c0-0.3,0-0.5,0-0.8
				c0-0.2,0-0.4,0-0.6c0-0.2,0-0.4,0.1-0.6c0-0.4,0-0.8,0.1-1.3c0.1-0.4,0.1-0.8,0.2-1.2c0.2-0.9,0.4-1.8,0.8-2.6
				c0.3-0.8,0.7-1.6,1.2-2.4c0.5-0.7,1.1-1.4,1.8-2c0.7-0.6,1.4-1.1,2.3-1.6c0.8-0.4,1.7-0.8,2.5-1
				C237.6,87.8,238.5,87.7,239.4,87.6L239.4,87.6z"/>
		</g>
		<g>
			<path fill="#00AEEF" d="M268.3,87.9c0.1,0,0.3,0,0.4,0s0.3,0,0.4,0c0.1,0,0.3-0.1,0.4-0.1s0.3,0,0.4,0c0.5,0,1,0,1.6,0.1
				c0.5,0.1,1.1,0.2,1.6,0.3c0.6,0.1,1.2,0.3,1.7,0.5c0.5,0.2,1,0.5,1.5,0.9c1.1,0.7,2,1.7,2.8,2.7c0.8,1.1,1.3,2.3,1.6,3.6v17.9
				h-4.7V98.1c0-0.5-0.1-1-0.3-1.4c-0.2-0.5-0.4-0.9-0.6-1.4c-0.4-0.9-1-1.6-1.8-2.1c-0.8-0.6-1.6-0.9-2.6-1c-0.1,0-0.2,0-0.3,0
				c-0.1,0-0.2,0-0.3,0c-0.1,0-0.2-0.1-0.2-0.1c-0.1,0-0.2,0-0.3,0c-0.3,0-0.6,0-0.9,0.1c-0.3,0.1-0.6,0.1-0.9,0.3
				c-0.9,0.2-1.7,0.6-2.4,1.2c-0.7,0.6-1.2,1.3-1.5,2.2c-0.1,0.4-0.1,0.7-0.2,1.1c-0.1,0.4-0.1,0.7-0.2,1.1c0,0.4-0.1,0.7-0.1,1.1
				c0,0.4,0,0.7,0,1.1v13.6h-4.8V98.7c0-1.4,0.3-2.7,0.8-4c0.5-1.3,1.3-2.5,2.2-3.5c0.9-0.9,1.9-1.6,3-2.1
				C265.9,88.5,267.1,88.1,268.3,87.9L268.3,87.9z"/>
		</g>
		<g>
			<path fill="#00AEEF" d="M311.7,76.4v25.1c0,1.1-0.2,2.2-0.5,3.2c-0.3,1-0.7,2-1.2,3c-0.3,0.7-0.8,1.4-1.3,2.1s-1.1,1.2-1.7,1.8
				c-0.6,0.5-1.3,0.9-2,1.3c-0.7,0.4-1.5,0.7-2.3,0.9c-0.4,0-0.8,0.1-1.2,0.2c-0.4,0.1-0.8,0.2-1.3,0.2c-0.2,0-0.4,0-0.6,0
				c-0.2,0-0.4,0-0.6,0c-0.1,0-0.2,0-0.3,0c-0.1,0-0.2,0-0.3,0c-0.1,0-0.2,0-0.2,0c-0.1,0-0.2,0-0.3,0c-0.8,0-1.6-0.1-2.4-0.2
				c-0.8-0.1-1.6-0.4-2.3-0.7c-0.7-0.4-1.4-0.8-2-1.3c-0.7-0.5-1.2-1-1.8-1.6c-0.6-0.6-1.1-1.2-1.5-1.9c-0.5-0.7-0.9-1.4-1.2-2.1
				c-0.3-0.7-0.5-1.5-0.7-2.3c-0.2-0.8-0.3-1.6-0.3-2.4c0-1.6,0.2-3.2,0.7-4.8c0.5-1.6,1.2-3,2.1-4.3c1.1-1.3,2.3-2.3,3.7-3.1
				c1.4-0.8,2.9-1.4,4.5-1.6c1.5-0.1,2.9,0,4.4,0.3c1.4,0.3,2.8,0.8,4.1,1.4v4.6c-0.6-0.4-1.1-0.7-1.8-1s-1.2-0.6-1.9-0.8
				c-0.5-0.2-1-0.3-1.6-0.4c-0.5-0.1-1.1-0.1-1.6,0c-0.5,0-1,0.1-1.6,0.2c-0.5,0.1-1,0.3-1.5,0.5c-1,0.4-2,1-2.8,1.8
				c-0.8,0.8-1.4,1.7-1.8,2.8c-0.2,0.5-0.4,1.1-0.5,1.6c-0.1,0.6-0.1,1.1-0.1,1.7c0,0.6,0.1,1.1,0.2,1.6c0.1,0.5,0.3,1.1,0.4,1.6
				c0.3,1,0.8,1.9,1.4,2.8c0.6,0.9,1.4,1.6,2.2,2.3c0.5,0.3,1,0.5,1.5,0.6c0.5,0.2,1,0.3,1.6,0.4c0.2,0,0.4,0.1,0.7,0.1
				c0.2,0,0.4,0,0.7,0c0.3,0,0.6,0,0.9-0.1c0.3,0,0.6-0.1,0.9-0.1c0.5-0.1,1-0.3,1.5-0.6c0.5-0.2,1-0.5,1.4-0.9
				c0.9-0.6,1.6-1.3,2.2-2.2c0.6-0.9,1-1.8,1.2-2.9V76.4H311.7z"/>
		</g>
	</g>
	<g>
		<path fill="#CFD1D2" d="M61.8,132.5l-2-16.8l-2.1,5.1h-4c-2,0-3.3-1-4.6-2c-1.1-0.9-2.2-1.7-3.7-1.7c-1.5,0-2.7,0.7-4.1,1.6
			c-1.6,1-3.5,2.1-6.1,2.1h-3.3c-0.3,0-0.5-0.2-0.5-0.5s0.2-0.5,0.5-0.5h3.3c2.3,0,4-1,5.6-2c1.5-0.9,2.8-1.7,4.6-1.7
			c1.9,0,3.1,1,4.3,1.9c1.2,0.9,2.3,1.8,4,1.8H57l3.2-7.8l1.9,15.4l1.8-7.2l0.6,0.3c0.3,0.2,0.9,0.4,1.2,0.3
			c0.1-0.1,0.2-0.3,0.2-0.7c0-1.1,0.9-2.1,2.1-2.4c1.2-0.3,3.1,0,4.2,1.9h239.5c0.3,0,0.5,0.2,0.5,0.5s-0.2,0.5-0.5,0.5H71.7
			l-0.1-0.3c-0.9-1.6-2.3-2-3.3-1.7c-0.8,0.2-1.4,0.8-1.4,1.5c0,0.8-0.2,1.3-0.7,1.5c-0.5,0.3-1.1,0.1-1.6,0L61.8,132.5z"/>
	</g>
	<g>
		<path fill="#00AEEF" d="M67.3,146.8l-1.1-0.5c-1.1-0.5-28.2-13.2-34.7-24.9c-2.7-4.9-3.2-9.4-1.4-13.4c2.3-5.2,7.9-8.2,12-9.2
			C53.8,96,60,107.6,60,107.7c0.3,0.6,0.1,1.4-0.5,1.7c-0.6,0.3-1.4,0.1-1.7-0.5c-0.2-0.4-5.4-10-15-7.6c-2.9,0.7-8.3,3.1-10.3,7.8
			c-1.4,3.2-1,7,1.3,11.1c5.3,9.7,27.2,20.8,32.4,23.3c2.8-5.4,14.8-29.6,15.4-38.4c0.5-6.5-2.2-11.7-7.1-13.8
			c-4.9-2.1-10.7-0.7-14.5,3.4c-0.5,0.5-1.3,0.5-1.8,0.1c-0.5-0.5-0.5-1.3-0.1-1.8c4.6-5,11.6-6.6,17.4-4.1c6,2.6,9.2,8.7,8.6,16.3
			c-0.8,10.4-15.6,39.2-16.3,40.5L67.3,146.8z"/>
	</g>
</g>
</svg>
