<?xml version="1.0" encoding="utf-8"?>
<!-- Generator: Adobe Illustrator 18.0.0, SVG Export Plug-In . SVG Version: 6.00 Build 0)  -->
<!DOCTYPE svg PUBLIC "-//W3C//DTD SVG 1.1//EN" "http://www.w3.org/Graphics/SVG/1.1/DTD/svg11.dtd">
<svg version="1.1" id="Layer_1" xmlns="http://www.w3.org/2000/svg" xmlns:xlink="http://www.w3.org/1999/xlink" x="0px" y="0px"
	 viewBox="0 0 360 216" enable-background="new 0 0 360 216" xml:space="preserve">
<rect fill="none" width="360" height="216"/>
<g>
	<path d="M325.7,55.6c-3.1,0-5.9-2.4-5.9-5.9c0-3.4,2.7-5.9,5.9-5.9c3.4,0,6,2.7,5.9,6C331.6,53,329.1,55.6,325.7,55.6z M325.7,44.3
		c-3.1,0-5.4,2.4-5.4,5.4c0,3,2.4,5.4,5.4,5.4c3,0,5.4-2.4,5.4-5.4C331.1,46.8,328.8,44.3,325.7,44.3z M325.6,46
		c0.9,0,1.3,0,1.7,0.2c0.7,0.3,1.1,1,1.1,1.7c0,1-0.7,1.6-1.7,1.8c0.8,0.3,1,0.7,1.2,1.6c0.2,1.1,0.2,1.5,0.5,2.1h-1.2
		c-0.2-0.3-0.2-0.7-0.3-1c0-0.2-0.2-1-0.2-1.2c-0.2-1.1-0.8-1.2-1.9-1.2h-0.5v3.4h-1.1V46H325.6z M324.4,49.1h1.2
		c0.5,0,1.7,0,1.7-1.2c0-0.3-0.1-0.6-0.3-0.8c-0.3-0.3-0.7-0.3-1.6-0.3h-1V49.1z"/>
</g>
<g>
	<g>
		<path d="M485.3,66.5h-0.9v-6.8H482v-0.8h5.7v0.8h-2.4V66.5z"/>
		<path d="M492.1,66.5l-2.6-6.7h0c0,0.5,0.1,1.2,0.1,1.9v4.8h-0.8v-7.6h1.3l2.4,6.2h0l2.4-6.2h1.3v7.6h-0.9v-4.9
			c0-0.6,0-1.2,0.1-1.8h0l-2.6,6.7H492.1z"/>
	</g>
</g>
<g>
	<g>
		<path fill="#712B90" d="M263.4,92.4v-5.1h-10.9l1.4,2.6v53l-2.2,3H265l-1.6-3v-41.6c0,0,3.2-5,4.4-6.1c6.1-5.4,11-1.9,13.6-0.6
			v-6.1C270,82.1,263.4,92.4,263.4,92.4z"/>
		<polygon fill="#712B90" points="297.2,87.3 284.5,87.3 286,89.8 286,142.9 283.8,145.8 297.1,145.8 295.4,142.9 295.4,89.8 		"/>
		<polygon fill="#712B90" points="315.2,54.2 317,51.7 304.3,51.7 305.7,54.2 305.7,142.9 303.6,145.8 316.9,145.8 315.2,142.9 		
			"/>
		<path fill="#712B90" d="M238.2,140.1c-1.9-1-2.7-2.7-2.7-5.9c0-3.2,0-40.4,0-40.4h10.2l1.7-6.5h-11.8V70L225,75.8v11.5h-6.5
			l-1.9,6.5h8.5v36.9c-0.1,4.3,1,14.1,9.3,16.6c3.7,1.1,13.6,1.5,16.8-5.9l-1.8-2.7C247.7,140.6,242.5,142.6,238.2,140.1z"/>
		<path fill="#712B90" d="M133.7,166.8c0,0,30-75.7,32-79.6h-11.2l1.2,2c0,0-19.4,50.4-21,53.9c0,0-20.9-51.7-22.9-54.3l1.3-1.7
			H91.2l1.5,1.7v53h-2.1c0,0-30-43.5-32.9-47.3c7-1.9,12-4,13.7-5.1c13.4-8.3,9.5-23.4,8.6-25.9c-5-13.8-20.7-14.1-23.2-14.5h-28
			l1.9,3.1V141l-2.3,3.1h14.9V91.7c0,0,33.9,49.9,36.2,53.4c0,0,20.7,0,25.5,0l-1.7-2.9c0,0,0-44.1,0-49.2
			C103.2,93,131.2,161.7,133.7,166.8z M43.2,86.6V55h11.2c12.9,0,15.4,11.5,15.6,13.7c1.2,13.9-8,17.1-11.1,18.2
			C55.1,88.3,45.5,88.6,43.2,86.6z"/>
		<path fill="#712B90" d="M97.4,78.7c4,0,7.2-3.2,7.2-7.2c0-4-3.2-7.2-7.2-7.2c-4,0-7.2,3.2-7.2,7.2C90.2,75.4,93.4,78.7,97.4,78.7z
			"/>
		<path fill="#712B90" d="M290.1,64.2c-4,0-7.2,3.2-7.2,7.2c0,4,3.2,7.2,7.2,7.2c4,0,7.2-3.2,7.2-7.2
			C297.3,67.5,294,64.2,290.1,64.2z"/>
		<path fill="#712B90" d="M190.2,84.3c-16.8,0-30.4,14.7-30.4,32.9c0,18.2,13.6,32.9,30.4,32.9c16.8,0,30.4-14.7,30.4-32.9
			C220.6,99.1,207,84.3,190.2,84.3z M190.2,141.9c-11.6,0-21-11-21-24.7c0-13.6,9.4-24.7,21-24.7c11.6,0,21,11.1,21,24.7
			C211.2,130.9,201.8,141.9,190.2,141.9z"/>
	</g>
</g>
</svg>
