<?xml version="1.0" encoding="utf-8"?>
<!-- Generator: Adobe Illustrator 18.0.0, SVG Export Plug-In . SVG Version: 6.00 Build 0)  -->
<!DOCTYPE svg PUBLIC "-//W3C//DTD SVG 1.1//EN" "http://www.w3.org/Graphics/SVG/1.1/DTD/svg11.dtd">
<svg version="1.1" id="Layer_1" xmlns="http://www.w3.org/2000/svg" xmlns:xlink="http://www.w3.org/1999/xlink" x="0px" y="0px"
	 viewBox="0 0 360 216" enable-background="new 0 0 360 216" xml:space="preserve">
<rect fill="none" width="360" height="216"/>
<g>
	<path d="M298.1,132.8c-2.3,0-4.5-1.8-4.5-4.5c0-2.6,2.1-4.5,4.5-4.5c2.6,0,4.5,2.1,4.5,4.5C302.6,130.8,300.7,132.8,298.1,132.8z
		 M298.1,124.2c-2.3,0-4.1,1.9-4.1,4.1c0,2.3,1.9,4.1,4.1,4.1c2.3,0,4.1-1.8,4.1-4.1C302.2,126.1,300.5,124.2,298.1,124.2z
		 M298,125.5c0.7,0,1,0,1.3,0.1c0.6,0.2,0.9,0.7,0.9,1.3c0,0.8-0.6,1.2-1.3,1.4c0.6,0.2,0.8,0.6,0.9,1.2c0.1,0.8,0.2,1.1,0.4,1.6h-1
		c-0.1-0.3-0.2-0.5-0.2-0.8c0-0.1-0.1-0.8-0.1-0.9c-0.2-0.8-0.6-0.9-1.4-1h-0.4v2.6h-0.8v-5.7H298z M297.1,127.8h1
		c0.4,0,1.3,0,1.3-0.9c0-0.3-0.1-0.5-0.3-0.6c-0.2-0.2-0.5-0.2-1.2-0.2h-0.8V127.8z"/>
</g>
<g>
	<g>
		<path d="M318.5-37.7h-1v-8.1h-2.9v-0.9h6.8v0.9h-2.9V-37.7z"/>
		<path d="M326.7-37.7l-3.1-8h0c0.1,0.6,0.1,1.4,0.1,2.3v5.7h-1v-9h1.6l2.9,7.4h0l2.9-7.4h1.6v9h-1v-5.8c0-0.7,0-1.4,0.1-2.2h0
			l-3.1,8H326.7z"/>
	</g>
</g>
<g>
	<g>
		<g>
			<g>
				<g>
					<path fill="#C32126" d="M238.7,95.4V87h-8.3v46.8h8.3c0,0-0.1-29.3,0-29.8c2.1-7.2,9.2-5.2,9.3-5.1c0.1,0.1,0-12.2-0.2-12.2
						C243.4,85.1,238.7,95.4,238.7,95.4z"/>
					<path fill="#C32126" d="M225.9,126.7c-4.1-0.5-3.5-4-3.5-4V94.5h3.5c0,0,0.1-7.6,0-7.6h-3.5V71.3h-8.7V87h-3.4v7.6h3.4v34
						c0,6.3,12.2,5.3,12.2,5.3V126.7z"/>
					<rect x="197.8" y="71.3" fill="#C32126" width="9.1" height="62.5"/>
					<path fill="#C32126" d="M185.6,86.5c-7.2-2.5-13,0.1-13.7,0.4c-7.4,3.4-6.2,13-6.2,13h8.1c0,0,0.2-2.1,0.3-2.7
						c0.6-3.1,2.4-3.4,3-3.6c5.5-1.5,6.3,1.6,6.4,2.1c1.1,5.1-1,6.3-1.4,6.6c-2.2,1.8-6.5,3.3-7,3.6c-6.8,4.2-8.6,8-8.8,8.6
						c-1.2,3.6-0.6,7.2-0.7,7.9c-0.4,4.2,0.9,7.9,1.3,8.3c4.1,4.7,7.3,4.3,8.1,4.4c6.5,1,7.9-5.2,7.9-5.2h1.6v3.9h7.7
						c0,0,0-37.2,0-38C192.1,88.9,186.3,86.8,185.6,86.5z M183.3,123.9c0,0-0.5,2.9-4.3,3.1c-0.9,0.1-3.1,0.7-4.2-1.2
						c-0.3-0.5-1-0.9-0.3-8.6c0.1-0.6,8-8.3,8-8.3l0.9,0.1V123.9z"/>
					<path fill="#C32126" d="M100.4,115.5c-0.2-16.4-8.3-13.5-6.8-14.1c9.3-4.2,7-15.4,7-17c0-11.1-11.3-13.4-12.5-13.1H67.4v62.5
						h9.1v-26.9c0,0,5-0.1,6.2-0.2c8.1-0.5,7.8,4.4,7.8,5.6c0,1.1,1.4,21.5,1.4,21.5h9.8C99.7,123.6,100.5,116.8,100.4,115.5z
						 M91.2,89c0,2.2,0,8.3-4.6,8.2H76.5v-17h9C85.5,80.2,91.4,79.2,91.2,89z"/>
					<path fill="#C32126" d="M153.2,115.7l-0.3,8.7c-0.2,1.4-1.4,3.9-5.6,2c-0.9-0.4-1.5-3.1-1.4-5.9V97.2c0.2-1.1,0.3-4.3,3.5-4
						c1.1,0.1,3.2-0.2,3.3,2.5c0.1,1,0.5,7.2,0.5,7.2h8.3c0,0,0.2-9.4-1.3-11.3c-0.6-0.9-3.5-7.8-15.1-5.7
						c-1.1,0.2-7.8,3.5-7.5,13.3c0,1,0,24.5,0,25.7c0,1.3,1.4,10.1,11.2,9.9c4.3-0.1,8.6,0.9,11.8-5.6c0.9-1.9,0.6-13.6,0.6-13.6
						H153.2z"/>
					<path fill="#C32126" d="M264.2,85c-13.7,1.1-13.4,13.5-13.4,13.5v24.9c1.9,13.7,14.2,12,15.3,11.9c10.2-0.5,11-9.4,11.1-11.9
						V95.7C276,85.9,265.4,84.9,264.2,85z M268.8,123.7c-0.2,3.6-3.7,4-4.8,3.8c-4-0.6-4.9-3.8-4.9-4.6c0-0.8,0.2-25.4,0.2-25.4
						c0.6-3.7,3.4-4.1,4.3-4.1c5.1-0.3,5.3,3,5.3,4C268.8,98.3,268.8,122.3,268.8,123.7z"/>
					<path fill="#C32126" d="M119,85c-13.7,1.1-13.4,13.5-13.4,13.5v24.9c1.9,13.7,14.2,12,15.3,11.9c10.2-0.5,11-9.4,11.1-11.9
						V95.7C130.9,85.9,120.3,84.9,119,85z M123.6,123.7c-0.2,3.6-3.7,4-4.8,3.8c-4-0.6-4.9-3.8-4.9-4.6c0-0.8,0.1-25.4,0.1-25.4
						c0.6-3.7,3.4-4.1,4.3-4.1c5.1-0.3,5.2,3,5.2,4C123.6,98.3,123.7,122.3,123.6,123.7z"/>
					<rect x="282.4" y="71.3" fill="#C32126" width="8.4" height="62.5"/>
				</g>
				<rect x="66.7" y="137.8" width="224.8" height="15.9"/>
				<path fill="#FFFFFF" d="M79.7,144.4H77c-0.1-0.2-0.2-0.4-0.4-0.6c-0.2-0.1-0.4-0.2-0.8-0.2c-0.3,0-0.6,0.1-0.8,0.2
					c-0.1,0.1-0.2,0.2-0.2,0.4c0,0.1,0,0.2,0.1,0.3c0.1,0.1,0.5,0.2,1,0.4l1.1,0.3c1,0.2,1.8,0.6,2.2,1.1c0.4,0.5,0.6,1,0.6,1.6
					c0,0.5-0.1,0.9-0.3,1.3c-0.2,0.4-0.5,0.7-0.8,0.9c-0.3,0.2-0.7,0.4-1.2,0.5c-0.5,0.1-1,0.2-1.6,0.2c-0.6,0-1.2-0.1-1.7-0.2
					c-0.5-0.2-1-0.4-1.3-0.7c-0.3-0.3-0.6-0.6-0.8-1c-0.1-0.3-0.2-0.6-0.3-1h2.8c0.1,0.3,0.2,0.5,0.4,0.6c0.2,0.1,0.5,0.2,1,0.2
					c0.4,0,0.7-0.1,0.8-0.2c0.1-0.1,0.2-0.2,0.2-0.4c0-0.2-0.1-0.3-0.2-0.4c-0.1-0.1-0.4-0.2-0.9-0.3l-1-0.3c-0.5-0.1-1-0.3-1.5-0.5
					c-0.5-0.2-0.8-0.5-1-0.9c-0.2-0.3-0.3-0.8-0.3-1.3c0-0.5,0.1-0.9,0.3-1.3c0.2-0.4,0.5-0.7,0.8-0.9c0.4-0.2,0.8-0.4,1.2-0.5
					c0.4-0.1,0.9-0.2,1.3-0.2c0.5,0,1,0.1,1.5,0.2c0.5,0.1,0.8,0.3,1.1,0.4c0.3,0.2,0.5,0.4,0.6,0.6c0.2,0.2,0.3,0.5,0.4,0.7
					C79.6,143.9,79.7,144.1,79.7,144.4z"/>
				<path fill="#FFFFFF" d="M80.9,141.9h8v2.3h-2.6v6.5h-2.9v-6.5h-2.6V141.9z"/>
				<path fill="#FFFFFF" d="M95,147.7h-1.8l0.9-3.2L95,147.7z M92.3,150.7l0.3-1.2h2.9l0.3,1.2h2.9l-3.1-8.7h-2.9l-3.1,8.7H92.3z"/>
				<path fill="#FFFFFF" d="M99.9,150.7v-8.7h2.7l3,4.7v-4.7h2.8v8.7h-2.7l-2.9-4.6v4.6H99.9z"/>
				<path fill="#FFFFFF" d="M112.9,144.1h0.7c0.5,0,0.9,0.1,1.2,0.2c0.2,0.1,0.3,0.2,0.5,0.4c0.1,0.2,0.2,0.4,0.3,0.7
					c0.1,0.3,0.1,0.6,0.1,0.9c0,0.5-0.1,0.9-0.2,1.3c-0.1,0.4-0.4,0.6-0.6,0.7c-0.3,0.2-0.7,0.2-1.2,0.2h-0.7V144.1z M114,150.7
					c0.7,0,1.2-0.1,1.7-0.2c0.5-0.1,0.8-0.3,1.1-0.5c0.3-0.2,0.5-0.5,0.8-0.8c0.2-0.3,0.5-0.8,0.6-1.3c0.2-0.5,0.3-1.1,0.3-1.7
					c0-1-0.2-1.8-0.6-2.5c-0.4-0.7-0.9-1.1-1.5-1.4c-0.7-0.3-1.4-0.4-2.3-0.4h-4v8.7H114z"/>
				<path fill="#FFFFFF" d="M127,144.4h-2.7c-0.1-0.2-0.2-0.4-0.4-0.6c-0.2-0.1-0.4-0.2-0.8-0.2c-0.3,0-0.6,0.1-0.7,0.2
					c-0.1,0.1-0.2,0.2-0.2,0.4c0,0.1,0,0.2,0.1,0.3c0.1,0.1,0.5,0.2,1,0.4l1.1,0.3c1,0.2,1.8,0.6,2.2,1.1c0.4,0.5,0.6,1,0.6,1.6
					c0,0.5-0.1,0.9-0.3,1.3c-0.2,0.4-0.5,0.7-0.8,0.9c-0.3,0.2-0.7,0.4-1.2,0.5c-0.5,0.1-1,0.2-1.6,0.2c-0.6,0-1.2-0.1-1.7-0.2
					c-0.5-0.2-1-0.4-1.3-0.7c-0.3-0.3-0.6-0.6-0.8-1c-0.1-0.3-0.2-0.6-0.3-1h2.8c0.1,0.3,0.2,0.5,0.4,0.6c0.2,0.1,0.5,0.2,1,0.2
					c0.4,0,0.7-0.1,0.8-0.2c0.1-0.1,0.2-0.2,0.2-0.4c0-0.2,0-0.3-0.2-0.4c-0.1-0.1-0.4-0.2-0.9-0.3l-1-0.3c-0.5-0.1-1-0.3-1.5-0.5
					c-0.5-0.2-0.8-0.5-1-0.9c-0.2-0.3-0.4-0.8-0.4-1.3c0-0.5,0.1-0.9,0.3-1.3c0.2-0.4,0.5-0.7,0.8-0.9c0.4-0.2,0.7-0.4,1.2-0.5
					c0.4-0.1,0.9-0.2,1.3-0.2c0.5,0,1,0.1,1.5,0.2c0.5,0.1,0.8,0.3,1.1,0.4c0.3,0.2,0.5,0.4,0.7,0.6c0.2,0.2,0.3,0.5,0.4,0.7
					C126.9,143.9,127,144.1,127,144.4z"/>
				<path fill="#FFFFFF" d="M132.8,141.9h2.9v5.4c0,0.4,0,0.6,0.1,0.8c0.1,0.2,0.2,0.3,0.5,0.4c0.2,0.1,0.5,0.2,0.8,0.2
					c0.4,0,0.7-0.1,1-0.3c0.2-0.2,0.4-0.6,0.4-1.1v-5.4h2.9v5.1c0,0.6,0,1.1-0.1,1.5c-0.1,0.4-0.3,0.7-0.5,1
					c-0.2,0.3-0.5,0.5-0.8,0.7c-0.3,0.2-0.7,0.4-1.2,0.5c-0.5,0.1-0.9,0.2-1.5,0.2c-0.6,0-1.2-0.1-1.6-0.2c-0.4-0.1-0.8-0.3-1.2-0.5
					c-0.3-0.2-0.6-0.5-0.8-0.7c-0.2-0.3-0.4-0.7-0.5-1.1c-0.1-0.3-0.1-0.8-0.1-1.4V141.9z"/>
				<path fill="#FFFFFF" d="M142.9,150.7v-8.7h3.6c0.8,0,1.5,0,1.9,0.1c0.4,0.1,0.8,0.2,1,0.3c0.3,0.1,0.5,0.3,0.8,0.6
					c0.2,0.3,0.4,0.5,0.5,0.9c0.1,0.3,0.2,0.7,0.2,1.1c0,0.4-0.1,0.9-0.2,1.2c-0.1,0.4-0.3,0.6-0.5,0.9c-0.2,0.2-0.4,0.4-0.6,0.5
					c-0.1,0.1-0.4,0.2-0.7,0.3c-0.5,0.1-1,0.2-1.5,0.2h-1.6v2.7H142.9z M145.7,144v1.8h1c0.4,0,0.7,0,0.9-0.1c0.2,0,0.3-0.2,0.4-0.3
					c0.1-0.2,0.2-0.3,0.2-0.6c0-0.3-0.1-0.6-0.4-0.7c-0.2-0.1-0.6-0.2-1.2-0.2H145.7z"/>
				<path fill="#FFFFFF" d="M155.7,141.9h8v2.3h-2.6v6.5h-2.9v-6.5h-2.6V141.9z"/>
				<path fill="#FFFFFF" d="M168.1,148.2c-0.4-0.5-0.6-1.1-0.6-1.9c0-0.5,0.1-1,0.2-1.4c0.2-0.4,0.4-0.7,0.7-0.8
					c0.3-0.2,0.6-0.3,0.9-0.3c0.3,0,0.5,0.1,0.8,0.2c0.2,0.1,0.4,0.3,0.5,0.5c0.1,0.2,0.2,0.4,0.3,0.7c0.1,0.3,0.1,0.7,0.1,1.1
					c0,0.5-0.1,1-0.2,1.4c-0.2,0.4-0.4,0.6-0.7,0.8c-0.3,0.2-0.6,0.2-0.9,0.2C168.7,148.7,168.4,148.6,168.1,148.2z M171.8,150.2
					c0.7-0.4,1.2-1,1.5-1.7c0.3-0.7,0.5-1.5,0.5-2.4c0-0.9-0.2-1.7-0.6-2.4c-0.4-0.7-0.9-1.2-1.7-1.6c-0.7-0.4-1.5-0.5-2.4-0.5
					c-0.4,0-0.9,0.1-1.3,0.2c-0.4,0.1-0.8,0.3-1.1,0.5c-0.4,0.2-0.7,0.5-1,0.8c-0.3,0.4-0.6,0.8-0.8,1.4c-0.2,0.5-0.3,1.1-0.3,1.8
					c0,1.4,0.4,2.5,1.3,3.4c0.8,0.8,1.9,1.3,3.3,1.3C170.3,150.9,171.1,150.7,171.8,150.2z"/>
				<path fill="#FFFFFF" d="M183.7,150.9c-1.4,0-2.5-0.4-3.3-1.3c-0.8-0.8-1.3-2-1.3-3.4c0-0.7,0.1-1.3,0.3-1.8
					c0.2-0.5,0.5-1,0.8-1.4c0.3-0.4,0.7-0.6,1-0.8c0.4-0.2,0.7-0.3,1.2-0.5c0.4-0.1,0.9-0.2,1.3-0.2c0.9,0,1.6,0.2,2.4,0.5
					c0.7,0.4,1.3,0.9,1.7,1.6c0.4,0.7,0.6,1.5,0.6,2.4c0,0.9-0.2,1.7-0.5,2.4c-0.3,0.7-0.9,1.3-1.5,1.7
					C185.5,150.7,184.7,150.9,183.7,150.9z M183.6,148.7c0.3,0,0.6-0.1,0.9-0.2c0.3-0.2,0.5-0.4,0.7-0.8c0.2-0.4,0.2-0.8,0.2-1.4
					c0-0.4,0-0.8-0.1-1.1c-0.1-0.3-0.2-0.6-0.3-0.7c-0.1-0.2-0.3-0.4-0.5-0.5c-0.2-0.1-0.5-0.2-0.8-0.2c-0.3,0-0.6,0.1-0.9,0.3
					c-0.3,0.2-0.5,0.5-0.6,0.8c-0.2,0.4-0.3,0.8-0.3,1.4c0,0.8,0.2,1.5,0.6,1.9C182.8,148.6,183.1,148.7,183.6,148.7z"/>
				<path fill="#FFFFFF" d="M197,144.4h-2.7c-0.1-0.2-0.2-0.4-0.4-0.6c-0.2-0.1-0.4-0.2-0.8-0.2c-0.3,0-0.6,0.1-0.7,0.2
					c-0.1,0.1-0.2,0.2-0.2,0.4c0,0.1,0,0.2,0.1,0.3c0.1,0.1,0.5,0.2,1,0.4l1.1,0.3c1,0.2,1.8,0.6,2.2,1.1c0.4,0.5,0.6,1,0.6,1.6
					c0,0.5-0.1,0.9-0.3,1.3c-0.2,0.4-0.5,0.7-0.8,0.9c-0.3,0.2-0.7,0.4-1.2,0.5c-0.5,0.1-1,0.2-1.6,0.2c-0.6,0-1.2-0.1-1.7-0.2
					c-0.5-0.2-1-0.4-1.3-0.7c-0.3-0.3-0.6-0.6-0.8-1c-0.1-0.3-0.2-0.6-0.2-1h2.7c0.1,0.3,0.2,0.5,0.4,0.6c0.2,0.1,0.5,0.2,1,0.2
					c0.4,0,0.7-0.1,0.8-0.2c0.1-0.1,0.2-0.2,0.2-0.4c0-0.2-0.1-0.3-0.2-0.4c-0.1-0.1-0.4-0.2-0.9-0.3l-1-0.3c-0.5-0.1-1-0.3-1.5-0.5
					c-0.5-0.2-0.8-0.5-1-0.9c-0.2-0.3-0.3-0.8-0.3-1.3c0-0.5,0.1-0.9,0.3-1.3c0.2-0.4,0.5-0.7,0.8-0.9c0.3-0.2,0.7-0.4,1.2-0.5
					c0.4-0.1,0.9-0.2,1.3-0.2c0.5,0,1,0.1,1.5,0.2c0.5,0.1,0.8,0.3,1.1,0.4c0.3,0.2,0.5,0.4,0.7,0.6c0.2,0.2,0.3,0.5,0.4,0.7
					C196.9,143.9,197,144.1,197,144.4z"/>
				<path fill="#FFFFFF" d="M198.2,141.9h8v2.3h-2.6v6.5h-2.9v-6.5h-2.6V141.9z"/>
				<path fill="#FFFFFF" d="M207.6,150.7v-8.7h7.1v2.1h-4.3v1.2h3.7v2h-3.7v1.4h4.5v2.1H207.6z"/>
				<path fill="#FFFFFF" d="M219.5,148.2c-0.4-0.5-0.6-1.1-0.6-1.9c0-0.5,0.1-1,0.2-1.4c0.2-0.4,0.4-0.7,0.7-0.8
					c0.3-0.2,0.6-0.3,0.9-0.3c0.3,0,0.5,0.1,0.7,0.2c0.2,0.1,0.4,0.3,0.5,0.5c0.1,0.2,0.2,0.4,0.3,0.7c0.1,0.3,0.1,0.7,0.1,1.1
					c0,0.5-0.1,1-0.2,1.4c-0.2,0.4-0.4,0.6-0.6,0.8c-0.3,0.2-0.6,0.2-0.9,0.2C220.2,148.7,219.8,148.6,219.5,148.2z M223.2,150.2
					c0.7-0.4,1.2-1,1.5-1.7c0.3-0.7,0.5-1.5,0.5-2.4c0-0.9-0.2-1.7-0.6-2.4c-0.4-0.7-0.9-1.2-1.7-1.6c-0.7-0.4-1.5-0.5-2.4-0.5
					c-0.5,0-0.9,0.1-1.3,0.2c-0.4,0.1-0.8,0.3-1.2,0.5c-0.3,0.2-0.7,0.5-1,0.8c-0.3,0.4-0.6,0.8-0.8,1.4c-0.2,0.5-0.3,1.1-0.3,1.8
					c0,1.4,0.4,2.5,1.3,3.4c0.8,0.8,2,1.3,3.4,1.3C221.7,150.9,222.5,150.7,223.2,150.2z"/>
				<path fill="#FFFFFF" d="M226.6,150.7v-8.7h3.6c0.8,0,1.5,0,1.9,0.1c0.4,0.1,0.8,0.2,1.1,0.3c0.3,0.1,0.5,0.3,0.8,0.6
					c0.2,0.3,0.4,0.5,0.5,0.9c0.1,0.3,0.2,0.7,0.2,1.1c0,0.4-0.1,0.9-0.2,1.2c-0.1,0.4-0.3,0.6-0.5,0.9c-0.2,0.2-0.4,0.4-0.6,0.5
					c-0.2,0.1-0.4,0.2-0.7,0.3c-0.5,0.1-1,0.2-1.5,0.2h-1.6v2.7H226.6z M229.3,144v1.8h1c0.4,0,0.7,0,0.9-0.1c0.2,0,0.3-0.2,0.4-0.3
					c0.1-0.2,0.2-0.3,0.2-0.6c0-0.3-0.1-0.6-0.4-0.7c-0.2-0.1-0.6-0.2-1.2-0.2H229.3z"/>
				<path fill="#FFFFFF" d="M239.9,150.9c-1.4,0-2.5-0.4-3.3-1.3c-0.8-0.8-1.3-2-1.3-3.4c0-0.7,0.1-1.3,0.3-1.8
					c0.2-0.5,0.5-1,0.8-1.4c0.3-0.4,0.7-0.6,1-0.8c0.4-0.2,0.7-0.3,1.2-0.5c0.4-0.1,0.8-0.2,1.3-0.2c0.9,0,1.7,0.2,2.4,0.5
					c0.7,0.4,1.3,0.9,1.7,1.6c0.4,0.7,0.6,1.5,0.6,2.4c0,0.9-0.2,1.7-0.5,2.4c-0.4,0.7-0.9,1.3-1.5,1.7
					C241.7,150.7,240.9,150.9,239.9,150.9z M239.9,148.7c0.3,0,0.6-0.1,0.9-0.2c0.3-0.2,0.5-0.4,0.6-0.8c0.2-0.4,0.2-0.8,0.2-1.4
					c0-0.4,0-0.8-0.1-1.1c-0.1-0.3-0.2-0.6-0.3-0.7c-0.1-0.2-0.3-0.4-0.5-0.5c-0.2-0.1-0.5-0.2-0.8-0.2c-0.3,0-0.6,0.1-0.9,0.3
					c-0.3,0.2-0.5,0.5-0.7,0.8c-0.2,0.4-0.2,0.8-0.2,1.4c0,0.8,0.2,1.5,0.6,1.9C239,148.6,239.4,148.7,239.9,148.7z"/>
				<path fill="#FFFFFF" d="M245.9,150.7v-8.7h4.3c0.6,0,1.1,0,1.5,0.1c0.4,0.1,0.7,0.2,1,0.3c0.3,0.1,0.5,0.3,0.7,0.5
					c0.2,0.2,0.3,0.4,0.4,0.7c0.1,0.2,0.1,0.5,0.1,0.9c0,0.4-0.1,0.8-0.2,1.1c-0.1,0.3-0.3,0.5-0.6,0.7c-0.2,0.1-0.4,0.2-0.7,0.3
					c0.6,0.2,0.9,0.4,1.1,0.7c0.2,0.3,0.3,0.7,0.3,1.3l0,1.4c0,0.2,0,0.3,0.1,0.4c0,0,0.1,0.1,0.2,0.1v0.3h-2.9
					c-0.1-0.3-0.1-0.6-0.1-1.2l0-0.6c0-0.3-0.1-0.5-0.1-0.7c-0.1-0.2-0.2-0.3-0.4-0.4c-0.2-0.1-0.4-0.1-0.8-0.1h-1.1v3H245.9z
					 M248.6,145.7h1.4c0.4,0,0.7-0.1,0.9-0.2c0.2-0.2,0.3-0.3,0.3-0.6c0-0.3-0.1-0.5-0.3-0.6c-0.2-0.1-0.5-0.2-0.9-0.2h-1.4V145.7z"
					/>
				<path fill="#FFFFFF" d="M259.8,150.9c-1.4,0-2.5-0.4-3.4-1.3c-0.8-0.8-1.2-2-1.2-3.4c0-0.7,0.1-1.3,0.3-1.8
					c0.2-0.5,0.5-1,0.8-1.4c0.3-0.4,0.7-0.6,1-0.8c0.3-0.2,0.7-0.3,1.2-0.5c0.4-0.1,0.8-0.2,1.3-0.2c0.9,0,1.7,0.2,2.4,0.5
					c0.7,0.4,1.3,0.9,1.7,1.6c0.4,0.7,0.6,1.5,0.6,2.4c0,0.9-0.2,1.7-0.5,2.4c-0.3,0.7-0.9,1.3-1.5,1.7
					C261.6,150.7,260.8,150.9,259.8,150.9z M259.8,148.7c0.3,0,0.6-0.1,0.9-0.2c0.3-0.2,0.5-0.4,0.6-0.8c0.2-0.4,0.2-0.8,0.2-1.4
					c0-0.4,0-0.8-0.1-1.1c-0.1-0.3-0.2-0.6-0.3-0.7c-0.1-0.2-0.3-0.4-0.5-0.5c-0.2-0.1-0.5-0.2-0.7-0.2c-0.3,0-0.6,0.1-0.9,0.3
					c-0.3,0.2-0.5,0.5-0.7,0.8c-0.2,0.4-0.3,0.8-0.3,1.4c0,0.8,0.2,1.5,0.6,1.9C258.9,148.6,259.3,148.7,259.8,148.7z"/>
				<path fill="#FFFFFF" d="M273.1,144.4h-2.7c-0.1-0.2-0.2-0.4-0.4-0.6c-0.2-0.1-0.4-0.2-0.8-0.2c-0.3,0-0.6,0.1-0.7,0.2
					c-0.1,0.1-0.2,0.2-0.2,0.4c0,0.1,0,0.2,0.1,0.3c0.1,0.1,0.5,0.2,1,0.4l1.1,0.3c1,0.2,1.8,0.6,2.2,1.1c0.4,0.5,0.6,1,0.6,1.6
					c0,0.5-0.1,0.9-0.3,1.3c-0.2,0.4-0.5,0.7-0.8,0.9c-0.3,0.2-0.7,0.4-1.2,0.5c-0.5,0.1-1,0.2-1.6,0.2c-0.6,0-1.2-0.1-1.7-0.2
					c-0.5-0.2-1-0.4-1.3-0.7c-0.3-0.3-0.6-0.6-0.8-1c-0.1-0.3-0.2-0.6-0.3-1h2.8c0.1,0.3,0.2,0.5,0.4,0.6c0.2,0.1,0.5,0.2,1,0.2
					c0.4,0,0.7-0.1,0.8-0.2c0.1-0.1,0.2-0.2,0.2-0.4c0-0.2-0.1-0.3-0.2-0.4c-0.1-0.1-0.4-0.2-0.9-0.3l-1-0.3c-0.5-0.1-1-0.3-1.5-0.5
					c-0.5-0.2-0.8-0.5-1-0.9c-0.2-0.3-0.4-0.8-0.4-1.3c0-0.5,0.1-0.9,0.3-1.3c0.2-0.4,0.5-0.7,0.8-0.9c0.3-0.2,0.7-0.4,1.2-0.5
					c0.4-0.1,0.9-0.2,1.3-0.2c0.5,0,1,0.1,1.5,0.2c0.4,0.1,0.8,0.3,1.1,0.4c0.3,0.2,0.5,0.4,0.7,0.6c0.2,0.2,0.3,0.5,0.4,0.7
					C273,143.9,273.1,144.1,273.1,144.4z"/>
				<path fill="#FFFFFF" d="M274.8,150.7v-8.7h2.9v8.7H274.8z"/>
				<path fill="#FFFFFF" d="M286.8,144.4h-2.7c-0.1-0.2-0.2-0.4-0.4-0.6c-0.2-0.1-0.4-0.2-0.8-0.2c-0.3,0-0.6,0.1-0.8,0.2
					c-0.1,0.1-0.2,0.2-0.2,0.4c0,0.1,0.1,0.2,0.2,0.3c0.1,0.1,0.5,0.2,1,0.4l1.1,0.3c1,0.2,1.8,0.6,2.2,1.1c0.4,0.5,0.6,1,0.6,1.6
					c0,0.5-0.1,0.9-0.3,1.3c-0.2,0.4-0.5,0.7-0.8,0.9c-0.3,0.2-0.7,0.4-1.2,0.5c-0.5,0.1-1,0.2-1.6,0.2c-0.6,0-1.2-0.1-1.7-0.2
					c-0.5-0.2-1-0.4-1.3-0.7c-0.3-0.3-0.6-0.6-0.8-1c-0.1-0.3-0.2-0.6-0.3-1h2.8c0.1,0.3,0.2,0.5,0.4,0.6c0.2,0.1,0.5,0.2,1,0.2
					c0.4,0,0.7-0.1,0.8-0.2c0.1-0.1,0.2-0.2,0.2-0.4c0-0.2,0-0.3-0.2-0.4c-0.1-0.1-0.4-0.2-0.9-0.3l-1-0.3c-0.5-0.1-1-0.3-1.5-0.5
					c-0.5-0.2-0.8-0.5-1-0.9c-0.2-0.3-0.4-0.8-0.4-1.3c0-0.5,0.1-0.9,0.3-1.3c0.2-0.4,0.5-0.7,0.8-0.9c0.4-0.2,0.8-0.4,1.2-0.5
					c0.4-0.1,0.9-0.2,1.3-0.2c0.5,0,1,0.1,1.5,0.2c0.5,0.1,0.8,0.3,1.1,0.4c0.3,0.2,0.5,0.4,0.7,0.6c0.2,0.2,0.3,0.5,0.4,0.7
					C286.7,143.9,286.8,144.1,286.8,144.4z"/>
				<g>
					<path fill="#FFFFFF" d="M305.1,143.1l1.7-70.8c1.7-6.2,14.8-6.5,17.3-0.1l1,71C321.9,144.8,306.8,144.8,305.1,143.1z"/>
					<polyline fill="none" stroke="#231F20" stroke-width="0.8035" points="324.2,72.3 325.2,143.2 322.7,143.3 322.4,71.1 
						320.2,69.9 320.7,143.2 318.2,143.3 317.8,69.2 315.6,69 315.4,143.4 312.8,143.2 313.2,69.2 311,69.6 310.1,143.2 
						307.4,143.1 309,70.7 306.9,72.3 305.1,143.1 					"/>
					<path d="M304.8,57.2h20.8c1.1,0,1.3,1.4,0.6,1.9c-0.6,0.6,1.1,1.6,1.8,1.8c0.6,0.2,1.9,1.8,1.9,1.8l1.1,4.9l-6.7,5.3V76
						c-0.6-0.8-1.8-1.1-1.8-1.1l-0.1-3c0,0-1-1.5-2-0.9c0,0-1.5-1.7-2.4-1.1c0,0-1.9-0.6-2.4-0.2c0,0-2.1-0.7-2.4,0.2
						c0,0-2.1-0.8-2.2,0.1l-0.1,1.4c0,0-0.4-1.6-1.4-1c-1,0.6-0.6,0.8-0.6,0.8v3.5c-0.7-1.4-1.5-1.4-2-0.6v-1.4l-4.8-1l-2.5-6.6
						l0.4-1.5c0.6-1.7,2.2-2.5,2.8-2.7c0.6-0.2,1.4-0.4,1.5-1c0.1-0.6-0.7-1-0.6-1.6C303.8,57.1,304.8,57.2,304.8,57.2z"/>
					<path d="M301,152.1c0.1,0.9,0.5,1.4,3,1.4h22c2.6,0,3.3-0.3,3.3-1.1c0-0.8-1.2-2.3-1.4-2.4c-0.2-0.1-0.4-0.7-0.4-0.7v-3.5
						c-1.8,0.2-12.1,0.3-13.9,0.2c-1.8-0.1-7.2,0.2-8.6-0.1c-1.4-0.3-1.9-0.2-2.1-0.7v4.1C302.1,150,300.9,151.2,301,152.1z"/>
					<path fill="#FFFFFF" d="M306.1,150.1c0-1.1,0.6-1.4,1.6-1.8c1-0.4,1.3-0.4,2.2-0.3c0.9,0.1,13.9,0,14.6,0
						c0.7,0,1.4,0.1,1.8,0.4c0.4,0.3,1.2,1.3,1.1,1.7L306.1,150.1z"/>
					<path fill="#FFFFFF" d="M305.5,150.8h21c0.9-0.1,1.2,0.6,1.2,0.9c0,0.3-0.2,0.6-1.2,0.7l-22.1,0.1c-1.1-0.1-1-0.6-1.1-1
						C303.3,151,304.3,150.6,305.5,150.8z"/>
					<path d="M302.9,144.8c0.9,0.1,5.1,0,6.1,0.1c1,0.1,5.9,0.5,9,0.5c3.1,0,7.8,0.1,9.5-0.3c-0.5-0.4-1.7-1.4-1.8-2.4l-21.3,0.2
						c-0.1,1.2-0.7,1.2-1.1,1.4C302.8,144.5,302.9,144.8,302.9,144.8z"/>
					<path fill="#FFFFFF" stroke="#231F20" stroke-width="0.8035" d="M306.7,68.8c-1.5-0.1-2.1-0.9-1.3-1.8c0.8-1,2.1,0.4,1.9,0.8
						c-0.2,0.4,0.3,1.7-1.1,2.5c-0.5,0.3-4.4,0.8-4.5-3.3c-0.1-4,4.2-3.9,4.8-3.7c0.6,0.2,6.1,1.5,9.1,1.4c2.9-0.1,5-0.2,6.4-0.7
						c1.3-0.5,4.4-1.4,5.9-0.2c1.5,1.2,2.1,4.3,0.9,5.5c-1.2,1.2-3.3,1.9-4.7,0.3c-1.4-1.6,1-3,1.6-2.5c0.6,0.5,0.6,1.7-0.2,1.7
						c-0.7,0.1-1.1,0.3-1.4-0.2c0,0,0.1,1.3,0.8,1.6c0.7,0.2,3.7,0.8,4.2-2.1c0.5-2.9-1.3-4.3-3.8-4.3c-2.9,0-4.4,2.3-4.4,3.6
						c-0.1,1.3-0.3,2.9,2.2,4.9c2.2,1.7,7.5,1,8.7-3.4c0.8-3-0.8-5.5-1.4-6c-0.6-0.5-1.6-2-4.7-1.7c-3.1,0.2-18.1,0.2-20.1,0.1
						c-2-0.1-5.4,0.9-6,4.4c-0.6,3.5,2.2,6.3,3.5,6.8c1.3,0.5,3.7,0.6,5.2-0.7c1.4-1.4,2.4-1.8,2-4.8c-0.4-2.9-3.9-3.4-4.8-3.4
						c-0.9,0-3.3,1-3.4,3.4c-0.2,2.5,2.3,3.7,3.5,3.3C307.4,69.6,306.7,68.8,306.7,68.8z"/>
					<path fill="#FFFFFF" d="M305.3,57.6c0.6,0,19.7,0,20.1,0c0.3,0,0.6,0.4,0.6,0.7c0,0.3-0.2,0.6-0.7,0.6c-0.5,0-19.7,0-20.1,0
						c-0.4,0-1.1,0.2-1.1-0.7C304.2,57.7,304.8,57.6,305.3,57.6z"/>
					<path fill="#FFFFFF" d="M312.3,65.8c0.5,0,1.1,0.4,1.1,0.9c0,0.5-0.1,1.1-1.1,1c-0.5,0-1-0.3-1-1
						C311.2,66,311.7,65.8,312.3,65.8z"/>
					<path fill="#FFFFFF" d="M315.2,65.8c0.5,0,1.1,0.4,1.1,0.9c0,0.5-0.1,1.1-1.1,1c-0.5,0-1-0.3-1-1
						C314.2,66,314.7,65.8,315.2,65.8z"/>
					<path fill="#FFFFFF" d="M318.1,65.8c0.5,0,1.1,0.4,1.1,0.9c0,0.5-0.1,1.1-1.1,1c-0.6,0-1-0.3-1-1C317,66,317.6,65.8,318.1,65.8
						z"/>
				</g>
				<g>
					<path fill="#FFFFFF" d="M33.6,143.1l1.8-70.8c1.7-6.2,14.8-6.5,17.3-0.1l1,71C50.4,144.8,35.3,144.8,33.6,143.1z"/>
					<polyline fill="none" stroke="#231F20" stroke-width="0.8035" points="52.7,72.3 53.7,143.2 51.1,143.3 50.9,71.1 48.7,69.9 
						49.2,143.2 46.7,143.3 46.3,69.2 44.1,69 43.8,143.4 41.2,143.2 41.6,69.2 39.5,69.6 38.5,143.2 35.9,143.1 37.4,70.7 
						35.3,72.3 33.6,143.1 					"/>
					<path d="M33.2,57.2H54c1.1,0,1.3,1.4,0.6,1.9c-0.6,0.6,1.1,1.6,1.7,1.8c0.6,0.2,1.9,1.8,1.9,1.8l1.1,4.9L52.7,73V76
						c-0.6-0.8-1.8-1.1-1.8-1.1l-0.1-3c0,0-1-1.5-2-0.9c0,0-1.5-1.7-2.4-1.1c0,0-1.9-0.6-2.4-0.2c0,0-2.2-0.7-2.4,0.2
						c0,0-2.1-0.8-2.2,0.1l-0.1,1.4c0,0-0.4-1.6-1.4-1c-1,0.6-0.6,0.8-0.6,0.8v3.5c-0.7-1.4-1.5-1.4-2-0.6v-1.4l-4.8-1l-2.5-6.6
						l0.4-1.5c0.5-1.7,2.2-2.5,2.8-2.7c0.6-0.2,1.4-0.4,1.5-1c0.1-0.6-0.7-1-0.6-1.6C32.2,57.1,33.2,57.2,33.2,57.2z"/>
					<path d="M29.4,152.1c0.1,0.9,0.5,1.4,3,1.4h22c2.6,0,3.3-0.3,3.3-1.1c0-0.8-1.2-2.3-1.4-2.4c-0.2-0.1-0.4-0.7-0.4-0.7v-3.5
						c-1.8,0.2-12.1,0.3-13.9,0.2c-1.7-0.1-7.2,0.2-8.6-0.1c-1.4-0.3-1.9-0.2-2.1-0.7v4.1C30.6,150,29.3,151.2,29.4,152.1z"/>
					<path fill="#FFFFFF" d="M34.5,150.1c-0.1-1.1,0.6-1.4,1.6-1.8c1-0.4,1.3-0.4,2.2-0.3c0.9,0.1,13.9,0,14.6,0
						c0.7,0,1.4,0.1,1.8,0.4c0.4,0.3,1.2,1.3,1.1,1.7L34.5,150.1z"/>
					<path fill="#FFFFFF" d="M34,150.8h21c0.9-0.1,1.2,0.6,1.2,0.9c0,0.3-0.2,0.6-1.2,0.7l-22.1,0.1c-1.1-0.1-1-0.6-1.1-1
						C31.7,151,32.7,150.6,34,150.8z"/>
					<path d="M31.3,144.8c0.9,0.1,5.1,0,6.1,0.1c1,0.1,5.9,0.5,9,0.5c3.1,0,7.8,0.1,9.5-0.3c-0.5-0.4-1.7-1.4-1.8-2.4l-21.3,0.2
						c-0.1,1.2-0.7,1.2-1.1,1.4C31.2,144.5,31.3,144.8,31.3,144.8z"/>
					<path fill="#FFFFFF" stroke="#231F20" stroke-width="0.8035" d="M35.1,68.8C33.6,68.8,33,68,33.7,67c0.8-1,2.1,0.4,1.9,0.8
						c-0.2,0.4,0.3,1.7-1.1,2.5c-0.5,0.3-4.4,0.8-4.5-3.3c-0.2-4,4.2-3.9,4.8-3.7c0.6,0.2,6.1,1.5,9.1,1.4c2.9-0.1,5-0.2,6.3-0.7
						c1.4-0.5,4.4-1.4,5.9-0.2c1.5,1.2,2.1,4.3,0.9,5.5c-1.2,1.2-3.3,1.9-4.7,0.3c-1.4-1.6,0.9-3,1.6-2.5c0.6,0.5,0.6,1.7-0.2,1.7
						c-0.7,0.1-1.1,0.3-1.4-0.2c0,0,0.1,1.3,0.8,1.6c0.7,0.2,3.7,0.8,4.2-2.1c0.5-2.9-1.4-4.3-3.8-4.3c-2.9,0-4.4,2.3-4.4,3.6
						c-0.1,1.3-0.3,2.9,2.2,4.9c2.2,1.7,7.5,1,8.7-3.4c0.8-3-0.8-5.5-1.3-6c-0.6-0.5-1.6-2-4.7-1.7c-3.1,0.2-18.1,0.2-20.1,0.1
						c-2-0.1-5.4,0.9-6,4.4c-0.6,3.5,2.2,6.3,3.5,6.8c1.3,0.5,3.7,0.6,5.2-0.7c1.4-1.4,2.4-1.8,2-4.8c-0.4-2.9-3.9-3.4-4.8-3.4
						c-0.9,0-3.3,1-3.4,3.4c-0.2,2.5,2.3,3.7,3.5,3.3C35.8,69.6,35.1,68.8,35.1,68.8z"/>
					<path fill="#FFFFFF" d="M33.8,57.6c0.6,0,19.7,0,20,0c0.3,0,0.6,0.4,0.6,0.7c0,0.3-0.2,0.6-0.7,0.6c-0.5,0-19.7,0-20.1,0
						c-0.4,0-1,0.2-1.1-0.7C32.6,57.7,33.2,57.6,33.8,57.6z"/>
					<path fill="#FFFFFF" d="M40.7,65.8c0.5,0,1.1,0.4,1.1,0.9c0,0.5-0.1,1.1-1.1,1c-0.5,0-1-0.3-1-1C39.6,66,40.2,65.8,40.7,65.8z"
						/>
					<path fill="#FFFFFF" d="M43.7,65.8c0.5,0,1.1,0.4,1.1,0.9c0,0.5-0.1,1.1-1.1,1c-0.5,0-0.9-0.3-1-1C42.6,66,43.1,65.8,43.7,65.8
						z"/>
					<path fill="#FFFFFF" d="M46.5,65.8c0.5,0,1.1,0.4,1.1,0.9c0,0.5-0.1,1.1-1.1,1c-0.5,0-1-0.3-1-1C45.5,66,46,65.8,46.5,65.8z"/>
				</g>
			</g>
		</g>
	</g>
</g>
</svg>
