<?xml version="1.0" encoding="utf-8"?>
<!-- Generator: Adobe Illustrator 18.0.0, SVG Export Plug-In . SVG Version: 6.00 Build 0)  -->
<!DOCTYPE svg PUBLIC "-//W3C//DTD SVG 1.1//EN" "http://www.w3.org/Graphics/SVG/1.1/DTD/svg11.dtd">
<svg version="1.1" id="Layer_1" xmlns="http://www.w3.org/2000/svg" xmlns:xlink="http://www.w3.org/1999/xlink" x="0px" y="0px"
	 viewBox="0 0 360 216" enable-background="new 0 0 360 216" xml:space="preserve">
<rect fill="none" width="360" height="216"/>
<g>
	<path d="M325.7,106.7c-3.1,0-5.9-2.4-5.9-5.9c0-3.4,2.7-5.9,5.9-5.9c3.4,0,6,2.7,5.9,6C331.7,104.1,329.1,106.7,325.7,106.7z
		 M325.8,95.4c-3.1,0-5.4,2.4-5.4,5.4c0,3,2.4,5.4,5.4,5.4c3,0,5.4-2.4,5.4-5.4C331.2,97.8,328.8,95.4,325.8,95.4z M325.6,97
		c0.9,0,1.3,0,1.7,0.2c0.7,0.3,1.1,1,1.1,1.7c0,1-0.7,1.6-1.7,1.8c0.8,0.3,1,0.7,1.2,1.6c0.2,1.1,0.2,1.5,0.5,2.1h-1.2
		c-0.2-0.3-0.2-0.7-0.3-1c0-0.2-0.2-1-0.2-1.2c-0.2-1.1-0.8-1.2-1.9-1.2h-0.5v3.4h-1.1V97H325.6z M324.5,100.1h1.2
		c0.5,0,1.7,0,1.7-1.2c0-0.3-0.1-0.6-0.3-0.8c-0.3-0.3-0.7-0.3-1.6-0.3h-1V100.1z"/>
</g>
<g>
	<g>
		<path d="M318.5-37.7h-1v-8.1h-2.9v-0.9h6.8v0.9h-2.9V-37.7z"/>
		<path d="M326.7-37.7l-3.1-8h0c0.1,0.6,0.1,1.4,0.1,2.3v5.7h-1v-9h1.6l2.9,7.4h0l2.9-7.4h1.6v9h-1v-5.8c0-0.7,0-1.4,0.1-2.2h0
			l-3.1,8H326.7z"/>
	</g>
</g>
<g>
	<g>
		<g>
			<g>
				<g>
					<g>
						<path fill="#2E3192" d="M106.3,138.4c-15.6-0.3-17.7-19.1-18.1-20.7c-1.4-6.7-5.7-10.3-7.6-11.7c-3.6-2.6-7.1-3.9-8.1-4.3
							c4.7-0.7,8.7-3.1,10-4.2c9.6-8.1,9.1-16.7,8.9-18.6c-0.7-8.8-6.7-12.7-9.3-13.8c-9.9-3.9-19,0.3-19.6,0.7
							c-2.1,1.4,3.2-0.4,10.9,4.3c5.3,3.2,6.6,8.6,5.1,16.5c-1.9,9.6-9.6,13.6-11.1,14.2c-2.2,0.8-2.6,1.3-1.7,1.6
							c7.9,2.3,9.1,13,9.4,15.2c0.7,5.9,2,8.8,2.8,11.5c3.1,10.7,12.6,13.4,14.8,13.6c7.9,0.6,11.2-2,12.7-2.8
							C107,139,107,138.7,106.3,138.4z"/>
						<path fill="#FFDD00" stroke="#1A317F" stroke-width="1.0905" d="M70.2,142.2H29v-5.8c12.7,0.1,13.1-4.2,13.1-11V83.2
							c0-2.7,0-7.6-4.3-7.6c-1.5,0-5.3,1.3-9,2.7v-2.9l27.7-12h1.9v62.6c0,7.4,1,10.3,11.9,10.3V142.2z"/>
						<g>
							<path fill="#2E3192" d="M112.6,107.7c3.8-4.2,8.8-6.2,14.8-6.2c6,0,11,2,14.9,5.9c3.9,3.9,5.9,9.2,5.9,15.7
								c0,6-1.9,11.3-5.7,15.7c-3.8,4.4-8.7,6.7-14.8,6.7c-5.8,0-10.7-2.1-14.8-6.4c-4-4.3-6-9.6-6-16.1
								C106.8,117,108.8,111.9,112.6,107.7z M119.8,106.6c-3,2.8-4.6,7.5-4.6,14.3c0,5.4,1.2,10.4,3.7,15.1c2.4,4.7,5.8,7,10.2,7
								c3.4,0,6-1.6,7.8-4.7c1.8-3.1,2.7-7.2,2.7-12.3c0-5.2-1.2-10.2-3.5-14.8c-2.3-4.6-5.7-6.9-10.1-6.9
								C123.7,104.2,121.6,105,119.8,106.6z"/>
							<path fill="#2E3192" d="M150.5,142.8c3.2-0.1,5.3-0.7,6.3-1.8c1-1,1.5-3.2,1.5-6.6v-29.1h-7.8v-3h7.8c0-4.8,0.7-8.8,2-12.1
								c2.5-6.3,7-9.5,13.7-9.5c2.7,0,5,0.5,7.2,1.6c2.1,1.1,3.2,2.5,3.2,4.3c0,1-0.4,1.9-1.1,2.7c-0.7,0.8-1.6,1.2-2.6,1.2
								c-0.9,0-1.6-0.3-2.3-0.8c-0.6-0.5-1.4-1.5-2.3-2.8l-0.8-1.2c-0.4-0.6-0.9-1.2-1.5-1.6c-0.6-0.4-1.4-0.7-2.4-0.7
								c-2.3,0-3.8,1.1-4.7,3.4c-0.5,1.2-0.7,2.8-0.7,4.8v10.8h11.3v3h-11.3v29.1c0,3.4,0.5,5.6,1.4,6.6c0.9,1,3.3,1.6,7.2,1.8v1.3
								h-24.2V142.8z"/>
							<path fill="#2E3192" d="M209.8,105.9c3.2,2.9,4.8,7.1,4.8,12.5h-28.8c0.3,7,1.9,12.1,4.8,15.3c2.9,3.2,6.3,4.8,10.2,4.8
								c3.2,0,5.9-0.8,8-2.5c2.2-1.7,4.2-4,6-7.1l1.6,0.5c-1.2,3.9-3.6,7.4-7,10.7c-3.4,3.3-7.6,4.9-12.5,4.9
								c-5.7,0-10.1-2.1-13.2-6.4c-3.1-4.3-4.7-9.3-4.7-14.8c0-6.1,1.8-11.3,5.4-15.7c3.6-4.4,8.3-6.6,14.1-6.6
								C202.8,101.5,206.6,103,209.8,105.9z M188,109.4c-1,1.6-1.7,3.7-2.1,6.2h19.1c-0.3-3-0.9-5.3-1.7-6.8c-1.5-2.7-4-4-7.4-4
								C192.5,104.8,189.8,106.3,188,109.4z"/>
							<path fill="#2E3192" d="M249.1,104.2c2.7,1.9,4.1,4.1,4.1,6.4c0,1-0.3,1.9-1,2.8c-0.7,0.9-1.8,1.3-3.2,1.3
								c-1.1,0-2-0.4-2.8-1.1c-0.8-0.7-1.4-1.8-1.7-3.2l-0.6-2.2c-0.4-1.6-1.1-2.7-2-3.4c-1-0.6-2.3-1-3.9-1c-3.5,0-6.4,1.5-8.7,4.5
								c-2.4,3-3.6,7-3.6,12c0,4.6,1.3,8.7,3.9,12.3c2.6,3.6,6.1,5.5,10.6,5.5c3.1,0,5.9-1,8.4-3.1c1.4-1.2,3-3.1,4.7-5.6l1.3,0.8
								c-1.7,3.6-3.5,6.5-5.4,8.6c-3.7,4.1-7.9,6.1-12.7,6.1c-4.7,0-8.9-1.9-12.5-5.6c-3.6-3.7-5.5-8.8-5.5-15.2
								c0-6.3,2-11.7,6-16.2c4-4.5,9-6.8,15-6.8C243.1,101.3,246.4,102.2,249.1,104.2z"/>
							<path fill="#2E3192" d="M257,142.8c3.2-0.3,5.3-0.9,6.1-1.7c0.9-0.8,1.3-3,1.3-6.5V113c0-2-0.1-3.3-0.4-4.1
								c-0.5-1.2-1.4-1.9-2.9-1.9c-0.3,0-0.7,0-1,0.1c-0.3,0.1-1.2,0.3-2.7,0.7v-1.4l1.9-0.6c5.3-1.7,9-3,11.1-3.9
								c0.8-0.4,1.4-0.5,1.6-0.5c0.1,0.2,0.1,0.4,0.1,0.7v32.6c0,3.4,0.4,5.6,1.3,6.5c0.8,0.9,2.7,1.4,5.6,1.7v1.3H257V142.8z
								 M264.2,82.1c0.9-0.9,2-1.4,3.4-1.4c1.3,0,2.4,0.5,3.3,1.4c0.9,0.9,1.4,2,1.4,3.4c0,1.3-0.5,2.4-1.4,3.3
								c-0.9,0.9-2,1.4-3.3,1.4c-1.3,0-2.4-0.5-3.4-1.4c-0.9-0.9-1.4-2-1.4-3.3C262.8,84.2,263.3,83,264.2,82.1z"/>
							<path fill="#2E3192" d="M280.3,142.8c2.1-0.3,3.7-0.8,4.5-1.6c0.9-0.8,1.3-2.6,1.3-5.4v-23.1c0-1.9-0.2-3.3-0.5-4.1
								c-0.6-1.1-1.8-1.7-3.5-1.7c-0.3,0-0.5,0-0.8,0c-0.3,0-0.6,0.1-1.1,0.1v-1.6c1.2-0.4,4.2-1.3,8.8-2.8l4.3-1.4
								c0.2,0,0.3,0.1,0.4,0.2c0,0.2,0.1,0.4,0.1,0.6v6.7c2.8-2.6,5-4.4,6.5-5.4c2.4-1.5,4.8-2.2,7.3-2.2c2.1,0,3.9,0.6,5.6,1.8
								c3.3,2.3,4.9,6.4,4.9,12.3v21.2c0,2.2,0.4,3.7,1.3,4.7c0.9,1,2.3,1.5,4.4,1.5v1.3h-19.4v-1.3c2.2-0.3,3.8-0.9,4.6-1.8
								c0.9-0.9,1.3-2.9,1.3-6v-19.4c0-2.6-0.5-4.8-1.4-6.5c-1-1.7-2.7-2.6-5.3-2.6c-1.8,0-3.6,0.6-5.4,1.8c-1,0.7-2.3,1.8-4,3.5
								v25.4c0,2.2,0.5,3.6,1.5,4.4c1,0.7,2.5,1.1,4.6,1.2v1.3h-19.8V142.8z"/>
						</g>
					</g>
				</g>
			</g>
		</g>
	</g>
</g>
</svg>
