<?xml version="1.0" encoding="utf-8"?>
<!-- Generator: Adobe Illustrator 18.0.0, SVG Export Plug-In . SVG Version: 6.00 Build 0)  -->
<!DOCTYPE svg PUBLIC "-//W3C//DTD SVG 1.1//EN" "http://www.w3.org/Graphics/SVG/1.1/DTD/svg11.dtd">
<svg version="1.1" id="Layer_1" xmlns="http://www.w3.org/2000/svg" xmlns:xlink="http://www.w3.org/1999/xlink" x="0px" y="0px"
	 viewBox="0 0 360 216" enable-background="new 0 0 360 216" xml:space="preserve">
<rect fill="none" width="360" height="216"/>
<g>
	<path d="M325.7,109c-3.1,0-5.9-2.4-5.9-5.9c0-3.4,2.7-5.9,5.9-5.9c3.4,0,6,2.7,5.9,6C331.7,106.4,329.1,109,325.7,109z M325.8,97.7
		c-3.1,0-5.4,2.4-5.4,5.4c0,3,2.4,5.4,5.4,5.4c3,0,5.4-2.4,5.4-5.4C331.2,100.1,328.8,97.7,325.8,97.7z M325.6,99.3
		c0.9,0,1.3,0,1.7,0.2c0.7,0.3,1.1,1,1.1,1.7c0,1-0.7,1.6-1.7,1.8c0.8,0.3,1,0.7,1.2,1.6c0.2,1.1,0.2,1.5,0.5,2.1h-1.2
		c-0.2-0.3-0.2-0.7-0.3-1c0-0.2-0.2-1-0.2-1.2c-0.2-1.1-0.8-1.2-1.9-1.2h-0.5v3.4h-1.1v-7.4H325.6z M324.5,102.4h1.2
		c0.5,0,1.7,0,1.7-1.2c0-0.3-0.1-0.6-0.3-0.8c-0.3-0.3-0.7-0.3-1.6-0.3h-1V102.4z"/>
</g>
<g>
	<g>
		<path d="M318.5-37.7h-1v-8.1h-2.9v-0.9h6.8v0.9h-2.9V-37.7z"/>
		<path d="M326.7-37.7l-3.1-8h0c0.1,0.6,0.1,1.4,0.1,2.3v5.7h-1v-9h1.6l2.9,7.4h0l2.9-7.4h1.6v9h-1v-5.8c0-0.7,0-1.4,0.1-2.2h0
			l-3.1,8H326.7z"/>
	</g>
</g>
<g>
	<g>
		<path fill="#006CB7" d="M56.6,100.3c2.2,0,3.7,0.6,4.6,1.8c0.9,1.2,1.2,2.9,0.7,5.3c-0.4,2.4-1.3,4.2-2.7,5.3
			c-1.4,1.1-3.3,1.7-5.9,1.8l2.4-14H56.6z M47.7,147.2l4-22.9l4.5,22.9h19.5L67.2,121c4-1.5,7.1-3.4,9.3-5.8
			c2.3-2.4,3.7-5.4,4.3-8.9c1-5.6-0.3-10.1-3.9-13.3c-3.6-3.3-9-4.9-16.1-4.9H39.6l-10.3,59.2H47.7z"/>
		<path fill="#006CB7" d="M100.8,119.4c0.9-1.5,2.1-2.3,3.5-2.3c1.4,0,2.3,0.8,2.7,2.3c0.4,1.5,0.4,3.8-0.2,6.9
			c-0.5,3.1-1.3,5.4-2.2,6.9c-1,1.6-2.1,2.3-3.5,2.3c-1.4,0-2.3-0.8-2.7-2.3c-0.4-1.6-0.4-3.9,0.2-6.9
			C99.1,123.2,99.8,120.9,100.8,119.4z M84,142.7c3.1,3.8,8,5.7,14.9,5.7c6.8,0,12.4-1.9,16.8-5.7c4.4-3.8,7.2-9.2,8.4-16.2
			c1.2-7,0.3-12.4-2.8-16.2c-3.1-3.8-8-5.8-14.8-5.8c-6.8,0-12.4,1.9-16.9,5.8c-4.4,3.8-7.2,9.2-8.4,16.2
			C80,133.5,80.9,138.9,84,142.7z"/>
		<path fill="#006CB7" d="M127.5,147.2l4.9-28.2h-5.1l2.3-13.2h5.1l1.4-8c1-5.6,2.8-9.6,5.5-12.1c2.7-2.5,6.5-3.7,11.6-3.7
			c1.6,0,3.1,0.1,4.6,0.4c1.5,0.2,2.9,0.6,4.3,1l-2.2,12.6c-0.4-0.2-0.7-0.3-1.2-0.3c-0.4-0.1-0.8-0.1-1.2-0.1
			c-1.4,0-2.4,0.4-3.3,1.3c-0.8,0.8-1.4,2.1-1.7,3.8l-0.9,5.2h6.5l-2.3,13.2h-6.5l-4.9,28.2H127.5z"/>
		<path fill="#006CB7" d="M162.7,91.5c0.4-2.5,1.8-4.6,4-6.3c2.2-1.7,4.7-2.6,7.5-2.6c2.8,0,5,0.9,6.6,2.6c1.6,1.7,2.2,3.8,1.8,6.3
			c-0.4,2.5-1.8,4.6-4,6.3c-2.2,1.7-4.7,2.6-7.5,2.6c-2.8,0-5-0.9-6.7-2.6C162.9,96.2,162.3,94,162.7,91.5z M154.7,147.2l7.2-41.4
			h16.7l-7.2,41.4H154.7z"/>
		<path fill="#ED1C24" d="M193.4,121.4l-10-23.4h19.2l3.5,11.2l30-34.5h19.2l-40.8,46.7l10.9,25.8h-19.3l-4.5-12.6l-8.9,12.6h-19.3
			L193.4,121.4z"/>
		<path fill="#006CB7" stroke="#FFFFFF" stroke-width="1.3732" d="M235.4,91.5c0.4-2.5,1.8-4.6,4-6.3c2.2-1.7,4.7-2.6,7.6-2.6
			c2.8,0,5,0.9,6.6,2.6c1.6,1.7,2.2,3.8,1.8,6.3c-0.4,2.5-1.8,4.6-4,6.3c-2.2,1.7-4.7,2.6-7.5,2.6c-2.8,0-5-0.9-6.7-2.6
			C235.6,96.2,235,94,235.4,91.5z"/>
		<polygon fill="#006CB7" points="227.4,147.2 234.6,105.8 251.3,105.8 244.2,147.2 		"/>
		<path fill="#006CB7" d="M251,147.2l7.2-41.4h16.1l-1.1,6.2c2-2.4,4.1-4.1,6.5-5.3c2.3-1.1,4.9-1.7,7.8-1.7c2.7,0,4.8,0.6,6.3,1.7
			c1.5,1.2,2.5,2.9,2.9,5.2c1.7-2.4,3.7-4.1,5.9-5.3c2.2-1.1,4.8-1.7,7.6-1.7c3.5,0,6,0.9,7.6,2.8c1.5,1.9,2,4.6,1.3,8.3l-5.4,31.2
			H297l4.2-24.1c0.2-1.3,0.1-2.3-0.3-2.9c-0.4-0.6-1.1-0.9-2.2-0.9c-1,0-1.8,0.4-2.5,1.1c-0.7,0.7-1.1,1.7-1.3,3l-4.1,23.9H274
			l4.2-24.1c0.2-1.3,0.1-2.3-0.3-2.9c-0.4-0.6-1.2-0.9-2.2-0.9c-1,0-1.9,0.4-2.5,1.1c-0.7,0.7-1.1,1.7-1.4,3l-4.1,23.9H251z"/>
	</g>
</g>
</svg>
