<?xml version="1.0" encoding="utf-8"?>
<!-- Generator: Adobe Illustrator 18.0.0, SVG Export Plug-In . SVG Version: 6.00 Build 0)  -->
<!DOCTYPE svg PUBLIC "-//W3C//DTD SVG 1.1//EN" "http://www.w3.org/Graphics/SVG/1.1/DTD/svg11.dtd">
<svg version="1.1" id="Layer_1" xmlns="http://www.w3.org/2000/svg" xmlns:xlink="http://www.w3.org/1999/xlink" x="0px" y="0px"
	 viewBox="0 0 360 216" enable-background="new 0 0 360 216" xml:space="preserve">
<rect fill="none" width="360" height="216"/>
<g>
	<path d="M277.2,147.6c-2.9,0-5.6-2.3-5.6-5.6c0-3.2,2.6-5.6,5.6-5.6c3.3,0,5.7,2.6,5.7,5.7C282.8,145.1,280.4,147.6,277.2,147.6z
		 M277.2,136.8c-2.9,0-5.2,2.3-5.2,5.1c0,2.9,2.3,5.1,5.1,5.1c2.9,0,5.1-2.3,5.1-5.1C282.4,139.1,280.2,136.8,277.2,136.8z
		 M277.1,138.4c0.8,0,1.2,0,1.6,0.2c0.7,0.3,1.1,0.9,1.1,1.6c0,1-0.7,1.6-1.6,1.7c0.8,0.3,1,0.7,1.1,1.6c0.2,1,0.2,1.4,0.5,2h-1.2
		c-0.2-0.3-0.2-0.6-0.3-1c0-0.2-0.1-0.9-0.2-1.1c-0.2-1-0.8-1.2-1.8-1.2H276v3.3h-1v-7H277.1z M276,141.3h1.2c0.4,0,1.6,0,1.6-1.1
		c0-0.3-0.1-0.6-0.3-0.8c-0.3-0.3-0.6-0.3-1.5-0.3h-1V141.3z"/>
</g>
<g>
	<text transform="matrix(1 0 0 1 311.553 300.3814)" font-family="'OpenSans'" font-size="14.5306">TM</text>
</g>
<g>
	<path d="M279,122c-2.2,0.1-4-1.6-4-3.8c-0.1-2.2,1.6-4,3.8-4c2.2-0.1,4,1.6,4,3.8C282.8,120.1,281.1,121.9,279,122z"/>
	<path d="M289.3,121.1c-1.8,0.1-3.4-1.4-3.4-3.2c-0.1-1.8,1.4-3.4,3.2-3.4c1.8-0.1,3.4,1.4,3.4,3.2
		C292.6,119.5,291.1,121,289.3,121.1z"/>
	<path d="M299.1,120.5c-1.7,0-3.1-1.3-3.1-2.9c0-1.7,1.3-3,2.9-3.1c1.7,0,3,1.3,3.1,2.9C302.1,119,300.8,120.4,299.1,120.5z"/>
	<path d="M308.8,119.9c-1.5,0-2.7-1.1-2.8-2.6c0-1.5,1.1-2.7,2.6-2.8c1.5,0,2.7,1.1,2.8,2.6C311.5,118.6,310.3,119.8,308.8,119.9z"
		/>
	<path d="M318.8,119.3c-1.4,0-2.5-1-2.5-2.4c0-1.3,1-2.5,2.4-2.5c1.3,0,2.5,1,2.5,2.4C321.2,118.1,320.1,119.3,318.8,119.3z"/>
	<path d="M328.9,118.6c-1.1,0-2.1-0.9-2.1-2c0-1.1,0.9-2.1,2-2.1c1.1,0,2.1,0.9,2.1,2C331,117.7,330.1,118.6,328.9,118.6z"/>
	<path fill="#ED1C24" d="M274.6,110.9c-1.3,1.7-3.8,2-5.5,0.7c-1.7-1.3-2-3.8-0.6-5.5c1.3-1.7,3.8-2,5.5-0.6
		C275.7,106.8,276,109.2,274.6,110.9z"/>
	<path fill="#ED1C24" d="M280.6,102.4c-1.1,1.4-3.2,1.7-4.7,0.5c-1.4-1.1-1.7-3.2-0.5-4.7c1.1-1.4,3.2-1.7,4.7-0.5
		C281.5,98.9,281.8,101,280.6,102.4z"/>
	<path fill="#ED1C24" d="M286.4,94.5c-1,1.3-2.9,1.5-4.2,0.5c-1.3-1-1.5-2.9-0.5-4.2c1-1.3,2.9-1.5,4.2-0.5
		C287.3,91.3,287.5,93.2,286.4,94.5z"/>
	<path fill="#ED1C24" d="M292.2,86.8c-0.9,1.2-2.6,1.4-3.8,0.4c-1.2-0.9-1.4-2.6-0.4-3.8c0.9-1.2,2.6-1.4,3.8-0.4
		C292.9,83.9,293.1,85.6,292.2,86.8z"/>
	<path fill="#ED1C24" d="M298.2,78.7c-0.8,1-2.4,1.2-3.4,0.4c-1.1-0.8-1.2-2.4-0.4-3.4c0.8-1,2.4-1.2,3.4-0.4
		C298.9,76.2,299,77.7,298.2,78.7z"/>
	<path fill="#ED1C24" d="M304.2,70.5c-0.7,0.9-2.1,1-2.9,0.3c-0.9-0.7-1.1-2-0.3-2.9c0.7-0.9,2-1,2.9-0.3
		C304.8,68.3,305,69.6,304.2,70.5z"/>
	<path d="M265.4,104.7c0.4,2.1-1.1,4.1-3.2,4.5c-2.1,0.4-4.1-1.1-4.5-3.2c-0.4-2.1,1.1-4.1,3.2-4.5
		C263.1,101.1,265.1,102.6,265.4,104.7z"/>
	<path d="M263.2,94.6c0.3,1.8-0.9,3.5-2.7,3.8c-1.8,0.3-3.5-0.9-3.8-2.7c-0.3-1.8,0.9-3.5,2.7-3.8C261.1,91.5,262.8,92.8,263.2,94.6
		z"/>
	<path d="M261.2,84.9c0.3,1.6-0.8,3.2-2.4,3.5c-1.6,0.3-3.2-0.8-3.5-2.5c-0.3-1.6,0.8-3.2,2.5-3.5C259.4,82.2,260.9,83.3,261.2,84.9
		z"/>
	<path d="M259.3,75.5c0.2,1.5-0.7,2.9-2.2,3.1c-1.5,0.2-2.9-0.7-3.1-2.2c-0.2-1.5,0.7-2.9,2.2-3.1C257.6,73,259,74,259.3,75.5z"/>
	<path d="M257.3,65.6c0.2,1.3-0.7,2.6-2,2.8c-1.3,0.2-2.6-0.7-2.8-2c-0.2-1.3,0.7-2.6,2-2.8C255.9,63.4,257.1,64.3,257.3,65.6z"/>
	<path d="M255.3,55.7c0.2,1.1-0.6,2.2-1.7,2.4c-1.1,0.2-2.2-0.6-2.4-1.7c-0.2-1.1,0.6-2.2,1.7-2.4C254,53.8,255.1,54.5,255.3,55.7z"
		/>
	<path d="M272,98c-0.6,1.7-2.5,2.7-4.3,2c-1.7-0.6-2.6-2.5-2-4.3c0.6-1.7,2.5-2.7,4.2-2C271.7,94.4,272.6,96.3,272,98z"/>
	<path d="M274.9,88.6c-0.6,1.6-2.3,2.4-3.8,1.8c-1.6-0.6-2.4-2.3-1.8-3.8c0.5-1.6,2.3-2.4,3.8-1.8C274.7,85.3,275.5,87.1,274.9,88.6
		z"/>
	<path d="M277.9,79.4c-0.5,1.4-2,2.2-3.5,1.7c-1.4-0.5-2.1-2-1.6-3.4c0.5-1.4,2-2.1,3.4-1.7C277.6,76.5,278.4,78,277.9,79.4z"/>
	<path d="M280.9,69.9c-0.4,1.3-1.8,1.9-3.1,1.5c-1.3-0.4-1.9-1.8-1.5-3.1c0.4-1.3,1.8-1.9,3.1-1.5C280.7,67.2,281.4,68.6,280.9,69.9
		z"/>
	<path d="M286.1,111.7c-1.6,0.8-3.7,0.2-4.5-1.5c-0.8-1.6-0.2-3.6,1.5-4.5c1.6-0.8,3.6-0.2,4.5,1.5
		C288.4,108.8,287.7,110.8,286.1,111.7z"/>
	<path d="M294.7,106.9c-1.5,0.8-3.3,0.2-4-1.3c-0.8-1.5-0.2-3.3,1.3-4c1.5-0.8,3.3-0.2,4,1.3C296.8,104.3,296.2,106.1,294.7,106.9z"
		/>
	<path d="M303.2,102.2c-1.3,0.7-3,0.1-3.6-1.2c-0.7-1.3-0.2-3,1.2-3.6c1.3-0.7,2.9-0.1,3.6,1.2C305,99.9,304.5,101.5,303.2,102.2z"
		/>
	<path d="M312,97.4c-1.2,0.6-2.7,0.1-3.3-1.1c-0.6-1.2-0.1-2.7,1.1-3.3c1.2-0.6,2.7-0.1,3.3,1.1C313.6,95.3,313.2,96.8,312,97.4z"/>
	<path d="M63.1,138.6l-6.6-12.2c3.5-1.5,6.2-3.5,8.1-6.1c1.9-2.6,2.7-5.5,2.4-8.6c-0.2-2.9-1.4-5.1-3.5-6.5
		c-2.1-1.4-5.1-2.2-9.1-2.2l-7.7,0.3H33.5l-0.4,2.7l0.6,0c2.5,0.2,3.7,0.8,3.8,2c-0.1,1.5-0.2,2.8-0.3,3.8L34,138.6
		c-0.4,2.8-0.8,4.5-1.2,4.9c-0.4,0.5-1.6,0.8-3.7,0.9l-0.6,0l-0.3,2.7h17.5l0.3-2.7l-0.5,0c-2-0.1-3.1-0.7-3.2-1.8l0.4-4.1l1.3-11.2
		l0,0l22.5,29.2l6.7,0.1C73.4,156.8,64.6,141.3,63.1,138.6 M46.5,124.5h-2l2.2-18.3h3.3c2.6,0,4.5,0.5,5.9,1.6
		c1.4,1.1,2.1,2.7,2.3,4.9c0.3,3.5-0.6,6.4-2.8,8.6C53.2,123.4,50.2,124.5,46.5,124.5z"/>
	<path d="M85,122.9c1.9-3.8,4.1-5.7,6.7-5.7c1.6,0,2.9,0.7,3.8,2.2c0.9,1.4,1.5,3.6,1.7,6.5c0.4,4.8-0.3,9.1-2.1,12.9
		c-1.8,3.8-4,5.7-6.7,5.7c-1.7,0-3-0.7-3.9-2.2c-0.9-1.5-1.5-3.7-1.8-6.6C82.4,130.9,83.1,126.7,85,122.9 M77.2,145
		c2.3,2,5.2,2.9,8.7,2.9c6.6,0,11.9-2.7,15.9-8.2c3.4-4.7,4.9-9.6,4.5-14.8c-0.3-3.4-1.6-6-3.9-8c-2.3-2-5.3-3-8.9-3
		c-5.9,0-10.9,2.4-14.9,7.1c-4.1,4.7-5.8,10.2-5.4,16.4C73.6,140.5,74.9,143.1,77.2,145z"/>
	<path d="M135,100c-1.3-0.2-2.6-0.4-3.9-0.4c-4,0-7.4,1.2-10,3.7c-2.6,2.5-4.5,6.2-5.7,11.2h-4.2l-0.3,2.9h4.2l-4.4,36.2h8.7
		l0.5-3.8l3.9-32.5h6.5l0.3-2.9h-6.4l0.3-2.3c0.5-4.1,1.2-6.8,2-8.1c0.8-1.3,2.1-2,4-2c1.3,0,2.2,0.2,2.9,0.7c0.7,0.5,1,1.2,1.1,2.1
		c0,0.4,0,1.7-0.2,4l0,0.5h3.6l1-8.6C137.6,100.6,136.3,100.2,135,100z"/>
	<path d="M164.4,138.2l2.8-23.6h-8.7l-1.5,12.6c-4.6,9.5-8,14.2-10.1,14.2c-0.7,0-1.1-0.5-1.2-1.4c0-0.6,0-1.4,0.1-2.4l2.8-23h-13.5
		l-0.3,2.8l0.6,0c2.5,0.2,3.7,0.8,3.8,2l-0.3,3.9L137,138c-0.2,1.7-0.3,3.1-0.2,4.1c0.1,1.6,0.7,3,1.7,4.1c1,1.1,2.2,1.7,3.5,1.7
		c2.4,0,4.7-0.7,7.1-2c2.4-1.4,4.4-3.2,6.2-5.5l-0.8,6.9h8.9l0.8-8.7l-0.8,8.7C163.5,147.2,164.2,140.9,164.4,138.2z"/>
	<path d="M200.1,113.9c-2.5,0-5.2,1.3-7.9,4c-2.7,2.7-4.7,2.9-6.5,7.2l1.4-10.4h-8.9l-0.6,5.8c-0.1,0.9-0.2,1.8-0.3,2.8l-2.9,24h8.7
		l1.6-13.2c4.7-8.1,8.8-12.2,12.5-12.2c0.8,0,1.8,0.4,2.8,1.1l2.4-8.4C201.8,114.1,201,113.9,200.1,113.9z"/>
	<path d="M214.6,122.9c1.8-3.8,4.1-5.7,6.7-5.7c1.6,0,2.9,0.7,3.8,2.2c0.9,1.4,1.5,3.6,1.7,6.5c0.4,4.8-0.3,9.1-2.1,12.9
		c-1.8,3.8-4,5.7-6.7,5.7c-1.7,0-3-0.7-3.9-2.2c-0.9-1.5-1.5-3.7-1.8-6.6C212,130.9,212.8,126.7,214.6,122.9 M206.9,145
		c2.3,2,5.2,2.9,8.7,2.9c6.6,0,11.9-2.7,15.9-8.2c3.4-4.7,4.9-9.6,4.5-14.8c-0.3-3.4-1.6-6-3.9-8c-2.3-2-5.3-3-8.9-3
		c-5.9,0-10.9,2.4-14.9,7.1c-4.1,4.7-5.8,10.2-5.3,16.4C203.3,140.5,204.5,143.1,206.9,145z"/>
	<path fill="#ED1B30" d="M258.1,129.7l0.7-0.6c6.3-5,9.3-9,9-12.1c0-0.6-0.3-1.4-0.7-2.3h-7.8c1.2,1,1.8,2.4,1.9,4.2
		c0.2,2-1.1,4.5-3.9,7.5l-0.8,0.7l-6.3-12.4h-9.7l2.3,3.7c0.2,0.3,0.5,0.7,0.8,1.3l0.2,0.3l-0.2-0.3c0.2,0.3,0.4,0.6,0.5,1l5.7,10.7
		l-1.4,1.1c-4.2,3.2-7.1,5.7-8.5,7.6c-1.4,1.9-2.1,3.9-1.9,6c0,0.3,0.1,0.7,0.2,1.3h7.9c-0.7-0.9-1.1-1.8-1.2-2.8
		c-0.2-2.9,1.6-6.1,5.5-9.5l1.2-0.8l6.6,13.1h9.8c0,0-4.1-6.6-5.1-8.5L258.1,129.7 M246.2,124.1l0-0.2L246.2,124.1z"/>
	<polygon fill="#ED1B30" points="109.6,162.1 118.3,162.1 119.2,155 110.4,155 	"/>
</g>
</svg>
