<?xml version="1.0" encoding="utf-8"?>
<!-- Generator: Adobe Illustrator 18.0.0, SVG Export Plug-In . SVG Version: 6.00 Build 0)  -->
<!DOCTYPE svg PUBLIC "-//W3C//DTD SVG 1.1//EN" "http://www.w3.org/Graphics/SVG/1.1/DTD/svg11.dtd">
<svg version="1.1" id="Layer_1" xmlns="http://www.w3.org/2000/svg" xmlns:xlink="http://www.w3.org/1999/xlink" x="0px" y="0px"
	 viewBox="0 0 360 216" enable-background="new 0 0 360 216" xml:space="preserve">
<rect fill="none" width="360" height="216"/>
<g>
	<path d="M325.7-86.3c-3.1,0-5.9-2.4-5.9-5.9c0-3.4,2.7-5.9,5.9-5.9c3.4,0,6,2.7,5.9,6C331.6-89,329.1-86.3,325.7-86.3z M325.7-97.7
		c-3.1,0-5.4,2.4-5.4,5.4c0,3,2.4,5.4,5.4,5.4c3,0,5.4-2.4,5.4-5.4C331.1-95.2,328.8-97.7,325.7-97.7z M325.6-96
		c0.9,0,1.3,0,1.7,0.2c0.7,0.3,1.1,1,1.1,1.7c0,1-0.7,1.6-1.7,1.8c0.8,0.3,1,0.7,1.2,1.6c0.2,1.1,0.2,1.5,0.5,2.1h-1.2
		c-0.2-0.3-0.2-0.7-0.3-1c0-0.2-0.2-1-0.2-1.2c-0.2-1.1-0.8-1.2-1.9-1.2h-0.5v3.4h-1.1V-96H325.6z M324.4-92.9h1.2
		c0.5,0,1.7,0,1.7-1.2c0-0.3-0.1-0.6-0.3-0.8c-0.3-0.3-0.7-0.3-1.6-0.3h-1V-92.9z"/>
</g>
<g>
	<g>
		<path d="M318.5,100.9h-1v-8.1h-2.9v-0.9h6.8v0.9h-2.9V100.9z"/>
		<path d="M326.7,100.9l-3.1-8h0c0.1,0.6,0.1,1.4,0.1,2.3v5.7h-1v-9h1.6l2.9,7.4h0l2.9-7.4h1.6v9h-1v-5.8c0-0.7,0-1.4,0.1-2.2h0
			l-3.1,8H326.7z"/>
	</g>
</g>
<g>
	<g>
		<path fill="#231F20" d="M131.9,87.8c-0.2,0-0.3-0.1-0.6-1.1c-0.1-0.2-0.2-0.5-0.2-0.8c-0.6-1.9-2.2-1.8-2.2-1.8
			c-1.3-0.1-2.5,2.1-2.7,2.7c-0.1,0.4-0.4,0.9-0.7,1c-0.6,0.1-5.5,0.1-8.3-0.1c-1.5-0.1-2-1.6-2.6-3.6c-0.2-0.7-0.4-1.3-0.6-1.7
			c-0.4-0.7-1-1.1-1.7-1.2c-0.7,0-1.4,0.3-1.9,0.9c-0.4,0.5-1,1.6-1.6,2.8c-0.3,0.6-0.6,1.1-0.9,1.7c-0.6,1.1-1.7,1.1-2.7,1.1
			c-0.1,0-0.3,0-0.4,0c-0.8,0-1.3,0.1-1.6,1.1c-0.1,0.3-0.6,1.8-1,3.3c-0.6-4.5-1.7-12.9-2-14.4c-0.3-1.7-1.2-1.9-1.5-1.8
			C98,76,97.4,76.6,97.4,78c0,1.1-0.8,8-1.5,13.3c-0.2-0.7-0.3-1.3-0.4-1.7c-0.3-1.4-0.6-1.8-2-1.8H90c-0.1,0-0.1,0-0.2,0
			c-0.1,0-0.2-0.2-0.5-0.7c-0.5-1.1-1.3-2.9-2.7-2.7c-0.8,0.1-1.4,1.1-2.1,2.2c-0.2,0.4-0.6,1-0.7,1.1c-0.2,0.1-1.5,0.2-2.6,0.2
			c-0.3,0-0.6,0.2-0.7,0.6c0,0.3,0.2,0.6,0.6,0.7c0.8,0,2.6,0.1,3.3-0.3c0.4-0.2,0.7-0.7,1.2-1.6c0.3-0.5,0.9-1.5,1.2-1.6
			c0.5-0.1,1.2,1.4,1.4,1.9c0.3,0.7,0.7,1.2,1.2,1.4c0.3,0.1,0.5,0.1,0.6,0h3.4c0.1,0,0.5,0,0.6,0c0.1,0.1,0.2,0.6,0.2,0.8
			c0.3,1.3,1.2,5,1.2,5c0.1,0.3,0.3,0.5,0.6,0.5c0.3,0,0.5-0.2,0.6-0.5c0.1-0.6,1.9-15,1.9-16.8c0-0.2,0-0.4,0.1-0.6
			c0,0.1,0.1,0.3,0.1,0.5c0.4,1.9,2.3,17,2.3,17.1c0,0.3,0.3,0.5,0.6,0.5c0,0,0,0,0.1,0c0.3,0,0.5-0.2,0.6-0.4c0,0,1.7-5.4,1.9-6
			c0-0.1,0-0.1,0.1-0.2c0.2,0,0.4,0,0.6,0c0.9,0,2.9,0.1,3.9-1.7c0.3-0.6,0.6-1.1,0.9-1.7c0.6-1.1,1.2-2.2,1.5-2.7
			c0.2-0.2,0.5-0.5,0.8-0.4c0.3,0,0.5,0.2,0.7,0.6c0.2,0.3,0.3,0.9,0.5,1.4c0.5,1.7,1.3,4.3,3.8,4.5c2.8,0.2,7.8,0.1,8.5,0.1
			c0.8-0.1,1.4-0.7,1.8-1.8c0.2-0.6,1-1.8,1.4-1.8c0,0,0.7,0,1,0.9c0.1,0.3,0.2,0.5,0.2,0.8c0.3,1,0.6,1.9,1.7,2c0.5,0,1.8,0,2.7,0
			v-1.3C133.6,87.8,132.4,87.8,131.9,87.8z"/>
	</g>
	<path fill="#EF4138" d="M138.2,83.8c-2.4,0-4.3,1.9-4.3,4.3c0,2.4,1.9,4.3,4.3,4.3c2.4,0,4.3-1.9,4.3-4.3
		C142.5,85.7,140.6,83.8,138.2,83.8z M140.7,89.1h-1.7v1.7h-1.8v-1.7h-1.7v-1.8h1.7v-1.7h1.8v1.7h1.7V89.1z"/>
	<g>
		<g>
			<path fill="#231F20" d="M59.1,119.9c0,3.9-1.3,7-3.9,9.2c-2.4,2-5.6,3.1-9.6,3.1H28.3v-6h16.8c5.1,0,7.6-2,7.6-6.1
				c0-2.6-2.1-5.1-6.3-7.3c-3.8-2-7.6-4-11.5-6.1c-4.2-2.8-6.3-6.3-6.3-10.4c0-3.4,1.1-6.2,3.4-8.5c2.3-2.2,5.1-3.4,8.5-3.4h16.3v6
				H40.7c-1.7,0-3.1,0.5-4.2,1.5c-1,1-1.6,2.4-1.6,4.1c0,2.3,2.1,4.6,6.3,6.7c7.2,3.7,11,5.7,11.6,6.1
				C57,111.9,59.1,115.5,59.1,119.9z"/>
		</g>
		<g>
			<path fill="#231F20" d="M96.6,121.4c-4.5,4.2-3.7,4.3-7.4,7.3c-3.4,2.9-7.4,4.3-11.8,4.3c-4.5,0-8.4-1.6-11.7-4.8
				c-3.3-3.2-4.9-7.1-4.9-11.6c0-5,1.6-9.2,4.7-12.6c3.1-3.4,7.1-5.1,12.1-5.1c7,0,12.4,3.4,16,10.3l-22.1,12.3l-2.6-4.8l16.3-9
				c-2-2-4.6-3.1-7.6-3.1c-3.2,0-5.8,1.1-7.7,3.4c-1.9,2.3-2.8,5.1-2.8,8.4c0,3,1,5.6,3.1,7.7c2.1,2.1,4.6,3.1,7.7,3.1
				c3.3,0,5.8-0.9,7.6-2.8c1.5-1.6,3.4-4.1,8.6-7.4L96.6,121.4z"/>
		</g>
		<g>
			<path fill="#231F20" d="M141.8,132.2h-6V99.5h6V132.2z"/>
		</g>
		<g>
			<path fill="#211F11" d="M165.1,132.2h-7.6c-3.3,0-5.8-0.9-7.5-2.7c-1.7-1.8-2.6-4.3-2.6-7.6V91.2h5.9v8.3h11.7v5.7h-11.7v17.9
				c0,1.1,0.5,1.9,1.4,2.5c0.8,0.5,1.7,0.8,2.9,0.8h7.4V132.2z"/>
		</g>
		<g>
			<path fill="#211F11" d="M202.1,132.2H196v-18.9c0-2.9-1.1-5.1-3.3-6.7c-2-1.4-4.5-2.1-7.4-2.1c-3.3,0-5.9,1-7.8,3.1
				c-1.9,2-2.9,4.7-2.9,8c0,3.2,1,5.9,2.9,8.1c2,2.3,4.6,3.5,7.8,3.5c3.2,0,6-1.5,8.4-4.6v7.2c-1.9,1.2-3.3,2-4.2,2.3
				c-1.3,0.5-2.9,0.7-4.8,0.7c-4.7,0-8.6-1.7-11.6-5.2c-3-3.3-4.5-7.3-4.5-12.1c0-5.2,1.6-9.3,4.7-12.3c3.1-3,7.3-4.5,12.5-4.5
				c4.7,0,8.5,1.3,11.6,3.9c3.2,2.8,4.8,6.5,4.8,11.1V132.2z"/>
		</g>
		<g>
			<path fill="#211F11" d="M233.8,132.2h-6v-19.3c0-2.4-0.8-4.4-2.2-6c-1.5-1.7-3.4-2.5-5.7-2.5c-2.2,0-4.1,0.8-5.6,2.3
				c-1.6,1.6-2.3,3.4-2.3,5.6v19.8h-6.1v-19.9c0-3.9,1.4-7.1,4.1-9.7c2.7-2.6,6.1-3.9,10-3.9c3.9,0,7.3,1.4,9.9,4.1
				c2.7,2.7,4,6.1,4,10V132.2z"/>
		</g>
	</g>
	<g>
		<polygon fill="#231F20" points="110.7,131.2 97.9,99.7 105.4,99.7 114.9,125.1 124.9,99.7 132,99.7 118.6,131.2 		"/>
	</g>
	<g>
		<g>
			<path fill="#211F11" d="M249.2,122h-10.1v-4.6h10.1V122z"/>
		</g>
		<g>
			<path fill="#EF4138" d="M273,130.7h-4.9v-14.1h-11.2v14.1h-4.8V98.8h4.8v12.8h11.2V98.8h4.9V130.7z"/>
		</g>
		<g>
			<path fill="#EF4138" d="M293.7,103.9h-7v26.9h-4.8v-26.9h-7v-5h18.8V103.9z"/>
		</g>
		<g>
			<path fill="#EF4138" d="M313.6,130.7h-16.1c-1,0-1.9-0.3-2.6-0.9c-0.8-0.7-1.2-1.5-1.2-2.6c0-1.4,0.4-2.7,1.3-4.1l12.7-19.2
				h-12.4v-5h14.3c2.4,0,3.5,1.1,3.5,3.3c0,1.4-0.4,2.8-1.3,4.2l-12.5,19.4h14.3V130.7z"/>
		</g>
	</g>
</g>
</svg>
