<?xml version="1.0" encoding="utf-8"?>
<!-- Generator: Adobe Illustrator 18.0.0, SVG Export Plug-In . SVG Version: 6.00 Build 0)  -->
<!DOCTYPE svg PUBLIC "-//W3C//DTD SVG 1.1//EN" "http://www.w3.org/Graphics/SVG/1.1/DTD/svg11.dtd">
<svg version="1.1" id="Layer_1" xmlns="http://www.w3.org/2000/svg" xmlns:xlink="http://www.w3.org/1999/xlink" x="0px" y="0px"
	 viewBox="0 0 360 216" enable-background="new 0 0 360 216" xml:space="preserve">
<rect fill="none" width="360" height="216"/>
<g>
	<path d="M325.7-86.3c-3.1,0-5.9-2.4-5.9-5.9c0-3.4,2.7-5.9,5.9-5.9c3.4,0,6,2.7,5.9,6C331.6-89,329.1-86.3,325.7-86.3z M325.7-97.7
		c-3.1,0-5.4,2.4-5.4,5.4c0,3,2.4,5.4,5.4,5.4c3,0,5.4-2.4,5.4-5.4C331.1-95.2,328.8-97.7,325.7-97.7z M325.6-96
		c0.9,0,1.3,0,1.7,0.2c0.7,0.3,1.1,1,1.1,1.7c0,1-0.7,1.6-1.7,1.8c0.8,0.3,1,0.7,1.2,1.6c0.2,1.1,0.2,1.5,0.5,2.1h-1.2
		c-0.2-0.3-0.2-0.7-0.3-1c0-0.2-0.2-1-0.2-1.2c-0.2-1.1-0.8-1.2-1.9-1.2h-0.5v3.4h-1.1V-96H325.6z M324.4-92.9h1.2
		c0.5,0,1.7,0,1.7-1.2c0-0.3-0.1-0.6-0.3-0.8c-0.3-0.3-0.7-0.3-1.6-0.3h-1V-92.9z"/>
</g>
<g>
	<g>
		<path d="M318.5,104.4h-1v-8.1h-2.9v-0.9h6.8v0.9h-2.9V104.4z"/>
		<path d="M326.7,104.4l-3.1-8h0c0.1,0.6,0.1,1.4,0.1,2.3v5.7h-1v-9h1.6l2.9,7.4h0l2.9-7.4h1.6v9h-1v-5.8c0-0.7,0-1.4,0.1-2.2h0
			l-3.1,8H326.7z"/>
	</g>
</g>
<g>
	<g>
		<path fill="#231F20" d="M173,84.7c-0.3,0-0.4-0.2-0.8-1.5c-0.1-0.3-0.2-0.7-0.3-1.1c-0.9-2.6-3-2.5-3-2.5c-1.8-0.2-3.5,3-3.7,3.8
			c-0.2,0.6-0.5,1.3-0.9,1.3c-0.9,0.1-7.8,0.2-11.6-0.1c-2.1-0.1-2.9-2.2-3.7-5c-0.3-1-0.5-1.8-0.9-2.4c-0.6-1-1.5-1.6-2.4-1.6
			c-1-0.1-2,0.4-2.7,1.3c-0.6,0.8-1.4,2.3-2.3,4.1c-0.4,0.7-0.8,1.5-1.2,2.2c-0.9,1.5-2.4,1.6-3.8,1.5c-0.2,0-0.4,0-0.5,0
			c-1.2,0-1.8,0.1-2.2,1.5c-0.1,0.4-0.8,2.6-1.4,4.6c-0.8-6.3-2.4-18-2.7-20.1c-0.4-2.4-1.6-2.6-2.1-2.6c-0.8,0.1-1.7,0.9-1.7,3
			c0,1.6-1.2,11.2-2.1,18.6c-0.2-1-0.4-1.9-0.6-2.4c-0.4-2-0.8-2.6-2.9-2.6h-4.9c-0.1,0-0.1,0-0.2,0c-0.1-0.1-0.3-0.3-0.7-1
			c-0.7-1.6-1.8-4-3.8-3.7c-1.1,0.2-2,1.6-2.9,3.1c-0.3,0.6-0.8,1.4-1,1.6c-0.3,0.2-2,0.3-3.6,0.2c-0.4,0-0.9,0.3-0.9,0.8
			c0,0.5,0.3,0.9,0.8,0.9c1.1,0.1,3.7,0.1,4.6-0.5c0.5-0.3,0.9-1,1.6-2.2c0.4-0.7,1.3-2.1,1.6-2.3c0.7-0.1,1.7,2,2,2.7
			c0.5,1,1,1.7,1.7,1.9c0.4,0.1,0.7,0.1,0.9,0h4.7c0.2,0,0.7,0,0.8,0c0.1,0.1,0.3,0.8,0.3,1.1c0.4,1.7,1.6,6.8,1.7,7.1
			c0.1,0.4,0.4,0.7,0.9,0.7c0.4,0,0.8-0.3,0.8-0.8c0.1-0.9,2.7-21,2.7-23.5c0-0.3,0-0.6,0.1-0.8c0.1,0.2,0.1,0.4,0.2,0.7
			c0.5,2.7,3.2,23.7,3.2,23.9c0.1,0.4,0.4,0.7,0.8,0.8c0,0,0.1,0,0.1,0c0.4,0,0.7-0.2,0.8-0.6c0.1-0.3,2.4-7.5,2.6-8.4
			c0-0.1,0.1-0.2,0.1-0.2c0.2,0,0.5,0,0.9,0c1.3,0.1,4,0.2,5.5-2.4c0.4-0.8,0.8-1.5,1.2-2.3c0.9-1.6,1.7-3.2,2.2-3.8
			c0.2-0.3,0.7-0.6,1.2-0.6c0.4,0,0.7,0.3,1,0.8c0.2,0.4,0.5,1.2,0.7,2c0.7,2.4,1.8,6,5.3,6.2c4,0.3,10.9,0.2,11.9,0.1
			c1.1-0.1,2-1,2.5-2.6c0.2-0.8,1.4-2.5,2-2.5c0,0,0.9,0,1.4,1.3c0.1,0.4,0.2,0.7,0.3,1.1c0.4,1.4,0.8,2.7,2.4,2.8
			c0.8,0.1,2.7,0,4.2,0v-1.7C175.7,84.8,173.8,84.8,173,84.7z"/>
	</g>
	<g>
		<path fill="#EF4138" d="M181.9,79.2c-3.3,0-6,2.7-6,6c0,3.3,2.7,6,6,6c3.3,0,6-2.7,6-6C187.9,81.8,185.2,79.2,181.9,79.2z
			 M185.4,86.6h-2.4v2.4h-2.5v-2.4h-2.4V84h2.4v-2.4h2.5V84h2.4V86.6z"/>
	</g>
	<g>
		<g>
			<path fill="#231F20" d="M71.3,129.6c0,5.5-1.8,9.7-5.4,12.8c-3.4,2.9-7.8,4.3-13.4,4.3H28.3v-8.4h23.5c7.1,0,10.7-2.9,10.7-8.6
				c0-3.7-2.9-7.1-8.7-10.2c-5.3-2.8-10.7-5.6-16.1-8.5c-5.8-3.9-8.7-8.8-8.7-14.6c0-4.7,1.6-8.7,4.8-11.8c3.2-3.1,7.2-4.7,11.9-4.7
				h22.8v8.4H45.7c-2.4,0-4.3,0.7-5.8,2.1c-1.5,1.4-2.2,3.3-2.2,5.7c0,3.2,2.9,6.4,8.8,9.4c10,5.1,15.4,8,16.2,8.6
				C68.4,118.4,71.3,123.5,71.3,129.6z"/>
		</g>
		<g>
			<path fill="#231F20" d="M123.7,131.7c-6.3,5.9-5.1,6-10.3,10.2c-4.8,4-10.3,6-16.5,6c-6.3,0-11.7-2.2-16.3-6.8
				c-4.6-4.5-6.9-9.9-6.9-16.2c0-7,2.2-12.9,6.5-17.6c4.3-4.8,10-7.2,16.9-7.2c9.8,0,17.3,4.8,22.3,14.5l-30.8,17.1l-3.6-6.7
				l22.7-12.6c-2.9-2.9-6.4-4.3-10.7-4.3c-4.5,0-8.1,1.6-10.7,4.8c-2.6,3.2-4,7.1-4,11.7c0,4.2,1.4,7.8,4.3,10.7
				c2.9,2.9,6.5,4.3,10.7,4.3c4.6,0,8.2-1.3,10.7-3.9c2.1-2.2,4.8-5.8,12-10.4L123.7,131.7z"/>
		</g>
		<g>
			<path fill="#231F20" d="M186.9,146.7h-8.4v-45.7h8.4V146.7z"/>
		</g>
		<g>
			<path fill="#211F11" d="M219.5,146.7h-10.6c-4.6,0-8.1-1.2-10.5-3.7c-2.4-2.5-3.6-6-3.6-10.6v-43h8.3v11.6h16.4v8h-16.4v25
				c0,1.5,0.7,2.7,2,3.5c1.1,0.8,2.4,1.1,4,1.1h10.4V146.7z"/>
		</g>
		<g>
			<path fill="#211F11" d="M271.2,146.7h-8.6v-26.4c0-4-1.6-7.1-4.7-9.3c-2.8-2-6.2-2.9-10.4-2.9c-4.6,0-8.2,1.4-10.9,4.3
				c-2.7,2.9-4,6.6-4,11.1c0,4.5,1.4,8.3,4.1,11.3c2.8,3.2,6.4,4.9,10.8,4.9c4.4,0,8.3-2.1,11.7-6.4v10.1c-2.7,1.7-4.6,2.8-5.8,3.2
				c-1.8,0.7-4.1,1-6.7,1c-6.5,0-11.9-2.4-16.3-7.2c-4.2-4.6-6.3-10.3-6.3-16.9c0-7.2,2.2-12.9,6.6-17.1c4.4-4.2,10.2-6.3,17.4-6.3
				c6.5,0,11.9,1.8,16.2,5.4c4.5,3.9,6.8,9,6.8,15.5V146.7z"/>
		</g>
		<g>
			<path fill="#211F11" d="M315.4,146.7H307v-26.9c0-3.3-1-6.1-3.1-8.4c-2.1-2.3-4.7-3.5-8-3.5c-3,0-5.7,1.1-7.8,3.3
				c-2.2,2.2-3.3,4.8-3.3,7.8v27.7h-8.6v-27.9c0-5.4,1.9-9.9,5.8-13.5c3.8-3.6,8.5-5.4,13.9-5.4c5.5,0,10.1,1.9,13.9,5.7
				c3.7,3.8,5.6,8.5,5.6,14V146.7z"/>
		</g>
	</g>
	<g>
		<polygon fill="#231F20" points="143.5,145.4 125.6,101.4 136,101.4 149.3,136.8 163.3,101.4 173.2,101.4 154.5,145.4 		"/>
	</g>
</g>
</svg>
