<?xml version="1.0" encoding="utf-8"?>
<!-- Generator: Adobe Illustrator 18.0.0, SVG Export Plug-In . SVG Version: 6.00 Build 0)  -->
<!DOCTYPE svg PUBLIC "-//W3C//DTD SVG 1.1//EN" "http://www.w3.org/Graphics/SVG/1.1/DTD/svg11.dtd">
<svg version="1.1" id="Layer_1" xmlns="http://www.w3.org/2000/svg" xmlns:xlink="http://www.w3.org/1999/xlink" x="0px" y="0px"
	 viewBox="0 0 180 80" enable-background="new 0 0 180 80" xml:space="preserve">
<g>
	<g>
		<g>
			<path d="M16.5,54.8l0.8-4.4h0.8l-0.3,1.9l2.1-1.9h0.9l-2.3,2l1.6,2.4h-0.9l-1.5-2.3l-0.4,2.3H16.5z"/>
			<path d="M21.1,54.8l0.8-4.4h3l-0.1,0.5h-2.2l-0.3,1.4h2.2l-0.1,0.5h-2.2L22,54.4h2.2l-0.1,0.5h-3V54.8z"/>
			<path d="M26.6,54.8l0.7-3.9h-1.5l0.1-0.5h3.7l-0.1,0.5h-1.4l-0.7,3.9H26.6z"/>
			<path d="M32.8,54.1c-0.2,0.2-0.5,0.3-0.9,0.3c-0.2,0-0.4,0-0.6-0.1c-0.1-0.1-0.2-0.2-0.3-0.3c0-0.1-0.1-0.2,0-0.4
				c0-0.2,0.1-0.5,0.1-0.9c0.1-0.5,0.2-0.9,0.3-1c0.1-0.2,0.2-0.3,0.3-0.4c0.1-0.1,0.2-0.2,0.4-0.2c0.1,0,0.3-0.1,0.5-0.1
				c0.4,0,0.7,0.1,0.8,0.3s0.1,0.7,0,1.4C33.2,53.4,33,53.9,32.8,54.1z M34.3,51.4c0-0.2-0.1-0.5-0.3-0.6c-0.1-0.1-0.3-0.2-0.6-0.3
				c-0.2-0.1-0.5-0.1-0.8-0.1c-0.4,0-0.7,0-1,0.1s-0.5,0.2-0.7,0.4c-0.1,0.1-0.3,0.3-0.3,0.6c-0.1,0.2-0.2,0.6-0.3,1.1
				c-0.1,0.6-0.2,1-0.1,1.3c0,0.3,0.1,0.4,0.3,0.6c0.1,0.1,0.3,0.2,0.6,0.3c0.2,0.1,0.5,0.1,0.8,0.1c0.4,0,0.7-0.1,1-0.2
				c0.3-0.1,0.5-0.2,0.7-0.4c0.1-0.1,0.3-0.3,0.3-0.6c0.1-0.2,0.2-0.6,0.3-1.1S34.3,51.6,34.3,51.4z"/>
			<path d="M36.8,50.9h0.9c0.3,0,0.5,0.1,0.7,0.2c0.1,0.1,0.2,0.3,0.1,0.5c-0.1,0.3-0.2,0.5-0.4,0.6s-0.6,0.2-1,0.2h-0.6L36.8,50.9z
				 M36.1,50.4l-0.8,4.4h0.8l0.4-2h1c0.3,0,0.4,0,0.5,0.1s0.1,0.3,0.1,0.5c0,0.1,0,0.2-0.1,0.4c-0.1,0.5-0.1,0.8,0,1h0.8
				c0-0.1,0-0.3,0-0.4c0-0.1,0-0.3,0-0.5c0,0,0-0.1,0-0.2c0-0.1,0-0.2,0.1-0.2c0.1-0.3,0-0.5-0.1-0.7c-0.1-0.1-0.3-0.2-0.7-0.2
				c0.4-0.1,0.7-0.2,0.9-0.4s0.3-0.4,0.4-0.7c0.1-0.4,0-0.6-0.3-0.8s-0.7-0.3-1.4-0.3C37.7,50.4,36.1,50.4,36.1,50.4z"/>
			<path d="M43.2,54.1c-0.2,0.2-0.5,0.3-0.9,0.3c-0.2,0-0.4,0-0.6-0.1c-0.1-0.1-0.2-0.2-0.3-0.3c0-0.1-0.1-0.2,0-0.4
				c0-0.2,0-0.5,0.1-0.9c0.1-0.5,0.2-0.9,0.3-1c0.1-0.2,0.2-0.3,0.3-0.4c0.1-0.1,0.2-0.2,0.4-0.2c0.1,0,0.3-0.1,0.5-0.1
				c0.4,0,0.7,0.1,0.8,0.3s0.1,0.7,0,1.4C43.6,53.4,43.4,53.9,43.2,54.1z M44.6,51.4c0-0.2-0.1-0.5-0.3-0.6
				c-0.1-0.1-0.3-0.2-0.5-0.3s-0.5-0.1-0.8-0.1c-0.4,0-0.7,0-1,0.1s-0.5,0.2-0.7,0.4c-0.1,0.1-0.2,0.3-0.3,0.6
				c-0.1,0.2-0.2,0.6-0.3,1.1c-0.1,0.6-0.2,1-0.1,1.3c0,0.3,0.1,0.4,0.3,0.6c0.1,0.1,0.3,0.2,0.6,0.3c0.2,0.1,0.5,0.1,0.8,0.1
				c0.4,0,0.7-0.1,1-0.2c0.3-0.1,0.5-0.2,0.7-0.4c0.1-0.1,0.3-0.3,0.3-0.6c0.1-0.2,0.2-0.6,0.3-1.1C44.6,52.1,44.7,51.6,44.6,51.4z"
				/>
			<path d="M45.6,54.8l0.8-4.4h0.8l-0.7,3.9h2.1l-0.1,0.5H45.6z"/>
			<path d="M52.4,51.1l0.5,2.1h-1.7L52.4,51.1z M54,54.8l-1-4.4h-1l-2.7,4.4h0.9l0.6-1.1h2.1l0.2,1.1H54z"/>
			<path d="M59,53.5L59,53.5c-0.1,0.5-0.3,0.8-0.7,1.1c-0.3,0.2-0.8,0.3-1.3,0.3c-0.3,0-0.5,0-0.7-0.1s-0.4-0.1-0.5-0.2
				c-0.2-0.2-0.3-0.4-0.4-0.7c0-0.3,0-0.8,0.1-1.4c0.1-0.5,0.2-0.8,0.3-1s0.2-0.4,0.4-0.6c0.2-0.2,0.4-0.3,0.7-0.4
				c0.3-0.1,0.6-0.1,0.9-0.1c0.5,0,0.9,0.1,1.2,0.3s0.3,0.6,0.3,1h-0.9v-0.1c0-0.3,0-0.5-0.1-0.6s-0.3-0.2-0.6-0.2
				c-0.2,0-0.3,0-0.5,0.1c-0.1,0.1-0.3,0.1-0.4,0.2c-0.1,0.1-0.2,0.2-0.3,0.5c-0.1,0.2-0.2,0.6-0.3,1.1c-0.1,0.7-0.1,1.1,0,1.3
				s0.4,0.3,0.8,0.3c0.3,0,0.6-0.1,0.7-0.2c0.2-0.1,0.3-0.4,0.3-0.7l0,0h1V53.5z"/>
		</g>
		<g>
			<path d="M161.2,25.1h0.5c0.4,0,0.6,0,0.8,0.1c0.1,0.1,0.2,0.2,0.2,0.4c0,0.6-0.6,0.6-0.8,0.6h-0.6L161.2,25.1L161.2,25.1z
				 M160.7,24.7v3.7h0.5v-1.7h0.2c0.5,0,0.8,0.1,0.9,0.6c0,0.1,0.1,0.5,0.1,0.6c0,0.2,0.1,0.3,0.1,0.5h0.6c-0.2-0.3-0.2-0.5-0.3-1.1
				c-0.1-0.4-0.2-0.7-0.6-0.8c0.4-0.1,0.8-0.4,0.8-0.9c0-0.3-0.2-0.7-0.5-0.8c-0.2-0.1-0.4-0.1-0.8-0.1
				C161.7,24.7,160.7,24.7,160.7,24.7z M164.6,26.5c0-1.6-1.2-2.9-2.8-2.9c-1.5,0-2.8,1.2-2.8,2.9c0,1.7,1.4,2.9,2.8,2.9
				C163.4,29.4,164.6,28.2,164.6,26.5z M164.4,26.5c0,1.5-1.1,2.7-2.6,2.7c-1.4,0-2.6-1.2-2.6-2.7s1.1-2.7,2.6-2.7
				C163.3,23.9,164.4,25.1,164.4,26.5z"/>
			<g>
				<polygon fill="#005BAA" points="32.9,29.9 34.4,25.2 17.3,25.2 16,29.9 21.6,29.9 17.9,45.7 23.6,45.7 27.2,29.9 				"/>
				<path fill="#005BAA" d="M47.5,32.7c0.4-6.3-2.6-7.2-3.5-7.4c-6.2-1.6-9.3,4.9-9.9,6.4c-3.5,9-0.8,11.7-0.3,12.6
					c1.7,2.7,6.3,2.1,7.9,0.9c0.8-0.6,2-2.1,2.4-2.7C47.3,37.8,47.4,34.4,47.5,32.7z M41.5,37.4c-0.3,1.2-1.2,3-2.1,3.4
					c-0.6,0.3-2,0.5-1.9-2.6c0.1-1.2,0.7-4.4,1-5c0.2-0.7,1.2-2.7,2.2-2.8c1.1-0.1,1.3,0.3,1.5,0.9C42.6,32.2,42.7,33.2,41.5,37.4z"
					/>
				<path fill="#005BAA" d="M63.4,32.4c0.2-0.9,0.9-4.6-1.7-6.4c-1-0.7-1.1-0.8-1.6-0.8c-0.7,0-7.7,0-8.1,0l-4.6,20.4h5.4l1.7-7.4
					l1,7.3H61l-1.8-8.4C60,37,62.8,35.7,63.4,32.4z M58.3,32.1c-0.2,0.7-0.3,1.4-1.1,1.9c-0.8,0.6-1.8,0.5-1.8,0.5l1.1-4.7
					C58.4,29.6,58.5,31.4,58.3,32.1z"/>
				<path fill="#005BAA" d="M72.4,25.2l-9.5,20.4h5.3l1-2.4H73l-0.2,2.4h4.8l1-20.4L72.4,25.2z M70.8,38.8l3.2-7.7l-0.5,7.7H70.8z"
					/>
				<path fill="#005BAA" d="M89.8,25.2h-5.3l-4.7,20.5c0,0,8.3,0,8.4,0c2.8-0.4,6.3-3.7,7.3-7.6c0.3-1,1.7-5.9-0.3-8.9
					C94.8,28.6,92.9,25.2,89.8,25.2z M90.9,37c-0.6,1.8-2.6,3.4-3.6,3.5s-1.1,0.1-1.6,0.1l2.1-9.6c0.4,0,1,0,1.4,0.1
					c0.4,0.1,1,0.3,1.2,0.5C92.3,33.7,91.2,36.2,90.9,37z"/>
				<polygon fill="#005BAA" points="119.3,41.3 123,25.3 117.7,25.3 113,45.7 122.7,45.7 123.6,41.4 				"/>
				<polygon fill="#005BAA" points="136.3,25.3 131,25.3 126.3,45.7 131.5,45.7 				"/>
				<polygon fill="#005BAA" points="152.1,25.3 149.6,36 146.3,25.3 141,25.3 136.3,45.7 141.5,45.7 144,35 147.4,45.7 152.6,45.7 
					157.4,25.3 				"/>
				<path fill="#005BAA" d="M113.1,32.8c0.4-6.3-2.6-7.2-3.5-7.4c-6.2-1.6-9.3,4.9-9.9,6.4c-3.5,9-0.9,11.7-0.3,12.6
					c1.4,2.1,6.2,1.6,8,0.4c0.8-0.5,1.9-1.6,2.3-2.2C112.9,37.9,113,34.5,113.1,32.8z M107.1,37.5c-0.3,1.2-1.2,3-2,3.4
					c-0.5,0.3-2.1,0.8-1.9-2.5c0.1-1.5,0.9-4.5,1.1-5c0.2-0.7,1-2.7,2.1-2.8c1.1-0.1,1.3,0.3,1.5,0.9
					C108.1,32.3,108.2,33.4,107.1,37.5z"/>
			</g>
		</g>
		<path d="M84.2,54.8l0.8-4.4h3l-0.1,0.5h-2.2l-0.3,1.4h2.2l-0.1,0.5h-2.2L85,54.3h2.2l-0.1,0.5H84.2z"/>
		<path d="M119.7,54.8l0.8-4.4h3l-0.1,0.5h-2.2l-0.3,1.4h2.2l-0.1,0.5h-2.2l-0.3,1.5h2.2l-0.1,0.5H119.7z"/>
		<path d="M89.5,54.8l0.7-3.9h-1.5l0.1-0.5h3.7l-0.1,0.5H91l-0.7,3.9H89.5z"/>
		<path d="M63.6,54.8l0.7-3.9h-1.5l0.1-0.5h3.7l-0.1,0.5h-1.4l-0.7,3.9H63.6z"/>
		<path d="M74.8,54.1c-0.2,0.2-0.5,0.3-0.9,0.3c-0.2,0-0.4,0-0.6-0.1c-0.1-0.1-0.2-0.2-0.3-0.3c0-0.1-0.1-0.2,0-0.4
			c0-0.2,0.1-0.5,0.1-0.9c0.1-0.5,0.2-0.9,0.3-1c0.1-0.2,0.2-0.3,0.3-0.4c0.1-0.1,0.2-0.2,0.4-0.2c0.1,0,0.3-0.1,0.5-0.1
			c0.4,0,0.7,0.1,0.8,0.3c0.1,0.2,0.1,0.7,0,1.4C75.2,53.4,75.1,53.9,74.8,54.1z M76.3,51.4c0-0.2-0.1-0.5-0.3-0.6
			c-0.1-0.1-0.3-0.2-0.6-0.3c-0.2-0.1-0.5-0.1-0.8-0.1c-0.4,0-0.7,0-1,0.1s-0.5,0.2-0.7,0.4c-0.1,0.1-0.3,0.3-0.3,0.6
			c-0.1,0.2-0.2,0.6-0.3,1.1c-0.1,0.6-0.2,1-0.1,1.3c0,0.3,0.1,0.4,0.3,0.6c0.1,0.1,0.3,0.2,0.6,0.3c0.2,0.1,0.5,0.1,0.8,0.1
			c0.4,0,0.7-0.1,1-0.2c0.3-0.1,0.5-0.2,0.7-0.4c0.1-0.1,0.3-0.3,0.3-0.6c0.1-0.2,0.2-0.6,0.3-1.1C76.3,52.1,76.3,51.6,76.3,51.4z"
			/>
		<path d="M68.9,50.9h0.9c0.3,0,0.5,0.1,0.7,0.2c0.1,0.1,0.2,0.3,0.1,0.5c-0.1,0.3-0.2,0.5-0.4,0.6c-0.2,0.1-0.6,0.2-1,0.2h-0.6
			L68.9,50.9z M68.2,50.4l-0.8,4.4h0.8l0.4-2h1c0.3,0,0.4,0,0.5,0.1s0.1,0.3,0.1,0.5c0,0.1,0,0.2-0.1,0.4c-0.1,0.5-0.1,0.8,0,1h0.8
			c0-0.1,0-0.3,0-0.4c0-0.1,0-0.3,0-0.5c0,0,0-0.1,0-0.2c0-0.1,0-0.2,0.1-0.2c0.1-0.3,0-0.5-0.1-0.7c-0.1-0.1-0.3-0.2-0.7-0.2
			c0.4-0.1,0.7-0.2,0.9-0.4c0.2-0.2,0.3-0.4,0.4-0.7c0.1-0.4,0-0.6-0.3-0.8s-0.7-0.3-1.4-0.3C69.8,50.4,68.2,50.4,68.2,50.4z"/>
		<path d="M102.2,51.1l0.5,2.1H101L102.2,51.1z M103.9,54.8l-1-4.4h-1l-2.7,4.4h0.9l0.6-1.1h2.1l0.2,1.1H103.9z"/>
		<path d="M111.8,54.8l0.8-4.4h0.8l-0.8,4.4H111.8z"/>
		<path d="M77,54.8l0.8-4.4h1.3l0.7,3c0,0.1,0,0.2,0.1,0.3c0,0.1,0,0.3,0.1,0.4c0.1-0.1,0.1-0.3,0.2-0.4c0.1-0.1,0.1-0.2,0.2-0.3
			l1.8-3h1.2l-0.8,4.4h-0.7l0.6-3.1c0-0.2,0.1-0.3,0.1-0.5c0-0.1,0.1-0.3,0.1-0.4l-2.5,4.1h-0.7l-1-4.1c0,0.2,0,0.3-0.1,0.5
			c0,0.2-0.1,0.4-0.1,0.6l-0.6,3L77,54.8L77,54.8z"/>
		<path d="M104.6,54.8l0.8-4.4h1.3l0.7,3c0,0.1,0,0.2,0.1,0.3c0,0.1,0,0.3,0.1,0.4c0.1-0.1,0.1-0.3,0.2-0.4c0.1-0.1,0.1-0.2,0.2-0.3
			l1.8-3h1.2l-0.8,4.4h-0.7l0.6-3.1c0-0.2,0.1-0.3,0.1-0.5c0-0.1,0.1-0.3,0.1-0.4l-2.5,4.1h-0.7l-1-4.1c0,0.2,0,0.3-0.1,0.5
			c0,0.2-0.1,0.4-0.1,0.6l-0.6,3L104.6,54.8L104.6,54.8z"/>
		<path d="M117.6,54.3c0-0.1,0-0.3,0.1-0.4c0-0.1,0-0.3,0.1-0.4l0.6-3.1h0.7l-0.8,4.4h-1.1l-1.6-4c0,0.2,0,0.4,0,0.5s0,0.2,0,0.3
			l-0.6,3.2h-0.7l0.8-4.4h1.1L117.6,54.3z"/>
		<polygon points="97.7,50.4 97.2,52.3 94.7,52.3 95.1,50.4 94.3,50.4 93.3,54.8 94.1,54.8 94.6,52.9 97.1,52.9 96.6,54.8 
			97.4,54.8 98.5,50.4 		"/>
	</g>
</g>
</svg>
