<?xml version="1.0" encoding="utf-8"?>
<!-- Generator: Adobe Illustrator 18.0.0, SVG Export Plug-In . SVG Version: 6.00 Build 0)  -->
<!DOCTYPE svg PUBLIC "-//W3C//DTD SVG 1.1//EN" "http://www.w3.org/Graphics/SVG/1.1/DTD/svg11.dtd">
<svg version="1.1" id="Layer_1" xmlns="http://www.w3.org/2000/svg" xmlns:xlink="http://www.w3.org/1999/xlink" x="0px" y="0px"
	 viewBox="0 0 180 80" enable-background="new 0 0 180 80" xml:space="preserve">
<g>
	<polygon fill="#20A0DB" points="16.8,44.9 14.2,44.9 14.2,27.5 7.2,27.5 7.2,25.3 23.6,25.3 23.6,27.5 16.8,27.5 	"/>
	<path fill="#20A0DB" d="M27,44.9h-2.4v-13c0.4,0,0.8-0.1,1.3-0.2c0.4-0.1,0.8-0.2,1.3-0.3c0.5-0.1,0.9-0.2,1.5-0.3
		c0.5-0.1,1.1-0.2,1.7-0.2c1.3,0,2.4,0.3,3.2,0.8c0.8,0.5,1.1,1.4,1.1,2.7v0.5h-2.5v-0.4c0-0.6-0.2-1.1-0.5-1.3
		c-0.3-0.2-0.9-0.4-1.8-0.4c-0.4,0-0.7,0-1.1,0.1c-0.3,0.1-0.6,0.2-0.9,0.3c-0.3,0.1-0.5,0.3-0.6,0.5C27,33.9,27,34.2,27,34.5V44.9z
		"/>
	<path fill="#20A0DB" d="M39.3,27.7h-2.4v-2.9h2.4V27.7z M39.3,44.9h-2.4V31.2h2.4V44.9z"/>
	<path fill="#2F358F" d="M36.9,49.8h12.5c1.6,0,2.8-0.3,3.6-0.9c0.8-0.6,1.2-1.6,1.2-3v-1.6c-0.7,0.3-1.3,0.5-1.9,0.6
		c-0.6,0.1-1.4,0.2-2.3,0.2c-1.2,0-2.2-0.1-3-0.3c-0.8-0.2-1.5-0.6-2.1-1c-0.5-0.5-0.9-1-1.2-1.7c-0.2-0.7-0.4-1.4-0.4-2.2v-3.5
		c0-0.9,0.1-1.7,0.4-2.3c0.2-0.7,0.6-1.2,1.2-1.7s1.2-0.8,2.1-1.1c0.8-0.2,1.9-0.4,3-0.4c0.8,0,1.5,0.1,2.2,0.2
		c0.7,0.1,1.4,0.3,2.1,0.5c0.4,0.1,0.9,0.2,1.2,0.3c0.4,0.1,0.7,0.1,1.1,0.1v13.5c0,2.1-0.6,3.7-1.7,4.7c-1.2,1-3,1.6-5.5,1.6H36.9
		 M49.3,51.8H36.9 M36.9,49.8h12.5 M54.1,35c0-0.7-0.3-1.2-1-1.6c-0.7-0.4-1.7-0.6-3.3-0.6c-0.9,0-1.6,0.1-2.1,0.2
		c-0.5,0.1-1,0.3-1.3,0.6c-0.3,0.3-0.5,0.7-0.6,1.2c-0.1,0.5-0.2,1.1-0.2,1.8v3.2c0,0.7,0.1,1.3,0.2,1.7c0.1,0.5,0.4,0.8,0.7,1.1
		c0.3,0.3,0.8,0.5,1.3,0.6c0.5,0.1,1.2,0.2,2,0.2c0.8,0,1.5-0.1,2.1-0.2c0.5-0.1,1-0.3,1.3-0.6c0.3-0.3,0.5-0.7,0.7-1.1
		c0.1-0.5,0.2-1.1,0.2-1.8V35z"/>
	<path fill="#2F358F" d="M63.4,27.7h-2.4v-2.9h2.4V27.7z M63.4,44.9h-2.4V31.2h2.4V44.9z"/>
	<path fill="#2F358F" d="M80.8,44.9h-2.4v-8.4c0-0.7-0.1-1.3-0.2-1.8c-0.1-0.5-0.3-0.9-0.6-1.2c-0.3-0.3-0.7-0.5-1.2-0.6
		c-0.5-0.1-1.2-0.2-2-0.2c-0.8,0-1.4,0.1-2,0.2c-0.5,0.1-1,0.3-1.3,0.4c-0.3,0.2-0.5,0.4-0.7,0.6c-0.1,0.2-0.2,0.5-0.2,0.8v10.1
		h-2.4V32c0.4,0,0.8-0.1,1.2-0.1c0.4-0.1,0.8-0.2,1.2-0.3c0.6-0.2,1.3-0.4,2-0.5c0.7-0.1,1.4-0.2,2.2-0.2c1.2,0,2.2,0.1,3,0.3
		c0.8,0.2,1.5,0.5,2,1c0.5,0.5,0.9,1,1.1,1.7c0.2,0.7,0.3,1.5,0.3,2.4V44.9z"/>
	<path fill="#2F358F" d="M96.9,44.3c-0.4,0-0.8,0.1-1.2,0.2c-0.4,0.1-0.8,0.2-1.1,0.3c-0.6,0.1-1.2,0.3-1.9,0.4
		c-0.7,0.1-1.4,0.2-2.2,0.2c-1.2,0-2.2-0.1-2.9-0.3c-0.8-0.2-1.4-0.5-1.8-0.8c-0.4-0.4-0.7-0.8-0.9-1.3c-0.2-0.5-0.2-1-0.2-1.6V41
		c0-0.5,0-1,0.1-1.4c0.1-0.5,0.3-0.9,0.7-1.3c0.4-0.4,1-0.7,1.9-0.9c0.8-0.2,2.1-0.3,3.6-0.3c0.2,0,0.5,0,0.8,0c0.3,0,0.6,0,1,0
		c0.3,0,0.7,0,1,0c0.3,0,0.6,0,0.8,0v-1.6c0-0.5,0-0.9-0.1-1.3c-0.1-0.4-0.2-0.7-0.4-0.9c-0.2-0.2-0.6-0.4-1.1-0.5
		c-0.5-0.1-1.1-0.2-2-0.2c-0.7,0-1.2,0-1.7,0.1c-0.4,0.1-0.8,0.2-1,0.4c-0.2,0.2-0.4,0.4-0.5,0.6c-0.1,0.2-0.1,0.5-0.1,0.8v0.1h-2.4
		c0-0.6,0.1-1.2,0.3-1.7c0.2-0.5,0.5-0.9,0.9-1.2c0.4-0.3,1-0.6,1.7-0.8c0.7-0.2,1.6-0.3,2.7-0.3c1.2,0,2.2,0.1,3,0.3
		c0.8,0.2,1.4,0.5,1.9,0.9c0.5,0.4,0.8,0.9,0.9,1.6c0.2,0.6,0.3,1.4,0.3,2.2V44.3z M94.5,38.8c-0.1,0-0.3,0-0.6-0.1
		c-0.3,0-0.5,0-0.8-0.1c-0.3,0-0.6,0-1,0c-0.3,0-0.7,0-0.9,0c-0.9,0-1.5,0-2.1,0.1c-0.5,0.1-0.9,0.2-1.2,0.4
		c-0.3,0.2-0.5,0.4-0.6,0.7c-0.1,0.3-0.1,0.6-0.1,1v0.7c0,0.7,0.2,1.2,0.7,1.5c0.5,0.3,1.4,0.5,2.7,0.5c0.8,0,1.4,0,1.9-0.1
		c0.5-0.1,0.9-0.2,1.2-0.4c0.3-0.2,0.5-0.4,0.6-0.6c0.1-0.2,0.2-0.5,0.2-0.8V38.8z"/>
	<rect x="101.2" y="23.9" fill="#2F358F" width="2.4" height="21"/>
	<g>
		<polygon fill="#010101" points="106.5,25.2 106,25.2 106,21.9 104.7,21.9 104.7,21.5 107.8,21.5 107.8,21.9 106.5,21.9 		"/>
		<polygon fill="#010101" points="112.4,25.2 112,25.2 111.7,21.9 111.7,21.9 110.6,25.2 110,25.2 108.9,21.9 108.9,21.9 
			108.6,25.2 108.2,25.2 108.6,21.5 109.3,21.5 110.4,24.8 111.4,21.5 112.1,21.5 		"/>
	</g>
	<polygon fill="#20A0DB" points="146.3,44.9 143.8,44.9 142.2,27.6 142.2,27.6 136.7,44.9 133.4,44.9 127.8,27.6 127.7,27.6 
		126.1,44.9 123.9,44.9 125.8,25.3 129.6,25.3 135.3,42.6 140.6,25.3 144.3,25.3 	"/>
	<path fill="#20A0DB" d="M166.6,44.9h-3.1l-4.4-7.5H153v7.5h-2.6V25.3h9.5c2.2,0,3.8,0.5,4.9,1.6c1,1,1.5,2.5,1.5,4.3
		c0,1.7-0.4,3-1.2,4c-0.8,1-1.9,1.6-3.3,1.9L166.6,44.9z M159.1,35.1c0.9,0,1.6-0.1,2.1-0.2c0.6-0.1,1-0.3,1.4-0.6
		c0.4-0.3,0.6-0.7,0.7-1.2c0.1-0.5,0.2-1.1,0.2-1.9c0-0.6-0.1-1.2-0.2-1.6c-0.1-0.5-0.4-0.8-0.7-1.1c-0.3-0.3-0.8-0.5-1.4-0.7
		c-0.6-0.1-1.4-0.2-2.3-0.2H153v7.6H159.1z"/>
	<path fill="#F6967A" d="M59.1,51.4h47l1.4,3.9c0.1,0.3,0.3,0.5,0.6,0.5c0.3,0,0.5-0.2,0.6-0.5l1.6-5.2l1.9,9.3
		c0.1,0.3,0.3,0.6,0.7,0.6h0c0.3,0,0.6-0.3,0.6-0.6l2.1-15.3l1.5,6.7c0.1,0.3,0.3,0.5,0.7,0.5h49.5l-0.8-1.4h-48.2l-2.2-9.8
		c-0.1-0.3-0.4-0.6-0.7-0.5c-0.3,0-0.6,0.3-0.6,0.6l-2.1,15l-1.6-8c-0.1-0.3-0.3-0.5-0.6-0.6c-0.3,0-0.6,0.2-0.7,0.5l-1.8,5.8
		l-0.8-2.4c-0.1-0.3-0.3-0.5-0.6-0.5H60.2C59.8,50.9,59.1,51.4,59.1,51.4"/>
</g>
</svg>
