<?xml version="1.0" encoding="utf-8"?>
<!-- Generator: Adobe Illustrator 18.0.0, SVG Export Plug-In . SVG Version: 6.00 Build 0)  -->
<!DOCTYPE svg PUBLIC "-//W3C//DTD SVG 1.1//EN" "http://www.w3.org/Graphics/SVG/1.1/DTD/svg11.dtd">
<svg version="1.1" id="Layer_1" xmlns="http://www.w3.org/2000/svg" xmlns:xlink="http://www.w3.org/1999/xlink" x="0px" y="0px"
	 viewBox="0 0 360 216" enable-background="new 0 0 360 216" xml:space="preserve">
<rect fill="none" width="360" height="216"/>
<g>
	<path d="M325.7,112.1c-3.1,0-5.9-2.4-5.9-5.9c0-3.4,2.7-5.9,5.9-5.9c3.4,0,6,2.7,5.9,6C331.6,109.5,329.1,112.1,325.7,112.1z
		 M325.7,100.8c-3.1,0-5.4,2.4-5.4,5.4c0,3,2.4,5.4,5.4,5.4c3,0,5.4-2.4,5.4-5.4C331.1,103.3,328.8,100.8,325.7,100.8z M325.6,102.5
		c0.9,0,1.3,0,1.7,0.2c0.7,0.3,1.1,1,1.1,1.7c0,1-0.7,1.6-1.7,1.8c0.8,0.3,1,0.7,1.2,1.6c0.2,1.1,0.2,1.5,0.5,2.1h-1.2
		c-0.2-0.3-0.2-0.7-0.3-1c0-0.2-0.2-1-0.2-1.2c-0.2-1.1-0.8-1.2-1.9-1.2h-0.5v3.4h-1.1v-7.4H325.6z M324.4,105.6h1.2
		c0.5,0,1.7,0,1.7-1.2c0-0.3-0.1-0.6-0.3-0.8c-0.3-0.3-0.7-0.3-1.6-0.3h-1V105.6z"/>
</g>
<g>
	<g>
		<path d="M485.3,66.5h-0.9v-6.8H482v-0.8h5.7v0.8h-2.4V66.5z"/>
		<path d="M492.1,66.5l-2.6-6.7h0c0,0.5,0.1,1.2,0.1,1.9v4.8h-0.8v-7.6h1.3l2.4,6.2h0l2.4-6.2h1.3v7.6h-0.9v-4.9
			c0-0.6,0-1.2,0.1-1.8h0l-2.6,6.7H492.1z"/>
	</g>
</g>
<g>
	<g>
		<path fill="#F58020" d="M187.3,90L187.3,90c-21.9,0-36.9,5.3-40.2,6.6c-0.5,0.2-0.7,0.3-0.7,0.3l-0.2,0.3
			c0.2-0.1,14.9-12.7,41-12.7c9.5,0,20.3,0.9,31.9,3.5C242.4,93,262.8,98,280.5,98c14.8,0,28.4-2,38.8-6.7
			c-11.4,5.1-29.5,9.9-44.8,9.9c-18.3,0-33.5-1.3-57-6.5C217.5,94.7,198.5,89.6,187.3,90"/>
		<polygon fill="#8DA7CB" points="132.6,55.8 133.1,54.6 131.9,54.6 121.7,54.6 121.1,54.6 120.9,55.1 117.9,62.1 129.8,62.1 		"/>
		<polygon fill="#3A74A6" points="129.8,62.1 117.9,62.1 113.7,71.6 125.5,71.6 		"/>
		<polygon fill="#02528A" points="113.7,71.6 85.9,135.2 83.6,82.9 83.5,82.1 82.8,82.1 72.2,82.1 71.7,82.1 71.4,82.6 42.6,134.5 
			40.6,71 40.5,70.2 39.8,70.2 29.2,70.2 28.3,70.2 28.4,71.1 31.6,151.7 31.6,152.5 32.4,152.5 44,152.5 44.5,152.5 44.7,152 
			73.3,100.3 75.8,151.7 75.9,152.5 76.6,152.5 88.7,152.5 89.2,152.5 89.4,152.1 125.5,71.6 		"/>
		<path fill="#02528A" d="M144,138.7l-0.4,3.1l-1.7,1.2l-3.4,2.2l-7,4.9c-3.1,2-5.3,3-6.7,3c-2,0-3-1.9-3-5.5c0-1.4,0.1-2.5,0.4-3.4
			l0.3-1.5l2.4-10.1l3-11.9c0.2-0.6,0.3-1.2,0.4-1.8c0.1-0.4,0.1-0.9,0.1-1.4c0-1.6-0.3-2.3-1-2.3c-0.9,0-1.8,0.2-2.5,0.6l-4.4,2.7
			l-1.4,0.8l0.2-3.2l1.1-0.8l4.8-3.3l5-3.2l1.7-0.8l1.8-1l2.3-0.8l1.4,0.7l0.1,1.5l-6.2,27.2c-0.6,2.5-0.9,4.4-0.9,5.7
			c-0.2,2.4,0.4,3.6,1.7,3.6c0.5,0,1.5-0.4,3.1-1.1c0.9-0.4,1.9-0.9,2.8-1.4l2.2-1.3l2.4-1.3L144,138.7z"/>
		<path fill="#F58020" d="M143.1,90.9l-6.9,6.1l-0.9-1.1c-0.9-1.4-1.6-2.5-1.9-3.2c-0.4-0.7-0.9-1.8-1.5-3.4l7.2-6L143.1,90.9z"/>
		<path fill="#02528A" d="M192.2,137.4l-0.2,1.5l-0.4,1.8c-0.4,0.7-2.2,2.1-5.4,4.2l-6.2,4.2c-2.5,1.7-5.2,3.2-8.2,4.7
			c-1.1-2.2-1.6-3.9-1.6-5.3l0.1-2.3l0.3-2.4l5.3-23.6l0.3-3.3c0-1.3-0.3-2-0.9-2c-0.5,0-0.9,0.2-1.3,0.4l-2.9,1.4l-5.1,3.2
			c-1.1,0.7-2.2,1.5-3.4,2.3c-1.2,0.8-2,1.3-2.3,1.5l-6.1,26.3L146,153l5.8-22.9l1.4-7c0.2-0.8,0.4-1.8,0.6-2.9
			c0.2-1.1,0.3-2.1,0.3-2.9c0-1.1,0-1.7-0.1-1.9c-0.1-0.3-0.5-0.4-1-0.4c-0.5,0-1.3,0.2-2.4,0.7c-1.1,0.5-3,1.4-5.8,2.8l0.4-3.1
			l1.2-0.7l4.9-2.9c2.4-1.5,4.8-2.8,6.9-3.9c2.2-1.1,3.5-1.6,4-1.6c0.9,0,1.4,0.5,1.4,1.6l-0.6,3.7l-0.7,2.8l-0.8,3.3l-0.3,1.4
			l1.2-0.8l12.3-7.7l2.3-1.3c3.1-2,5.2-3,6.5-3c1.5,0,2.3,0.7,2.3,2.1l-0.3,2c-3.1,12.4-5,20.1-5.6,23.4c-0.7,3.2-1,5.8-1,7.8
			c0,0.7,0,1.1,0.1,1.3c0.1,0.2,0.4,0.6,0.9,1.2c1,0,1.9-0.2,2.8-0.5c0.9-0.4,2.2-1.1,4.1-2.3l0.9-0.7l3.5-2.3L192.2,137.4z"/>
		<path fill="#02528A" d="M235.9,77.1l-4.3,6.3h-2.8c-3.2,0-5.4,0.2-6.6,0.5c-1.3,0.4-2.3,1.1-3.1,2.3c-1.4,2.1-2.6,4.7-3.4,7.6
			c-0.9,3-2.4,9.7-4.6,20.1l-0.3,1.7l1.1-0.8c4.7-3.5,8-5.9,10.1-7.1c2.1-1.1,4-1.7,5.8-1.7c4.6,0,6.9,2.9,6.9,8.7
			c0,3.3-0.6,7.1-1.6,11.4c-1.1,4.3-2.4,7.9-3.9,10.7c-1.1,2.1-2.2,3.7-3.4,4.8c-1.2,1.1-3.7,2.9-7.5,5.3l-5.8,3.7
			c-0.7,0.4-1.4,0.7-2.2,1.1c-0.8,0.3-1.8,0.5-3,0.5c-1.6,0-2.7-0.1-3.5-0.2c-0.8-0.1-2.1-0.6-4.2-1.3l-3.3,2.9l-1.1-0.4l6.3-28.9
			l1.7-9.3l1-4.8c1.1-5.4,1.9-8.9,2.3-10.5c0.4-1.6,0.9-3.3,1.5-5c1.1-2.9,3.1-5.7,6-8.2c3.7-3,6.3-5.1,7.9-6.3
			c1.6-1.2,3-2.1,4.1-2.6c1.1-0.6,2.8-0.9,5.1-0.9C232.3,76.7,233.9,76.9,235.9,77.1 M225.9,119.1c0-3.9-1.3-5.8-3.8-5.8
			c-2.3,0-5.5,1.6-9.7,4.8l-1.5,1.2l-1.1,0.9l-5.3,23.6c2.5,1.6,4.9,2.3,7.2,2.3c3.8,0,7.1-2.7,9.9-8.1
			C224.5,132.7,225.9,126.4,225.9,119.1"/>
		<path fill="#02528A" d="M284,140.4l-1.7,1.1l-4.1,3.1l-2.6,1.8l-4,2.9c-1.5,1.1-2.6,1.9-3.3,2.3c-0.7,0.4-1.7,0.8-3,1.3h-0.8h-0.8
			l-0.8-1l-0.1-1.7l0.5-4.6l0.5-3.4l0.2-1.3l-1.2,0.7l-6.2,4.7c-5.7,4.4-9.6,6.6-11.4,6.6c-1.5,0-2.7-0.8-3.6-2.3
			c-0.9-1.6-1.4-3.5-1.4-5.9c0-3.7,0.6-8.2,1.8-13.4c1.2-5.3,2.7-9.5,4.3-12.6c0.9-1.9,3.5-4.5,7.9-7.6c3.2-2.4,5.4-3.8,6.8-4.4
			c1.4-0.6,3.4-0.8,5.9-0.8c4.5,0,9.2,0.6,14.1,1.7l-2.8,3.7l-0.5,1.2l-1.9,8.1l-2.1,9.8l-1.1,5.7l-0.8,5c0,0.7,0.3,1.6,0.8,2.7
			l1.5-0.2c0.9-0.4,1.7-0.8,2.5-1.2c1-0.7,1.8-1.3,2.3-1.6l3.4-2.3l1.6-1.1L284,140.4z M270.4,112.7l-1.4-0.3l-2.4-0.4
			c-2.1-0.4-3.8-0.7-5.2-0.7c-2.8,0-5,1.3-6.6,4c-1.8,3-3.3,6.7-4.5,11.3c-1.2,4.6-1.8,8.6-1.8,12.2c0,1.8,0.3,3.2,0.8,4.4
			c0.6,1.1,1.3,1.7,2.3,1.7c0.5,0,1.1-0.1,1.8-0.4c0.7-0.3,1.5-0.7,2.3-1.3l5.9-4.2c1.8-1.2,2.8-2,3.1-2.4l0.6-2.7
			c0.1-1.3,0.3-2.4,0.5-3.3c0.2-0.9,0.7-2.5,1.3-4.9l2.8-11.5L270.4,112.7z"/>
		<path fill="#02528A" d="M317.3,141.1l-1.1,0.7c-5.4,3.9-9.2,6.5-11.3,7.7c-2,1.2-4.3,2.2-6.7,3c-1.1,0.3-2,0.5-2.7,0.7
			c-0.8,0.1-1.6,0.2-2.5,0.2c-5,0-7.5-3.5-7.5-10.5c0-4.9,0.7-9.9,2.3-15.1c1.5-5.2,3.3-8.9,5.5-11.2c2.5-2.7,6.4-5.5,11.6-8.6
			c1.6-1,3.1-1.5,4.3-1.5c2,0,3.6,0.7,4.7,2.1c1.2,1.4,1.7,3.3,1.7,5.8v1.2l-6.4,3.9c0-2.1-0.5-3.9-1.3-5.2c-0.9-1.3-2-1.9-3.4-1.9
			c-2.4,0-4.4,1.4-5.9,4.3c-1.5,2.9-2.7,6.4-3.7,10.7c-1,4.2-1.5,8-1.5,11.4c0,2.7,0.5,4.7,1.6,6.2c1.1,1.5,2.6,2.2,4.5,2.2
			c3.5,0,8.8-2.7,15.9-8l1.7-1.3L317.3,141.1z"/>
	</g>
</g>
</svg>
