<?xml version="1.0" encoding="utf-8"?>
<!-- Generator: Adobe Illustrator 18.0.0, SVG Export Plug-In . SVG Version: 6.00 Build 0)  -->
<!DOCTYPE svg PUBLIC "-//W3C//DTD SVG 1.1//EN" "http://www.w3.org/Graphics/SVG/1.1/DTD/svg11.dtd">
<svg version="1.1" id="Layer_1" xmlns="http://www.w3.org/2000/svg" xmlns:xlink="http://www.w3.org/1999/xlink" x="0px" y="0px"
	 viewBox="0 0 360 216" enable-background="new 0 0 360 216" xml:space="preserve">
<rect fill="none" width="360" height="216"/>
<g>
	<path d="M325.7-86.3c-3.1,0-5.9-2.4-5.9-5.9c0-3.4,2.7-5.9,5.9-5.9c3.4,0,6,2.7,5.9,6C331.6-89,329.1-86.3,325.7-86.3z M325.7-97.7
		c-3.1,0-5.4,2.4-5.4,5.4c0,3,2.4,5.4,5.4,5.4c3,0,5.4-2.4,5.4-5.4C331.1-95.2,328.8-97.7,325.7-97.7z M325.6-96
		c0.9,0,1.3,0,1.7,0.2c0.7,0.3,1.1,1,1.1,1.7c0,1-0.7,1.6-1.7,1.8c0.8,0.3,1,0.7,1.2,1.6c0.2,1.1,0.2,1.5,0.5,2.1h-1.2
		c-0.2-0.3-0.2-0.7-0.3-1c0-0.2-0.2-1-0.2-1.2c-0.2-1.1-0.8-1.2-1.9-1.2h-0.5v3.4h-1.1V-96H325.6z M324.4-92.9h1.2
		c0.5,0,1.7,0,1.7-1.2c0-0.3-0.1-0.6-0.3-0.8c-0.3-0.3-0.7-0.3-1.6-0.3h-1V-92.9z"/>
</g>
<g>
	<g>
		<path d="M318.5,104.2h-1v-8.1h-2.9v-0.9h6.8v0.9h-2.9V104.2z"/>
		<path d="M326.7,104.2l-3.1-8h0c0.1,0.6,0.1,1.4,0.1,2.3v5.7h-1v-9h1.6l2.9,7.4h0l2.9-7.4h1.6v9h-1v-5.8c0-0.7,0-1.4,0.1-2.2h0
			l-3.1,8H326.7z"/>
	</g>
</g>
<g>
	<g>
		<g>
			<g>
				<g>
					<g>
						<g>
							<path fill-rule="evenodd" clip-rule="evenodd" fill="#B9C4E4" d="M131.3,49.9c-1.9,14.3,11.2,41.9,3.3,58.1
								C134.6,89.9,119.8,83.6,131.3,49.9z"/>
						</g>
					</g>
					<g>
						<g>
							<path fill-rule="evenodd" clip-rule="evenodd" fill="#B9C4E4" d="M193,65.5c-2.7,13.7-12.9,27.7-38.7,32.1
								c-5.8,0.8-17,10.4,4.7,59.5c-21.4-26.3-30.2-44.4-13.7-62C161.8,80.3,181.8,86.1,193,65.5z"/>
						</g>
					</g>
				</g>
				<path fill-rule="evenodd" clip-rule="evenodd" fill="#F29230" d="M159.6,76c-3.8,5-9.4,7.1-12.7,4.7c-3.2-2.4-2.8-8.5,1-13.5
					c3.8-5,9.4-7.1,12.7-4.7C163.8,65,163.4,71,159.6,76z"/>
			</g>
		</g>
		<g>
			<g>
				<path fill="#034EA2" d="M66.2,134.9h-7.1l-12.2-19.2l-12.3,19.2h-6.3L44,111.2L29.4,89h7l11.2,17.6L58.9,89h6.3l-14.6,22.1
					L66.2,134.9z"/>
				<path fill="#034EA2" d="M98.2,126.3c0,6.4-4.6,9.5-13.8,9.5c-4.9,0-8.5-1-10.7-3.1c-2.3-2-3.4-5.2-3.4-9.3v-8.6
					c0-4.1,1.2-7.3,3.5-9.5c2.3-2.2,5.9-3.3,10.8-3.3c2.6,0,4.8,0.3,6.6,0.8c1.8,0.6,3.3,1.4,4.4,2.5c1.1,1.1,1.9,2.4,2.4,4
					c0.5,1.6,0.8,3.4,0.8,5.5v5.8H75.4v2.2c0,1.6,0.1,3,0.4,4.1c0.3,1.1,0.8,2,1.5,2.6c0.7,0.6,1.6,1.1,2.8,1.4
					c1.2,0.3,2.6,0.4,4.2,0.4c3.2,0,5.4-0.4,6.7-1.2c1.2-0.8,1.9-2.1,1.9-4H98.2z M93.3,116.5v-1.4c0-1.7-0.1-3.1-0.4-4.2
					c-0.3-1.1-0.7-2-1.4-2.7c-0.7-0.7-1.6-1.1-2.7-1.4c-1.2-0.3-2.6-0.4-4.4-0.4c-1.8,0-3.3,0.1-4.4,0.4c-1.2,0.3-2.1,0.7-2.8,1.4
					c-0.7,0.7-1.2,1.6-1.4,2.7c-0.3,1.1-0.4,2.5-0.4,4.2v1.4H93.3z"/>
				<path fill="#034EA2" d="M135.3,134.9H130v-19.8c0-1.6-0.1-3-0.4-4.1c-0.3-1.1-0.7-2-1.4-2.7c-0.7-0.7-1.6-1.2-2.7-1.4
					c-1.1-0.3-2.6-0.4-4.4-0.4c-1.7,0-3.1,0.1-4.3,0.4c-1.2,0.2-2.1,0.6-2.8,1c-0.7,0.4-1.2,0.9-1.5,1.5c-0.3,0.6-0.4,1.2-0.4,1.8
					v23.8h-5.3v-30.2c0.9,0,1.7-0.1,2.5-0.2c0.8-0.1,1.7-0.4,2.7-0.7c1.3-0.5,2.7-0.9,4.3-1.2c1.5-0.3,3.1-0.5,4.8-0.5
					c2.6,0,4.8,0.2,6.6,0.8c1.8,0.5,3.3,1.3,4.4,2.4c1.1,1.1,1.9,2.4,2.4,4c0.5,1.6,0.8,3.5,0.8,5.7V134.9z"/>
				<path fill="#034EA2" d="M172.8,123.3c0,4-1.2,7.1-3.6,9.3c-2.4,2.2-6.1,3.3-11,3.3c-5.2,0-8.9-1.1-11.2-3.3
					c-2.3-2.2-3.4-5.3-3.4-9.3v-8.8c0-4.1,1.2-7.2,3.6-9.3c2.4-2.1,6.1-3.1,11-3.1c5.1,0,8.9,1.1,11.2,3.4c2.3,2.2,3.5,5.4,3.5,9.4
					V123.3z M167.5,115c0-1.5-0.2-2.9-0.4-4c-0.3-1.1-0.8-2-1.5-2.7c-0.7-0.7-1.7-1.2-2.8-1.5c-1.2-0.3-2.7-0.5-4.5-0.5
					c-1.8,0-3.3,0.2-4.5,0.5c-1.2,0.3-2.1,0.8-2.8,1.5c-0.7,0.7-1.2,1.6-1.5,2.7c-0.3,1.1-0.4,2.4-0.4,4v7.8c0,1.6,0.1,2.9,0.4,4
					c0.3,1.1,0.8,2,1.5,2.7c0.7,0.7,1.7,1.2,2.8,1.5c1.2,0.3,2.7,0.4,4.5,0.4c1.8,0,3.3-0.1,4.5-0.4c1.2-0.3,2.1-0.8,2.8-1.5
					c0.7-0.7,1.2-1.6,1.5-2.7c0.3-1.1,0.4-2.4,0.4-4V115z"/>
				<path fill="#034EA2" d="M210.1,123c0,2-0.3,3.9-0.8,5.5c-0.5,1.6-1.4,2.9-2.5,4c-1.2,1.1-2.7,1.9-4.5,2.5
					c-1.8,0.6-4,0.8-6.6,0.8c-1.5,0-3-0.2-4.7-0.5c-1.7-0.3-3.2-0.7-4.5-1c-2-0.5-3.7-0.8-5.3-0.9V85.7h5.3v18.5
					c0.3-0.2,0.7-0.4,1.2-0.7c0.5-0.3,1.1-0.5,1.9-0.7c0.8-0.2,1.7-0.4,2.7-0.5c1.1-0.1,2.3-0.2,3.8-0.2c2.5,0,4.6,0.3,6.4,0.8
					c1.8,0.6,3.3,1.4,4.4,2.5c1.2,1.1,2,2.4,2.5,4c0.5,1.6,0.8,3.3,0.8,5.3V123z M204.8,115c0-1.6-0.2-3-0.5-4.1
					c-0.3-1.1-0.8-2-1.5-2.6c-0.7-0.6-1.6-1.1-2.8-1.4c-1.2-0.3-2.6-0.4-4.3-0.4c-1.7,0-3.1,0.1-4.3,0.4c-1.2,0.3-2.1,0.7-2.8,1.4
					c-0.7,0.6-1.3,1.5-1.6,2.6c-0.3,1.1-0.5,2.5-0.5,4.1v10.8c0,0.9,0.1,1.7,0.4,2.4c0.3,0.7,0.8,1.3,1.5,1.8
					c0.7,0.5,1.6,0.9,2.8,1.1c1.2,0.3,2.7,0.4,4.4,0.4c1.7,0,3.2-0.1,4.3-0.4c1.2-0.3,2.1-0.8,2.8-1.5c0.7-0.7,1.2-1.6,1.5-2.7
					c0.3-1.1,0.5-2.5,0.5-4.1V115z"/>
				<path fill="#034EA2" d="M245.5,126.3c0,6.4-4.6,9.5-13.8,9.5c-4.9,0-8.5-1-10.7-3.1c-2.3-2-3.4-5.2-3.4-9.3v-8.6
					c0-4.1,1.1-7.3,3.5-9.5c2.3-2.2,5.9-3.3,10.8-3.3c2.6,0,4.8,0.3,6.6,0.8c1.8,0.6,3.3,1.4,4.4,2.5c1.1,1.1,1.9,2.4,2.4,4
					c0.5,1.6,0.8,3.4,0.8,5.5v5.8h-23.2v2.2c0,1.6,0.1,3,0.4,4.1c0.3,1.1,0.8,2,1.5,2.6c0.7,0.6,1.6,1.1,2.8,1.4
					c1.2,0.3,2.6,0.4,4.2,0.4c3.2,0,5.4-0.4,6.7-1.2c1.2-0.8,1.9-2.1,1.9-4H245.5z M240.6,116.5v-1.4c0-1.7-0.1-3.1-0.4-4.2
					c-0.3-1.1-0.7-2-1.4-2.7c-0.7-0.7-1.6-1.1-2.7-1.4c-1.2-0.3-2.6-0.4-4.4-0.4c-1.8,0-3.3,0.1-4.4,0.4c-1.2,0.3-2.1,0.7-2.8,1.4
					c-0.7,0.7-1.2,1.6-1.4,2.7c-0.3,1.1-0.4,2.5-0.4,4.2v1.4H240.6z"/>
				<path fill="#034EA2" d="M273.6,111.1c0-1.6-0.6-2.8-1.8-3.5c-1.2-0.8-3.2-1.2-5.9-1.2c-1.5,0-2.8,0.1-3.8,0.3
					c-1,0.2-1.8,0.5-2.5,0.8c-0.6,0.4-1.1,0.8-1.3,1.3c-0.3,0.5-0.4,1.1-0.4,1.8c0,0.7,0.1,1.3,0.4,1.8c0.3,0.5,0.7,0.9,1.5,1.3
					c0.7,0.4,1.7,0.8,2.9,1.1c1.2,0.3,2.8,0.7,4.8,0.9c1.8,0.3,3.5,0.6,5,1.1c1.5,0.4,2.8,1,3.9,1.7c1.1,0.7,1.9,1.7,2.5,2.8
					c0.6,1.1,0.9,2.6,0.9,4.3c0,1.7-0.2,3.2-0.7,4.5c-0.5,1.3-1.3,2.3-2.4,3.2c-1.1,0.8-2.5,1.5-4.4,1.9c-1.8,0.4-4,0.6-6.7,0.6
					c-4.5,0-7.8-0.9-9.9-2.6c-2.1-1.8-3.2-4.3-3.2-7.7h5.1v0.8c0,0.8,0.1,1.4,0.4,2.1c0.2,0.6,0.7,1.2,1.3,1.7
					c0.6,0.5,1.5,0.8,2.6,1.1c1.1,0.3,2.5,0.4,4.1,0.4c3.1,0,5.4-0.3,6.7-1c1.4-0.6,2-1.9,2-3.7c0-1-0.1-1.7-0.4-2.3
					c-0.3-0.6-0.7-1.1-1.4-1.4c-0.7-0.4-1.6-0.7-2.7-1c-1.2-0.3-2.6-0.6-4.4-0.9c-1.6-0.3-3.1-0.6-4.6-1c-1.5-0.4-2.9-0.9-4.1-1.5
					c-1.2-0.6-2.1-1.5-2.9-2.6c-0.7-1.1-1.1-2.6-1.1-4.4c0-1.5,0.2-2.8,0.7-4c0.4-1.2,1.2-2.2,2.2-3c1-0.8,2.4-1.4,4.2-1.9
					c1.7-0.4,3.9-0.7,6.5-0.7c4,0,7,0.8,9,2.4c2,1.6,3,3.8,3,6.7H273.6z"/>
				<path fill="#034EA2" d="M314.5,126.3c0,6.4-4.6,9.5-13.8,9.5c-4.9,0-8.5-1-10.7-3.1c-2.3-2-3.4-5.2-3.4-9.3v-8.6
					c0-4.1,1.1-7.3,3.5-9.5c2.3-2.2,5.9-3.3,10.8-3.3c2.6,0,4.8,0.3,6.6,0.8c1.8,0.6,3.3,1.4,4.4,2.5c1.1,1.1,1.9,2.4,2.4,4
					c0.5,1.6,0.8,3.4,0.8,5.5v5.8h-23.2v2.2c0,1.6,0.1,3,0.4,4.1c0.3,1.1,0.8,2,1.5,2.6c0.7,0.6,1.6,1.1,2.8,1.4
					c1.2,0.3,2.6,0.4,4.2,0.4c3.2,0,5.4-0.4,6.7-1.2c1.2-0.8,1.9-2.1,1.9-4H314.5z M309.5,116.5v-1.4c0-1.7-0.1-3.1-0.4-4.2
					c-0.3-1.1-0.7-2-1.4-2.7c-0.7-0.7-1.6-1.1-2.7-1.4c-1.2-0.3-2.6-0.4-4.4-0.4c-1.8,0-3.3,0.1-4.4,0.4c-1.2,0.3-2.1,0.7-2.8,1.4
					c-0.7,0.7-1.2,1.6-1.4,2.7c-0.3,1.1-0.4,2.5-0.4,4.2v1.4H309.5z"/>
			</g>
		</g>
	</g>
</g>
</svg>
