<?xml version="1.0" encoding="utf-8"?>
<!-- Generator: Adobe Illustrator 18.0.0, SVG Export Plug-In . SVG Version: 6.00 Build 0)  -->
<!DOCTYPE svg PUBLIC "-//W3C//DTD SVG 1.1//EN" "http://www.w3.org/Graphics/SVG/1.1/DTD/svg11.dtd">
<svg version="1.1" id="Layer_1" xmlns="http://www.w3.org/2000/svg" xmlns:xlink="http://www.w3.org/1999/xlink" x="0px" y="0px"
	 viewBox="0 0 360 216" enable-background="new 0 0 360 216" xml:space="preserve">
<rect fill="none" width="360" height="216"/>
<g>
	<path d="M325.7-86.3c-3.1,0-5.9-2.4-5.9-5.9c0-3.4,2.7-5.9,5.9-5.9c3.4,0,6,2.7,5.9,6C331.6-89,329.1-86.3,325.7-86.3z M325.7-97.7
		c-3.1,0-5.4,2.4-5.4,5.4c0,3,2.4,5.4,5.4,5.4c3,0,5.4-2.4,5.4-5.4C331.1-95.2,328.8-97.7,325.7-97.7z M325.6-96
		c0.9,0,1.3,0,1.7,0.2c0.7,0.3,1.1,1,1.1,1.7c0,1-0.7,1.6-1.7,1.8c0.8,0.3,1,0.7,1.2,1.6c0.2,1.1,0.2,1.5,0.5,2.1h-1.2
		c-0.2-0.3-0.2-0.7-0.3-1c0-0.2-0.2-1-0.2-1.2c-0.2-1.1-0.8-1.2-1.9-1.2h-0.5v3.4h-1.1V-96H325.6z M324.4-92.9h1.2
		c0.5,0,1.7,0,1.7-1.2c0-0.3-0.1-0.6-0.3-0.8c-0.3-0.3-0.7-0.3-1.6-0.3h-1V-92.9z"/>
</g>
<g>
	<g>
		<path d="M318.5,84h-1v-8.1h-2.9v-0.9h6.8v0.9h-2.9V84z"/>
		<path d="M326.7,84l-3.1-8h0c0.1,0.6,0.1,1.4,0.1,2.3V84h-1v-9h1.6l2.9,7.4h0l2.9-7.4h1.6v9h-1v-5.8c0-0.7,0-1.4,0.1-2.2h0l-3.1,8
			H326.7z"/>
	</g>
</g>
<g>
	<g>
		<path fill="#652D91" d="M49.5,53.1l18.8,28.7L80,64c6.8-10.2,12.6-14.5,26.5-10.9L77.9,96.7l46.9,70.4h-19.5l-37-55.7l-20.5,31.3
			H28.3l30.2-46L30.1,53.1H49.5z"/>
		<path fill="#652D91" d="M124.5,152.3c21.3,1.5,24.1-1,24.1-18.6c0,6.8-12.6,9.5-18.6,9.9c-6.5,0.4-13.1-1.5-18.2-6.8
			c-3.9-4-5.8-9.6-5.8-17.2V76.2h16.3c0,8.6-0.6,38.1,1,44.2c1.4,5.4,5.5,8.2,10,8.2c5.8,0,10.8-4.1,10.8-9.1
			c2.2,0.7,3.7,2.3,4.5,4.5V76.2h16.5v60.9c0,20.1-16.8,30-31.1,30L124.5,152.3z"/>
		<path fill="#0089CF" d="M203.4,68.5c0-5,4.2-6.4,8.2-5.4V50c-2.6-0.8-5.5-1.2-8.7-1.1c-6.4,0.3-10.4,2-12.7,4.9
			c-4.1,5-3.5,13.5-3.5,22.4H173v14.2h13.7v52.3h16.7V90.4h3.8c7,0,12.6-5.8,12.6-14.2h-16.4V68.5z"/>
		<path fill="#0089CF" d="M241.9,142.7h-16.1c0-25.5,0-51,0-76.6c0-8.2,6.3-13.2,16.1-13.1C241.9,82.8,241.9,112.8,241.9,142.7z"/>
		<path fill="#0089CF" d="M313.3,126.9c-11.1,19.6-38.6,23.6-54.9,7.3c-9.2-9.4-12.4-22.5-8.8-34.7c4.6-15,29.5-13.8,31,0.6
			c-5.3-3.7-15.6-0.4-15.8,9.6c0.1,25.6,36.3,25.4,36.3-0.3c0-13.2-10.1-21.1-22-18.7c-5-6-15.6-7.6-23.1-3.1
			c6.8-8.2,16.2-12.9,26.8-12.9C309.7,74.8,326.8,103.5,313.3,126.9z"/>
	</g>
</g>
</svg>
