<?xml version="1.0" encoding="utf-8"?>
<!-- Generator: Adobe Illustrator 18.0.0, SVG Export Plug-In . SVG Version: 6.00 Build 0)  -->
<!DOCTYPE svg PUBLIC "-//W3C//DTD SVG 1.1//EN" "http://www.w3.org/Graphics/SVG/1.1/DTD/svg11.dtd">
<svg version="1.1" id="Layer_1" xmlns="http://www.w3.org/2000/svg" xmlns:xlink="http://www.w3.org/1999/xlink" x="0px" y="0px"
	 viewBox="0 0 360 216" enable-background="new 0 0 360 216" xml:space="preserve">
<rect fill="none" width="360" height="216"/>
<g>
	<path d="M325.7,92.3c-3.1,0-5.9-2.4-5.9-5.9c0-3.4,2.7-5.9,5.9-5.9c3.4,0,6,2.7,5.9,6C331.6,89.7,329.1,92.3,325.7,92.3z M325.7,81
		c-3.1,0-5.4,2.4-5.4,5.4c0,3,2.4,5.4,5.4,5.4c3,0,5.4-2.4,5.4-5.4C331.1,83.4,328.8,81,325.7,81z M325.6,82.6c0.9,0,1.3,0,1.7,0.2
		c0.7,0.3,1.1,1,1.1,1.7c0,1-0.7,1.6-1.7,1.8c0.8,0.3,1,0.7,1.2,1.6c0.2,1.1,0.2,1.5,0.5,2.1h-1.2c-0.2-0.3-0.2-0.7-0.3-1
		c0-0.2-0.2-1-0.2-1.2c-0.2-1.1-0.8-1.2-1.9-1.2h-0.5v3.4h-1.1v-7.4H325.6z M324.4,85.7h1.2c0.5,0,1.7,0,1.7-1.2
		c0-0.3-0.1-0.6-0.3-0.8c-0.3-0.3-0.7-0.3-1.6-0.3h-1V85.7z"/>
</g>
<g>
	<g>
		<path d="M485.3,66.5h-0.9v-6.8H482v-0.8h5.7v0.8h-2.4V66.5z"/>
		<path d="M492.1,66.5l-2.6-6.7h0c0,0.5,0.1,1.2,0.1,1.9v4.8h-0.8v-7.6h1.3l2.4,6.2h0l2.4-6.2h1.3v7.6h-0.9v-4.9
			c0-0.6,0-1.2,0.1-1.8h0l-2.6,6.7H492.1z"/>
	</g>
</g>
<g>
	<g>
		<g>
			<path fill="#005EAD" d="M28.3,145.6v-4.8l40.4-40.7H32v-7.9h52.8v4.2L44,137.6h40.8v8H28.3z"/>
			<path fill="#005EAD" d="M110,145.6H100V92.3H110V145.6z"/>
			<path fill="#005EAD" d="M131,145.6V92.2h10v45.4h31.5v8H131z"/>
			<path fill="#005EAD" d="M262.7,101.4c0.3,1.6,0.4,3.1,0.6,4.7c0.1,1.6,0.2,3.2,0.2,4.8v33.2h-9.3V90.7h7.7l39.3,34.9
				c1.1,1,2.2,2.1,3.3,3.3c1,1.2,2.1,2.5,3.1,4.1c-0.3-1.6-0.5-3.2-0.6-4.9c-0.2-1.6-0.2-3.4-0.2-5.1V90.7h9.3v53.4h-6.9L269,108.8
				c-1.4-1.3-2.6-2.5-3.6-3.7C264.4,103.9,263.5,102.7,262.7,101.4z"/>
			<g>
				<path fill="#9ACA3C" d="M232.1,103c-0.8,7.8-7.3,13.9-15.3,13.9c-8.5,0-15.4-6.9-15.4-15.4c0-4.8,2.2-9,5.6-11.8
					C192.5,90.4,181,102.4,181,117c0,15.2,12.3,27.5,27.5,27.5c15.2,0,27.5-12.3,27.5-27.5C236,111.9,234.6,107.1,232.1,103z"/>
				<path fill="#9ACA3C" d="M216.8,116.9"/>
			</g>
			<path fill="#2464AF" d="M226.3,100.6c0,5.1-4.1,9.2-9.2,9.2c-5.1,0-9.2-4.1-9.2-9.2c0-5.1,4.1-9.2,9.2-9.2
				C222.2,91.4,226.3,95.5,226.3,100.6z"/>
			<path fill="#2464AF" d="M234.6,83.1c0,3-2.4,5.5-5.4,5.5c-3,0-5.5-2.5-5.5-5.5c0-3,2.4-5.4,5.5-5.4
				C232.2,77.7,234.6,80.1,234.6,83.1z"/>
			<path fill="#2464AF" d="M246,71.9c0,1.8-1.4,3.2-3.2,3.2c-1.8,0-3.2-1.5-3.2-3.2c0-1.8,1.4-3.2,3.2-3.2
				C244.6,68.6,246,70.1,246,71.9z"/>
			<path fill="#2464AF" d="M257.2,68c0,1.3-1,2.3-2.3,2.3c-1.2,0-2.3-1-2.3-2.3c0-1.3,1-2.3,2.3-2.3C256.2,65.7,257.2,66.7,257.2,68
				z"/>
		</g>
	</g>
</g>
</svg>
