<svg width="129" height="50" viewBox="0 0 129 50" fill="none" xmlns="http://www.w3.org/2000/svg">
<path d="M8.52991 23.6038C2.99271 23.6038 0 21.3558 0 16.7978V15.3359H5.99231V16.6047C5.99231 18.1976 7.1301 18.8527 8.46785 18.8527C10.6193 18.8527 11.102 17.3563 11.102 15.5359V0H16.9288V15.4256C16.9288 20.0525 14.1292 23.6038 8.52991 23.6038Z" fill="#1F466B"/>
<path d="M25.4161 16.4118V16.8049C25.4161 18.5633 27.5951 19.4735 29.319 19.4735C30.8843 19.4735 32.7668 18.6598 33.5184 18.3357L35.1113 22.1421C33.4219 23.0523 31.629 23.6385 28.4364 23.6385C24.3334 23.6385 19.9409 21.556 19.9409 16.6394V13.2191C19.9409 8.14394 24.0438 5.73047 28.1467 5.73047C32.1531 5.73047 36.056 7.90949 36.056 12.1089V16.4049H25.4161V16.4118ZM30.8498 12.3365C30.8498 10.5436 29.581 9.7989 28.2157 9.7989C26.6849 9.7989 25.4161 10.6471 25.4161 12.5641V13.1847H30.8498V12.3365Z" fill="#1F466B"/>
<path d="M49.7935 23.2109V13.2191C49.7935 11.4952 49.1453 9.99887 47.1593 9.99887C45.5664 9.99887 44.3942 11.1711 44.3942 13.5501V23.2109H39.0225V6.08904H44.2632V8.26807H44.3321C45.6354 6.54415 47.4214 5.73047 49.5383 5.73047C52.6 5.73047 55.1721 7.55092 55.1721 11.3642V23.2109H49.7935Z" fill="#1F466B"/>
<path d="M68.2455 23.6316C66.5837 23.6316 64.9563 22.7834 64.0806 21.6801H63.984V29.1964H58.6123V6.08904H63.853V8.17153H63.9151C65.1839 6.48209 67.0733 5.73047 68.7351 5.73047C72.576 5.73047 75.086 8.10947 75.086 12.0745V17.2531C75.0791 21.225 72.0174 23.6316 68.2455 23.6316ZM69.6729 12.6675C69.6729 10.8746 68.4041 9.90233 66.8733 9.90233C65.508 9.90233 63.9771 10.6195 63.9771 12.9916V16.929C63.9771 18.8184 65.439 19.6666 66.8733 19.6666C68.2386 19.6666 69.6729 18.8874 69.6729 16.9014V12.6675Z" fill="#1F466B"/>
<path d="M88.8442 23.2107V13.219C88.8442 11.495 88.196 9.99869 86.2101 9.99869C84.6172 9.99869 83.4449 11.1709 83.4449 13.5499V23.2107H78.0732V0H83.4381V8.36442H83.507C84.7758 6.54397 86.5342 5.73028 88.5822 5.73028C91.6439 5.73028 94.2159 7.55073 94.2159 11.364V23.2107H88.8442Z" fill="#1F466B"/>
<path d="M107.909 23.2109C107.909 23.0799 107.744 21.4525 107.744 21.2939H107.613C106.179 23.2109 104.165 23.5695 102.441 23.5695C99.1519 23.5695 96.7798 21.8111 96.7798 18.5908C96.7798 14.5569 100.979 13.0261 104.427 13.0261H107.42V11.6883C107.42 10.323 106.475 9.53686 104.751 9.53686C103.027 9.53686 102.214 10.3505 102.214 11.2608V11.7848H97.428V11.1642C97.428 7.45438 101.138 5.73047 105.048 5.73047C108.985 5.73047 112.764 7.29578 112.764 11.6193V19.4321C112.764 20.7354 112.957 22.8799 113.088 23.2109H107.909V23.2109ZM104.855 16.0188C103.289 16.0188 102.151 16.4739 102.151 17.8737C102.151 18.977 102.869 19.7286 104.53 19.7286C106.482 19.7286 107.33 18.6253 107.392 16.998L107.427 16.0188H104.855V16.0188Z" fill="#1F466B"/>
<path d="M125.453 10.4531C123.433 10.4531 121.578 11.5289 121.578 14.294V23.2101H116.206V6.08821H121.447V8.92232H121.509C122.157 7.75006 123.46 6.64675 124.957 6.12268C125.543 5.92961 126.419 5.82617 127.005 5.82617C127.398 5.82617 127.949 5.86065 128.404 5.95719V10.5773C127.86 10.5152 125.681 10.4531 125.453 10.4531Z" fill="#1F466B"/>
<path d="M8.56494 39.1666V39.2217C9.77168 39.5389 10.4612 40.7112 10.4612 41.9593C10.4612 44.621 8.07535 46.145 5.56534 46.145H0.331543L2.67606 32.8708H7.83401C9.56481 32.8708 11.1646 33.8776 11.1646 35.8498C11.1715 37.5875 10.2958 38.739 8.56494 39.1666ZM6.31007 40.0837H3.16565L2.36576 44.6417H5.60671C7.30304 44.6417 8.60632 43.766 8.60632 42.0007C8.59942 40.656 7.46164 40.0837 6.31007 40.0837ZM7.26167 34.381H4.17242L3.42769 38.608H6.50315C8.08225 38.608 9.29588 37.7668 9.29588 36.1118C9.28899 34.9051 8.3236 34.381 7.26167 34.381Z" fill="#0093C9"/>
<path d="M19.454 46.1518H17.8542L18.0611 44.945H18.0404C17.2198 45.8966 16.1441 46.3793 15.0614 46.3793C13.4065 46.3793 12.1377 45.4691 12.1377 43.6969C12.1377 43.4556 12.1584 43.2349 12.1929 43.0074C12.379 42.042 12.5445 41.0697 12.7169 40.1043C13.0893 38.0011 14.6339 36.5461 16.8336 36.5461C17.6542 36.5461 18.8265 36.9944 19.254 37.7391H19.2885L19.4747 36.7323H21.1296L19.454 46.1518ZM16.5716 37.9046C15.2683 37.9046 14.6132 38.8562 14.4133 40.0629L13.9099 42.9108C13.8892 43.0418 13.8754 43.1729 13.8754 43.3039C13.8754 44.4417 14.6753 44.9795 15.7372 44.9795C17.0405 44.9795 18.2334 43.7107 18.4955 42.2075L18.8678 40.1043C18.9023 39.994 18.9023 39.8836 18.9023 39.7664C18.8954 38.539 17.6473 37.9046 16.5716 37.9046Z" fill="#0093C9"/>
<path d="M30.7361 39.7251L29.5983 46.1449H27.9572L28.9777 40.2423C29.0122 40.0216 29.0743 39.663 29.0743 39.4424C29.0743 38.4218 28.6054 37.9529 27.5641 37.9529C26.0195 37.9529 24.9576 39.2907 24.6955 40.7043L23.7301 46.138H22.0752L23.7508 36.7186H25.3506L25.0886 38.1322H25.1438C25.9436 37.1461 27.0401 36.5117 28.3433 36.5117C29.9086 36.5117 30.7982 37.3875 30.7982 38.9666C30.812 39.2424 30.7775 39.4837 30.7361 39.7251Z" fill="#0093C9"/>
<path d="M39.8976 46.035C39.4149 48.7312 37.5876 50 35.1327 50C33.8087 50 32.0641 49.4207 31.7056 47.9175L33.2502 47.3934C33.6226 48.2485 34.519 48.6208 35.4292 48.6208C36.8083 48.6208 38.0013 47.5934 38.2426 46.2349C38.2426 46.2349 38.4081 45.2833 38.5047 44.7248H38.4702C37.7255 45.5799 36.6635 46.0074 35.5258 46.0074C33.8501 46.0074 32.602 45.2075 32.602 43.4215C32.602 43.1595 32.6227 42.8975 32.6572 42.6561L33.0985 40.153C33.4915 38.0153 35.1672 36.5259 37.36 36.5259C38.2357 36.5259 39.277 36.9534 39.67 37.7947H39.7459L39.9321 36.7327H41.5319L39.8976 46.035ZM37.3462 37.905C36.0429 37.905 35.0362 38.7808 34.8155 40.0633L34.3535 42.6354C34.3328 42.7871 34.319 42.9526 34.319 43.063C34.319 44.18 35.1189 44.7041 36.1602 44.7041C37.4634 44.7041 38.6909 43.718 38.9115 42.4354L39.3184 40.0909C39.339 39.9599 39.3528 39.8151 39.3528 39.6841C39.3528 38.5187 38.4219 37.905 37.3462 37.905Z" fill="#0093C9"/>
<path d="M44.4928 43.877C44.4721 43.9873 44.4377 44.2149 44.4377 44.3252C44.4377 44.9596 45.0307 44.9803 45.4996 44.9803C45.8168 44.9803 46.134 44.9251 46.4512 44.87L46.2305 46.0974C45.8237 46.2491 45.3203 46.3387 44.8721 46.3387C43.9067 46.3387 42.7275 46.0008 42.7275 44.8286C42.7275 44.5528 42.7827 44.0287 42.8379 43.7667L44.7962 32.8784H46.4719L44.4928 43.877Z" fill="#0093C9"/>
<path d="M55.4418 46.1518H53.842L54.0488 44.945H54.0282C53.2076 45.8966 52.1319 46.3793 51.0492 46.3793C49.3943 46.3793 48.1255 45.4691 48.1255 43.6969C48.1255 43.4556 48.1462 43.2349 48.1807 43.0074C48.3668 42.042 48.5323 41.0697 48.7047 40.1043C49.0771 38.0011 50.6217 36.5461 52.8214 36.5461C53.642 36.5461 54.8143 36.9944 55.2418 37.7391H55.2763L55.4625 36.7323H57.1174L55.4418 46.1518ZM52.5525 37.9046C51.2492 37.9046 50.601 38.8562 50.3942 40.0629L49.8908 42.9108C49.8701 43.0418 49.8563 43.1729 49.8563 43.3039C49.8563 44.4417 50.6562 44.9795 51.7181 44.9795C53.0214 44.9795 54.2143 43.7107 54.4764 42.2075L54.8487 40.1043C54.8832 39.994 54.8832 39.8836 54.8832 39.7664C54.8832 38.539 53.6351 37.9046 52.5525 37.9046Z" fill="#0093C9"/>
<path d="M65.6058 46.1525H64.006L64.2129 44.9458H64.1922C63.3716 45.8974 62.2959 46.3801 61.2133 46.3801C59.5583 46.3801 58.2896 45.4699 58.2896 43.6977C58.2896 43.4563 58.3102 43.2357 58.3447 43.0081C58.5309 42.0427 58.6964 41.0704 58.8688 40.1051C59.2412 38.0019 60.641 36.5469 62.8338 36.5469C63.6751 36.5469 64.9714 36.9537 65.3645 37.7398H65.4403L66.2954 32.8784H67.9503L65.6058 46.1525ZM62.7166 37.9053C61.4133 37.9053 60.7651 38.8569 60.5582 40.0637L60.0548 42.9116C60.0341 43.0426 60.0204 43.1736 60.0204 43.3046C60.0204 44.4424 60.8203 44.9803 61.8822 44.9803C63.1855 44.9803 64.4129 43.4356 64.6404 42.2082L65.0128 40.1051C65.0335 39.9947 65.0473 39.8844 65.0473 39.7672C65.0473 38.5397 63.7992 37.9053 62.7166 37.9053Z" fill="#0093C9"/>
<path d="M76.4935 41.9255H70.3495C70.2736 42.3185 70.184 42.7254 70.184 43.1184C70.184 44.3872 71.1908 45.0147 72.363 45.0147C73.2732 45.0147 74.3352 44.3252 74.9489 43.6908L75.935 44.6562C74.873 45.925 73.6456 46.3663 72.0044 46.3663C70.1081 46.3663 68.4463 45.456 68.4463 43.3667C68.4463 43.1046 68.467 42.8426 68.5221 42.5875L68.8738 40.6153C69.3013 38.1949 71.0735 36.5193 73.5491 36.5193C75.3144 36.5193 76.8659 37.4847 76.8659 39.3879C76.8728 40.1533 76.6245 41.1601 76.4935 41.9255ZM73.425 37.9053C71.9562 37.9053 70.8529 38.8707 70.6322 40.2912L70.5564 40.7739H75.1144C75.1902 40.4015 75.2661 40.0292 75.2661 39.6568C75.2661 38.519 74.5076 37.9053 73.425 37.9053Z" fill="#0093C9"/>
<path d="M84.4847 38.7049C83.8366 38.1119 82.9746 37.8498 82.3057 37.8498C81.3955 37.8498 80.3543 38.0567 80.3543 39.1186C80.3543 40.9046 84.8433 40.1047 84.8433 43.1595C84.8433 45.4695 82.9263 46.3591 80.9128 46.3591C79.4992 46.3591 77.9753 45.966 77.2236 44.6489L78.5476 43.7525C79.1613 44.5938 80.0577 45.0351 81.0783 45.0351C82.1195 45.0351 83.1056 44.6834 83.1056 43.4146C83.1056 41.5528 78.6166 42.3872 78.6166 39.5944C78.6166 37.4361 80.4439 36.5259 82.3609 36.5259C83.5883 36.5259 84.6296 36.7328 85.5812 37.643L84.4847 38.7049Z" fill="#0093C9"/>
<path d="M95.0784 39.7254L93.9406 46.1453H92.2995L93.3269 40.2426C93.3614 40.0219 93.4166 39.6634 93.4166 39.4427C93.4166 38.4221 92.9546 37.9532 91.9064 37.9532C90.3618 37.9532 89.2999 39.291 89.0378 40.7046L88.0724 46.1384H86.4175L88.8034 32.8643H90.4032L89.4378 38.1325H89.4929C90.2928 37.1465 91.3892 36.5121 92.6925 36.5121C94.2578 36.5121 95.1474 37.3878 95.1474 38.9669C95.1543 39.2427 95.1129 39.4841 95.0784 39.7254Z" fill="#0093C9"/>
</svg>
