<svg width="120" height="47" viewBox="0 0 120 47" fill="none" xmlns="http://www.w3.org/2000/svg">
    <path d="M54.0237 13.5535C53.7137 13.5535 53.4882 13.8072 53.4882 14.1313C53.4882 14.1313 53.4882 32.3267 53.4882 32.5522C53.2767 32.5522 0.91748 32.524 0.91748 32.524V33.6515L54.0237 33.6797L54.3902 33.5106L54.5452 33.116C54.5452 33.116 54.5452 14.9206 54.5452 14.6951C54.7425 14.6951 61.8177 14.6951 62.015 14.6951C62.015 14.9206 62.015 33.1301 62.015 33.1301L62.1701 33.5388L62.5506 33.722H119.166V32.5804C119.166 32.5804 63.2835 32.5804 63.0862 32.5804C63.0862 32.369 63.0862 14.1454 63.0862 14.1454C63.0862 13.8213 62.8466 13.5676 62.5506 13.5676H54.0237V13.5535Z" fill="#E30613"/>
    <path d="M52.7837 5.78776C52.7837 8.80387 55.3347 11.2421 58.4777 11.2421C61.6206 11.2421 64.1857 8.80387 64.1857 5.78776C64.1857 2.77164 61.6206 0.333374 58.4777 0.333374C55.3347 0.333374 52.7837 2.77164 52.7837 5.78776ZM53.8407 5.78776C53.8407 3.41996 55.9267 1.46089 58.4777 1.46089C61.0428 1.46089 63.1146 3.41996 63.1146 5.78776C63.1146 8.16964 61.0428 10.1146 58.4777 10.1146C55.9267 10.1146 53.8407 8.16964 53.8407 5.78776Z" fill="#E30613"/>
    <path d="M14.4341 29.7758C13.4475 29.3529 12.5173 28.7046 11.3898 27.6617C9.7408 26.1959 8.30321 24.7019 7.23206 23.3489C7.23206 23.3489 8.14817 23.3066 8.59918 23.2079C9.24751 23.0952 9.78308 22.9824 10.375 22.7147C11.2629 22.3059 11.6858 21.9395 12.1368 21.3334C12.5737 20.7274 12.8133 19.924 12.8133 19.2898C12.8133 18.1623 12.1932 17.1757 11.1502 16.4005C10.1636 15.6677 8.43005 15.2166 7.07703 15.1321C6.06226 15.0616 5.10387 15.0898 5.10387 15.0898H3.39849C3.10252 15.0898 3.04614 15.0898 2.86292 15.0898H1.0166C1.31258 15.2307 1.50989 15.5126 1.58036 15.9072L1.63674 16.3019V28.9442L1.58036 29.3248C1.50989 29.6771 1.36895 29.9026 1.14345 30.0576L1.0166 30.1422H1.97499H2.76426H4.0891L3.96225 30.0717C3.62399 29.8321 3.48305 29.4516 3.46896 28.9583V23.659H4.69514L4.89246 23.8986C5.58306 24.7442 6.30186 25.4489 7.03475 26.1959C8.57099 27.8167 10.4314 29.0429 12.8556 30.0435L13.6871 30.2268H15.6885C15.6885 30.2409 14.575 29.8462 14.4341 29.7758ZM3.49715 21.7845C3.49715 21.7845 3.49715 17.3026 3.49715 16.9784C3.49715 16.6401 3.41258 16.4992 3.41258 16.4992C3.41258 16.4992 11.0093 15.7945 11.0093 19.2898C10.9952 22.5455 3.49715 21.7845 3.49715 21.7845Z" fill="black"/>
    <path d="M31.3612 30.1563H32.7424H32.6438C32.1928 29.8885 31.8686 29.522 31.6713 29.1133L24.2578 14.4978L23.7786 15.1884L23.384 15.7381V15.724L22.778 16.4851L22.8484 16.5132C22.933 16.5273 23.0035 16.5555 23.0317 16.5978L23.1444 16.781L23.229 16.922L23.3558 17.1616L17.0981 29.0146C16.788 29.6066 16.4498 30.0717 16.3229 30.1422L16.2524 30.1844H18.2961L18.1974 30.114C18.0283 29.973 17.986 29.7616 17.986 29.6207C17.986 29.6207 18.0142 29.4516 18.1692 29.1838C18.3102 28.916 20.5511 24.716 20.5511 24.716H27.0344L29.374 29.1274L29.5149 29.4516L29.5572 29.6207C29.5572 29.8603 29.4444 30.0717 29.2189 30.1703H29.1485H30.6565H31.3612V30.1563ZM20.8894 23.9267L23.835 18.1059L26.8511 23.9267H20.8894Z" fill="black"/>
    <path d="M79.9852 30.1563H81.3664H81.2818C80.8308 29.8885 80.4926 29.522 80.3093 29.1133L72.8818 14.4978L72.3885 15.1884H72.4167L71.9939 15.724V15.7099L71.3737 16.471L71.4583 16.4992C71.5429 16.5132 71.6274 16.5414 71.6697 16.5837L71.7543 16.7669L71.8388 16.9079L71.9798 17.1475L65.6939 29.0005C65.3979 29.5925 65.0596 30.0576 64.9328 30.1281L64.8623 30.1703H66.92L66.8355 30.0999C66.6522 29.9589 66.5959 29.7475 66.5959 29.6066C66.5959 29.6066 66.6522 29.4375 66.7932 29.1697C66.9341 28.9019 69.1751 24.7019 69.1751 24.7019H75.6583L77.9979 29.1133L78.153 29.4375L78.1811 29.6066C78.1811 29.8462 78.0684 30.0576 77.857 30.1563H77.7865H79.2946H79.2805H79.9852ZM69.4992 23.9267L72.4731 18.1059L75.4751 23.9267H69.4992Z" fill="black"/>
    <path d="M97.9551 15.1745L98.1102 15.245C98.3498 15.3295 98.4907 15.5127 98.533 15.7805C98.5471 15.8933 98.5612 15.9919 98.5612 16.0765L98.6035 26.943L91.3309 20.4879L85.5947 15.4846C85.5806 15.4423 85.5524 15.3013 85.5806 15.2872L85.6651 15.1463H82.945H82.2544L82.3671 15.2168C82.3671 15.2168 82.5363 15.3013 82.7336 15.4564C82.9732 15.5973 83.3537 16.0483 83.3537 16.0483V29.1698V29.494C83.3537 29.7336 83.1987 29.9027 82.9168 30.0296L82.7477 30.0859H85.2564C84.9182 30.0155 84.7208 29.8041 84.6645 29.4799C84.6222 29.3672 84.6222 29.2685 84.6222 29.1557V16.6262H84.6363L99.9706 30.1705L99.9565 16.0342C99.9565 15.9637 99.9565 15.8651 99.9847 15.7382C100.041 15.4141 100.224 15.2027 100.577 15.1322H97.9551V15.1745Z" fill="black"/>
    <path d="M110.809 15.1745V15.2027H110.104V15.1745H101.831L102.085 16.9644H102.169L102.31 16.8235C102.55 16.5698 102.86 16.457 103.212 16.457H109.4V28.9303L109.357 29.3813C109.301 29.6913 109.146 29.9309 108.892 30.1001L108.779 30.1846H112.134C111.81 30.0578 111.612 29.79 111.556 29.3813L111.528 28.9303V16.457H117.701C118.053 16.457 118.363 16.5698 118.603 16.8235L118.744 16.9503H118.814L119.096 15.1604H110.809V15.1745Z" fill="black"/>
    <path d="M48.5838 17.0631C46.8361 15.9073 44.426 15.2872 41.2971 15.2308H39.6341H35.8428H34.2642H33.4468C33.7709 15.3859 33.9683 15.6537 34.0246 16.0483L34.081 16.4288V28.9725L34.0246 29.3671C33.9823 29.6772 33.8132 29.9168 33.5736 30.0718L33.4468 30.1564H34.7716H35.4763H40.2683H41.8891C43.4958 30.1705 44.9334 29.9591 46.23 29.5222C47.8227 28.9866 49.1334 28.0564 50.2046 26.7175C51.2334 25.4208 51.769 24.0537 51.7831 22.5879C51.7972 20.3752 50.726 18.5147 48.5838 17.0631ZM48.9502 25.2094C48.2596 26.4215 47.2448 27.3799 45.9059 28.0564C44.4965 28.7611 42.9602 29.1134 41.2971 29.1134H39.6763H36.1669V16.161H38.9998L41.0435 16.1751C42.3965 16.2033 43.6368 16.4147 44.7502 16.8094C46.2441 17.3308 47.428 18.106 48.316 19.1631C49.1898 20.1778 49.6408 21.3335 49.6408 22.602C49.6831 23.5181 49.4294 24.3779 48.9502 25.2094Z" fill="black"/>
    <path d="M1.42544 38.5986H2.89122C4.20196 38.5986 4.73754 39.3315 4.73754 40.1912C4.73754 41.0932 4.23015 41.812 2.80666 41.812H1.42544V38.5986ZM0.833496 38.0912V46.0261H1.42544V42.3194H2.86303C4.80801 42.3194 5.37177 41.2201 5.37177 40.1912C5.37177 39.0496 4.68116 38.0912 2.90532 38.0912H0.833496Z" fill="black"/>
    <path d="M14.3777 46.012H13.7998V42.2489H8.76828V46.012H8.19043V38.077H8.76828V41.7274H13.7998V38.077H14.3777V46.012Z" fill="black"/>
    <path d="M22.5242 42.7563H19.2967L20.9034 39.0214L22.5242 42.7563ZM21.0725 38.0348H20.7484L17.2812 46.012H17.8873L19.0853 43.2778H22.7497L23.9618 46.012H24.5538L21.0725 38.0348Z" fill="black"/>
    <path d="M27.5837 38.5986H28.8099C30.1911 38.5986 30.7972 39.2469 30.7972 40.1348C30.7972 41.1073 30.1347 41.6993 28.824 41.6993H27.5696V38.5986H27.5837ZM27.0059 38.0912V46.0261H27.5837V42.2348H28.5985C29.5005 42.2348 29.7965 42.3476 30.6985 43.8556L31.9951 46.0402H32.6857L30.9945 43.306C30.6421 42.7422 30.3461 42.2771 29.9938 42.0939C30.9522 41.7274 31.4173 41.0791 31.4173 40.163C31.4173 39.106 30.769 38.1194 28.9367 38.1194H27.0059V38.0912Z" fill="black"/>
    <path d="M40.8747 38.0912H41.4666V46.0261H40.8747V38.9932H40.8606L38.0136 42.6858L35.1807 38.9932H35.1384V46.0261H34.5605V38.0912H35.1384L38.0136 41.7838L40.8747 38.0912Z" fill="black"/>
    <path d="M48.9783 42.7563H45.7508L47.3575 39.0214L48.9783 42.7563ZM47.5266 38.0348H47.2025L43.7354 46.012H44.3414L45.5394 43.2778H49.2038L50.4018 46.012H50.9938L47.5266 38.0348Z" fill="black"/>
    <path d="M59.1965 39.3174C58.2522 38.796 57.4066 38.5423 56.5046 38.5423C54.6301 38.5423 53.2207 40.0503 53.2207 42.0658C53.2207 44.1094 54.6301 45.547 56.5891 45.547C57.4348 45.547 58.2381 45.3074 59.267 44.7296V45.3779C58.4072 45.8712 57.477 46.1249 56.5891 46.1249C54.3059 46.1249 52.5864 44.3913 52.5864 42.0658C52.5864 39.6416 54.475 37.9785 56.5327 37.9785C57.3784 37.9785 58.2663 38.1899 59.1965 38.6409V39.3174Z" fill="black"/>
    <path d="M66.0604 38.5986H62.5651V41.7838H65.9758V42.2912H62.5651V45.5187H66.1591V46.0261H61.9731V38.0912H66.0745V38.5986H66.0604Z" fill="black"/>
    <path d="M75.0524 38.0912V42.4181C75.0524 45.1382 73.4316 46.1248 71.8953 46.1248C70.19 46.1248 68.7383 44.9268 68.7383 42.559V38.0912H69.3302V42.5308C69.3302 44.6167 70.5282 45.561 71.8812 45.561C73.1638 45.561 74.4605 44.7154 74.4605 42.4462V38.0912H75.0524Z" fill="black"/>
    <path d="M83.5797 38.5986H80.7609V46.0261H80.169V38.5986H77.3643V38.0912H83.5797V38.5986Z" fill="black"/>
    <path d="M86.6237 46.012H86.0317V38.077H86.6237V46.012Z" fill="black"/>
    <path d="M96.1794 39.3174C95.2351 38.796 94.3754 38.5423 93.4875 38.5423C91.6271 38.5423 90.2036 40.0503 90.2036 42.0658C90.2036 44.1094 91.613 45.547 93.5579 45.547C94.4177 45.547 95.2069 45.3074 96.2499 44.7296V45.3779C95.3761 45.8712 94.46 46.1249 93.572 46.1249C91.2888 46.1249 89.5693 44.3913 89.5693 42.0658C89.5693 39.6416 91.4579 37.9785 93.5016 37.9785C94.3472 37.9785 95.2492 38.1899 96.1653 38.6409V39.3174H96.1794Z" fill="black"/>
    <path d="M103.847 42.7563H100.619L102.226 39.0214L103.847 42.7563ZM102.395 38.0348H102.071L98.5898 46.012H99.21L100.394 43.2778H104.072L105.256 46.012H105.862L102.395 38.0348Z" fill="black"/>
    <path d="M108.935 45.5046H112.67V46.012H108.357V38.077H108.949V45.5046H108.935Z" fill="black"/>
    <path d="M118.631 39.1483C117.856 38.6973 117.461 38.5563 116.94 38.5563C116.038 38.5563 115.347 39.2046 115.347 40.0644C115.347 42.1785 118.941 41.1778 118.941 43.9543C118.941 45.1664 117.983 46.1248 116.757 46.1248C116.151 46.1248 115.488 45.8993 114.826 45.4342V44.7154C115.657 45.3496 116.151 45.561 116.728 45.561C117.616 45.561 118.307 44.8845 118.307 43.9825C118.307 41.7275 114.727 42.7141 114.727 40.1067C114.727 38.9228 115.7 37.9926 116.898 37.9926C117.461 37.9926 118.039 38.1617 118.631 38.4999V39.1483Z" fill="black"/>
</svg>
