<svg width="120" height="46" viewBox="0 0 120 46" fill="none" xmlns="http://www.w3.org/2000/svg">
    <path d="M1.42809 38.5535H3.55332C5.62756 38.5535 7.05571 39.9307 7.05571 41.9199C7.05571 44.0961 5.42351 45.2863 3.58731 45.2863H1.42809V38.5535ZM0.833008 38.0435V45.7623H3.62129C6.64763 45.7623 7.70179 43.6881 7.70179 41.9029C7.70179 40.2027 6.78365 38.0435 3.51929 38.0435H0.833008Z" fill="black"/>
    <path d="M13.0059 45.7793V38.0435" stroke="black" stroke-width="0.119" stroke-miterlimit="10"/>
    <path d="M22.221 39.0808C21.4389 38.6217 21.0309 38.4857 20.5038 38.4857C19.5857 38.4857 18.8886 39.1148 18.8886 39.9649C18.8886 42.0221 22.544 41.036 22.544 43.7393C22.544 44.9294 21.5749 45.8645 20.3168 45.8645C19.6877 45.8645 19.0246 45.6265 18.3446 45.1845V44.4874C19.1947 45.1165 19.6707 45.3205 20.2658 45.3205C21.1839 45.3205 21.881 44.6574 21.881 43.7733C21.881 41.5801 18.2256 42.5322 18.2256 39.9989C18.2256 38.8598 19.2117 37.9417 20.4188 37.9417C21.0139 37.9417 21.5919 38.1117 22.187 38.4347V39.0808H22.221Z" fill="black"/>
    <path d="M32.9491 38.5535H30.0758V45.7793H29.4808V38.5535H26.6074V38.0435H32.9491V38.5535Z" fill="black"/>
    <path d="M38.0505 38.5535H39.2917C40.7028 38.5535 41.3149 39.1826 41.3149 40.0667C41.3149 41.0018 40.6689 41.5799 39.3087 41.5799H38.0336V38.5535H38.0505ZM37.4385 38.0435V45.7623H38.0336V42.0559H39.0706C39.9887 42.0559 40.2778 42.1919 41.2129 43.6371L42.5561 45.7623H43.2531L41.5189 43.093C41.1619 42.549 40.8558 42.1069 40.4988 41.9199C41.4849 41.5629 41.961 40.9338 41.961 40.0327C41.961 38.9956 41.2979 38.0435 39.4277 38.0435H37.4385Z" fill="black"/>
    <path d="M47.7412 45.7793V38.0435" stroke="black" stroke-width="0.119" stroke-miterlimit="10"/>
    <path d="M53.9466 38.5535H54.7457C55.9359 38.5535 56.854 38.9106 56.854 40.0837C56.854 41.0018 56.3099 41.6309 54.7628 41.6309H53.9466V38.5535ZM53.3516 38.0435V45.7623H55.5958C57.16 45.7623 58.1631 44.9802 58.1631 43.7221C58.1631 42.685 57.5681 42.0049 56.3949 41.7669C57.143 41.3588 57.5 40.8148 57.5 40.0497C57.5 39.1486 57.024 38.0605 54.9497 38.0605H53.3516V38.0435ZM53.9466 42.1239H55.2728C57.126 42.1239 57.5341 42.957 57.5341 43.7051C57.5341 44.4022 57.126 45.2693 55.5448 45.2693H53.9637V42.1239H53.9466Z" fill="black"/>
    <path d="M69.1294 38.0435V42.2599C69.1294 44.9122 67.4803 45.8813 65.9161 45.8813C64.1819 45.8813 62.7197 44.7252 62.7197 42.3959V38.0435H63.3148V42.3789C63.3148 44.4022 64.5389 45.3203 65.9161 45.3203C67.2252 45.3203 68.5344 44.4872 68.5344 42.2939V38.0435H69.1294Z" fill="black"/>
    <path d="M79.79 38.5535H76.9166V45.7793H76.3216V38.5535H73.4482V38.0435H79.79V38.5535Z" fill="black"/>
    <path d="M84.5674 45.7793V38.0435" stroke="black" stroke-width="0.1198" stroke-miterlimit="10"/>
    <path d="M97.3529 41.9031C97.3529 43.8243 95.8737 45.3205 93.9525 45.3205C92.0313 45.3205 90.5182 43.8413 90.5182 41.9031C90.5182 39.9819 92.0143 38.5027 93.9525 38.5027C95.8567 38.5027 97.3529 39.9819 97.3529 41.9031ZM97.982 41.9031C97.982 39.6928 96.1968 37.9417 93.9185 37.9417C91.6403 37.9417 89.8721 39.6928 89.8721 41.9031C89.8721 44.1304 91.6403 45.8645 93.9185 45.8645C96.1968 45.8815 97.982 44.1304 97.982 41.9031Z" fill="black"/>
    <path d="M109.901 45.7793H109.408L103.576 39.0126V45.7793H102.998V38.0435H103.491L109.306 44.7932V38.0435H109.901V45.7793Z" fill="black"/>
    <path d="M118.826 39.0808C118.044 38.6217 117.636 38.4857 117.109 38.4857C116.191 38.4857 115.494 39.1148 115.494 39.9649C115.494 42.0221 119.149 41.036 119.149 43.7393C119.149 44.9294 118.163 45.8645 116.922 45.8645C116.293 45.8645 115.63 45.6265 114.95 45.1845V44.4874C115.817 45.1165 116.293 45.3205 116.888 45.3205C117.806 45.3205 118.503 44.6574 118.503 43.7733C118.503 41.5801 114.848 42.5322 114.848 39.9989C114.848 38.8598 115.834 37.9417 117.041 37.9417C117.636 37.9417 118.231 38.1117 118.826 38.4347V39.0808Z" fill="black"/>
    <path d="M54.032 13.5439C53.726 13.5439 53.4879 13.799 53.4879 14.105V32.5351C53.2839 32.5351 0.917969 32.5181 0.917969 32.5181V33.6572L54.032 33.6742L54.389 33.5212L54.559 33.1131V14.6831H62.0229V33.1131L62.1759 33.5212L62.5499 33.7082H119.166V32.5691H63.077V14.122C63.077 13.799 62.8389 13.5609 62.5499 13.5609H54.032V13.5439Z" fill="#E30613"/>
    <path d="M52.7744 5.79099C52.7744 8.80033 55.3247 11.2316 58.4701 11.2316C61.6154 11.2316 64.1827 8.80033 64.1827 5.79099C64.1827 2.78165 61.6154 0.333374 58.4701 0.333374C55.3417 0.333374 52.7744 2.78165 52.7744 5.79099ZM53.8455 5.79099C53.8455 3.41072 55.9198 1.4725 58.4871 1.4725C61.0374 1.4725 63.1116 3.41072 63.1116 5.79099C63.1116 8.17125 61.0374 10.1095 58.4871 10.1095C55.9198 10.1095 53.8455 8.17125 53.8455 5.79099Z" fill="#E30613"/>
    <path d="M14.4346 29.7635C13.4485 29.3385 12.5134 28.6924 11.4083 27.6553C9.7591 26.1761 8.31394 24.697 7.25982 23.3368C7.25982 23.3368 8.1779 23.2858 8.61995 23.2008C9.26602 23.0818 9.7931 22.9798 10.3882 22.7078C11.2723 22.2997 11.7143 21.9257 12.1564 21.3306C12.5984 20.7355 12.8364 19.9194 12.8364 19.2734C12.8364 18.1342 12.2244 17.1651 11.1702 16.383C10.1841 15.652 8.44994 15.2099 7.08979 15.1249C6.06967 15.0569 5.13458 15.0909 5.13458 15.0909H3.41737C3.12833 15.0909 3.06033 15.0909 2.89031 15.0909H1.03711C1.34314 15.2439 1.51314 15.5159 1.59815 15.907L1.64921 16.298V28.9475L1.59815 29.3215C1.53014 29.6785 1.39416 29.8996 1.15614 30.0526L1.03711 30.1376H1.98921H2.7883H4.09743L3.97846 30.0526C3.65542 29.7975 3.50239 29.4235 3.48539 28.9305V23.6259H4.70953L4.91354 23.8639C5.59362 24.731 6.32472 25.4111 7.0558 26.1761C8.60298 27.7913 10.4732 29.0325 12.8874 30.0186L13.7205 30.2056H15.7268C15.6928 30.2396 14.5876 29.8486 14.4346 29.7635ZM3.50241 21.7896V16.9781C3.50241 16.6381 3.4004 16.4851 3.4004 16.4851C3.4004 16.4851 11.0003 15.771 11.0003 19.2734C11.0003 22.5377 3.50241 21.7896 3.50241 21.7896Z" fill="black"/>
    <path d="M31.385 30.1547H32.7622H32.6602C32.2011 29.8827 31.8781 29.5257 31.6911 29.1176L24.2783 14.496L23.7852 15.176L23.3941 15.7031V15.6861L22.7821 16.4512L22.85 16.4682C22.9351 16.5022 23.0031 16.5362 23.0541 16.5702L23.1561 16.7402L23.2241 16.8932L23.3601 17.1313L17.0864 28.9986C16.7804 29.5937 16.4404 30.0527 16.3044 30.1377L16.2363 30.1887H18.2935L18.1915 30.1207C18.0215 29.9677 17.9705 29.7807 17.9705 29.6277C17.9705 29.6277 18.0045 29.4577 18.1576 29.1856C18.2936 28.9136 20.5378 24.7141 20.5378 24.7141H27.0326L29.3618 29.1346L29.4978 29.4407L29.5318 29.6107C29.5318 29.8487 29.4128 30.0527 29.1918 30.1547H29.1238H30.637H31.385ZM20.8948 23.932L23.8362 18.1004L26.8455 23.932H20.8948Z" fill="black"/>
    <path d="M79.9934 30.1547H81.3706H81.2856C80.8095 29.8827 80.4865 29.5257 80.2995 29.1176L72.8696 14.496L72.3936 15.176L71.9856 15.7031V15.6861L71.3735 16.4512L71.4415 16.4682C71.5265 16.5022 71.6115 16.5362 71.6455 16.5702L71.7305 16.7402L71.8155 16.8932L71.9515 17.1313L65.6778 28.9986C65.3718 29.5937 65.0318 30.0527 64.9127 30.1377L64.8447 30.1887H66.9019L66.817 30.1207C66.6299 29.9677 66.5789 29.7807 66.5789 29.6277C66.5789 29.6277 66.63 29.4577 66.783 29.1856C66.936 28.9136 69.1802 24.7141 69.1802 24.7141H75.658L77.9872 29.1346L78.1402 29.4407L78.1742 29.6107C78.1742 29.8487 78.0552 30.0527 77.8512 30.1547H77.8002H79.3134H79.2964H79.9934ZM69.5203 23.932L72.4786 18.1004L75.4879 23.932H69.5203Z" fill="black"/>
    <path d="M97.9651 15.1759L98.1181 15.2439C98.3561 15.329 98.5091 15.516 98.5431 15.771C98.5601 15.89 98.5601 15.992 98.5601 16.077L98.5941 26.9413L91.3173 20.4805L85.5877 15.482C85.5877 15.448 85.5536 15.295 85.5706 15.295L85.6556 15.1589H82.9354H82.2383L82.3573 15.2269C82.3573 15.2269 82.5103 15.312 82.7313 15.465C82.9693 15.601 83.3604 16.077 83.3604 16.077V29.2025V29.5256C83.3604 29.7636 83.2074 29.9336 82.9183 30.0696L82.7483 30.1206H85.2476C84.9076 30.0526 84.7205 29.8486 84.6695 29.5256C84.6355 29.4065 84.6356 29.3045 84.6356 29.2025V16.6721L99.9713 30.2226L99.9543 16.094C99.9543 16.026 99.9543 15.907 99.9883 15.788C100.039 15.448 100.226 15.2609 100.583 15.1759H97.9651Z" fill="black"/>
    <path d="M110.818 15.1759V15.1929H110.104V15.1759H101.824L102.079 16.9611H102.164L102.317 16.8251C102.555 16.5871 102.861 16.4681 103.218 16.4681H109.407V28.9475L109.373 29.3895C109.305 29.7126 109.169 29.9506 108.914 30.1206L108.812 30.2056H112.178C111.855 30.0696 111.651 29.7976 111.6 29.3895L111.566 28.9475V16.4511H117.738C118.078 16.4511 118.384 16.5701 118.639 16.8081L118.775 16.9441H118.843L119.115 15.1589H110.818V15.1759Z" fill="black"/>
    <path d="M48.5917 17.0632C46.8575 15.89 44.4262 15.278 41.3148 15.21H39.6486H35.8572H34.276H33.46C33.8 15.363 33.987 15.635 34.038 16.0261L34.089 16.4171V28.9645L34.038 29.3556C34.004 29.6786 33.834 29.8996 33.596 30.0696L33.46 30.1546H34.7861H35.5002H40.2947H41.9269C43.5251 30.1716 44.9703 29.9676 46.2624 29.5256C47.8436 28.9985 49.1697 28.0464 50.2408 26.7033C51.278 25.3941 51.805 24.034 51.822 22.5888C51.805 20.3615 50.7339 18.5253 48.5917 17.0632ZM48.9657 25.2241C48.2856 26.4312 47.2655 27.3833 45.9223 28.0634C44.5112 28.7605 42.981 29.1175 41.3148 29.1175H39.6996H36.1972V16.1621H39.0196L41.0768 16.1791C42.4369 16.2131 43.6611 16.4341 44.7832 16.8251C46.2794 17.3522 47.4695 18.1343 48.3536 19.1714C49.2377 20.1915 49.6798 21.3307 49.6798 22.6058C49.6798 23.5239 49.4418 24.374 48.9657 25.2241Z" fill="black"/>
</svg>
